M48
;GenerationSoftware,Autodesk,EAGLE,9.6.2*%
;CreationDate,2020-10-26T09:47:51Z*%
FMAT,2
ICI,OFF
METRIC,TZ,000.000
T2C0.914
T1C1.016
%
G90
M71
T1
X12700Y35560
X10160Y35560
X12700Y38100
X10160Y38100
X12700Y40640
X10160Y40640
X12700Y43180
X10160Y43180
T2
X29210Y50800
X31750Y50800
X29210Y48260
X31750Y48260
X29210Y45720
X31750Y45720
X29210Y43180
X31750Y43180
X29210Y40640
X31750Y40640
X29210Y38100
X31750Y38100
X29210Y35560
X31750Y35560
X29210Y33020
X31750Y33020
X29210Y30480
X31750Y30480
X29210Y27940
X31750Y27940
X46990Y50800
X49530Y50800
X46990Y48260
X49530Y48260
X46990Y45720
X49530Y45720
X46990Y43180
X49530Y43180
X46990Y40640
X49530Y40640
X46990Y38100
X49530Y38100
X46990Y35560
X49530Y35560
X46990Y33020
X49530Y33020
X46990Y30480
X49530Y30480
X46990Y27940
X49530Y27940
M30