G04 EAGLE Gerber RS-274X export*
G75*
%MOMM*%
%FSLAX34Y34*%
%LPD*%
%INBottom Copper*%
%IPPOS*%
%AMOC8*
5,1,8,0,0,1.08239X$1,22.5*%
G01*
%ADD10P,1.814519X8X112.500000*%
%ADD11P,1.539592X8X292.500000*%


D10*
X127000Y355600D03*
X101600Y355600D03*
X127000Y381000D03*
X101600Y381000D03*
X127000Y406400D03*
X101600Y406400D03*
X127000Y431800D03*
X101600Y431800D03*
D11*
X292100Y508000D03*
X317500Y508000D03*
X292100Y482600D03*
X317500Y482600D03*
X292100Y457200D03*
X317500Y457200D03*
X292100Y431800D03*
X317500Y431800D03*
X292100Y406400D03*
X317500Y406400D03*
X292100Y381000D03*
X317500Y381000D03*
X292100Y355600D03*
X317500Y355600D03*
X292100Y330200D03*
X317500Y330200D03*
X292100Y304800D03*
X317500Y304800D03*
X292100Y279400D03*
X317500Y279400D03*
X469900Y508000D03*
X495300Y508000D03*
X469900Y482600D03*
X495300Y482600D03*
X469900Y457200D03*
X495300Y457200D03*
X469900Y431800D03*
X495300Y431800D03*
X469900Y406400D03*
X495300Y406400D03*
X469900Y381000D03*
X495300Y381000D03*
X469900Y355600D03*
X495300Y355600D03*
X469900Y330200D03*
X495300Y330200D03*
X469900Y304800D03*
X495300Y304800D03*
X469900Y279400D03*
X495300Y279400D03*
M02*
