G04 EAGLE Gerber RS-274X export*
G75*
%MOMM*%
%FSLAX34Y34*%
%LPD*%
%INTop Copper*%
%IPPOS*%
%AMOC8*
5,1,8,0,0,1.08239X$1,22.5*%
G01*
%ADD10P,1.814519X8X112.500000*%
%ADD11P,1.539592X8X292.500000*%
%ADD12C,0.304800*%

G36*
X531898Y251464D02*
X531898Y251464D01*
X531917Y251462D01*
X532019Y251484D01*
X532121Y251500D01*
X532138Y251510D01*
X532158Y251514D01*
X532247Y251567D01*
X532338Y251616D01*
X532352Y251630D01*
X532369Y251640D01*
X532436Y251719D01*
X532508Y251794D01*
X532516Y251812D01*
X532529Y251827D01*
X532568Y251923D01*
X532611Y252017D01*
X532613Y252037D01*
X532621Y252055D01*
X532639Y252222D01*
X532639Y535078D01*
X532636Y535098D01*
X532638Y535117D01*
X532616Y535219D01*
X532600Y535321D01*
X532590Y535338D01*
X532586Y535358D01*
X532533Y535447D01*
X532484Y535538D01*
X532470Y535552D01*
X532460Y535569D01*
X532381Y535636D01*
X532306Y535708D01*
X532288Y535716D01*
X532273Y535729D01*
X532177Y535768D01*
X532083Y535811D01*
X532063Y535813D01*
X532045Y535821D01*
X531878Y535839D01*
X61722Y535839D01*
X61702Y535836D01*
X61683Y535838D01*
X61581Y535816D01*
X61479Y535800D01*
X61462Y535790D01*
X61442Y535786D01*
X61353Y535733D01*
X61262Y535684D01*
X61248Y535670D01*
X61231Y535660D01*
X61164Y535581D01*
X61092Y535506D01*
X61084Y535488D01*
X61071Y535473D01*
X61032Y535377D01*
X60989Y535283D01*
X60987Y535263D01*
X60979Y535245D01*
X60961Y535078D01*
X60961Y252222D01*
X60964Y252202D01*
X60962Y252183D01*
X60984Y252081D01*
X61000Y251979D01*
X61010Y251962D01*
X61014Y251942D01*
X61067Y251853D01*
X61116Y251762D01*
X61130Y251748D01*
X61140Y251731D01*
X61219Y251664D01*
X61294Y251592D01*
X61312Y251584D01*
X61327Y251571D01*
X61423Y251532D01*
X61517Y251489D01*
X61537Y251487D01*
X61555Y251479D01*
X61722Y251461D01*
X531878Y251461D01*
X531898Y251464D01*
G37*
%LPC*%
G36*
X287891Y320039D02*
X287891Y320039D01*
X282526Y325404D01*
X282452Y325457D01*
X282383Y325517D01*
X282353Y325529D01*
X282327Y325548D01*
X282240Y325575D01*
X282155Y325609D01*
X282114Y325613D01*
X282091Y325620D01*
X282059Y325619D01*
X281988Y325627D01*
X132726Y325627D01*
X110438Y347915D01*
X110422Y347926D01*
X110410Y347942D01*
X110322Y347998D01*
X110239Y348058D01*
X110220Y348064D01*
X110203Y348075D01*
X110102Y348100D01*
X110004Y348131D01*
X109984Y348130D01*
X109964Y348135D01*
X109861Y348127D01*
X109758Y348124D01*
X109739Y348117D01*
X109719Y348116D01*
X109624Y348076D01*
X109527Y348040D01*
X109511Y348027D01*
X109493Y348020D01*
X109362Y347915D01*
X106124Y344677D01*
X103123Y344677D01*
X103123Y354838D01*
X103120Y354858D01*
X103122Y354877D01*
X103100Y354979D01*
X103083Y355081D01*
X103074Y355098D01*
X103070Y355118D01*
X103017Y355207D01*
X102968Y355298D01*
X102954Y355312D01*
X102944Y355329D01*
X102865Y355396D01*
X102790Y355467D01*
X102772Y355476D01*
X102757Y355489D01*
X102661Y355527D01*
X102567Y355571D01*
X102547Y355573D01*
X102529Y355581D01*
X102362Y355599D01*
X101599Y355599D01*
X101599Y355601D01*
X102362Y355601D01*
X102382Y355604D01*
X102401Y355602D01*
X102503Y355624D01*
X102605Y355641D01*
X102622Y355650D01*
X102642Y355654D01*
X102731Y355707D01*
X102822Y355756D01*
X102836Y355770D01*
X102853Y355780D01*
X102920Y355859D01*
X102991Y355934D01*
X103000Y355952D01*
X103013Y355967D01*
X103052Y356063D01*
X103095Y356157D01*
X103097Y356177D01*
X103105Y356195D01*
X103123Y356362D01*
X103123Y366523D01*
X106124Y366523D01*
X108428Y364219D01*
X108486Y364177D01*
X108538Y364128D01*
X108585Y364106D01*
X108627Y364076D01*
X108696Y364055D01*
X108761Y364024D01*
X108813Y364019D01*
X108863Y364003D01*
X108934Y364005D01*
X109005Y363997D01*
X109056Y364008D01*
X109108Y364010D01*
X109176Y364034D01*
X109246Y364050D01*
X109291Y364076D01*
X109339Y364094D01*
X109395Y364139D01*
X109457Y364176D01*
X109491Y364215D01*
X109531Y364248D01*
X109570Y364308D01*
X109617Y364363D01*
X109636Y364411D01*
X109664Y364455D01*
X109682Y364524D01*
X109709Y364591D01*
X109717Y364662D01*
X109725Y364693D01*
X109723Y364717D01*
X109727Y364758D01*
X109727Y371124D01*
X109716Y371195D01*
X109714Y371266D01*
X109696Y371315D01*
X109688Y371367D01*
X109654Y371430D01*
X109629Y371497D01*
X109597Y371538D01*
X109572Y371584D01*
X109520Y371633D01*
X109476Y371689D01*
X109432Y371718D01*
X109394Y371753D01*
X109329Y371784D01*
X109269Y371822D01*
X109218Y371835D01*
X109171Y371857D01*
X109100Y371865D01*
X109030Y371883D01*
X108978Y371878D01*
X108927Y371884D01*
X108856Y371869D01*
X108785Y371863D01*
X108737Y371843D01*
X108686Y371832D01*
X108625Y371795D01*
X108559Y371767D01*
X108503Y371722D01*
X108475Y371706D01*
X108460Y371688D01*
X108428Y371662D01*
X106335Y369569D01*
X96865Y369569D01*
X90230Y376204D01*
X90156Y376257D01*
X90087Y376317D01*
X90057Y376329D01*
X90031Y376348D01*
X89943Y376375D01*
X89859Y376409D01*
X89818Y376413D01*
X89795Y376420D01*
X89763Y376419D01*
X89692Y376427D01*
X87006Y376427D01*
X76707Y386726D01*
X76707Y446394D01*
X142886Y512573D01*
X281988Y512573D01*
X282078Y512587D01*
X282169Y512595D01*
X282199Y512607D01*
X282231Y512612D01*
X282311Y512655D01*
X282395Y512691D01*
X282427Y512717D01*
X282448Y512728D01*
X282470Y512751D01*
X282526Y512796D01*
X287891Y518161D01*
X296309Y518161D01*
X298489Y515981D01*
X298505Y515969D01*
X298517Y515953D01*
X298605Y515897D01*
X298689Y515837D01*
X298708Y515831D01*
X298724Y515820D01*
X298825Y515795D01*
X298924Y515765D01*
X298944Y515765D01*
X298963Y515760D01*
X299066Y515768D01*
X299169Y515771D01*
X299188Y515778D01*
X299208Y515779D01*
X299303Y515820D01*
X299401Y515856D01*
X299416Y515868D01*
X299434Y515876D01*
X299565Y515981D01*
X308857Y525273D01*
X326143Y525273D01*
X338620Y512796D01*
X338694Y512743D01*
X338763Y512683D01*
X338793Y512671D01*
X338819Y512652D01*
X338906Y512625D01*
X338991Y512591D01*
X339032Y512587D01*
X339054Y512580D01*
X339087Y512581D01*
X339158Y512573D01*
X459788Y512573D01*
X459878Y512587D01*
X459969Y512595D01*
X459999Y512607D01*
X460031Y512612D01*
X460111Y512655D01*
X460195Y512691D01*
X460227Y512717D01*
X460248Y512728D01*
X460270Y512751D01*
X460326Y512796D01*
X465691Y518161D01*
X474109Y518161D01*
X480061Y512209D01*
X480061Y503791D01*
X474109Y497839D01*
X465691Y497839D01*
X460326Y503204D01*
X460252Y503257D01*
X460183Y503317D01*
X460153Y503329D01*
X460127Y503348D01*
X460040Y503375D01*
X459955Y503409D01*
X459914Y503413D01*
X459891Y503420D01*
X459859Y503419D01*
X459788Y503427D01*
X335054Y503427D01*
X328960Y509521D01*
X328902Y509563D01*
X328850Y509613D01*
X328803Y509635D01*
X328761Y509665D01*
X328692Y509686D01*
X328627Y509716D01*
X328575Y509722D01*
X328525Y509737D01*
X328454Y509735D01*
X328383Y509743D01*
X328332Y509732D01*
X328280Y509731D01*
X328212Y509706D01*
X328142Y509691D01*
X328097Y509664D01*
X328049Y509646D01*
X327993Y509602D01*
X327931Y509565D01*
X327897Y509525D01*
X327857Y509493D01*
X327818Y509432D01*
X327771Y509378D01*
X327752Y509330D01*
X327724Y509286D01*
X327706Y509216D01*
X327679Y509150D01*
X327671Y509078D01*
X327663Y509047D01*
X327665Y509024D01*
X327661Y508983D01*
X327661Y503791D01*
X321709Y497839D01*
X313291Y497839D01*
X307339Y503791D01*
X307339Y508983D01*
X307328Y509054D01*
X307326Y509126D01*
X307308Y509174D01*
X307300Y509226D01*
X307266Y509289D01*
X307241Y509357D01*
X307209Y509397D01*
X307184Y509443D01*
X307132Y509493D01*
X307088Y509549D01*
X307044Y509577D01*
X307006Y509613D01*
X306941Y509643D01*
X306881Y509682D01*
X306830Y509694D01*
X306783Y509716D01*
X306712Y509724D01*
X306642Y509742D01*
X306590Y509738D01*
X306539Y509743D01*
X306468Y509728D01*
X306397Y509722D01*
X306349Y509702D01*
X306298Y509691D01*
X306237Y509654D01*
X306171Y509626D01*
X306115Y509581D01*
X306087Y509565D01*
X306072Y509547D01*
X306040Y509521D01*
X302484Y505965D01*
X302431Y505891D01*
X302371Y505822D01*
X302359Y505792D01*
X302340Y505766D01*
X302313Y505678D01*
X302279Y505594D01*
X302275Y505553D01*
X302268Y505530D01*
X302269Y505498D01*
X302261Y505427D01*
X302261Y503791D01*
X296309Y497839D01*
X287891Y497839D01*
X282526Y503204D01*
X282452Y503257D01*
X282383Y503317D01*
X282353Y503329D01*
X282327Y503348D01*
X282240Y503375D01*
X282155Y503409D01*
X282114Y503413D01*
X282091Y503420D01*
X282059Y503419D01*
X281988Y503427D01*
X146989Y503427D01*
X146899Y503413D01*
X146808Y503405D01*
X146779Y503393D01*
X146747Y503388D01*
X146666Y503345D01*
X146582Y503309D01*
X146550Y503283D01*
X146529Y503272D01*
X146507Y503249D01*
X146451Y503204D01*
X86076Y442829D01*
X86023Y442755D01*
X85963Y442685D01*
X85951Y442655D01*
X85932Y442629D01*
X85905Y442542D01*
X85871Y442457D01*
X85867Y442416D01*
X85860Y442394D01*
X85861Y442362D01*
X85853Y442291D01*
X85853Y390829D01*
X85867Y390739D01*
X85875Y390648D01*
X85887Y390619D01*
X85892Y390587D01*
X85935Y390506D01*
X85971Y390422D01*
X85997Y390390D01*
X86008Y390369D01*
X86031Y390347D01*
X86076Y390291D01*
X89862Y386504D01*
X89879Y386493D01*
X89891Y386477D01*
X89978Y386421D01*
X90062Y386361D01*
X90081Y386355D01*
X90098Y386344D01*
X90198Y386319D01*
X90297Y386289D01*
X90317Y386289D01*
X90336Y386284D01*
X90439Y386292D01*
X90543Y386295D01*
X90562Y386302D01*
X90582Y386303D01*
X90677Y386344D01*
X90774Y386379D01*
X90790Y386392D01*
X90808Y386400D01*
X90939Y386504D01*
X96865Y392431D01*
X106335Y392431D01*
X108428Y390338D01*
X108486Y390296D01*
X108538Y390247D01*
X108585Y390225D01*
X108627Y390194D01*
X108696Y390173D01*
X108761Y390143D01*
X108813Y390137D01*
X108863Y390122D01*
X108934Y390124D01*
X109005Y390116D01*
X109056Y390127D01*
X109108Y390128D01*
X109176Y390153D01*
X109246Y390168D01*
X109291Y390195D01*
X109339Y390213D01*
X109395Y390258D01*
X109457Y390294D01*
X109491Y390334D01*
X109531Y390366D01*
X109570Y390427D01*
X109617Y390481D01*
X109636Y390529D01*
X109664Y390573D01*
X109682Y390643D01*
X109709Y390709D01*
X109717Y390781D01*
X109725Y390812D01*
X109723Y390835D01*
X109727Y390876D01*
X109727Y391491D01*
X109713Y391581D01*
X109705Y391672D01*
X109693Y391701D01*
X109688Y391733D01*
X109645Y391814D01*
X109609Y391898D01*
X109583Y391930D01*
X109572Y391951D01*
X109549Y391973D01*
X109504Y392029D01*
X106787Y394746D01*
X106713Y394799D01*
X106643Y394859D01*
X106613Y394871D01*
X106587Y394890D01*
X106500Y394917D01*
X106415Y394951D01*
X106374Y394955D01*
X106352Y394962D01*
X106320Y394961D01*
X106249Y394969D01*
X96865Y394969D01*
X90169Y401665D01*
X90169Y411135D01*
X96865Y417831D01*
X106335Y417831D01*
X113031Y411135D01*
X113031Y401751D01*
X113045Y401661D01*
X113053Y401570D01*
X113065Y401541D01*
X113070Y401509D01*
X113113Y401428D01*
X113149Y401344D01*
X113175Y401312D01*
X113186Y401291D01*
X113209Y401269D01*
X113254Y401213D01*
X118873Y395594D01*
X118873Y390876D01*
X118884Y390805D01*
X118886Y390734D01*
X118904Y390685D01*
X118912Y390633D01*
X118946Y390570D01*
X118971Y390503D01*
X119003Y390462D01*
X119028Y390416D01*
X119080Y390367D01*
X119124Y390311D01*
X119168Y390282D01*
X119206Y390247D01*
X119271Y390216D01*
X119331Y390178D01*
X119382Y390165D01*
X119429Y390143D01*
X119500Y390135D01*
X119570Y390117D01*
X119622Y390122D01*
X119673Y390116D01*
X119744Y390131D01*
X119815Y390137D01*
X119863Y390157D01*
X119914Y390168D01*
X119975Y390205D01*
X120041Y390233D01*
X120097Y390278D01*
X120125Y390294D01*
X120140Y390312D01*
X120172Y390338D01*
X122265Y392431D01*
X131735Y392431D01*
X138431Y385735D01*
X138431Y376265D01*
X131735Y369569D01*
X122265Y369569D01*
X120172Y371662D01*
X120114Y371704D01*
X120062Y371753D01*
X120015Y371775D01*
X119973Y371806D01*
X119904Y371827D01*
X119839Y371857D01*
X119787Y371863D01*
X119737Y371878D01*
X119666Y371876D01*
X119595Y371884D01*
X119544Y371873D01*
X119492Y371872D01*
X119424Y371847D01*
X119354Y371832D01*
X119309Y371805D01*
X119261Y371787D01*
X119205Y371742D01*
X119143Y371706D01*
X119109Y371666D01*
X119069Y371634D01*
X119030Y371573D01*
X118983Y371519D01*
X118964Y371471D01*
X118936Y371427D01*
X118918Y371357D01*
X118891Y371291D01*
X118883Y371219D01*
X118875Y371188D01*
X118877Y371165D01*
X118873Y371124D01*
X118873Y365476D01*
X118884Y365405D01*
X118886Y365334D01*
X118904Y365285D01*
X118912Y365233D01*
X118946Y365170D01*
X118971Y365103D01*
X119003Y365062D01*
X119028Y365016D01*
X119080Y364967D01*
X119124Y364911D01*
X119168Y364882D01*
X119206Y364847D01*
X119271Y364816D01*
X119331Y364778D01*
X119382Y364765D01*
X119429Y364743D01*
X119500Y364735D01*
X119570Y364717D01*
X119622Y364722D01*
X119673Y364716D01*
X119744Y364731D01*
X119815Y364737D01*
X119863Y364757D01*
X119914Y364768D01*
X119975Y364805D01*
X120041Y364833D01*
X120097Y364878D01*
X120125Y364894D01*
X120140Y364912D01*
X120172Y364938D01*
X122265Y367031D01*
X131735Y367031D01*
X138370Y360396D01*
X138444Y360343D01*
X138513Y360283D01*
X138543Y360271D01*
X138570Y360252D01*
X138656Y360225D01*
X138741Y360191D01*
X138782Y360187D01*
X138805Y360180D01*
X138837Y360181D01*
X138908Y360173D01*
X239091Y360173D01*
X239181Y360187D01*
X239272Y360195D01*
X239301Y360207D01*
X239333Y360212D01*
X239414Y360255D01*
X239498Y360291D01*
X239530Y360317D01*
X239551Y360328D01*
X239573Y360351D01*
X239629Y360396D01*
X281716Y402483D01*
X281769Y402557D01*
X281829Y402627D01*
X281841Y402657D01*
X281860Y402683D01*
X281887Y402770D01*
X281921Y402855D01*
X281925Y402896D01*
X281932Y402918D01*
X281931Y402950D01*
X281939Y403021D01*
X281939Y410609D01*
X287891Y416561D01*
X296309Y416561D01*
X298489Y414381D01*
X298505Y414369D01*
X298517Y414353D01*
X298605Y414297D01*
X298689Y414237D01*
X298708Y414231D01*
X298724Y414220D01*
X298825Y414195D01*
X298924Y414165D01*
X298944Y414165D01*
X298963Y414160D01*
X299066Y414168D01*
X299169Y414171D01*
X299188Y414178D01*
X299208Y414179D01*
X299303Y414220D01*
X299401Y414256D01*
X299416Y414268D01*
X299434Y414276D01*
X299565Y414381D01*
X308857Y423673D01*
X310138Y423673D01*
X310209Y423684D01*
X310281Y423686D01*
X310330Y423704D01*
X310381Y423712D01*
X310445Y423746D01*
X310512Y423771D01*
X310553Y423803D01*
X310599Y423828D01*
X310648Y423880D01*
X310704Y423924D01*
X310732Y423968D01*
X310768Y424006D01*
X310798Y424071D01*
X310837Y424131D01*
X310850Y424182D01*
X310872Y424229D01*
X310879Y424300D01*
X310897Y424370D01*
X310893Y424422D01*
X310899Y424473D01*
X310883Y424544D01*
X310878Y424615D01*
X310858Y424663D01*
X310846Y424714D01*
X310810Y424775D01*
X310782Y424841D01*
X310737Y424897D01*
X310720Y424925D01*
X310702Y424940D01*
X310677Y424972D01*
X307847Y427802D01*
X307847Y430277D01*
X316738Y430277D01*
X316758Y430280D01*
X316777Y430278D01*
X316879Y430300D01*
X316981Y430317D01*
X316998Y430326D01*
X317018Y430330D01*
X317107Y430383D01*
X317198Y430432D01*
X317212Y430446D01*
X317229Y430456D01*
X317296Y430535D01*
X317367Y430610D01*
X317376Y430628D01*
X317389Y430643D01*
X317427Y430739D01*
X317471Y430833D01*
X317473Y430853D01*
X317481Y430871D01*
X317499Y431038D01*
X317499Y432562D01*
X317496Y432582D01*
X317498Y432601D01*
X317476Y432703D01*
X317459Y432805D01*
X317450Y432822D01*
X317446Y432842D01*
X317393Y432931D01*
X317344Y433022D01*
X317330Y433036D01*
X317320Y433053D01*
X317241Y433120D01*
X317166Y433191D01*
X317148Y433200D01*
X317133Y433213D01*
X317037Y433252D01*
X316943Y433295D01*
X316923Y433297D01*
X316905Y433305D01*
X316738Y433323D01*
X307842Y433323D01*
X307836Y433362D01*
X307834Y433433D01*
X307816Y433482D01*
X307807Y433534D01*
X307774Y433597D01*
X307749Y433664D01*
X307717Y433705D01*
X307692Y433751D01*
X307641Y433800D01*
X307596Y433857D01*
X307552Y433885D01*
X307514Y433921D01*
X307449Y433951D01*
X307389Y433990D01*
X307338Y434002D01*
X307291Y434024D01*
X307220Y434032D01*
X307150Y434050D01*
X307098Y434046D01*
X307047Y434051D01*
X306976Y434036D01*
X306905Y434030D01*
X306857Y434010D01*
X306806Y433999D01*
X306745Y433962D01*
X306679Y433934D01*
X306623Y433889D01*
X306595Y433873D01*
X306580Y433855D01*
X306548Y433829D01*
X302484Y429765D01*
X302431Y429691D01*
X302371Y429622D01*
X302359Y429592D01*
X302340Y429566D01*
X302313Y429479D01*
X302279Y429394D01*
X302275Y429353D01*
X302268Y429331D01*
X302269Y429298D01*
X302261Y429227D01*
X302261Y427591D01*
X296309Y421639D01*
X287891Y421639D01*
X282526Y427004D01*
X282452Y427057D01*
X282383Y427117D01*
X282353Y427129D01*
X282327Y427148D01*
X282240Y427175D01*
X282155Y427209D01*
X282114Y427213D01*
X282091Y427220D01*
X282059Y427219D01*
X281988Y427227D01*
X220649Y427227D01*
X220559Y427213D01*
X220468Y427205D01*
X220439Y427193D01*
X220407Y427188D01*
X220326Y427145D01*
X220242Y427109D01*
X220210Y427083D01*
X220189Y427072D01*
X220167Y427049D01*
X220111Y427004D01*
X194934Y401827D01*
X138908Y401827D01*
X138818Y401813D01*
X138727Y401805D01*
X138697Y401793D01*
X138665Y401788D01*
X138585Y401745D01*
X138501Y401709D01*
X138469Y401683D01*
X138448Y401672D01*
X138426Y401649D01*
X138370Y401604D01*
X131735Y394969D01*
X122265Y394969D01*
X115569Y401665D01*
X115569Y411135D01*
X122265Y417831D01*
X131735Y417831D01*
X138370Y411196D01*
X138444Y411143D01*
X138513Y411083D01*
X138543Y411071D01*
X138570Y411052D01*
X138656Y411025D01*
X138741Y410991D01*
X138782Y410987D01*
X138805Y410980D01*
X138837Y410981D01*
X138908Y410973D01*
X190831Y410973D01*
X190921Y410987D01*
X191012Y410995D01*
X191041Y411007D01*
X191073Y411012D01*
X191154Y411055D01*
X191238Y411091D01*
X191270Y411117D01*
X191291Y411128D01*
X191313Y411151D01*
X191369Y411196D01*
X216546Y436373D01*
X281988Y436373D01*
X282078Y436387D01*
X282169Y436395D01*
X282199Y436407D01*
X282231Y436412D01*
X282311Y436455D01*
X282395Y436491D01*
X282427Y436517D01*
X282448Y436528D01*
X282470Y436551D01*
X282526Y436596D01*
X287891Y441961D01*
X296309Y441961D01*
X298489Y439781D01*
X298505Y439769D01*
X298517Y439753D01*
X298605Y439697D01*
X298689Y439637D01*
X298708Y439631D01*
X298724Y439620D01*
X298825Y439595D01*
X298924Y439565D01*
X298944Y439565D01*
X298963Y439560D01*
X299066Y439568D01*
X299169Y439571D01*
X299188Y439578D01*
X299208Y439579D01*
X299303Y439620D01*
X299401Y439656D01*
X299416Y439668D01*
X299434Y439676D01*
X299565Y439781D01*
X308857Y449073D01*
X310138Y449073D01*
X310209Y449084D01*
X310281Y449086D01*
X310330Y449104D01*
X310381Y449112D01*
X310445Y449146D01*
X310512Y449171D01*
X310553Y449203D01*
X310599Y449228D01*
X310648Y449280D01*
X310704Y449324D01*
X310732Y449368D01*
X310768Y449406D01*
X310798Y449471D01*
X310837Y449531D01*
X310850Y449582D01*
X310872Y449629D01*
X310879Y449700D01*
X310897Y449770D01*
X310893Y449822D01*
X310899Y449873D01*
X310883Y449944D01*
X310878Y450015D01*
X310858Y450063D01*
X310846Y450114D01*
X310810Y450175D01*
X310782Y450241D01*
X310737Y450297D01*
X310720Y450325D01*
X310702Y450340D01*
X310677Y450372D01*
X307847Y453202D01*
X307847Y455677D01*
X316738Y455677D01*
X316758Y455680D01*
X316777Y455678D01*
X316879Y455700D01*
X316981Y455717D01*
X316998Y455726D01*
X317018Y455730D01*
X317107Y455783D01*
X317198Y455832D01*
X317212Y455846D01*
X317229Y455856D01*
X317296Y455935D01*
X317367Y456010D01*
X317376Y456028D01*
X317389Y456043D01*
X317427Y456139D01*
X317471Y456233D01*
X317473Y456253D01*
X317481Y456271D01*
X317499Y456438D01*
X317499Y457201D01*
X317501Y457201D01*
X317501Y456438D01*
X317504Y456418D01*
X317502Y456399D01*
X317524Y456297D01*
X317541Y456195D01*
X317550Y456178D01*
X317554Y456158D01*
X317607Y456069D01*
X317656Y455978D01*
X317670Y455964D01*
X317680Y455947D01*
X317759Y455880D01*
X317834Y455809D01*
X317852Y455800D01*
X317867Y455787D01*
X317963Y455748D01*
X318057Y455705D01*
X318077Y455703D01*
X318095Y455695D01*
X318262Y455677D01*
X327153Y455677D01*
X327153Y453202D01*
X324323Y450372D01*
X324281Y450314D01*
X324232Y450262D01*
X324210Y450215D01*
X324180Y450173D01*
X324159Y450104D01*
X324128Y450039D01*
X324123Y449987D01*
X324107Y449937D01*
X324109Y449866D01*
X324101Y449795D01*
X324112Y449744D01*
X324114Y449692D01*
X324138Y449624D01*
X324154Y449554D01*
X324180Y449509D01*
X324198Y449461D01*
X324243Y449405D01*
X324280Y449343D01*
X324319Y449309D01*
X324352Y449269D01*
X324412Y449230D01*
X324467Y449183D01*
X324515Y449164D01*
X324559Y449136D01*
X324628Y449118D01*
X324695Y449091D01*
X324766Y449083D01*
X324797Y449075D01*
X324821Y449077D01*
X324862Y449073D01*
X326143Y449073D01*
X338620Y436596D01*
X338694Y436543D01*
X338763Y436483D01*
X338793Y436471D01*
X338819Y436452D01*
X338906Y436425D01*
X338991Y436391D01*
X339032Y436387D01*
X339054Y436380D01*
X339087Y436381D01*
X339158Y436373D01*
X459788Y436373D01*
X459878Y436387D01*
X459969Y436395D01*
X459999Y436407D01*
X460031Y436412D01*
X460111Y436455D01*
X460195Y436491D01*
X460227Y436517D01*
X460248Y436528D01*
X460270Y436551D01*
X460326Y436596D01*
X465691Y441961D01*
X474109Y441961D01*
X480061Y436009D01*
X480061Y427591D01*
X474109Y421639D01*
X465691Y421639D01*
X460326Y427004D01*
X460252Y427057D01*
X460183Y427117D01*
X460153Y427129D01*
X460127Y427148D01*
X460040Y427175D01*
X459955Y427209D01*
X459914Y427213D01*
X459891Y427220D01*
X459859Y427219D01*
X459788Y427227D01*
X335054Y427227D01*
X328452Y433829D01*
X328394Y433871D01*
X328342Y433921D01*
X328295Y433943D01*
X328253Y433973D01*
X328184Y433994D01*
X328119Y434024D01*
X328067Y434030D01*
X328017Y434045D01*
X327946Y434043D01*
X327874Y434051D01*
X327824Y434040D01*
X327772Y434039D01*
X327704Y434014D01*
X327634Y433999D01*
X327589Y433972D01*
X327541Y433954D01*
X327484Y433910D01*
X327423Y433873D01*
X327389Y433833D01*
X327348Y433801D01*
X327310Y433740D01*
X327263Y433686D01*
X327244Y433638D01*
X327215Y433594D01*
X327198Y433524D01*
X327171Y433458D01*
X327163Y433386D01*
X327155Y433355D01*
X327157Y433332D01*
X327156Y433323D01*
X318262Y433323D01*
X318242Y433320D01*
X318223Y433322D01*
X318121Y433300D01*
X318019Y433283D01*
X318002Y433274D01*
X317982Y433270D01*
X317893Y433217D01*
X317802Y433168D01*
X317788Y433154D01*
X317771Y433144D01*
X317704Y433065D01*
X317633Y432990D01*
X317624Y432972D01*
X317611Y432957D01*
X317573Y432861D01*
X317529Y432767D01*
X317527Y432747D01*
X317519Y432729D01*
X317501Y432562D01*
X317501Y431038D01*
X317504Y431018D01*
X317502Y430999D01*
X317524Y430897D01*
X317541Y430795D01*
X317550Y430778D01*
X317554Y430758D01*
X317607Y430669D01*
X317656Y430578D01*
X317670Y430564D01*
X317680Y430547D01*
X317759Y430480D01*
X317834Y430409D01*
X317852Y430400D01*
X317867Y430387D01*
X317963Y430348D01*
X318057Y430305D01*
X318077Y430303D01*
X318095Y430295D01*
X318262Y430277D01*
X327153Y430277D01*
X327153Y427802D01*
X324323Y424972D01*
X324281Y424914D01*
X324232Y424862D01*
X324210Y424815D01*
X324180Y424773D01*
X324159Y424704D01*
X324128Y424639D01*
X324123Y424587D01*
X324107Y424537D01*
X324109Y424466D01*
X324101Y424395D01*
X324112Y424344D01*
X324114Y424292D01*
X324138Y424224D01*
X324154Y424154D01*
X324180Y424109D01*
X324198Y424061D01*
X324243Y424005D01*
X324280Y423943D01*
X324319Y423909D01*
X324352Y423869D01*
X324412Y423830D01*
X324467Y423783D01*
X324515Y423764D01*
X324559Y423736D01*
X324628Y423718D01*
X324695Y423691D01*
X324766Y423683D01*
X324797Y423675D01*
X324821Y423677D01*
X324862Y423673D01*
X326143Y423673D01*
X338620Y411196D01*
X338694Y411143D01*
X338763Y411083D01*
X338793Y411071D01*
X338819Y411052D01*
X338906Y411025D01*
X338991Y410991D01*
X339032Y410987D01*
X339054Y410980D01*
X339087Y410981D01*
X339158Y410973D01*
X459788Y410973D01*
X459878Y410987D01*
X459969Y410995D01*
X459999Y411007D01*
X460031Y411012D01*
X460111Y411055D01*
X460195Y411091D01*
X460227Y411117D01*
X460248Y411128D01*
X460270Y411151D01*
X460326Y411196D01*
X465691Y416561D01*
X474109Y416561D01*
X480061Y410609D01*
X480061Y402191D01*
X474109Y396239D01*
X465691Y396239D01*
X460326Y401604D01*
X460252Y401657D01*
X460183Y401717D01*
X460153Y401729D01*
X460127Y401748D01*
X460040Y401775D01*
X459955Y401809D01*
X459914Y401813D01*
X459891Y401820D01*
X459859Y401819D01*
X459788Y401827D01*
X335054Y401827D01*
X328452Y408429D01*
X328394Y408471D01*
X328342Y408521D01*
X328295Y408543D01*
X328253Y408573D01*
X328184Y408594D01*
X328119Y408624D01*
X328067Y408630D01*
X328017Y408645D01*
X327946Y408643D01*
X327874Y408651D01*
X327824Y408640D01*
X327772Y408639D01*
X327704Y408614D01*
X327634Y408599D01*
X327589Y408572D01*
X327541Y408554D01*
X327484Y408510D01*
X327423Y408473D01*
X327389Y408433D01*
X327348Y408401D01*
X327310Y408340D01*
X327263Y408286D01*
X327244Y408238D01*
X327215Y408194D01*
X327198Y408124D01*
X327171Y408058D01*
X327163Y407986D01*
X327155Y407955D01*
X327157Y407932D01*
X327156Y407923D01*
X318262Y407923D01*
X318242Y407920D01*
X318223Y407922D01*
X318121Y407900D01*
X318019Y407883D01*
X318002Y407874D01*
X317982Y407870D01*
X317893Y407817D01*
X317802Y407768D01*
X317788Y407754D01*
X317771Y407744D01*
X317704Y407665D01*
X317633Y407590D01*
X317624Y407572D01*
X317611Y407557D01*
X317573Y407461D01*
X317529Y407367D01*
X317527Y407347D01*
X317519Y407329D01*
X317501Y407162D01*
X317501Y406399D01*
X317499Y406399D01*
X317499Y407162D01*
X317496Y407182D01*
X317498Y407201D01*
X317476Y407303D01*
X317459Y407405D01*
X317450Y407422D01*
X317446Y407442D01*
X317393Y407531D01*
X317344Y407622D01*
X317330Y407636D01*
X317320Y407653D01*
X317241Y407720D01*
X317166Y407791D01*
X317148Y407800D01*
X317133Y407813D01*
X317037Y407852D01*
X316943Y407895D01*
X316923Y407897D01*
X316905Y407905D01*
X316738Y407923D01*
X307842Y407923D01*
X307836Y407962D01*
X307834Y408034D01*
X307816Y408082D01*
X307808Y408134D01*
X307774Y408197D01*
X307749Y408265D01*
X307717Y408305D01*
X307692Y408351D01*
X307641Y408400D01*
X307596Y408457D01*
X307552Y408485D01*
X307514Y408521D01*
X307449Y408551D01*
X307389Y408590D01*
X307338Y408602D01*
X307291Y408624D01*
X307220Y408632D01*
X307150Y408650D01*
X307098Y408646D01*
X307047Y408651D01*
X306976Y408636D01*
X306905Y408630D01*
X306857Y408610D01*
X306806Y408599D01*
X306745Y408562D01*
X306679Y408534D01*
X306623Y408490D01*
X306595Y408473D01*
X306580Y408455D01*
X306548Y408429D01*
X302484Y404365D01*
X302431Y404291D01*
X302371Y404222D01*
X302359Y404192D01*
X302340Y404166D01*
X302313Y404079D01*
X302279Y403994D01*
X302275Y403953D01*
X302268Y403931D01*
X302269Y403898D01*
X302261Y403827D01*
X302261Y402191D01*
X296309Y396239D01*
X288721Y396239D01*
X288631Y396225D01*
X288540Y396217D01*
X288511Y396205D01*
X288479Y396200D01*
X288398Y396157D01*
X288314Y396121D01*
X288282Y396095D01*
X288261Y396084D01*
X288239Y396061D01*
X288183Y396016D01*
X246096Y353929D01*
X243194Y351027D01*
X138908Y351027D01*
X138818Y351013D01*
X138727Y351005D01*
X138697Y350993D01*
X138665Y350988D01*
X138585Y350945D01*
X138501Y350909D01*
X138469Y350883D01*
X138448Y350872D01*
X138426Y350849D01*
X138370Y350804D01*
X131735Y344169D01*
X128955Y344169D01*
X128885Y344158D01*
X128813Y344156D01*
X128764Y344138D01*
X128713Y344130D01*
X128649Y344096D01*
X128582Y344071D01*
X128541Y344039D01*
X128495Y344014D01*
X128446Y343962D01*
X128390Y343918D01*
X128362Y343874D01*
X128326Y343836D01*
X128296Y343771D01*
X128257Y343711D01*
X128244Y343660D01*
X128222Y343613D01*
X128214Y343542D01*
X128197Y343472D01*
X128201Y343420D01*
X128195Y343369D01*
X128210Y343298D01*
X128216Y343227D01*
X128236Y343179D01*
X128247Y343128D01*
X128284Y343067D01*
X128312Y343001D01*
X128357Y342945D01*
X128374Y342917D01*
X128391Y342902D01*
X128417Y342870D01*
X136291Y334996D01*
X136365Y334943D01*
X136435Y334883D01*
X136465Y334871D01*
X136491Y334852D01*
X136578Y334825D01*
X136663Y334791D01*
X136704Y334787D01*
X136726Y334780D01*
X136758Y334781D01*
X136829Y334773D01*
X281988Y334773D01*
X282078Y334787D01*
X282169Y334795D01*
X282199Y334807D01*
X282231Y334812D01*
X282311Y334855D01*
X282395Y334891D01*
X282427Y334917D01*
X282448Y334928D01*
X282470Y334951D01*
X282526Y334996D01*
X287891Y340361D01*
X296309Y340361D01*
X298489Y338181D01*
X298505Y338169D01*
X298517Y338153D01*
X298605Y338097D01*
X298689Y338037D01*
X298708Y338031D01*
X298724Y338020D01*
X298825Y337995D01*
X298924Y337965D01*
X298944Y337965D01*
X298963Y337960D01*
X299066Y337968D01*
X299169Y337971D01*
X299188Y337978D01*
X299208Y337979D01*
X299303Y338020D01*
X299401Y338056D01*
X299416Y338068D01*
X299434Y338076D01*
X299565Y338181D01*
X305956Y344571D01*
X308857Y347473D01*
X310138Y347473D01*
X310209Y347484D01*
X310281Y347486D01*
X310330Y347504D01*
X310381Y347512D01*
X310445Y347546D01*
X310512Y347571D01*
X310553Y347603D01*
X310599Y347628D01*
X310648Y347680D01*
X310704Y347724D01*
X310732Y347768D01*
X310768Y347806D01*
X310798Y347871D01*
X310837Y347931D01*
X310850Y347982D01*
X310872Y348029D01*
X310879Y348100D01*
X310897Y348170D01*
X310893Y348222D01*
X310899Y348273D01*
X310883Y348344D01*
X310878Y348415D01*
X310858Y348463D01*
X310846Y348514D01*
X310810Y348575D01*
X310782Y348641D01*
X310737Y348697D01*
X310720Y348725D01*
X310702Y348740D01*
X310677Y348772D01*
X307847Y351602D01*
X307847Y354077D01*
X316738Y354077D01*
X316758Y354080D01*
X316777Y354078D01*
X316879Y354100D01*
X316981Y354117D01*
X316998Y354126D01*
X317018Y354130D01*
X317107Y354183D01*
X317198Y354232D01*
X317212Y354246D01*
X317229Y354256D01*
X317296Y354335D01*
X317367Y354410D01*
X317376Y354428D01*
X317389Y354443D01*
X317427Y354539D01*
X317471Y354633D01*
X317473Y354653D01*
X317481Y354671D01*
X317499Y354838D01*
X317499Y355601D01*
X317501Y355601D01*
X317501Y354838D01*
X317504Y354818D01*
X317502Y354799D01*
X317524Y354697D01*
X317541Y354595D01*
X317550Y354578D01*
X317554Y354558D01*
X317607Y354469D01*
X317656Y354378D01*
X317670Y354364D01*
X317680Y354347D01*
X317759Y354280D01*
X317834Y354209D01*
X317852Y354200D01*
X317867Y354187D01*
X317963Y354148D01*
X318057Y354105D01*
X318077Y354103D01*
X318095Y354095D01*
X318262Y354077D01*
X327153Y354077D01*
X327153Y351602D01*
X324323Y348772D01*
X324281Y348714D01*
X324232Y348662D01*
X324210Y348615D01*
X324180Y348573D01*
X324159Y348504D01*
X324128Y348439D01*
X324123Y348387D01*
X324107Y348337D01*
X324109Y348266D01*
X324101Y348195D01*
X324112Y348144D01*
X324114Y348092D01*
X324138Y348024D01*
X324154Y347954D01*
X324180Y347909D01*
X324198Y347861D01*
X324243Y347805D01*
X324280Y347743D01*
X324319Y347709D01*
X324352Y347669D01*
X324412Y347630D01*
X324467Y347583D01*
X324515Y347564D01*
X324559Y347536D01*
X324628Y347518D01*
X324695Y347491D01*
X324766Y347483D01*
X324797Y347475D01*
X324821Y347477D01*
X324862Y347473D01*
X326143Y347473D01*
X329044Y344571D01*
X338620Y334996D01*
X338693Y334943D01*
X338763Y334883D01*
X338793Y334871D01*
X338819Y334852D01*
X338906Y334825D01*
X338991Y334791D01*
X339032Y334787D01*
X339054Y334780D01*
X339087Y334781D01*
X339158Y334773D01*
X459788Y334773D01*
X459878Y334787D01*
X459969Y334795D01*
X459999Y334807D01*
X460031Y334812D01*
X460111Y334855D01*
X460195Y334891D01*
X460227Y334917D01*
X460248Y334928D01*
X460270Y334951D01*
X460326Y334996D01*
X465691Y340361D01*
X474109Y340361D01*
X480061Y334409D01*
X480061Y325991D01*
X474109Y320039D01*
X465691Y320039D01*
X460326Y325404D01*
X460252Y325457D01*
X460183Y325517D01*
X460153Y325529D01*
X460127Y325548D01*
X460040Y325575D01*
X459955Y325609D01*
X459914Y325613D01*
X459891Y325620D01*
X459859Y325619D01*
X459788Y325627D01*
X335054Y325627D01*
X332153Y328529D01*
X328452Y332229D01*
X328394Y332271D01*
X328342Y332321D01*
X328295Y332343D01*
X328252Y332373D01*
X328184Y332394D01*
X328119Y332424D01*
X328067Y332430D01*
X328017Y332445D01*
X327946Y332443D01*
X327874Y332451D01*
X327824Y332440D01*
X327772Y332439D01*
X327704Y332414D01*
X327634Y332399D01*
X327589Y332372D01*
X327541Y332354D01*
X327484Y332310D01*
X327423Y332273D01*
X327389Y332233D01*
X327348Y332201D01*
X327310Y332140D01*
X327263Y332086D01*
X327244Y332038D01*
X327215Y331994D01*
X327198Y331924D01*
X327171Y331858D01*
X327163Y331786D01*
X327155Y331755D01*
X327157Y331732D01*
X327156Y331723D01*
X318262Y331723D01*
X318242Y331720D01*
X318223Y331722D01*
X318121Y331700D01*
X318019Y331683D01*
X318002Y331674D01*
X317982Y331670D01*
X317893Y331617D01*
X317802Y331568D01*
X317788Y331554D01*
X317771Y331544D01*
X317704Y331465D01*
X317633Y331390D01*
X317624Y331372D01*
X317611Y331357D01*
X317573Y331261D01*
X317529Y331167D01*
X317527Y331147D01*
X317519Y331129D01*
X317501Y330962D01*
X317501Y330199D01*
X317499Y330199D01*
X317499Y330962D01*
X317496Y330982D01*
X317498Y331001D01*
X317476Y331103D01*
X317459Y331205D01*
X317450Y331222D01*
X317446Y331242D01*
X317393Y331331D01*
X317344Y331422D01*
X317330Y331436D01*
X317320Y331453D01*
X317241Y331520D01*
X317166Y331591D01*
X317148Y331600D01*
X317133Y331613D01*
X317037Y331652D01*
X316943Y331695D01*
X316923Y331697D01*
X316905Y331705D01*
X316738Y331723D01*
X307842Y331723D01*
X307836Y331762D01*
X307834Y331834D01*
X307816Y331882D01*
X307808Y331934D01*
X307774Y331997D01*
X307749Y332065D01*
X307717Y332105D01*
X307692Y332151D01*
X307641Y332200D01*
X307596Y332257D01*
X307552Y332285D01*
X307514Y332321D01*
X307449Y332351D01*
X307389Y332390D01*
X307338Y332402D01*
X307291Y332424D01*
X307220Y332432D01*
X307150Y332450D01*
X307098Y332446D01*
X307047Y332451D01*
X306976Y332436D01*
X306905Y332430D01*
X306857Y332410D01*
X306806Y332399D01*
X306745Y332362D01*
X306679Y332334D01*
X306623Y332290D01*
X306595Y332273D01*
X306580Y332255D01*
X306548Y332229D01*
X302847Y328529D01*
X302484Y328165D01*
X302431Y328091D01*
X302371Y328022D01*
X302359Y327992D01*
X302340Y327966D01*
X302313Y327879D01*
X302279Y327794D01*
X302275Y327753D01*
X302268Y327730D01*
X302269Y327698D01*
X302261Y327627D01*
X302261Y325991D01*
X296309Y320039D01*
X287891Y320039D01*
G37*
%LPD*%
%LPC*%
G36*
X122265Y420369D02*
X122265Y420369D01*
X115569Y427065D01*
X115569Y436535D01*
X122265Y443231D01*
X131735Y443231D01*
X138431Y436535D01*
X138431Y427065D01*
X131735Y420369D01*
X122265Y420369D01*
G37*
%LPD*%
%LPC*%
G36*
X96865Y420369D02*
X96865Y420369D01*
X90169Y427065D01*
X90169Y436535D01*
X96865Y443231D01*
X106335Y443231D01*
X113031Y436535D01*
X113031Y427065D01*
X106335Y420369D01*
X96865Y420369D01*
G37*
%LPD*%
%LPC*%
G36*
X491091Y497839D02*
X491091Y497839D01*
X485139Y503791D01*
X485139Y512209D01*
X491091Y518161D01*
X499509Y518161D01*
X505461Y512209D01*
X505461Y503791D01*
X499509Y497839D01*
X491091Y497839D01*
G37*
%LPD*%
%LPC*%
G36*
X287891Y472439D02*
X287891Y472439D01*
X281939Y478391D01*
X281939Y486809D01*
X287891Y492761D01*
X296309Y492761D01*
X302261Y486809D01*
X302261Y478391D01*
X296309Y472439D01*
X287891Y472439D01*
G37*
%LPD*%
%LPC*%
G36*
X465691Y472439D02*
X465691Y472439D01*
X459739Y478391D01*
X459739Y486809D01*
X465691Y492761D01*
X474109Y492761D01*
X480061Y486809D01*
X480061Y478391D01*
X474109Y472439D01*
X465691Y472439D01*
G37*
%LPD*%
%LPC*%
G36*
X287891Y345439D02*
X287891Y345439D01*
X281939Y351391D01*
X281939Y359809D01*
X287891Y365761D01*
X296309Y365761D01*
X302261Y359809D01*
X302261Y351391D01*
X296309Y345439D01*
X287891Y345439D01*
G37*
%LPD*%
%LPC*%
G36*
X465691Y345439D02*
X465691Y345439D01*
X459739Y351391D01*
X459739Y359809D01*
X465691Y365761D01*
X474109Y365761D01*
X480061Y359809D01*
X480061Y351391D01*
X474109Y345439D01*
X465691Y345439D01*
G37*
%LPD*%
%LPC*%
G36*
X465691Y447039D02*
X465691Y447039D01*
X459739Y452991D01*
X459739Y461409D01*
X465691Y467361D01*
X474109Y467361D01*
X480061Y461409D01*
X480061Y452991D01*
X474109Y447039D01*
X465691Y447039D01*
G37*
%LPD*%
%LPC*%
G36*
X465691Y370839D02*
X465691Y370839D01*
X459739Y376791D01*
X459739Y385209D01*
X465691Y391161D01*
X474109Y391161D01*
X480061Y385209D01*
X480061Y376791D01*
X474109Y370839D01*
X465691Y370839D01*
G37*
%LPD*%
%LPC*%
G36*
X287891Y294639D02*
X287891Y294639D01*
X281939Y300591D01*
X281939Y309009D01*
X287891Y314961D01*
X296309Y314961D01*
X302261Y309009D01*
X302261Y300591D01*
X296309Y294639D01*
X287891Y294639D01*
G37*
%LPD*%
%LPC*%
G36*
X465691Y269239D02*
X465691Y269239D01*
X459739Y275191D01*
X459739Y283609D01*
X465691Y289561D01*
X474109Y289561D01*
X480061Y283609D01*
X480061Y275191D01*
X474109Y269239D01*
X465691Y269239D01*
G37*
%LPD*%
%LPC*%
G36*
X465691Y294639D02*
X465691Y294639D01*
X459739Y300591D01*
X459739Y309009D01*
X465691Y314961D01*
X474109Y314961D01*
X480061Y309009D01*
X480061Y300591D01*
X474109Y294639D01*
X465691Y294639D01*
G37*
%LPD*%
%LPC*%
G36*
X287891Y370839D02*
X287891Y370839D01*
X281939Y376791D01*
X281939Y385209D01*
X287891Y391161D01*
X296309Y391161D01*
X302261Y385209D01*
X302261Y376791D01*
X296309Y370839D01*
X287891Y370839D01*
G37*
%LPD*%
%LPC*%
G36*
X287891Y269239D02*
X287891Y269239D01*
X281939Y275191D01*
X281939Y283609D01*
X287891Y289561D01*
X296309Y289561D01*
X302261Y283609D01*
X302261Y275191D01*
X296309Y269239D01*
X287891Y269239D01*
G37*
%LPD*%
%LPC*%
G36*
X287891Y447039D02*
X287891Y447039D01*
X281939Y452991D01*
X281939Y461409D01*
X287891Y467361D01*
X296309Y467361D01*
X302261Y461409D01*
X302261Y452991D01*
X296309Y447039D01*
X287891Y447039D01*
G37*
%LPD*%
%LPC*%
G36*
X90677Y357123D02*
X90677Y357123D01*
X90677Y360124D01*
X97076Y366523D01*
X100077Y366523D01*
X100077Y357123D01*
X90677Y357123D01*
G37*
%LPD*%
%LPC*%
G36*
X97076Y344677D02*
X97076Y344677D01*
X90677Y351076D01*
X90677Y354077D01*
X100077Y354077D01*
X100077Y344677D01*
X97076Y344677D01*
G37*
%LPD*%
%LPC*%
G36*
X319023Y484123D02*
X319023Y484123D01*
X319023Y492253D01*
X321498Y492253D01*
X327153Y486598D01*
X327153Y484123D01*
X319023Y484123D01*
G37*
%LPD*%
%LPC*%
G36*
X496823Y484123D02*
X496823Y484123D01*
X496823Y492253D01*
X499298Y492253D01*
X504953Y486598D01*
X504953Y484123D01*
X496823Y484123D01*
G37*
%LPD*%
%LPC*%
G36*
X496823Y433323D02*
X496823Y433323D01*
X496823Y441453D01*
X499298Y441453D01*
X504953Y435798D01*
X504953Y433323D01*
X496823Y433323D01*
G37*
%LPD*%
%LPC*%
G36*
X319023Y357123D02*
X319023Y357123D01*
X319023Y365253D01*
X321498Y365253D01*
X327153Y359598D01*
X327153Y357123D01*
X319023Y357123D01*
G37*
%LPD*%
%LPC*%
G36*
X319023Y382523D02*
X319023Y382523D01*
X319023Y390653D01*
X321498Y390653D01*
X327153Y384998D01*
X327153Y382523D01*
X319023Y382523D01*
G37*
%LPD*%
%LPC*%
G36*
X496823Y382523D02*
X496823Y382523D01*
X496823Y390653D01*
X499298Y390653D01*
X504953Y384998D01*
X504953Y382523D01*
X496823Y382523D01*
G37*
%LPD*%
%LPC*%
G36*
X319023Y458723D02*
X319023Y458723D01*
X319023Y466853D01*
X321498Y466853D01*
X327153Y461198D01*
X327153Y458723D01*
X319023Y458723D01*
G37*
%LPD*%
%LPC*%
G36*
X496823Y407923D02*
X496823Y407923D01*
X496823Y416053D01*
X499298Y416053D01*
X504953Y410398D01*
X504953Y407923D01*
X496823Y407923D01*
G37*
%LPD*%
%LPC*%
G36*
X496823Y331723D02*
X496823Y331723D01*
X496823Y339853D01*
X499298Y339853D01*
X504953Y334198D01*
X504953Y331723D01*
X496823Y331723D01*
G37*
%LPD*%
%LPC*%
G36*
X496823Y458723D02*
X496823Y458723D01*
X496823Y466853D01*
X499298Y466853D01*
X504953Y461198D01*
X504953Y458723D01*
X496823Y458723D01*
G37*
%LPD*%
%LPC*%
G36*
X496823Y357123D02*
X496823Y357123D01*
X496823Y365253D01*
X499298Y365253D01*
X504953Y359598D01*
X504953Y357123D01*
X496823Y357123D01*
G37*
%LPD*%
%LPC*%
G36*
X496823Y306323D02*
X496823Y306323D01*
X496823Y314453D01*
X499298Y314453D01*
X504953Y308798D01*
X504953Y306323D01*
X496823Y306323D01*
G37*
%LPD*%
%LPC*%
G36*
X319023Y306323D02*
X319023Y306323D01*
X319023Y314453D01*
X321498Y314453D01*
X327153Y308798D01*
X327153Y306323D01*
X319023Y306323D01*
G37*
%LPD*%
%LPC*%
G36*
X496823Y280923D02*
X496823Y280923D01*
X496823Y289053D01*
X499298Y289053D01*
X504953Y283398D01*
X504953Y280923D01*
X496823Y280923D01*
G37*
%LPD*%
%LPC*%
G36*
X319023Y280923D02*
X319023Y280923D01*
X319023Y289053D01*
X321498Y289053D01*
X327153Y283398D01*
X327153Y280923D01*
X319023Y280923D01*
G37*
%LPD*%
%LPC*%
G36*
X307847Y357123D02*
X307847Y357123D01*
X307847Y359598D01*
X313502Y365253D01*
X315977Y365253D01*
X315977Y357123D01*
X307847Y357123D01*
G37*
%LPD*%
%LPC*%
G36*
X485647Y484123D02*
X485647Y484123D01*
X485647Y486598D01*
X491302Y492253D01*
X493777Y492253D01*
X493777Y484123D01*
X485647Y484123D01*
G37*
%LPD*%
%LPC*%
G36*
X485647Y357123D02*
X485647Y357123D01*
X485647Y359598D01*
X491302Y365253D01*
X493777Y365253D01*
X493777Y357123D01*
X485647Y357123D01*
G37*
%LPD*%
%LPC*%
G36*
X485647Y331723D02*
X485647Y331723D01*
X485647Y334198D01*
X491302Y339853D01*
X493777Y339853D01*
X493777Y331723D01*
X485647Y331723D01*
G37*
%LPD*%
%LPC*%
G36*
X307847Y484123D02*
X307847Y484123D01*
X307847Y486598D01*
X313502Y492253D01*
X315977Y492253D01*
X315977Y484123D01*
X307847Y484123D01*
G37*
%LPD*%
%LPC*%
G36*
X485647Y458723D02*
X485647Y458723D01*
X485647Y461198D01*
X491302Y466853D01*
X493777Y466853D01*
X493777Y458723D01*
X485647Y458723D01*
G37*
%LPD*%
%LPC*%
G36*
X307847Y306323D02*
X307847Y306323D01*
X307847Y308798D01*
X313502Y314453D01*
X315977Y314453D01*
X315977Y306323D01*
X307847Y306323D01*
G37*
%LPD*%
%LPC*%
G36*
X307847Y458723D02*
X307847Y458723D01*
X307847Y461198D01*
X313502Y466853D01*
X315977Y466853D01*
X315977Y458723D01*
X307847Y458723D01*
G37*
%LPD*%
%LPC*%
G36*
X307847Y382523D02*
X307847Y382523D01*
X307847Y384998D01*
X313502Y390653D01*
X315977Y390653D01*
X315977Y382523D01*
X307847Y382523D01*
G37*
%LPD*%
%LPC*%
G36*
X485647Y306323D02*
X485647Y306323D01*
X485647Y308798D01*
X491302Y314453D01*
X493777Y314453D01*
X493777Y306323D01*
X485647Y306323D01*
G37*
%LPD*%
%LPC*%
G36*
X485647Y433323D02*
X485647Y433323D01*
X485647Y435798D01*
X491302Y441453D01*
X493777Y441453D01*
X493777Y433323D01*
X485647Y433323D01*
G37*
%LPD*%
%LPC*%
G36*
X485647Y407923D02*
X485647Y407923D01*
X485647Y410398D01*
X491302Y416053D01*
X493777Y416053D01*
X493777Y407923D01*
X485647Y407923D01*
G37*
%LPD*%
%LPC*%
G36*
X485647Y382523D02*
X485647Y382523D01*
X485647Y384998D01*
X491302Y390653D01*
X493777Y390653D01*
X493777Y382523D01*
X485647Y382523D01*
G37*
%LPD*%
%LPC*%
G36*
X485647Y280923D02*
X485647Y280923D01*
X485647Y283398D01*
X491302Y289053D01*
X493777Y289053D01*
X493777Y280923D01*
X485647Y280923D01*
G37*
%LPD*%
%LPC*%
G36*
X307847Y280923D02*
X307847Y280923D01*
X307847Y283398D01*
X313502Y289053D01*
X315977Y289053D01*
X315977Y280923D01*
X307847Y280923D01*
G37*
%LPD*%
%LPC*%
G36*
X496823Y447547D02*
X496823Y447547D01*
X496823Y455677D01*
X504953Y455677D01*
X504953Y453202D01*
X499298Y447547D01*
X496823Y447547D01*
G37*
%LPD*%
%LPC*%
G36*
X496823Y472947D02*
X496823Y472947D01*
X496823Y481077D01*
X504953Y481077D01*
X504953Y478602D01*
X499298Y472947D01*
X496823Y472947D01*
G37*
%LPD*%
%LPC*%
G36*
X496823Y422147D02*
X496823Y422147D01*
X496823Y430277D01*
X504953Y430277D01*
X504953Y427802D01*
X499298Y422147D01*
X496823Y422147D01*
G37*
%LPD*%
%LPC*%
G36*
X319023Y472947D02*
X319023Y472947D01*
X319023Y481077D01*
X327153Y481077D01*
X327153Y478602D01*
X321498Y472947D01*
X319023Y472947D01*
G37*
%LPD*%
%LPC*%
G36*
X496823Y396747D02*
X496823Y396747D01*
X496823Y404877D01*
X504953Y404877D01*
X504953Y402402D01*
X499298Y396747D01*
X496823Y396747D01*
G37*
%LPD*%
%LPC*%
G36*
X496823Y345947D02*
X496823Y345947D01*
X496823Y354077D01*
X504953Y354077D01*
X504953Y351602D01*
X499298Y345947D01*
X496823Y345947D01*
G37*
%LPD*%
%LPC*%
G36*
X496823Y295147D02*
X496823Y295147D01*
X496823Y303277D01*
X504953Y303277D01*
X504953Y300802D01*
X499298Y295147D01*
X496823Y295147D01*
G37*
%LPD*%
%LPC*%
G36*
X319023Y295147D02*
X319023Y295147D01*
X319023Y303277D01*
X327153Y303277D01*
X327153Y300802D01*
X321498Y295147D01*
X319023Y295147D01*
G37*
%LPD*%
%LPC*%
G36*
X496823Y371347D02*
X496823Y371347D01*
X496823Y379477D01*
X504953Y379477D01*
X504953Y377002D01*
X499298Y371347D01*
X496823Y371347D01*
G37*
%LPD*%
%LPC*%
G36*
X319023Y371347D02*
X319023Y371347D01*
X319023Y379477D01*
X327153Y379477D01*
X327153Y377002D01*
X321498Y371347D01*
X319023Y371347D01*
G37*
%LPD*%
%LPC*%
G36*
X319023Y396747D02*
X319023Y396747D01*
X319023Y404877D01*
X327153Y404877D01*
X327153Y402402D01*
X321498Y396747D01*
X319023Y396747D01*
G37*
%LPD*%
%LPC*%
G36*
X496823Y320547D02*
X496823Y320547D01*
X496823Y328677D01*
X504953Y328677D01*
X504953Y326202D01*
X499298Y320547D01*
X496823Y320547D01*
G37*
%LPD*%
%LPC*%
G36*
X319023Y320547D02*
X319023Y320547D01*
X319023Y328677D01*
X327153Y328677D01*
X327153Y326202D01*
X321498Y320547D01*
X319023Y320547D01*
G37*
%LPD*%
%LPC*%
G36*
X496823Y269747D02*
X496823Y269747D01*
X496823Y277877D01*
X504953Y277877D01*
X504953Y275402D01*
X499298Y269747D01*
X496823Y269747D01*
G37*
%LPD*%
%LPC*%
G36*
X319023Y269747D02*
X319023Y269747D01*
X319023Y277877D01*
X327153Y277877D01*
X327153Y275402D01*
X321498Y269747D01*
X319023Y269747D01*
G37*
%LPD*%
%LPC*%
G36*
X313502Y472947D02*
X313502Y472947D01*
X307847Y478602D01*
X307847Y481077D01*
X315977Y481077D01*
X315977Y472947D01*
X313502Y472947D01*
G37*
%LPD*%
%LPC*%
G36*
X313502Y320547D02*
X313502Y320547D01*
X307847Y326202D01*
X307847Y328677D01*
X315977Y328677D01*
X315977Y320547D01*
X313502Y320547D01*
G37*
%LPD*%
%LPC*%
G36*
X491302Y295147D02*
X491302Y295147D01*
X485647Y300802D01*
X485647Y303277D01*
X493777Y303277D01*
X493777Y295147D01*
X491302Y295147D01*
G37*
%LPD*%
%LPC*%
G36*
X491302Y371347D02*
X491302Y371347D01*
X485647Y377002D01*
X485647Y379477D01*
X493777Y379477D01*
X493777Y371347D01*
X491302Y371347D01*
G37*
%LPD*%
%LPC*%
G36*
X313502Y295147D02*
X313502Y295147D01*
X307847Y300802D01*
X307847Y303277D01*
X315977Y303277D01*
X315977Y295147D01*
X313502Y295147D01*
G37*
%LPD*%
%LPC*%
G36*
X313502Y396747D02*
X313502Y396747D01*
X307847Y402402D01*
X307847Y404877D01*
X315977Y404877D01*
X315977Y396747D01*
X313502Y396747D01*
G37*
%LPD*%
%LPC*%
G36*
X491302Y320547D02*
X491302Y320547D01*
X485647Y326202D01*
X485647Y328677D01*
X493777Y328677D01*
X493777Y320547D01*
X491302Y320547D01*
G37*
%LPD*%
%LPC*%
G36*
X313502Y371347D02*
X313502Y371347D01*
X307847Y377002D01*
X307847Y379477D01*
X315977Y379477D01*
X315977Y371347D01*
X313502Y371347D01*
G37*
%LPD*%
%LPC*%
G36*
X491302Y472947D02*
X491302Y472947D01*
X485647Y478602D01*
X485647Y481077D01*
X493777Y481077D01*
X493777Y472947D01*
X491302Y472947D01*
G37*
%LPD*%
%LPC*%
G36*
X491302Y447547D02*
X491302Y447547D01*
X485647Y453202D01*
X485647Y455677D01*
X493777Y455677D01*
X493777Y447547D01*
X491302Y447547D01*
G37*
%LPD*%
%LPC*%
G36*
X491302Y345947D02*
X491302Y345947D01*
X485647Y351602D01*
X485647Y354077D01*
X493777Y354077D01*
X493777Y345947D01*
X491302Y345947D01*
G37*
%LPD*%
%LPC*%
G36*
X491302Y422147D02*
X491302Y422147D01*
X485647Y427802D01*
X485647Y430277D01*
X493777Y430277D01*
X493777Y422147D01*
X491302Y422147D01*
G37*
%LPD*%
%LPC*%
G36*
X491302Y269747D02*
X491302Y269747D01*
X485647Y275402D01*
X485647Y277877D01*
X493777Y277877D01*
X493777Y269747D01*
X491302Y269747D01*
G37*
%LPD*%
%LPC*%
G36*
X491302Y396747D02*
X491302Y396747D01*
X485647Y402402D01*
X485647Y404877D01*
X493777Y404877D01*
X493777Y396747D01*
X491302Y396747D01*
G37*
%LPD*%
%LPC*%
G36*
X313502Y269747D02*
X313502Y269747D01*
X307847Y275402D01*
X307847Y277877D01*
X315977Y277877D01*
X315977Y269747D01*
X313502Y269747D01*
G37*
%LPD*%
%LPC*%
G36*
X495299Y406399D02*
X495299Y406399D01*
X495299Y406401D01*
X495301Y406401D01*
X495301Y406399D01*
X495299Y406399D01*
G37*
%LPD*%
%LPC*%
G36*
X495299Y431799D02*
X495299Y431799D01*
X495299Y431801D01*
X495301Y431801D01*
X495301Y431799D01*
X495299Y431799D01*
G37*
%LPD*%
%LPC*%
G36*
X495299Y457199D02*
X495299Y457199D01*
X495299Y457201D01*
X495301Y457201D01*
X495301Y457199D01*
X495299Y457199D01*
G37*
%LPD*%
%LPC*%
G36*
X317499Y482599D02*
X317499Y482599D01*
X317499Y482601D01*
X317501Y482601D01*
X317501Y482599D01*
X317499Y482599D01*
G37*
%LPD*%
%LPC*%
G36*
X495299Y330199D02*
X495299Y330199D01*
X495299Y330201D01*
X495301Y330201D01*
X495301Y330199D01*
X495299Y330199D01*
G37*
%LPD*%
%LPC*%
G36*
X495299Y482599D02*
X495299Y482599D01*
X495299Y482601D01*
X495301Y482601D01*
X495301Y482599D01*
X495299Y482599D01*
G37*
%LPD*%
%LPC*%
G36*
X317499Y304799D02*
X317499Y304799D01*
X317499Y304801D01*
X317501Y304801D01*
X317501Y304799D01*
X317499Y304799D01*
G37*
%LPD*%
%LPC*%
G36*
X495299Y279399D02*
X495299Y279399D01*
X495299Y279401D01*
X495301Y279401D01*
X495301Y279399D01*
X495299Y279399D01*
G37*
%LPD*%
%LPC*%
G36*
X317499Y279399D02*
X317499Y279399D01*
X317499Y279401D01*
X317501Y279401D01*
X317501Y279399D01*
X317499Y279399D01*
G37*
%LPD*%
%LPC*%
G36*
X495299Y304799D02*
X495299Y304799D01*
X495299Y304801D01*
X495301Y304801D01*
X495301Y304799D01*
X495299Y304799D01*
G37*
%LPD*%
%LPC*%
G36*
X317499Y380999D02*
X317499Y380999D01*
X317499Y381001D01*
X317501Y381001D01*
X317501Y380999D01*
X317499Y380999D01*
G37*
%LPD*%
%LPC*%
G36*
X495299Y355599D02*
X495299Y355599D01*
X495299Y355601D01*
X495301Y355601D01*
X495301Y355599D01*
X495299Y355599D01*
G37*
%LPD*%
%LPC*%
G36*
X495299Y380999D02*
X495299Y380999D01*
X495299Y381001D01*
X495301Y381001D01*
X495301Y380999D01*
X495299Y380999D01*
G37*
%LPD*%
D10*
X127000Y355600D03*
X101600Y355600D03*
X127000Y381000D03*
X101600Y381000D03*
X127000Y406400D03*
X101600Y406400D03*
X127000Y431800D03*
X101600Y431800D03*
D11*
X292100Y508000D03*
X317500Y508000D03*
X292100Y482600D03*
X317500Y482600D03*
X292100Y457200D03*
X317500Y457200D03*
X292100Y431800D03*
X317500Y431800D03*
X292100Y406400D03*
X317500Y406400D03*
X292100Y381000D03*
X317500Y381000D03*
X292100Y355600D03*
X317500Y355600D03*
X292100Y330200D03*
X317500Y330200D03*
X292100Y304800D03*
X317500Y304800D03*
X292100Y279400D03*
X317500Y279400D03*
X469900Y508000D03*
X495300Y508000D03*
X469900Y482600D03*
X495300Y482600D03*
X469900Y457200D03*
X495300Y457200D03*
X469900Y431800D03*
X495300Y431800D03*
X469900Y406400D03*
X495300Y406400D03*
X469900Y381000D03*
X495300Y381000D03*
X469900Y355600D03*
X495300Y355600D03*
X469900Y330200D03*
X495300Y330200D03*
X469900Y304800D03*
X495300Y304800D03*
X469900Y279400D03*
X495300Y279400D03*
D12*
X101600Y381000D02*
X88900Y381000D01*
X81280Y388620D01*
X81280Y444500D01*
X144780Y508000D01*
X292100Y508000D01*
X310752Y520700D02*
X324248Y520700D01*
X298052Y508000D02*
X292100Y508000D01*
X336948Y508000D02*
X469900Y508000D01*
X310752Y520700D02*
X298052Y508000D01*
X324248Y520700D02*
X336948Y508000D01*
X114300Y393700D02*
X101600Y406400D01*
X114300Y393700D02*
X114300Y350520D01*
X134620Y330200D01*
X292100Y330200D01*
X310752Y342900D02*
X324248Y342900D01*
X298052Y330200D02*
X292100Y330200D01*
X336948Y330200D02*
X469900Y330200D01*
X310752Y342900D02*
X298052Y330200D01*
X324248Y342900D02*
X336948Y330200D01*
X292100Y406400D02*
X241300Y355600D01*
X127000Y355600D01*
X310752Y419100D02*
X324248Y419100D01*
X298052Y406400D02*
X292100Y406400D01*
X336948Y406400D02*
X469900Y406400D01*
X310752Y419100D02*
X298052Y406400D01*
X324248Y419100D02*
X336948Y406400D01*
X193040Y406400D02*
X127000Y406400D01*
X193040Y406400D02*
X218440Y431800D01*
X292100Y431800D01*
X310752Y444500D02*
X324248Y444500D01*
X298052Y431800D02*
X292100Y431800D01*
X336948Y431800D02*
X469900Y431800D01*
X310752Y444500D02*
X298052Y431800D01*
X324248Y444500D02*
X336948Y431800D01*
M02*
