M48
;GenerationSoftware,Autodesk,EAGLE,9.6.2*%
;CreationDate,2020-12-16T12:22:45Z*%
FMAT,2
ICI,OFF
METRIC,TZ,000.000
T10C0.350
T9C0.500
T8C0.550
T7C0.700
T6C0.813
T5C1.000
T4C1.016
T3C1.400
T2C1.829
T1C3.000
%
G90
M71
T1
X106172Y77470
X2540Y2540
X2540Y77470
X106172Y2540
T2
X38364Y7980
X35824Y14728
X16774Y14728
X14234Y7980
X11694Y14728
X40904Y14728
X11674Y62488
X14214Y69236
X16754Y62488
X35804Y62488
X38344Y69236
X40884Y62488
T3
X58674Y64593
X58674Y74193
T4
X98781Y50038
X96241Y47498
X98781Y47498
X104597Y25146
X104597Y27686
X104597Y30226
X100330Y72898
X100330Y75438
X100330Y64262
X100330Y66802
X104597Y32766
X92202Y75438
X94742Y75438
X60452Y38354
X97739Y38633
X97739Y43155
X91237Y38633
X91237Y43155
X60452Y45974
X60452Y43434
X60452Y40894
X60960Y20320
X60452Y35814
X88900Y25400
X88900Y22860
X88900Y20320
X88900Y17780
X88900Y15240
X60960Y25400
X60960Y22860
X60960Y17780
X60960Y15240
X64694Y35712
X64694Y38252
X100076Y32753
X100076Y30213
X96241Y55118
X98781Y55118
X96241Y52578
X98781Y52578
X96241Y50038
T5
X82042Y67310
X82042Y64770
X82042Y69850
T6
X68834Y40996
X70739Y42266
X68834Y43536
T7
X58674Y69393
X58674Y71393
X58674Y67493
T8
X72659Y4122
X77659Y4122
T9
X71659Y1422
X78659Y1422
T10
X82423Y35941
X76276Y30277
X97282Y27813
X75929Y41473
X93599Y26797
X72301Y42342
X79087Y40399
M30