M48
;GenerationSoftware,Autodesk,EAGLE,9.6.2*%
;CreationDate,2020-12-14T08:16:22Z*%
FMAT,2
ICI,OFF
METRIC,TZ,000.000
T9C0.350
T8C0.700
T7C0.710
T6C0.813
T5C1.000
T4C1.016
T3C1.400
T2C1.829
T1C3.000
%
G90
M71
T1
X2540Y2540
X2540Y77470
X106172Y77470
X106172Y2540
T2
X40884Y62488
X40904Y14728
X38364Y7980
X35824Y14728
X16774Y14728
X14234Y7980
X11694Y14728
X38344Y69236
X11674Y62488
X14214Y69236
X16754Y62488
X35804Y62488
T3
X58674Y74193
X58674Y64593
T4
X96241Y52578
X98781Y52578
X96241Y50038
X98781Y50038
X96241Y47498
X98781Y47498
X104597Y25146
X104597Y27686
X100330Y72898
X100330Y75438
X100330Y64262
X100330Y66802
X104597Y30226
X92202Y75438
X94742Y75438
X104597Y32766
X97739Y38633
X97739Y43155
X91237Y38633
X91237Y43155
X60452Y45974
X60452Y43434
X60452Y40894
X60452Y38354
X60452Y35814
X88900Y25400
X88900Y22860
X88900Y20320
X88900Y17780
X88900Y15240
X60960Y25400
X60960Y22860
X60960Y20320
X60960Y17780
X60960Y15240
X64694Y35712
X64694Y38252
X100076Y32753
X100076Y30213
X96241Y55118
X98781Y55118
T5
X82042Y69850
X82042Y64770
X82042Y67310
T6
X70155Y31344
X68885Y29439
X71425Y29439
T7
X71929Y1465
X78439Y1465
T8
X58674Y69393
X58674Y71393
X58674Y67493
T9
X82423Y35941
X76276Y30277
X97282Y27813
X78824Y30322
X93599Y26797
X77572Y30302
X79087Y40399
M30