G04 EAGLE Gerber RS-274X export*
G75*
%MOMM*%
%FSLAX34Y34*%
%LPD*%
%INSilkscreen Bottom*%
%IPPOS*%
%AMOC8*
5,1,8,0,0,1.08239X$1,22.5*%
G01*
%ADD10C,0.152400*%
%ADD11C,0.127000*%


D10*
X328930Y520700D02*
X280670Y520700D01*
X280512Y520698D01*
X280353Y520692D01*
X280195Y520682D01*
X280038Y520668D01*
X279880Y520651D01*
X279724Y520629D01*
X279567Y520604D01*
X279412Y520574D01*
X279257Y520541D01*
X279103Y520504D01*
X278950Y520463D01*
X278798Y520418D01*
X278648Y520369D01*
X278498Y520317D01*
X278350Y520261D01*
X278203Y520201D01*
X278058Y520138D01*
X277915Y520071D01*
X277773Y520001D01*
X277633Y519927D01*
X277495Y519849D01*
X277359Y519768D01*
X277225Y519684D01*
X277093Y519597D01*
X276963Y519506D01*
X276836Y519412D01*
X276711Y519315D01*
X276588Y519214D01*
X276468Y519111D01*
X276351Y519005D01*
X276236Y518896D01*
X276124Y518784D01*
X276015Y518669D01*
X275909Y518552D01*
X275806Y518432D01*
X275705Y518309D01*
X275608Y518184D01*
X275514Y518057D01*
X275423Y517927D01*
X275336Y517795D01*
X275252Y517661D01*
X275171Y517525D01*
X275093Y517387D01*
X275019Y517247D01*
X274949Y517105D01*
X274882Y516962D01*
X274819Y516817D01*
X274759Y516670D01*
X274703Y516522D01*
X274651Y516372D01*
X274602Y516222D01*
X274557Y516070D01*
X274516Y515917D01*
X274479Y515763D01*
X274446Y515608D01*
X274416Y515453D01*
X274391Y515296D01*
X274369Y515140D01*
X274352Y514982D01*
X274338Y514825D01*
X274328Y514667D01*
X274322Y514508D01*
X274320Y514350D01*
X328930Y520700D02*
X329088Y520698D01*
X329247Y520692D01*
X329405Y520682D01*
X329562Y520668D01*
X329720Y520651D01*
X329876Y520629D01*
X330033Y520604D01*
X330188Y520574D01*
X330343Y520541D01*
X330497Y520504D01*
X330650Y520463D01*
X330802Y520418D01*
X330952Y520369D01*
X331102Y520317D01*
X331250Y520261D01*
X331397Y520201D01*
X331542Y520138D01*
X331685Y520071D01*
X331827Y520001D01*
X331967Y519927D01*
X332105Y519849D01*
X332241Y519768D01*
X332375Y519684D01*
X332507Y519597D01*
X332637Y519506D01*
X332764Y519412D01*
X332889Y519315D01*
X333012Y519214D01*
X333132Y519111D01*
X333249Y519005D01*
X333364Y518896D01*
X333476Y518784D01*
X333585Y518669D01*
X333691Y518552D01*
X333794Y518432D01*
X333895Y518309D01*
X333992Y518184D01*
X334086Y518057D01*
X334177Y517927D01*
X334264Y517795D01*
X334348Y517661D01*
X334429Y517525D01*
X334507Y517387D01*
X334581Y517247D01*
X334651Y517105D01*
X334718Y516962D01*
X334781Y516817D01*
X334841Y516670D01*
X334897Y516522D01*
X334949Y516372D01*
X334998Y516222D01*
X335043Y516070D01*
X335084Y515917D01*
X335121Y515763D01*
X335154Y515608D01*
X335184Y515453D01*
X335209Y515296D01*
X335231Y515140D01*
X335248Y514982D01*
X335262Y514825D01*
X335272Y514667D01*
X335278Y514508D01*
X335280Y514350D01*
X274320Y514350D02*
X274320Y273050D01*
X280670Y266700D02*
X328930Y266700D01*
X335280Y273050D02*
X335280Y514350D01*
X274320Y273050D02*
X274322Y272892D01*
X274328Y272733D01*
X274338Y272575D01*
X274352Y272418D01*
X274369Y272260D01*
X274391Y272104D01*
X274416Y271947D01*
X274446Y271792D01*
X274479Y271637D01*
X274516Y271483D01*
X274557Y271330D01*
X274602Y271178D01*
X274651Y271028D01*
X274703Y270878D01*
X274759Y270730D01*
X274819Y270583D01*
X274882Y270438D01*
X274949Y270295D01*
X275019Y270153D01*
X275093Y270013D01*
X275171Y269875D01*
X275252Y269739D01*
X275336Y269605D01*
X275423Y269473D01*
X275514Y269343D01*
X275608Y269216D01*
X275705Y269091D01*
X275806Y268968D01*
X275909Y268848D01*
X276015Y268731D01*
X276124Y268616D01*
X276236Y268504D01*
X276351Y268395D01*
X276468Y268289D01*
X276588Y268186D01*
X276711Y268085D01*
X276836Y267988D01*
X276963Y267894D01*
X277093Y267803D01*
X277225Y267716D01*
X277359Y267632D01*
X277495Y267551D01*
X277633Y267473D01*
X277773Y267399D01*
X277915Y267329D01*
X278058Y267262D01*
X278203Y267199D01*
X278350Y267139D01*
X278498Y267083D01*
X278648Y267031D01*
X278798Y266982D01*
X278950Y266937D01*
X279103Y266896D01*
X279257Y266859D01*
X279412Y266826D01*
X279567Y266796D01*
X279724Y266771D01*
X279880Y266749D01*
X280038Y266732D01*
X280195Y266718D01*
X280353Y266708D01*
X280512Y266702D01*
X280670Y266700D01*
X328930Y266700D02*
X329088Y266702D01*
X329247Y266708D01*
X329405Y266718D01*
X329562Y266732D01*
X329720Y266749D01*
X329876Y266771D01*
X330033Y266796D01*
X330188Y266826D01*
X330343Y266859D01*
X330497Y266896D01*
X330650Y266937D01*
X330802Y266982D01*
X330952Y267031D01*
X331102Y267083D01*
X331250Y267139D01*
X331397Y267199D01*
X331542Y267262D01*
X331685Y267329D01*
X331827Y267399D01*
X331967Y267473D01*
X332105Y267551D01*
X332241Y267632D01*
X332375Y267716D01*
X332507Y267803D01*
X332637Y267894D01*
X332764Y267988D01*
X332889Y268085D01*
X333012Y268186D01*
X333132Y268289D01*
X333249Y268395D01*
X333364Y268504D01*
X333476Y268616D01*
X333585Y268731D01*
X333691Y268848D01*
X333794Y268968D01*
X333895Y269091D01*
X333992Y269216D01*
X334086Y269343D01*
X334177Y269473D01*
X334264Y269605D01*
X334348Y269739D01*
X334429Y269875D01*
X334507Y270013D01*
X334581Y270153D01*
X334651Y270295D01*
X334718Y270438D01*
X334781Y270583D01*
X334841Y270730D01*
X334897Y270878D01*
X334949Y271028D01*
X334998Y271178D01*
X335043Y271330D01*
X335084Y271483D01*
X335121Y271637D01*
X335154Y271792D01*
X335184Y271947D01*
X335209Y272104D01*
X335231Y272260D01*
X335248Y272418D01*
X335262Y272575D01*
X335272Y272733D01*
X335278Y272892D01*
X335280Y273050D01*
D11*
X267335Y504825D02*
X269875Y508000D01*
X258445Y508000D01*
X258445Y504825D02*
X258445Y511175D01*
X348298Y276226D02*
X348402Y276224D01*
X348507Y276218D01*
X348611Y276209D01*
X348714Y276196D01*
X348817Y276178D01*
X348919Y276158D01*
X349021Y276133D01*
X349121Y276105D01*
X349221Y276073D01*
X349319Y276037D01*
X349416Y275998D01*
X349511Y275956D01*
X349605Y275910D01*
X349697Y275860D01*
X349787Y275808D01*
X349875Y275752D01*
X349961Y275692D01*
X350045Y275630D01*
X350126Y275565D01*
X350205Y275497D01*
X350282Y275425D01*
X350355Y275352D01*
X350427Y275275D01*
X350495Y275196D01*
X350560Y275115D01*
X350622Y275031D01*
X350682Y274945D01*
X350738Y274857D01*
X350790Y274767D01*
X350840Y274675D01*
X350886Y274581D01*
X350928Y274486D01*
X350967Y274389D01*
X351003Y274291D01*
X351035Y274191D01*
X351063Y274091D01*
X351088Y273989D01*
X351108Y273887D01*
X351126Y273784D01*
X351139Y273681D01*
X351148Y273577D01*
X351154Y273472D01*
X351156Y273368D01*
X351155Y273368D02*
X351153Y273250D01*
X351147Y273131D01*
X351138Y273013D01*
X351125Y272896D01*
X351107Y272779D01*
X351087Y272662D01*
X351062Y272546D01*
X351034Y272431D01*
X351001Y272318D01*
X350966Y272205D01*
X350926Y272093D01*
X350884Y271983D01*
X350837Y271874D01*
X350787Y271766D01*
X350734Y271661D01*
X350677Y271557D01*
X350617Y271455D01*
X350554Y271355D01*
X350487Y271257D01*
X350418Y271161D01*
X350345Y271068D01*
X350269Y270977D01*
X350191Y270888D01*
X350109Y270802D01*
X350025Y270719D01*
X349939Y270638D01*
X349849Y270561D01*
X349758Y270486D01*
X349664Y270414D01*
X349567Y270345D01*
X349469Y270280D01*
X349368Y270217D01*
X349265Y270158D01*
X349161Y270102D01*
X349055Y270050D01*
X348947Y270001D01*
X348838Y269956D01*
X348727Y269914D01*
X348615Y269876D01*
X346076Y275273D02*
X346151Y275349D01*
X346230Y275424D01*
X346311Y275495D01*
X346395Y275564D01*
X346481Y275629D01*
X346569Y275691D01*
X346659Y275751D01*
X346751Y275807D01*
X346846Y275860D01*
X346942Y275909D01*
X347040Y275955D01*
X347139Y275998D01*
X347240Y276037D01*
X347342Y276072D01*
X347445Y276104D01*
X347549Y276132D01*
X347654Y276157D01*
X347761Y276178D01*
X347867Y276195D01*
X347974Y276208D01*
X348082Y276217D01*
X348190Y276223D01*
X348298Y276225D01*
X346075Y275273D02*
X339725Y269875D01*
X339725Y276225D01*
X345440Y281305D02*
X345665Y281308D01*
X345890Y281316D01*
X346114Y281329D01*
X346338Y281348D01*
X346562Y281372D01*
X346785Y281401D01*
X347007Y281436D01*
X347228Y281476D01*
X347448Y281522D01*
X347667Y281572D01*
X347885Y281628D01*
X348102Y281689D01*
X348317Y281755D01*
X348530Y281826D01*
X348741Y281903D01*
X348951Y281984D01*
X349159Y282070D01*
X349364Y282161D01*
X349567Y282257D01*
X349568Y282257D02*
X349656Y282289D01*
X349743Y282325D01*
X349829Y282364D01*
X349913Y282407D01*
X349995Y282453D01*
X350075Y282502D01*
X350153Y282554D01*
X350229Y282610D01*
X350303Y282668D01*
X350374Y282730D01*
X350443Y282794D01*
X350509Y282861D01*
X350572Y282930D01*
X350633Y283002D01*
X350691Y283076D01*
X350745Y283153D01*
X350797Y283231D01*
X350845Y283312D01*
X350890Y283394D01*
X350932Y283479D01*
X350970Y283565D01*
X351005Y283652D01*
X351037Y283740D01*
X351064Y283830D01*
X351089Y283921D01*
X351109Y284013D01*
X351126Y284105D01*
X351139Y284199D01*
X351148Y284292D01*
X351154Y284386D01*
X351156Y284480D01*
X351154Y284574D01*
X351148Y284668D01*
X351139Y284761D01*
X351126Y284855D01*
X351109Y284947D01*
X351089Y285039D01*
X351064Y285130D01*
X351037Y285220D01*
X351005Y285308D01*
X350970Y285395D01*
X350932Y285481D01*
X350890Y285566D01*
X350845Y285648D01*
X350797Y285729D01*
X350745Y285807D01*
X350691Y285884D01*
X350633Y285958D01*
X350572Y286030D01*
X350509Y286099D01*
X350443Y286166D01*
X350374Y286230D01*
X350303Y286292D01*
X350229Y286350D01*
X350153Y286406D01*
X350075Y286458D01*
X349995Y286507D01*
X349913Y286553D01*
X349829Y286596D01*
X349743Y286635D01*
X349656Y286671D01*
X349568Y286703D01*
X349567Y286703D02*
X349364Y286799D01*
X349159Y286890D01*
X348951Y286976D01*
X348741Y287057D01*
X348530Y287134D01*
X348317Y287205D01*
X348102Y287271D01*
X347885Y287332D01*
X347667Y287388D01*
X347448Y287438D01*
X347228Y287484D01*
X347007Y287524D01*
X346785Y287559D01*
X346562Y287588D01*
X346338Y287612D01*
X346114Y287631D01*
X345890Y287644D01*
X345665Y287652D01*
X345440Y287655D01*
X345440Y281305D02*
X345215Y281308D01*
X344990Y281316D01*
X344766Y281329D01*
X344542Y281348D01*
X344318Y281372D01*
X344095Y281401D01*
X343873Y281436D01*
X343652Y281476D01*
X343432Y281522D01*
X343213Y281572D01*
X342995Y281628D01*
X342778Y281689D01*
X342563Y281755D01*
X342350Y281826D01*
X342139Y281903D01*
X341929Y281984D01*
X341721Y282070D01*
X341516Y282161D01*
X341313Y282257D01*
X341225Y282289D01*
X341138Y282325D01*
X341052Y282364D01*
X340968Y282407D01*
X340886Y282453D01*
X340806Y282502D01*
X340728Y282554D01*
X340652Y282610D01*
X340578Y282668D01*
X340507Y282730D01*
X340438Y282794D01*
X340372Y282861D01*
X340309Y282930D01*
X340248Y283002D01*
X340190Y283076D01*
X340136Y283153D01*
X340084Y283231D01*
X340036Y283312D01*
X339991Y283394D01*
X339949Y283479D01*
X339911Y283565D01*
X339876Y283652D01*
X339844Y283740D01*
X339817Y283830D01*
X339792Y283921D01*
X339772Y284013D01*
X339755Y284105D01*
X339742Y284199D01*
X339733Y284292D01*
X339727Y284386D01*
X339725Y284480D01*
X341313Y286703D02*
X341516Y286799D01*
X341721Y286890D01*
X341929Y286976D01*
X342139Y287057D01*
X342350Y287134D01*
X342563Y287205D01*
X342778Y287271D01*
X342995Y287332D01*
X343213Y287388D01*
X343432Y287438D01*
X343652Y287484D01*
X343873Y287524D01*
X344095Y287559D01*
X344318Y287588D01*
X344542Y287612D01*
X344766Y287631D01*
X344990Y287644D01*
X345215Y287652D01*
X345440Y287655D01*
X341313Y286703D02*
X341225Y286671D01*
X341138Y286635D01*
X341052Y286596D01*
X340968Y286553D01*
X340886Y286507D01*
X340806Y286458D01*
X340728Y286406D01*
X340652Y286350D01*
X340578Y286292D01*
X340507Y286230D01*
X340438Y286166D01*
X340372Y286099D01*
X340309Y286030D01*
X340248Y285958D01*
X340190Y285884D01*
X340136Y285807D01*
X340084Y285729D01*
X340036Y285648D01*
X339991Y285566D01*
X339949Y285481D01*
X339911Y285395D01*
X339876Y285308D01*
X339844Y285220D01*
X339817Y285130D01*
X339792Y285039D01*
X339772Y284947D01*
X339755Y284855D01*
X339742Y284761D01*
X339733Y284668D01*
X339727Y284574D01*
X339725Y284480D01*
X342265Y281940D02*
X348615Y287020D01*
D10*
X458470Y520700D02*
X506730Y520700D01*
X458470Y520700D02*
X458312Y520698D01*
X458153Y520692D01*
X457995Y520682D01*
X457838Y520668D01*
X457680Y520651D01*
X457524Y520629D01*
X457367Y520604D01*
X457212Y520574D01*
X457057Y520541D01*
X456903Y520504D01*
X456750Y520463D01*
X456598Y520418D01*
X456448Y520369D01*
X456298Y520317D01*
X456150Y520261D01*
X456003Y520201D01*
X455858Y520138D01*
X455715Y520071D01*
X455573Y520001D01*
X455433Y519927D01*
X455295Y519849D01*
X455159Y519768D01*
X455025Y519684D01*
X454893Y519597D01*
X454763Y519506D01*
X454636Y519412D01*
X454511Y519315D01*
X454388Y519214D01*
X454268Y519111D01*
X454151Y519005D01*
X454036Y518896D01*
X453924Y518784D01*
X453815Y518669D01*
X453709Y518552D01*
X453606Y518432D01*
X453505Y518309D01*
X453408Y518184D01*
X453314Y518057D01*
X453223Y517927D01*
X453136Y517795D01*
X453052Y517661D01*
X452971Y517525D01*
X452893Y517387D01*
X452819Y517247D01*
X452749Y517105D01*
X452682Y516962D01*
X452619Y516817D01*
X452559Y516670D01*
X452503Y516522D01*
X452451Y516372D01*
X452402Y516222D01*
X452357Y516070D01*
X452316Y515917D01*
X452279Y515763D01*
X452246Y515608D01*
X452216Y515453D01*
X452191Y515296D01*
X452169Y515140D01*
X452152Y514982D01*
X452138Y514825D01*
X452128Y514667D01*
X452122Y514508D01*
X452120Y514350D01*
X506730Y520700D02*
X506888Y520698D01*
X507047Y520692D01*
X507205Y520682D01*
X507362Y520668D01*
X507520Y520651D01*
X507676Y520629D01*
X507833Y520604D01*
X507988Y520574D01*
X508143Y520541D01*
X508297Y520504D01*
X508450Y520463D01*
X508602Y520418D01*
X508752Y520369D01*
X508902Y520317D01*
X509050Y520261D01*
X509197Y520201D01*
X509342Y520138D01*
X509485Y520071D01*
X509627Y520001D01*
X509767Y519927D01*
X509905Y519849D01*
X510041Y519768D01*
X510175Y519684D01*
X510307Y519597D01*
X510437Y519506D01*
X510564Y519412D01*
X510689Y519315D01*
X510812Y519214D01*
X510932Y519111D01*
X511049Y519005D01*
X511164Y518896D01*
X511276Y518784D01*
X511385Y518669D01*
X511491Y518552D01*
X511594Y518432D01*
X511695Y518309D01*
X511792Y518184D01*
X511886Y518057D01*
X511977Y517927D01*
X512064Y517795D01*
X512148Y517661D01*
X512229Y517525D01*
X512307Y517387D01*
X512381Y517247D01*
X512451Y517105D01*
X512518Y516962D01*
X512581Y516817D01*
X512641Y516670D01*
X512697Y516522D01*
X512749Y516372D01*
X512798Y516222D01*
X512843Y516070D01*
X512884Y515917D01*
X512921Y515763D01*
X512954Y515608D01*
X512984Y515453D01*
X513009Y515296D01*
X513031Y515140D01*
X513048Y514982D01*
X513062Y514825D01*
X513072Y514667D01*
X513078Y514508D01*
X513080Y514350D01*
X452120Y514350D02*
X452120Y273050D01*
X458470Y266700D02*
X506730Y266700D01*
X513080Y273050D02*
X513080Y514350D01*
X452120Y273050D02*
X452122Y272892D01*
X452128Y272733D01*
X452138Y272575D01*
X452152Y272418D01*
X452169Y272260D01*
X452191Y272104D01*
X452216Y271947D01*
X452246Y271792D01*
X452279Y271637D01*
X452316Y271483D01*
X452357Y271330D01*
X452402Y271178D01*
X452451Y271028D01*
X452503Y270878D01*
X452559Y270730D01*
X452619Y270583D01*
X452682Y270438D01*
X452749Y270295D01*
X452819Y270153D01*
X452893Y270013D01*
X452971Y269875D01*
X453052Y269739D01*
X453136Y269605D01*
X453223Y269473D01*
X453314Y269343D01*
X453408Y269216D01*
X453505Y269091D01*
X453606Y268968D01*
X453709Y268848D01*
X453815Y268731D01*
X453924Y268616D01*
X454036Y268504D01*
X454151Y268395D01*
X454268Y268289D01*
X454388Y268186D01*
X454511Y268085D01*
X454636Y267988D01*
X454763Y267894D01*
X454893Y267803D01*
X455025Y267716D01*
X455159Y267632D01*
X455295Y267551D01*
X455433Y267473D01*
X455573Y267399D01*
X455715Y267329D01*
X455858Y267262D01*
X456003Y267199D01*
X456150Y267139D01*
X456298Y267083D01*
X456448Y267031D01*
X456598Y266982D01*
X456750Y266937D01*
X456903Y266896D01*
X457057Y266859D01*
X457212Y266826D01*
X457367Y266796D01*
X457524Y266771D01*
X457680Y266749D01*
X457838Y266732D01*
X457995Y266718D01*
X458153Y266708D01*
X458312Y266702D01*
X458470Y266700D01*
X506730Y266700D02*
X506888Y266702D01*
X507047Y266708D01*
X507205Y266718D01*
X507362Y266732D01*
X507520Y266749D01*
X507676Y266771D01*
X507833Y266796D01*
X507988Y266826D01*
X508143Y266859D01*
X508297Y266896D01*
X508450Y266937D01*
X508602Y266982D01*
X508752Y267031D01*
X508902Y267083D01*
X509050Y267139D01*
X509197Y267199D01*
X509342Y267262D01*
X509485Y267329D01*
X509627Y267399D01*
X509767Y267473D01*
X509905Y267551D01*
X510041Y267632D01*
X510175Y267716D01*
X510307Y267803D01*
X510437Y267894D01*
X510564Y267988D01*
X510689Y268085D01*
X510812Y268186D01*
X510932Y268289D01*
X511049Y268395D01*
X511164Y268504D01*
X511276Y268616D01*
X511385Y268731D01*
X511491Y268848D01*
X511594Y268968D01*
X511695Y269091D01*
X511792Y269216D01*
X511886Y269343D01*
X511977Y269473D01*
X512064Y269605D01*
X512148Y269739D01*
X512229Y269875D01*
X512307Y270013D01*
X512381Y270153D01*
X512451Y270295D01*
X512518Y270438D01*
X512581Y270583D01*
X512641Y270730D01*
X512697Y270878D01*
X512749Y271028D01*
X512798Y271178D01*
X512843Y271330D01*
X512884Y271483D01*
X512921Y271637D01*
X512954Y271792D01*
X512984Y271947D01*
X513009Y272104D01*
X513031Y272260D01*
X513048Y272418D01*
X513062Y272575D01*
X513072Y272733D01*
X513078Y272892D01*
X513080Y273050D01*
D11*
X445135Y504825D02*
X447675Y508000D01*
X436245Y508000D01*
X436245Y504825D02*
X436245Y511175D01*
X526098Y276226D02*
X526202Y276224D01*
X526307Y276218D01*
X526411Y276209D01*
X526514Y276196D01*
X526617Y276178D01*
X526719Y276158D01*
X526821Y276133D01*
X526921Y276105D01*
X527021Y276073D01*
X527119Y276037D01*
X527216Y275998D01*
X527311Y275956D01*
X527405Y275910D01*
X527497Y275860D01*
X527587Y275808D01*
X527675Y275752D01*
X527761Y275692D01*
X527845Y275630D01*
X527926Y275565D01*
X528005Y275497D01*
X528082Y275425D01*
X528155Y275352D01*
X528227Y275275D01*
X528295Y275196D01*
X528360Y275115D01*
X528422Y275031D01*
X528482Y274945D01*
X528538Y274857D01*
X528590Y274767D01*
X528640Y274675D01*
X528686Y274581D01*
X528728Y274486D01*
X528767Y274389D01*
X528803Y274291D01*
X528835Y274191D01*
X528863Y274091D01*
X528888Y273989D01*
X528908Y273887D01*
X528926Y273784D01*
X528939Y273681D01*
X528948Y273577D01*
X528954Y273472D01*
X528956Y273368D01*
X528955Y273368D02*
X528953Y273250D01*
X528947Y273131D01*
X528938Y273013D01*
X528925Y272896D01*
X528907Y272779D01*
X528887Y272662D01*
X528862Y272546D01*
X528834Y272431D01*
X528801Y272318D01*
X528766Y272205D01*
X528726Y272093D01*
X528684Y271983D01*
X528637Y271874D01*
X528587Y271766D01*
X528534Y271661D01*
X528477Y271557D01*
X528417Y271455D01*
X528354Y271355D01*
X528287Y271257D01*
X528218Y271161D01*
X528145Y271068D01*
X528069Y270977D01*
X527991Y270888D01*
X527909Y270802D01*
X527825Y270719D01*
X527739Y270638D01*
X527649Y270561D01*
X527558Y270486D01*
X527464Y270414D01*
X527367Y270345D01*
X527269Y270280D01*
X527168Y270217D01*
X527065Y270158D01*
X526961Y270102D01*
X526855Y270050D01*
X526747Y270001D01*
X526638Y269956D01*
X526527Y269914D01*
X526415Y269876D01*
X523876Y275273D02*
X523951Y275349D01*
X524030Y275424D01*
X524111Y275495D01*
X524195Y275564D01*
X524281Y275629D01*
X524369Y275691D01*
X524459Y275751D01*
X524551Y275807D01*
X524646Y275860D01*
X524742Y275909D01*
X524840Y275955D01*
X524939Y275998D01*
X525040Y276037D01*
X525142Y276072D01*
X525245Y276104D01*
X525349Y276132D01*
X525454Y276157D01*
X525561Y276178D01*
X525667Y276195D01*
X525774Y276208D01*
X525882Y276217D01*
X525990Y276223D01*
X526098Y276225D01*
X523875Y275273D02*
X517525Y269875D01*
X517525Y276225D01*
X523240Y281305D02*
X523465Y281308D01*
X523690Y281316D01*
X523914Y281329D01*
X524138Y281348D01*
X524362Y281372D01*
X524585Y281401D01*
X524807Y281436D01*
X525028Y281476D01*
X525248Y281522D01*
X525467Y281572D01*
X525685Y281628D01*
X525902Y281689D01*
X526117Y281755D01*
X526330Y281826D01*
X526541Y281903D01*
X526751Y281984D01*
X526959Y282070D01*
X527164Y282161D01*
X527367Y282257D01*
X527368Y282257D02*
X527456Y282289D01*
X527543Y282325D01*
X527629Y282364D01*
X527713Y282407D01*
X527795Y282453D01*
X527875Y282502D01*
X527953Y282554D01*
X528029Y282610D01*
X528103Y282668D01*
X528174Y282730D01*
X528243Y282794D01*
X528309Y282861D01*
X528372Y282930D01*
X528433Y283002D01*
X528491Y283076D01*
X528545Y283153D01*
X528597Y283231D01*
X528645Y283312D01*
X528690Y283394D01*
X528732Y283479D01*
X528770Y283565D01*
X528805Y283652D01*
X528837Y283740D01*
X528864Y283830D01*
X528889Y283921D01*
X528909Y284013D01*
X528926Y284105D01*
X528939Y284199D01*
X528948Y284292D01*
X528954Y284386D01*
X528956Y284480D01*
X528954Y284574D01*
X528948Y284668D01*
X528939Y284761D01*
X528926Y284855D01*
X528909Y284947D01*
X528889Y285039D01*
X528864Y285130D01*
X528837Y285220D01*
X528805Y285308D01*
X528770Y285395D01*
X528732Y285481D01*
X528690Y285566D01*
X528645Y285648D01*
X528597Y285729D01*
X528545Y285807D01*
X528491Y285884D01*
X528433Y285958D01*
X528372Y286030D01*
X528309Y286099D01*
X528243Y286166D01*
X528174Y286230D01*
X528103Y286292D01*
X528029Y286350D01*
X527953Y286406D01*
X527875Y286458D01*
X527795Y286507D01*
X527713Y286553D01*
X527629Y286596D01*
X527543Y286635D01*
X527456Y286671D01*
X527368Y286703D01*
X527367Y286703D02*
X527164Y286799D01*
X526959Y286890D01*
X526751Y286976D01*
X526541Y287057D01*
X526330Y287134D01*
X526117Y287205D01*
X525902Y287271D01*
X525685Y287332D01*
X525467Y287388D01*
X525248Y287438D01*
X525028Y287484D01*
X524807Y287524D01*
X524585Y287559D01*
X524362Y287588D01*
X524138Y287612D01*
X523914Y287631D01*
X523690Y287644D01*
X523465Y287652D01*
X523240Y287655D01*
X523240Y281305D02*
X523015Y281308D01*
X522790Y281316D01*
X522566Y281329D01*
X522342Y281348D01*
X522118Y281372D01*
X521895Y281401D01*
X521673Y281436D01*
X521452Y281476D01*
X521232Y281522D01*
X521013Y281572D01*
X520795Y281628D01*
X520578Y281689D01*
X520363Y281755D01*
X520150Y281826D01*
X519939Y281903D01*
X519729Y281984D01*
X519521Y282070D01*
X519316Y282161D01*
X519113Y282257D01*
X519025Y282289D01*
X518938Y282325D01*
X518852Y282364D01*
X518768Y282407D01*
X518686Y282453D01*
X518606Y282502D01*
X518528Y282554D01*
X518452Y282610D01*
X518378Y282668D01*
X518307Y282730D01*
X518238Y282794D01*
X518172Y282861D01*
X518109Y282930D01*
X518048Y283002D01*
X517990Y283076D01*
X517936Y283153D01*
X517884Y283231D01*
X517836Y283312D01*
X517791Y283394D01*
X517749Y283479D01*
X517711Y283565D01*
X517676Y283652D01*
X517644Y283740D01*
X517617Y283830D01*
X517592Y283921D01*
X517572Y284013D01*
X517555Y284105D01*
X517542Y284199D01*
X517533Y284292D01*
X517527Y284386D01*
X517525Y284480D01*
X519113Y286703D02*
X519316Y286799D01*
X519521Y286890D01*
X519729Y286976D01*
X519939Y287057D01*
X520150Y287134D01*
X520363Y287205D01*
X520578Y287271D01*
X520795Y287332D01*
X521013Y287388D01*
X521232Y287438D01*
X521452Y287484D01*
X521673Y287524D01*
X521895Y287559D01*
X522118Y287588D01*
X522342Y287612D01*
X522566Y287631D01*
X522790Y287644D01*
X523015Y287652D01*
X523240Y287655D01*
X519113Y286703D02*
X519025Y286671D01*
X518938Y286635D01*
X518852Y286596D01*
X518768Y286553D01*
X518686Y286507D01*
X518606Y286458D01*
X518528Y286406D01*
X518452Y286350D01*
X518378Y286292D01*
X518307Y286230D01*
X518238Y286166D01*
X518172Y286099D01*
X518109Y286030D01*
X518048Y285958D01*
X517990Y285884D01*
X517936Y285807D01*
X517884Y285729D01*
X517836Y285648D01*
X517791Y285566D01*
X517749Y285481D01*
X517711Y285395D01*
X517676Y285308D01*
X517644Y285220D01*
X517617Y285130D01*
X517592Y285039D01*
X517572Y284947D01*
X517555Y284855D01*
X517542Y284761D01*
X517533Y284668D01*
X517527Y284574D01*
X517525Y284480D01*
X520065Y281940D02*
X526415Y287020D01*
M02*
