G04 EAGLE Gerber RS-274X export*
G75*
%MOMM*%
%FSLAX34Y34*%
%LPD*%
%INSilkscreen Top*%
%IPPOS*%
%AMOC8*
5,1,8,0,0,1.08239X$1,22.5*%
G01*
%ADD10C,0.050800*%
%ADD11C,0.152400*%


D10*
X63754Y384302D02*
X65617Y378714D01*
X67479Y384302D01*
X70776Y378714D02*
X72018Y378714D01*
X70776Y378714D02*
X70706Y378716D01*
X70637Y378722D01*
X70568Y378732D01*
X70500Y378745D01*
X70432Y378763D01*
X70366Y378784D01*
X70301Y378809D01*
X70237Y378837D01*
X70175Y378869D01*
X70115Y378904D01*
X70057Y378943D01*
X70002Y378985D01*
X69948Y379030D01*
X69898Y379078D01*
X69850Y379128D01*
X69805Y379182D01*
X69763Y379237D01*
X69724Y379295D01*
X69689Y379355D01*
X69657Y379417D01*
X69629Y379481D01*
X69604Y379546D01*
X69583Y379612D01*
X69565Y379680D01*
X69552Y379748D01*
X69542Y379817D01*
X69536Y379886D01*
X69534Y379956D01*
X69535Y379956D02*
X69535Y383060D01*
X69534Y383060D02*
X69536Y383130D01*
X69542Y383199D01*
X69552Y383268D01*
X69565Y383336D01*
X69583Y383404D01*
X69604Y383470D01*
X69629Y383535D01*
X69657Y383599D01*
X69689Y383661D01*
X69724Y383721D01*
X69763Y383779D01*
X69805Y383834D01*
X69850Y383888D01*
X69898Y383938D01*
X69948Y383986D01*
X70002Y384031D01*
X70057Y384073D01*
X70115Y384112D01*
X70175Y384147D01*
X70237Y384179D01*
X70301Y384207D01*
X70366Y384232D01*
X70432Y384253D01*
X70500Y384271D01*
X70568Y384284D01*
X70637Y384294D01*
X70706Y384300D01*
X70776Y384302D01*
X72018Y384302D01*
X75348Y378714D02*
X76590Y378714D01*
X75348Y378714D02*
X75278Y378716D01*
X75209Y378722D01*
X75140Y378732D01*
X75072Y378745D01*
X75004Y378763D01*
X74938Y378784D01*
X74873Y378809D01*
X74809Y378837D01*
X74747Y378869D01*
X74687Y378904D01*
X74629Y378943D01*
X74574Y378985D01*
X74520Y379030D01*
X74470Y379078D01*
X74422Y379128D01*
X74377Y379182D01*
X74335Y379237D01*
X74296Y379295D01*
X74261Y379355D01*
X74229Y379417D01*
X74201Y379481D01*
X74176Y379546D01*
X74155Y379612D01*
X74137Y379680D01*
X74124Y379748D01*
X74114Y379817D01*
X74108Y379886D01*
X74106Y379956D01*
X74106Y383060D01*
X74108Y383130D01*
X74114Y383199D01*
X74124Y383268D01*
X74137Y383336D01*
X74155Y383404D01*
X74176Y383470D01*
X74201Y383535D01*
X74229Y383599D01*
X74261Y383661D01*
X74296Y383721D01*
X74335Y383779D01*
X74377Y383834D01*
X74422Y383888D01*
X74470Y383938D01*
X74520Y383986D01*
X74574Y384031D01*
X74629Y384073D01*
X74687Y384112D01*
X74747Y384147D01*
X74809Y384179D01*
X74873Y384207D01*
X74938Y384232D01*
X75004Y384253D01*
X75072Y384271D01*
X75140Y384284D01*
X75209Y384294D01*
X75278Y384300D01*
X75348Y384302D01*
X76590Y384302D01*
X413597Y503174D02*
X411734Y508762D01*
X415459Y508762D02*
X413597Y503174D01*
X418756Y503174D02*
X419998Y503174D01*
X418756Y503174D02*
X418686Y503176D01*
X418617Y503182D01*
X418548Y503192D01*
X418480Y503205D01*
X418412Y503223D01*
X418346Y503244D01*
X418281Y503269D01*
X418217Y503297D01*
X418155Y503329D01*
X418095Y503364D01*
X418037Y503403D01*
X417982Y503445D01*
X417928Y503490D01*
X417878Y503538D01*
X417830Y503588D01*
X417785Y503642D01*
X417743Y503697D01*
X417704Y503755D01*
X417669Y503815D01*
X417637Y503877D01*
X417609Y503941D01*
X417584Y504006D01*
X417563Y504072D01*
X417545Y504140D01*
X417532Y504208D01*
X417522Y504277D01*
X417516Y504346D01*
X417514Y504416D01*
X417515Y504416D02*
X417515Y507520D01*
X417514Y507520D02*
X417516Y507590D01*
X417522Y507659D01*
X417532Y507728D01*
X417545Y507796D01*
X417563Y507864D01*
X417584Y507930D01*
X417609Y507995D01*
X417637Y508059D01*
X417669Y508121D01*
X417704Y508181D01*
X417743Y508239D01*
X417785Y508294D01*
X417830Y508348D01*
X417878Y508398D01*
X417928Y508446D01*
X417982Y508491D01*
X418037Y508533D01*
X418095Y508572D01*
X418155Y508607D01*
X418217Y508639D01*
X418281Y508667D01*
X418346Y508692D01*
X418412Y508713D01*
X418480Y508731D01*
X418548Y508744D01*
X418617Y508754D01*
X418686Y508760D01*
X418756Y508762D01*
X419998Y508762D01*
X423328Y503174D02*
X424570Y503174D01*
X423328Y503174D02*
X423258Y503176D01*
X423189Y503182D01*
X423120Y503192D01*
X423052Y503205D01*
X422984Y503223D01*
X422918Y503244D01*
X422853Y503269D01*
X422789Y503297D01*
X422727Y503329D01*
X422667Y503364D01*
X422609Y503403D01*
X422554Y503445D01*
X422500Y503490D01*
X422450Y503538D01*
X422402Y503588D01*
X422357Y503642D01*
X422315Y503697D01*
X422276Y503755D01*
X422241Y503815D01*
X422209Y503877D01*
X422181Y503941D01*
X422156Y504006D01*
X422135Y504072D01*
X422117Y504140D01*
X422104Y504208D01*
X422094Y504277D01*
X422088Y504346D01*
X422086Y504416D01*
X422086Y507520D01*
X422088Y507590D01*
X422094Y507659D01*
X422104Y507728D01*
X422117Y507796D01*
X422135Y507864D01*
X422156Y507930D01*
X422181Y507995D01*
X422209Y508059D01*
X422241Y508121D01*
X422276Y508181D01*
X422315Y508239D01*
X422357Y508294D01*
X422402Y508348D01*
X422450Y508398D01*
X422500Y508446D01*
X422554Y508491D01*
X422609Y508533D01*
X422667Y508572D01*
X422727Y508607D01*
X422789Y508639D01*
X422853Y508667D01*
X422918Y508692D01*
X422984Y508713D01*
X423052Y508731D01*
X423120Y508744D01*
X423189Y508754D01*
X423258Y508760D01*
X423328Y508762D01*
X424570Y508762D01*
X66858Y356418D02*
X65927Y356418D01*
X66858Y356418D02*
X66858Y353314D01*
X64996Y353314D01*
X64926Y353316D01*
X64857Y353322D01*
X64788Y353332D01*
X64720Y353345D01*
X64652Y353363D01*
X64586Y353384D01*
X64521Y353409D01*
X64457Y353437D01*
X64395Y353469D01*
X64335Y353504D01*
X64277Y353543D01*
X64222Y353585D01*
X64168Y353630D01*
X64118Y353678D01*
X64070Y353728D01*
X64025Y353782D01*
X63983Y353837D01*
X63944Y353895D01*
X63909Y353955D01*
X63877Y354017D01*
X63849Y354081D01*
X63824Y354146D01*
X63803Y354212D01*
X63785Y354280D01*
X63772Y354348D01*
X63762Y354417D01*
X63756Y354486D01*
X63754Y354556D01*
X63754Y357660D01*
X63756Y357730D01*
X63762Y357799D01*
X63772Y357868D01*
X63785Y357936D01*
X63803Y358004D01*
X63824Y358070D01*
X63849Y358135D01*
X63877Y358199D01*
X63909Y358261D01*
X63944Y358321D01*
X63983Y358379D01*
X64025Y358434D01*
X64070Y358488D01*
X64118Y358538D01*
X64168Y358586D01*
X64222Y358631D01*
X64277Y358673D01*
X64335Y358712D01*
X64395Y358747D01*
X64457Y358779D01*
X64521Y358807D01*
X64586Y358832D01*
X64652Y358853D01*
X64720Y358871D01*
X64788Y358884D01*
X64857Y358894D01*
X64926Y358900D01*
X64996Y358902D01*
X66858Y358902D01*
X69606Y358902D02*
X69606Y353314D01*
X72711Y353314D02*
X69606Y358902D01*
X72711Y358902D02*
X72711Y353314D01*
X75458Y353314D02*
X75458Y358902D01*
X77010Y358902D01*
X77086Y358900D01*
X77162Y358895D01*
X77238Y358885D01*
X77313Y358872D01*
X77387Y358855D01*
X77461Y358835D01*
X77533Y358811D01*
X77604Y358784D01*
X77674Y358753D01*
X77742Y358719D01*
X77808Y358681D01*
X77872Y358640D01*
X77935Y358597D01*
X77995Y358550D01*
X78052Y358500D01*
X78107Y358447D01*
X78160Y358392D01*
X78210Y358335D01*
X78257Y358275D01*
X78300Y358212D01*
X78341Y358148D01*
X78379Y358082D01*
X78413Y358014D01*
X78444Y357944D01*
X78471Y357873D01*
X78495Y357800D01*
X78515Y357727D01*
X78532Y357653D01*
X78545Y357578D01*
X78555Y357502D01*
X78560Y357426D01*
X78562Y357350D01*
X78563Y357350D02*
X78563Y354866D01*
X78562Y354866D02*
X78560Y354787D01*
X78554Y354709D01*
X78544Y354631D01*
X78530Y354554D01*
X78512Y354477D01*
X78491Y354401D01*
X78465Y354327D01*
X78436Y354254D01*
X78403Y354183D01*
X78367Y354113D01*
X78327Y354045D01*
X78284Y353979D01*
X78237Y353916D01*
X78188Y353855D01*
X78135Y353797D01*
X78079Y353741D01*
X78021Y353688D01*
X77960Y353639D01*
X77897Y353592D01*
X77831Y353549D01*
X77763Y353509D01*
X77694Y353473D01*
X77622Y353440D01*
X77549Y353411D01*
X77475Y353385D01*
X77399Y353364D01*
X77322Y353346D01*
X77245Y353332D01*
X77167Y353322D01*
X77089Y353316D01*
X77010Y353314D01*
X75458Y353314D01*
X424434Y333502D02*
X424434Y327914D01*
X424434Y333502D02*
X425986Y333502D01*
X426063Y333500D01*
X426141Y333494D01*
X426217Y333485D01*
X426294Y333471D01*
X426369Y333454D01*
X426443Y333433D01*
X426517Y333408D01*
X426589Y333380D01*
X426659Y333348D01*
X426728Y333313D01*
X426795Y333274D01*
X426860Y333232D01*
X426923Y333187D01*
X426984Y333139D01*
X427042Y333088D01*
X427097Y333034D01*
X427150Y332977D01*
X427199Y332918D01*
X427246Y332856D01*
X427290Y332792D01*
X427330Y332726D01*
X427367Y332658D01*
X427401Y332588D01*
X427431Y332517D01*
X427457Y332444D01*
X427480Y332370D01*
X427499Y332295D01*
X427514Y332220D01*
X427526Y332143D01*
X427534Y332066D01*
X427538Y331989D01*
X427538Y331911D01*
X427534Y331834D01*
X427526Y331757D01*
X427514Y331680D01*
X427499Y331605D01*
X427480Y331530D01*
X427457Y331456D01*
X427431Y331383D01*
X427401Y331312D01*
X427367Y331242D01*
X427330Y331174D01*
X427290Y331108D01*
X427246Y331044D01*
X427199Y330982D01*
X427150Y330923D01*
X427097Y330866D01*
X427042Y330812D01*
X426984Y330761D01*
X426923Y330713D01*
X426860Y330668D01*
X426795Y330626D01*
X426728Y330587D01*
X426659Y330552D01*
X426589Y330520D01*
X426517Y330492D01*
X426443Y330467D01*
X426369Y330446D01*
X426294Y330429D01*
X426217Y330415D01*
X426141Y330406D01*
X426063Y330400D01*
X425986Y330398D01*
X424434Y330398D01*
X426297Y330398D02*
X427538Y327914D01*
X430760Y327914D02*
X432313Y327914D01*
X430760Y327914D02*
X430702Y327916D01*
X430643Y327921D01*
X430586Y327930D01*
X430528Y327943D01*
X430472Y327960D01*
X430417Y327979D01*
X430364Y328003D01*
X430311Y328029D01*
X430261Y328059D01*
X430213Y328092D01*
X430167Y328128D01*
X430123Y328166D01*
X430081Y328208D01*
X430043Y328252D01*
X430007Y328298D01*
X429974Y328346D01*
X429944Y328396D01*
X429918Y328449D01*
X429894Y328502D01*
X429875Y328557D01*
X429858Y328613D01*
X429845Y328671D01*
X429836Y328728D01*
X429831Y328787D01*
X429829Y328845D01*
X429829Y330398D01*
X429831Y330468D01*
X429837Y330537D01*
X429847Y330606D01*
X429860Y330674D01*
X429878Y330742D01*
X429899Y330808D01*
X429924Y330873D01*
X429952Y330937D01*
X429984Y330999D01*
X430019Y331059D01*
X430058Y331117D01*
X430100Y331172D01*
X430145Y331226D01*
X430193Y331276D01*
X430243Y331324D01*
X430297Y331369D01*
X430352Y331411D01*
X430410Y331450D01*
X430470Y331485D01*
X430532Y331517D01*
X430596Y331545D01*
X430661Y331570D01*
X430727Y331591D01*
X430795Y331609D01*
X430863Y331622D01*
X430932Y331632D01*
X431001Y331638D01*
X431071Y331640D01*
X431141Y331638D01*
X431210Y331632D01*
X431279Y331622D01*
X431347Y331609D01*
X431415Y331591D01*
X431481Y331570D01*
X431546Y331545D01*
X431610Y331517D01*
X431672Y331485D01*
X431732Y331450D01*
X431790Y331411D01*
X431845Y331369D01*
X431899Y331324D01*
X431949Y331276D01*
X431997Y331226D01*
X432042Y331172D01*
X432084Y331117D01*
X432123Y331059D01*
X432158Y330999D01*
X432190Y330937D01*
X432218Y330873D01*
X432243Y330808D01*
X432264Y330742D01*
X432282Y330674D01*
X432295Y330606D01*
X432305Y330537D01*
X432311Y330468D01*
X432313Y330398D01*
X432313Y329777D01*
X429829Y329777D01*
X435049Y330087D02*
X436602Y329466D01*
X435049Y330087D02*
X434998Y330109D01*
X434949Y330135D01*
X434901Y330164D01*
X434856Y330197D01*
X434813Y330233D01*
X434772Y330271D01*
X434735Y330313D01*
X434700Y330356D01*
X434668Y330402D01*
X434640Y330451D01*
X434615Y330501D01*
X434594Y330552D01*
X434576Y330605D01*
X434562Y330659D01*
X434552Y330714D01*
X434546Y330770D01*
X434543Y330825D01*
X434544Y330881D01*
X434550Y330937D01*
X434559Y330992D01*
X434571Y331046D01*
X434588Y331100D01*
X434608Y331152D01*
X434632Y331202D01*
X434659Y331251D01*
X434690Y331298D01*
X434724Y331342D01*
X434760Y331384D01*
X434800Y331424D01*
X434842Y331460D01*
X434887Y331494D01*
X434934Y331524D01*
X434982Y331551D01*
X435033Y331575D01*
X435085Y331595D01*
X435139Y331611D01*
X435193Y331624D01*
X435248Y331633D01*
X435304Y331638D01*
X435360Y331639D01*
X435360Y331640D02*
X435471Y331636D01*
X435582Y331630D01*
X435692Y331619D01*
X435802Y331605D01*
X435912Y331588D01*
X436021Y331568D01*
X436129Y331544D01*
X436236Y331516D01*
X436343Y331485D01*
X436448Y331451D01*
X436553Y331414D01*
X436656Y331373D01*
X436758Y331329D01*
X436602Y329466D02*
X436653Y329444D01*
X436702Y329418D01*
X436750Y329389D01*
X436795Y329356D01*
X436838Y329320D01*
X436879Y329282D01*
X436916Y329240D01*
X436951Y329197D01*
X436983Y329151D01*
X437011Y329102D01*
X437036Y329052D01*
X437057Y329001D01*
X437075Y328948D01*
X437089Y328894D01*
X437099Y328839D01*
X437105Y328783D01*
X437108Y328728D01*
X437107Y328672D01*
X437101Y328616D01*
X437092Y328561D01*
X437080Y328507D01*
X437063Y328453D01*
X437043Y328401D01*
X437019Y328351D01*
X436992Y328302D01*
X436961Y328255D01*
X436927Y328211D01*
X436891Y328169D01*
X436851Y328129D01*
X436809Y328093D01*
X436764Y328059D01*
X436717Y328029D01*
X436669Y328002D01*
X436618Y327978D01*
X436566Y327958D01*
X436512Y327942D01*
X436458Y327929D01*
X436403Y327920D01*
X436347Y327915D01*
X436291Y327914D01*
X436157Y327917D01*
X436023Y327924D01*
X435889Y327935D01*
X435756Y327948D01*
X435623Y327966D01*
X435490Y327986D01*
X435358Y328010D01*
X435227Y328038D01*
X435096Y328068D01*
X434967Y328102D01*
X434838Y328140D01*
X434710Y328180D01*
X434583Y328224D01*
X440270Y327914D02*
X441822Y327914D01*
X440270Y327914D02*
X440212Y327916D01*
X440153Y327921D01*
X440096Y327930D01*
X440038Y327943D01*
X439982Y327960D01*
X439927Y327979D01*
X439874Y328003D01*
X439821Y328029D01*
X439771Y328059D01*
X439723Y328092D01*
X439677Y328128D01*
X439633Y328166D01*
X439591Y328208D01*
X439553Y328252D01*
X439517Y328298D01*
X439484Y328346D01*
X439454Y328396D01*
X439428Y328449D01*
X439404Y328502D01*
X439385Y328557D01*
X439368Y328613D01*
X439355Y328671D01*
X439346Y328728D01*
X439341Y328787D01*
X439339Y328845D01*
X439339Y330398D01*
X439338Y330398D02*
X439340Y330468D01*
X439346Y330537D01*
X439356Y330606D01*
X439369Y330674D01*
X439387Y330742D01*
X439408Y330808D01*
X439433Y330873D01*
X439461Y330937D01*
X439493Y330999D01*
X439528Y331059D01*
X439567Y331117D01*
X439609Y331172D01*
X439654Y331226D01*
X439702Y331276D01*
X439752Y331324D01*
X439806Y331369D01*
X439861Y331411D01*
X439919Y331450D01*
X439979Y331485D01*
X440041Y331517D01*
X440105Y331545D01*
X440170Y331570D01*
X440236Y331591D01*
X440304Y331609D01*
X440372Y331622D01*
X440441Y331632D01*
X440510Y331638D01*
X440580Y331640D01*
X440650Y331638D01*
X440719Y331632D01*
X440788Y331622D01*
X440856Y331609D01*
X440924Y331591D01*
X440990Y331570D01*
X441055Y331545D01*
X441119Y331517D01*
X441181Y331485D01*
X441241Y331450D01*
X441299Y331411D01*
X441354Y331369D01*
X441408Y331324D01*
X441458Y331276D01*
X441506Y331226D01*
X441551Y331172D01*
X441593Y331117D01*
X441632Y331059D01*
X441667Y330999D01*
X441699Y330937D01*
X441727Y330873D01*
X441752Y330808D01*
X441773Y330742D01*
X441791Y330674D01*
X441804Y330606D01*
X441814Y330537D01*
X441820Y330468D01*
X441822Y330398D01*
X441822Y329777D01*
X439339Y329777D01*
X443627Y331639D02*
X445490Y331639D01*
X444248Y333502D02*
X444248Y328845D01*
X444250Y328787D01*
X444255Y328728D01*
X444264Y328671D01*
X444277Y328613D01*
X444294Y328557D01*
X444313Y328502D01*
X444337Y328449D01*
X444363Y328396D01*
X444393Y328346D01*
X444426Y328298D01*
X444462Y328252D01*
X444500Y328208D01*
X444542Y328166D01*
X444586Y328128D01*
X444632Y328092D01*
X444680Y328059D01*
X444731Y328029D01*
X444783Y328003D01*
X444836Y327979D01*
X444891Y327960D01*
X444947Y327943D01*
X445005Y327930D01*
X445062Y327921D01*
X445121Y327916D01*
X445179Y327914D01*
X445490Y327914D01*
X63754Y401574D02*
X63754Y407162D01*
X65306Y407162D01*
X65383Y407160D01*
X65461Y407154D01*
X65537Y407145D01*
X65614Y407131D01*
X65689Y407114D01*
X65763Y407093D01*
X65837Y407068D01*
X65909Y407040D01*
X65979Y407008D01*
X66048Y406973D01*
X66115Y406934D01*
X66180Y406892D01*
X66243Y406847D01*
X66304Y406799D01*
X66362Y406748D01*
X66417Y406694D01*
X66470Y406637D01*
X66519Y406578D01*
X66566Y406516D01*
X66610Y406452D01*
X66650Y406386D01*
X66687Y406318D01*
X66721Y406248D01*
X66751Y406177D01*
X66777Y406104D01*
X66800Y406030D01*
X66819Y405955D01*
X66834Y405880D01*
X66846Y405803D01*
X66854Y405726D01*
X66858Y405649D01*
X66858Y405571D01*
X66854Y405494D01*
X66846Y405417D01*
X66834Y405340D01*
X66819Y405265D01*
X66800Y405190D01*
X66777Y405116D01*
X66751Y405043D01*
X66721Y404972D01*
X66687Y404902D01*
X66650Y404834D01*
X66610Y404768D01*
X66566Y404704D01*
X66519Y404642D01*
X66470Y404583D01*
X66417Y404526D01*
X66362Y404472D01*
X66304Y404421D01*
X66243Y404373D01*
X66180Y404328D01*
X66115Y404286D01*
X66048Y404247D01*
X65979Y404212D01*
X65909Y404180D01*
X65837Y404152D01*
X65763Y404127D01*
X65689Y404106D01*
X65614Y404089D01*
X65537Y404075D01*
X65461Y404066D01*
X65383Y404060D01*
X65306Y404058D01*
X63754Y404058D01*
X65617Y404058D02*
X66858Y401574D01*
X70080Y401574D02*
X71633Y401574D01*
X70080Y401574D02*
X70022Y401576D01*
X69963Y401581D01*
X69906Y401590D01*
X69848Y401603D01*
X69792Y401620D01*
X69737Y401639D01*
X69684Y401663D01*
X69631Y401689D01*
X69581Y401719D01*
X69533Y401752D01*
X69487Y401788D01*
X69443Y401826D01*
X69401Y401868D01*
X69363Y401912D01*
X69327Y401958D01*
X69294Y402006D01*
X69264Y402056D01*
X69238Y402109D01*
X69214Y402162D01*
X69195Y402217D01*
X69178Y402273D01*
X69165Y402331D01*
X69156Y402388D01*
X69151Y402447D01*
X69149Y402505D01*
X69149Y404058D01*
X69151Y404128D01*
X69157Y404197D01*
X69167Y404266D01*
X69180Y404334D01*
X69198Y404402D01*
X69219Y404468D01*
X69244Y404533D01*
X69272Y404597D01*
X69304Y404659D01*
X69339Y404719D01*
X69378Y404777D01*
X69420Y404832D01*
X69465Y404886D01*
X69513Y404936D01*
X69563Y404984D01*
X69617Y405029D01*
X69672Y405071D01*
X69730Y405110D01*
X69790Y405145D01*
X69852Y405177D01*
X69916Y405205D01*
X69981Y405230D01*
X70047Y405251D01*
X70115Y405269D01*
X70183Y405282D01*
X70252Y405292D01*
X70321Y405298D01*
X70391Y405300D01*
X70461Y405298D01*
X70530Y405292D01*
X70599Y405282D01*
X70667Y405269D01*
X70735Y405251D01*
X70801Y405230D01*
X70866Y405205D01*
X70930Y405177D01*
X70992Y405145D01*
X71052Y405110D01*
X71110Y405071D01*
X71165Y405029D01*
X71219Y404984D01*
X71269Y404936D01*
X71317Y404886D01*
X71362Y404832D01*
X71404Y404777D01*
X71443Y404719D01*
X71478Y404659D01*
X71510Y404597D01*
X71538Y404533D01*
X71563Y404468D01*
X71584Y404402D01*
X71602Y404334D01*
X71615Y404266D01*
X71625Y404197D01*
X71631Y404128D01*
X71633Y404058D01*
X71633Y403437D01*
X69149Y403437D01*
X74369Y403747D02*
X75922Y403126D01*
X74369Y403747D02*
X74318Y403769D01*
X74269Y403795D01*
X74221Y403824D01*
X74176Y403857D01*
X74133Y403893D01*
X74092Y403931D01*
X74055Y403973D01*
X74020Y404016D01*
X73988Y404062D01*
X73960Y404111D01*
X73935Y404161D01*
X73914Y404212D01*
X73896Y404265D01*
X73882Y404319D01*
X73872Y404374D01*
X73866Y404430D01*
X73863Y404485D01*
X73864Y404541D01*
X73870Y404597D01*
X73879Y404652D01*
X73891Y404706D01*
X73908Y404760D01*
X73928Y404812D01*
X73952Y404862D01*
X73979Y404911D01*
X74010Y404958D01*
X74044Y405002D01*
X74080Y405044D01*
X74120Y405084D01*
X74162Y405120D01*
X74207Y405154D01*
X74254Y405184D01*
X74302Y405211D01*
X74353Y405235D01*
X74405Y405255D01*
X74459Y405271D01*
X74513Y405284D01*
X74568Y405293D01*
X74624Y405298D01*
X74680Y405299D01*
X74680Y405300D02*
X74791Y405296D01*
X74902Y405290D01*
X75012Y405279D01*
X75122Y405265D01*
X75232Y405248D01*
X75341Y405228D01*
X75449Y405204D01*
X75556Y405176D01*
X75663Y405145D01*
X75768Y405111D01*
X75873Y405074D01*
X75976Y405033D01*
X76078Y404989D01*
X75922Y403126D02*
X75973Y403104D01*
X76022Y403078D01*
X76070Y403049D01*
X76115Y403016D01*
X76158Y402980D01*
X76199Y402942D01*
X76236Y402900D01*
X76271Y402857D01*
X76303Y402811D01*
X76331Y402762D01*
X76356Y402712D01*
X76377Y402661D01*
X76395Y402608D01*
X76409Y402554D01*
X76419Y402499D01*
X76425Y402443D01*
X76428Y402388D01*
X76427Y402332D01*
X76421Y402276D01*
X76412Y402221D01*
X76400Y402167D01*
X76383Y402113D01*
X76363Y402061D01*
X76339Y402011D01*
X76312Y401962D01*
X76281Y401915D01*
X76247Y401871D01*
X76211Y401829D01*
X76171Y401789D01*
X76129Y401753D01*
X76084Y401719D01*
X76037Y401689D01*
X75989Y401662D01*
X75938Y401638D01*
X75886Y401618D01*
X75832Y401602D01*
X75778Y401589D01*
X75723Y401580D01*
X75667Y401575D01*
X75611Y401574D01*
X75477Y401577D01*
X75343Y401584D01*
X75209Y401595D01*
X75076Y401608D01*
X74943Y401626D01*
X74810Y401646D01*
X74678Y401670D01*
X74547Y401698D01*
X74416Y401728D01*
X74287Y401762D01*
X74158Y401800D01*
X74030Y401840D01*
X73903Y401884D01*
X79590Y401574D02*
X81142Y401574D01*
X79590Y401574D02*
X79532Y401576D01*
X79473Y401581D01*
X79416Y401590D01*
X79358Y401603D01*
X79302Y401620D01*
X79247Y401639D01*
X79194Y401663D01*
X79141Y401689D01*
X79091Y401719D01*
X79043Y401752D01*
X78997Y401788D01*
X78953Y401826D01*
X78911Y401868D01*
X78873Y401912D01*
X78837Y401958D01*
X78804Y402006D01*
X78774Y402056D01*
X78748Y402109D01*
X78724Y402162D01*
X78705Y402217D01*
X78688Y402273D01*
X78675Y402331D01*
X78666Y402388D01*
X78661Y402447D01*
X78659Y402505D01*
X78659Y404058D01*
X78658Y404058D02*
X78660Y404128D01*
X78666Y404197D01*
X78676Y404266D01*
X78689Y404334D01*
X78707Y404402D01*
X78728Y404468D01*
X78753Y404533D01*
X78781Y404597D01*
X78813Y404659D01*
X78848Y404719D01*
X78887Y404777D01*
X78929Y404832D01*
X78974Y404886D01*
X79022Y404936D01*
X79072Y404984D01*
X79126Y405029D01*
X79181Y405071D01*
X79239Y405110D01*
X79299Y405145D01*
X79361Y405177D01*
X79425Y405205D01*
X79490Y405230D01*
X79556Y405251D01*
X79624Y405269D01*
X79692Y405282D01*
X79761Y405292D01*
X79830Y405298D01*
X79900Y405300D01*
X79970Y405298D01*
X80039Y405292D01*
X80108Y405282D01*
X80176Y405269D01*
X80244Y405251D01*
X80310Y405230D01*
X80375Y405205D01*
X80439Y405177D01*
X80501Y405145D01*
X80561Y405110D01*
X80619Y405071D01*
X80674Y405029D01*
X80728Y404984D01*
X80778Y404936D01*
X80826Y404886D01*
X80871Y404832D01*
X80913Y404777D01*
X80952Y404719D01*
X80987Y404659D01*
X81019Y404597D01*
X81047Y404533D01*
X81072Y404468D01*
X81093Y404402D01*
X81111Y404334D01*
X81124Y404266D01*
X81134Y404197D01*
X81140Y404128D01*
X81142Y404058D01*
X81142Y403437D01*
X78659Y403437D01*
X82947Y405299D02*
X84810Y405299D01*
X83568Y407162D02*
X83568Y402505D01*
X83570Y402447D01*
X83575Y402388D01*
X83584Y402331D01*
X83597Y402273D01*
X83614Y402217D01*
X83633Y402162D01*
X83657Y402109D01*
X83683Y402056D01*
X83713Y402006D01*
X83746Y401958D01*
X83782Y401912D01*
X83820Y401868D01*
X83862Y401826D01*
X83906Y401788D01*
X83952Y401752D01*
X84000Y401719D01*
X84051Y401689D01*
X84103Y401663D01*
X84156Y401639D01*
X84211Y401620D01*
X84267Y401603D01*
X84325Y401590D01*
X84382Y401581D01*
X84441Y401576D01*
X84499Y401574D01*
X84810Y401574D01*
X418677Y426974D02*
X418747Y426976D01*
X418816Y426982D01*
X418885Y426992D01*
X418953Y427005D01*
X419021Y427023D01*
X419087Y427044D01*
X419152Y427069D01*
X419216Y427097D01*
X419278Y427129D01*
X419338Y427164D01*
X419396Y427203D01*
X419451Y427245D01*
X419505Y427290D01*
X419555Y427338D01*
X419603Y427388D01*
X419648Y427442D01*
X419690Y427497D01*
X419729Y427555D01*
X419764Y427615D01*
X419796Y427677D01*
X419824Y427741D01*
X419849Y427806D01*
X419870Y427872D01*
X419888Y427940D01*
X419901Y428008D01*
X419911Y428077D01*
X419917Y428146D01*
X419919Y428216D01*
X418677Y426974D02*
X418578Y426976D01*
X418480Y426981D01*
X418382Y426991D01*
X418284Y427004D01*
X418187Y427020D01*
X418090Y427040D01*
X417995Y427064D01*
X417900Y427092D01*
X417806Y427123D01*
X417714Y427157D01*
X417623Y427195D01*
X417533Y427236D01*
X417445Y427281D01*
X417359Y427329D01*
X417275Y427380D01*
X417193Y427434D01*
X417112Y427492D01*
X417034Y427552D01*
X416959Y427615D01*
X416885Y427681D01*
X416815Y427750D01*
X416969Y431320D02*
X416971Y431390D01*
X416977Y431459D01*
X416987Y431528D01*
X417000Y431596D01*
X417018Y431664D01*
X417039Y431730D01*
X417064Y431795D01*
X417092Y431859D01*
X417124Y431921D01*
X417159Y431981D01*
X417198Y432039D01*
X417240Y432094D01*
X417285Y432148D01*
X417333Y432198D01*
X417383Y432246D01*
X417437Y432291D01*
X417492Y432333D01*
X417550Y432372D01*
X417610Y432407D01*
X417672Y432439D01*
X417736Y432467D01*
X417801Y432492D01*
X417867Y432513D01*
X417935Y432531D01*
X418003Y432544D01*
X418072Y432554D01*
X418141Y432560D01*
X418211Y432562D01*
X418305Y432560D01*
X418398Y432554D01*
X418491Y432545D01*
X418584Y432532D01*
X418676Y432515D01*
X418767Y432495D01*
X418858Y432470D01*
X418947Y432443D01*
X419035Y432411D01*
X419122Y432376D01*
X419208Y432338D01*
X419291Y432296D01*
X419373Y432251D01*
X419454Y432203D01*
X419532Y432151D01*
X419608Y432096D01*
X417590Y430234D02*
X417531Y430270D01*
X417475Y430310D01*
X417421Y430353D01*
X417369Y430398D01*
X417320Y430447D01*
X417274Y430498D01*
X417231Y430551D01*
X417190Y430607D01*
X417153Y430665D01*
X417118Y430725D01*
X417088Y430786D01*
X417060Y430849D01*
X417036Y430914D01*
X417016Y430980D01*
X416999Y431047D01*
X416986Y431114D01*
X416977Y431182D01*
X416971Y431251D01*
X416969Y431320D01*
X419297Y429302D02*
X419356Y429266D01*
X419412Y429226D01*
X419466Y429183D01*
X419518Y429138D01*
X419567Y429089D01*
X419613Y429038D01*
X419656Y428985D01*
X419697Y428929D01*
X419734Y428871D01*
X419769Y428811D01*
X419799Y428750D01*
X419827Y428687D01*
X419851Y428622D01*
X419871Y428556D01*
X419888Y428489D01*
X419901Y428422D01*
X419910Y428354D01*
X419916Y428285D01*
X419918Y428216D01*
X419298Y429302D02*
X417590Y430234D01*
X421918Y432562D02*
X423159Y426974D01*
X424401Y430699D01*
X425643Y426974D01*
X426885Y432562D01*
X429250Y432562D02*
X429250Y426974D01*
X429250Y432562D02*
X430802Y432562D01*
X430878Y432560D01*
X430954Y432555D01*
X431030Y432545D01*
X431105Y432532D01*
X431179Y432515D01*
X431253Y432495D01*
X431325Y432471D01*
X431396Y432444D01*
X431466Y432413D01*
X431534Y432379D01*
X431600Y432341D01*
X431664Y432300D01*
X431727Y432257D01*
X431787Y432210D01*
X431844Y432160D01*
X431899Y432107D01*
X431952Y432052D01*
X432002Y431995D01*
X432049Y431935D01*
X432092Y431872D01*
X432133Y431808D01*
X432171Y431742D01*
X432205Y431674D01*
X432236Y431604D01*
X432263Y431533D01*
X432287Y431460D01*
X432307Y431387D01*
X432324Y431313D01*
X432337Y431238D01*
X432347Y431162D01*
X432352Y431086D01*
X432354Y431010D01*
X432354Y428526D01*
X432352Y428447D01*
X432346Y428369D01*
X432336Y428291D01*
X432322Y428214D01*
X432304Y428137D01*
X432283Y428061D01*
X432257Y427987D01*
X432228Y427914D01*
X432195Y427843D01*
X432159Y427773D01*
X432119Y427705D01*
X432076Y427639D01*
X432029Y427576D01*
X431980Y427515D01*
X431927Y427457D01*
X431871Y427401D01*
X431813Y427348D01*
X431752Y427299D01*
X431689Y427252D01*
X431623Y427209D01*
X431555Y427169D01*
X431486Y427133D01*
X431414Y427100D01*
X431341Y427071D01*
X431267Y427045D01*
X431191Y427024D01*
X431114Y427006D01*
X431037Y426992D01*
X430959Y426982D01*
X430881Y426976D01*
X430802Y426974D01*
X429250Y426974D01*
X435374Y426974D02*
X435374Y432562D01*
X434753Y426974D02*
X435995Y426974D01*
X435995Y432562D02*
X434753Y432562D01*
X438211Y431010D02*
X438211Y428526D01*
X438211Y431010D02*
X438213Y431087D01*
X438219Y431165D01*
X438228Y431241D01*
X438242Y431318D01*
X438259Y431393D01*
X438280Y431467D01*
X438305Y431541D01*
X438333Y431613D01*
X438365Y431683D01*
X438400Y431752D01*
X438439Y431819D01*
X438481Y431884D01*
X438526Y431947D01*
X438574Y432008D01*
X438625Y432066D01*
X438679Y432121D01*
X438736Y432174D01*
X438795Y432223D01*
X438857Y432270D01*
X438921Y432314D01*
X438987Y432354D01*
X439055Y432391D01*
X439125Y432425D01*
X439196Y432455D01*
X439269Y432481D01*
X439343Y432504D01*
X439418Y432523D01*
X439493Y432538D01*
X439570Y432550D01*
X439647Y432558D01*
X439724Y432562D01*
X439802Y432562D01*
X439879Y432558D01*
X439956Y432550D01*
X440033Y432538D01*
X440108Y432523D01*
X440183Y432504D01*
X440257Y432481D01*
X440330Y432455D01*
X440401Y432425D01*
X440471Y432391D01*
X440539Y432354D01*
X440605Y432314D01*
X440669Y432270D01*
X440731Y432223D01*
X440790Y432174D01*
X440847Y432121D01*
X440901Y432066D01*
X440952Y432008D01*
X441000Y431947D01*
X441045Y431884D01*
X441087Y431819D01*
X441126Y431752D01*
X441161Y431683D01*
X441193Y431613D01*
X441221Y431541D01*
X441246Y431467D01*
X441267Y431393D01*
X441284Y431318D01*
X441298Y431241D01*
X441307Y431165D01*
X441313Y431087D01*
X441315Y431010D01*
X441315Y428526D01*
X441313Y428449D01*
X441307Y428371D01*
X441298Y428295D01*
X441284Y428218D01*
X441267Y428143D01*
X441246Y428069D01*
X441221Y427995D01*
X441193Y427923D01*
X441161Y427853D01*
X441126Y427784D01*
X441087Y427717D01*
X441045Y427652D01*
X441000Y427589D01*
X440952Y427528D01*
X440901Y427470D01*
X440847Y427415D01*
X440790Y427362D01*
X440731Y427313D01*
X440669Y427266D01*
X440605Y427222D01*
X440539Y427182D01*
X440471Y427145D01*
X440401Y427111D01*
X440330Y427081D01*
X440257Y427055D01*
X440183Y427032D01*
X440108Y427013D01*
X440033Y426998D01*
X439956Y426986D01*
X439879Y426978D01*
X439802Y426974D01*
X439724Y426974D01*
X439647Y426978D01*
X439570Y426986D01*
X439493Y426998D01*
X439418Y427013D01*
X439343Y427032D01*
X439269Y427055D01*
X439196Y427081D01*
X439125Y427111D01*
X439055Y427145D01*
X438987Y427182D01*
X438921Y427222D01*
X438857Y427266D01*
X438795Y427313D01*
X438736Y427362D01*
X438679Y427415D01*
X438625Y427470D01*
X438574Y427528D01*
X438526Y427589D01*
X438481Y427652D01*
X438439Y427717D01*
X438400Y427784D01*
X438365Y427853D01*
X438333Y427923D01*
X438305Y427995D01*
X438280Y428069D01*
X438259Y428143D01*
X438242Y428218D01*
X438228Y428295D01*
X438219Y428371D01*
X438213Y428449D01*
X438211Y428526D01*
X153219Y405356D02*
X153217Y405286D01*
X153211Y405217D01*
X153201Y405148D01*
X153188Y405080D01*
X153170Y405012D01*
X153149Y404946D01*
X153124Y404881D01*
X153096Y404817D01*
X153064Y404755D01*
X153029Y404695D01*
X152990Y404637D01*
X152948Y404582D01*
X152903Y404528D01*
X152855Y404478D01*
X152805Y404430D01*
X152751Y404385D01*
X152696Y404343D01*
X152638Y404304D01*
X152578Y404269D01*
X152516Y404237D01*
X152452Y404209D01*
X152387Y404184D01*
X152321Y404163D01*
X152253Y404145D01*
X152185Y404132D01*
X152116Y404122D01*
X152047Y404116D01*
X151977Y404114D01*
X151878Y404116D01*
X151780Y404121D01*
X151682Y404131D01*
X151584Y404144D01*
X151487Y404160D01*
X151390Y404180D01*
X151295Y404204D01*
X151200Y404232D01*
X151106Y404263D01*
X151014Y404297D01*
X150923Y404335D01*
X150833Y404376D01*
X150745Y404421D01*
X150659Y404469D01*
X150575Y404520D01*
X150493Y404574D01*
X150412Y404632D01*
X150334Y404692D01*
X150259Y404755D01*
X150185Y404821D01*
X150115Y404890D01*
X150269Y408460D02*
X150271Y408530D01*
X150277Y408599D01*
X150287Y408668D01*
X150300Y408736D01*
X150318Y408804D01*
X150339Y408870D01*
X150364Y408935D01*
X150392Y408999D01*
X150424Y409061D01*
X150459Y409121D01*
X150498Y409179D01*
X150540Y409234D01*
X150585Y409288D01*
X150633Y409338D01*
X150683Y409386D01*
X150737Y409431D01*
X150792Y409473D01*
X150850Y409512D01*
X150910Y409547D01*
X150972Y409579D01*
X151036Y409607D01*
X151101Y409632D01*
X151167Y409653D01*
X151235Y409671D01*
X151303Y409684D01*
X151372Y409694D01*
X151441Y409700D01*
X151511Y409702D01*
X151605Y409700D01*
X151698Y409694D01*
X151791Y409685D01*
X151884Y409672D01*
X151976Y409655D01*
X152067Y409635D01*
X152158Y409610D01*
X152247Y409583D01*
X152335Y409551D01*
X152422Y409516D01*
X152508Y409478D01*
X152591Y409436D01*
X152673Y409391D01*
X152754Y409343D01*
X152832Y409291D01*
X152908Y409236D01*
X150890Y407374D02*
X150831Y407410D01*
X150775Y407450D01*
X150721Y407493D01*
X150669Y407538D01*
X150620Y407587D01*
X150574Y407638D01*
X150531Y407691D01*
X150490Y407747D01*
X150453Y407805D01*
X150418Y407865D01*
X150388Y407926D01*
X150360Y407989D01*
X150336Y408054D01*
X150316Y408120D01*
X150299Y408187D01*
X150286Y408254D01*
X150277Y408322D01*
X150271Y408391D01*
X150269Y408460D01*
X152597Y406442D02*
X152656Y406406D01*
X152712Y406366D01*
X152766Y406323D01*
X152818Y406278D01*
X152867Y406229D01*
X152913Y406178D01*
X152956Y406125D01*
X152997Y406069D01*
X153034Y406011D01*
X153069Y405951D01*
X153099Y405890D01*
X153127Y405827D01*
X153151Y405762D01*
X153171Y405696D01*
X153188Y405629D01*
X153201Y405562D01*
X153210Y405494D01*
X153216Y405425D01*
X153218Y405356D01*
X152598Y406442D02*
X150890Y407374D01*
X155218Y409702D02*
X156459Y404114D01*
X157701Y407839D01*
X158943Y404114D01*
X160185Y409702D01*
X162550Y409702D02*
X162550Y404114D01*
X162550Y409702D02*
X164102Y409702D01*
X164178Y409700D01*
X164254Y409695D01*
X164330Y409685D01*
X164405Y409672D01*
X164479Y409655D01*
X164553Y409635D01*
X164625Y409611D01*
X164696Y409584D01*
X164766Y409553D01*
X164834Y409519D01*
X164900Y409481D01*
X164964Y409440D01*
X165027Y409397D01*
X165087Y409350D01*
X165144Y409300D01*
X165199Y409247D01*
X165252Y409192D01*
X165302Y409135D01*
X165349Y409075D01*
X165392Y409012D01*
X165433Y408948D01*
X165471Y408882D01*
X165505Y408814D01*
X165536Y408744D01*
X165563Y408673D01*
X165587Y408600D01*
X165607Y408527D01*
X165624Y408453D01*
X165637Y408378D01*
X165647Y408302D01*
X165652Y408226D01*
X165654Y408150D01*
X165654Y405666D01*
X165652Y405587D01*
X165646Y405509D01*
X165636Y405431D01*
X165622Y405354D01*
X165604Y405277D01*
X165583Y405201D01*
X165557Y405127D01*
X165528Y405054D01*
X165495Y404983D01*
X165459Y404913D01*
X165419Y404845D01*
X165376Y404779D01*
X165329Y404716D01*
X165280Y404655D01*
X165227Y404597D01*
X165171Y404541D01*
X165113Y404488D01*
X165052Y404439D01*
X164989Y404392D01*
X164923Y404349D01*
X164855Y404309D01*
X164786Y404273D01*
X164714Y404240D01*
X164641Y404211D01*
X164567Y404185D01*
X164491Y404164D01*
X164414Y404146D01*
X164337Y404132D01*
X164259Y404122D01*
X164181Y404116D01*
X164102Y404114D01*
X162550Y404114D01*
X168674Y404114D02*
X168674Y409702D01*
X168053Y404114D02*
X169295Y404114D01*
X169295Y409702D02*
X168053Y409702D01*
X171511Y408150D02*
X171511Y405666D01*
X171511Y408150D02*
X171513Y408227D01*
X171519Y408305D01*
X171528Y408381D01*
X171542Y408458D01*
X171559Y408533D01*
X171580Y408607D01*
X171605Y408681D01*
X171633Y408753D01*
X171665Y408823D01*
X171700Y408892D01*
X171739Y408959D01*
X171781Y409024D01*
X171826Y409087D01*
X171874Y409148D01*
X171925Y409206D01*
X171979Y409261D01*
X172036Y409314D01*
X172095Y409363D01*
X172157Y409410D01*
X172221Y409454D01*
X172287Y409494D01*
X172355Y409531D01*
X172425Y409565D01*
X172496Y409595D01*
X172569Y409621D01*
X172643Y409644D01*
X172718Y409663D01*
X172793Y409678D01*
X172870Y409690D01*
X172947Y409698D01*
X173024Y409702D01*
X173102Y409702D01*
X173179Y409698D01*
X173256Y409690D01*
X173333Y409678D01*
X173408Y409663D01*
X173483Y409644D01*
X173557Y409621D01*
X173630Y409595D01*
X173701Y409565D01*
X173771Y409531D01*
X173839Y409494D01*
X173905Y409454D01*
X173969Y409410D01*
X174031Y409363D01*
X174090Y409314D01*
X174147Y409261D01*
X174201Y409206D01*
X174252Y409148D01*
X174300Y409087D01*
X174345Y409024D01*
X174387Y408959D01*
X174426Y408892D01*
X174461Y408823D01*
X174493Y408753D01*
X174521Y408681D01*
X174546Y408607D01*
X174567Y408533D01*
X174584Y408458D01*
X174598Y408381D01*
X174607Y408305D01*
X174613Y408227D01*
X174615Y408150D01*
X174615Y405666D01*
X174613Y405589D01*
X174607Y405511D01*
X174598Y405435D01*
X174584Y405358D01*
X174567Y405283D01*
X174546Y405209D01*
X174521Y405135D01*
X174493Y405063D01*
X174461Y404993D01*
X174426Y404924D01*
X174387Y404857D01*
X174345Y404792D01*
X174300Y404729D01*
X174252Y404668D01*
X174201Y404610D01*
X174147Y404555D01*
X174090Y404502D01*
X174031Y404453D01*
X173969Y404406D01*
X173905Y404362D01*
X173839Y404322D01*
X173771Y404285D01*
X173701Y404251D01*
X173630Y404221D01*
X173557Y404195D01*
X173483Y404172D01*
X173408Y404153D01*
X173333Y404138D01*
X173256Y404126D01*
X173179Y404118D01*
X173102Y404114D01*
X173024Y404114D01*
X172947Y404118D01*
X172870Y404126D01*
X172793Y404138D01*
X172718Y404153D01*
X172643Y404172D01*
X172569Y404195D01*
X172496Y404221D01*
X172425Y404251D01*
X172355Y404285D01*
X172287Y404322D01*
X172221Y404362D01*
X172157Y404406D01*
X172095Y404453D01*
X172036Y404502D01*
X171979Y404555D01*
X171925Y404610D01*
X171874Y404668D01*
X171826Y404729D01*
X171781Y404792D01*
X171739Y404857D01*
X171700Y404924D01*
X171665Y404993D01*
X171633Y405063D01*
X171605Y405135D01*
X171580Y405209D01*
X171559Y405283D01*
X171542Y405358D01*
X171528Y405435D01*
X171519Y405511D01*
X171513Y405589D01*
X171511Y405666D01*
X413597Y404114D02*
X413667Y404116D01*
X413736Y404122D01*
X413805Y404132D01*
X413873Y404145D01*
X413941Y404163D01*
X414007Y404184D01*
X414072Y404209D01*
X414136Y404237D01*
X414198Y404269D01*
X414258Y404304D01*
X414316Y404343D01*
X414371Y404385D01*
X414425Y404430D01*
X414475Y404478D01*
X414523Y404528D01*
X414568Y404582D01*
X414610Y404637D01*
X414649Y404695D01*
X414684Y404755D01*
X414716Y404817D01*
X414744Y404881D01*
X414769Y404946D01*
X414790Y405012D01*
X414808Y405080D01*
X414821Y405148D01*
X414831Y405217D01*
X414837Y405286D01*
X414839Y405356D01*
X413597Y404114D02*
X413498Y404116D01*
X413400Y404121D01*
X413302Y404131D01*
X413204Y404144D01*
X413107Y404160D01*
X413010Y404180D01*
X412915Y404204D01*
X412820Y404232D01*
X412726Y404263D01*
X412634Y404297D01*
X412543Y404335D01*
X412453Y404376D01*
X412365Y404421D01*
X412279Y404469D01*
X412195Y404520D01*
X412113Y404574D01*
X412032Y404632D01*
X411954Y404692D01*
X411879Y404755D01*
X411805Y404821D01*
X411735Y404890D01*
X411889Y408460D02*
X411891Y408530D01*
X411897Y408599D01*
X411907Y408668D01*
X411920Y408736D01*
X411938Y408804D01*
X411959Y408870D01*
X411984Y408935D01*
X412012Y408999D01*
X412044Y409061D01*
X412079Y409121D01*
X412118Y409179D01*
X412160Y409234D01*
X412205Y409288D01*
X412253Y409338D01*
X412303Y409386D01*
X412357Y409431D01*
X412412Y409473D01*
X412470Y409512D01*
X412530Y409547D01*
X412592Y409579D01*
X412656Y409607D01*
X412721Y409632D01*
X412787Y409653D01*
X412855Y409671D01*
X412923Y409684D01*
X412992Y409694D01*
X413061Y409700D01*
X413131Y409702D01*
X413225Y409700D01*
X413318Y409694D01*
X413411Y409685D01*
X413504Y409672D01*
X413596Y409655D01*
X413687Y409635D01*
X413778Y409610D01*
X413867Y409583D01*
X413955Y409551D01*
X414042Y409516D01*
X414128Y409478D01*
X414211Y409436D01*
X414293Y409391D01*
X414374Y409343D01*
X414452Y409291D01*
X414528Y409236D01*
X412510Y407374D02*
X412451Y407410D01*
X412395Y407450D01*
X412341Y407493D01*
X412289Y407538D01*
X412240Y407587D01*
X412194Y407638D01*
X412151Y407691D01*
X412110Y407747D01*
X412073Y407805D01*
X412038Y407865D01*
X412008Y407926D01*
X411980Y407989D01*
X411956Y408054D01*
X411936Y408120D01*
X411919Y408187D01*
X411906Y408254D01*
X411897Y408322D01*
X411891Y408391D01*
X411889Y408460D01*
X414217Y406442D02*
X414276Y406406D01*
X414332Y406366D01*
X414386Y406323D01*
X414438Y406278D01*
X414487Y406229D01*
X414533Y406178D01*
X414576Y406125D01*
X414617Y406069D01*
X414654Y406011D01*
X414689Y405951D01*
X414719Y405890D01*
X414747Y405827D01*
X414771Y405762D01*
X414791Y405696D01*
X414808Y405629D01*
X414821Y405562D01*
X414830Y405494D01*
X414836Y405425D01*
X414838Y405356D01*
X414218Y406442D02*
X412510Y407374D01*
X416838Y409702D02*
X418079Y404114D01*
X419321Y407839D01*
X420563Y404114D01*
X421805Y409702D01*
X424170Y409702D02*
X424170Y404114D01*
X424170Y409702D02*
X425722Y409702D01*
X425798Y409700D01*
X425874Y409695D01*
X425950Y409685D01*
X426025Y409672D01*
X426099Y409655D01*
X426173Y409635D01*
X426245Y409611D01*
X426316Y409584D01*
X426386Y409553D01*
X426454Y409519D01*
X426520Y409481D01*
X426584Y409440D01*
X426647Y409397D01*
X426707Y409350D01*
X426764Y409300D01*
X426819Y409247D01*
X426872Y409192D01*
X426922Y409135D01*
X426969Y409075D01*
X427012Y409012D01*
X427053Y408948D01*
X427091Y408882D01*
X427125Y408814D01*
X427156Y408744D01*
X427183Y408673D01*
X427207Y408600D01*
X427227Y408527D01*
X427244Y408453D01*
X427257Y408378D01*
X427267Y408302D01*
X427272Y408226D01*
X427274Y408150D01*
X427274Y405666D01*
X427272Y405587D01*
X427266Y405509D01*
X427256Y405431D01*
X427242Y405354D01*
X427224Y405277D01*
X427203Y405201D01*
X427177Y405127D01*
X427148Y405054D01*
X427115Y404983D01*
X427079Y404913D01*
X427039Y404845D01*
X426996Y404779D01*
X426949Y404716D01*
X426900Y404655D01*
X426847Y404597D01*
X426791Y404541D01*
X426733Y404488D01*
X426672Y404439D01*
X426609Y404392D01*
X426543Y404349D01*
X426475Y404309D01*
X426406Y404273D01*
X426334Y404240D01*
X426261Y404211D01*
X426187Y404185D01*
X426111Y404164D01*
X426034Y404146D01*
X425957Y404132D01*
X425879Y404122D01*
X425801Y404116D01*
X425722Y404114D01*
X424170Y404114D01*
X431065Y404114D02*
X432306Y404114D01*
X431065Y404114D02*
X430995Y404116D01*
X430926Y404122D01*
X430857Y404132D01*
X430789Y404145D01*
X430721Y404163D01*
X430655Y404184D01*
X430590Y404209D01*
X430526Y404237D01*
X430464Y404269D01*
X430404Y404304D01*
X430346Y404343D01*
X430291Y404385D01*
X430237Y404430D01*
X430187Y404478D01*
X430139Y404528D01*
X430094Y404582D01*
X430052Y404637D01*
X430013Y404695D01*
X429978Y404755D01*
X429946Y404817D01*
X429918Y404881D01*
X429893Y404946D01*
X429872Y405012D01*
X429854Y405080D01*
X429841Y405148D01*
X429831Y405217D01*
X429825Y405286D01*
X429823Y405356D01*
X429823Y408460D01*
X429825Y408530D01*
X429831Y408599D01*
X429841Y408668D01*
X429854Y408736D01*
X429872Y408804D01*
X429893Y408870D01*
X429918Y408935D01*
X429946Y408999D01*
X429978Y409061D01*
X430013Y409121D01*
X430052Y409179D01*
X430094Y409234D01*
X430139Y409288D01*
X430187Y409338D01*
X430237Y409386D01*
X430291Y409431D01*
X430346Y409473D01*
X430404Y409512D01*
X430464Y409547D01*
X430526Y409579D01*
X430590Y409607D01*
X430655Y409632D01*
X430721Y409653D01*
X430789Y409671D01*
X430857Y409684D01*
X430926Y409694D01*
X430995Y409700D01*
X431065Y409702D01*
X432306Y409702D01*
X434605Y409702D02*
X434605Y404114D01*
X437088Y404114D01*
X439432Y404114D02*
X439432Y409702D01*
X442536Y409702D02*
X439432Y406287D01*
X440673Y407529D02*
X442536Y404114D01*
X155759Y354556D02*
X155757Y354486D01*
X155751Y354417D01*
X155741Y354348D01*
X155728Y354280D01*
X155710Y354212D01*
X155689Y354146D01*
X155664Y354081D01*
X155636Y354017D01*
X155604Y353955D01*
X155569Y353895D01*
X155530Y353837D01*
X155488Y353782D01*
X155443Y353728D01*
X155395Y353678D01*
X155345Y353630D01*
X155291Y353585D01*
X155236Y353543D01*
X155178Y353504D01*
X155118Y353469D01*
X155056Y353437D01*
X154992Y353409D01*
X154927Y353384D01*
X154861Y353363D01*
X154793Y353345D01*
X154725Y353332D01*
X154656Y353322D01*
X154587Y353316D01*
X154517Y353314D01*
X154418Y353316D01*
X154320Y353321D01*
X154222Y353331D01*
X154124Y353344D01*
X154027Y353360D01*
X153930Y353380D01*
X153835Y353404D01*
X153740Y353432D01*
X153646Y353463D01*
X153554Y353497D01*
X153463Y353535D01*
X153373Y353576D01*
X153285Y353621D01*
X153199Y353669D01*
X153115Y353720D01*
X153033Y353774D01*
X152952Y353832D01*
X152874Y353892D01*
X152799Y353955D01*
X152725Y354021D01*
X152655Y354090D01*
X152809Y357660D02*
X152811Y357730D01*
X152817Y357799D01*
X152827Y357868D01*
X152840Y357936D01*
X152858Y358004D01*
X152879Y358070D01*
X152904Y358135D01*
X152932Y358199D01*
X152964Y358261D01*
X152999Y358321D01*
X153038Y358379D01*
X153080Y358434D01*
X153125Y358488D01*
X153173Y358538D01*
X153223Y358586D01*
X153277Y358631D01*
X153332Y358673D01*
X153390Y358712D01*
X153450Y358747D01*
X153512Y358779D01*
X153576Y358807D01*
X153641Y358832D01*
X153707Y358853D01*
X153775Y358871D01*
X153843Y358884D01*
X153912Y358894D01*
X153981Y358900D01*
X154051Y358902D01*
X154145Y358900D01*
X154238Y358894D01*
X154331Y358885D01*
X154424Y358872D01*
X154516Y358855D01*
X154607Y358835D01*
X154698Y358810D01*
X154787Y358783D01*
X154875Y358751D01*
X154962Y358716D01*
X155048Y358678D01*
X155131Y358636D01*
X155213Y358591D01*
X155294Y358543D01*
X155372Y358491D01*
X155448Y358436D01*
X153430Y356574D02*
X153371Y356610D01*
X153315Y356650D01*
X153261Y356693D01*
X153209Y356738D01*
X153160Y356787D01*
X153114Y356838D01*
X153071Y356891D01*
X153030Y356947D01*
X152993Y357005D01*
X152958Y357065D01*
X152928Y357126D01*
X152900Y357189D01*
X152876Y357254D01*
X152856Y357320D01*
X152839Y357387D01*
X152826Y357454D01*
X152817Y357522D01*
X152811Y357591D01*
X152809Y357660D01*
X155137Y355642D02*
X155196Y355606D01*
X155252Y355566D01*
X155306Y355523D01*
X155358Y355478D01*
X155407Y355429D01*
X155453Y355378D01*
X155496Y355325D01*
X155537Y355269D01*
X155574Y355211D01*
X155609Y355151D01*
X155639Y355090D01*
X155667Y355027D01*
X155691Y354962D01*
X155711Y354896D01*
X155728Y354829D01*
X155741Y354762D01*
X155750Y354694D01*
X155756Y354625D01*
X155758Y354556D01*
X155138Y355642D02*
X153430Y356574D01*
X157758Y358902D02*
X158999Y353314D01*
X160241Y357039D01*
X161483Y353314D01*
X162725Y358902D01*
X165090Y358902D02*
X165090Y353314D01*
X165090Y358902D02*
X166642Y358902D01*
X166718Y358900D01*
X166794Y358895D01*
X166870Y358885D01*
X166945Y358872D01*
X167019Y358855D01*
X167093Y358835D01*
X167165Y358811D01*
X167236Y358784D01*
X167306Y358753D01*
X167374Y358719D01*
X167440Y358681D01*
X167504Y358640D01*
X167567Y358597D01*
X167627Y358550D01*
X167684Y358500D01*
X167739Y358447D01*
X167792Y358392D01*
X167842Y358335D01*
X167889Y358275D01*
X167932Y358212D01*
X167973Y358148D01*
X168011Y358082D01*
X168045Y358014D01*
X168076Y357944D01*
X168103Y357873D01*
X168127Y357800D01*
X168147Y357727D01*
X168164Y357653D01*
X168177Y357578D01*
X168187Y357502D01*
X168192Y357426D01*
X168194Y357350D01*
X168194Y354866D01*
X168192Y354787D01*
X168186Y354709D01*
X168176Y354631D01*
X168162Y354554D01*
X168144Y354477D01*
X168123Y354401D01*
X168097Y354327D01*
X168068Y354254D01*
X168035Y354183D01*
X167999Y354113D01*
X167959Y354045D01*
X167916Y353979D01*
X167869Y353916D01*
X167820Y353855D01*
X167767Y353797D01*
X167711Y353741D01*
X167653Y353688D01*
X167592Y353639D01*
X167529Y353592D01*
X167463Y353549D01*
X167395Y353509D01*
X167326Y353473D01*
X167254Y353440D01*
X167181Y353411D01*
X167107Y353385D01*
X167031Y353364D01*
X166954Y353346D01*
X166877Y353332D01*
X166799Y353322D01*
X166721Y353316D01*
X166642Y353314D01*
X165090Y353314D01*
X171985Y353314D02*
X173226Y353314D01*
X171985Y353314D02*
X171915Y353316D01*
X171846Y353322D01*
X171777Y353332D01*
X171709Y353345D01*
X171641Y353363D01*
X171575Y353384D01*
X171510Y353409D01*
X171446Y353437D01*
X171384Y353469D01*
X171324Y353504D01*
X171266Y353543D01*
X171211Y353585D01*
X171157Y353630D01*
X171107Y353678D01*
X171059Y353728D01*
X171014Y353782D01*
X170972Y353837D01*
X170933Y353895D01*
X170898Y353955D01*
X170866Y354017D01*
X170838Y354081D01*
X170813Y354146D01*
X170792Y354212D01*
X170774Y354280D01*
X170761Y354348D01*
X170751Y354417D01*
X170745Y354486D01*
X170743Y354556D01*
X170743Y357660D01*
X170745Y357730D01*
X170751Y357799D01*
X170761Y357868D01*
X170774Y357936D01*
X170792Y358004D01*
X170813Y358070D01*
X170838Y358135D01*
X170866Y358199D01*
X170898Y358261D01*
X170933Y358321D01*
X170972Y358379D01*
X171014Y358434D01*
X171059Y358488D01*
X171107Y358538D01*
X171157Y358586D01*
X171211Y358631D01*
X171266Y358673D01*
X171324Y358712D01*
X171384Y358747D01*
X171446Y358779D01*
X171510Y358807D01*
X171575Y358832D01*
X171641Y358853D01*
X171709Y358871D01*
X171777Y358884D01*
X171846Y358894D01*
X171915Y358900D01*
X171985Y358902D01*
X173226Y358902D01*
X175525Y358902D02*
X175525Y353314D01*
X178008Y353314D01*
X180352Y353314D02*
X180352Y358902D01*
X183456Y358902D02*
X180352Y355487D01*
X181593Y356729D02*
X183456Y353314D01*
X228177Y429514D02*
X228247Y429516D01*
X228316Y429522D01*
X228385Y429532D01*
X228453Y429545D01*
X228521Y429563D01*
X228587Y429584D01*
X228652Y429609D01*
X228716Y429637D01*
X228778Y429669D01*
X228838Y429704D01*
X228896Y429743D01*
X228951Y429785D01*
X229005Y429830D01*
X229055Y429878D01*
X229103Y429928D01*
X229148Y429982D01*
X229190Y430037D01*
X229229Y430095D01*
X229264Y430155D01*
X229296Y430217D01*
X229324Y430281D01*
X229349Y430346D01*
X229370Y430412D01*
X229388Y430480D01*
X229401Y430548D01*
X229411Y430617D01*
X229417Y430686D01*
X229419Y430756D01*
X228177Y429514D02*
X228078Y429516D01*
X227980Y429521D01*
X227882Y429531D01*
X227784Y429544D01*
X227687Y429560D01*
X227590Y429580D01*
X227495Y429604D01*
X227400Y429632D01*
X227306Y429663D01*
X227214Y429697D01*
X227123Y429735D01*
X227033Y429776D01*
X226945Y429821D01*
X226859Y429869D01*
X226775Y429920D01*
X226693Y429974D01*
X226612Y430032D01*
X226534Y430092D01*
X226459Y430155D01*
X226385Y430221D01*
X226315Y430290D01*
X226469Y433860D02*
X226471Y433930D01*
X226477Y433999D01*
X226487Y434068D01*
X226500Y434136D01*
X226518Y434204D01*
X226539Y434270D01*
X226564Y434335D01*
X226592Y434399D01*
X226624Y434461D01*
X226659Y434521D01*
X226698Y434579D01*
X226740Y434634D01*
X226785Y434688D01*
X226833Y434738D01*
X226883Y434786D01*
X226937Y434831D01*
X226992Y434873D01*
X227050Y434912D01*
X227110Y434947D01*
X227172Y434979D01*
X227236Y435007D01*
X227301Y435032D01*
X227367Y435053D01*
X227435Y435071D01*
X227503Y435084D01*
X227572Y435094D01*
X227641Y435100D01*
X227711Y435102D01*
X227805Y435100D01*
X227898Y435094D01*
X227991Y435085D01*
X228084Y435072D01*
X228176Y435055D01*
X228267Y435035D01*
X228358Y435010D01*
X228447Y434983D01*
X228535Y434951D01*
X228622Y434916D01*
X228708Y434878D01*
X228791Y434836D01*
X228873Y434791D01*
X228954Y434743D01*
X229032Y434691D01*
X229108Y434636D01*
X227090Y432774D02*
X227031Y432810D01*
X226975Y432850D01*
X226921Y432893D01*
X226869Y432938D01*
X226820Y432987D01*
X226774Y433038D01*
X226731Y433091D01*
X226690Y433147D01*
X226653Y433205D01*
X226618Y433265D01*
X226588Y433326D01*
X226560Y433389D01*
X226536Y433454D01*
X226516Y433520D01*
X226499Y433587D01*
X226486Y433654D01*
X226477Y433722D01*
X226471Y433791D01*
X226469Y433860D01*
X228797Y431842D02*
X228856Y431806D01*
X228912Y431766D01*
X228966Y431723D01*
X229018Y431678D01*
X229067Y431629D01*
X229113Y431578D01*
X229156Y431525D01*
X229197Y431469D01*
X229234Y431411D01*
X229269Y431351D01*
X229299Y431290D01*
X229327Y431227D01*
X229351Y431162D01*
X229371Y431096D01*
X229388Y431029D01*
X229401Y430962D01*
X229410Y430894D01*
X229416Y430825D01*
X229418Y430756D01*
X228798Y431842D02*
X227090Y432774D01*
X231418Y435102D02*
X232659Y429514D01*
X233901Y433239D01*
X235143Y429514D01*
X236385Y435102D01*
X238750Y435102D02*
X238750Y429514D01*
X238750Y435102D02*
X240302Y435102D01*
X240378Y435100D01*
X240454Y435095D01*
X240530Y435085D01*
X240605Y435072D01*
X240679Y435055D01*
X240753Y435035D01*
X240825Y435011D01*
X240896Y434984D01*
X240966Y434953D01*
X241034Y434919D01*
X241100Y434881D01*
X241164Y434840D01*
X241227Y434797D01*
X241287Y434750D01*
X241344Y434700D01*
X241399Y434647D01*
X241452Y434592D01*
X241502Y434535D01*
X241549Y434475D01*
X241592Y434412D01*
X241633Y434348D01*
X241671Y434282D01*
X241705Y434214D01*
X241736Y434144D01*
X241763Y434073D01*
X241787Y434000D01*
X241807Y433927D01*
X241824Y433853D01*
X241837Y433778D01*
X241847Y433702D01*
X241852Y433626D01*
X241854Y433550D01*
X241854Y431066D01*
X241852Y430987D01*
X241846Y430909D01*
X241836Y430831D01*
X241822Y430754D01*
X241804Y430677D01*
X241783Y430601D01*
X241757Y430527D01*
X241728Y430454D01*
X241695Y430383D01*
X241659Y430313D01*
X241619Y430245D01*
X241576Y430179D01*
X241529Y430116D01*
X241480Y430055D01*
X241427Y429997D01*
X241371Y429941D01*
X241313Y429888D01*
X241252Y429839D01*
X241189Y429792D01*
X241123Y429749D01*
X241055Y429709D01*
X240986Y429673D01*
X240914Y429640D01*
X240841Y429611D01*
X240767Y429585D01*
X240691Y429564D01*
X240614Y429546D01*
X240537Y429532D01*
X240459Y429522D01*
X240381Y429516D01*
X240302Y429514D01*
X238750Y429514D01*
X244874Y429514D02*
X244874Y435102D01*
X244253Y429514D02*
X245495Y429514D01*
X245495Y435102D02*
X244253Y435102D01*
X247711Y433550D02*
X247711Y431066D01*
X247711Y433550D02*
X247713Y433627D01*
X247719Y433705D01*
X247728Y433781D01*
X247742Y433858D01*
X247759Y433933D01*
X247780Y434007D01*
X247805Y434081D01*
X247833Y434153D01*
X247865Y434223D01*
X247900Y434292D01*
X247939Y434359D01*
X247981Y434424D01*
X248026Y434487D01*
X248074Y434548D01*
X248125Y434606D01*
X248179Y434661D01*
X248236Y434714D01*
X248295Y434763D01*
X248357Y434810D01*
X248421Y434854D01*
X248487Y434894D01*
X248555Y434931D01*
X248625Y434965D01*
X248696Y434995D01*
X248769Y435021D01*
X248843Y435044D01*
X248918Y435063D01*
X248993Y435078D01*
X249070Y435090D01*
X249147Y435098D01*
X249224Y435102D01*
X249302Y435102D01*
X249379Y435098D01*
X249456Y435090D01*
X249533Y435078D01*
X249608Y435063D01*
X249683Y435044D01*
X249757Y435021D01*
X249830Y434995D01*
X249901Y434965D01*
X249971Y434931D01*
X250039Y434894D01*
X250105Y434854D01*
X250169Y434810D01*
X250231Y434763D01*
X250290Y434714D01*
X250347Y434661D01*
X250401Y434606D01*
X250452Y434548D01*
X250500Y434487D01*
X250545Y434424D01*
X250587Y434359D01*
X250626Y434292D01*
X250661Y434223D01*
X250693Y434153D01*
X250721Y434081D01*
X250746Y434007D01*
X250767Y433933D01*
X250784Y433858D01*
X250798Y433781D01*
X250807Y433705D01*
X250813Y433627D01*
X250815Y433550D01*
X250815Y431066D01*
X250813Y430989D01*
X250807Y430911D01*
X250798Y430835D01*
X250784Y430758D01*
X250767Y430683D01*
X250746Y430609D01*
X250721Y430535D01*
X250693Y430463D01*
X250661Y430393D01*
X250626Y430324D01*
X250587Y430257D01*
X250545Y430192D01*
X250500Y430129D01*
X250452Y430068D01*
X250401Y430010D01*
X250347Y429955D01*
X250290Y429902D01*
X250231Y429853D01*
X250169Y429806D01*
X250105Y429762D01*
X250039Y429722D01*
X249971Y429685D01*
X249901Y429651D01*
X249830Y429621D01*
X249757Y429595D01*
X249683Y429572D01*
X249608Y429553D01*
X249533Y429538D01*
X249456Y429526D01*
X249379Y429518D01*
X249302Y429514D01*
X249224Y429514D01*
X249147Y429518D01*
X249070Y429526D01*
X248993Y429538D01*
X248918Y429553D01*
X248843Y429572D01*
X248769Y429595D01*
X248696Y429621D01*
X248625Y429651D01*
X248555Y429685D01*
X248487Y429722D01*
X248421Y429762D01*
X248357Y429806D01*
X248295Y429853D01*
X248236Y429902D01*
X248179Y429955D01*
X248125Y430010D01*
X248074Y430068D01*
X248026Y430129D01*
X247981Y430192D01*
X247939Y430257D01*
X247900Y430324D01*
X247865Y430393D01*
X247833Y430463D01*
X247805Y430535D01*
X247780Y430609D01*
X247759Y430683D01*
X247742Y430758D01*
X247728Y430835D01*
X247719Y430911D01*
X247713Y430989D01*
X247711Y431066D01*
X231394Y333502D02*
X231394Y327914D01*
X231394Y333502D02*
X232946Y333502D01*
X233023Y333500D01*
X233101Y333494D01*
X233177Y333485D01*
X233254Y333471D01*
X233329Y333454D01*
X233403Y333433D01*
X233477Y333408D01*
X233549Y333380D01*
X233619Y333348D01*
X233688Y333313D01*
X233755Y333274D01*
X233820Y333232D01*
X233883Y333187D01*
X233944Y333139D01*
X234002Y333088D01*
X234057Y333034D01*
X234110Y332977D01*
X234159Y332918D01*
X234206Y332856D01*
X234250Y332792D01*
X234290Y332726D01*
X234327Y332658D01*
X234361Y332588D01*
X234391Y332517D01*
X234417Y332444D01*
X234440Y332370D01*
X234459Y332295D01*
X234474Y332220D01*
X234486Y332143D01*
X234494Y332066D01*
X234498Y331989D01*
X234498Y331911D01*
X234494Y331834D01*
X234486Y331757D01*
X234474Y331680D01*
X234459Y331605D01*
X234440Y331530D01*
X234417Y331456D01*
X234391Y331383D01*
X234361Y331312D01*
X234327Y331242D01*
X234290Y331174D01*
X234250Y331108D01*
X234206Y331044D01*
X234159Y330982D01*
X234110Y330923D01*
X234057Y330866D01*
X234002Y330812D01*
X233944Y330761D01*
X233883Y330713D01*
X233820Y330668D01*
X233755Y330626D01*
X233688Y330587D01*
X233619Y330552D01*
X233549Y330520D01*
X233477Y330492D01*
X233403Y330467D01*
X233329Y330446D01*
X233254Y330429D01*
X233177Y330415D01*
X233101Y330406D01*
X233023Y330400D01*
X232946Y330398D01*
X231394Y330398D01*
X233257Y330398D02*
X234498Y327914D01*
X237720Y327914D02*
X239273Y327914D01*
X237720Y327914D02*
X237662Y327916D01*
X237603Y327921D01*
X237546Y327930D01*
X237488Y327943D01*
X237432Y327960D01*
X237377Y327979D01*
X237324Y328003D01*
X237271Y328029D01*
X237221Y328059D01*
X237173Y328092D01*
X237127Y328128D01*
X237083Y328166D01*
X237041Y328208D01*
X237003Y328252D01*
X236967Y328298D01*
X236934Y328346D01*
X236904Y328396D01*
X236878Y328449D01*
X236854Y328502D01*
X236835Y328557D01*
X236818Y328613D01*
X236805Y328671D01*
X236796Y328728D01*
X236791Y328787D01*
X236789Y328845D01*
X236789Y330398D01*
X236791Y330468D01*
X236797Y330537D01*
X236807Y330606D01*
X236820Y330674D01*
X236838Y330742D01*
X236859Y330808D01*
X236884Y330873D01*
X236912Y330937D01*
X236944Y330999D01*
X236979Y331059D01*
X237018Y331117D01*
X237060Y331172D01*
X237105Y331226D01*
X237153Y331276D01*
X237203Y331324D01*
X237257Y331369D01*
X237312Y331411D01*
X237370Y331450D01*
X237430Y331485D01*
X237492Y331517D01*
X237556Y331545D01*
X237621Y331570D01*
X237687Y331591D01*
X237755Y331609D01*
X237823Y331622D01*
X237892Y331632D01*
X237961Y331638D01*
X238031Y331640D01*
X238101Y331638D01*
X238170Y331632D01*
X238239Y331622D01*
X238307Y331609D01*
X238375Y331591D01*
X238441Y331570D01*
X238506Y331545D01*
X238570Y331517D01*
X238632Y331485D01*
X238692Y331450D01*
X238750Y331411D01*
X238805Y331369D01*
X238859Y331324D01*
X238909Y331276D01*
X238957Y331226D01*
X239002Y331172D01*
X239044Y331117D01*
X239083Y331059D01*
X239118Y330999D01*
X239150Y330937D01*
X239178Y330873D01*
X239203Y330808D01*
X239224Y330742D01*
X239242Y330674D01*
X239255Y330606D01*
X239265Y330537D01*
X239271Y330468D01*
X239273Y330398D01*
X239273Y329777D01*
X236789Y329777D01*
X242009Y330087D02*
X243562Y329466D01*
X242009Y330087D02*
X241958Y330109D01*
X241909Y330135D01*
X241861Y330164D01*
X241816Y330197D01*
X241773Y330233D01*
X241732Y330271D01*
X241695Y330313D01*
X241660Y330356D01*
X241628Y330402D01*
X241600Y330451D01*
X241575Y330501D01*
X241554Y330552D01*
X241536Y330605D01*
X241522Y330659D01*
X241512Y330714D01*
X241506Y330770D01*
X241503Y330825D01*
X241504Y330881D01*
X241510Y330937D01*
X241519Y330992D01*
X241531Y331046D01*
X241548Y331100D01*
X241568Y331152D01*
X241592Y331202D01*
X241619Y331251D01*
X241650Y331298D01*
X241684Y331342D01*
X241720Y331384D01*
X241760Y331424D01*
X241802Y331460D01*
X241847Y331494D01*
X241894Y331524D01*
X241942Y331551D01*
X241993Y331575D01*
X242045Y331595D01*
X242099Y331611D01*
X242153Y331624D01*
X242208Y331633D01*
X242264Y331638D01*
X242320Y331639D01*
X242320Y331640D02*
X242431Y331636D01*
X242542Y331630D01*
X242652Y331619D01*
X242762Y331605D01*
X242872Y331588D01*
X242981Y331568D01*
X243089Y331544D01*
X243196Y331516D01*
X243303Y331485D01*
X243408Y331451D01*
X243513Y331414D01*
X243616Y331373D01*
X243718Y331329D01*
X243562Y329466D02*
X243613Y329444D01*
X243662Y329418D01*
X243710Y329389D01*
X243755Y329356D01*
X243798Y329320D01*
X243839Y329282D01*
X243876Y329240D01*
X243911Y329197D01*
X243943Y329151D01*
X243971Y329102D01*
X243996Y329052D01*
X244017Y329001D01*
X244035Y328948D01*
X244049Y328894D01*
X244059Y328839D01*
X244065Y328783D01*
X244068Y328728D01*
X244067Y328672D01*
X244061Y328616D01*
X244052Y328561D01*
X244040Y328507D01*
X244023Y328453D01*
X244003Y328401D01*
X243979Y328351D01*
X243952Y328302D01*
X243921Y328255D01*
X243887Y328211D01*
X243851Y328169D01*
X243811Y328129D01*
X243769Y328093D01*
X243724Y328059D01*
X243677Y328029D01*
X243629Y328002D01*
X243578Y327978D01*
X243526Y327958D01*
X243472Y327942D01*
X243418Y327929D01*
X243363Y327920D01*
X243307Y327915D01*
X243251Y327914D01*
X243117Y327917D01*
X242983Y327924D01*
X242849Y327935D01*
X242716Y327948D01*
X242583Y327966D01*
X242450Y327986D01*
X242318Y328010D01*
X242187Y328038D01*
X242056Y328068D01*
X241927Y328102D01*
X241798Y328140D01*
X241670Y328180D01*
X241543Y328224D01*
X247230Y327914D02*
X248782Y327914D01*
X247230Y327914D02*
X247172Y327916D01*
X247113Y327921D01*
X247056Y327930D01*
X246998Y327943D01*
X246942Y327960D01*
X246887Y327979D01*
X246834Y328003D01*
X246781Y328029D01*
X246731Y328059D01*
X246683Y328092D01*
X246637Y328128D01*
X246593Y328166D01*
X246551Y328208D01*
X246513Y328252D01*
X246477Y328298D01*
X246444Y328346D01*
X246414Y328396D01*
X246388Y328449D01*
X246364Y328502D01*
X246345Y328557D01*
X246328Y328613D01*
X246315Y328671D01*
X246306Y328728D01*
X246301Y328787D01*
X246299Y328845D01*
X246299Y330398D01*
X246298Y330398D02*
X246300Y330468D01*
X246306Y330537D01*
X246316Y330606D01*
X246329Y330674D01*
X246347Y330742D01*
X246368Y330808D01*
X246393Y330873D01*
X246421Y330937D01*
X246453Y330999D01*
X246488Y331059D01*
X246527Y331117D01*
X246569Y331172D01*
X246614Y331226D01*
X246662Y331276D01*
X246712Y331324D01*
X246766Y331369D01*
X246821Y331411D01*
X246879Y331450D01*
X246939Y331485D01*
X247001Y331517D01*
X247065Y331545D01*
X247130Y331570D01*
X247196Y331591D01*
X247264Y331609D01*
X247332Y331622D01*
X247401Y331632D01*
X247470Y331638D01*
X247540Y331640D01*
X247610Y331638D01*
X247679Y331632D01*
X247748Y331622D01*
X247816Y331609D01*
X247884Y331591D01*
X247950Y331570D01*
X248015Y331545D01*
X248079Y331517D01*
X248141Y331485D01*
X248201Y331450D01*
X248259Y331411D01*
X248314Y331369D01*
X248368Y331324D01*
X248418Y331276D01*
X248466Y331226D01*
X248511Y331172D01*
X248553Y331117D01*
X248592Y331059D01*
X248627Y330999D01*
X248659Y330937D01*
X248687Y330873D01*
X248712Y330808D01*
X248733Y330742D01*
X248751Y330674D01*
X248764Y330606D01*
X248774Y330537D01*
X248780Y330468D01*
X248782Y330398D01*
X248782Y329777D01*
X246299Y329777D01*
X250587Y331639D02*
X252450Y331639D01*
X251208Y333502D02*
X251208Y328845D01*
X251210Y328787D01*
X251215Y328728D01*
X251224Y328671D01*
X251237Y328613D01*
X251254Y328557D01*
X251273Y328502D01*
X251297Y328449D01*
X251323Y328396D01*
X251353Y328346D01*
X251386Y328298D01*
X251422Y328252D01*
X251460Y328208D01*
X251502Y328166D01*
X251546Y328128D01*
X251592Y328092D01*
X251640Y328059D01*
X251691Y328029D01*
X251743Y328003D01*
X251796Y327979D01*
X251851Y327960D01*
X251907Y327943D01*
X251965Y327930D01*
X252022Y327921D01*
X252081Y327916D01*
X252139Y327914D01*
X252450Y327914D01*
X235797Y505714D02*
X233934Y511302D01*
X237659Y511302D02*
X235797Y505714D01*
X240956Y505714D02*
X242198Y505714D01*
X240956Y505714D02*
X240886Y505716D01*
X240817Y505722D01*
X240748Y505732D01*
X240680Y505745D01*
X240612Y505763D01*
X240546Y505784D01*
X240481Y505809D01*
X240417Y505837D01*
X240355Y505869D01*
X240295Y505904D01*
X240237Y505943D01*
X240182Y505985D01*
X240128Y506030D01*
X240078Y506078D01*
X240030Y506128D01*
X239985Y506182D01*
X239943Y506237D01*
X239904Y506295D01*
X239869Y506355D01*
X239837Y506417D01*
X239809Y506481D01*
X239784Y506546D01*
X239763Y506612D01*
X239745Y506680D01*
X239732Y506748D01*
X239722Y506817D01*
X239716Y506886D01*
X239714Y506956D01*
X239715Y506956D02*
X239715Y510060D01*
X239714Y510060D02*
X239716Y510130D01*
X239722Y510199D01*
X239732Y510268D01*
X239745Y510336D01*
X239763Y510404D01*
X239784Y510470D01*
X239809Y510535D01*
X239837Y510599D01*
X239869Y510661D01*
X239904Y510721D01*
X239943Y510779D01*
X239985Y510834D01*
X240030Y510888D01*
X240078Y510938D01*
X240128Y510986D01*
X240182Y511031D01*
X240237Y511073D01*
X240295Y511112D01*
X240355Y511147D01*
X240417Y511179D01*
X240481Y511207D01*
X240546Y511232D01*
X240612Y511253D01*
X240680Y511271D01*
X240748Y511284D01*
X240817Y511294D01*
X240886Y511300D01*
X240956Y511302D01*
X242198Y511302D01*
X245528Y505714D02*
X246770Y505714D01*
X245528Y505714D02*
X245458Y505716D01*
X245389Y505722D01*
X245320Y505732D01*
X245252Y505745D01*
X245184Y505763D01*
X245118Y505784D01*
X245053Y505809D01*
X244989Y505837D01*
X244927Y505869D01*
X244867Y505904D01*
X244809Y505943D01*
X244754Y505985D01*
X244700Y506030D01*
X244650Y506078D01*
X244602Y506128D01*
X244557Y506182D01*
X244515Y506237D01*
X244476Y506295D01*
X244441Y506355D01*
X244409Y506417D01*
X244381Y506481D01*
X244356Y506546D01*
X244335Y506612D01*
X244317Y506680D01*
X244304Y506748D01*
X244294Y506817D01*
X244288Y506886D01*
X244286Y506956D01*
X244286Y510060D01*
X244288Y510130D01*
X244294Y510199D01*
X244304Y510268D01*
X244317Y510336D01*
X244335Y510404D01*
X244356Y510470D01*
X244381Y510535D01*
X244409Y510599D01*
X244441Y510661D01*
X244476Y510721D01*
X244515Y510779D01*
X244557Y510834D01*
X244602Y510888D01*
X244650Y510938D01*
X244700Y510986D01*
X244754Y511031D01*
X244809Y511073D01*
X244867Y511112D01*
X244927Y511147D01*
X244989Y511179D01*
X245053Y511207D01*
X245118Y511232D01*
X245184Y511253D01*
X245252Y511271D01*
X245320Y511284D01*
X245389Y511294D01*
X245458Y511300D01*
X245528Y511302D01*
X246770Y511302D01*
X221799Y402816D02*
X221797Y402746D01*
X221791Y402677D01*
X221781Y402608D01*
X221768Y402540D01*
X221750Y402472D01*
X221729Y402406D01*
X221704Y402341D01*
X221676Y402277D01*
X221644Y402215D01*
X221609Y402155D01*
X221570Y402097D01*
X221528Y402042D01*
X221483Y401988D01*
X221435Y401938D01*
X221385Y401890D01*
X221331Y401845D01*
X221276Y401803D01*
X221218Y401764D01*
X221158Y401729D01*
X221096Y401697D01*
X221032Y401669D01*
X220967Y401644D01*
X220901Y401623D01*
X220833Y401605D01*
X220765Y401592D01*
X220696Y401582D01*
X220627Y401576D01*
X220557Y401574D01*
X220458Y401576D01*
X220360Y401581D01*
X220262Y401591D01*
X220164Y401604D01*
X220067Y401620D01*
X219970Y401640D01*
X219875Y401664D01*
X219780Y401692D01*
X219686Y401723D01*
X219594Y401757D01*
X219503Y401795D01*
X219413Y401836D01*
X219325Y401881D01*
X219239Y401929D01*
X219155Y401980D01*
X219073Y402034D01*
X218992Y402092D01*
X218914Y402152D01*
X218839Y402215D01*
X218765Y402281D01*
X218695Y402350D01*
X218849Y405920D02*
X218851Y405990D01*
X218857Y406059D01*
X218867Y406128D01*
X218880Y406196D01*
X218898Y406264D01*
X218919Y406330D01*
X218944Y406395D01*
X218972Y406459D01*
X219004Y406521D01*
X219039Y406581D01*
X219078Y406639D01*
X219120Y406694D01*
X219165Y406748D01*
X219213Y406798D01*
X219263Y406846D01*
X219317Y406891D01*
X219372Y406933D01*
X219430Y406972D01*
X219490Y407007D01*
X219552Y407039D01*
X219616Y407067D01*
X219681Y407092D01*
X219747Y407113D01*
X219815Y407131D01*
X219883Y407144D01*
X219952Y407154D01*
X220021Y407160D01*
X220091Y407162D01*
X220185Y407160D01*
X220278Y407154D01*
X220371Y407145D01*
X220464Y407132D01*
X220556Y407115D01*
X220647Y407095D01*
X220738Y407070D01*
X220827Y407043D01*
X220915Y407011D01*
X221002Y406976D01*
X221088Y406938D01*
X221171Y406896D01*
X221253Y406851D01*
X221334Y406803D01*
X221412Y406751D01*
X221488Y406696D01*
X219470Y404834D02*
X219411Y404870D01*
X219355Y404910D01*
X219301Y404953D01*
X219249Y404998D01*
X219200Y405047D01*
X219154Y405098D01*
X219111Y405151D01*
X219070Y405207D01*
X219033Y405265D01*
X218998Y405325D01*
X218968Y405386D01*
X218940Y405449D01*
X218916Y405514D01*
X218896Y405580D01*
X218879Y405647D01*
X218866Y405714D01*
X218857Y405782D01*
X218851Y405851D01*
X218849Y405920D01*
X221177Y403902D02*
X221236Y403866D01*
X221292Y403826D01*
X221346Y403783D01*
X221398Y403738D01*
X221447Y403689D01*
X221493Y403638D01*
X221536Y403585D01*
X221577Y403529D01*
X221614Y403471D01*
X221649Y403411D01*
X221679Y403350D01*
X221707Y403287D01*
X221731Y403222D01*
X221751Y403156D01*
X221768Y403089D01*
X221781Y403022D01*
X221790Y402954D01*
X221796Y402885D01*
X221798Y402816D01*
X221178Y403902D02*
X219470Y404834D01*
X223798Y407162D02*
X225039Y401574D01*
X226281Y405299D01*
X227523Y401574D01*
X228765Y407162D01*
X231130Y407162D02*
X231130Y401574D01*
X231130Y407162D02*
X232682Y407162D01*
X232758Y407160D01*
X232834Y407155D01*
X232910Y407145D01*
X232985Y407132D01*
X233059Y407115D01*
X233133Y407095D01*
X233205Y407071D01*
X233276Y407044D01*
X233346Y407013D01*
X233414Y406979D01*
X233480Y406941D01*
X233544Y406900D01*
X233607Y406857D01*
X233667Y406810D01*
X233724Y406760D01*
X233779Y406707D01*
X233832Y406652D01*
X233882Y406595D01*
X233929Y406535D01*
X233972Y406472D01*
X234013Y406408D01*
X234051Y406342D01*
X234085Y406274D01*
X234116Y406204D01*
X234143Y406133D01*
X234167Y406060D01*
X234187Y405987D01*
X234204Y405913D01*
X234217Y405838D01*
X234227Y405762D01*
X234232Y405686D01*
X234234Y405610D01*
X234234Y403126D01*
X234232Y403047D01*
X234226Y402969D01*
X234216Y402891D01*
X234202Y402814D01*
X234184Y402737D01*
X234163Y402661D01*
X234137Y402587D01*
X234108Y402514D01*
X234075Y402443D01*
X234039Y402373D01*
X233999Y402305D01*
X233956Y402239D01*
X233909Y402176D01*
X233860Y402115D01*
X233807Y402057D01*
X233751Y402001D01*
X233693Y401948D01*
X233632Y401899D01*
X233569Y401852D01*
X233503Y401809D01*
X233435Y401769D01*
X233366Y401733D01*
X233294Y401700D01*
X233221Y401671D01*
X233147Y401645D01*
X233071Y401624D01*
X232994Y401606D01*
X232917Y401592D01*
X232839Y401582D01*
X232761Y401576D01*
X232682Y401574D01*
X231130Y401574D01*
X238025Y401574D02*
X239266Y401574D01*
X238025Y401574D02*
X237955Y401576D01*
X237886Y401582D01*
X237817Y401592D01*
X237749Y401605D01*
X237681Y401623D01*
X237615Y401644D01*
X237550Y401669D01*
X237486Y401697D01*
X237424Y401729D01*
X237364Y401764D01*
X237306Y401803D01*
X237251Y401845D01*
X237197Y401890D01*
X237147Y401938D01*
X237099Y401988D01*
X237054Y402042D01*
X237012Y402097D01*
X236973Y402155D01*
X236938Y402215D01*
X236906Y402277D01*
X236878Y402341D01*
X236853Y402406D01*
X236832Y402472D01*
X236814Y402540D01*
X236801Y402608D01*
X236791Y402677D01*
X236785Y402746D01*
X236783Y402816D01*
X236783Y405920D01*
X236785Y405990D01*
X236791Y406059D01*
X236801Y406128D01*
X236814Y406196D01*
X236832Y406264D01*
X236853Y406330D01*
X236878Y406395D01*
X236906Y406459D01*
X236938Y406521D01*
X236973Y406581D01*
X237012Y406639D01*
X237054Y406694D01*
X237099Y406748D01*
X237147Y406798D01*
X237197Y406846D01*
X237251Y406891D01*
X237306Y406933D01*
X237364Y406972D01*
X237424Y407007D01*
X237486Y407039D01*
X237550Y407067D01*
X237615Y407092D01*
X237681Y407113D01*
X237749Y407131D01*
X237817Y407144D01*
X237886Y407154D01*
X237955Y407160D01*
X238025Y407162D01*
X239266Y407162D01*
X241565Y407162D02*
X241565Y401574D01*
X244048Y401574D01*
X246392Y401574D02*
X246392Y407162D01*
X249496Y407162D02*
X246392Y403747D01*
X247633Y404989D02*
X249496Y401574D01*
X518047Y305618D02*
X518978Y305618D01*
X518978Y302514D01*
X517116Y302514D01*
X517046Y302516D01*
X516977Y302522D01*
X516908Y302532D01*
X516840Y302545D01*
X516772Y302563D01*
X516706Y302584D01*
X516641Y302609D01*
X516577Y302637D01*
X516515Y302669D01*
X516455Y302704D01*
X516397Y302743D01*
X516342Y302785D01*
X516288Y302830D01*
X516238Y302878D01*
X516190Y302928D01*
X516145Y302982D01*
X516103Y303037D01*
X516064Y303095D01*
X516029Y303155D01*
X515997Y303217D01*
X515969Y303281D01*
X515944Y303346D01*
X515923Y303412D01*
X515905Y303480D01*
X515892Y303548D01*
X515882Y303617D01*
X515876Y303686D01*
X515874Y303756D01*
X515874Y306860D01*
X515876Y306930D01*
X515882Y306999D01*
X515892Y307068D01*
X515905Y307136D01*
X515923Y307204D01*
X515944Y307270D01*
X515969Y307335D01*
X515997Y307399D01*
X516029Y307461D01*
X516064Y307521D01*
X516103Y307579D01*
X516145Y307634D01*
X516190Y307688D01*
X516238Y307738D01*
X516288Y307786D01*
X516342Y307831D01*
X516397Y307873D01*
X516455Y307912D01*
X516515Y307947D01*
X516577Y307979D01*
X516641Y308007D01*
X516706Y308032D01*
X516772Y308053D01*
X516840Y308071D01*
X516908Y308084D01*
X516977Y308094D01*
X517046Y308100D01*
X517116Y308102D01*
X518978Y308102D01*
X521726Y308102D02*
X521726Y302514D01*
X524831Y302514D02*
X521726Y308102D01*
X524831Y308102D02*
X524831Y302514D01*
X527578Y302514D02*
X527578Y308102D01*
X529130Y308102D01*
X529206Y308100D01*
X529282Y308095D01*
X529358Y308085D01*
X529433Y308072D01*
X529507Y308055D01*
X529581Y308035D01*
X529653Y308011D01*
X529724Y307984D01*
X529794Y307953D01*
X529862Y307919D01*
X529928Y307881D01*
X529992Y307840D01*
X530055Y307797D01*
X530115Y307750D01*
X530172Y307700D01*
X530227Y307647D01*
X530280Y307592D01*
X530330Y307535D01*
X530377Y307475D01*
X530420Y307412D01*
X530461Y307348D01*
X530499Y307282D01*
X530533Y307214D01*
X530564Y307144D01*
X530591Y307073D01*
X530615Y307000D01*
X530635Y306927D01*
X530652Y306853D01*
X530665Y306778D01*
X530675Y306702D01*
X530680Y306626D01*
X530682Y306550D01*
X530683Y306550D02*
X530683Y304066D01*
X530682Y304066D02*
X530680Y303987D01*
X530674Y303909D01*
X530664Y303831D01*
X530650Y303754D01*
X530632Y303677D01*
X530611Y303601D01*
X530585Y303527D01*
X530556Y303454D01*
X530523Y303383D01*
X530487Y303313D01*
X530447Y303245D01*
X530404Y303179D01*
X530357Y303116D01*
X530308Y303055D01*
X530255Y302997D01*
X530199Y302941D01*
X530141Y302888D01*
X530080Y302839D01*
X530017Y302792D01*
X529951Y302749D01*
X529883Y302709D01*
X529814Y302673D01*
X529742Y302640D01*
X529669Y302611D01*
X529595Y302585D01*
X529519Y302564D01*
X529442Y302546D01*
X529365Y302532D01*
X529287Y302522D01*
X529209Y302516D01*
X529130Y302514D01*
X527578Y302514D01*
X518978Y331018D02*
X518047Y331018D01*
X518978Y331018D02*
X518978Y327914D01*
X517116Y327914D01*
X517046Y327916D01*
X516977Y327922D01*
X516908Y327932D01*
X516840Y327945D01*
X516772Y327963D01*
X516706Y327984D01*
X516641Y328009D01*
X516577Y328037D01*
X516515Y328069D01*
X516455Y328104D01*
X516397Y328143D01*
X516342Y328185D01*
X516288Y328230D01*
X516238Y328278D01*
X516190Y328328D01*
X516145Y328382D01*
X516103Y328437D01*
X516064Y328495D01*
X516029Y328555D01*
X515997Y328617D01*
X515969Y328681D01*
X515944Y328746D01*
X515923Y328812D01*
X515905Y328880D01*
X515892Y328948D01*
X515882Y329017D01*
X515876Y329086D01*
X515874Y329156D01*
X515874Y332260D01*
X515876Y332330D01*
X515882Y332399D01*
X515892Y332468D01*
X515905Y332536D01*
X515923Y332604D01*
X515944Y332670D01*
X515969Y332735D01*
X515997Y332799D01*
X516029Y332861D01*
X516064Y332921D01*
X516103Y332979D01*
X516145Y333034D01*
X516190Y333088D01*
X516238Y333138D01*
X516288Y333186D01*
X516342Y333231D01*
X516397Y333273D01*
X516455Y333312D01*
X516515Y333347D01*
X516577Y333379D01*
X516641Y333407D01*
X516706Y333432D01*
X516772Y333453D01*
X516840Y333471D01*
X516908Y333484D01*
X516977Y333494D01*
X517046Y333500D01*
X517116Y333502D01*
X518978Y333502D01*
X521726Y333502D02*
X521726Y327914D01*
X524831Y327914D02*
X521726Y333502D01*
X524831Y333502D02*
X524831Y327914D01*
X527578Y327914D02*
X527578Y333502D01*
X529130Y333502D01*
X529206Y333500D01*
X529282Y333495D01*
X529358Y333485D01*
X529433Y333472D01*
X529507Y333455D01*
X529581Y333435D01*
X529653Y333411D01*
X529724Y333384D01*
X529794Y333353D01*
X529862Y333319D01*
X529928Y333281D01*
X529992Y333240D01*
X530055Y333197D01*
X530115Y333150D01*
X530172Y333100D01*
X530227Y333047D01*
X530280Y332992D01*
X530330Y332935D01*
X530377Y332875D01*
X530420Y332812D01*
X530461Y332748D01*
X530499Y332682D01*
X530533Y332614D01*
X530564Y332544D01*
X530591Y332473D01*
X530615Y332400D01*
X530635Y332327D01*
X530652Y332253D01*
X530665Y332178D01*
X530675Y332102D01*
X530680Y332026D01*
X530682Y331950D01*
X530683Y331950D02*
X530683Y329466D01*
X530682Y329466D02*
X530680Y329387D01*
X530674Y329309D01*
X530664Y329231D01*
X530650Y329154D01*
X530632Y329077D01*
X530611Y329001D01*
X530585Y328927D01*
X530556Y328854D01*
X530523Y328783D01*
X530487Y328713D01*
X530447Y328645D01*
X530404Y328579D01*
X530357Y328516D01*
X530308Y328455D01*
X530255Y328397D01*
X530199Y328341D01*
X530141Y328288D01*
X530080Y328239D01*
X530017Y328192D01*
X529951Y328149D01*
X529883Y328109D01*
X529814Y328073D01*
X529742Y328040D01*
X529669Y328011D01*
X529595Y327985D01*
X529519Y327964D01*
X529442Y327946D01*
X529365Y327932D01*
X529287Y327922D01*
X529209Y327916D01*
X529130Y327914D01*
X527578Y327914D01*
X518978Y356418D02*
X518047Y356418D01*
X518978Y356418D02*
X518978Y353314D01*
X517116Y353314D01*
X517046Y353316D01*
X516977Y353322D01*
X516908Y353332D01*
X516840Y353345D01*
X516772Y353363D01*
X516706Y353384D01*
X516641Y353409D01*
X516577Y353437D01*
X516515Y353469D01*
X516455Y353504D01*
X516397Y353543D01*
X516342Y353585D01*
X516288Y353630D01*
X516238Y353678D01*
X516190Y353728D01*
X516145Y353782D01*
X516103Y353837D01*
X516064Y353895D01*
X516029Y353955D01*
X515997Y354017D01*
X515969Y354081D01*
X515944Y354146D01*
X515923Y354212D01*
X515905Y354280D01*
X515892Y354348D01*
X515882Y354417D01*
X515876Y354486D01*
X515874Y354556D01*
X515874Y357660D01*
X515876Y357730D01*
X515882Y357799D01*
X515892Y357868D01*
X515905Y357936D01*
X515923Y358004D01*
X515944Y358070D01*
X515969Y358135D01*
X515997Y358199D01*
X516029Y358261D01*
X516064Y358321D01*
X516103Y358379D01*
X516145Y358434D01*
X516190Y358488D01*
X516238Y358538D01*
X516288Y358586D01*
X516342Y358631D01*
X516397Y358673D01*
X516455Y358712D01*
X516515Y358747D01*
X516577Y358779D01*
X516641Y358807D01*
X516706Y358832D01*
X516772Y358853D01*
X516840Y358871D01*
X516908Y358884D01*
X516977Y358894D01*
X517046Y358900D01*
X517116Y358902D01*
X518978Y358902D01*
X521726Y358902D02*
X521726Y353314D01*
X524831Y353314D02*
X521726Y358902D01*
X524831Y358902D02*
X524831Y353314D01*
X527578Y353314D02*
X527578Y358902D01*
X529130Y358902D01*
X529206Y358900D01*
X529282Y358895D01*
X529358Y358885D01*
X529433Y358872D01*
X529507Y358855D01*
X529581Y358835D01*
X529653Y358811D01*
X529724Y358784D01*
X529794Y358753D01*
X529862Y358719D01*
X529928Y358681D01*
X529992Y358640D01*
X530055Y358597D01*
X530115Y358550D01*
X530172Y358500D01*
X530227Y358447D01*
X530280Y358392D01*
X530330Y358335D01*
X530377Y358275D01*
X530420Y358212D01*
X530461Y358148D01*
X530499Y358082D01*
X530533Y358014D01*
X530564Y357944D01*
X530591Y357873D01*
X530615Y357800D01*
X530635Y357727D01*
X530652Y357653D01*
X530665Y357578D01*
X530675Y357502D01*
X530680Y357426D01*
X530682Y357350D01*
X530683Y357350D02*
X530683Y354866D01*
X530682Y354866D02*
X530680Y354787D01*
X530674Y354709D01*
X530664Y354631D01*
X530650Y354554D01*
X530632Y354477D01*
X530611Y354401D01*
X530585Y354327D01*
X530556Y354254D01*
X530523Y354183D01*
X530487Y354113D01*
X530447Y354045D01*
X530404Y353979D01*
X530357Y353916D01*
X530308Y353855D01*
X530255Y353797D01*
X530199Y353741D01*
X530141Y353688D01*
X530080Y353639D01*
X530017Y353592D01*
X529951Y353549D01*
X529883Y353509D01*
X529814Y353473D01*
X529742Y353440D01*
X529669Y353411D01*
X529595Y353385D01*
X529519Y353364D01*
X529442Y353346D01*
X529365Y353332D01*
X529287Y353322D01*
X529209Y353316D01*
X529130Y353314D01*
X527578Y353314D01*
X518978Y379278D02*
X518047Y379278D01*
X518978Y379278D02*
X518978Y376174D01*
X517116Y376174D01*
X517046Y376176D01*
X516977Y376182D01*
X516908Y376192D01*
X516840Y376205D01*
X516772Y376223D01*
X516706Y376244D01*
X516641Y376269D01*
X516577Y376297D01*
X516515Y376329D01*
X516455Y376364D01*
X516397Y376403D01*
X516342Y376445D01*
X516288Y376490D01*
X516238Y376538D01*
X516190Y376588D01*
X516145Y376642D01*
X516103Y376697D01*
X516064Y376755D01*
X516029Y376815D01*
X515997Y376877D01*
X515969Y376941D01*
X515944Y377006D01*
X515923Y377072D01*
X515905Y377140D01*
X515892Y377208D01*
X515882Y377277D01*
X515876Y377346D01*
X515874Y377416D01*
X515874Y380520D01*
X515876Y380590D01*
X515882Y380659D01*
X515892Y380728D01*
X515905Y380796D01*
X515923Y380864D01*
X515944Y380930D01*
X515969Y380995D01*
X515997Y381059D01*
X516029Y381121D01*
X516064Y381181D01*
X516103Y381239D01*
X516145Y381294D01*
X516190Y381348D01*
X516238Y381398D01*
X516288Y381446D01*
X516342Y381491D01*
X516397Y381533D01*
X516455Y381572D01*
X516515Y381607D01*
X516577Y381639D01*
X516641Y381667D01*
X516706Y381692D01*
X516772Y381713D01*
X516840Y381731D01*
X516908Y381744D01*
X516977Y381754D01*
X517046Y381760D01*
X517116Y381762D01*
X518978Y381762D01*
X521726Y381762D02*
X521726Y376174D01*
X524831Y376174D02*
X521726Y381762D01*
X524831Y381762D02*
X524831Y376174D01*
X527578Y376174D02*
X527578Y381762D01*
X529130Y381762D01*
X529206Y381760D01*
X529282Y381755D01*
X529358Y381745D01*
X529433Y381732D01*
X529507Y381715D01*
X529581Y381695D01*
X529653Y381671D01*
X529724Y381644D01*
X529794Y381613D01*
X529862Y381579D01*
X529928Y381541D01*
X529992Y381500D01*
X530055Y381457D01*
X530115Y381410D01*
X530172Y381360D01*
X530227Y381307D01*
X530280Y381252D01*
X530330Y381195D01*
X530377Y381135D01*
X530420Y381072D01*
X530461Y381008D01*
X530499Y380942D01*
X530533Y380874D01*
X530564Y380804D01*
X530591Y380733D01*
X530615Y380660D01*
X530635Y380587D01*
X530652Y380513D01*
X530665Y380438D01*
X530675Y380362D01*
X530680Y380286D01*
X530682Y380210D01*
X530683Y380210D02*
X530683Y377726D01*
X530682Y377726D02*
X530680Y377647D01*
X530674Y377569D01*
X530664Y377491D01*
X530650Y377414D01*
X530632Y377337D01*
X530611Y377261D01*
X530585Y377187D01*
X530556Y377114D01*
X530523Y377043D01*
X530487Y376973D01*
X530447Y376905D01*
X530404Y376839D01*
X530357Y376776D01*
X530308Y376715D01*
X530255Y376657D01*
X530199Y376601D01*
X530141Y376548D01*
X530080Y376499D01*
X530017Y376452D01*
X529951Y376409D01*
X529883Y376369D01*
X529814Y376333D01*
X529742Y376300D01*
X529669Y376271D01*
X529595Y376245D01*
X529519Y376224D01*
X529442Y376206D01*
X529365Y376192D01*
X529287Y376182D01*
X529209Y376176D01*
X529130Y376174D01*
X527578Y376174D01*
X518978Y404678D02*
X518047Y404678D01*
X518978Y404678D02*
X518978Y401574D01*
X517116Y401574D01*
X517046Y401576D01*
X516977Y401582D01*
X516908Y401592D01*
X516840Y401605D01*
X516772Y401623D01*
X516706Y401644D01*
X516641Y401669D01*
X516577Y401697D01*
X516515Y401729D01*
X516455Y401764D01*
X516397Y401803D01*
X516342Y401845D01*
X516288Y401890D01*
X516238Y401938D01*
X516190Y401988D01*
X516145Y402042D01*
X516103Y402097D01*
X516064Y402155D01*
X516029Y402215D01*
X515997Y402277D01*
X515969Y402341D01*
X515944Y402406D01*
X515923Y402472D01*
X515905Y402540D01*
X515892Y402608D01*
X515882Y402677D01*
X515876Y402746D01*
X515874Y402816D01*
X515874Y405920D01*
X515876Y405990D01*
X515882Y406059D01*
X515892Y406128D01*
X515905Y406196D01*
X515923Y406264D01*
X515944Y406330D01*
X515969Y406395D01*
X515997Y406459D01*
X516029Y406521D01*
X516064Y406581D01*
X516103Y406639D01*
X516145Y406694D01*
X516190Y406748D01*
X516238Y406798D01*
X516288Y406846D01*
X516342Y406891D01*
X516397Y406933D01*
X516455Y406972D01*
X516515Y407007D01*
X516577Y407039D01*
X516641Y407067D01*
X516706Y407092D01*
X516772Y407113D01*
X516840Y407131D01*
X516908Y407144D01*
X516977Y407154D01*
X517046Y407160D01*
X517116Y407162D01*
X518978Y407162D01*
X521726Y407162D02*
X521726Y401574D01*
X524831Y401574D02*
X521726Y407162D01*
X524831Y407162D02*
X524831Y401574D01*
X527578Y401574D02*
X527578Y407162D01*
X529130Y407162D01*
X529206Y407160D01*
X529282Y407155D01*
X529358Y407145D01*
X529433Y407132D01*
X529507Y407115D01*
X529581Y407095D01*
X529653Y407071D01*
X529724Y407044D01*
X529794Y407013D01*
X529862Y406979D01*
X529928Y406941D01*
X529992Y406900D01*
X530055Y406857D01*
X530115Y406810D01*
X530172Y406760D01*
X530227Y406707D01*
X530280Y406652D01*
X530330Y406595D01*
X530377Y406535D01*
X530420Y406472D01*
X530461Y406408D01*
X530499Y406342D01*
X530533Y406274D01*
X530564Y406204D01*
X530591Y406133D01*
X530615Y406060D01*
X530635Y405987D01*
X530652Y405913D01*
X530665Y405838D01*
X530675Y405762D01*
X530680Y405686D01*
X530682Y405610D01*
X530683Y405610D02*
X530683Y403126D01*
X530682Y403126D02*
X530680Y403047D01*
X530674Y402969D01*
X530664Y402891D01*
X530650Y402814D01*
X530632Y402737D01*
X530611Y402661D01*
X530585Y402587D01*
X530556Y402514D01*
X530523Y402443D01*
X530487Y402373D01*
X530447Y402305D01*
X530404Y402239D01*
X530357Y402176D01*
X530308Y402115D01*
X530255Y402057D01*
X530199Y402001D01*
X530141Y401948D01*
X530080Y401899D01*
X530017Y401852D01*
X529951Y401809D01*
X529883Y401769D01*
X529814Y401733D01*
X529742Y401700D01*
X529669Y401671D01*
X529595Y401645D01*
X529519Y401624D01*
X529442Y401606D01*
X529365Y401592D01*
X529287Y401582D01*
X529209Y401576D01*
X529130Y401574D01*
X527578Y401574D01*
X518978Y430078D02*
X518047Y430078D01*
X518978Y430078D02*
X518978Y426974D01*
X517116Y426974D01*
X517046Y426976D01*
X516977Y426982D01*
X516908Y426992D01*
X516840Y427005D01*
X516772Y427023D01*
X516706Y427044D01*
X516641Y427069D01*
X516577Y427097D01*
X516515Y427129D01*
X516455Y427164D01*
X516397Y427203D01*
X516342Y427245D01*
X516288Y427290D01*
X516238Y427338D01*
X516190Y427388D01*
X516145Y427442D01*
X516103Y427497D01*
X516064Y427555D01*
X516029Y427615D01*
X515997Y427677D01*
X515969Y427741D01*
X515944Y427806D01*
X515923Y427872D01*
X515905Y427940D01*
X515892Y428008D01*
X515882Y428077D01*
X515876Y428146D01*
X515874Y428216D01*
X515874Y431320D01*
X515876Y431390D01*
X515882Y431459D01*
X515892Y431528D01*
X515905Y431596D01*
X515923Y431664D01*
X515944Y431730D01*
X515969Y431795D01*
X515997Y431859D01*
X516029Y431921D01*
X516064Y431981D01*
X516103Y432039D01*
X516145Y432094D01*
X516190Y432148D01*
X516238Y432198D01*
X516288Y432246D01*
X516342Y432291D01*
X516397Y432333D01*
X516455Y432372D01*
X516515Y432407D01*
X516577Y432439D01*
X516641Y432467D01*
X516706Y432492D01*
X516772Y432513D01*
X516840Y432531D01*
X516908Y432544D01*
X516977Y432554D01*
X517046Y432560D01*
X517116Y432562D01*
X518978Y432562D01*
X521726Y432562D02*
X521726Y426974D01*
X524831Y426974D02*
X521726Y432562D01*
X524831Y432562D02*
X524831Y426974D01*
X527578Y426974D02*
X527578Y432562D01*
X529130Y432562D01*
X529206Y432560D01*
X529282Y432555D01*
X529358Y432545D01*
X529433Y432532D01*
X529507Y432515D01*
X529581Y432495D01*
X529653Y432471D01*
X529724Y432444D01*
X529794Y432413D01*
X529862Y432379D01*
X529928Y432341D01*
X529992Y432300D01*
X530055Y432257D01*
X530115Y432210D01*
X530172Y432160D01*
X530227Y432107D01*
X530280Y432052D01*
X530330Y431995D01*
X530377Y431935D01*
X530420Y431872D01*
X530461Y431808D01*
X530499Y431742D01*
X530533Y431674D01*
X530564Y431604D01*
X530591Y431533D01*
X530615Y431460D01*
X530635Y431387D01*
X530652Y431313D01*
X530665Y431238D01*
X530675Y431162D01*
X530680Y431086D01*
X530682Y431010D01*
X530683Y431010D02*
X530683Y428526D01*
X530682Y428526D02*
X530680Y428447D01*
X530674Y428369D01*
X530664Y428291D01*
X530650Y428214D01*
X530632Y428137D01*
X530611Y428061D01*
X530585Y427987D01*
X530556Y427914D01*
X530523Y427843D01*
X530487Y427773D01*
X530447Y427705D01*
X530404Y427639D01*
X530357Y427576D01*
X530308Y427515D01*
X530255Y427457D01*
X530199Y427401D01*
X530141Y427348D01*
X530080Y427299D01*
X530017Y427252D01*
X529951Y427209D01*
X529883Y427169D01*
X529814Y427133D01*
X529742Y427100D01*
X529669Y427071D01*
X529595Y427045D01*
X529519Y427024D01*
X529442Y427006D01*
X529365Y426992D01*
X529287Y426982D01*
X529209Y426976D01*
X529130Y426974D01*
X527578Y426974D01*
X518978Y455478D02*
X518047Y455478D01*
X518978Y455478D02*
X518978Y452374D01*
X517116Y452374D01*
X517046Y452376D01*
X516977Y452382D01*
X516908Y452392D01*
X516840Y452405D01*
X516772Y452423D01*
X516706Y452444D01*
X516641Y452469D01*
X516577Y452497D01*
X516515Y452529D01*
X516455Y452564D01*
X516397Y452603D01*
X516342Y452645D01*
X516288Y452690D01*
X516238Y452738D01*
X516190Y452788D01*
X516145Y452842D01*
X516103Y452897D01*
X516064Y452955D01*
X516029Y453015D01*
X515997Y453077D01*
X515969Y453141D01*
X515944Y453206D01*
X515923Y453272D01*
X515905Y453340D01*
X515892Y453408D01*
X515882Y453477D01*
X515876Y453546D01*
X515874Y453616D01*
X515874Y456720D01*
X515876Y456790D01*
X515882Y456859D01*
X515892Y456928D01*
X515905Y456996D01*
X515923Y457064D01*
X515944Y457130D01*
X515969Y457195D01*
X515997Y457259D01*
X516029Y457321D01*
X516064Y457381D01*
X516103Y457439D01*
X516145Y457494D01*
X516190Y457548D01*
X516238Y457598D01*
X516288Y457646D01*
X516342Y457691D01*
X516397Y457733D01*
X516455Y457772D01*
X516515Y457807D01*
X516577Y457839D01*
X516641Y457867D01*
X516706Y457892D01*
X516772Y457913D01*
X516840Y457931D01*
X516908Y457944D01*
X516977Y457954D01*
X517046Y457960D01*
X517116Y457962D01*
X518978Y457962D01*
X521726Y457962D02*
X521726Y452374D01*
X524831Y452374D02*
X521726Y457962D01*
X524831Y457962D02*
X524831Y452374D01*
X527578Y452374D02*
X527578Y457962D01*
X529130Y457962D01*
X529206Y457960D01*
X529282Y457955D01*
X529358Y457945D01*
X529433Y457932D01*
X529507Y457915D01*
X529581Y457895D01*
X529653Y457871D01*
X529724Y457844D01*
X529794Y457813D01*
X529862Y457779D01*
X529928Y457741D01*
X529992Y457700D01*
X530055Y457657D01*
X530115Y457610D01*
X530172Y457560D01*
X530227Y457507D01*
X530280Y457452D01*
X530330Y457395D01*
X530377Y457335D01*
X530420Y457272D01*
X530461Y457208D01*
X530499Y457142D01*
X530533Y457074D01*
X530564Y457004D01*
X530591Y456933D01*
X530615Y456860D01*
X530635Y456787D01*
X530652Y456713D01*
X530665Y456638D01*
X530675Y456562D01*
X530680Y456486D01*
X530682Y456410D01*
X530683Y456410D02*
X530683Y453926D01*
X530682Y453926D02*
X530680Y453847D01*
X530674Y453769D01*
X530664Y453691D01*
X530650Y453614D01*
X530632Y453537D01*
X530611Y453461D01*
X530585Y453387D01*
X530556Y453314D01*
X530523Y453243D01*
X530487Y453173D01*
X530447Y453105D01*
X530404Y453039D01*
X530357Y452976D01*
X530308Y452915D01*
X530255Y452857D01*
X530199Y452801D01*
X530141Y452748D01*
X530080Y452699D01*
X530017Y452652D01*
X529951Y452609D01*
X529883Y452569D01*
X529814Y452533D01*
X529742Y452500D01*
X529669Y452471D01*
X529595Y452445D01*
X529519Y452424D01*
X529442Y452406D01*
X529365Y452392D01*
X529287Y452382D01*
X529209Y452376D01*
X529130Y452374D01*
X527578Y452374D01*
X518978Y480878D02*
X518047Y480878D01*
X518978Y480878D02*
X518978Y477774D01*
X517116Y477774D01*
X517046Y477776D01*
X516977Y477782D01*
X516908Y477792D01*
X516840Y477805D01*
X516772Y477823D01*
X516706Y477844D01*
X516641Y477869D01*
X516577Y477897D01*
X516515Y477929D01*
X516455Y477964D01*
X516397Y478003D01*
X516342Y478045D01*
X516288Y478090D01*
X516238Y478138D01*
X516190Y478188D01*
X516145Y478242D01*
X516103Y478297D01*
X516064Y478355D01*
X516029Y478415D01*
X515997Y478477D01*
X515969Y478541D01*
X515944Y478606D01*
X515923Y478672D01*
X515905Y478740D01*
X515892Y478808D01*
X515882Y478877D01*
X515876Y478946D01*
X515874Y479016D01*
X515874Y482120D01*
X515876Y482190D01*
X515882Y482259D01*
X515892Y482328D01*
X515905Y482396D01*
X515923Y482464D01*
X515944Y482530D01*
X515969Y482595D01*
X515997Y482659D01*
X516029Y482721D01*
X516064Y482781D01*
X516103Y482839D01*
X516145Y482894D01*
X516190Y482948D01*
X516238Y482998D01*
X516288Y483046D01*
X516342Y483091D01*
X516397Y483133D01*
X516455Y483172D01*
X516515Y483207D01*
X516577Y483239D01*
X516641Y483267D01*
X516706Y483292D01*
X516772Y483313D01*
X516840Y483331D01*
X516908Y483344D01*
X516977Y483354D01*
X517046Y483360D01*
X517116Y483362D01*
X518978Y483362D01*
X521726Y483362D02*
X521726Y477774D01*
X524831Y477774D02*
X521726Y483362D01*
X524831Y483362D02*
X524831Y477774D01*
X527578Y477774D02*
X527578Y483362D01*
X529130Y483362D01*
X529206Y483360D01*
X529282Y483355D01*
X529358Y483345D01*
X529433Y483332D01*
X529507Y483315D01*
X529581Y483295D01*
X529653Y483271D01*
X529724Y483244D01*
X529794Y483213D01*
X529862Y483179D01*
X529928Y483141D01*
X529992Y483100D01*
X530055Y483057D01*
X530115Y483010D01*
X530172Y482960D01*
X530227Y482907D01*
X530280Y482852D01*
X530330Y482795D01*
X530377Y482735D01*
X530420Y482672D01*
X530461Y482608D01*
X530499Y482542D01*
X530533Y482474D01*
X530564Y482404D01*
X530591Y482333D01*
X530615Y482260D01*
X530635Y482187D01*
X530652Y482113D01*
X530665Y482038D01*
X530675Y481962D01*
X530680Y481886D01*
X530682Y481810D01*
X530683Y481810D02*
X530683Y479326D01*
X530682Y479326D02*
X530680Y479247D01*
X530674Y479169D01*
X530664Y479091D01*
X530650Y479014D01*
X530632Y478937D01*
X530611Y478861D01*
X530585Y478787D01*
X530556Y478714D01*
X530523Y478643D01*
X530487Y478573D01*
X530447Y478505D01*
X530404Y478439D01*
X530357Y478376D01*
X530308Y478315D01*
X530255Y478257D01*
X530199Y478201D01*
X530141Y478148D01*
X530080Y478099D01*
X530017Y478052D01*
X529951Y478009D01*
X529883Y477969D01*
X529814Y477933D01*
X529742Y477900D01*
X529669Y477871D01*
X529595Y477845D01*
X529519Y477824D01*
X529442Y477806D01*
X529365Y477792D01*
X529287Y477782D01*
X529209Y477776D01*
X529130Y477774D01*
X527578Y477774D01*
X341178Y303078D02*
X340247Y303078D01*
X341178Y303078D02*
X341178Y299974D01*
X339316Y299974D01*
X339246Y299976D01*
X339177Y299982D01*
X339108Y299992D01*
X339040Y300005D01*
X338972Y300023D01*
X338906Y300044D01*
X338841Y300069D01*
X338777Y300097D01*
X338715Y300129D01*
X338655Y300164D01*
X338597Y300203D01*
X338542Y300245D01*
X338488Y300290D01*
X338438Y300338D01*
X338390Y300388D01*
X338345Y300442D01*
X338303Y300497D01*
X338264Y300555D01*
X338229Y300615D01*
X338197Y300677D01*
X338169Y300741D01*
X338144Y300806D01*
X338123Y300872D01*
X338105Y300940D01*
X338092Y301008D01*
X338082Y301077D01*
X338076Y301146D01*
X338074Y301216D01*
X338074Y304320D01*
X338076Y304390D01*
X338082Y304459D01*
X338092Y304528D01*
X338105Y304596D01*
X338123Y304664D01*
X338144Y304730D01*
X338169Y304795D01*
X338197Y304859D01*
X338229Y304921D01*
X338264Y304981D01*
X338303Y305039D01*
X338345Y305094D01*
X338390Y305148D01*
X338438Y305198D01*
X338488Y305246D01*
X338542Y305291D01*
X338597Y305333D01*
X338655Y305372D01*
X338715Y305407D01*
X338777Y305439D01*
X338841Y305467D01*
X338906Y305492D01*
X338972Y305513D01*
X339040Y305531D01*
X339108Y305544D01*
X339177Y305554D01*
X339246Y305560D01*
X339316Y305562D01*
X341178Y305562D01*
X343926Y305562D02*
X343926Y299974D01*
X347031Y299974D02*
X343926Y305562D01*
X347031Y305562D02*
X347031Y299974D01*
X349778Y299974D02*
X349778Y305562D01*
X351330Y305562D01*
X351406Y305560D01*
X351482Y305555D01*
X351558Y305545D01*
X351633Y305532D01*
X351707Y305515D01*
X351781Y305495D01*
X351853Y305471D01*
X351924Y305444D01*
X351994Y305413D01*
X352062Y305379D01*
X352128Y305341D01*
X352192Y305300D01*
X352255Y305257D01*
X352315Y305210D01*
X352372Y305160D01*
X352427Y305107D01*
X352480Y305052D01*
X352530Y304995D01*
X352577Y304935D01*
X352620Y304872D01*
X352661Y304808D01*
X352699Y304742D01*
X352733Y304674D01*
X352764Y304604D01*
X352791Y304533D01*
X352815Y304460D01*
X352835Y304387D01*
X352852Y304313D01*
X352865Y304238D01*
X352875Y304162D01*
X352880Y304086D01*
X352882Y304010D01*
X352883Y304010D02*
X352883Y301526D01*
X352882Y301526D02*
X352880Y301447D01*
X352874Y301369D01*
X352864Y301291D01*
X352850Y301214D01*
X352832Y301137D01*
X352811Y301061D01*
X352785Y300987D01*
X352756Y300914D01*
X352723Y300843D01*
X352687Y300773D01*
X352647Y300705D01*
X352604Y300639D01*
X352557Y300576D01*
X352508Y300515D01*
X352455Y300457D01*
X352399Y300401D01*
X352341Y300348D01*
X352280Y300299D01*
X352217Y300252D01*
X352151Y300209D01*
X352083Y300169D01*
X352014Y300133D01*
X351942Y300100D01*
X351869Y300071D01*
X351795Y300045D01*
X351719Y300024D01*
X351642Y300006D01*
X351565Y299992D01*
X351487Y299982D01*
X351409Y299976D01*
X351330Y299974D01*
X349778Y299974D01*
X341178Y325938D02*
X340247Y325938D01*
X341178Y325938D02*
X341178Y322834D01*
X339316Y322834D01*
X339246Y322836D01*
X339177Y322842D01*
X339108Y322852D01*
X339040Y322865D01*
X338972Y322883D01*
X338906Y322904D01*
X338841Y322929D01*
X338777Y322957D01*
X338715Y322989D01*
X338655Y323024D01*
X338597Y323063D01*
X338542Y323105D01*
X338488Y323150D01*
X338438Y323198D01*
X338390Y323248D01*
X338345Y323302D01*
X338303Y323357D01*
X338264Y323415D01*
X338229Y323475D01*
X338197Y323537D01*
X338169Y323601D01*
X338144Y323666D01*
X338123Y323732D01*
X338105Y323800D01*
X338092Y323868D01*
X338082Y323937D01*
X338076Y324006D01*
X338074Y324076D01*
X338074Y327180D01*
X338076Y327250D01*
X338082Y327319D01*
X338092Y327388D01*
X338105Y327456D01*
X338123Y327524D01*
X338144Y327590D01*
X338169Y327655D01*
X338197Y327719D01*
X338229Y327781D01*
X338264Y327841D01*
X338303Y327899D01*
X338345Y327954D01*
X338390Y328008D01*
X338438Y328058D01*
X338488Y328106D01*
X338542Y328151D01*
X338597Y328193D01*
X338655Y328232D01*
X338715Y328267D01*
X338777Y328299D01*
X338841Y328327D01*
X338906Y328352D01*
X338972Y328373D01*
X339040Y328391D01*
X339108Y328404D01*
X339177Y328414D01*
X339246Y328420D01*
X339316Y328422D01*
X341178Y328422D01*
X343926Y328422D02*
X343926Y322834D01*
X347031Y322834D02*
X343926Y328422D01*
X347031Y328422D02*
X347031Y322834D01*
X349778Y322834D02*
X349778Y328422D01*
X351330Y328422D01*
X351406Y328420D01*
X351482Y328415D01*
X351558Y328405D01*
X351633Y328392D01*
X351707Y328375D01*
X351781Y328355D01*
X351853Y328331D01*
X351924Y328304D01*
X351994Y328273D01*
X352062Y328239D01*
X352128Y328201D01*
X352192Y328160D01*
X352255Y328117D01*
X352315Y328070D01*
X352372Y328020D01*
X352427Y327967D01*
X352480Y327912D01*
X352530Y327855D01*
X352577Y327795D01*
X352620Y327732D01*
X352661Y327668D01*
X352699Y327602D01*
X352733Y327534D01*
X352764Y327464D01*
X352791Y327393D01*
X352815Y327320D01*
X352835Y327247D01*
X352852Y327173D01*
X352865Y327098D01*
X352875Y327022D01*
X352880Y326946D01*
X352882Y326870D01*
X352883Y326870D02*
X352883Y324386D01*
X352882Y324386D02*
X352880Y324307D01*
X352874Y324229D01*
X352864Y324151D01*
X352850Y324074D01*
X352832Y323997D01*
X352811Y323921D01*
X352785Y323847D01*
X352756Y323774D01*
X352723Y323703D01*
X352687Y323633D01*
X352647Y323565D01*
X352604Y323499D01*
X352557Y323436D01*
X352508Y323375D01*
X352455Y323317D01*
X352399Y323261D01*
X352341Y323208D01*
X352280Y323159D01*
X352217Y323112D01*
X352151Y323069D01*
X352083Y323029D01*
X352014Y322993D01*
X351942Y322960D01*
X351869Y322931D01*
X351795Y322905D01*
X351719Y322884D01*
X351642Y322866D01*
X351565Y322852D01*
X351487Y322842D01*
X351409Y322836D01*
X351330Y322834D01*
X349778Y322834D01*
X341178Y353878D02*
X340247Y353878D01*
X341178Y353878D02*
X341178Y350774D01*
X339316Y350774D01*
X339246Y350776D01*
X339177Y350782D01*
X339108Y350792D01*
X339040Y350805D01*
X338972Y350823D01*
X338906Y350844D01*
X338841Y350869D01*
X338777Y350897D01*
X338715Y350929D01*
X338655Y350964D01*
X338597Y351003D01*
X338542Y351045D01*
X338488Y351090D01*
X338438Y351138D01*
X338390Y351188D01*
X338345Y351242D01*
X338303Y351297D01*
X338264Y351355D01*
X338229Y351415D01*
X338197Y351477D01*
X338169Y351541D01*
X338144Y351606D01*
X338123Y351672D01*
X338105Y351740D01*
X338092Y351808D01*
X338082Y351877D01*
X338076Y351946D01*
X338074Y352016D01*
X338074Y355120D01*
X338076Y355190D01*
X338082Y355259D01*
X338092Y355328D01*
X338105Y355396D01*
X338123Y355464D01*
X338144Y355530D01*
X338169Y355595D01*
X338197Y355659D01*
X338229Y355721D01*
X338264Y355781D01*
X338303Y355839D01*
X338345Y355894D01*
X338390Y355948D01*
X338438Y355998D01*
X338488Y356046D01*
X338542Y356091D01*
X338597Y356133D01*
X338655Y356172D01*
X338715Y356207D01*
X338777Y356239D01*
X338841Y356267D01*
X338906Y356292D01*
X338972Y356313D01*
X339040Y356331D01*
X339108Y356344D01*
X339177Y356354D01*
X339246Y356360D01*
X339316Y356362D01*
X341178Y356362D01*
X343926Y356362D02*
X343926Y350774D01*
X347031Y350774D02*
X343926Y356362D01*
X347031Y356362D02*
X347031Y350774D01*
X349778Y350774D02*
X349778Y356362D01*
X351330Y356362D01*
X351406Y356360D01*
X351482Y356355D01*
X351558Y356345D01*
X351633Y356332D01*
X351707Y356315D01*
X351781Y356295D01*
X351853Y356271D01*
X351924Y356244D01*
X351994Y356213D01*
X352062Y356179D01*
X352128Y356141D01*
X352192Y356100D01*
X352255Y356057D01*
X352315Y356010D01*
X352372Y355960D01*
X352427Y355907D01*
X352480Y355852D01*
X352530Y355795D01*
X352577Y355735D01*
X352620Y355672D01*
X352661Y355608D01*
X352699Y355542D01*
X352733Y355474D01*
X352764Y355404D01*
X352791Y355333D01*
X352815Y355260D01*
X352835Y355187D01*
X352852Y355113D01*
X352865Y355038D01*
X352875Y354962D01*
X352880Y354886D01*
X352882Y354810D01*
X352883Y354810D02*
X352883Y352326D01*
X352882Y352326D02*
X352880Y352247D01*
X352874Y352169D01*
X352864Y352091D01*
X352850Y352014D01*
X352832Y351937D01*
X352811Y351861D01*
X352785Y351787D01*
X352756Y351714D01*
X352723Y351643D01*
X352687Y351573D01*
X352647Y351505D01*
X352604Y351439D01*
X352557Y351376D01*
X352508Y351315D01*
X352455Y351257D01*
X352399Y351201D01*
X352341Y351148D01*
X352280Y351099D01*
X352217Y351052D01*
X352151Y351009D01*
X352083Y350969D01*
X352014Y350933D01*
X351942Y350900D01*
X351869Y350871D01*
X351795Y350845D01*
X351719Y350824D01*
X351642Y350806D01*
X351565Y350792D01*
X351487Y350782D01*
X351409Y350776D01*
X351330Y350774D01*
X349778Y350774D01*
X341178Y379278D02*
X340247Y379278D01*
X341178Y379278D02*
X341178Y376174D01*
X339316Y376174D01*
X339246Y376176D01*
X339177Y376182D01*
X339108Y376192D01*
X339040Y376205D01*
X338972Y376223D01*
X338906Y376244D01*
X338841Y376269D01*
X338777Y376297D01*
X338715Y376329D01*
X338655Y376364D01*
X338597Y376403D01*
X338542Y376445D01*
X338488Y376490D01*
X338438Y376538D01*
X338390Y376588D01*
X338345Y376642D01*
X338303Y376697D01*
X338264Y376755D01*
X338229Y376815D01*
X338197Y376877D01*
X338169Y376941D01*
X338144Y377006D01*
X338123Y377072D01*
X338105Y377140D01*
X338092Y377208D01*
X338082Y377277D01*
X338076Y377346D01*
X338074Y377416D01*
X338074Y380520D01*
X338076Y380590D01*
X338082Y380659D01*
X338092Y380728D01*
X338105Y380796D01*
X338123Y380864D01*
X338144Y380930D01*
X338169Y380995D01*
X338197Y381059D01*
X338229Y381121D01*
X338264Y381181D01*
X338303Y381239D01*
X338345Y381294D01*
X338390Y381348D01*
X338438Y381398D01*
X338488Y381446D01*
X338542Y381491D01*
X338597Y381533D01*
X338655Y381572D01*
X338715Y381607D01*
X338777Y381639D01*
X338841Y381667D01*
X338906Y381692D01*
X338972Y381713D01*
X339040Y381731D01*
X339108Y381744D01*
X339177Y381754D01*
X339246Y381760D01*
X339316Y381762D01*
X341178Y381762D01*
X343926Y381762D02*
X343926Y376174D01*
X347031Y376174D02*
X343926Y381762D01*
X347031Y381762D02*
X347031Y376174D01*
X349778Y376174D02*
X349778Y381762D01*
X351330Y381762D01*
X351406Y381760D01*
X351482Y381755D01*
X351558Y381745D01*
X351633Y381732D01*
X351707Y381715D01*
X351781Y381695D01*
X351853Y381671D01*
X351924Y381644D01*
X351994Y381613D01*
X352062Y381579D01*
X352128Y381541D01*
X352192Y381500D01*
X352255Y381457D01*
X352315Y381410D01*
X352372Y381360D01*
X352427Y381307D01*
X352480Y381252D01*
X352530Y381195D01*
X352577Y381135D01*
X352620Y381072D01*
X352661Y381008D01*
X352699Y380942D01*
X352733Y380874D01*
X352764Y380804D01*
X352791Y380733D01*
X352815Y380660D01*
X352835Y380587D01*
X352852Y380513D01*
X352865Y380438D01*
X352875Y380362D01*
X352880Y380286D01*
X352882Y380210D01*
X352883Y380210D02*
X352883Y377726D01*
X352882Y377726D02*
X352880Y377647D01*
X352874Y377569D01*
X352864Y377491D01*
X352850Y377414D01*
X352832Y377337D01*
X352811Y377261D01*
X352785Y377187D01*
X352756Y377114D01*
X352723Y377043D01*
X352687Y376973D01*
X352647Y376905D01*
X352604Y376839D01*
X352557Y376776D01*
X352508Y376715D01*
X352455Y376657D01*
X352399Y376601D01*
X352341Y376548D01*
X352280Y376499D01*
X352217Y376452D01*
X352151Y376409D01*
X352083Y376369D01*
X352014Y376333D01*
X351942Y376300D01*
X351869Y376271D01*
X351795Y376245D01*
X351719Y376224D01*
X351642Y376206D01*
X351565Y376192D01*
X351487Y376182D01*
X351409Y376176D01*
X351330Y376174D01*
X349778Y376174D01*
X341178Y404678D02*
X340247Y404678D01*
X341178Y404678D02*
X341178Y401574D01*
X339316Y401574D01*
X339246Y401576D01*
X339177Y401582D01*
X339108Y401592D01*
X339040Y401605D01*
X338972Y401623D01*
X338906Y401644D01*
X338841Y401669D01*
X338777Y401697D01*
X338715Y401729D01*
X338655Y401764D01*
X338597Y401803D01*
X338542Y401845D01*
X338488Y401890D01*
X338438Y401938D01*
X338390Y401988D01*
X338345Y402042D01*
X338303Y402097D01*
X338264Y402155D01*
X338229Y402215D01*
X338197Y402277D01*
X338169Y402341D01*
X338144Y402406D01*
X338123Y402472D01*
X338105Y402540D01*
X338092Y402608D01*
X338082Y402677D01*
X338076Y402746D01*
X338074Y402816D01*
X338074Y405920D01*
X338076Y405990D01*
X338082Y406059D01*
X338092Y406128D01*
X338105Y406196D01*
X338123Y406264D01*
X338144Y406330D01*
X338169Y406395D01*
X338197Y406459D01*
X338229Y406521D01*
X338264Y406581D01*
X338303Y406639D01*
X338345Y406694D01*
X338390Y406748D01*
X338438Y406798D01*
X338488Y406846D01*
X338542Y406891D01*
X338597Y406933D01*
X338655Y406972D01*
X338715Y407007D01*
X338777Y407039D01*
X338841Y407067D01*
X338906Y407092D01*
X338972Y407113D01*
X339040Y407131D01*
X339108Y407144D01*
X339177Y407154D01*
X339246Y407160D01*
X339316Y407162D01*
X341178Y407162D01*
X343926Y407162D02*
X343926Y401574D01*
X347031Y401574D02*
X343926Y407162D01*
X347031Y407162D02*
X347031Y401574D01*
X349778Y401574D02*
X349778Y407162D01*
X351330Y407162D01*
X351406Y407160D01*
X351482Y407155D01*
X351558Y407145D01*
X351633Y407132D01*
X351707Y407115D01*
X351781Y407095D01*
X351853Y407071D01*
X351924Y407044D01*
X351994Y407013D01*
X352062Y406979D01*
X352128Y406941D01*
X352192Y406900D01*
X352255Y406857D01*
X352315Y406810D01*
X352372Y406760D01*
X352427Y406707D01*
X352480Y406652D01*
X352530Y406595D01*
X352577Y406535D01*
X352620Y406472D01*
X352661Y406408D01*
X352699Y406342D01*
X352733Y406274D01*
X352764Y406204D01*
X352791Y406133D01*
X352815Y406060D01*
X352835Y405987D01*
X352852Y405913D01*
X352865Y405838D01*
X352875Y405762D01*
X352880Y405686D01*
X352882Y405610D01*
X352883Y405610D02*
X352883Y403126D01*
X352882Y403126D02*
X352880Y403047D01*
X352874Y402969D01*
X352864Y402891D01*
X352850Y402814D01*
X352832Y402737D01*
X352811Y402661D01*
X352785Y402587D01*
X352756Y402514D01*
X352723Y402443D01*
X352687Y402373D01*
X352647Y402305D01*
X352604Y402239D01*
X352557Y402176D01*
X352508Y402115D01*
X352455Y402057D01*
X352399Y402001D01*
X352341Y401948D01*
X352280Y401899D01*
X352217Y401852D01*
X352151Y401809D01*
X352083Y401769D01*
X352014Y401733D01*
X351942Y401700D01*
X351869Y401671D01*
X351795Y401645D01*
X351719Y401624D01*
X351642Y401606D01*
X351565Y401592D01*
X351487Y401582D01*
X351409Y401576D01*
X351330Y401574D01*
X349778Y401574D01*
X341178Y430078D02*
X340247Y430078D01*
X341178Y430078D02*
X341178Y426974D01*
X339316Y426974D01*
X339246Y426976D01*
X339177Y426982D01*
X339108Y426992D01*
X339040Y427005D01*
X338972Y427023D01*
X338906Y427044D01*
X338841Y427069D01*
X338777Y427097D01*
X338715Y427129D01*
X338655Y427164D01*
X338597Y427203D01*
X338542Y427245D01*
X338488Y427290D01*
X338438Y427338D01*
X338390Y427388D01*
X338345Y427442D01*
X338303Y427497D01*
X338264Y427555D01*
X338229Y427615D01*
X338197Y427677D01*
X338169Y427741D01*
X338144Y427806D01*
X338123Y427872D01*
X338105Y427940D01*
X338092Y428008D01*
X338082Y428077D01*
X338076Y428146D01*
X338074Y428216D01*
X338074Y431320D01*
X338076Y431390D01*
X338082Y431459D01*
X338092Y431528D01*
X338105Y431596D01*
X338123Y431664D01*
X338144Y431730D01*
X338169Y431795D01*
X338197Y431859D01*
X338229Y431921D01*
X338264Y431981D01*
X338303Y432039D01*
X338345Y432094D01*
X338390Y432148D01*
X338438Y432198D01*
X338488Y432246D01*
X338542Y432291D01*
X338597Y432333D01*
X338655Y432372D01*
X338715Y432407D01*
X338777Y432439D01*
X338841Y432467D01*
X338906Y432492D01*
X338972Y432513D01*
X339040Y432531D01*
X339108Y432544D01*
X339177Y432554D01*
X339246Y432560D01*
X339316Y432562D01*
X341178Y432562D01*
X343926Y432562D02*
X343926Y426974D01*
X347031Y426974D02*
X343926Y432562D01*
X347031Y432562D02*
X347031Y426974D01*
X349778Y426974D02*
X349778Y432562D01*
X351330Y432562D01*
X351406Y432560D01*
X351482Y432555D01*
X351558Y432545D01*
X351633Y432532D01*
X351707Y432515D01*
X351781Y432495D01*
X351853Y432471D01*
X351924Y432444D01*
X351994Y432413D01*
X352062Y432379D01*
X352128Y432341D01*
X352192Y432300D01*
X352255Y432257D01*
X352315Y432210D01*
X352372Y432160D01*
X352427Y432107D01*
X352480Y432052D01*
X352530Y431995D01*
X352577Y431935D01*
X352620Y431872D01*
X352661Y431808D01*
X352699Y431742D01*
X352733Y431674D01*
X352764Y431604D01*
X352791Y431533D01*
X352815Y431460D01*
X352835Y431387D01*
X352852Y431313D01*
X352865Y431238D01*
X352875Y431162D01*
X352880Y431086D01*
X352882Y431010D01*
X352883Y431010D02*
X352883Y428526D01*
X352882Y428526D02*
X352880Y428447D01*
X352874Y428369D01*
X352864Y428291D01*
X352850Y428214D01*
X352832Y428137D01*
X352811Y428061D01*
X352785Y427987D01*
X352756Y427914D01*
X352723Y427843D01*
X352687Y427773D01*
X352647Y427705D01*
X352604Y427639D01*
X352557Y427576D01*
X352508Y427515D01*
X352455Y427457D01*
X352399Y427401D01*
X352341Y427348D01*
X352280Y427299D01*
X352217Y427252D01*
X352151Y427209D01*
X352083Y427169D01*
X352014Y427133D01*
X351942Y427100D01*
X351869Y427071D01*
X351795Y427045D01*
X351719Y427024D01*
X351642Y427006D01*
X351565Y426992D01*
X351487Y426982D01*
X351409Y426976D01*
X351330Y426974D01*
X349778Y426974D01*
X341178Y455478D02*
X340247Y455478D01*
X341178Y455478D02*
X341178Y452374D01*
X339316Y452374D01*
X339246Y452376D01*
X339177Y452382D01*
X339108Y452392D01*
X339040Y452405D01*
X338972Y452423D01*
X338906Y452444D01*
X338841Y452469D01*
X338777Y452497D01*
X338715Y452529D01*
X338655Y452564D01*
X338597Y452603D01*
X338542Y452645D01*
X338488Y452690D01*
X338438Y452738D01*
X338390Y452788D01*
X338345Y452842D01*
X338303Y452897D01*
X338264Y452955D01*
X338229Y453015D01*
X338197Y453077D01*
X338169Y453141D01*
X338144Y453206D01*
X338123Y453272D01*
X338105Y453340D01*
X338092Y453408D01*
X338082Y453477D01*
X338076Y453546D01*
X338074Y453616D01*
X338074Y456720D01*
X338076Y456790D01*
X338082Y456859D01*
X338092Y456928D01*
X338105Y456996D01*
X338123Y457064D01*
X338144Y457130D01*
X338169Y457195D01*
X338197Y457259D01*
X338229Y457321D01*
X338264Y457381D01*
X338303Y457439D01*
X338345Y457494D01*
X338390Y457548D01*
X338438Y457598D01*
X338488Y457646D01*
X338542Y457691D01*
X338597Y457733D01*
X338655Y457772D01*
X338715Y457807D01*
X338777Y457839D01*
X338841Y457867D01*
X338906Y457892D01*
X338972Y457913D01*
X339040Y457931D01*
X339108Y457944D01*
X339177Y457954D01*
X339246Y457960D01*
X339316Y457962D01*
X341178Y457962D01*
X343926Y457962D02*
X343926Y452374D01*
X347031Y452374D02*
X343926Y457962D01*
X347031Y457962D02*
X347031Y452374D01*
X349778Y452374D02*
X349778Y457962D01*
X351330Y457962D01*
X351406Y457960D01*
X351482Y457955D01*
X351558Y457945D01*
X351633Y457932D01*
X351707Y457915D01*
X351781Y457895D01*
X351853Y457871D01*
X351924Y457844D01*
X351994Y457813D01*
X352062Y457779D01*
X352128Y457741D01*
X352192Y457700D01*
X352255Y457657D01*
X352315Y457610D01*
X352372Y457560D01*
X352427Y457507D01*
X352480Y457452D01*
X352530Y457395D01*
X352577Y457335D01*
X352620Y457272D01*
X352661Y457208D01*
X352699Y457142D01*
X352733Y457074D01*
X352764Y457004D01*
X352791Y456933D01*
X352815Y456860D01*
X352835Y456787D01*
X352852Y456713D01*
X352865Y456638D01*
X352875Y456562D01*
X352880Y456486D01*
X352882Y456410D01*
X352883Y456410D02*
X352883Y453926D01*
X352882Y453926D02*
X352880Y453847D01*
X352874Y453769D01*
X352864Y453691D01*
X352850Y453614D01*
X352832Y453537D01*
X352811Y453461D01*
X352785Y453387D01*
X352756Y453314D01*
X352723Y453243D01*
X352687Y453173D01*
X352647Y453105D01*
X352604Y453039D01*
X352557Y452976D01*
X352508Y452915D01*
X352455Y452857D01*
X352399Y452801D01*
X352341Y452748D01*
X352280Y452699D01*
X352217Y452652D01*
X352151Y452609D01*
X352083Y452569D01*
X352014Y452533D01*
X351942Y452500D01*
X351869Y452471D01*
X351795Y452445D01*
X351719Y452424D01*
X351642Y452406D01*
X351565Y452392D01*
X351487Y452382D01*
X351409Y452376D01*
X351330Y452374D01*
X349778Y452374D01*
X341178Y480878D02*
X340247Y480878D01*
X341178Y480878D02*
X341178Y477774D01*
X339316Y477774D01*
X339246Y477776D01*
X339177Y477782D01*
X339108Y477792D01*
X339040Y477805D01*
X338972Y477823D01*
X338906Y477844D01*
X338841Y477869D01*
X338777Y477897D01*
X338715Y477929D01*
X338655Y477964D01*
X338597Y478003D01*
X338542Y478045D01*
X338488Y478090D01*
X338438Y478138D01*
X338390Y478188D01*
X338345Y478242D01*
X338303Y478297D01*
X338264Y478355D01*
X338229Y478415D01*
X338197Y478477D01*
X338169Y478541D01*
X338144Y478606D01*
X338123Y478672D01*
X338105Y478740D01*
X338092Y478808D01*
X338082Y478877D01*
X338076Y478946D01*
X338074Y479016D01*
X338074Y482120D01*
X338076Y482190D01*
X338082Y482259D01*
X338092Y482328D01*
X338105Y482396D01*
X338123Y482464D01*
X338144Y482530D01*
X338169Y482595D01*
X338197Y482659D01*
X338229Y482721D01*
X338264Y482781D01*
X338303Y482839D01*
X338345Y482894D01*
X338390Y482948D01*
X338438Y482998D01*
X338488Y483046D01*
X338542Y483091D01*
X338597Y483133D01*
X338655Y483172D01*
X338715Y483207D01*
X338777Y483239D01*
X338841Y483267D01*
X338906Y483292D01*
X338972Y483313D01*
X339040Y483331D01*
X339108Y483344D01*
X339177Y483354D01*
X339246Y483360D01*
X339316Y483362D01*
X341178Y483362D01*
X343926Y483362D02*
X343926Y477774D01*
X347031Y477774D02*
X343926Y483362D01*
X347031Y483362D02*
X347031Y477774D01*
X349778Y477774D02*
X349778Y483362D01*
X351330Y483362D01*
X351406Y483360D01*
X351482Y483355D01*
X351558Y483345D01*
X351633Y483332D01*
X351707Y483315D01*
X351781Y483295D01*
X351853Y483271D01*
X351924Y483244D01*
X351994Y483213D01*
X352062Y483179D01*
X352128Y483141D01*
X352192Y483100D01*
X352255Y483057D01*
X352315Y483010D01*
X352372Y482960D01*
X352427Y482907D01*
X352480Y482852D01*
X352530Y482795D01*
X352577Y482735D01*
X352620Y482672D01*
X352661Y482608D01*
X352699Y482542D01*
X352733Y482474D01*
X352764Y482404D01*
X352791Y482333D01*
X352815Y482260D01*
X352835Y482187D01*
X352852Y482113D01*
X352865Y482038D01*
X352875Y481962D01*
X352880Y481886D01*
X352882Y481810D01*
X352883Y481810D02*
X352883Y479326D01*
X352882Y479326D02*
X352880Y479247D01*
X352874Y479169D01*
X352864Y479091D01*
X352850Y479014D01*
X352832Y478937D01*
X352811Y478861D01*
X352785Y478787D01*
X352756Y478714D01*
X352723Y478643D01*
X352687Y478573D01*
X352647Y478505D01*
X352604Y478439D01*
X352557Y478376D01*
X352508Y478315D01*
X352455Y478257D01*
X352399Y478201D01*
X352341Y478148D01*
X352280Y478099D01*
X352217Y478052D01*
X352151Y478009D01*
X352083Y477969D01*
X352014Y477933D01*
X351942Y477900D01*
X351869Y477871D01*
X351795Y477845D01*
X351719Y477824D01*
X351642Y477806D01*
X351565Y477792D01*
X351487Y477782D01*
X351409Y477776D01*
X351330Y477774D01*
X349778Y477774D01*
D11*
X139700Y349250D02*
X133350Y342900D01*
X139700Y361950D02*
X133350Y368300D01*
X139700Y374650D01*
X139700Y387350D02*
X133350Y393700D01*
X139700Y400050D01*
X139700Y412750D02*
X133350Y419100D01*
X133350Y342900D02*
X95250Y342900D01*
X88900Y349250D01*
X88900Y361950D01*
X95250Y368300D01*
X88900Y374650D01*
X88900Y387350D01*
X95250Y393700D01*
X88900Y400050D01*
X88900Y412750D01*
X95250Y419100D01*
X95250Y368300D02*
X133350Y368300D01*
X133350Y393700D02*
X95250Y393700D01*
X95250Y419100D02*
X133350Y419100D01*
X139700Y412750D02*
X139700Y400050D01*
X139700Y387350D02*
X139700Y374650D01*
X139700Y361950D02*
X139700Y349250D01*
X133350Y419100D02*
X139700Y425450D01*
X139700Y438150D02*
X133350Y444500D01*
X95250Y419100D02*
X88900Y425450D01*
X88900Y438150D01*
X95250Y444500D01*
X133350Y444500D01*
X139700Y438150D02*
X139700Y425450D01*
M02*
