G04 EAGLE Gerber RS-274X export*
G75*
%MOMM*%
%FSLAX34Y34*%
%LPD*%
%INBottom Copper*%
%IPPOS*%
%AMOC8*
5,1,8,0,0,1.08239X$1,22.5*%
G01*
%ADD10C,1.879600*%
%ADD11C,2.743200*%
%ADD12R,1.879600X1.879600*%
%ADD13C,1.524000*%
%ADD14P,1.814519X8X292.500000*%
%ADD15P,1.429621X8X292.500000*%
%ADD16C,1.422400*%
%ADD17C,2.540000*%
%ADD18C,1.058000*%
%ADD19C,1.008000*%
%ADD20C,0.609600*%
%ADD21C,0.406400*%
%ADD22C,0.756400*%
%ADD23C,0.254000*%
%ADD24C,0.508000*%

G36*
X708264Y10164D02*
X708264Y10164D01*
X708283Y10162D01*
X708385Y10184D01*
X708487Y10200D01*
X708504Y10210D01*
X708524Y10214D01*
X708613Y10267D01*
X708704Y10316D01*
X708718Y10330D01*
X708735Y10340D01*
X708802Y10419D01*
X708874Y10494D01*
X708882Y10512D01*
X708895Y10527D01*
X708934Y10623D01*
X708977Y10717D01*
X708979Y10737D01*
X708987Y10755D01*
X709005Y10922D01*
X709005Y12975D01*
X716098Y12975D01*
X716117Y12978D01*
X716137Y12976D01*
X716239Y12998D01*
X716341Y13014D01*
X716358Y13024D01*
X716378Y13028D01*
X716467Y13081D01*
X716558Y13130D01*
X716572Y13144D01*
X716589Y13154D01*
X716592Y13158D01*
X716646Y13106D01*
X716664Y13098D01*
X716679Y13085D01*
X716776Y13046D01*
X716869Y13003D01*
X716889Y13001D01*
X716907Y12993D01*
X717074Y12975D01*
X724167Y12975D01*
X724167Y10922D01*
X724170Y10902D01*
X724168Y10883D01*
X724190Y10781D01*
X724206Y10679D01*
X724216Y10662D01*
X724220Y10642D01*
X724273Y10553D01*
X724322Y10462D01*
X724336Y10448D01*
X724346Y10431D01*
X724425Y10364D01*
X724500Y10292D01*
X724518Y10284D01*
X724533Y10271D01*
X724629Y10232D01*
X724723Y10189D01*
X724743Y10187D01*
X724761Y10179D01*
X724928Y10161D01*
X778244Y10161D01*
X778264Y10164D01*
X778283Y10162D01*
X778385Y10184D01*
X778487Y10200D01*
X778504Y10210D01*
X778524Y10214D01*
X778613Y10267D01*
X778704Y10316D01*
X778718Y10330D01*
X778735Y10340D01*
X778802Y10419D01*
X778874Y10494D01*
X778882Y10512D01*
X778895Y10527D01*
X778934Y10623D01*
X778977Y10717D01*
X778979Y10737D01*
X778987Y10755D01*
X779005Y10922D01*
X779005Y12975D01*
X786098Y12975D01*
X786117Y12978D01*
X786137Y12976D01*
X786239Y12998D01*
X786341Y13014D01*
X786358Y13024D01*
X786378Y13028D01*
X786467Y13081D01*
X786558Y13130D01*
X786572Y13144D01*
X786589Y13154D01*
X786592Y13158D01*
X786646Y13106D01*
X786664Y13098D01*
X786679Y13085D01*
X786776Y13046D01*
X786869Y13003D01*
X786889Y13001D01*
X786907Y12993D01*
X787074Y12975D01*
X794167Y12975D01*
X794167Y10922D01*
X794170Y10902D01*
X794168Y10883D01*
X794190Y10781D01*
X794206Y10679D01*
X794216Y10662D01*
X794220Y10642D01*
X794273Y10553D01*
X794322Y10462D01*
X794336Y10448D01*
X794346Y10431D01*
X794425Y10364D01*
X794500Y10292D01*
X794518Y10284D01*
X794533Y10271D01*
X794629Y10232D01*
X794723Y10189D01*
X794743Y10187D01*
X794761Y10179D01*
X794928Y10161D01*
X1040147Y10161D01*
X1040241Y10176D01*
X1040336Y10185D01*
X1040362Y10196D01*
X1040390Y10200D01*
X1040474Y10245D01*
X1040561Y10283D01*
X1040582Y10302D01*
X1040607Y10316D01*
X1040672Y10385D01*
X1040743Y10449D01*
X1040757Y10473D01*
X1040776Y10494D01*
X1040816Y10580D01*
X1040863Y10664D01*
X1040868Y10691D01*
X1040880Y10717D01*
X1040890Y10812D01*
X1040908Y10905D01*
X1040904Y10933D01*
X1040907Y10961D01*
X1040887Y11055D01*
X1040873Y11149D01*
X1040859Y11181D01*
X1040855Y11202D01*
X1040838Y11230D01*
X1040806Y11303D01*
X1038274Y15688D01*
X1036559Y22088D01*
X1036559Y28712D01*
X1038274Y35112D01*
X1041586Y40849D01*
X1046271Y45534D01*
X1052008Y48846D01*
X1058408Y50561D01*
X1065032Y50561D01*
X1071432Y48846D01*
X1075057Y46753D01*
X1075146Y46719D01*
X1075233Y46679D01*
X1075261Y46676D01*
X1075287Y46666D01*
X1075383Y46662D01*
X1075477Y46652D01*
X1075505Y46658D01*
X1075533Y46657D01*
X1075625Y46684D01*
X1075718Y46704D01*
X1075742Y46719D01*
X1075769Y46727D01*
X1075847Y46781D01*
X1075929Y46830D01*
X1075947Y46852D01*
X1075970Y46868D01*
X1076027Y46945D01*
X1076089Y47017D01*
X1076099Y47043D01*
X1076116Y47066D01*
X1076145Y47157D01*
X1076181Y47245D01*
X1076185Y47281D01*
X1076191Y47300D01*
X1076191Y47333D01*
X1076199Y47412D01*
X1076199Y752688D01*
X1076184Y752782D01*
X1076175Y752877D01*
X1076164Y752903D01*
X1076160Y752931D01*
X1076115Y753015D01*
X1076077Y753102D01*
X1076058Y753123D01*
X1076044Y753148D01*
X1075975Y753214D01*
X1075911Y753284D01*
X1075887Y753298D01*
X1075866Y753317D01*
X1075780Y753358D01*
X1075696Y753404D01*
X1075669Y753409D01*
X1075643Y753421D01*
X1075548Y753432D01*
X1075455Y753449D01*
X1075427Y753445D01*
X1075399Y753448D01*
X1075305Y753428D01*
X1075211Y753415D01*
X1075179Y753400D01*
X1075158Y753396D01*
X1075130Y753379D01*
X1075057Y753347D01*
X1071432Y751254D01*
X1065032Y749539D01*
X1058408Y749539D01*
X1052008Y751254D01*
X1046271Y754566D01*
X1041586Y759251D01*
X1038274Y764988D01*
X1036559Y771388D01*
X1036559Y778012D01*
X1038274Y784412D01*
X1040748Y788697D01*
X1040782Y788786D01*
X1040822Y788873D01*
X1040825Y788901D01*
X1040835Y788927D01*
X1040839Y789023D01*
X1040849Y789117D01*
X1040843Y789145D01*
X1040844Y789173D01*
X1040817Y789265D01*
X1040797Y789358D01*
X1040783Y789382D01*
X1040775Y789409D01*
X1040720Y789487D01*
X1040671Y789569D01*
X1040649Y789587D01*
X1040633Y789610D01*
X1040556Y789667D01*
X1040484Y789729D01*
X1040458Y789739D01*
X1040435Y789756D01*
X1040344Y789785D01*
X1040256Y789821D01*
X1040221Y789825D01*
X1040201Y789831D01*
X1040168Y789831D01*
X1040089Y789839D01*
X47031Y789839D01*
X46937Y789824D01*
X46842Y789815D01*
X46816Y789804D01*
X46788Y789800D01*
X46704Y789755D01*
X46617Y789717D01*
X46596Y789698D01*
X46571Y789684D01*
X46505Y789615D01*
X46435Y789551D01*
X46421Y789527D01*
X46401Y789506D01*
X46361Y789420D01*
X46315Y789336D01*
X46310Y789309D01*
X46298Y789283D01*
X46287Y789188D01*
X46270Y789095D01*
X46274Y789067D01*
X46271Y789039D01*
X46291Y788945D01*
X46304Y788851D01*
X46319Y788819D01*
X46323Y788798D01*
X46340Y788770D01*
X46372Y788697D01*
X48846Y784412D01*
X50561Y778012D01*
X50561Y771388D01*
X48846Y764988D01*
X45534Y759251D01*
X40849Y754566D01*
X35112Y751254D01*
X28712Y749539D01*
X22088Y749539D01*
X15688Y751254D01*
X11303Y753786D01*
X11214Y753820D01*
X11127Y753860D01*
X11099Y753863D01*
X11073Y753873D01*
X10977Y753877D01*
X10883Y753887D01*
X10855Y753881D01*
X10827Y753882D01*
X10735Y753855D01*
X10642Y753835D01*
X10618Y753820D01*
X10591Y753812D01*
X10513Y753757D01*
X10431Y753709D01*
X10413Y753687D01*
X10390Y753671D01*
X10333Y753594D01*
X10271Y753522D01*
X10261Y753495D01*
X10244Y753473D01*
X10215Y753382D01*
X10179Y753293D01*
X10175Y753258D01*
X10169Y753238D01*
X10169Y753205D01*
X10161Y753127D01*
X10161Y46973D01*
X10176Y46879D01*
X10185Y46784D01*
X10196Y46758D01*
X10200Y46730D01*
X10245Y46646D01*
X10283Y46559D01*
X10302Y46538D01*
X10316Y46513D01*
X10385Y46448D01*
X10449Y46377D01*
X10473Y46363D01*
X10494Y46344D01*
X10580Y46304D01*
X10664Y46257D01*
X10691Y46252D01*
X10717Y46240D01*
X10812Y46230D01*
X10905Y46212D01*
X10933Y46216D01*
X10961Y46213D01*
X11055Y46233D01*
X11149Y46247D01*
X11181Y46261D01*
X11202Y46265D01*
X11230Y46282D01*
X11303Y46314D01*
X15688Y48846D01*
X22088Y50561D01*
X28712Y50561D01*
X35112Y48846D01*
X40849Y45534D01*
X45534Y40849D01*
X48846Y35112D01*
X50561Y28712D01*
X50561Y22088D01*
X48846Y15688D01*
X46314Y11303D01*
X46280Y11214D01*
X46240Y11127D01*
X46237Y11099D01*
X46227Y11073D01*
X46223Y10977D01*
X46213Y10883D01*
X46219Y10855D01*
X46218Y10827D01*
X46245Y10735D01*
X46265Y10642D01*
X46280Y10618D01*
X46288Y10591D01*
X46343Y10513D01*
X46391Y10431D01*
X46413Y10413D01*
X46429Y10390D01*
X46506Y10333D01*
X46578Y10271D01*
X46605Y10261D01*
X46627Y10244D01*
X46718Y10215D01*
X46807Y10179D01*
X46842Y10175D01*
X46862Y10169D01*
X46895Y10169D01*
X46973Y10161D01*
X708244Y10161D01*
X708264Y10164D01*
G37*
%LPC*%
G36*
X599454Y139699D02*
X599454Y139699D01*
X594786Y141633D01*
X591213Y145206D01*
X589279Y149874D01*
X589279Y154926D01*
X591213Y159594D01*
X594786Y163167D01*
X597754Y164397D01*
X597815Y164435D01*
X597880Y164464D01*
X597919Y164499D01*
X597963Y164526D01*
X598009Y164582D01*
X598062Y164630D01*
X598087Y164676D01*
X598120Y164716D01*
X598146Y164783D01*
X598180Y164846D01*
X598189Y164897D01*
X598208Y164945D01*
X598211Y165017D01*
X598224Y165088D01*
X598216Y165139D01*
X598218Y165191D01*
X598199Y165260D01*
X598188Y165331D01*
X598164Y165377D01*
X598150Y165427D01*
X598109Y165486D01*
X598077Y165550D01*
X598039Y165587D01*
X598010Y165629D01*
X597952Y165672D01*
X597901Y165722D01*
X597838Y165757D01*
X597812Y165776D01*
X597790Y165783D01*
X597754Y165803D01*
X594786Y167033D01*
X591213Y170606D01*
X589279Y175274D01*
X589279Y180326D01*
X591213Y184994D01*
X594786Y188567D01*
X597754Y189797D01*
X597815Y189835D01*
X597880Y189864D01*
X597919Y189899D01*
X597963Y189926D01*
X598009Y189982D01*
X598062Y190030D01*
X598087Y190076D01*
X598120Y190116D01*
X598146Y190183D01*
X598180Y190246D01*
X598189Y190297D01*
X598208Y190345D01*
X598211Y190417D01*
X598224Y190488D01*
X598216Y190539D01*
X598218Y190591D01*
X598199Y190660D01*
X598188Y190731D01*
X598164Y190777D01*
X598150Y190827D01*
X598109Y190886D01*
X598077Y190950D01*
X598039Y190987D01*
X598010Y191029D01*
X597952Y191072D01*
X597901Y191122D01*
X597838Y191157D01*
X597812Y191176D01*
X597790Y191183D01*
X597754Y191203D01*
X594786Y192433D01*
X591213Y196006D01*
X589279Y200674D01*
X589279Y205726D01*
X591213Y210394D01*
X594786Y213967D01*
X597754Y215197D01*
X597815Y215235D01*
X597880Y215264D01*
X597919Y215299D01*
X597963Y215326D01*
X598009Y215382D01*
X598062Y215430D01*
X598087Y215476D01*
X598120Y215516D01*
X598146Y215583D01*
X598180Y215646D01*
X598189Y215697D01*
X598208Y215745D01*
X598211Y215817D01*
X598224Y215888D01*
X598216Y215939D01*
X598218Y215991D01*
X598199Y216060D01*
X598188Y216131D01*
X598164Y216177D01*
X598150Y216227D01*
X598109Y216286D01*
X598077Y216350D01*
X598039Y216387D01*
X598010Y216429D01*
X597952Y216472D01*
X597901Y216522D01*
X597838Y216557D01*
X597812Y216576D01*
X597790Y216583D01*
X597754Y216603D01*
X594786Y217833D01*
X591213Y221406D01*
X590802Y222399D01*
X590767Y222454D01*
X590741Y222515D01*
X590689Y222580D01*
X590672Y222608D01*
X590657Y222620D01*
X590637Y222646D01*
X588604Y224678D01*
X579059Y234223D01*
X577976Y236837D01*
X577976Y340124D01*
X579059Y342738D01*
X586161Y349840D01*
X586173Y349857D01*
X586189Y349869D01*
X586245Y349956D01*
X586305Y350040D01*
X586311Y350059D01*
X586322Y350076D01*
X586347Y350176D01*
X586377Y350275D01*
X586377Y350295D01*
X586382Y350315D01*
X586374Y350418D01*
X586371Y350521D01*
X586364Y350540D01*
X586363Y350560D01*
X586322Y350655D01*
X586287Y350752D01*
X586274Y350768D01*
X586266Y350786D01*
X586161Y350917D01*
X586133Y350946D01*
X584199Y355614D01*
X584199Y360666D01*
X586133Y365334D01*
X589706Y368907D01*
X592674Y370137D01*
X592735Y370175D01*
X592800Y370204D01*
X592839Y370239D01*
X592883Y370266D01*
X592929Y370322D01*
X592982Y370370D01*
X593007Y370416D01*
X593040Y370456D01*
X593066Y370523D01*
X593100Y370586D01*
X593109Y370637D01*
X593128Y370685D01*
X593131Y370757D01*
X593144Y370828D01*
X593136Y370879D01*
X593138Y370931D01*
X593118Y371000D01*
X593108Y371071D01*
X593084Y371117D01*
X593070Y371167D01*
X593029Y371226D01*
X592997Y371290D01*
X592959Y371327D01*
X592930Y371369D01*
X592872Y371412D01*
X592821Y371462D01*
X592758Y371497D01*
X592732Y371516D01*
X592710Y371523D01*
X592674Y371543D01*
X589706Y372773D01*
X586133Y376346D01*
X584199Y381014D01*
X584199Y386066D01*
X586133Y390734D01*
X589706Y394307D01*
X592674Y395537D01*
X592735Y395575D01*
X592800Y395604D01*
X592839Y395639D01*
X592883Y395666D01*
X592929Y395722D01*
X592982Y395770D01*
X593007Y395816D01*
X593040Y395856D01*
X593066Y395923D01*
X593100Y395986D01*
X593109Y396037D01*
X593128Y396085D01*
X593131Y396157D01*
X593144Y396228D01*
X593136Y396279D01*
X593138Y396331D01*
X593118Y396400D01*
X593108Y396471D01*
X593084Y396517D01*
X593070Y396567D01*
X593029Y396626D01*
X592997Y396690D01*
X592959Y396727D01*
X592930Y396769D01*
X592872Y396812D01*
X592821Y396862D01*
X592758Y396897D01*
X592732Y396916D01*
X592710Y396923D01*
X592674Y396943D01*
X589706Y398173D01*
X586133Y401746D01*
X584199Y406414D01*
X584199Y411466D01*
X586133Y416134D01*
X589706Y419707D01*
X592674Y420937D01*
X592735Y420975D01*
X592800Y421004D01*
X592839Y421039D01*
X592883Y421066D01*
X592929Y421122D01*
X592982Y421170D01*
X593007Y421216D01*
X593040Y421256D01*
X593066Y421323D01*
X593100Y421386D01*
X593109Y421437D01*
X593128Y421485D01*
X593131Y421557D01*
X593144Y421628D01*
X593136Y421679D01*
X593138Y421731D01*
X593118Y421800D01*
X593108Y421871D01*
X593084Y421917D01*
X593070Y421967D01*
X593029Y422026D01*
X592997Y422090D01*
X592959Y422127D01*
X592930Y422169D01*
X592872Y422212D01*
X592821Y422262D01*
X592758Y422297D01*
X592732Y422316D01*
X592710Y422323D01*
X592674Y422343D01*
X589706Y423573D01*
X586133Y427146D01*
X584199Y431814D01*
X584199Y436866D01*
X586133Y441534D01*
X589706Y445107D01*
X592674Y446337D01*
X592735Y446375D01*
X592800Y446404D01*
X592839Y446439D01*
X592883Y446466D01*
X592929Y446522D01*
X592982Y446570D01*
X593007Y446616D01*
X593040Y446656D01*
X593066Y446723D01*
X593100Y446786D01*
X593109Y446837D01*
X593128Y446885D01*
X593131Y446957D01*
X593144Y447028D01*
X593136Y447079D01*
X593138Y447131D01*
X593118Y447200D01*
X593108Y447271D01*
X593084Y447317D01*
X593070Y447367D01*
X593029Y447426D01*
X592997Y447490D01*
X592959Y447527D01*
X592930Y447569D01*
X592872Y447612D01*
X592821Y447662D01*
X592758Y447697D01*
X592732Y447716D01*
X592710Y447723D01*
X592674Y447743D01*
X589706Y448973D01*
X586133Y452546D01*
X584199Y457214D01*
X584199Y462266D01*
X586133Y466934D01*
X589706Y470507D01*
X594374Y472441D01*
X614666Y472441D01*
X619334Y470507D01*
X622907Y466934D01*
X623686Y465054D01*
X623710Y465015D01*
X623726Y464972D01*
X623775Y464911D01*
X623816Y464845D01*
X623851Y464815D01*
X623880Y464779D01*
X623945Y464737D01*
X624005Y464688D01*
X624048Y464671D01*
X624087Y464646D01*
X624162Y464627D01*
X624235Y464600D01*
X624281Y464598D01*
X624325Y464586D01*
X624403Y464592D01*
X624481Y464589D01*
X624525Y464602D01*
X624570Y464606D01*
X624642Y464636D01*
X624717Y464658D01*
X624755Y464684D01*
X624797Y464702D01*
X624903Y464787D01*
X624919Y464798D01*
X624922Y464802D01*
X624928Y464807D01*
X716493Y556372D01*
X718601Y558480D01*
X721215Y559563D01*
X790488Y559563D01*
X790579Y559577D01*
X790669Y559585D01*
X790699Y559597D01*
X790731Y559602D01*
X790812Y559645D01*
X790896Y559681D01*
X790928Y559707D01*
X790949Y559718D01*
X790971Y559741D01*
X791027Y559786D01*
X813084Y581843D01*
X813137Y581917D01*
X813197Y581987D01*
X813209Y582017D01*
X813228Y582043D01*
X813255Y582130D01*
X813289Y582215D01*
X813293Y582256D01*
X813300Y582278D01*
X813299Y582310D01*
X813307Y582382D01*
X813307Y634466D01*
X813288Y634581D01*
X813271Y634697D01*
X813269Y634703D01*
X813268Y634709D01*
X813213Y634811D01*
X813160Y634916D01*
X813155Y634921D01*
X813152Y634926D01*
X813068Y635006D01*
X812984Y635088D01*
X812978Y635092D01*
X812974Y635095D01*
X812957Y635103D01*
X812837Y635169D01*
X812218Y635426D01*
X808146Y639498D01*
X805941Y644820D01*
X805941Y650580D01*
X808146Y655902D01*
X812218Y659974D01*
X814921Y661094D01*
X814956Y661116D01*
X814996Y661130D01*
X815047Y661170D01*
X815074Y661184D01*
X815085Y661196D01*
X815130Y661223D01*
X815156Y661256D01*
X815189Y661282D01*
X815234Y661350D01*
X815286Y661413D01*
X815301Y661452D01*
X815325Y661487D01*
X815345Y661566D01*
X815375Y661642D01*
X815376Y661684D01*
X815387Y661725D01*
X815382Y661807D01*
X815385Y661888D01*
X815373Y661929D01*
X815370Y661970D01*
X815339Y662046D01*
X815316Y662124D01*
X815293Y662159D01*
X815277Y662198D01*
X815223Y662259D01*
X815176Y662326D01*
X815143Y662352D01*
X815115Y662383D01*
X814986Y662468D01*
X814979Y662473D01*
X814977Y662474D01*
X814975Y662475D01*
X814163Y662889D01*
X812642Y663994D01*
X811314Y665322D01*
X810209Y666843D01*
X809356Y668517D01*
X808775Y670304D01*
X808574Y671577D01*
X819658Y671577D01*
X819678Y671580D01*
X819697Y671578D01*
X819799Y671600D01*
X819901Y671617D01*
X819918Y671626D01*
X819938Y671630D01*
X820027Y671683D01*
X820118Y671732D01*
X820132Y671746D01*
X820149Y671756D01*
X820216Y671835D01*
X820287Y671910D01*
X820296Y671928D01*
X820309Y671943D01*
X820347Y672039D01*
X820391Y672133D01*
X820393Y672153D01*
X820401Y672171D01*
X820419Y672338D01*
X820419Y673862D01*
X820416Y673882D01*
X820418Y673901D01*
X820396Y674003D01*
X820379Y674105D01*
X820370Y674122D01*
X820366Y674142D01*
X820313Y674231D01*
X820264Y674322D01*
X820250Y674336D01*
X820240Y674353D01*
X820161Y674420D01*
X820086Y674491D01*
X820068Y674500D01*
X820053Y674513D01*
X819957Y674552D01*
X819863Y674595D01*
X819843Y674597D01*
X819825Y674605D01*
X819658Y674623D01*
X808574Y674623D01*
X808775Y675896D01*
X809356Y677683D01*
X810209Y679357D01*
X811314Y680878D01*
X812642Y682206D01*
X813245Y682644D01*
X813251Y682650D01*
X813258Y682654D01*
X813337Y682737D01*
X813418Y682819D01*
X813422Y682826D01*
X813427Y682832D01*
X813475Y682936D01*
X813526Y683040D01*
X813527Y683048D01*
X813531Y683055D01*
X813543Y683169D01*
X813558Y683284D01*
X813557Y683292D01*
X813558Y683299D01*
X813533Y683412D01*
X813511Y683525D01*
X813507Y683532D01*
X813506Y683540D01*
X813446Y683639D01*
X813389Y683739D01*
X813383Y683744D01*
X813379Y683751D01*
X813291Y683826D01*
X813206Y683903D01*
X813199Y683906D01*
X813192Y683911D01*
X813085Y683954D01*
X812980Y683999D01*
X812972Y684000D01*
X812964Y684003D01*
X812798Y684021D01*
X808917Y684021D01*
X806854Y686084D01*
X806780Y686137D01*
X806711Y686197D01*
X806681Y686209D01*
X806655Y686228D01*
X806568Y686255D01*
X806483Y686289D01*
X806442Y686293D01*
X806420Y686300D01*
X806387Y686299D01*
X806316Y686307D01*
X609420Y686307D01*
X609356Y686297D01*
X609290Y686296D01*
X609210Y686273D01*
X609178Y686268D01*
X609161Y686258D01*
X609129Y686249D01*
X608656Y686053D01*
X605624Y686053D01*
X605151Y686249D01*
X605087Y686264D01*
X605026Y686289D01*
X604943Y686298D01*
X604911Y686305D01*
X604892Y686304D01*
X604859Y686307D01*
X596678Y686307D01*
X596588Y686293D01*
X596497Y686285D01*
X596467Y686273D01*
X596435Y686268D01*
X596354Y686225D01*
X596270Y686189D01*
X596238Y686163D01*
X596218Y686152D01*
X596195Y686129D01*
X596139Y686084D01*
X595021Y684966D01*
X595010Y684950D01*
X594994Y684938D01*
X594938Y684850D01*
X594878Y684767D01*
X594872Y684748D01*
X594861Y684731D01*
X594836Y684630D01*
X594806Y684531D01*
X594806Y684512D01*
X594801Y684492D01*
X594809Y684389D01*
X594812Y684286D01*
X594819Y684267D01*
X594820Y684247D01*
X594861Y684152D01*
X594896Y684055D01*
X594909Y684039D01*
X594917Y684021D01*
X595021Y683890D01*
X597076Y681835D01*
X598933Y677353D01*
X598933Y672503D01*
X597076Y668021D01*
X593647Y664592D01*
X592594Y664156D01*
X592533Y664118D01*
X592468Y664089D01*
X592429Y664053D01*
X592385Y664026D01*
X592339Y663971D01*
X592286Y663922D01*
X592261Y663877D01*
X592228Y663836D01*
X592202Y663770D01*
X592168Y663707D01*
X592159Y663655D01*
X592140Y663607D01*
X592137Y663535D01*
X592124Y663465D01*
X592132Y663413D01*
X592130Y663361D01*
X592150Y663292D01*
X592160Y663221D01*
X592184Y663175D01*
X592198Y663125D01*
X592239Y663066D01*
X592271Y663002D01*
X592309Y662966D01*
X592338Y662923D01*
X592396Y662880D01*
X592447Y662830D01*
X592510Y662795D01*
X592536Y662776D01*
X592558Y662769D01*
X592594Y662749D01*
X596812Y661002D01*
X601814Y656000D01*
X604521Y649465D01*
X604521Y642391D01*
X601814Y635856D01*
X596812Y630854D01*
X590277Y628147D01*
X583203Y628147D01*
X576668Y630854D01*
X571666Y635856D01*
X568959Y642391D01*
X568959Y649465D01*
X571666Y656000D01*
X576668Y661002D01*
X580886Y662749D01*
X580947Y662787D01*
X581012Y662816D01*
X581051Y662851D01*
X581095Y662879D01*
X581141Y662934D01*
X581194Y662982D01*
X581219Y663028D01*
X581252Y663068D01*
X581278Y663135D01*
X581312Y663198D01*
X581321Y663249D01*
X581340Y663298D01*
X581343Y663369D01*
X581356Y663440D01*
X581348Y663491D01*
X581350Y663543D01*
X581330Y663612D01*
X581320Y663683D01*
X581296Y663730D01*
X581282Y663780D01*
X581241Y663838D01*
X581209Y663902D01*
X581171Y663939D01*
X581142Y663982D01*
X581084Y664024D01*
X581033Y664075D01*
X580970Y664109D01*
X580944Y664128D01*
X580922Y664136D01*
X580886Y664156D01*
X579833Y664592D01*
X576404Y668021D01*
X574547Y672503D01*
X574547Y677353D01*
X576404Y681835D01*
X578459Y683890D01*
X578470Y683906D01*
X578486Y683918D01*
X578542Y684006D01*
X578602Y684089D01*
X578608Y684108D01*
X578619Y684125D01*
X578644Y684226D01*
X578674Y684325D01*
X578674Y684344D01*
X578679Y684364D01*
X578671Y684467D01*
X578668Y684570D01*
X578661Y684589D01*
X578660Y684609D01*
X578620Y684703D01*
X578584Y684801D01*
X578571Y684817D01*
X578563Y684835D01*
X578459Y684966D01*
X576404Y687021D01*
X574547Y691503D01*
X574547Y696353D01*
X576404Y700835D01*
X578959Y703390D01*
X578970Y703406D01*
X578986Y703418D01*
X579042Y703506D01*
X579102Y703589D01*
X579108Y703608D01*
X579119Y703625D01*
X579144Y703726D01*
X579174Y703825D01*
X579174Y703844D01*
X579179Y703864D01*
X579171Y703967D01*
X579168Y704070D01*
X579161Y704089D01*
X579160Y704109D01*
X579119Y704204D01*
X579084Y704301D01*
X579071Y704317D01*
X579063Y704335D01*
X578959Y704466D01*
X577341Y706084D01*
X577267Y706137D01*
X577197Y706197D01*
X577167Y706209D01*
X577141Y706228D01*
X577054Y706255D01*
X576969Y706289D01*
X576928Y706293D01*
X576906Y706300D01*
X576874Y706299D01*
X576802Y706307D01*
X569318Y706307D01*
X569228Y706293D01*
X569137Y706285D01*
X569107Y706273D01*
X569075Y706268D01*
X568994Y706225D01*
X568911Y706189D01*
X568878Y706163D01*
X568858Y706152D01*
X568836Y706129D01*
X568780Y706084D01*
X548595Y685899D01*
X545794Y684739D01*
X401137Y684739D01*
X401023Y684720D01*
X400907Y684703D01*
X400901Y684701D01*
X400895Y684700D01*
X400792Y684645D01*
X400687Y684592D01*
X400683Y684587D01*
X400677Y684584D01*
X400597Y684500D01*
X400515Y684416D01*
X400511Y684410D01*
X400508Y684406D01*
X400500Y684389D01*
X400434Y684269D01*
X399375Y681712D01*
X394088Y676425D01*
X387179Y673563D01*
X379701Y673563D01*
X372792Y676425D01*
X367505Y681712D01*
X364643Y688621D01*
X364643Y696099D01*
X367505Y703008D01*
X372792Y708295D01*
X379701Y711157D01*
X387179Y711157D01*
X394088Y708295D01*
X399375Y703008D01*
X400434Y700451D01*
X400496Y700351D01*
X400556Y700251D01*
X400560Y700247D01*
X400564Y700242D01*
X400654Y700167D01*
X400743Y700091D01*
X400748Y700089D01*
X400753Y700085D01*
X400862Y700043D01*
X400971Y699999D01*
X400978Y699998D01*
X400983Y699997D01*
X401001Y699996D01*
X401137Y699981D01*
X540806Y699981D01*
X540896Y699995D01*
X540987Y700003D01*
X541017Y700015D01*
X541049Y700020D01*
X541130Y700063D01*
X541213Y700099D01*
X541246Y700125D01*
X541266Y700136D01*
X541288Y700159D01*
X541344Y700204D01*
X561529Y720389D01*
X564330Y721549D01*
X576802Y721549D01*
X576892Y721563D01*
X576983Y721571D01*
X577013Y721583D01*
X577045Y721588D01*
X577126Y721631D01*
X577210Y721667D01*
X577242Y721693D01*
X577262Y721704D01*
X577285Y721727D01*
X577341Y721772D01*
X579932Y724363D01*
X579959Y724400D01*
X579992Y724431D01*
X580030Y724500D01*
X580075Y724563D01*
X580089Y724607D01*
X580111Y724647D01*
X580125Y724724D01*
X580148Y724798D01*
X580147Y724844D01*
X580155Y724889D01*
X580143Y724966D01*
X580141Y725044D01*
X580126Y725087D01*
X580119Y725132D01*
X580084Y725202D01*
X580057Y725275D01*
X580028Y725311D01*
X580007Y725351D01*
X579952Y725406D01*
X579903Y725467D01*
X579865Y725492D01*
X579832Y725524D01*
X579712Y725590D01*
X579696Y725600D01*
X579692Y725601D01*
X579685Y725605D01*
X576668Y726854D01*
X571666Y731856D01*
X568959Y738391D01*
X568959Y745465D01*
X571666Y752000D01*
X576668Y757002D01*
X583203Y759709D01*
X590277Y759709D01*
X596812Y757002D01*
X601814Y752000D01*
X604521Y745465D01*
X604521Y738391D01*
X601814Y731856D01*
X596812Y726854D01*
X593795Y725605D01*
X593756Y725580D01*
X593713Y725565D01*
X593652Y725516D01*
X593586Y725475D01*
X593557Y725440D01*
X593521Y725411D01*
X593479Y725346D01*
X593429Y725286D01*
X593413Y725243D01*
X593388Y725204D01*
X593369Y725128D01*
X593341Y725056D01*
X593339Y725010D01*
X593328Y724966D01*
X593334Y724888D01*
X593331Y724810D01*
X593343Y724766D01*
X593347Y724720D01*
X593377Y724649D01*
X593399Y724574D01*
X593425Y724536D01*
X593443Y724494D01*
X593529Y724387D01*
X593539Y724372D01*
X593543Y724369D01*
X593548Y724363D01*
X597076Y720835D01*
X598933Y716353D01*
X598933Y711503D01*
X597076Y707021D01*
X594521Y704466D01*
X594510Y704450D01*
X594494Y704438D01*
X594438Y704350D01*
X594378Y704267D01*
X594372Y704248D01*
X594361Y704231D01*
X594336Y704130D01*
X594306Y704031D01*
X594306Y704012D01*
X594301Y703992D01*
X594309Y703889D01*
X594312Y703786D01*
X594319Y703767D01*
X594320Y703747D01*
X594361Y703652D01*
X594396Y703555D01*
X594409Y703539D01*
X594417Y703521D01*
X594521Y703390D01*
X596139Y701772D01*
X596213Y701719D01*
X596283Y701659D01*
X596313Y701647D01*
X596339Y701628D01*
X596426Y701601D01*
X596511Y701567D01*
X596552Y701563D01*
X596574Y701556D01*
X596606Y701557D01*
X596678Y701549D01*
X805180Y701549D01*
X805200Y701552D01*
X805219Y701550D01*
X805321Y701572D01*
X805423Y701588D01*
X805440Y701598D01*
X805460Y701602D01*
X805549Y701655D01*
X805640Y701704D01*
X805654Y701718D01*
X805671Y701728D01*
X805738Y701807D01*
X805810Y701882D01*
X805818Y701900D01*
X805831Y701915D01*
X805870Y702011D01*
X805913Y702105D01*
X805915Y702125D01*
X805923Y702143D01*
X805941Y702310D01*
X805941Y710003D01*
X808917Y712979D01*
X831923Y712979D01*
X834899Y710003D01*
X834899Y686997D01*
X831923Y684021D01*
X828042Y684021D01*
X828035Y684020D01*
X828027Y684021D01*
X827913Y684000D01*
X827800Y683982D01*
X827793Y683978D01*
X827785Y683976D01*
X827684Y683920D01*
X827582Y683866D01*
X827577Y683861D01*
X827570Y683857D01*
X827492Y683772D01*
X827413Y683688D01*
X827410Y683681D01*
X827404Y683675D01*
X827358Y683569D01*
X827309Y683465D01*
X827308Y683457D01*
X827305Y683450D01*
X827295Y683335D01*
X827282Y683221D01*
X827284Y683213D01*
X827283Y683205D01*
X827310Y683092D01*
X827334Y682980D01*
X827339Y682973D01*
X827340Y682966D01*
X827402Y682867D01*
X827461Y682769D01*
X827467Y682764D01*
X827471Y682757D01*
X827595Y682644D01*
X828198Y682206D01*
X829526Y680878D01*
X830631Y679357D01*
X831484Y677683D01*
X832065Y675896D01*
X832266Y674623D01*
X821182Y674623D01*
X821162Y674620D01*
X821143Y674622D01*
X821041Y674600D01*
X820939Y674583D01*
X820922Y674574D01*
X820902Y674570D01*
X820813Y674517D01*
X820722Y674468D01*
X820708Y674454D01*
X820691Y674444D01*
X820624Y674365D01*
X820553Y674290D01*
X820544Y674272D01*
X820531Y674257D01*
X820493Y674161D01*
X820449Y674067D01*
X820447Y674047D01*
X820439Y674029D01*
X820421Y673862D01*
X820421Y672338D01*
X820424Y672318D01*
X820422Y672299D01*
X820444Y672197D01*
X820461Y672095D01*
X820470Y672078D01*
X820474Y672058D01*
X820527Y671969D01*
X820576Y671878D01*
X820590Y671864D01*
X820600Y671847D01*
X820679Y671780D01*
X820754Y671709D01*
X820772Y671700D01*
X820787Y671687D01*
X820883Y671648D01*
X820977Y671605D01*
X820997Y671603D01*
X821015Y671595D01*
X821182Y671577D01*
X832266Y671577D01*
X832065Y670304D01*
X831484Y668517D01*
X830631Y666843D01*
X829526Y665322D01*
X828198Y663994D01*
X826677Y662889D01*
X825865Y662475D01*
X825831Y662450D01*
X825793Y662433D01*
X825733Y662378D01*
X825667Y662330D01*
X825643Y662295D01*
X825612Y662267D01*
X825572Y662195D01*
X825525Y662128D01*
X825514Y662088D01*
X825493Y662051D01*
X825479Y661971D01*
X825456Y661893D01*
X825457Y661851D01*
X825450Y661809D01*
X825462Y661728D01*
X825464Y661647D01*
X825479Y661608D01*
X825485Y661566D01*
X825522Y661493D01*
X825551Y661417D01*
X825578Y661384D01*
X825597Y661347D01*
X825643Y661301D01*
X825644Y661300D01*
X825649Y661295D01*
X825655Y661290D01*
X825707Y661226D01*
X825743Y661204D01*
X825772Y661175D01*
X825823Y661147D01*
X825831Y661140D01*
X825848Y661133D01*
X825908Y661100D01*
X825915Y661095D01*
X825917Y661095D01*
X825919Y661094D01*
X828622Y659974D01*
X832694Y655902D01*
X834899Y650580D01*
X834899Y644820D01*
X832694Y639498D01*
X828622Y635426D01*
X828003Y635169D01*
X827903Y635107D01*
X827803Y635048D01*
X827799Y635043D01*
X827794Y635040D01*
X827719Y634949D01*
X827643Y634861D01*
X827641Y634855D01*
X827637Y634850D01*
X827595Y634741D01*
X827551Y634633D01*
X827550Y634625D01*
X827549Y634620D01*
X827548Y634602D01*
X827533Y634466D01*
X827533Y454308D01*
X827547Y454218D01*
X827555Y454127D01*
X827567Y454097D01*
X827572Y454065D01*
X827615Y453985D01*
X827651Y453901D01*
X827677Y453869D01*
X827688Y453848D01*
X827711Y453826D01*
X827756Y453770D01*
X891423Y390103D01*
X891460Y390076D01*
X891491Y390042D01*
X891559Y390005D01*
X891622Y389959D01*
X891666Y389946D01*
X891706Y389924D01*
X891783Y389910D01*
X891857Y389887D01*
X891903Y389888D01*
X891949Y389880D01*
X892026Y389891D01*
X892103Y389893D01*
X892146Y389909D01*
X892192Y389916D01*
X892261Y389951D01*
X892334Y389978D01*
X892370Y390007D01*
X892411Y390027D01*
X892466Y390083D01*
X892526Y390132D01*
X892551Y390170D01*
X892583Y390203D01*
X892649Y390323D01*
X892659Y390338D01*
X892661Y390343D01*
X892664Y390350D01*
X893981Y393528D01*
X897554Y397101D01*
X902222Y399035D01*
X922514Y399035D01*
X927182Y397101D01*
X930755Y393528D01*
X932689Y388860D01*
X932689Y383808D01*
X930755Y379140D01*
X927182Y375567D01*
X922514Y373633D01*
X909730Y373633D01*
X909659Y373622D01*
X909588Y373620D01*
X909539Y373602D01*
X909487Y373594D01*
X909424Y373560D01*
X909357Y373535D01*
X909316Y373503D01*
X909270Y373478D01*
X909221Y373427D01*
X909165Y373382D01*
X909136Y373338D01*
X909101Y373300D01*
X909070Y373235D01*
X909032Y373175D01*
X909019Y373124D01*
X908997Y373077D01*
X908989Y373006D01*
X908972Y372936D01*
X908976Y372884D01*
X908970Y372833D01*
X908985Y372762D01*
X908991Y372691D01*
X909011Y372643D01*
X909022Y372592D01*
X909059Y372531D01*
X909087Y372465D01*
X909132Y372409D01*
X909148Y372381D01*
X909166Y372366D01*
X909192Y372334D01*
X986410Y295116D01*
X986489Y295059D01*
X986564Y294997D01*
X986588Y294988D01*
X986609Y294972D01*
X986702Y294944D01*
X986793Y294909D01*
X986819Y294908D01*
X986845Y294900D01*
X986942Y294903D01*
X987039Y294898D01*
X987064Y294906D01*
X987090Y294906D01*
X987182Y294940D01*
X987275Y294967D01*
X987297Y294982D01*
X987321Y294991D01*
X987398Y295052D01*
X987477Y295107D01*
X987493Y295128D01*
X987513Y295145D01*
X987566Y295226D01*
X987624Y295305D01*
X987632Y295329D01*
X987646Y295351D01*
X987670Y295446D01*
X987700Y295538D01*
X987700Y295565D01*
X987707Y295590D01*
X987699Y295687D01*
X987698Y295784D01*
X987689Y295816D01*
X987687Y295835D01*
X987675Y295865D01*
X987651Y295945D01*
X986281Y299253D01*
X986281Y305013D01*
X988486Y310335D01*
X992446Y314295D01*
X992457Y314311D01*
X992473Y314323D01*
X992529Y314411D01*
X992589Y314494D01*
X992595Y314513D01*
X992606Y314530D01*
X992631Y314631D01*
X992662Y314730D01*
X992661Y314749D01*
X992666Y314769D01*
X992658Y314872D01*
X992655Y314975D01*
X992648Y314994D01*
X992647Y315014D01*
X992607Y315109D01*
X992571Y315206D01*
X992558Y315222D01*
X992551Y315240D01*
X992446Y315371D01*
X988486Y319331D01*
X986281Y324653D01*
X986281Y330413D01*
X988486Y335735D01*
X992558Y339807D01*
X997880Y342012D01*
X1003640Y342012D01*
X1008962Y339807D01*
X1013034Y335735D01*
X1015239Y330413D01*
X1015239Y324653D01*
X1013034Y319331D01*
X1009074Y315371D01*
X1009063Y315355D01*
X1009047Y315343D01*
X1008991Y315255D01*
X1008931Y315172D01*
X1008925Y315153D01*
X1008914Y315136D01*
X1008889Y315035D01*
X1008858Y314936D01*
X1008859Y314917D01*
X1008854Y314897D01*
X1008862Y314794D01*
X1008865Y314691D01*
X1008872Y314672D01*
X1008873Y314652D01*
X1008914Y314557D01*
X1008949Y314460D01*
X1008962Y314444D01*
X1008969Y314426D01*
X1009074Y314295D01*
X1013034Y310335D01*
X1015239Y305013D01*
X1015239Y299253D01*
X1013034Y293931D01*
X1009201Y290098D01*
X1009159Y290040D01*
X1009110Y289988D01*
X1009088Y289941D01*
X1009058Y289899D01*
X1009037Y289830D01*
X1009006Y289765D01*
X1009001Y289713D01*
X1008985Y289663D01*
X1008987Y289592D01*
X1008979Y289521D01*
X1008990Y289470D01*
X1008992Y289418D01*
X1009016Y289350D01*
X1009032Y289280D01*
X1009058Y289235D01*
X1009076Y289187D01*
X1009121Y289131D01*
X1009158Y289069D01*
X1009197Y289035D01*
X1009230Y288995D01*
X1009290Y288956D01*
X1009345Y288909D01*
X1009393Y288890D01*
X1009437Y288862D01*
X1009506Y288844D01*
X1009573Y288817D01*
X1009644Y288809D01*
X1009675Y288801D01*
X1009699Y288803D01*
X1009740Y288799D01*
X1017161Y288799D01*
X1019775Y287716D01*
X1021883Y285608D01*
X1030194Y277297D01*
X1030252Y277255D01*
X1030304Y277206D01*
X1030351Y277184D01*
X1030393Y277154D01*
X1030462Y277133D01*
X1030527Y277102D01*
X1030579Y277097D01*
X1030629Y277081D01*
X1030700Y277083D01*
X1030771Y277075D01*
X1030822Y277086D01*
X1030874Y277088D01*
X1030942Y277112D01*
X1031012Y277127D01*
X1031057Y277154D01*
X1031105Y277172D01*
X1031161Y277217D01*
X1031223Y277254D01*
X1031257Y277293D01*
X1031297Y277326D01*
X1031336Y277386D01*
X1031383Y277441D01*
X1031402Y277489D01*
X1031430Y277533D01*
X1031448Y277602D01*
X1031475Y277669D01*
X1031483Y277740D01*
X1031491Y277771D01*
X1031489Y277795D01*
X1031493Y277835D01*
X1031493Y279740D01*
X1033698Y285062D01*
X1037658Y289022D01*
X1037669Y289038D01*
X1037685Y289050D01*
X1037715Y289098D01*
X1037728Y289111D01*
X1037740Y289135D01*
X1037741Y289138D01*
X1037801Y289221D01*
X1037807Y289240D01*
X1037818Y289257D01*
X1037843Y289358D01*
X1037874Y289457D01*
X1037873Y289476D01*
X1037878Y289496D01*
X1037870Y289599D01*
X1037867Y289702D01*
X1037860Y289721D01*
X1037859Y289741D01*
X1037818Y289836D01*
X1037783Y289933D01*
X1037770Y289949D01*
X1037763Y289967D01*
X1037658Y290098D01*
X1033698Y294058D01*
X1031493Y299380D01*
X1031493Y305140D01*
X1033698Y310462D01*
X1037658Y314422D01*
X1037669Y314438D01*
X1037685Y314450D01*
X1037741Y314538D01*
X1037801Y314621D01*
X1037807Y314640D01*
X1037818Y314657D01*
X1037843Y314758D01*
X1037874Y314857D01*
X1037873Y314876D01*
X1037878Y314896D01*
X1037870Y314999D01*
X1037867Y315102D01*
X1037860Y315121D01*
X1037859Y315141D01*
X1037818Y315236D01*
X1037783Y315333D01*
X1037770Y315349D01*
X1037763Y315367D01*
X1037658Y315498D01*
X1033698Y319458D01*
X1031493Y324780D01*
X1031493Y330540D01*
X1033698Y335862D01*
X1037770Y339934D01*
X1043092Y342139D01*
X1048852Y342139D01*
X1054174Y339934D01*
X1058246Y335862D01*
X1060451Y330540D01*
X1060451Y324780D01*
X1058246Y319458D01*
X1054286Y315498D01*
X1054275Y315482D01*
X1054259Y315470D01*
X1054203Y315382D01*
X1054143Y315299D01*
X1054137Y315280D01*
X1054126Y315263D01*
X1054101Y315162D01*
X1054070Y315063D01*
X1054071Y315044D01*
X1054066Y315024D01*
X1054074Y314921D01*
X1054077Y314818D01*
X1054084Y314799D01*
X1054085Y314779D01*
X1054125Y314684D01*
X1054161Y314587D01*
X1054174Y314571D01*
X1054181Y314553D01*
X1054286Y314422D01*
X1058246Y310462D01*
X1060451Y305140D01*
X1060451Y299380D01*
X1058246Y294058D01*
X1054286Y290098D01*
X1054275Y290082D01*
X1054259Y290070D01*
X1054203Y289982D01*
X1054143Y289899D01*
X1054137Y289880D01*
X1054126Y289863D01*
X1054101Y289762D01*
X1054070Y289663D01*
X1054071Y289644D01*
X1054066Y289624D01*
X1054074Y289521D01*
X1054077Y289418D01*
X1054084Y289399D01*
X1054085Y289379D01*
X1054125Y289284D01*
X1054161Y289187D01*
X1054174Y289171D01*
X1054181Y289153D01*
X1054259Y289056D01*
X1054263Y289049D01*
X1054268Y289045D01*
X1054286Y289022D01*
X1058246Y285062D01*
X1060451Y279740D01*
X1060451Y273980D01*
X1058246Y268658D01*
X1058238Y268650D01*
X1058226Y268633D01*
X1058210Y268621D01*
X1058154Y268534D01*
X1058094Y268450D01*
X1058088Y268431D01*
X1058077Y268414D01*
X1058052Y268314D01*
X1058022Y268215D01*
X1058022Y268195D01*
X1058017Y268176D01*
X1058025Y268073D01*
X1058028Y267969D01*
X1058035Y267950D01*
X1058036Y267930D01*
X1058077Y267835D01*
X1058112Y267738D01*
X1058125Y267722D01*
X1058133Y267704D01*
X1058238Y267573D01*
X1064956Y260855D01*
X1066039Y258241D01*
X1066039Y244679D01*
X1064956Y242065D01*
X1055367Y232476D01*
X1052753Y231393D01*
X1039191Y231393D01*
X1036577Y232476D01*
X1033565Y235488D01*
X1033491Y235541D01*
X1033422Y235601D01*
X1033391Y235613D01*
X1033365Y235632D01*
X1033278Y235659D01*
X1033193Y235693D01*
X1033153Y235697D01*
X1033130Y235704D01*
X1033098Y235703D01*
X1033027Y235711D01*
X908561Y235711D01*
X908516Y235704D01*
X908470Y235706D01*
X908395Y235684D01*
X908318Y235672D01*
X908278Y235650D01*
X908233Y235637D01*
X908169Y235593D01*
X908101Y235556D01*
X908069Y235523D01*
X908031Y235497D01*
X907985Y235434D01*
X907931Y235378D01*
X907912Y235336D01*
X907885Y235300D01*
X907861Y235226D01*
X907828Y235155D01*
X907823Y235109D01*
X907808Y235066D01*
X907809Y234988D01*
X907801Y234911D01*
X907810Y234866D01*
X907811Y234820D01*
X907849Y234688D01*
X907853Y234670D01*
X907855Y234666D01*
X907858Y234659D01*
X909321Y231126D01*
X909321Y226074D01*
X907387Y221406D01*
X903814Y217833D01*
X900846Y216603D01*
X900785Y216566D01*
X900720Y216536D01*
X900681Y216501D01*
X900637Y216474D01*
X900591Y216419D01*
X900538Y216370D01*
X900513Y216324D01*
X900480Y216284D01*
X900454Y216217D01*
X900420Y216154D01*
X900411Y216103D01*
X900392Y216055D01*
X900389Y215983D01*
X900376Y215912D01*
X900384Y215861D01*
X900382Y215809D01*
X900402Y215740D01*
X900412Y215669D01*
X900436Y215623D01*
X900450Y215573D01*
X900491Y215514D01*
X900523Y215450D01*
X900561Y215413D01*
X900590Y215371D01*
X900648Y215328D01*
X900699Y215278D01*
X900762Y215243D01*
X900788Y215224D01*
X900810Y215217D01*
X900846Y215197D01*
X903814Y213967D01*
X907387Y210394D01*
X909321Y205726D01*
X909321Y200674D01*
X907387Y196006D01*
X903814Y192433D01*
X900846Y191203D01*
X900785Y191166D01*
X900720Y191136D01*
X900681Y191101D01*
X900637Y191074D01*
X900591Y191019D01*
X900538Y190970D01*
X900513Y190924D01*
X900480Y190884D01*
X900454Y190817D01*
X900420Y190754D01*
X900411Y190703D01*
X900392Y190655D01*
X900389Y190583D01*
X900376Y190512D01*
X900384Y190461D01*
X900382Y190409D01*
X900402Y190340D01*
X900412Y190269D01*
X900436Y190223D01*
X900450Y190173D01*
X900491Y190114D01*
X900523Y190050D01*
X900561Y190013D01*
X900590Y189971D01*
X900648Y189928D01*
X900699Y189878D01*
X900762Y189843D01*
X900788Y189824D01*
X900810Y189817D01*
X900846Y189797D01*
X903814Y188567D01*
X907387Y184994D01*
X909321Y180326D01*
X909321Y175274D01*
X907387Y170606D01*
X903814Y167033D01*
X899146Y165099D01*
X878854Y165099D01*
X874186Y167033D01*
X870613Y170606D01*
X868679Y175274D01*
X868679Y180326D01*
X870613Y184994D01*
X874186Y188567D01*
X877154Y189797D01*
X877215Y189835D01*
X877280Y189864D01*
X877319Y189899D01*
X877363Y189926D01*
X877409Y189982D01*
X877462Y190030D01*
X877487Y190076D01*
X877520Y190116D01*
X877546Y190183D01*
X877580Y190246D01*
X877589Y190297D01*
X877608Y190345D01*
X877611Y190417D01*
X877624Y190488D01*
X877616Y190539D01*
X877618Y190591D01*
X877598Y190660D01*
X877588Y190731D01*
X877564Y190777D01*
X877550Y190827D01*
X877509Y190886D01*
X877477Y190950D01*
X877439Y190987D01*
X877410Y191029D01*
X877352Y191072D01*
X877301Y191122D01*
X877238Y191157D01*
X877212Y191176D01*
X877190Y191183D01*
X877154Y191203D01*
X874186Y192433D01*
X870613Y196006D01*
X868679Y200674D01*
X868679Y205726D01*
X870613Y210394D01*
X874186Y213967D01*
X877154Y215197D01*
X877215Y215235D01*
X877280Y215264D01*
X877319Y215299D01*
X877363Y215326D01*
X877409Y215382D01*
X877462Y215430D01*
X877487Y215476D01*
X877520Y215516D01*
X877546Y215583D01*
X877580Y215646D01*
X877589Y215697D01*
X877608Y215745D01*
X877611Y215817D01*
X877624Y215888D01*
X877616Y215939D01*
X877618Y215991D01*
X877598Y216060D01*
X877588Y216131D01*
X877564Y216177D01*
X877550Y216227D01*
X877509Y216286D01*
X877477Y216350D01*
X877439Y216387D01*
X877410Y216429D01*
X877352Y216472D01*
X877301Y216522D01*
X877238Y216557D01*
X877212Y216576D01*
X877190Y216583D01*
X877154Y216603D01*
X874186Y217833D01*
X870613Y221406D01*
X868679Y226074D01*
X868679Y231126D01*
X870037Y234405D01*
X870048Y234449D01*
X870067Y234491D01*
X870076Y234568D01*
X870093Y234644D01*
X870089Y234690D01*
X870094Y234735D01*
X870078Y234812D01*
X870070Y234889D01*
X870052Y234931D01*
X870042Y234976D01*
X870002Y235043D01*
X869970Y235114D01*
X869939Y235148D01*
X869916Y235187D01*
X869857Y235238D01*
X869804Y235295D01*
X869764Y235317D01*
X869729Y235347D01*
X869657Y235376D01*
X869588Y235413D01*
X869543Y235422D01*
X869501Y235439D01*
X869365Y235454D01*
X869346Y235457D01*
X869341Y235456D01*
X869334Y235457D01*
X803638Y235457D01*
X801024Y236540D01*
X682310Y355254D01*
X681227Y357868D01*
X681227Y400229D01*
X681213Y400319D01*
X681205Y400410D01*
X681193Y400439D01*
X681188Y400471D01*
X681145Y400552D01*
X681109Y400636D01*
X681083Y400668D01*
X681072Y400689D01*
X681049Y400711D01*
X681004Y400767D01*
X679151Y402620D01*
X679077Y402673D01*
X679008Y402733D01*
X678977Y402745D01*
X678951Y402764D01*
X678864Y402791D01*
X678779Y402825D01*
X678738Y402829D01*
X678716Y402836D01*
X678684Y402835D01*
X678613Y402843D01*
X623870Y402843D01*
X623756Y402824D01*
X623640Y402807D01*
X623634Y402805D01*
X623628Y402804D01*
X623525Y402749D01*
X623420Y402696D01*
X623416Y402691D01*
X623410Y402688D01*
X623331Y402604D01*
X623248Y402520D01*
X623244Y402514D01*
X623241Y402510D01*
X623233Y402493D01*
X623167Y402373D01*
X622907Y401746D01*
X619334Y398173D01*
X616366Y396943D01*
X616305Y396906D01*
X616240Y396876D01*
X616201Y396841D01*
X616157Y396814D01*
X616111Y396759D01*
X616058Y396710D01*
X616033Y396664D01*
X616000Y396624D01*
X615974Y396557D01*
X615940Y396494D01*
X615931Y396443D01*
X615912Y396395D01*
X615909Y396323D01*
X615896Y396252D01*
X615904Y396201D01*
X615902Y396149D01*
X615922Y396080D01*
X615932Y396009D01*
X615956Y395963D01*
X615970Y395913D01*
X616011Y395854D01*
X616043Y395790D01*
X616081Y395753D01*
X616110Y395711D01*
X616168Y395668D01*
X616219Y395618D01*
X616282Y395583D01*
X616308Y395564D01*
X616330Y395557D01*
X616366Y395537D01*
X619334Y394307D01*
X622907Y390734D01*
X624841Y386066D01*
X624841Y381014D01*
X622907Y376346D01*
X622879Y376317D01*
X622867Y376301D01*
X622851Y376288D01*
X622795Y376201D01*
X622735Y376117D01*
X622729Y376098D01*
X622718Y376081D01*
X622693Y375981D01*
X622663Y375882D01*
X622663Y375862D01*
X622658Y375843D01*
X622666Y375740D01*
X622669Y375636D01*
X622676Y375617D01*
X622677Y375598D01*
X622718Y375503D01*
X622753Y375405D01*
X622766Y375390D01*
X622774Y375371D01*
X622879Y375240D01*
X633310Y364809D01*
X633347Y364782D01*
X633379Y364748D01*
X633447Y364711D01*
X633510Y364665D01*
X633554Y364652D01*
X633594Y364630D01*
X633671Y364616D01*
X633745Y364593D01*
X633791Y364594D01*
X633836Y364586D01*
X633913Y364597D01*
X633991Y364599D01*
X634034Y364615D01*
X634079Y364622D01*
X634149Y364657D01*
X634222Y364684D01*
X634258Y364712D01*
X634299Y364733D01*
X634353Y364789D01*
X634414Y364837D01*
X634439Y364876D01*
X634471Y364909D01*
X634537Y365029D01*
X634547Y365044D01*
X634548Y365049D01*
X634552Y365056D01*
X634664Y365326D01*
X638624Y369286D01*
X638635Y369302D01*
X638651Y369314D01*
X638707Y369402D01*
X638767Y369485D01*
X638773Y369504D01*
X638784Y369521D01*
X638809Y369622D01*
X638840Y369721D01*
X638839Y369740D01*
X638844Y369760D01*
X638836Y369863D01*
X638833Y369966D01*
X638826Y369985D01*
X638825Y370005D01*
X638784Y370100D01*
X638749Y370197D01*
X638736Y370213D01*
X638729Y370231D01*
X638624Y370362D01*
X634664Y374322D01*
X632459Y379644D01*
X632459Y385404D01*
X634664Y390726D01*
X638736Y394798D01*
X644058Y397003D01*
X649818Y397003D01*
X655140Y394798D01*
X659212Y390726D01*
X661417Y385404D01*
X661417Y379644D01*
X659212Y374322D01*
X655252Y370362D01*
X655241Y370346D01*
X655225Y370334D01*
X655169Y370246D01*
X655109Y370163D01*
X655103Y370144D01*
X655092Y370127D01*
X655067Y370026D01*
X655036Y369927D01*
X655037Y369908D01*
X655032Y369888D01*
X655040Y369785D01*
X655043Y369682D01*
X655050Y369663D01*
X655051Y369643D01*
X655091Y369548D01*
X655127Y369451D01*
X655140Y369435D01*
X655147Y369417D01*
X655252Y369286D01*
X659212Y365326D01*
X661417Y360004D01*
X661417Y354244D01*
X659212Y348922D01*
X655140Y344850D01*
X649818Y342645D01*
X644058Y342645D01*
X638720Y344856D01*
X638676Y344867D01*
X638634Y344886D01*
X638557Y344895D01*
X638481Y344912D01*
X638435Y344908D01*
X638390Y344913D01*
X638313Y344897D01*
X638236Y344889D01*
X638194Y344871D01*
X638149Y344861D01*
X638082Y344821D01*
X638011Y344789D01*
X637977Y344758D01*
X637938Y344735D01*
X637887Y344676D01*
X637830Y344623D01*
X637808Y344583D01*
X637778Y344548D01*
X637749Y344476D01*
X637712Y344407D01*
X637703Y344362D01*
X637686Y344320D01*
X637671Y344184D01*
X637668Y344165D01*
X637669Y344160D01*
X637668Y344153D01*
X637668Y180322D01*
X636585Y177708D01*
X630647Y171770D01*
X628234Y170771D01*
X628178Y170736D01*
X628118Y170710D01*
X628053Y170658D01*
X628025Y170641D01*
X628013Y170626D01*
X627987Y170606D01*
X624414Y167033D01*
X621446Y165803D01*
X621385Y165765D01*
X621320Y165736D01*
X621281Y165701D01*
X621237Y165674D01*
X621191Y165618D01*
X621138Y165570D01*
X621113Y165524D01*
X621080Y165484D01*
X621054Y165417D01*
X621020Y165354D01*
X621011Y165303D01*
X620992Y165255D01*
X620989Y165183D01*
X620976Y165112D01*
X620984Y165061D01*
X620982Y165009D01*
X621001Y164940D01*
X621012Y164869D01*
X621036Y164823D01*
X621050Y164773D01*
X621091Y164714D01*
X621123Y164650D01*
X621161Y164613D01*
X621190Y164571D01*
X621248Y164528D01*
X621299Y164478D01*
X621362Y164443D01*
X621388Y164424D01*
X621410Y164417D01*
X621446Y164397D01*
X624414Y163167D01*
X627987Y159594D01*
X629921Y154926D01*
X629921Y149874D01*
X627987Y145206D01*
X624414Y141633D01*
X619746Y139699D01*
X599454Y139699D01*
G37*
%LPD*%
G36*
X950338Y309287D02*
X950338Y309287D01*
X950436Y309290D01*
X950460Y309299D01*
X950487Y309301D01*
X950576Y309341D01*
X950667Y309374D01*
X950687Y309391D01*
X950711Y309401D01*
X950783Y309467D01*
X950859Y309528D01*
X950873Y309550D01*
X950892Y309568D01*
X950939Y309653D01*
X950992Y309735D01*
X950998Y309760D01*
X951011Y309783D01*
X951028Y309879D01*
X951052Y309974D01*
X951050Y310000D01*
X951055Y310025D01*
X951040Y310122D01*
X951033Y310219D01*
X951023Y310243D01*
X951019Y310269D01*
X950975Y310356D01*
X950937Y310445D01*
X950916Y310470D01*
X950907Y310488D01*
X950884Y310511D01*
X950832Y310576D01*
X816498Y444910D01*
X814390Y447018D01*
X813307Y449632D01*
X813307Y560111D01*
X813296Y560181D01*
X813294Y560253D01*
X813276Y560302D01*
X813268Y560353D01*
X813234Y560417D01*
X813209Y560484D01*
X813177Y560525D01*
X813152Y560571D01*
X813100Y560620D01*
X813056Y560676D01*
X813012Y560704D01*
X812974Y560740D01*
X812909Y560770D01*
X812849Y560809D01*
X812798Y560822D01*
X812751Y560844D01*
X812680Y560852D01*
X812610Y560869D01*
X812558Y560865D01*
X812507Y560871D01*
X812436Y560856D01*
X812365Y560850D01*
X812317Y560830D01*
X812266Y560819D01*
X812205Y560782D01*
X812139Y560754D01*
X812083Y560709D01*
X812055Y560692D01*
X812040Y560675D01*
X812008Y560649D01*
X797779Y546420D01*
X795165Y545337D01*
X725892Y545337D01*
X725801Y545323D01*
X725711Y545315D01*
X725681Y545303D01*
X725649Y545298D01*
X725568Y545255D01*
X725484Y545219D01*
X725452Y545193D01*
X725431Y545182D01*
X725415Y545166D01*
X725414Y545165D01*
X725405Y545156D01*
X725353Y545114D01*
X622879Y442640D01*
X622867Y442623D01*
X622851Y442611D01*
X622795Y442523D01*
X622735Y442440D01*
X622729Y442421D01*
X622718Y442404D01*
X622693Y442304D01*
X622663Y442205D01*
X622663Y442185D01*
X622658Y442166D01*
X622666Y442063D01*
X622669Y441959D01*
X622676Y441940D01*
X622677Y441920D01*
X622718Y441826D01*
X622753Y441728D01*
X622766Y441712D01*
X622774Y441694D01*
X622879Y441563D01*
X622907Y441534D01*
X624841Y436866D01*
X624841Y431814D01*
X622907Y427146D01*
X619334Y423573D01*
X616366Y422343D01*
X616305Y422306D01*
X616240Y422276D01*
X616201Y422241D01*
X616157Y422214D01*
X616111Y422159D01*
X616058Y422110D01*
X616033Y422064D01*
X616000Y422024D01*
X615974Y421957D01*
X615940Y421894D01*
X615931Y421843D01*
X615912Y421795D01*
X615909Y421723D01*
X615896Y421652D01*
X615904Y421601D01*
X615902Y421549D01*
X615922Y421480D01*
X615932Y421409D01*
X615956Y421363D01*
X615970Y421313D01*
X616011Y421254D01*
X616043Y421190D01*
X616081Y421153D01*
X616110Y421111D01*
X616168Y421068D01*
X616219Y421018D01*
X616282Y420983D01*
X616308Y420964D01*
X616330Y420957D01*
X616366Y420937D01*
X619334Y419707D01*
X621750Y417292D01*
X621824Y417239D01*
X621893Y417179D01*
X621923Y417167D01*
X621950Y417148D01*
X622037Y417121D01*
X622121Y417087D01*
X622162Y417083D01*
X622185Y417076D01*
X622217Y417077D01*
X622288Y417069D01*
X678613Y417069D01*
X678703Y417083D01*
X678794Y417091D01*
X678823Y417103D01*
X678855Y417108D01*
X678936Y417151D01*
X679020Y417187D01*
X679052Y417213D01*
X679073Y417224D01*
X679095Y417247D01*
X679151Y417292D01*
X683500Y421641D01*
X693180Y421641D01*
X694406Y420415D01*
X694464Y420373D01*
X694516Y420324D01*
X694563Y420302D01*
X694605Y420271D01*
X694674Y420250D01*
X694739Y420220D01*
X694791Y420214D01*
X694841Y420199D01*
X694912Y420201D01*
X694983Y420193D01*
X695034Y420204D01*
X695086Y420205D01*
X695154Y420230D01*
X695224Y420245D01*
X695269Y420272D01*
X695317Y420290D01*
X695373Y420335D01*
X695435Y420371D01*
X695469Y420411D01*
X695509Y420444D01*
X695548Y420504D01*
X695595Y420558D01*
X695614Y420607D01*
X695642Y420650D01*
X695660Y420720D01*
X695687Y420787D01*
X695695Y420858D01*
X695703Y420889D01*
X695701Y420912D01*
X695705Y420953D01*
X695705Y427496D01*
X702550Y434341D01*
X712230Y434341D01*
X716277Y430294D01*
X716293Y430282D01*
X716305Y430267D01*
X716392Y430211D01*
X716476Y430150D01*
X716495Y430145D01*
X716512Y430134D01*
X716613Y430109D01*
X716711Y430078D01*
X716731Y430079D01*
X716751Y430074D01*
X716854Y430082D01*
X716957Y430084D01*
X716976Y430091D01*
X716996Y430093D01*
X717091Y430133D01*
X717188Y430169D01*
X717204Y430181D01*
X717222Y430189D01*
X717353Y430294D01*
X717991Y430931D01*
X721248Y432281D01*
X724774Y432281D01*
X728031Y430931D01*
X730524Y428438D01*
X731874Y425181D01*
X731874Y423852D01*
X731888Y423762D01*
X731896Y423671D01*
X731908Y423641D01*
X731913Y423609D01*
X731956Y423528D01*
X731992Y423445D01*
X732018Y423412D01*
X732029Y423392D01*
X732052Y423370D01*
X732097Y423314D01*
X751638Y403773D01*
X751696Y403731D01*
X751748Y403681D01*
X751795Y403659D01*
X751837Y403629D01*
X751906Y403608D01*
X751971Y403578D01*
X752023Y403572D01*
X752073Y403557D01*
X752144Y403559D01*
X752215Y403551D01*
X752266Y403562D01*
X752318Y403563D01*
X752386Y403588D01*
X752456Y403603D01*
X752501Y403630D01*
X752549Y403647D01*
X752605Y403692D01*
X752667Y403729D01*
X752701Y403769D01*
X752741Y403801D01*
X752780Y403861D01*
X752827Y403916D01*
X752846Y403964D01*
X752874Y404008D01*
X752892Y404078D01*
X752919Y404144D01*
X752927Y404215D01*
X752935Y404247D01*
X752933Y404270D01*
X752937Y404311D01*
X752937Y408228D01*
X752923Y408318D01*
X752915Y408409D01*
X752903Y408438D01*
X752898Y408470D01*
X752855Y408551D01*
X752819Y408635D01*
X752793Y408667D01*
X752782Y408688D01*
X752759Y408710D01*
X752714Y408766D01*
X751775Y409706D01*
X750425Y412963D01*
X750425Y416489D01*
X751775Y419746D01*
X754268Y422239D01*
X757525Y423589D01*
X761051Y423589D01*
X764308Y422239D01*
X766801Y419746D01*
X768151Y416489D01*
X768151Y412963D01*
X766801Y409706D01*
X766012Y408916D01*
X766000Y408900D01*
X765985Y408887D01*
X765928Y408800D01*
X765868Y408716D01*
X765862Y408697D01*
X765852Y408680D01*
X765826Y408580D01*
X765796Y408481D01*
X765796Y408461D01*
X765792Y408442D01*
X765800Y408339D01*
X765802Y408235D01*
X765809Y408217D01*
X765811Y408197D01*
X765851Y408102D01*
X765887Y408004D01*
X765899Y407989D01*
X765907Y407970D01*
X766012Y407839D01*
X783223Y390628D01*
X783302Y390572D01*
X783377Y390509D01*
X783401Y390500D01*
X783423Y390485D01*
X783516Y390456D01*
X783607Y390421D01*
X783633Y390420D01*
X783658Y390412D01*
X783755Y390415D01*
X783852Y390411D01*
X783878Y390418D01*
X783904Y390419D01*
X783995Y390452D01*
X784089Y390479D01*
X784110Y390494D01*
X784135Y390503D01*
X784211Y390564D01*
X784291Y390620D01*
X784306Y390641D01*
X784327Y390657D01*
X784379Y390739D01*
X784437Y390817D01*
X784445Y390842D01*
X784460Y390864D01*
X784483Y390958D01*
X784514Y391051D01*
X784513Y391077D01*
X784520Y391102D01*
X784512Y391199D01*
X784511Y391297D01*
X784502Y391328D01*
X784501Y391348D01*
X784488Y391378D01*
X784464Y391458D01*
X784391Y391635D01*
X784391Y396367D01*
X784460Y396534D01*
X784475Y396598D01*
X784500Y396659D01*
X784509Y396741D01*
X784516Y396773D01*
X784515Y396793D01*
X784518Y396825D01*
X784518Y397496D01*
X784504Y397586D01*
X784496Y397677D01*
X784484Y397706D01*
X784479Y397738D01*
X784436Y397819D01*
X784400Y397903D01*
X784374Y397935D01*
X784363Y397956D01*
X784340Y397978D01*
X784295Y398034D01*
X783356Y398974D01*
X782006Y402231D01*
X782006Y405757D01*
X783356Y409014D01*
X785849Y411507D01*
X789106Y412857D01*
X792632Y412857D01*
X795889Y411507D01*
X798382Y409014D01*
X799732Y405757D01*
X799732Y402231D01*
X798382Y398974D01*
X797443Y398034D01*
X797390Y397960D01*
X797330Y397890D01*
X797318Y397860D01*
X797299Y397834D01*
X797272Y397747D01*
X797238Y397662D01*
X797234Y397621D01*
X797227Y397599D01*
X797228Y397567D01*
X797220Y397496D01*
X797220Y395717D01*
X797234Y395627D01*
X797242Y395536D01*
X797254Y395506D01*
X797259Y395474D01*
X797302Y395393D01*
X797338Y395310D01*
X797364Y395277D01*
X797375Y395257D01*
X797398Y395235D01*
X797443Y395179D01*
X824126Y368496D01*
X824200Y368443D01*
X824269Y368383D01*
X824299Y368371D01*
X824325Y368352D01*
X824412Y368325D01*
X824497Y368291D01*
X824538Y368287D01*
X824560Y368280D01*
X824593Y368281D01*
X824664Y368273D01*
X825993Y368273D01*
X829250Y366923D01*
X831743Y364430D01*
X833093Y361173D01*
X833093Y357647D01*
X831743Y354390D01*
X829250Y351897D01*
X825993Y350547D01*
X825142Y350547D01*
X825071Y350536D01*
X824999Y350534D01*
X824950Y350516D01*
X824899Y350508D01*
X824836Y350474D01*
X824768Y350449D01*
X824728Y350417D01*
X824682Y350392D01*
X824632Y350340D01*
X824576Y350296D01*
X824548Y350252D01*
X824512Y350214D01*
X824482Y350149D01*
X824443Y350089D01*
X824431Y350038D01*
X824409Y349991D01*
X824401Y349920D01*
X824383Y349850D01*
X824387Y349798D01*
X824382Y349747D01*
X824397Y349676D01*
X824402Y349605D01*
X824423Y349557D01*
X824434Y349506D01*
X824471Y349445D01*
X824499Y349379D01*
X824543Y349323D01*
X824560Y349295D01*
X824578Y349280D01*
X824604Y349248D01*
X863748Y310104D01*
X863822Y310051D01*
X863891Y309991D01*
X863921Y309979D01*
X863947Y309960D01*
X864034Y309933D01*
X864119Y309899D01*
X864160Y309895D01*
X864182Y309888D01*
X864215Y309889D01*
X864286Y309881D01*
X948683Y309881D01*
X950002Y309334D01*
X950097Y309312D01*
X950190Y309284D01*
X950216Y309284D01*
X950242Y309278D01*
X950338Y309287D01*
G37*
%LPC*%
G36*
X138601Y61003D02*
X138601Y61003D01*
X131692Y63865D01*
X126405Y69152D01*
X123543Y76061D01*
X123543Y83539D01*
X126405Y90448D01*
X131692Y95735D01*
X138601Y98597D01*
X146079Y98597D01*
X152988Y95735D01*
X158275Y90448D01*
X159124Y88399D01*
X159185Y88299D01*
X159245Y88199D01*
X159250Y88195D01*
X159253Y88190D01*
X159343Y88115D01*
X159432Y88039D01*
X159438Y88037D01*
X159443Y88033D01*
X159551Y87991D01*
X159660Y87947D01*
X159668Y87946D01*
X159672Y87945D01*
X159691Y87944D01*
X159827Y87929D01*
X366153Y87929D01*
X366268Y87948D01*
X366384Y87965D01*
X366390Y87967D01*
X366396Y87968D01*
X366498Y88023D01*
X366603Y88076D01*
X366608Y88081D01*
X366613Y88084D01*
X366693Y88168D01*
X366775Y88252D01*
X366779Y88258D01*
X366782Y88262D01*
X366790Y88279D01*
X366856Y88399D01*
X367705Y90448D01*
X372992Y95735D01*
X379901Y98597D01*
X387379Y98597D01*
X394288Y95735D01*
X399575Y90448D01*
X402437Y83539D01*
X402437Y76061D01*
X399575Y69152D01*
X394288Y63865D01*
X387379Y61003D01*
X379901Y61003D01*
X372992Y63865D01*
X367705Y69152D01*
X366856Y71201D01*
X366795Y71301D01*
X366735Y71401D01*
X366730Y71405D01*
X366727Y71410D01*
X366637Y71485D01*
X366548Y71561D01*
X366542Y71563D01*
X366537Y71567D01*
X366429Y71609D01*
X366320Y71653D01*
X366312Y71654D01*
X366308Y71655D01*
X366289Y71656D01*
X366153Y71671D01*
X159827Y71671D01*
X159712Y71652D01*
X159596Y71635D01*
X159590Y71633D01*
X159584Y71632D01*
X159482Y71577D01*
X159377Y71524D01*
X159372Y71519D01*
X159367Y71516D01*
X159287Y71432D01*
X159205Y71348D01*
X159201Y71342D01*
X159198Y71338D01*
X159190Y71321D01*
X159124Y71201D01*
X158275Y69152D01*
X152988Y63865D01*
X146079Y61003D01*
X138601Y61003D01*
G37*
%LPD*%
%LPC*%
G36*
X982230Y461517D02*
X982230Y461517D01*
X974343Y469404D01*
X974343Y469632D01*
X974332Y469703D01*
X974330Y469775D01*
X974312Y469824D01*
X974304Y469875D01*
X974270Y469938D01*
X974245Y470006D01*
X974213Y470046D01*
X974188Y470093D01*
X974136Y470142D01*
X974092Y470198D01*
X974048Y470226D01*
X974010Y470262D01*
X973945Y470292D01*
X973885Y470331D01*
X973834Y470344D01*
X973787Y470366D01*
X973716Y470373D01*
X973646Y470391D01*
X973594Y470387D01*
X973543Y470393D01*
X973472Y470377D01*
X973401Y470372D01*
X973353Y470351D01*
X973302Y470340D01*
X973241Y470304D01*
X973175Y470275D01*
X973119Y470231D01*
X973091Y470214D01*
X973076Y470196D01*
X973044Y470171D01*
X966930Y464057D01*
X963929Y464057D01*
X963929Y474218D01*
X963926Y474238D01*
X963928Y474257D01*
X963906Y474359D01*
X963889Y474461D01*
X963880Y474478D01*
X963876Y474498D01*
X963823Y474587D01*
X963774Y474678D01*
X963760Y474692D01*
X963750Y474709D01*
X963671Y474776D01*
X963596Y474847D01*
X963578Y474856D01*
X963563Y474869D01*
X963467Y474907D01*
X963373Y474951D01*
X963353Y474953D01*
X963335Y474961D01*
X963168Y474979D01*
X962405Y474979D01*
X962405Y475742D01*
X962402Y475762D01*
X962404Y475781D01*
X962382Y475883D01*
X962365Y475985D01*
X962356Y476002D01*
X962352Y476022D01*
X962299Y476111D01*
X962250Y476202D01*
X962236Y476216D01*
X962226Y476233D01*
X962147Y476300D01*
X962072Y476371D01*
X962054Y476380D01*
X962039Y476393D01*
X961943Y476432D01*
X961849Y476475D01*
X961829Y476477D01*
X961811Y476485D01*
X961644Y476503D01*
X951483Y476503D01*
X951483Y479504D01*
X957597Y485618D01*
X957639Y485676D01*
X957688Y485728D01*
X957710Y485775D01*
X957740Y485817D01*
X957761Y485886D01*
X957792Y485951D01*
X957797Y486003D01*
X957813Y486053D01*
X957811Y486124D01*
X957819Y486195D01*
X957808Y486246D01*
X957806Y486298D01*
X957782Y486366D01*
X957766Y486436D01*
X957740Y486481D01*
X957722Y486529D01*
X957677Y486585D01*
X957640Y486647D01*
X957601Y486681D01*
X957568Y486721D01*
X957508Y486760D01*
X957453Y486807D01*
X957405Y486826D01*
X957361Y486854D01*
X957292Y486872D01*
X957225Y486899D01*
X957154Y486907D01*
X957123Y486915D01*
X957099Y486913D01*
X957058Y486917D01*
X956830Y486917D01*
X948943Y494804D01*
X948943Y505956D01*
X955529Y512542D01*
X955540Y512558D01*
X955556Y512570D01*
X955612Y512658D01*
X955672Y512741D01*
X955678Y512760D01*
X955689Y512777D01*
X955714Y512878D01*
X955744Y512977D01*
X955744Y512996D01*
X955749Y513016D01*
X955741Y513119D01*
X955738Y513222D01*
X955731Y513241D01*
X955730Y513261D01*
X955689Y513356D01*
X955654Y513453D01*
X955641Y513469D01*
X955633Y513487D01*
X955529Y513618D01*
X948943Y520204D01*
X948943Y531356D01*
X955529Y537942D01*
X955540Y537958D01*
X955556Y537970D01*
X955585Y538016D01*
X955608Y538040D01*
X955624Y538074D01*
X955672Y538141D01*
X955678Y538160D01*
X955689Y538177D01*
X955709Y538257D01*
X955712Y538263D01*
X955713Y538272D01*
X955714Y538278D01*
X955744Y538377D01*
X955744Y538396D01*
X955749Y538416D01*
X955741Y538519D01*
X955738Y538622D01*
X955731Y538641D01*
X955730Y538661D01*
X955689Y538756D01*
X955654Y538853D01*
X955641Y538869D01*
X955633Y538887D01*
X955529Y539018D01*
X948943Y545604D01*
X948943Y556756D01*
X956830Y564643D01*
X967982Y564643D01*
X974568Y558057D01*
X974584Y558046D01*
X974596Y558030D01*
X974684Y557974D01*
X974767Y557914D01*
X974786Y557908D01*
X974803Y557897D01*
X974904Y557872D01*
X975003Y557842D01*
X975022Y557842D01*
X975042Y557837D01*
X975145Y557845D01*
X975248Y557848D01*
X975267Y557855D01*
X975287Y557856D01*
X975382Y557897D01*
X975479Y557932D01*
X975495Y557945D01*
X975513Y557953D01*
X975644Y558057D01*
X982230Y564643D01*
X993382Y564643D01*
X1001269Y556756D01*
X1001269Y545604D01*
X994683Y539018D01*
X994672Y539002D01*
X994656Y538990D01*
X994600Y538902D01*
X994540Y538819D01*
X994534Y538800D01*
X994523Y538783D01*
X994498Y538682D01*
X994468Y538583D01*
X994468Y538564D01*
X994463Y538544D01*
X994471Y538441D01*
X994474Y538338D01*
X994481Y538319D01*
X994482Y538299D01*
X994522Y538207D01*
X994526Y538188D01*
X994533Y538176D01*
X994558Y538107D01*
X994571Y538091D01*
X994579Y538073D01*
X994642Y537993D01*
X994652Y537977D01*
X994662Y537968D01*
X994683Y537942D01*
X1001269Y531356D01*
X1001269Y520204D01*
X994683Y513618D01*
X994672Y513602D01*
X994656Y513590D01*
X994600Y513502D01*
X994540Y513419D01*
X994534Y513400D01*
X994523Y513383D01*
X994498Y513282D01*
X994468Y513183D01*
X994468Y513164D01*
X994463Y513144D01*
X994471Y513041D01*
X994474Y512938D01*
X994481Y512919D01*
X994482Y512899D01*
X994523Y512804D01*
X994558Y512707D01*
X994571Y512691D01*
X994579Y512673D01*
X994683Y512542D01*
X1001269Y505956D01*
X1001269Y494804D01*
X994683Y488218D01*
X994672Y488202D01*
X994656Y488190D01*
X994600Y488102D01*
X994540Y488019D01*
X994534Y488000D01*
X994523Y487983D01*
X994498Y487882D01*
X994468Y487783D01*
X994468Y487764D01*
X994463Y487744D01*
X994471Y487641D01*
X994474Y487538D01*
X994481Y487519D01*
X994482Y487499D01*
X994523Y487404D01*
X994558Y487307D01*
X994571Y487291D01*
X994579Y487273D01*
X994683Y487142D01*
X1001269Y480556D01*
X1001269Y469404D01*
X993382Y461517D01*
X982230Y461517D01*
G37*
%LPD*%
%LPC*%
G36*
X405301Y128483D02*
X405301Y128483D01*
X398392Y131345D01*
X393105Y136632D01*
X390243Y143541D01*
X390243Y151019D01*
X393105Y157928D01*
X398392Y163215D01*
X405301Y166077D01*
X412779Y166077D01*
X419688Y163215D01*
X424975Y157928D01*
X427837Y151019D01*
X427837Y143541D01*
X424975Y136632D01*
X419688Y131345D01*
X412779Y128483D01*
X405301Y128483D01*
G37*
%LPD*%
%LPC*%
G36*
X113201Y128483D02*
X113201Y128483D01*
X106292Y131345D01*
X101005Y136632D01*
X98143Y143541D01*
X98143Y151019D01*
X101005Y157928D01*
X106292Y163215D01*
X113201Y166077D01*
X120679Y166077D01*
X127588Y163215D01*
X132875Y157928D01*
X135737Y151019D01*
X135737Y143541D01*
X132875Y136632D01*
X127588Y131345D01*
X120679Y128483D01*
X113201Y128483D01*
G37*
%LPD*%
%LPC*%
G36*
X354501Y128483D02*
X354501Y128483D01*
X347592Y131345D01*
X342305Y136632D01*
X339443Y143541D01*
X339443Y151019D01*
X342305Y157928D01*
X347592Y163215D01*
X354501Y166077D01*
X361979Y166077D01*
X368888Y163215D01*
X374175Y157928D01*
X377037Y151019D01*
X377037Y143541D01*
X374175Y136632D01*
X368888Y131345D01*
X361979Y128483D01*
X354501Y128483D01*
G37*
%LPD*%
%LPC*%
G36*
X164001Y128483D02*
X164001Y128483D01*
X157092Y131345D01*
X151805Y136632D01*
X148943Y143541D01*
X148943Y151019D01*
X151805Y157928D01*
X157092Y163215D01*
X164001Y166077D01*
X171479Y166077D01*
X178388Y163215D01*
X183675Y157928D01*
X186537Y151019D01*
X186537Y143541D01*
X183675Y136632D01*
X178388Y131345D01*
X171479Y128483D01*
X164001Y128483D01*
G37*
%LPD*%
%LPC*%
G36*
X405101Y606083D02*
X405101Y606083D01*
X398192Y608945D01*
X392905Y614232D01*
X390043Y621141D01*
X390043Y628619D01*
X392905Y635528D01*
X398192Y640815D01*
X405101Y643677D01*
X412579Y643677D01*
X419488Y640815D01*
X424775Y635528D01*
X427637Y628619D01*
X427637Y621141D01*
X424775Y614232D01*
X419488Y608945D01*
X412579Y606083D01*
X405101Y606083D01*
G37*
%LPD*%
%LPC*%
G36*
X354301Y606083D02*
X354301Y606083D01*
X347392Y608945D01*
X342105Y614232D01*
X339243Y621141D01*
X339243Y628619D01*
X342105Y635528D01*
X347392Y640815D01*
X354301Y643677D01*
X361779Y643677D01*
X368688Y640815D01*
X373975Y635528D01*
X376837Y628619D01*
X376837Y621141D01*
X373975Y614232D01*
X368688Y608945D01*
X361779Y606083D01*
X354301Y606083D01*
G37*
%LPD*%
%LPC*%
G36*
X163801Y606083D02*
X163801Y606083D01*
X156892Y608945D01*
X151605Y614232D01*
X148743Y621141D01*
X148743Y628619D01*
X151605Y635528D01*
X156892Y640815D01*
X163801Y643677D01*
X171279Y643677D01*
X178188Y640815D01*
X183475Y635528D01*
X186337Y628619D01*
X186337Y621141D01*
X183475Y614232D01*
X178188Y608945D01*
X171279Y606083D01*
X163801Y606083D01*
G37*
%LPD*%
%LPC*%
G36*
X113001Y606083D02*
X113001Y606083D01*
X106092Y608945D01*
X100805Y614232D01*
X97943Y621141D01*
X97943Y628619D01*
X100805Y635528D01*
X106092Y640815D01*
X113001Y643677D01*
X120479Y643677D01*
X127388Y640815D01*
X132675Y635528D01*
X135537Y628619D01*
X135537Y621141D01*
X132675Y614232D01*
X127388Y608945D01*
X120479Y606083D01*
X113001Y606083D01*
G37*
%LPD*%
%LPC*%
G36*
X967246Y373633D02*
X967246Y373633D01*
X962578Y375567D01*
X959005Y379140D01*
X957071Y383808D01*
X957071Y388860D01*
X959005Y393528D01*
X962578Y397101D01*
X967246Y399035D01*
X987538Y399035D01*
X992206Y397101D01*
X995779Y393528D01*
X997713Y388860D01*
X997713Y383808D01*
X995779Y379140D01*
X992206Y375567D01*
X987538Y373633D01*
X967246Y373633D01*
G37*
%LPD*%
%LPC*%
G36*
X1000420Y714501D02*
X1000420Y714501D01*
X995098Y716706D01*
X991026Y720778D01*
X988821Y726100D01*
X988821Y731860D01*
X991026Y737182D01*
X995098Y741254D01*
X997801Y742374D01*
X997836Y742396D01*
X997876Y742410D01*
X997940Y742460D01*
X998010Y742503D01*
X998036Y742536D01*
X998069Y742562D01*
X998114Y742630D01*
X998166Y742693D01*
X998181Y742732D01*
X998205Y742767D01*
X998225Y742846D01*
X998255Y742922D01*
X998256Y742964D01*
X998267Y743005D01*
X998262Y743087D01*
X998265Y743168D01*
X998253Y743209D01*
X998250Y743250D01*
X998219Y743326D01*
X998196Y743404D01*
X998173Y743439D01*
X998157Y743478D01*
X998103Y743539D01*
X998056Y743606D01*
X998023Y743632D01*
X997995Y743663D01*
X997866Y743748D01*
X997859Y743753D01*
X997857Y743754D01*
X997855Y743755D01*
X997043Y744169D01*
X995522Y745274D01*
X994194Y746602D01*
X993089Y748123D01*
X992236Y749797D01*
X991655Y751584D01*
X991454Y752857D01*
X1002538Y752857D01*
X1002558Y752860D01*
X1002577Y752858D01*
X1002679Y752880D01*
X1002781Y752897D01*
X1002798Y752906D01*
X1002818Y752910D01*
X1002907Y752963D01*
X1002998Y753012D01*
X1003012Y753026D01*
X1003029Y753036D01*
X1003096Y753115D01*
X1003167Y753190D01*
X1003176Y753208D01*
X1003189Y753223D01*
X1003227Y753319D01*
X1003271Y753413D01*
X1003273Y753433D01*
X1003281Y753451D01*
X1003299Y753618D01*
X1003299Y754381D01*
X1003301Y754381D01*
X1003301Y753618D01*
X1003304Y753598D01*
X1003302Y753579D01*
X1003324Y753477D01*
X1003341Y753375D01*
X1003350Y753358D01*
X1003354Y753338D01*
X1003407Y753249D01*
X1003456Y753158D01*
X1003470Y753144D01*
X1003480Y753127D01*
X1003559Y753060D01*
X1003634Y752989D01*
X1003652Y752980D01*
X1003667Y752967D01*
X1003763Y752928D01*
X1003857Y752885D01*
X1003877Y752883D01*
X1003895Y752875D01*
X1004062Y752857D01*
X1015146Y752857D01*
X1014945Y751584D01*
X1014364Y749797D01*
X1013511Y748123D01*
X1012406Y746602D01*
X1011078Y745274D01*
X1009557Y744169D01*
X1008745Y743755D01*
X1008711Y743730D01*
X1008673Y743713D01*
X1008613Y743658D01*
X1008547Y743610D01*
X1008523Y743575D01*
X1008492Y743547D01*
X1008452Y743475D01*
X1008405Y743408D01*
X1008394Y743368D01*
X1008373Y743331D01*
X1008359Y743251D01*
X1008336Y743173D01*
X1008337Y743131D01*
X1008330Y743089D01*
X1008342Y743008D01*
X1008344Y742927D01*
X1008359Y742888D01*
X1008365Y742846D01*
X1008402Y742773D01*
X1008431Y742697D01*
X1008458Y742664D01*
X1008477Y742627D01*
X1008535Y742570D01*
X1008587Y742506D01*
X1008623Y742484D01*
X1008652Y742455D01*
X1008788Y742380D01*
X1008795Y742375D01*
X1008797Y742375D01*
X1008799Y742374D01*
X1011502Y741254D01*
X1015574Y737182D01*
X1017779Y731860D01*
X1017779Y726100D01*
X1015574Y720778D01*
X1011502Y716706D01*
X1006180Y714501D01*
X1000420Y714501D01*
G37*
%LPD*%
%LPC*%
G36*
X1000420Y628141D02*
X1000420Y628141D01*
X995098Y630346D01*
X991026Y634418D01*
X988821Y639740D01*
X988821Y645500D01*
X991026Y650822D01*
X995098Y654894D01*
X997801Y656014D01*
X997836Y656036D01*
X997876Y656050D01*
X997940Y656100D01*
X998010Y656143D01*
X998036Y656176D01*
X998069Y656202D01*
X998114Y656270D01*
X998166Y656333D01*
X998181Y656372D01*
X998205Y656407D01*
X998225Y656486D01*
X998255Y656562D01*
X998256Y656604D01*
X998267Y656645D01*
X998262Y656727D01*
X998265Y656808D01*
X998253Y656849D01*
X998250Y656890D01*
X998219Y656966D01*
X998196Y657044D01*
X998173Y657079D01*
X998157Y657118D01*
X998103Y657179D01*
X998056Y657246D01*
X998023Y657272D01*
X997995Y657303D01*
X997866Y657388D01*
X997859Y657393D01*
X997857Y657394D01*
X997855Y657395D01*
X997043Y657809D01*
X995522Y658914D01*
X994194Y660242D01*
X993089Y661763D01*
X992236Y663437D01*
X991655Y665224D01*
X991454Y666497D01*
X1002538Y666497D01*
X1002558Y666500D01*
X1002577Y666498D01*
X1002679Y666520D01*
X1002781Y666537D01*
X1002798Y666546D01*
X1002818Y666550D01*
X1002907Y666603D01*
X1002998Y666652D01*
X1003012Y666666D01*
X1003029Y666676D01*
X1003096Y666755D01*
X1003167Y666830D01*
X1003176Y666848D01*
X1003189Y666863D01*
X1003227Y666959D01*
X1003271Y667053D01*
X1003273Y667073D01*
X1003281Y667091D01*
X1003299Y667258D01*
X1003299Y668021D01*
X1003301Y668021D01*
X1003301Y667258D01*
X1003304Y667238D01*
X1003302Y667219D01*
X1003324Y667117D01*
X1003341Y667015D01*
X1003350Y666998D01*
X1003354Y666978D01*
X1003407Y666889D01*
X1003456Y666798D01*
X1003470Y666784D01*
X1003480Y666767D01*
X1003559Y666700D01*
X1003634Y666629D01*
X1003652Y666620D01*
X1003667Y666607D01*
X1003763Y666568D01*
X1003857Y666525D01*
X1003877Y666523D01*
X1003895Y666515D01*
X1004062Y666497D01*
X1015146Y666497D01*
X1014945Y665224D01*
X1014364Y663437D01*
X1013511Y661763D01*
X1012406Y660242D01*
X1011078Y658914D01*
X1009557Y657809D01*
X1008745Y657395D01*
X1008711Y657370D01*
X1008673Y657353D01*
X1008613Y657298D01*
X1008547Y657250D01*
X1008523Y657215D01*
X1008492Y657187D01*
X1008452Y657115D01*
X1008405Y657048D01*
X1008394Y657008D01*
X1008373Y656971D01*
X1008359Y656891D01*
X1008336Y656813D01*
X1008337Y656771D01*
X1008330Y656729D01*
X1008342Y656648D01*
X1008344Y656567D01*
X1008359Y656528D01*
X1008365Y656486D01*
X1008402Y656413D01*
X1008431Y656337D01*
X1008458Y656304D01*
X1008477Y656267D01*
X1008535Y656210D01*
X1008587Y656146D01*
X1008623Y656124D01*
X1008652Y656095D01*
X1008788Y656020D01*
X1008795Y656015D01*
X1008797Y656015D01*
X1008799Y656014D01*
X1011502Y654894D01*
X1015574Y650822D01*
X1017779Y645500D01*
X1017779Y639740D01*
X1015574Y634418D01*
X1011502Y630346D01*
X1006180Y628141D01*
X1000420Y628141D01*
G37*
%LPD*%
%LPC*%
G36*
X919140Y739901D02*
X919140Y739901D01*
X913818Y742106D01*
X909746Y746178D01*
X907541Y751500D01*
X907541Y757260D01*
X909746Y762582D01*
X913818Y766654D01*
X919140Y768859D01*
X924900Y768859D01*
X930222Y766654D01*
X934294Y762582D01*
X935414Y759879D01*
X935436Y759844D01*
X935450Y759804D01*
X935500Y759740D01*
X935543Y759670D01*
X935576Y759644D01*
X935602Y759611D01*
X935670Y759566D01*
X935733Y759514D01*
X935772Y759499D01*
X935807Y759475D01*
X935886Y759455D01*
X935962Y759425D01*
X936004Y759424D01*
X936045Y759413D01*
X936127Y759418D01*
X936208Y759415D01*
X936249Y759427D01*
X936290Y759430D01*
X936366Y759461D01*
X936444Y759484D01*
X936479Y759507D01*
X936518Y759523D01*
X936579Y759577D01*
X936646Y759624D01*
X936672Y759657D01*
X936703Y759685D01*
X936788Y759814D01*
X936793Y759821D01*
X936794Y759823D01*
X936795Y759825D01*
X937209Y760637D01*
X938314Y762158D01*
X939642Y763486D01*
X941163Y764591D01*
X942837Y765444D01*
X944624Y766025D01*
X945897Y766226D01*
X945897Y755142D01*
X945900Y755122D01*
X945898Y755103D01*
X945920Y755001D01*
X945937Y754899D01*
X945946Y754882D01*
X945950Y754862D01*
X946003Y754773D01*
X946052Y754682D01*
X946066Y754668D01*
X946076Y754651D01*
X946155Y754584D01*
X946230Y754513D01*
X946248Y754504D01*
X946263Y754491D01*
X946359Y754453D01*
X946453Y754409D01*
X946473Y754407D01*
X946491Y754399D01*
X946658Y754381D01*
X947421Y754381D01*
X947421Y754379D01*
X946658Y754379D01*
X946638Y754376D01*
X946619Y754378D01*
X946517Y754356D01*
X946415Y754339D01*
X946398Y754330D01*
X946378Y754326D01*
X946289Y754273D01*
X946198Y754224D01*
X946184Y754210D01*
X946167Y754200D01*
X946100Y754121D01*
X946029Y754046D01*
X946020Y754028D01*
X946007Y754013D01*
X945968Y753917D01*
X945925Y753823D01*
X945923Y753803D01*
X945915Y753785D01*
X945897Y753618D01*
X945897Y742534D01*
X944624Y742735D01*
X942837Y743316D01*
X941163Y744169D01*
X939642Y745274D01*
X938314Y746602D01*
X937209Y748123D01*
X936795Y748935D01*
X936770Y748969D01*
X936753Y749007D01*
X936718Y749045D01*
X936707Y749064D01*
X936689Y749079D01*
X936650Y749133D01*
X936615Y749157D01*
X936587Y749188D01*
X936515Y749228D01*
X936448Y749275D01*
X936408Y749286D01*
X936371Y749307D01*
X936291Y749321D01*
X936213Y749344D01*
X936171Y749343D01*
X936129Y749350D01*
X936048Y749338D01*
X935967Y749336D01*
X935928Y749321D01*
X935886Y749315D01*
X935813Y749278D01*
X935737Y749249D01*
X935704Y749222D01*
X935667Y749203D01*
X935610Y749145D01*
X935546Y749093D01*
X935524Y749057D01*
X935495Y749028D01*
X935420Y748892D01*
X935415Y748885D01*
X935415Y748883D01*
X935414Y748881D01*
X934294Y746178D01*
X930222Y742106D01*
X924900Y739901D01*
X919140Y739901D01*
G37*
%LPD*%
%LPC*%
G36*
X143663Y693883D02*
X143663Y693883D01*
X143663Y708556D01*
X145318Y708339D01*
X147377Y707787D01*
X149346Y706971D01*
X151191Y705906D01*
X152882Y704609D01*
X154389Y703102D01*
X155686Y701411D01*
X156751Y699566D01*
X157567Y697597D01*
X158119Y695538D01*
X158336Y693883D01*
X143663Y693883D01*
G37*
%LPD*%
%LPC*%
G36*
X125944Y693883D02*
X125944Y693883D01*
X126161Y695538D01*
X126713Y697597D01*
X127529Y699566D01*
X128594Y701411D01*
X129891Y703102D01*
X131398Y704609D01*
X133089Y705906D01*
X134934Y706971D01*
X136903Y707787D01*
X138962Y708339D01*
X140617Y708556D01*
X140617Y693883D01*
X125944Y693883D01*
G37*
%LPD*%
%LPC*%
G36*
X143663Y690837D02*
X143663Y690837D01*
X158336Y690837D01*
X158119Y689182D01*
X157567Y687123D01*
X156751Y685154D01*
X155686Y683309D01*
X154389Y681618D01*
X152882Y680111D01*
X151191Y678814D01*
X149346Y677749D01*
X147377Y676933D01*
X145318Y676381D01*
X143663Y676164D01*
X143663Y690837D01*
G37*
%LPD*%
%LPC*%
G36*
X138962Y676381D02*
X138962Y676381D01*
X136903Y676933D01*
X134934Y677749D01*
X133089Y678814D01*
X131398Y680111D01*
X129891Y681618D01*
X128594Y683309D01*
X127529Y685154D01*
X126713Y687123D01*
X126161Y689182D01*
X125944Y690837D01*
X140617Y690837D01*
X140617Y676164D01*
X138962Y676381D01*
G37*
%LPD*%
%LPC*%
G36*
X890523Y153923D02*
X890523Y153923D01*
X890523Y162561D01*
X897420Y162561D01*
X898999Y162311D01*
X900520Y161816D01*
X901945Y161090D01*
X903239Y160150D01*
X904370Y159019D01*
X905310Y157725D01*
X906036Y156300D01*
X906531Y154779D01*
X906666Y153923D01*
X890523Y153923D01*
G37*
%LPD*%
%LPC*%
G36*
X913891Y433069D02*
X913891Y433069D01*
X913891Y441707D01*
X920788Y441707D01*
X922367Y441457D01*
X923888Y440962D01*
X925313Y440236D01*
X926607Y439296D01*
X927738Y438165D01*
X928678Y436871D01*
X929404Y435446D01*
X929899Y433925D01*
X930034Y433069D01*
X913891Y433069D01*
G37*
%LPD*%
%LPC*%
G36*
X978915Y433069D02*
X978915Y433069D01*
X978915Y441707D01*
X985812Y441707D01*
X987391Y441457D01*
X988912Y440962D01*
X990337Y440236D01*
X991631Y439296D01*
X992762Y438165D01*
X993702Y436871D01*
X994428Y435446D01*
X994923Y433925D01*
X995058Y433069D01*
X978915Y433069D01*
G37*
%LPD*%
%LPC*%
G36*
X959726Y433069D02*
X959726Y433069D01*
X959861Y433925D01*
X960356Y435446D01*
X961082Y436871D01*
X962022Y438165D01*
X963153Y439296D01*
X964447Y440236D01*
X965872Y440962D01*
X967393Y441457D01*
X968972Y441707D01*
X975869Y441707D01*
X975869Y433069D01*
X959726Y433069D01*
G37*
%LPD*%
%LPC*%
G36*
X894702Y433069D02*
X894702Y433069D01*
X894837Y433925D01*
X895332Y435446D01*
X896058Y436871D01*
X896998Y438165D01*
X898129Y439296D01*
X899423Y440236D01*
X900848Y440962D01*
X902369Y441457D01*
X903948Y441707D01*
X910845Y441707D01*
X910845Y433069D01*
X894702Y433069D01*
G37*
%LPD*%
%LPC*%
G36*
X871334Y153923D02*
X871334Y153923D01*
X871469Y154779D01*
X871964Y156300D01*
X872690Y157725D01*
X873630Y159019D01*
X874761Y160150D01*
X876055Y161090D01*
X877480Y161816D01*
X879001Y162311D01*
X880580Y162561D01*
X887477Y162561D01*
X887477Y153923D01*
X871334Y153923D01*
G37*
%LPD*%
%LPC*%
G36*
X978915Y421385D02*
X978915Y421385D01*
X978915Y430023D01*
X995058Y430023D01*
X994923Y429167D01*
X994428Y427646D01*
X993702Y426221D01*
X992762Y424927D01*
X991631Y423796D01*
X990337Y422856D01*
X988912Y422130D01*
X987391Y421635D01*
X985812Y421385D01*
X978915Y421385D01*
G37*
%LPD*%
%LPC*%
G36*
X913891Y421385D02*
X913891Y421385D01*
X913891Y430023D01*
X930034Y430023D01*
X929899Y429167D01*
X929404Y427646D01*
X928678Y426221D01*
X927738Y424927D01*
X926607Y423796D01*
X925313Y422856D01*
X923888Y422130D01*
X922367Y421635D01*
X920788Y421385D01*
X913891Y421385D01*
G37*
%LPD*%
%LPC*%
G36*
X890523Y142239D02*
X890523Y142239D01*
X890523Y150877D01*
X906666Y150877D01*
X906531Y150021D01*
X906036Y148500D01*
X905310Y147075D01*
X904370Y145781D01*
X903239Y144650D01*
X901945Y143710D01*
X900520Y142984D01*
X898999Y142489D01*
X897420Y142239D01*
X890523Y142239D01*
G37*
%LPD*%
%LPC*%
G36*
X903948Y421385D02*
X903948Y421385D01*
X902369Y421635D01*
X900848Y422130D01*
X899423Y422856D01*
X898129Y423796D01*
X896998Y424927D01*
X896058Y426221D01*
X895332Y427646D01*
X894837Y429167D01*
X894702Y430023D01*
X910845Y430023D01*
X910845Y421385D01*
X903948Y421385D01*
G37*
%LPD*%
%LPC*%
G36*
X968972Y421385D02*
X968972Y421385D01*
X967393Y421635D01*
X965872Y422130D01*
X964447Y422856D01*
X963153Y423796D01*
X962022Y424927D01*
X961082Y426221D01*
X960356Y427646D01*
X959861Y429167D01*
X959726Y430023D01*
X975869Y430023D01*
X975869Y421385D01*
X968972Y421385D01*
G37*
%LPD*%
%LPC*%
G36*
X880580Y142239D02*
X880580Y142239D01*
X879001Y142489D01*
X877480Y142984D01*
X876055Y143710D01*
X874761Y144650D01*
X873630Y145781D01*
X872690Y147075D01*
X871964Y148500D01*
X871469Y150021D01*
X871334Y150877D01*
X887477Y150877D01*
X887477Y142239D01*
X880580Y142239D01*
G37*
%LPD*%
%LPC*%
G36*
X948943Y755903D02*
X948943Y755903D01*
X948943Y766226D01*
X950216Y766025D01*
X952003Y765444D01*
X953677Y764591D01*
X955198Y763486D01*
X956526Y762158D01*
X957631Y760637D01*
X958484Y758963D01*
X959065Y757176D01*
X959266Y755903D01*
X948943Y755903D01*
G37*
%LPD*%
%LPC*%
G36*
X1004823Y669543D02*
X1004823Y669543D01*
X1004823Y679866D01*
X1006096Y679665D01*
X1007883Y679084D01*
X1009557Y678231D01*
X1011078Y677126D01*
X1012406Y675798D01*
X1013511Y674277D01*
X1014364Y672603D01*
X1014945Y670816D01*
X1015146Y669543D01*
X1004823Y669543D01*
G37*
%LPD*%
%LPC*%
G36*
X1004823Y755903D02*
X1004823Y755903D01*
X1004823Y766226D01*
X1006096Y766025D01*
X1007883Y765444D01*
X1009557Y764591D01*
X1011078Y763486D01*
X1012406Y762158D01*
X1013511Y760637D01*
X1014364Y758963D01*
X1014945Y757176D01*
X1015146Y755903D01*
X1004823Y755903D01*
G37*
%LPD*%
%LPC*%
G36*
X991454Y669543D02*
X991454Y669543D01*
X991655Y670816D01*
X992236Y672603D01*
X993089Y674277D01*
X994194Y675798D01*
X995522Y677126D01*
X997043Y678231D01*
X998717Y679084D01*
X1000504Y679665D01*
X1001777Y679866D01*
X1001777Y669543D01*
X991454Y669543D01*
G37*
%LPD*%
%LPC*%
G36*
X948943Y752857D02*
X948943Y752857D01*
X959266Y752857D01*
X959065Y751584D01*
X958484Y749797D01*
X957631Y748123D01*
X956526Y746602D01*
X955198Y745274D01*
X953677Y744169D01*
X952003Y743316D01*
X950216Y742735D01*
X948943Y742534D01*
X948943Y752857D01*
G37*
%LPD*%
%LPC*%
G36*
X991454Y755903D02*
X991454Y755903D01*
X991655Y757176D01*
X992236Y758963D01*
X993089Y760637D01*
X994194Y762158D01*
X995522Y763486D01*
X997043Y764591D01*
X998717Y765444D01*
X1000504Y766025D01*
X1001777Y766226D01*
X1001777Y755903D01*
X991454Y755903D01*
G37*
%LPD*%
%LPC*%
G36*
X957882Y464057D02*
X957882Y464057D01*
X951483Y470456D01*
X951483Y473457D01*
X960883Y473457D01*
X960883Y464057D01*
X957882Y464057D01*
G37*
%LPD*%
%LPC*%
G36*
X727960Y42598D02*
X727960Y42598D01*
X727960Y49055D01*
X732647Y49055D01*
X734160Y48754D01*
X735585Y48164D01*
X736868Y47306D01*
X737958Y46216D01*
X738816Y44933D01*
X739406Y43508D01*
X739587Y42598D01*
X727960Y42598D01*
G37*
%LPD*%
%LPC*%
G36*
X777960Y42598D02*
X777960Y42598D01*
X777960Y49055D01*
X782647Y49055D01*
X784160Y48754D01*
X785585Y48164D01*
X786868Y47306D01*
X787958Y46216D01*
X788816Y44933D01*
X789406Y43508D01*
X789587Y42598D01*
X777960Y42598D01*
G37*
%LPD*%
%LPC*%
G36*
X763585Y42598D02*
X763585Y42598D01*
X763766Y43508D01*
X764356Y44933D01*
X765214Y46216D01*
X766304Y47306D01*
X767587Y48164D01*
X769012Y48754D01*
X770525Y49055D01*
X775212Y49055D01*
X775212Y42598D01*
X763585Y42598D01*
G37*
%LPD*%
%LPC*%
G36*
X713585Y42598D02*
X713585Y42598D01*
X713766Y43508D01*
X714356Y44933D01*
X715214Y46216D01*
X716304Y47306D01*
X717587Y48164D01*
X719012Y48754D01*
X720525Y49055D01*
X725212Y49055D01*
X725212Y42598D01*
X713585Y42598D01*
G37*
%LPD*%
%LPC*%
G36*
X777960Y33393D02*
X777960Y33393D01*
X777960Y39850D01*
X789587Y39850D01*
X789406Y38940D01*
X788816Y37515D01*
X787958Y36232D01*
X786868Y35142D01*
X785585Y34284D01*
X784160Y33694D01*
X782647Y33393D01*
X777960Y33393D01*
G37*
%LPD*%
%LPC*%
G36*
X727960Y33393D02*
X727960Y33393D01*
X727960Y39850D01*
X739587Y39850D01*
X739406Y38940D01*
X738816Y37515D01*
X737958Y36232D01*
X736868Y35142D01*
X735585Y34284D01*
X734160Y33694D01*
X732647Y33393D01*
X727960Y33393D01*
G37*
%LPD*%
%LPC*%
G36*
X770525Y33393D02*
X770525Y33393D01*
X769012Y33694D01*
X767587Y34284D01*
X766304Y35142D01*
X765214Y36232D01*
X764356Y37515D01*
X763766Y38940D01*
X763585Y39850D01*
X775212Y39850D01*
X775212Y33393D01*
X770525Y33393D01*
G37*
%LPD*%
%LPC*%
G36*
X720525Y33393D02*
X720525Y33393D01*
X719012Y33694D01*
X717587Y34284D01*
X716304Y35142D01*
X715214Y36232D01*
X714356Y37515D01*
X713766Y38940D01*
X713585Y39850D01*
X725212Y39850D01*
X725212Y33393D01*
X720525Y33393D01*
G37*
%LPD*%
%LPC*%
G36*
X717835Y15473D02*
X717835Y15473D01*
X717835Y26745D01*
X718797Y26553D01*
X720177Y25982D01*
X721418Y25152D01*
X722474Y24096D01*
X723304Y22855D01*
X723875Y21475D01*
X724167Y20011D01*
X724167Y15473D01*
X717835Y15473D01*
G37*
%LPD*%
%LPC*%
G36*
X787835Y15473D02*
X787835Y15473D01*
X787835Y26745D01*
X788797Y26553D01*
X790177Y25982D01*
X791418Y25152D01*
X792474Y24096D01*
X793304Y22855D01*
X793875Y21475D01*
X794167Y20011D01*
X794167Y15473D01*
X787835Y15473D01*
G37*
%LPD*%
%LPC*%
G36*
X709005Y15473D02*
X709005Y15473D01*
X709005Y20011D01*
X709297Y21475D01*
X709868Y22855D01*
X710698Y24096D01*
X711754Y25152D01*
X712995Y25982D01*
X714375Y26553D01*
X715337Y26745D01*
X715337Y15473D01*
X709005Y15473D01*
G37*
%LPD*%
%LPC*%
G36*
X779005Y15473D02*
X779005Y15473D01*
X779005Y20011D01*
X779297Y21475D01*
X779868Y22855D01*
X780698Y24096D01*
X781754Y25152D01*
X782995Y25982D01*
X784375Y26553D01*
X785337Y26745D01*
X785337Y15473D01*
X779005Y15473D01*
G37*
%LPD*%
%LPC*%
G36*
X689863Y436879D02*
X689863Y436879D01*
X689863Y444501D01*
X692128Y444501D01*
X697485Y439144D01*
X697485Y436879D01*
X689863Y436879D01*
G37*
%LPD*%
%LPC*%
G36*
X679195Y436879D02*
X679195Y436879D01*
X679195Y439144D01*
X684552Y444501D01*
X686817Y444501D01*
X686817Y436879D01*
X679195Y436879D01*
G37*
%LPD*%
%LPC*%
G36*
X689863Y426211D02*
X689863Y426211D01*
X689863Y433833D01*
X697485Y433833D01*
X697485Y431568D01*
X692128Y426211D01*
X689863Y426211D01*
G37*
%LPD*%
%LPC*%
G36*
X684552Y426211D02*
X684552Y426211D01*
X679195Y431568D01*
X679195Y433833D01*
X686817Y433833D01*
X686817Y426211D01*
X684552Y426211D01*
G37*
%LPD*%
%LPC*%
G36*
X977391Y431545D02*
X977391Y431545D01*
X977391Y431547D01*
X977393Y431547D01*
X977393Y431545D01*
X977391Y431545D01*
G37*
%LPD*%
%LPC*%
G36*
X912367Y431545D02*
X912367Y431545D01*
X912367Y431547D01*
X912369Y431547D01*
X912369Y431545D01*
X912367Y431545D01*
G37*
%LPD*%
%LPC*%
G36*
X688339Y435355D02*
X688339Y435355D01*
X688339Y435357D01*
X688341Y435357D01*
X688341Y435355D01*
X688339Y435355D01*
G37*
%LPD*%
%LPC*%
G36*
X142139Y692359D02*
X142139Y692359D01*
X142139Y692361D01*
X142141Y692361D01*
X142141Y692359D01*
X142139Y692359D01*
G37*
%LPD*%
%LPC*%
G36*
X888999Y152399D02*
X888999Y152399D01*
X888999Y152401D01*
X889001Y152401D01*
X889001Y152399D01*
X888999Y152399D01*
G37*
%LPD*%
D10*
X1003300Y728980D03*
X1003300Y754380D03*
X1003300Y642620D03*
X1003300Y668020D03*
D11*
X358040Y624880D03*
X383440Y692360D03*
X408840Y624880D03*
X409040Y147280D03*
X383640Y79800D03*
X358240Y147280D03*
X167740Y147280D03*
X142340Y79800D03*
X116940Y147280D03*
X116740Y624880D03*
X142140Y692360D03*
X167540Y624880D03*
D10*
X922020Y754380D03*
X947420Y754380D03*
D12*
X820420Y698500D03*
D10*
X820420Y673100D03*
X820420Y647700D03*
D13*
X969772Y386334D02*
X985012Y386334D01*
X985012Y431546D02*
X969772Y431546D01*
X919988Y386334D02*
X904748Y386334D01*
X904748Y431546D02*
X919988Y431546D01*
X612140Y459740D02*
X596900Y459740D01*
X596900Y434340D02*
X612140Y434340D01*
X612140Y408940D02*
X596900Y408940D01*
X596900Y383540D02*
X612140Y383540D01*
X612140Y358140D02*
X596900Y358140D01*
X881380Y254000D02*
X896620Y254000D01*
X896620Y228600D02*
X881380Y228600D01*
X881380Y203200D02*
X896620Y203200D01*
X896620Y177800D02*
X881380Y177800D01*
X881380Y152400D02*
X896620Y152400D01*
X617220Y254000D02*
X601980Y254000D01*
X601980Y228600D02*
X617220Y228600D01*
X617220Y203200D02*
X601980Y203200D01*
X601980Y177800D02*
X617220Y177800D01*
X617220Y152400D02*
X601980Y152400D01*
D10*
X646938Y357124D03*
X646938Y382524D03*
X1000760Y327533D03*
X1000760Y302133D03*
D14*
X962406Y551180D03*
X987806Y551180D03*
X962406Y525780D03*
X987806Y525780D03*
X962406Y500380D03*
X987806Y500380D03*
X962406Y474980D03*
X987806Y474980D03*
D15*
X688340Y409956D03*
X707390Y422656D03*
X688340Y435356D03*
D10*
X1045972Y251460D03*
X1045972Y276860D03*
X1045972Y302260D03*
X1045972Y327660D03*
D16*
X586740Y693928D03*
D17*
X586740Y645928D03*
X586740Y741928D03*
D16*
X586740Y713928D03*
X586740Y674928D03*
D18*
X721296Y41224D02*
X731876Y41224D01*
X771296Y41224D02*
X781876Y41224D01*
D19*
X716586Y19264D02*
X716586Y9184D01*
X786586Y9184D02*
X786586Y19264D01*
D20*
X383640Y79800D02*
X142340Y79800D01*
D21*
X604520Y434340D02*
X722630Y552450D01*
X793750Y552450D01*
X820420Y579120D01*
X820420Y647700D01*
X820420Y451047D02*
X989781Y281686D01*
X820420Y451047D02*
X820420Y579120D01*
X1015746Y281686D02*
X1045972Y251460D01*
X1015746Y281686D02*
X989781Y281686D01*
D22*
X790869Y403994D03*
D23*
X790869Y395231D01*
X790742Y395104D01*
X790742Y392898D01*
X824230Y359410D01*
D22*
X824230Y359410D03*
X762762Y302768D03*
D23*
X811530Y254000D01*
X889000Y254000D01*
D21*
X1058926Y256826D02*
X1058926Y246094D01*
X1051338Y238506D01*
X1040606Y238506D01*
X1045972Y269780D02*
X1045972Y276860D01*
X1045972Y269780D02*
X1058926Y256826D01*
X1040606Y238506D02*
X1036288Y242824D01*
X880872Y242824D01*
X605536Y409956D02*
X604520Y408940D01*
X605536Y409956D02*
X688340Y409956D01*
X688340Y359283D01*
X805053Y242570D01*
X880618Y242570D01*
X880872Y242824D01*
D24*
X607140Y693674D02*
X607394Y693928D01*
X817372Y693928D01*
X820420Y696976D01*
X820420Y698500D01*
X586740Y713928D02*
X565846Y713928D01*
X544278Y692360D02*
X383440Y692360D01*
X544278Y692360D02*
X565846Y713928D01*
X586740Y693928D02*
X607394Y693928D01*
D21*
X604520Y383540D02*
X630555Y357505D01*
X630555Y181737D01*
X626618Y177800D01*
X609600Y177800D01*
X585089Y338709D02*
X604520Y358140D01*
X585089Y338709D02*
X585089Y238252D01*
X594741Y228600D01*
X609600Y228600D01*
D22*
X972820Y278130D03*
D23*
X947420Y303530D01*
X861340Y303530D01*
X759288Y405582D01*
X759288Y414726D01*
D22*
X759288Y414726D03*
X935990Y267970D03*
D23*
X929132Y274828D01*
X871601Y274828D01*
X723011Y423418D01*
D22*
X723011Y423418D03*
M02*
