G04 EAGLE Gerber RS-274X export*
G75*
%MOMM*%
%FSLAX34Y34*%
%LPD*%
%IN*%
%IPPOS*%
%AMOC8*
5,1,8,0,0,1.08239X$1,22.5*%
G01*
%ADD10C,0.254000*%


D10*
X0Y0D02*
X1086360Y0D01*
X1086360Y800000D01*
X0Y800000D01*
X0Y0D01*
X784340Y11990D02*
X784350Y11772D01*
X784378Y11556D01*
X784425Y11343D01*
X784491Y11135D01*
X784574Y10933D01*
X784675Y10740D01*
X784792Y10556D01*
X784925Y10383D01*
X785072Y10222D01*
X785233Y10075D01*
X785406Y9942D01*
X785590Y9825D01*
X785783Y9724D01*
X785985Y9641D01*
X786193Y9575D01*
X786406Y9528D01*
X786622Y9500D01*
X786840Y9490D01*
X787058Y9500D01*
X787274Y9528D01*
X787487Y9575D01*
X787695Y9641D01*
X787897Y9724D01*
X788090Y9825D01*
X788274Y9942D01*
X788447Y10075D01*
X788608Y10222D01*
X788755Y10383D01*
X788888Y10556D01*
X789005Y10740D01*
X789106Y10933D01*
X789189Y11135D01*
X789255Y11343D01*
X789302Y11556D01*
X789331Y11772D01*
X789340Y11990D01*
X789340Y18490D01*
X789331Y18708D01*
X789302Y18924D01*
X789255Y19137D01*
X789189Y19345D01*
X789106Y19547D01*
X789005Y19740D01*
X788888Y19924D01*
X788755Y20097D01*
X788608Y20258D01*
X788447Y20405D01*
X788274Y20538D01*
X788090Y20655D01*
X787897Y20756D01*
X787695Y20839D01*
X787487Y20905D01*
X787274Y20952D01*
X787058Y20981D01*
X786840Y20990D01*
X786622Y20981D01*
X786406Y20952D01*
X786193Y20905D01*
X785985Y20839D01*
X785783Y20756D01*
X785590Y20655D01*
X785406Y20538D01*
X785233Y20405D01*
X785072Y20258D01*
X784925Y20097D01*
X784792Y19924D01*
X784675Y19740D01*
X784574Y19547D01*
X784491Y19345D01*
X784425Y19137D01*
X784378Y18924D01*
X784350Y18708D01*
X784340Y18490D01*
X784340Y11990D01*
X714340Y11990D02*
X714350Y11772D01*
X714378Y11556D01*
X714425Y11343D01*
X714491Y11135D01*
X714574Y10933D01*
X714675Y10740D01*
X714792Y10556D01*
X714925Y10383D01*
X715072Y10222D01*
X715233Y10075D01*
X715406Y9942D01*
X715590Y9825D01*
X715783Y9724D01*
X715985Y9641D01*
X716193Y9575D01*
X716406Y9528D01*
X716622Y9500D01*
X716840Y9490D01*
X717058Y9500D01*
X717274Y9528D01*
X717487Y9575D01*
X717695Y9641D01*
X717897Y9724D01*
X718090Y9825D01*
X718274Y9942D01*
X718447Y10075D01*
X718608Y10222D01*
X718755Y10383D01*
X718888Y10556D01*
X719005Y10740D01*
X719106Y10933D01*
X719189Y11135D01*
X719255Y11343D01*
X719302Y11556D01*
X719331Y11772D01*
X719340Y11990D01*
X719340Y18490D01*
X719331Y18708D01*
X719302Y18924D01*
X719255Y19137D01*
X719189Y19345D01*
X719106Y19547D01*
X719005Y19740D01*
X718888Y19924D01*
X718755Y20097D01*
X718608Y20258D01*
X718447Y20405D01*
X718274Y20538D01*
X718090Y20655D01*
X717897Y20756D01*
X717695Y20839D01*
X717487Y20905D01*
X717274Y20952D01*
X717058Y20981D01*
X716840Y20990D01*
X716622Y20981D01*
X716406Y20952D01*
X716193Y20905D01*
X715985Y20839D01*
X715783Y20756D01*
X715590Y20655D01*
X715406Y20538D01*
X715233Y20405D01*
X715072Y20258D01*
X714925Y20097D01*
X714792Y19924D01*
X714675Y19740D01*
X714574Y19547D01*
X714491Y19345D01*
X714425Y19137D01*
X714378Y18924D01*
X714350Y18708D01*
X714340Y18490D01*
X714340Y11990D01*
X725340Y39490D02*
X728340Y39490D01*
X728580Y39500D01*
X728818Y39532D01*
X729052Y39584D01*
X729281Y39656D01*
X729502Y39748D01*
X729715Y39858D01*
X729917Y39987D01*
X730108Y40133D01*
X730285Y40295D01*
X730447Y40472D01*
X730593Y40663D01*
X730722Y40865D01*
X730832Y41078D01*
X730924Y41299D01*
X730996Y41528D01*
X731048Y41762D01*
X731080Y42000D01*
X731090Y42240D01*
X731080Y42480D01*
X731048Y42718D01*
X730996Y42952D01*
X730924Y43181D01*
X730832Y43402D01*
X730722Y43615D01*
X730593Y43817D01*
X730447Y44008D01*
X730285Y44185D01*
X730108Y44347D01*
X729917Y44493D01*
X729715Y44622D01*
X729502Y44732D01*
X729281Y44824D01*
X729052Y44896D01*
X728818Y44948D01*
X728580Y44980D01*
X728340Y44990D01*
X725340Y44990D01*
X725100Y44980D01*
X724862Y44948D01*
X724628Y44896D01*
X724399Y44824D01*
X724178Y44732D01*
X723965Y44622D01*
X723763Y44493D01*
X723572Y44347D01*
X723395Y44185D01*
X723233Y44008D01*
X723087Y43817D01*
X722958Y43615D01*
X722848Y43402D01*
X722756Y43181D01*
X722684Y42952D01*
X722632Y42718D01*
X722600Y42480D01*
X722590Y42240D01*
X722600Y42000D01*
X722632Y41762D01*
X722684Y41528D01*
X722756Y41299D01*
X722848Y41078D01*
X722958Y40865D01*
X723087Y40663D01*
X723233Y40472D01*
X723395Y40295D01*
X723572Y40133D01*
X723763Y39987D01*
X723965Y39858D01*
X724178Y39748D01*
X724399Y39656D01*
X724628Y39584D01*
X724862Y39532D01*
X725100Y39500D01*
X725340Y39490D01*
X775340Y39490D02*
X778340Y39490D01*
X778580Y39500D01*
X778818Y39532D01*
X779052Y39584D01*
X779281Y39656D01*
X779502Y39748D01*
X779715Y39858D01*
X779917Y39987D01*
X780108Y40133D01*
X780285Y40295D01*
X780447Y40472D01*
X780593Y40663D01*
X780722Y40865D01*
X780832Y41078D01*
X780924Y41299D01*
X780996Y41528D01*
X781048Y41762D01*
X781080Y42000D01*
X781090Y42240D01*
X781080Y42480D01*
X781048Y42718D01*
X780996Y42952D01*
X780924Y43181D01*
X780832Y43402D01*
X780722Y43615D01*
X780593Y43817D01*
X780447Y44008D01*
X780285Y44185D01*
X780108Y44347D01*
X779917Y44493D01*
X779715Y44622D01*
X779502Y44732D01*
X779281Y44824D01*
X779052Y44896D01*
X778818Y44948D01*
X778580Y44980D01*
X778340Y44990D01*
X775340Y44990D01*
X775100Y44980D01*
X774862Y44948D01*
X774628Y44896D01*
X774399Y44824D01*
X774178Y44732D01*
X773965Y44622D01*
X773763Y44493D01*
X773572Y44347D01*
X773395Y44185D01*
X773233Y44008D01*
X773087Y43817D01*
X772958Y43615D01*
X772848Y43402D01*
X772756Y43181D01*
X772684Y42952D01*
X772632Y42718D01*
X772600Y42480D01*
X772590Y42240D01*
X772600Y42000D01*
X772632Y41762D01*
X772684Y41528D01*
X772756Y41299D01*
X772848Y41078D01*
X772958Y40865D01*
X773087Y40663D01*
X773233Y40472D01*
X773395Y40295D01*
X773572Y40133D01*
X773763Y39987D01*
X773965Y39858D01*
X774178Y39748D01*
X774399Y39656D01*
X774628Y39584D01*
X774862Y39532D01*
X775100Y39500D01*
X775340Y39490D01*
X40400Y24864D02*
X40324Y23796D01*
X40171Y22735D01*
X39943Y21688D01*
X39641Y20660D01*
X39267Y19656D01*
X38822Y18681D01*
X38308Y17741D01*
X37729Y16840D01*
X37087Y15982D01*
X36385Y15172D01*
X35628Y14415D01*
X34818Y13713D01*
X33960Y13071D01*
X33059Y12492D01*
X32119Y11978D01*
X31144Y11533D01*
X30140Y11159D01*
X29112Y10857D01*
X28065Y10629D01*
X27004Y10476D01*
X25936Y10400D01*
X24864Y10400D01*
X23796Y10476D01*
X22735Y10629D01*
X21688Y10857D01*
X20660Y11159D01*
X19656Y11533D01*
X18681Y11978D01*
X17741Y12492D01*
X16840Y13071D01*
X15982Y13713D01*
X15172Y14415D01*
X14415Y15172D01*
X13713Y15982D01*
X13071Y16840D01*
X12492Y17741D01*
X11978Y18681D01*
X11533Y19656D01*
X11159Y20660D01*
X10857Y21688D01*
X10629Y22735D01*
X10476Y23796D01*
X10400Y24864D01*
X10400Y25936D01*
X10476Y27004D01*
X10629Y28065D01*
X10857Y29112D01*
X11159Y30140D01*
X11533Y31144D01*
X11978Y32119D01*
X12492Y33059D01*
X13071Y33960D01*
X13713Y34818D01*
X14415Y35628D01*
X15172Y36385D01*
X15982Y37087D01*
X16840Y37729D01*
X17741Y38308D01*
X18681Y38822D01*
X19656Y39267D01*
X20660Y39641D01*
X21688Y39943D01*
X22735Y40171D01*
X23796Y40324D01*
X24864Y40400D01*
X25936Y40400D01*
X27004Y40324D01*
X28065Y40171D01*
X29112Y39943D01*
X30140Y39641D01*
X31144Y39267D01*
X32119Y38822D01*
X33059Y38308D01*
X33960Y37729D01*
X34818Y37087D01*
X35628Y36385D01*
X36385Y35628D01*
X37087Y34818D01*
X37729Y33960D01*
X38308Y33059D01*
X38822Y32119D01*
X39267Y31144D01*
X39641Y30140D01*
X39943Y29112D01*
X40171Y28065D01*
X40324Y27004D01*
X40400Y25936D01*
X40400Y24864D01*
X40400Y774164D02*
X40324Y773096D01*
X40171Y772035D01*
X39943Y770988D01*
X39641Y769960D01*
X39267Y768956D01*
X38822Y767981D01*
X38308Y767041D01*
X37729Y766140D01*
X37087Y765282D01*
X36385Y764472D01*
X35628Y763715D01*
X34818Y763013D01*
X33960Y762371D01*
X33059Y761792D01*
X32119Y761278D01*
X31144Y760833D01*
X30140Y760459D01*
X29112Y760157D01*
X28065Y759929D01*
X27004Y759776D01*
X25936Y759700D01*
X24864Y759700D01*
X23796Y759776D01*
X22735Y759929D01*
X21688Y760157D01*
X20660Y760459D01*
X19656Y760833D01*
X18681Y761278D01*
X17741Y761792D01*
X16840Y762371D01*
X15982Y763013D01*
X15172Y763715D01*
X14415Y764472D01*
X13713Y765282D01*
X13071Y766140D01*
X12492Y767041D01*
X11978Y767981D01*
X11533Y768956D01*
X11159Y769960D01*
X10857Y770988D01*
X10629Y772035D01*
X10476Y773096D01*
X10400Y774164D01*
X10400Y775236D01*
X10476Y776304D01*
X10629Y777365D01*
X10857Y778412D01*
X11159Y779440D01*
X11533Y780444D01*
X11978Y781419D01*
X12492Y782359D01*
X13071Y783260D01*
X13713Y784118D01*
X14415Y784928D01*
X15172Y785685D01*
X15982Y786387D01*
X16840Y787029D01*
X17741Y787608D01*
X18681Y788122D01*
X19656Y788567D01*
X20660Y788941D01*
X21688Y789243D01*
X22735Y789471D01*
X23796Y789624D01*
X24864Y789700D01*
X25936Y789700D01*
X27004Y789624D01*
X28065Y789471D01*
X29112Y789243D01*
X30140Y788941D01*
X31144Y788567D01*
X32119Y788122D01*
X33059Y787608D01*
X33960Y787029D01*
X34818Y786387D01*
X35628Y785685D01*
X36385Y784928D01*
X37087Y784118D01*
X37729Y783260D01*
X38308Y782359D01*
X38822Y781419D01*
X39267Y780444D01*
X39641Y779440D01*
X39943Y778412D01*
X40171Y777365D01*
X40324Y776304D01*
X40400Y775236D01*
X40400Y774164D01*
X1076720Y774164D02*
X1076644Y773096D01*
X1076491Y772035D01*
X1076263Y770988D01*
X1075961Y769960D01*
X1075587Y768956D01*
X1075142Y767981D01*
X1074628Y767041D01*
X1074049Y766140D01*
X1073407Y765282D01*
X1072705Y764472D01*
X1071948Y763715D01*
X1071138Y763013D01*
X1070280Y762371D01*
X1069379Y761792D01*
X1068439Y761278D01*
X1067464Y760833D01*
X1066460Y760459D01*
X1065432Y760157D01*
X1064385Y759929D01*
X1063324Y759776D01*
X1062256Y759700D01*
X1061184Y759700D01*
X1060116Y759776D01*
X1059055Y759929D01*
X1058008Y760157D01*
X1056980Y760459D01*
X1055976Y760833D01*
X1055001Y761278D01*
X1054061Y761792D01*
X1053160Y762371D01*
X1052302Y763013D01*
X1051492Y763715D01*
X1050735Y764472D01*
X1050033Y765282D01*
X1049391Y766140D01*
X1048812Y767041D01*
X1048298Y767981D01*
X1047853Y768956D01*
X1047479Y769960D01*
X1047177Y770988D01*
X1046949Y772035D01*
X1046796Y773096D01*
X1046720Y774164D01*
X1046720Y775236D01*
X1046796Y776304D01*
X1046949Y777365D01*
X1047177Y778412D01*
X1047479Y779440D01*
X1047853Y780444D01*
X1048298Y781419D01*
X1048812Y782359D01*
X1049391Y783260D01*
X1050033Y784118D01*
X1050735Y784928D01*
X1051492Y785685D01*
X1052302Y786387D01*
X1053160Y787029D01*
X1054061Y787608D01*
X1055001Y788122D01*
X1055976Y788567D01*
X1056980Y788941D01*
X1058008Y789243D01*
X1059055Y789471D01*
X1060116Y789624D01*
X1061184Y789700D01*
X1062256Y789700D01*
X1063324Y789624D01*
X1064385Y789471D01*
X1065432Y789243D01*
X1066460Y788941D01*
X1067464Y788567D01*
X1068439Y788122D01*
X1069379Y787608D01*
X1070280Y787029D01*
X1071138Y786387D01*
X1071948Y785685D01*
X1072705Y784928D01*
X1073407Y784118D01*
X1074049Y783260D01*
X1074628Y782359D01*
X1075142Y781419D01*
X1075587Y780444D01*
X1075961Y779440D01*
X1076263Y778412D01*
X1076491Y777365D01*
X1076644Y776304D01*
X1076720Y775236D01*
X1076720Y774164D01*
X1076720Y24864D02*
X1076644Y23796D01*
X1076491Y22735D01*
X1076263Y21688D01*
X1075961Y20660D01*
X1075587Y19656D01*
X1075142Y18681D01*
X1074628Y17741D01*
X1074049Y16840D01*
X1073407Y15982D01*
X1072705Y15172D01*
X1071948Y14415D01*
X1071138Y13713D01*
X1070280Y13071D01*
X1069379Y12492D01*
X1068439Y11978D01*
X1067464Y11533D01*
X1066460Y11159D01*
X1065432Y10857D01*
X1064385Y10629D01*
X1063324Y10476D01*
X1062256Y10400D01*
X1061184Y10400D01*
X1060116Y10476D01*
X1059055Y10629D01*
X1058008Y10857D01*
X1056980Y11159D01*
X1055976Y11533D01*
X1055001Y11978D01*
X1054061Y12492D01*
X1053160Y13071D01*
X1052302Y13713D01*
X1051492Y14415D01*
X1050735Y15172D01*
X1050033Y15982D01*
X1049391Y16840D01*
X1048812Y17741D01*
X1048298Y18681D01*
X1047853Y19656D01*
X1047479Y20660D01*
X1047177Y21688D01*
X1046949Y22735D01*
X1046796Y23796D01*
X1046720Y24864D01*
X1046720Y25936D01*
X1046796Y27004D01*
X1046949Y28065D01*
X1047177Y29112D01*
X1047479Y30140D01*
X1047853Y31144D01*
X1048298Y32119D01*
X1048812Y33059D01*
X1049391Y33960D01*
X1050033Y34818D01*
X1050735Y35628D01*
X1051492Y36385D01*
X1052302Y37087D01*
X1053160Y37729D01*
X1054061Y38308D01*
X1055001Y38822D01*
X1055976Y39267D01*
X1056980Y39641D01*
X1058008Y39943D01*
X1059055Y40171D01*
X1060116Y40324D01*
X1061184Y40400D01*
X1062256Y40400D01*
X1063324Y40324D01*
X1064385Y40171D01*
X1065432Y39943D01*
X1066460Y39641D01*
X1067464Y39267D01*
X1068439Y38822D01*
X1069379Y38308D01*
X1070280Y37729D01*
X1071138Y37087D01*
X1071948Y36385D01*
X1072705Y35628D01*
X1073407Y34818D01*
X1074049Y33960D01*
X1074628Y33059D01*
X1075142Y32119D01*
X1075587Y31144D01*
X1075961Y30140D01*
X1076263Y29112D01*
X1076491Y28065D01*
X1076644Y27004D01*
X1076720Y25936D01*
X1076720Y24864D01*
M02*
