G04 EAGLE Gerber RS-274X export*
G75*
%MOMM*%
%FSLAX34Y34*%
%LPD*%
%INSilkscreen Top*%
%IPPOS*%
%AMOC8*
5,1,8,0,0,1.08239X$1,22.5*%
G01*
%ADD10C,0.152400*%
%ADD11C,0.203200*%
%ADD12C,0.127000*%
%ADD13C,0.304800*%
%ADD14C,0.050800*%
%ADD15C,0.170000*%
%ADD16C,0.400000*%
%ADD17C,0.076200*%
%ADD18C,0.254000*%
%ADD19C,0.025400*%
%ADD20C,0.101600*%
%ADD21C,0.100000*%


D10*
X898845Y94107D02*
X904264Y110363D01*
X909683Y94107D01*
X908328Y98171D02*
X900200Y98171D01*
X915206Y94107D02*
X915206Y104944D01*
X914754Y109460D02*
X914754Y110363D01*
X915657Y110363D01*
X915657Y109460D01*
X914754Y109460D01*
X922099Y104944D02*
X922099Y94107D01*
X922099Y104944D02*
X927518Y104944D01*
X927518Y103138D01*
X933790Y100429D02*
X938305Y98623D01*
X933789Y100429D02*
X933701Y100466D01*
X933615Y100507D01*
X933530Y100551D01*
X933447Y100599D01*
X933367Y100650D01*
X933288Y100704D01*
X933212Y100762D01*
X933138Y100822D01*
X933066Y100886D01*
X932998Y100952D01*
X932932Y101022D01*
X932869Y101093D01*
X932808Y101168D01*
X932751Y101244D01*
X932698Y101323D01*
X932647Y101404D01*
X932600Y101487D01*
X932556Y101572D01*
X932516Y101659D01*
X932479Y101747D01*
X932446Y101837D01*
X932416Y101928D01*
X932391Y102020D01*
X932369Y102113D01*
X932351Y102207D01*
X932336Y102301D01*
X932326Y102396D01*
X932320Y102492D01*
X932317Y102587D01*
X932318Y102683D01*
X932324Y102778D01*
X932333Y102874D01*
X932346Y102968D01*
X932362Y103062D01*
X932383Y103156D01*
X932408Y103248D01*
X932436Y103339D01*
X932468Y103429D01*
X932503Y103518D01*
X932542Y103605D01*
X932585Y103691D01*
X932631Y103775D01*
X932681Y103856D01*
X932733Y103936D01*
X932789Y104014D01*
X932849Y104089D01*
X932911Y104161D01*
X932976Y104231D01*
X933044Y104299D01*
X933114Y104363D01*
X933187Y104425D01*
X933263Y104483D01*
X933341Y104539D01*
X933421Y104591D01*
X933503Y104640D01*
X933587Y104685D01*
X933673Y104727D01*
X933760Y104766D01*
X933849Y104801D01*
X933940Y104832D01*
X934031Y104859D01*
X934124Y104883D01*
X934217Y104903D01*
X934311Y104919D01*
X934406Y104931D01*
X934501Y104940D01*
X934597Y104944D01*
X934692Y104945D01*
X934939Y104938D01*
X935185Y104926D01*
X935431Y104908D01*
X935677Y104883D01*
X935921Y104853D01*
X936165Y104817D01*
X936408Y104776D01*
X936650Y104728D01*
X936891Y104674D01*
X937130Y104615D01*
X937368Y104550D01*
X937604Y104479D01*
X937839Y104403D01*
X938072Y104321D01*
X938302Y104233D01*
X938530Y104140D01*
X938757Y104042D01*
X938306Y98622D02*
X938394Y98585D01*
X938480Y98544D01*
X938565Y98500D01*
X938648Y98452D01*
X938728Y98401D01*
X938807Y98347D01*
X938883Y98289D01*
X938957Y98229D01*
X939029Y98165D01*
X939097Y98099D01*
X939163Y98029D01*
X939226Y97958D01*
X939287Y97883D01*
X939344Y97807D01*
X939397Y97728D01*
X939448Y97647D01*
X939495Y97564D01*
X939539Y97479D01*
X939579Y97392D01*
X939616Y97304D01*
X939649Y97214D01*
X939679Y97123D01*
X939704Y97031D01*
X939726Y96938D01*
X939744Y96844D01*
X939759Y96750D01*
X939769Y96655D01*
X939775Y96559D01*
X939778Y96464D01*
X939777Y96368D01*
X939771Y96273D01*
X939762Y96177D01*
X939749Y96083D01*
X939733Y95989D01*
X939712Y95895D01*
X939687Y95803D01*
X939659Y95712D01*
X939627Y95622D01*
X939592Y95533D01*
X939553Y95446D01*
X939510Y95360D01*
X939464Y95276D01*
X939414Y95195D01*
X939362Y95115D01*
X939306Y95037D01*
X939246Y94962D01*
X939184Y94890D01*
X939119Y94820D01*
X939051Y94752D01*
X938981Y94688D01*
X938908Y94626D01*
X938832Y94568D01*
X938754Y94512D01*
X938674Y94460D01*
X938592Y94411D01*
X938508Y94366D01*
X938422Y94324D01*
X938335Y94285D01*
X938246Y94250D01*
X938155Y94219D01*
X938064Y94192D01*
X937971Y94168D01*
X937878Y94148D01*
X937784Y94132D01*
X937689Y94120D01*
X937594Y94111D01*
X937498Y94107D01*
X937403Y94106D01*
X937402Y94107D02*
X937040Y94116D01*
X936678Y94134D01*
X936317Y94161D01*
X935957Y94196D01*
X935597Y94239D01*
X935238Y94291D01*
X934881Y94352D01*
X934526Y94421D01*
X934172Y94498D01*
X933820Y94584D01*
X933470Y94678D01*
X933122Y94781D01*
X932777Y94891D01*
X932435Y95010D01*
X948691Y94107D02*
X953207Y94107D01*
X948691Y94107D02*
X948590Y94109D01*
X948489Y94115D01*
X948388Y94124D01*
X948287Y94137D01*
X948187Y94154D01*
X948088Y94175D01*
X947990Y94199D01*
X947893Y94227D01*
X947796Y94259D01*
X947701Y94294D01*
X947608Y94333D01*
X947516Y94375D01*
X947425Y94421D01*
X947337Y94470D01*
X947250Y94522D01*
X947165Y94578D01*
X947082Y94636D01*
X947002Y94698D01*
X946924Y94763D01*
X946848Y94830D01*
X946775Y94900D01*
X946705Y94973D01*
X946638Y95049D01*
X946573Y95127D01*
X946511Y95207D01*
X946453Y95290D01*
X946397Y95375D01*
X946345Y95462D01*
X946296Y95550D01*
X946250Y95641D01*
X946208Y95733D01*
X946169Y95826D01*
X946134Y95921D01*
X946102Y96018D01*
X946074Y96115D01*
X946050Y96213D01*
X946029Y96312D01*
X946012Y96412D01*
X945999Y96513D01*
X945990Y96614D01*
X945984Y96715D01*
X945982Y96816D01*
X945982Y101332D01*
X945983Y101332D02*
X945985Y101451D01*
X945991Y101571D01*
X946001Y101690D01*
X946015Y101808D01*
X946032Y101927D01*
X946054Y102044D01*
X946079Y102161D01*
X946109Y102276D01*
X946142Y102391D01*
X946179Y102505D01*
X946219Y102617D01*
X946264Y102728D01*
X946312Y102837D01*
X946363Y102945D01*
X946418Y103051D01*
X946477Y103155D01*
X946539Y103257D01*
X946604Y103357D01*
X946673Y103455D01*
X946745Y103551D01*
X946820Y103644D01*
X946897Y103734D01*
X946978Y103822D01*
X947062Y103907D01*
X947149Y103989D01*
X947238Y104069D01*
X947330Y104145D01*
X947424Y104219D01*
X947521Y104289D01*
X947619Y104356D01*
X947720Y104420D01*
X947824Y104480D01*
X947929Y104537D01*
X948036Y104590D01*
X948144Y104640D01*
X948254Y104686D01*
X948366Y104728D01*
X948479Y104767D01*
X948593Y104802D01*
X948708Y104833D01*
X948825Y104861D01*
X948942Y104884D01*
X949059Y104904D01*
X949178Y104920D01*
X949297Y104932D01*
X949416Y104940D01*
X949535Y104944D01*
X949655Y104944D01*
X949774Y104940D01*
X949893Y104932D01*
X950012Y104920D01*
X950131Y104904D01*
X950248Y104884D01*
X950365Y104861D01*
X950482Y104833D01*
X950597Y104802D01*
X950711Y104767D01*
X950824Y104728D01*
X950936Y104686D01*
X951046Y104640D01*
X951154Y104590D01*
X951261Y104537D01*
X951366Y104480D01*
X951470Y104420D01*
X951571Y104356D01*
X951669Y104289D01*
X951766Y104219D01*
X951860Y104145D01*
X951952Y104069D01*
X952041Y103989D01*
X952128Y103907D01*
X952212Y103822D01*
X952293Y103734D01*
X952370Y103644D01*
X952445Y103551D01*
X952517Y103455D01*
X952586Y103357D01*
X952651Y103257D01*
X952713Y103155D01*
X952772Y103051D01*
X952827Y102945D01*
X952878Y102837D01*
X952926Y102728D01*
X952971Y102617D01*
X953011Y102505D01*
X953048Y102391D01*
X953081Y102276D01*
X953111Y102161D01*
X953136Y102044D01*
X953158Y101927D01*
X953175Y101808D01*
X953189Y101690D01*
X953199Y101571D01*
X953205Y101451D01*
X953207Y101332D01*
X953207Y99526D01*
X945982Y99526D01*
X960050Y94107D02*
X960050Y104944D01*
X964566Y104944D01*
X964670Y104942D01*
X964773Y104936D01*
X964877Y104926D01*
X964980Y104912D01*
X965082Y104894D01*
X965183Y104873D01*
X965284Y104847D01*
X965383Y104818D01*
X965482Y104785D01*
X965579Y104748D01*
X965674Y104707D01*
X965768Y104663D01*
X965860Y104615D01*
X965950Y104564D01*
X966039Y104509D01*
X966125Y104451D01*
X966208Y104389D01*
X966290Y104325D01*
X966368Y104257D01*
X966444Y104187D01*
X966518Y104114D01*
X966588Y104037D01*
X966656Y103959D01*
X966720Y103877D01*
X966782Y103794D01*
X966840Y103708D01*
X966895Y103619D01*
X966946Y103529D01*
X966994Y103437D01*
X967038Y103343D01*
X967079Y103248D01*
X967116Y103151D01*
X967149Y103052D01*
X967178Y102953D01*
X967204Y102852D01*
X967225Y102751D01*
X967243Y102649D01*
X967257Y102546D01*
X967267Y102442D01*
X967273Y102339D01*
X967275Y102235D01*
X967275Y94107D01*
X975473Y100429D02*
X979989Y98623D01*
X975473Y100429D02*
X975385Y100466D01*
X975299Y100507D01*
X975214Y100551D01*
X975131Y100599D01*
X975051Y100650D01*
X974972Y100704D01*
X974896Y100762D01*
X974822Y100822D01*
X974750Y100886D01*
X974682Y100952D01*
X974616Y101022D01*
X974553Y101093D01*
X974492Y101168D01*
X974435Y101244D01*
X974382Y101323D01*
X974331Y101404D01*
X974284Y101487D01*
X974240Y101572D01*
X974200Y101659D01*
X974163Y101747D01*
X974130Y101837D01*
X974100Y101928D01*
X974075Y102020D01*
X974053Y102113D01*
X974035Y102207D01*
X974020Y102301D01*
X974010Y102396D01*
X974004Y102492D01*
X974001Y102587D01*
X974002Y102683D01*
X974008Y102778D01*
X974017Y102874D01*
X974030Y102968D01*
X974046Y103062D01*
X974067Y103156D01*
X974092Y103248D01*
X974120Y103339D01*
X974152Y103429D01*
X974187Y103518D01*
X974226Y103605D01*
X974269Y103691D01*
X974315Y103775D01*
X974365Y103856D01*
X974417Y103936D01*
X974473Y104014D01*
X974533Y104089D01*
X974595Y104161D01*
X974660Y104231D01*
X974728Y104299D01*
X974798Y104363D01*
X974871Y104425D01*
X974947Y104483D01*
X975025Y104539D01*
X975105Y104591D01*
X975187Y104640D01*
X975271Y104685D01*
X975357Y104727D01*
X975444Y104766D01*
X975533Y104801D01*
X975624Y104832D01*
X975715Y104859D01*
X975808Y104883D01*
X975901Y104903D01*
X975995Y104919D01*
X976090Y104931D01*
X976185Y104940D01*
X976281Y104944D01*
X976376Y104945D01*
X976623Y104938D01*
X976869Y104926D01*
X977115Y104908D01*
X977361Y104883D01*
X977605Y104853D01*
X977849Y104817D01*
X978092Y104776D01*
X978334Y104728D01*
X978575Y104674D01*
X978814Y104615D01*
X979052Y104550D01*
X979288Y104479D01*
X979523Y104403D01*
X979756Y104321D01*
X979986Y104233D01*
X980214Y104140D01*
X980441Y104042D01*
X979989Y98622D02*
X980077Y98585D01*
X980163Y98544D01*
X980248Y98500D01*
X980331Y98452D01*
X980411Y98401D01*
X980490Y98347D01*
X980566Y98289D01*
X980640Y98229D01*
X980712Y98165D01*
X980780Y98099D01*
X980846Y98029D01*
X980909Y97958D01*
X980970Y97883D01*
X981027Y97807D01*
X981080Y97728D01*
X981131Y97647D01*
X981178Y97564D01*
X981222Y97479D01*
X981262Y97392D01*
X981299Y97304D01*
X981332Y97214D01*
X981362Y97123D01*
X981387Y97031D01*
X981409Y96938D01*
X981427Y96844D01*
X981442Y96750D01*
X981452Y96655D01*
X981458Y96559D01*
X981461Y96464D01*
X981460Y96368D01*
X981454Y96273D01*
X981445Y96177D01*
X981432Y96083D01*
X981416Y95989D01*
X981395Y95895D01*
X981370Y95803D01*
X981342Y95712D01*
X981310Y95622D01*
X981275Y95533D01*
X981236Y95446D01*
X981193Y95360D01*
X981147Y95276D01*
X981097Y95195D01*
X981045Y95115D01*
X980989Y95037D01*
X980929Y94962D01*
X980867Y94890D01*
X980802Y94820D01*
X980734Y94752D01*
X980664Y94688D01*
X980591Y94626D01*
X980515Y94568D01*
X980437Y94512D01*
X980357Y94460D01*
X980275Y94411D01*
X980191Y94366D01*
X980105Y94324D01*
X980018Y94285D01*
X979929Y94250D01*
X979838Y94219D01*
X979747Y94192D01*
X979654Y94168D01*
X979561Y94148D01*
X979467Y94132D01*
X979372Y94120D01*
X979277Y94111D01*
X979181Y94107D01*
X979086Y94106D01*
X979085Y94107D02*
X978723Y94116D01*
X978361Y94134D01*
X978000Y94161D01*
X977640Y94196D01*
X977280Y94239D01*
X976921Y94291D01*
X976564Y94352D01*
X976209Y94421D01*
X975855Y94498D01*
X975503Y94584D01*
X975153Y94678D01*
X974805Y94781D01*
X974460Y94891D01*
X974118Y95010D01*
X987665Y97719D02*
X987665Y101332D01*
X987666Y101332D02*
X987668Y101451D01*
X987674Y101571D01*
X987684Y101690D01*
X987698Y101808D01*
X987715Y101927D01*
X987737Y102044D01*
X987762Y102161D01*
X987792Y102276D01*
X987825Y102391D01*
X987862Y102505D01*
X987902Y102617D01*
X987947Y102728D01*
X987995Y102837D01*
X988046Y102945D01*
X988101Y103051D01*
X988160Y103155D01*
X988222Y103257D01*
X988287Y103357D01*
X988356Y103455D01*
X988428Y103551D01*
X988503Y103644D01*
X988580Y103734D01*
X988661Y103822D01*
X988745Y103907D01*
X988832Y103989D01*
X988921Y104069D01*
X989013Y104145D01*
X989107Y104219D01*
X989204Y104289D01*
X989302Y104356D01*
X989403Y104420D01*
X989507Y104480D01*
X989612Y104537D01*
X989719Y104590D01*
X989827Y104640D01*
X989937Y104686D01*
X990049Y104728D01*
X990162Y104767D01*
X990276Y104802D01*
X990391Y104833D01*
X990508Y104861D01*
X990625Y104884D01*
X990742Y104904D01*
X990861Y104920D01*
X990980Y104932D01*
X991099Y104940D01*
X991218Y104944D01*
X991338Y104944D01*
X991457Y104940D01*
X991576Y104932D01*
X991695Y104920D01*
X991814Y104904D01*
X991931Y104884D01*
X992048Y104861D01*
X992165Y104833D01*
X992280Y104802D01*
X992394Y104767D01*
X992507Y104728D01*
X992619Y104686D01*
X992729Y104640D01*
X992837Y104590D01*
X992944Y104537D01*
X993049Y104480D01*
X993153Y104420D01*
X993254Y104356D01*
X993352Y104289D01*
X993449Y104219D01*
X993543Y104145D01*
X993635Y104069D01*
X993724Y103989D01*
X993811Y103907D01*
X993895Y103822D01*
X993976Y103734D01*
X994053Y103644D01*
X994128Y103551D01*
X994200Y103455D01*
X994269Y103357D01*
X994334Y103257D01*
X994396Y103155D01*
X994455Y103051D01*
X994510Y102945D01*
X994561Y102837D01*
X994609Y102728D01*
X994654Y102617D01*
X994694Y102505D01*
X994731Y102391D01*
X994764Y102276D01*
X994794Y102161D01*
X994819Y102044D01*
X994841Y101927D01*
X994858Y101808D01*
X994872Y101690D01*
X994882Y101571D01*
X994888Y101451D01*
X994890Y101332D01*
X994890Y97719D01*
X994888Y97600D01*
X994882Y97480D01*
X994872Y97361D01*
X994858Y97243D01*
X994841Y97124D01*
X994819Y97007D01*
X994794Y96890D01*
X994764Y96775D01*
X994731Y96660D01*
X994694Y96546D01*
X994654Y96434D01*
X994609Y96323D01*
X994561Y96214D01*
X994510Y96106D01*
X994455Y96000D01*
X994396Y95896D01*
X994334Y95794D01*
X994269Y95694D01*
X994200Y95596D01*
X994128Y95500D01*
X994053Y95407D01*
X993976Y95317D01*
X993895Y95229D01*
X993811Y95144D01*
X993724Y95062D01*
X993635Y94982D01*
X993543Y94906D01*
X993449Y94832D01*
X993352Y94762D01*
X993254Y94695D01*
X993153Y94631D01*
X993049Y94571D01*
X992944Y94514D01*
X992837Y94461D01*
X992729Y94411D01*
X992619Y94365D01*
X992507Y94323D01*
X992394Y94284D01*
X992280Y94249D01*
X992165Y94218D01*
X992048Y94190D01*
X991931Y94167D01*
X991814Y94147D01*
X991695Y94131D01*
X991576Y94119D01*
X991457Y94111D01*
X991338Y94107D01*
X991218Y94107D01*
X991099Y94111D01*
X990980Y94119D01*
X990861Y94131D01*
X990742Y94147D01*
X990625Y94167D01*
X990508Y94190D01*
X990391Y94218D01*
X990276Y94249D01*
X990162Y94284D01*
X990049Y94323D01*
X989937Y94365D01*
X989827Y94411D01*
X989719Y94461D01*
X989612Y94514D01*
X989507Y94571D01*
X989403Y94631D01*
X989302Y94695D01*
X989204Y94762D01*
X989107Y94832D01*
X989013Y94906D01*
X988921Y94982D01*
X988832Y95062D01*
X988745Y95144D01*
X988661Y95229D01*
X988580Y95317D01*
X988503Y95407D01*
X988428Y95500D01*
X988356Y95596D01*
X988287Y95694D01*
X988222Y95794D01*
X988160Y95896D01*
X988101Y96000D01*
X988046Y96106D01*
X987995Y96214D01*
X987947Y96323D01*
X987902Y96434D01*
X987862Y96546D01*
X987825Y96660D01*
X987792Y96775D01*
X987762Y96890D01*
X987737Y97007D01*
X987715Y97124D01*
X987698Y97243D01*
X987684Y97361D01*
X987674Y97480D01*
X987668Y97600D01*
X987666Y97719D01*
X1001818Y94107D02*
X1001818Y104944D01*
X1007237Y104944D01*
X1007237Y103138D01*
X952666Y76454D02*
X947247Y60198D01*
X958084Y60198D02*
X952666Y76454D01*
X956730Y64262D02*
X948602Y64262D01*
X964618Y64714D02*
X964618Y71938D01*
X964617Y71938D02*
X964619Y72071D01*
X964625Y72203D01*
X964635Y72335D01*
X964648Y72467D01*
X964666Y72599D01*
X964687Y72729D01*
X964712Y72860D01*
X964741Y72989D01*
X964774Y73117D01*
X964810Y73245D01*
X964850Y73371D01*
X964894Y73496D01*
X964942Y73620D01*
X964993Y73742D01*
X965048Y73863D01*
X965106Y73982D01*
X965168Y74100D01*
X965233Y74215D01*
X965302Y74329D01*
X965373Y74440D01*
X965449Y74549D01*
X965527Y74656D01*
X965608Y74761D01*
X965693Y74863D01*
X965780Y74963D01*
X965870Y75060D01*
X965963Y75155D01*
X966059Y75246D01*
X966157Y75335D01*
X966258Y75421D01*
X966362Y75504D01*
X966468Y75584D01*
X966576Y75660D01*
X966686Y75734D01*
X966799Y75804D01*
X966913Y75871D01*
X967030Y75934D01*
X967148Y75994D01*
X967268Y76051D01*
X967390Y76104D01*
X967513Y76153D01*
X967637Y76199D01*
X967763Y76241D01*
X967890Y76279D01*
X968018Y76314D01*
X968147Y76345D01*
X968276Y76372D01*
X968407Y76395D01*
X968538Y76415D01*
X968670Y76430D01*
X968802Y76442D01*
X968934Y76450D01*
X969067Y76454D01*
X969199Y76454D01*
X969332Y76450D01*
X969464Y76442D01*
X969596Y76430D01*
X969728Y76415D01*
X969859Y76395D01*
X969990Y76372D01*
X970119Y76345D01*
X970248Y76314D01*
X970376Y76279D01*
X970503Y76241D01*
X970629Y76199D01*
X970753Y76153D01*
X970876Y76104D01*
X970998Y76051D01*
X971118Y75994D01*
X971236Y75934D01*
X971353Y75871D01*
X971467Y75804D01*
X971580Y75734D01*
X971690Y75660D01*
X971798Y75584D01*
X971904Y75504D01*
X972008Y75421D01*
X972109Y75335D01*
X972207Y75246D01*
X972303Y75155D01*
X972396Y75060D01*
X972486Y74963D01*
X972573Y74863D01*
X972658Y74761D01*
X972739Y74656D01*
X972817Y74549D01*
X972893Y74440D01*
X972964Y74329D01*
X973033Y74215D01*
X973098Y74100D01*
X973160Y73982D01*
X973218Y73863D01*
X973273Y73742D01*
X973324Y73620D01*
X973372Y73496D01*
X973416Y73371D01*
X973456Y73245D01*
X973492Y73117D01*
X973525Y72989D01*
X973554Y72860D01*
X973579Y72729D01*
X973600Y72599D01*
X973618Y72467D01*
X973631Y72335D01*
X973641Y72203D01*
X973647Y72071D01*
X973649Y71938D01*
X973649Y64714D01*
X973647Y64581D01*
X973641Y64449D01*
X973631Y64317D01*
X973618Y64185D01*
X973600Y64053D01*
X973579Y63923D01*
X973554Y63792D01*
X973525Y63663D01*
X973492Y63535D01*
X973456Y63407D01*
X973416Y63281D01*
X973372Y63156D01*
X973324Y63032D01*
X973273Y62910D01*
X973218Y62789D01*
X973160Y62670D01*
X973098Y62552D01*
X973033Y62437D01*
X972964Y62323D01*
X972893Y62212D01*
X972817Y62103D01*
X972739Y61996D01*
X972658Y61891D01*
X972573Y61789D01*
X972486Y61689D01*
X972396Y61592D01*
X972303Y61497D01*
X972207Y61406D01*
X972109Y61317D01*
X972008Y61231D01*
X971904Y61148D01*
X971798Y61068D01*
X971690Y60992D01*
X971580Y60918D01*
X971467Y60848D01*
X971353Y60781D01*
X971236Y60718D01*
X971118Y60658D01*
X970998Y60601D01*
X970876Y60548D01*
X970753Y60499D01*
X970629Y60453D01*
X970503Y60411D01*
X970376Y60373D01*
X970248Y60338D01*
X970119Y60307D01*
X969990Y60280D01*
X969859Y60257D01*
X969728Y60237D01*
X969596Y60222D01*
X969464Y60210D01*
X969332Y60202D01*
X969199Y60198D01*
X969067Y60198D01*
X968934Y60202D01*
X968802Y60210D01*
X968670Y60222D01*
X968538Y60237D01*
X968407Y60257D01*
X968276Y60280D01*
X968147Y60307D01*
X968018Y60338D01*
X967890Y60373D01*
X967763Y60411D01*
X967637Y60453D01*
X967513Y60499D01*
X967390Y60548D01*
X967268Y60601D01*
X967148Y60658D01*
X967030Y60718D01*
X966913Y60781D01*
X966799Y60848D01*
X966686Y60918D01*
X966576Y60992D01*
X966468Y61068D01*
X966362Y61148D01*
X966258Y61231D01*
X966157Y61317D01*
X966059Y61406D01*
X965963Y61497D01*
X965870Y61592D01*
X965780Y61689D01*
X965693Y61789D01*
X965608Y61891D01*
X965527Y61996D01*
X965449Y62103D01*
X965373Y62212D01*
X965302Y62323D01*
X965233Y62437D01*
X965168Y62552D01*
X965106Y62670D01*
X965048Y62789D01*
X964993Y62910D01*
X964942Y63032D01*
X964894Y63156D01*
X964850Y63281D01*
X964810Y63407D01*
X964774Y63535D01*
X964741Y63663D01*
X964712Y63792D01*
X964687Y63923D01*
X964666Y64053D01*
X964648Y64185D01*
X964635Y64317D01*
X964625Y64449D01*
X964619Y64581D01*
X964617Y64714D01*
X971843Y63810D02*
X975455Y60198D01*
X984831Y60198D02*
X984949Y60200D01*
X985067Y60206D01*
X985185Y60215D01*
X985302Y60229D01*
X985419Y60246D01*
X985536Y60267D01*
X985651Y60292D01*
X985766Y60321D01*
X985880Y60354D01*
X985992Y60390D01*
X986103Y60430D01*
X986213Y60473D01*
X986322Y60520D01*
X986429Y60570D01*
X986534Y60625D01*
X986637Y60682D01*
X986738Y60743D01*
X986838Y60807D01*
X986935Y60874D01*
X987030Y60944D01*
X987122Y61018D01*
X987213Y61094D01*
X987300Y61174D01*
X987385Y61256D01*
X987467Y61341D01*
X987547Y61428D01*
X987623Y61519D01*
X987697Y61611D01*
X987767Y61706D01*
X987834Y61803D01*
X987898Y61903D01*
X987959Y62004D01*
X988016Y62107D01*
X988071Y62212D01*
X988121Y62319D01*
X988168Y62428D01*
X988211Y62538D01*
X988251Y62649D01*
X988287Y62761D01*
X988320Y62875D01*
X988349Y62990D01*
X988374Y63105D01*
X988395Y63222D01*
X988412Y63339D01*
X988426Y63456D01*
X988435Y63574D01*
X988441Y63692D01*
X988443Y63810D01*
X984831Y60198D02*
X984648Y60200D01*
X984466Y60207D01*
X984284Y60218D01*
X984102Y60233D01*
X983920Y60253D01*
X983739Y60276D01*
X983559Y60305D01*
X983379Y60337D01*
X983200Y60374D01*
X983023Y60415D01*
X982846Y60461D01*
X982670Y60510D01*
X982496Y60564D01*
X982322Y60622D01*
X982151Y60684D01*
X981981Y60750D01*
X981812Y60821D01*
X981645Y60895D01*
X981480Y60973D01*
X981317Y61055D01*
X981156Y61141D01*
X980997Y61231D01*
X980840Y61325D01*
X980686Y61422D01*
X980534Y61523D01*
X980384Y61628D01*
X980237Y61736D01*
X980093Y61847D01*
X979951Y61962D01*
X979812Y62081D01*
X979676Y62203D01*
X979543Y62328D01*
X979413Y62456D01*
X979865Y72842D02*
X979867Y72960D01*
X979873Y73078D01*
X979882Y73196D01*
X979896Y73313D01*
X979913Y73430D01*
X979934Y73547D01*
X979959Y73662D01*
X979988Y73777D01*
X980021Y73891D01*
X980057Y74003D01*
X980097Y74114D01*
X980140Y74224D01*
X980187Y74333D01*
X980237Y74440D01*
X980292Y74545D01*
X980349Y74648D01*
X980410Y74749D01*
X980474Y74849D01*
X980541Y74946D01*
X980611Y75041D01*
X980685Y75133D01*
X980761Y75224D01*
X980841Y75311D01*
X980923Y75396D01*
X981008Y75478D01*
X981095Y75558D01*
X981186Y75634D01*
X981278Y75708D01*
X981373Y75778D01*
X981470Y75845D01*
X981570Y75909D01*
X981671Y75970D01*
X981774Y76028D01*
X981879Y76082D01*
X981986Y76132D01*
X982095Y76179D01*
X982205Y76223D01*
X982316Y76262D01*
X982429Y76298D01*
X982542Y76331D01*
X982657Y76360D01*
X982772Y76385D01*
X982889Y76406D01*
X983006Y76423D01*
X983123Y76437D01*
X983241Y76446D01*
X983359Y76452D01*
X983477Y76454D01*
X983638Y76452D01*
X983800Y76446D01*
X983961Y76437D01*
X984122Y76423D01*
X984282Y76406D01*
X984442Y76385D01*
X984602Y76360D01*
X984761Y76331D01*
X984919Y76299D01*
X985076Y76263D01*
X985232Y76223D01*
X985388Y76179D01*
X985542Y76131D01*
X985695Y76080D01*
X985847Y76026D01*
X985998Y75967D01*
X986147Y75906D01*
X986294Y75840D01*
X986440Y75771D01*
X986585Y75699D01*
X986727Y75623D01*
X986868Y75544D01*
X987007Y75462D01*
X987143Y75376D01*
X987278Y75287D01*
X987411Y75195D01*
X987541Y75099D01*
X981670Y69681D02*
X981569Y69743D01*
X981469Y69808D01*
X981372Y69877D01*
X981277Y69949D01*
X981184Y70023D01*
X981094Y70101D01*
X981006Y70182D01*
X980921Y70265D01*
X980839Y70351D01*
X980760Y70440D01*
X980683Y70531D01*
X980610Y70625D01*
X980539Y70721D01*
X980472Y70819D01*
X980408Y70919D01*
X980347Y71022D01*
X980290Y71126D01*
X980236Y71232D01*
X980186Y71340D01*
X980139Y71449D01*
X980095Y71560D01*
X980055Y71672D01*
X980019Y71786D01*
X979987Y71900D01*
X979958Y72016D01*
X979933Y72132D01*
X979912Y72249D01*
X979895Y72367D01*
X979881Y72485D01*
X979872Y72604D01*
X979866Y72723D01*
X979864Y72842D01*
X986638Y66971D02*
X986739Y66909D01*
X986839Y66844D01*
X986936Y66775D01*
X987031Y66703D01*
X987124Y66629D01*
X987214Y66551D01*
X987302Y66470D01*
X987387Y66387D01*
X987469Y66301D01*
X987548Y66212D01*
X987625Y66121D01*
X987698Y66027D01*
X987769Y65931D01*
X987836Y65833D01*
X987900Y65733D01*
X987961Y65630D01*
X988018Y65526D01*
X988072Y65420D01*
X988122Y65312D01*
X988169Y65203D01*
X988213Y65092D01*
X988253Y64980D01*
X988289Y64866D01*
X988321Y64752D01*
X988350Y64636D01*
X988375Y64520D01*
X988396Y64403D01*
X988413Y64285D01*
X988427Y64167D01*
X988436Y64048D01*
X988442Y63929D01*
X988444Y63810D01*
X986638Y66971D02*
X981670Y69681D01*
X999490Y76454D02*
X999615Y76452D01*
X999740Y76446D01*
X999865Y76437D01*
X999989Y76423D01*
X1000113Y76406D01*
X1000237Y76385D01*
X1000359Y76360D01*
X1000481Y76331D01*
X1000602Y76299D01*
X1000722Y76263D01*
X1000841Y76223D01*
X1000958Y76180D01*
X1001074Y76133D01*
X1001189Y76082D01*
X1001301Y76028D01*
X1001413Y75970D01*
X1001522Y75910D01*
X1001629Y75845D01*
X1001735Y75778D01*
X1001838Y75707D01*
X1001939Y75633D01*
X1002038Y75556D01*
X1002134Y75476D01*
X1002228Y75393D01*
X1002319Y75308D01*
X1002408Y75219D01*
X1002493Y75128D01*
X1002576Y75034D01*
X1002656Y74938D01*
X1002733Y74839D01*
X1002807Y74738D01*
X1002878Y74635D01*
X1002945Y74529D01*
X1003010Y74422D01*
X1003070Y74313D01*
X1003128Y74201D01*
X1003182Y74089D01*
X1003233Y73974D01*
X1003280Y73858D01*
X1003323Y73741D01*
X1003363Y73622D01*
X1003399Y73502D01*
X1003431Y73381D01*
X1003460Y73259D01*
X1003485Y73137D01*
X1003506Y73013D01*
X1003523Y72889D01*
X1003537Y72765D01*
X1003546Y72640D01*
X1003552Y72515D01*
X1003554Y72390D01*
X999490Y76454D02*
X999347Y76452D01*
X999205Y76446D01*
X999062Y76436D01*
X998920Y76423D01*
X998779Y76405D01*
X998637Y76384D01*
X998497Y76359D01*
X998357Y76330D01*
X998218Y76297D01*
X998080Y76260D01*
X997943Y76220D01*
X997808Y76176D01*
X997673Y76128D01*
X997540Y76076D01*
X997408Y76021D01*
X997278Y75962D01*
X997150Y75900D01*
X997023Y75834D01*
X996898Y75765D01*
X996775Y75693D01*
X996655Y75617D01*
X996536Y75538D01*
X996419Y75455D01*
X996305Y75370D01*
X996193Y75281D01*
X996084Y75190D01*
X995977Y75095D01*
X995872Y74998D01*
X995771Y74897D01*
X995672Y74794D01*
X995576Y74689D01*
X995483Y74580D01*
X995393Y74469D01*
X995306Y74356D01*
X995222Y74241D01*
X995142Y74123D01*
X995064Y74003D01*
X994990Y73881D01*
X994920Y73757D01*
X994852Y73631D01*
X994789Y73503D01*
X994728Y73374D01*
X994671Y73243D01*
X994618Y73111D01*
X994569Y72977D01*
X994523Y72842D01*
X1002199Y69229D02*
X1002293Y69321D01*
X1002383Y69415D01*
X1002471Y69512D01*
X1002556Y69612D01*
X1002638Y69714D01*
X1002717Y69819D01*
X1002792Y69926D01*
X1002864Y70035D01*
X1002933Y70146D01*
X1002999Y70260D01*
X1003061Y70375D01*
X1003120Y70492D01*
X1003175Y70611D01*
X1003226Y70731D01*
X1003274Y70853D01*
X1003319Y70976D01*
X1003359Y71100D01*
X1003396Y71226D01*
X1003429Y71353D01*
X1003458Y71480D01*
X1003484Y71609D01*
X1003505Y71738D01*
X1003523Y71868D01*
X1003536Y71998D01*
X1003546Y72128D01*
X1003552Y72259D01*
X1003554Y72390D01*
X1002199Y69229D02*
X994523Y60198D01*
X1003554Y60198D01*
D11*
X990600Y722630D02*
X990600Y735330D01*
X996950Y741680D01*
X1009650Y741680D02*
X1016000Y735330D01*
X996950Y741680D02*
X990600Y748030D01*
X990600Y760730D01*
X996950Y767080D01*
X1009650Y767080D02*
X1016000Y760730D01*
X1016000Y748030D01*
X1009650Y741680D01*
X1009650Y716280D02*
X996950Y716280D01*
X990600Y722630D01*
X1009650Y716280D02*
X1016000Y722630D01*
X1016000Y735330D01*
X1009650Y767080D02*
X996950Y767080D01*
D12*
X988695Y718256D02*
X988695Y716915D01*
X988695Y718256D02*
X988693Y718327D01*
X988687Y718399D01*
X988678Y718469D01*
X988665Y718539D01*
X988648Y718609D01*
X988627Y718677D01*
X988603Y718744D01*
X988575Y718810D01*
X988544Y718874D01*
X988509Y718937D01*
X988471Y718997D01*
X988430Y719056D01*
X988386Y719112D01*
X988339Y719166D01*
X988290Y719217D01*
X988237Y719265D01*
X988182Y719311D01*
X988125Y719353D01*
X988065Y719393D01*
X988004Y719429D01*
X987940Y719462D01*
X987875Y719491D01*
X987809Y719517D01*
X987741Y719540D01*
X987672Y719559D01*
X987602Y719574D01*
X987532Y719585D01*
X987461Y719593D01*
X987390Y719597D01*
X987318Y719597D01*
X987247Y719593D01*
X987176Y719585D01*
X987106Y719574D01*
X987036Y719559D01*
X986967Y719540D01*
X986899Y719517D01*
X986833Y719491D01*
X986768Y719462D01*
X986704Y719429D01*
X986643Y719393D01*
X986583Y719353D01*
X986526Y719311D01*
X986471Y719265D01*
X986418Y719217D01*
X986369Y719166D01*
X986322Y719112D01*
X986278Y719056D01*
X986237Y718997D01*
X986199Y718937D01*
X986164Y718874D01*
X986133Y718810D01*
X986105Y718744D01*
X986081Y718677D01*
X986060Y718609D01*
X986043Y718539D01*
X986030Y718469D01*
X986021Y718399D01*
X986015Y718327D01*
X986013Y718256D01*
X983869Y718524D02*
X983869Y716915D01*
X983869Y718524D02*
X983871Y718589D01*
X983877Y718653D01*
X983887Y718717D01*
X983900Y718781D01*
X983918Y718843D01*
X983939Y718904D01*
X983963Y718964D01*
X983992Y719022D01*
X984024Y719079D01*
X984059Y719133D01*
X984097Y719185D01*
X984139Y719235D01*
X984183Y719282D01*
X984230Y719326D01*
X984280Y719368D01*
X984332Y719406D01*
X984386Y719441D01*
X984443Y719473D01*
X984501Y719502D01*
X984561Y719526D01*
X984622Y719547D01*
X984684Y719565D01*
X984748Y719578D01*
X984812Y719588D01*
X984876Y719594D01*
X984941Y719596D01*
X985006Y719594D01*
X985070Y719588D01*
X985134Y719578D01*
X985198Y719565D01*
X985260Y719547D01*
X985321Y719526D01*
X985381Y719502D01*
X985439Y719473D01*
X985496Y719441D01*
X985550Y719406D01*
X985602Y719368D01*
X985652Y719326D01*
X985699Y719282D01*
X985743Y719235D01*
X985785Y719185D01*
X985823Y719133D01*
X985858Y719079D01*
X985890Y719022D01*
X985919Y718964D01*
X985943Y718904D01*
X985964Y718843D01*
X985982Y718781D01*
X985995Y718717D01*
X986005Y718653D01*
X986011Y718589D01*
X986013Y718524D01*
X986014Y718524D02*
X986014Y717451D01*
X988427Y721962D02*
X988695Y721962D01*
X988427Y721962D02*
X988427Y722230D01*
X988695Y722230D01*
X988695Y721962D01*
X988695Y724596D02*
X988695Y725936D01*
X988693Y726007D01*
X988687Y726079D01*
X988678Y726149D01*
X988665Y726219D01*
X988648Y726289D01*
X988627Y726357D01*
X988603Y726424D01*
X988575Y726490D01*
X988544Y726554D01*
X988509Y726617D01*
X988471Y726677D01*
X988430Y726736D01*
X988386Y726792D01*
X988339Y726846D01*
X988290Y726897D01*
X988237Y726945D01*
X988182Y726991D01*
X988125Y727033D01*
X988065Y727073D01*
X988004Y727109D01*
X987940Y727142D01*
X987875Y727171D01*
X987809Y727197D01*
X987741Y727220D01*
X987672Y727239D01*
X987602Y727254D01*
X987532Y727265D01*
X987461Y727273D01*
X987390Y727277D01*
X987318Y727277D01*
X987247Y727273D01*
X987176Y727265D01*
X987106Y727254D01*
X987036Y727239D01*
X986967Y727220D01*
X986899Y727197D01*
X986833Y727171D01*
X986768Y727142D01*
X986704Y727109D01*
X986643Y727073D01*
X986583Y727033D01*
X986526Y726991D01*
X986471Y726945D01*
X986418Y726897D01*
X986369Y726846D01*
X986322Y726792D01*
X986278Y726736D01*
X986237Y726677D01*
X986199Y726617D01*
X986164Y726554D01*
X986133Y726490D01*
X986105Y726424D01*
X986081Y726357D01*
X986060Y726289D01*
X986043Y726219D01*
X986030Y726149D01*
X986021Y726079D01*
X986015Y726007D01*
X986013Y725936D01*
X983869Y726205D02*
X983869Y724596D01*
X983869Y726205D02*
X983871Y726270D01*
X983877Y726334D01*
X983887Y726398D01*
X983900Y726462D01*
X983918Y726524D01*
X983939Y726585D01*
X983963Y726645D01*
X983992Y726703D01*
X984024Y726760D01*
X984059Y726814D01*
X984097Y726866D01*
X984139Y726916D01*
X984183Y726963D01*
X984230Y727007D01*
X984280Y727049D01*
X984332Y727087D01*
X984386Y727122D01*
X984443Y727154D01*
X984501Y727183D01*
X984561Y727207D01*
X984622Y727228D01*
X984684Y727246D01*
X984748Y727259D01*
X984812Y727269D01*
X984876Y727275D01*
X984941Y727277D01*
X985006Y727275D01*
X985070Y727269D01*
X985134Y727259D01*
X985198Y727246D01*
X985260Y727228D01*
X985321Y727207D01*
X985381Y727183D01*
X985439Y727154D01*
X985496Y727122D01*
X985550Y727087D01*
X985602Y727049D01*
X985652Y727007D01*
X985699Y726963D01*
X985743Y726916D01*
X985785Y726866D01*
X985823Y726814D01*
X985858Y726760D01*
X985890Y726703D01*
X985919Y726645D01*
X985943Y726585D01*
X985964Y726524D01*
X985982Y726462D01*
X985995Y726398D01*
X986005Y726334D01*
X986011Y726270D01*
X986013Y726205D01*
X986014Y726205D02*
X986014Y725132D01*
X983869Y729814D02*
X988695Y731423D01*
X983869Y733031D01*
D11*
X990600Y648970D02*
X990600Y636270D01*
X990600Y648970D02*
X996950Y655320D01*
X1009650Y655320D02*
X1016000Y648970D01*
X996950Y655320D02*
X990600Y661670D01*
X990600Y674370D01*
X996950Y680720D01*
X1009650Y680720D02*
X1016000Y674370D01*
X1016000Y661670D01*
X1009650Y655320D01*
X1009650Y629920D02*
X996950Y629920D01*
X990600Y636270D01*
X1009650Y629920D02*
X1016000Y636270D01*
X1016000Y648970D01*
X1009650Y680720D02*
X996950Y680720D01*
D12*
X988695Y632164D02*
X988695Y630555D01*
X988695Y632164D02*
X988693Y632229D01*
X988687Y632293D01*
X988677Y632357D01*
X988664Y632421D01*
X988646Y632483D01*
X988625Y632544D01*
X988601Y632604D01*
X988572Y632662D01*
X988540Y632719D01*
X988505Y632773D01*
X988467Y632825D01*
X988425Y632875D01*
X988381Y632922D01*
X988334Y632966D01*
X988284Y633008D01*
X988232Y633046D01*
X988178Y633081D01*
X988121Y633113D01*
X988063Y633142D01*
X988003Y633166D01*
X987942Y633187D01*
X987880Y633205D01*
X987816Y633218D01*
X987752Y633228D01*
X987688Y633234D01*
X987623Y633236D01*
X987086Y633236D01*
X987021Y633234D01*
X986957Y633228D01*
X986893Y633218D01*
X986829Y633205D01*
X986767Y633187D01*
X986706Y633166D01*
X986646Y633142D01*
X986588Y633113D01*
X986531Y633081D01*
X986477Y633046D01*
X986425Y633008D01*
X986375Y632966D01*
X986328Y632922D01*
X986284Y632875D01*
X986242Y632825D01*
X986204Y632773D01*
X986169Y632719D01*
X986137Y632662D01*
X986108Y632604D01*
X986084Y632544D01*
X986063Y632483D01*
X986045Y632421D01*
X986032Y632357D01*
X986022Y632293D01*
X986016Y632229D01*
X986014Y632164D01*
X986014Y630555D01*
X983869Y630555D01*
X983869Y633236D01*
X983869Y635773D02*
X988695Y637382D01*
X983869Y638991D01*
D11*
X439066Y598380D02*
X327814Y598380D01*
X327814Y693730D01*
X338990Y693730D01*
X338990Y728528D01*
X427890Y728528D01*
X427890Y693730D01*
X439066Y693730D01*
X439066Y598380D01*
X439266Y173780D02*
X328014Y173780D01*
X439266Y173780D02*
X439266Y78430D01*
X428090Y78430D01*
X428090Y43632D01*
X339190Y43632D01*
X339190Y78430D01*
X328014Y78430D01*
X328014Y173780D01*
D13*
X386024Y555075D02*
X386024Y569976D01*
X393474Y562525D02*
X378573Y562525D01*
X386024Y219456D02*
X386024Y204555D01*
D12*
X378584Y733566D02*
X377244Y733566D01*
X378584Y733567D02*
X378655Y733565D01*
X378727Y733559D01*
X378797Y733550D01*
X378867Y733537D01*
X378937Y733520D01*
X379005Y733499D01*
X379072Y733475D01*
X379138Y733447D01*
X379202Y733416D01*
X379265Y733381D01*
X379325Y733343D01*
X379384Y733302D01*
X379440Y733258D01*
X379494Y733211D01*
X379545Y733162D01*
X379593Y733109D01*
X379639Y733054D01*
X379681Y732997D01*
X379721Y732937D01*
X379757Y732876D01*
X379790Y732812D01*
X379819Y732747D01*
X379845Y732681D01*
X379868Y732613D01*
X379887Y732544D01*
X379902Y732474D01*
X379913Y732404D01*
X379921Y732333D01*
X379925Y732262D01*
X379925Y732190D01*
X379921Y732119D01*
X379913Y732048D01*
X379902Y731978D01*
X379887Y731908D01*
X379868Y731839D01*
X379845Y731771D01*
X379819Y731705D01*
X379790Y731640D01*
X379757Y731576D01*
X379721Y731515D01*
X379681Y731455D01*
X379639Y731398D01*
X379593Y731343D01*
X379545Y731290D01*
X379494Y731241D01*
X379440Y731194D01*
X379384Y731150D01*
X379325Y731109D01*
X379265Y731071D01*
X379202Y731036D01*
X379138Y731005D01*
X379072Y730977D01*
X379005Y730953D01*
X378937Y730932D01*
X378867Y730915D01*
X378797Y730902D01*
X378727Y730893D01*
X378655Y730887D01*
X378584Y730885D01*
X377244Y730885D01*
X377244Y735711D01*
X378584Y735711D01*
X378649Y735709D01*
X378713Y735703D01*
X378777Y735693D01*
X378841Y735680D01*
X378903Y735662D01*
X378964Y735641D01*
X379024Y735617D01*
X379082Y735588D01*
X379139Y735556D01*
X379193Y735521D01*
X379245Y735483D01*
X379295Y735441D01*
X379342Y735397D01*
X379386Y735350D01*
X379428Y735300D01*
X379466Y735248D01*
X379501Y735194D01*
X379533Y735137D01*
X379562Y735079D01*
X379586Y735019D01*
X379607Y734958D01*
X379625Y734896D01*
X379638Y734832D01*
X379648Y734768D01*
X379654Y734704D01*
X379656Y734639D01*
X379654Y734574D01*
X379648Y734510D01*
X379638Y734446D01*
X379625Y734382D01*
X379607Y734320D01*
X379586Y734259D01*
X379562Y734199D01*
X379533Y734141D01*
X379501Y734084D01*
X379466Y734030D01*
X379428Y733978D01*
X379386Y733928D01*
X379342Y733881D01*
X379295Y733837D01*
X379245Y733795D01*
X379193Y733757D01*
X379139Y733722D01*
X379082Y733690D01*
X379024Y733661D01*
X378964Y733637D01*
X378903Y733616D01*
X378841Y733598D01*
X378777Y733585D01*
X378713Y733575D01*
X378649Y733569D01*
X378584Y733567D01*
X383375Y735711D02*
X383375Y730885D01*
X382035Y735711D02*
X384716Y735711D01*
X387155Y734639D02*
X388496Y735711D01*
X388496Y730885D01*
X389836Y730885D02*
X387155Y730885D01*
D11*
X197966Y173780D02*
X86714Y173780D01*
X197966Y173780D02*
X197966Y78430D01*
X186790Y78430D01*
X186790Y43632D01*
X97890Y43632D01*
X97890Y78430D01*
X86714Y78430D01*
X86714Y173780D01*
X86514Y598380D02*
X197766Y598380D01*
X86514Y598380D02*
X86514Y693730D01*
X97690Y693730D01*
X97690Y728528D01*
X186590Y728528D01*
X186590Y693730D01*
X197766Y693730D01*
X197766Y598380D01*
D13*
X144724Y217085D02*
X144724Y202184D01*
X152174Y209635D02*
X137273Y209635D01*
X144724Y552704D02*
X144724Y567605D01*
D12*
X137284Y39130D02*
X135944Y39130D01*
X137284Y39131D02*
X137355Y39129D01*
X137427Y39123D01*
X137497Y39114D01*
X137567Y39101D01*
X137637Y39084D01*
X137705Y39063D01*
X137772Y39039D01*
X137838Y39011D01*
X137902Y38980D01*
X137965Y38945D01*
X138025Y38907D01*
X138084Y38866D01*
X138140Y38822D01*
X138194Y38775D01*
X138245Y38726D01*
X138293Y38673D01*
X138339Y38618D01*
X138381Y38561D01*
X138421Y38501D01*
X138457Y38440D01*
X138490Y38376D01*
X138519Y38311D01*
X138545Y38245D01*
X138568Y38177D01*
X138587Y38108D01*
X138602Y38038D01*
X138613Y37968D01*
X138621Y37897D01*
X138625Y37826D01*
X138625Y37754D01*
X138621Y37683D01*
X138613Y37612D01*
X138602Y37542D01*
X138587Y37472D01*
X138568Y37403D01*
X138545Y37335D01*
X138519Y37269D01*
X138490Y37204D01*
X138457Y37140D01*
X138421Y37079D01*
X138381Y37019D01*
X138339Y36962D01*
X138293Y36907D01*
X138245Y36854D01*
X138194Y36805D01*
X138140Y36758D01*
X138084Y36714D01*
X138025Y36673D01*
X137965Y36635D01*
X137902Y36600D01*
X137838Y36569D01*
X137772Y36541D01*
X137705Y36517D01*
X137637Y36496D01*
X137567Y36479D01*
X137497Y36466D01*
X137427Y36457D01*
X137355Y36451D01*
X137284Y36449D01*
X135944Y36449D01*
X135944Y41275D01*
X137284Y41275D01*
X137349Y41273D01*
X137413Y41267D01*
X137477Y41257D01*
X137541Y41244D01*
X137603Y41226D01*
X137664Y41205D01*
X137724Y41181D01*
X137782Y41152D01*
X137839Y41120D01*
X137893Y41085D01*
X137945Y41047D01*
X137995Y41005D01*
X138042Y40961D01*
X138086Y40914D01*
X138128Y40864D01*
X138166Y40812D01*
X138201Y40758D01*
X138233Y40701D01*
X138262Y40643D01*
X138286Y40583D01*
X138307Y40522D01*
X138325Y40460D01*
X138338Y40396D01*
X138348Y40332D01*
X138354Y40268D01*
X138356Y40203D01*
X138354Y40138D01*
X138348Y40074D01*
X138338Y40010D01*
X138325Y39946D01*
X138307Y39884D01*
X138286Y39823D01*
X138262Y39763D01*
X138233Y39705D01*
X138201Y39648D01*
X138166Y39594D01*
X138128Y39542D01*
X138086Y39492D01*
X138042Y39445D01*
X137995Y39401D01*
X137945Y39359D01*
X137893Y39321D01*
X137839Y39286D01*
X137782Y39254D01*
X137724Y39225D01*
X137664Y39201D01*
X137603Y39180D01*
X137541Y39162D01*
X137477Y39149D01*
X137413Y39139D01*
X137349Y39133D01*
X137284Y39131D01*
X142075Y41275D02*
X142075Y36449D01*
X140735Y41275D02*
X143416Y41275D01*
X147330Y41275D02*
X147398Y41273D01*
X147465Y41267D01*
X147532Y41258D01*
X147599Y41245D01*
X147664Y41228D01*
X147729Y41207D01*
X147792Y41183D01*
X147854Y41155D01*
X147914Y41124D01*
X147972Y41090D01*
X148028Y41052D01*
X148083Y41012D01*
X148134Y40968D01*
X148183Y40921D01*
X148230Y40872D01*
X148274Y40821D01*
X148314Y40766D01*
X148352Y40710D01*
X148386Y40652D01*
X148417Y40592D01*
X148445Y40530D01*
X148469Y40467D01*
X148490Y40402D01*
X148507Y40337D01*
X148520Y40270D01*
X148529Y40203D01*
X148535Y40136D01*
X148537Y40068D01*
X147330Y41275D02*
X147252Y41273D01*
X147174Y41267D01*
X147097Y41257D01*
X147020Y41244D01*
X146944Y41226D01*
X146869Y41205D01*
X146795Y41180D01*
X146723Y41151D01*
X146652Y41119D01*
X146583Y41083D01*
X146515Y41044D01*
X146450Y41001D01*
X146387Y40955D01*
X146326Y40906D01*
X146268Y40854D01*
X146213Y40799D01*
X146160Y40742D01*
X146111Y40682D01*
X146064Y40619D01*
X146021Y40555D01*
X145981Y40488D01*
X145944Y40419D01*
X145911Y40348D01*
X145881Y40276D01*
X145855Y40203D01*
X148135Y39130D02*
X148184Y39179D01*
X148231Y39231D01*
X148274Y39286D01*
X148315Y39343D01*
X148353Y39402D01*
X148387Y39463D01*
X148418Y39526D01*
X148446Y39590D01*
X148470Y39656D01*
X148490Y39722D01*
X148507Y39790D01*
X148520Y39859D01*
X148529Y39928D01*
X148535Y39998D01*
X148537Y40068D01*
X148134Y39130D02*
X145855Y36449D01*
X148536Y36449D01*
D11*
X915670Y767080D02*
X928370Y767080D01*
X934720Y760730D01*
X934720Y748030D02*
X928370Y741680D01*
X934720Y760730D02*
X941070Y767080D01*
X953770Y767080D01*
X960120Y760730D01*
X960120Y748030D02*
X953770Y741680D01*
X941070Y741680D01*
X934720Y748030D01*
X909320Y748030D02*
X909320Y760730D01*
X915670Y767080D01*
X909320Y748030D02*
X915670Y741680D01*
X928370Y741680D01*
X960120Y748030D02*
X960120Y760730D01*
D12*
X911564Y770057D02*
X911564Y773811D01*
X911563Y770057D02*
X911561Y769992D01*
X911555Y769928D01*
X911545Y769864D01*
X911532Y769800D01*
X911514Y769738D01*
X911493Y769677D01*
X911469Y769617D01*
X911440Y769559D01*
X911408Y769502D01*
X911373Y769448D01*
X911335Y769396D01*
X911293Y769346D01*
X911249Y769299D01*
X911202Y769255D01*
X911152Y769213D01*
X911100Y769175D01*
X911046Y769140D01*
X910989Y769108D01*
X910931Y769079D01*
X910871Y769055D01*
X910810Y769034D01*
X910748Y769016D01*
X910684Y769003D01*
X910620Y768993D01*
X910556Y768987D01*
X910491Y768985D01*
X909955Y768985D01*
X914512Y772739D02*
X915852Y773811D01*
X915852Y768985D01*
X914512Y768985D02*
X917193Y768985D01*
D11*
X801370Y723900D02*
X801370Y622300D01*
X801370Y723900D02*
X839470Y723900D01*
X845820Y723900D01*
X845820Y622300D01*
X839470Y622300D01*
X801370Y622300D01*
X839470Y622300D02*
X839470Y723900D01*
D10*
X911860Y416560D02*
X914400Y416560D01*
X911860Y416560D02*
X911860Y401320D01*
X914400Y401320D01*
X975360Y401320D02*
X977900Y401320D01*
X977900Y416560D01*
X975360Y416560D01*
D14*
X957580Y381000D02*
X957580Y378460D01*
X957580Y381000D02*
X932180Y381000D01*
X932180Y378460D01*
X933450Y436880D02*
X957580Y436880D01*
X933450Y436880D02*
X933450Y439420D01*
X957580Y439420D02*
X957580Y436880D01*
D10*
X957580Y439420D02*
X966470Y439420D01*
X932180Y378460D02*
X923290Y378460D01*
X932180Y378460D02*
X957580Y378460D01*
X966470Y378460D01*
X957580Y439420D02*
X933450Y439420D01*
X923290Y439420D01*
X914400Y419100D02*
X914400Y416560D01*
X914400Y401320D02*
X914400Y398780D01*
X975360Y416560D02*
X975360Y419100D01*
X975360Y401320D02*
X975360Y398780D01*
X927100Y408940D02*
X927105Y409376D01*
X927121Y409812D01*
X927148Y410248D01*
X927186Y410683D01*
X927234Y411116D01*
X927292Y411549D01*
X927362Y411980D01*
X927442Y412409D01*
X927532Y412836D01*
X927633Y413260D01*
X927744Y413682D01*
X927866Y414101D01*
X927997Y414517D01*
X928139Y414930D01*
X928291Y415339D01*
X928453Y415744D01*
X928625Y416145D01*
X928807Y416542D01*
X928998Y416934D01*
X929199Y417321D01*
X929410Y417704D01*
X929630Y418081D01*
X929859Y418452D01*
X930096Y418818D01*
X930343Y419178D01*
X930599Y419532D01*
X930863Y419879D01*
X931136Y420220D01*
X931417Y420553D01*
X931706Y420880D01*
X932003Y421200D01*
X932308Y421512D01*
X932620Y421817D01*
X932940Y422114D01*
X933267Y422403D01*
X933600Y422684D01*
X933941Y422957D01*
X934288Y423221D01*
X934642Y423477D01*
X935002Y423724D01*
X935368Y423961D01*
X935739Y424190D01*
X936116Y424410D01*
X936499Y424621D01*
X936886Y424822D01*
X937278Y425013D01*
X937675Y425195D01*
X938076Y425367D01*
X938481Y425529D01*
X938890Y425681D01*
X939303Y425823D01*
X939719Y425954D01*
X940138Y426076D01*
X940560Y426187D01*
X940984Y426288D01*
X941411Y426378D01*
X941840Y426458D01*
X942271Y426528D01*
X942704Y426586D01*
X943137Y426634D01*
X943572Y426672D01*
X944008Y426699D01*
X944444Y426715D01*
X944880Y426720D01*
X945316Y426715D01*
X945752Y426699D01*
X946188Y426672D01*
X946623Y426634D01*
X947056Y426586D01*
X947489Y426528D01*
X947920Y426458D01*
X948349Y426378D01*
X948776Y426288D01*
X949200Y426187D01*
X949622Y426076D01*
X950041Y425954D01*
X950457Y425823D01*
X950870Y425681D01*
X951279Y425529D01*
X951684Y425367D01*
X952085Y425195D01*
X952482Y425013D01*
X952874Y424822D01*
X953261Y424621D01*
X953644Y424410D01*
X954021Y424190D01*
X954392Y423961D01*
X954758Y423724D01*
X955118Y423477D01*
X955472Y423221D01*
X955819Y422957D01*
X956160Y422684D01*
X956493Y422403D01*
X956820Y422114D01*
X957140Y421817D01*
X957452Y421512D01*
X957757Y421200D01*
X958054Y420880D01*
X958343Y420553D01*
X958624Y420220D01*
X958897Y419879D01*
X959161Y419532D01*
X959417Y419178D01*
X959664Y418818D01*
X959901Y418452D01*
X960130Y418081D01*
X960350Y417704D01*
X960561Y417321D01*
X960762Y416934D01*
X960953Y416542D01*
X961135Y416145D01*
X961307Y415744D01*
X961469Y415339D01*
X961621Y414930D01*
X961763Y414517D01*
X961894Y414101D01*
X962016Y413682D01*
X962127Y413260D01*
X962228Y412836D01*
X962318Y412409D01*
X962398Y411980D01*
X962468Y411549D01*
X962526Y411116D01*
X962574Y410683D01*
X962612Y410248D01*
X962639Y409812D01*
X962655Y409376D01*
X962660Y408940D01*
X962655Y408504D01*
X962639Y408068D01*
X962612Y407632D01*
X962574Y407197D01*
X962526Y406764D01*
X962468Y406331D01*
X962398Y405900D01*
X962318Y405471D01*
X962228Y405044D01*
X962127Y404620D01*
X962016Y404198D01*
X961894Y403779D01*
X961763Y403363D01*
X961621Y402950D01*
X961469Y402541D01*
X961307Y402136D01*
X961135Y401735D01*
X960953Y401338D01*
X960762Y400946D01*
X960561Y400559D01*
X960350Y400176D01*
X960130Y399799D01*
X959901Y399428D01*
X959664Y399062D01*
X959417Y398702D01*
X959161Y398348D01*
X958897Y398001D01*
X958624Y397660D01*
X958343Y397327D01*
X958054Y397000D01*
X957757Y396680D01*
X957452Y396368D01*
X957140Y396063D01*
X956820Y395766D01*
X956493Y395477D01*
X956160Y395196D01*
X955819Y394923D01*
X955472Y394659D01*
X955118Y394403D01*
X954758Y394156D01*
X954392Y393919D01*
X954021Y393690D01*
X953644Y393470D01*
X953261Y393259D01*
X952874Y393058D01*
X952482Y392867D01*
X952085Y392685D01*
X951684Y392513D01*
X951279Y392351D01*
X950870Y392199D01*
X950457Y392057D01*
X950041Y391926D01*
X949622Y391804D01*
X949200Y391693D01*
X948776Y391592D01*
X948349Y391502D01*
X947920Y391422D01*
X947489Y391352D01*
X947056Y391294D01*
X946623Y391246D01*
X946188Y391208D01*
X945752Y391181D01*
X945316Y391165D01*
X944880Y391160D01*
X944444Y391165D01*
X944008Y391181D01*
X943572Y391208D01*
X943137Y391246D01*
X942704Y391294D01*
X942271Y391352D01*
X941840Y391422D01*
X941411Y391502D01*
X940984Y391592D01*
X940560Y391693D01*
X940138Y391804D01*
X939719Y391926D01*
X939303Y392057D01*
X938890Y392199D01*
X938481Y392351D01*
X938076Y392513D01*
X937675Y392685D01*
X937278Y392867D01*
X936886Y393058D01*
X936499Y393259D01*
X936116Y393470D01*
X935739Y393690D01*
X935368Y393919D01*
X935002Y394156D01*
X934642Y394403D01*
X934288Y394659D01*
X933941Y394923D01*
X933600Y395196D01*
X933267Y395477D01*
X932940Y395766D01*
X932620Y396063D01*
X932308Y396368D01*
X932003Y396680D01*
X931706Y397000D01*
X931417Y397327D01*
X931136Y397660D01*
X930863Y398001D01*
X930599Y398348D01*
X930343Y398702D01*
X930096Y399062D01*
X929859Y399428D01*
X929630Y399799D01*
X929410Y400176D01*
X929199Y400559D01*
X928998Y400946D01*
X928807Y401338D01*
X928625Y401735D01*
X928453Y402136D01*
X928291Y402541D01*
X928139Y402950D01*
X927997Y403363D01*
X927866Y403779D01*
X927744Y404198D01*
X927633Y404620D01*
X927532Y405044D01*
X927442Y405471D01*
X927362Y405900D01*
X927292Y406331D01*
X927234Y406764D01*
X927186Y407197D01*
X927148Y407632D01*
X927121Y408068D01*
X927105Y408504D01*
X927100Y408940D01*
X942340Y408940D02*
X942342Y409040D01*
X942348Y409141D01*
X942358Y409240D01*
X942372Y409340D01*
X942389Y409439D01*
X942411Y409537D01*
X942437Y409634D01*
X942466Y409730D01*
X942499Y409824D01*
X942536Y409918D01*
X942576Y410010D01*
X942620Y410100D01*
X942668Y410188D01*
X942719Y410275D01*
X942773Y410359D01*
X942831Y410441D01*
X942892Y410521D01*
X942956Y410598D01*
X943023Y410673D01*
X943093Y410745D01*
X943166Y410814D01*
X943241Y410880D01*
X943319Y410944D01*
X943399Y411004D01*
X943482Y411061D01*
X943567Y411114D01*
X943654Y411164D01*
X943743Y411211D01*
X943833Y411254D01*
X943925Y411294D01*
X944019Y411330D01*
X944114Y411362D01*
X944210Y411390D01*
X944308Y411415D01*
X944406Y411435D01*
X944505Y411452D01*
X944605Y411465D01*
X944704Y411474D01*
X944805Y411479D01*
X944905Y411480D01*
X945005Y411477D01*
X945106Y411470D01*
X945205Y411459D01*
X945305Y411444D01*
X945403Y411426D01*
X945501Y411403D01*
X945598Y411376D01*
X945693Y411346D01*
X945788Y411312D01*
X945881Y411274D01*
X945972Y411233D01*
X946062Y411188D01*
X946150Y411140D01*
X946236Y411088D01*
X946320Y411033D01*
X946401Y410974D01*
X946480Y410912D01*
X946557Y410848D01*
X946631Y410780D01*
X946702Y410709D01*
X946771Y410636D01*
X946836Y410560D01*
X946899Y410481D01*
X946958Y410400D01*
X947014Y410317D01*
X947067Y410232D01*
X947116Y410144D01*
X947162Y410055D01*
X947204Y409964D01*
X947243Y409871D01*
X947278Y409777D01*
X947309Y409682D01*
X947337Y409585D01*
X947360Y409488D01*
X947380Y409389D01*
X947396Y409290D01*
X947408Y409191D01*
X947416Y409090D01*
X947420Y408990D01*
X947420Y408890D01*
X947416Y408790D01*
X947408Y408689D01*
X947396Y408590D01*
X947380Y408491D01*
X947360Y408392D01*
X947337Y408295D01*
X947309Y408198D01*
X947278Y408103D01*
X947243Y408009D01*
X947204Y407916D01*
X947162Y407825D01*
X947116Y407736D01*
X947067Y407648D01*
X947014Y407563D01*
X946958Y407480D01*
X946899Y407399D01*
X946836Y407320D01*
X946771Y407244D01*
X946702Y407171D01*
X946631Y407100D01*
X946557Y407032D01*
X946480Y406968D01*
X946401Y406906D01*
X946320Y406847D01*
X946236Y406792D01*
X946150Y406740D01*
X946062Y406692D01*
X945972Y406647D01*
X945881Y406606D01*
X945788Y406568D01*
X945693Y406534D01*
X945598Y406504D01*
X945501Y406477D01*
X945403Y406454D01*
X945305Y406436D01*
X945205Y406421D01*
X945106Y406410D01*
X945005Y406403D01*
X944905Y406400D01*
X944805Y406401D01*
X944704Y406406D01*
X944605Y406415D01*
X944505Y406428D01*
X944406Y406445D01*
X944308Y406465D01*
X944210Y406490D01*
X944114Y406518D01*
X944019Y406550D01*
X943925Y406586D01*
X943833Y406626D01*
X943743Y406669D01*
X943654Y406716D01*
X943567Y406766D01*
X943482Y406819D01*
X943399Y406876D01*
X943319Y406936D01*
X943241Y407000D01*
X943166Y407066D01*
X943093Y407135D01*
X943023Y407207D01*
X942956Y407282D01*
X942892Y407359D01*
X942831Y407439D01*
X942773Y407521D01*
X942719Y407605D01*
X942668Y407692D01*
X942620Y407780D01*
X942576Y407870D01*
X942536Y407962D01*
X942499Y408056D01*
X942466Y408150D01*
X942437Y408246D01*
X942411Y408343D01*
X942389Y408441D01*
X942372Y408540D01*
X942358Y408640D01*
X942348Y408739D01*
X942342Y408840D01*
X942340Y408940D01*
D12*
X963676Y362585D02*
X963674Y362485D01*
X963668Y362386D01*
X963658Y362286D01*
X963645Y362188D01*
X963627Y362089D01*
X963606Y361992D01*
X963581Y361896D01*
X963552Y361800D01*
X963519Y361706D01*
X963483Y361613D01*
X963443Y361522D01*
X963399Y361432D01*
X963352Y361344D01*
X963302Y361258D01*
X963248Y361174D01*
X963191Y361092D01*
X963131Y361013D01*
X963067Y360935D01*
X963001Y360861D01*
X962932Y360789D01*
X962860Y360720D01*
X962786Y360654D01*
X962708Y360590D01*
X962629Y360530D01*
X962547Y360473D01*
X962463Y360419D01*
X962377Y360369D01*
X962289Y360322D01*
X962199Y360278D01*
X962108Y360238D01*
X962015Y360202D01*
X961921Y360169D01*
X961825Y360140D01*
X961729Y360115D01*
X961632Y360094D01*
X961533Y360076D01*
X961435Y360063D01*
X961335Y360053D01*
X961236Y360047D01*
X961136Y360045D01*
X960995Y360047D01*
X960854Y360052D01*
X960713Y360062D01*
X960572Y360075D01*
X960432Y360091D01*
X960292Y360112D01*
X960153Y360136D01*
X960014Y360164D01*
X959877Y360195D01*
X959740Y360230D01*
X959604Y360268D01*
X959469Y360310D01*
X959336Y360356D01*
X959203Y360405D01*
X959072Y360458D01*
X958943Y360514D01*
X958814Y360573D01*
X958688Y360636D01*
X958563Y360702D01*
X958440Y360771D01*
X958319Y360844D01*
X958200Y360920D01*
X958082Y360999D01*
X957967Y361080D01*
X957855Y361165D01*
X957744Y361253D01*
X957636Y361344D01*
X957530Y361437D01*
X957427Y361534D01*
X957326Y361633D01*
X957644Y368935D02*
X957646Y369035D01*
X957652Y369134D01*
X957662Y369234D01*
X957675Y369332D01*
X957693Y369431D01*
X957714Y369528D01*
X957739Y369624D01*
X957768Y369720D01*
X957801Y369814D01*
X957837Y369907D01*
X957877Y369998D01*
X957921Y370088D01*
X957968Y370176D01*
X958018Y370262D01*
X958072Y370346D01*
X958129Y370428D01*
X958189Y370507D01*
X958253Y370585D01*
X958319Y370659D01*
X958388Y370731D01*
X958460Y370800D01*
X958534Y370866D01*
X958612Y370930D01*
X958691Y370990D01*
X958773Y371047D01*
X958857Y371101D01*
X958943Y371151D01*
X959031Y371198D01*
X959121Y371242D01*
X959212Y371282D01*
X959305Y371318D01*
X959399Y371351D01*
X959495Y371380D01*
X959591Y371405D01*
X959688Y371426D01*
X959787Y371444D01*
X959885Y371457D01*
X959985Y371467D01*
X960084Y371473D01*
X960184Y371475D01*
X960184Y371476D02*
X960317Y371474D01*
X960450Y371469D01*
X960583Y371459D01*
X960716Y371446D01*
X960848Y371429D01*
X960980Y371409D01*
X961111Y371385D01*
X961241Y371357D01*
X961371Y371326D01*
X961499Y371291D01*
X961627Y371252D01*
X961753Y371210D01*
X961878Y371164D01*
X962002Y371115D01*
X962125Y371063D01*
X962246Y371007D01*
X962365Y370947D01*
X962483Y370885D01*
X962598Y370819D01*
X962712Y370750D01*
X962824Y370677D01*
X962934Y370602D01*
X963042Y370523D01*
X958913Y366712D02*
X958829Y366764D01*
X958746Y366819D01*
X958666Y366878D01*
X958588Y366939D01*
X958513Y367003D01*
X958440Y367071D01*
X958369Y367141D01*
X958302Y367213D01*
X958237Y367288D01*
X958175Y367366D01*
X958116Y367446D01*
X958060Y367528D01*
X958008Y367612D01*
X957959Y367698D01*
X957913Y367786D01*
X957870Y367876D01*
X957831Y367967D01*
X957796Y368060D01*
X957764Y368154D01*
X957736Y368249D01*
X957711Y368345D01*
X957691Y368442D01*
X957673Y368540D01*
X957660Y368638D01*
X957651Y368737D01*
X957645Y368836D01*
X957643Y368935D01*
X962406Y364808D02*
X962490Y364756D01*
X962573Y364701D01*
X962653Y364642D01*
X962731Y364581D01*
X962806Y364517D01*
X962879Y364449D01*
X962950Y364379D01*
X963017Y364307D01*
X963082Y364232D01*
X963144Y364154D01*
X963203Y364074D01*
X963259Y363992D01*
X963311Y363908D01*
X963360Y363822D01*
X963406Y363734D01*
X963449Y363644D01*
X963488Y363553D01*
X963523Y363460D01*
X963555Y363366D01*
X963583Y363271D01*
X963608Y363175D01*
X963628Y363078D01*
X963646Y362980D01*
X963659Y362882D01*
X963668Y362783D01*
X963674Y362684D01*
X963676Y362585D01*
X962406Y364808D02*
X958914Y366713D01*
X971868Y371476D02*
X971972Y371474D01*
X972077Y371468D01*
X972181Y371459D01*
X972284Y371446D01*
X972387Y371428D01*
X972489Y371408D01*
X972591Y371383D01*
X972691Y371355D01*
X972791Y371323D01*
X972889Y371287D01*
X972986Y371248D01*
X973081Y371206D01*
X973175Y371160D01*
X973267Y371110D01*
X973357Y371058D01*
X973445Y371002D01*
X973531Y370942D01*
X973615Y370880D01*
X973696Y370815D01*
X973775Y370747D01*
X973852Y370675D01*
X973925Y370602D01*
X973997Y370525D01*
X974065Y370446D01*
X974130Y370365D01*
X974192Y370281D01*
X974252Y370195D01*
X974308Y370107D01*
X974360Y370017D01*
X974410Y369925D01*
X974456Y369831D01*
X974498Y369736D01*
X974537Y369639D01*
X974573Y369541D01*
X974605Y369441D01*
X974633Y369341D01*
X974658Y369239D01*
X974678Y369137D01*
X974696Y369034D01*
X974709Y368931D01*
X974718Y368827D01*
X974724Y368722D01*
X974726Y368618D01*
X971868Y371475D02*
X971750Y371473D01*
X971631Y371467D01*
X971513Y371458D01*
X971396Y371445D01*
X971279Y371427D01*
X971162Y371407D01*
X971046Y371382D01*
X970931Y371354D01*
X970818Y371321D01*
X970705Y371286D01*
X970593Y371246D01*
X970483Y371204D01*
X970374Y371157D01*
X970266Y371107D01*
X970161Y371054D01*
X970057Y370997D01*
X969955Y370937D01*
X969855Y370874D01*
X969757Y370807D01*
X969661Y370738D01*
X969568Y370665D01*
X969477Y370589D01*
X969388Y370511D01*
X969302Y370429D01*
X969219Y370345D01*
X969138Y370259D01*
X969061Y370169D01*
X968986Y370078D01*
X968914Y369984D01*
X968845Y369887D01*
X968780Y369789D01*
X968717Y369688D01*
X968658Y369585D01*
X968602Y369481D01*
X968550Y369375D01*
X968501Y369267D01*
X968456Y369158D01*
X968414Y369047D01*
X968376Y368935D01*
X973773Y366396D02*
X973849Y366471D01*
X973924Y366550D01*
X973995Y366631D01*
X974064Y366715D01*
X974129Y366801D01*
X974191Y366889D01*
X974251Y366979D01*
X974307Y367071D01*
X974360Y367166D01*
X974409Y367262D01*
X974455Y367360D01*
X974498Y367459D01*
X974537Y367560D01*
X974572Y367662D01*
X974604Y367765D01*
X974632Y367869D01*
X974657Y367974D01*
X974678Y368081D01*
X974695Y368187D01*
X974708Y368294D01*
X974717Y368402D01*
X974723Y368510D01*
X974725Y368618D01*
X973773Y366395D02*
X968375Y360045D01*
X974725Y360045D01*
D15*
X814150Y440480D02*
X814152Y440543D01*
X814158Y440605D01*
X814168Y440667D01*
X814181Y440729D01*
X814199Y440789D01*
X814220Y440848D01*
X814245Y440906D01*
X814274Y440962D01*
X814306Y441016D01*
X814341Y441068D01*
X814379Y441117D01*
X814421Y441165D01*
X814465Y441209D01*
X814513Y441251D01*
X814562Y441289D01*
X814614Y441324D01*
X814668Y441356D01*
X814724Y441385D01*
X814782Y441410D01*
X814841Y441431D01*
X814901Y441449D01*
X814963Y441462D01*
X815025Y441472D01*
X815087Y441478D01*
X815150Y441480D01*
X815213Y441478D01*
X815275Y441472D01*
X815337Y441462D01*
X815399Y441449D01*
X815459Y441431D01*
X815518Y441410D01*
X815576Y441385D01*
X815632Y441356D01*
X815686Y441324D01*
X815738Y441289D01*
X815787Y441251D01*
X815835Y441209D01*
X815879Y441165D01*
X815921Y441117D01*
X815959Y441068D01*
X815994Y441016D01*
X816026Y440962D01*
X816055Y440906D01*
X816080Y440848D01*
X816101Y440789D01*
X816119Y440729D01*
X816132Y440667D01*
X816142Y440605D01*
X816148Y440543D01*
X816150Y440480D01*
X816148Y440417D01*
X816142Y440355D01*
X816132Y440293D01*
X816119Y440231D01*
X816101Y440171D01*
X816080Y440112D01*
X816055Y440054D01*
X816026Y439998D01*
X815994Y439944D01*
X815959Y439892D01*
X815921Y439843D01*
X815879Y439795D01*
X815835Y439751D01*
X815787Y439709D01*
X815738Y439671D01*
X815686Y439636D01*
X815632Y439604D01*
X815576Y439575D01*
X815518Y439550D01*
X815459Y439529D01*
X815399Y439511D01*
X815337Y439498D01*
X815275Y439488D01*
X815213Y439482D01*
X815150Y439480D01*
X815087Y439482D01*
X815025Y439488D01*
X814963Y439498D01*
X814901Y439511D01*
X814841Y439529D01*
X814782Y439550D01*
X814724Y439575D01*
X814668Y439604D01*
X814614Y439636D01*
X814562Y439671D01*
X814513Y439709D01*
X814465Y439751D01*
X814421Y439795D01*
X814379Y439843D01*
X814341Y439892D01*
X814306Y439944D01*
X814274Y439998D01*
X814245Y440054D01*
X814220Y440112D01*
X814199Y440171D01*
X814181Y440231D01*
X814168Y440293D01*
X814158Y440355D01*
X814152Y440417D01*
X814150Y440480D01*
D16*
X805630Y423210D02*
X805632Y423281D01*
X805638Y423352D01*
X805648Y423423D01*
X805662Y423493D01*
X805680Y423562D01*
X805701Y423629D01*
X805727Y423696D01*
X805756Y423761D01*
X805788Y423824D01*
X805825Y423886D01*
X805864Y423945D01*
X805907Y424002D01*
X805953Y424056D01*
X806002Y424108D01*
X806054Y424157D01*
X806108Y424203D01*
X806165Y424246D01*
X806224Y424285D01*
X806286Y424322D01*
X806349Y424354D01*
X806414Y424383D01*
X806481Y424409D01*
X806548Y424430D01*
X806617Y424448D01*
X806687Y424462D01*
X806758Y424472D01*
X806829Y424478D01*
X806900Y424480D01*
X806971Y424478D01*
X807042Y424472D01*
X807113Y424462D01*
X807183Y424448D01*
X807252Y424430D01*
X807319Y424409D01*
X807386Y424383D01*
X807451Y424354D01*
X807514Y424322D01*
X807576Y424285D01*
X807635Y424246D01*
X807692Y424203D01*
X807746Y424157D01*
X807798Y424108D01*
X807847Y424056D01*
X807893Y424002D01*
X807936Y423945D01*
X807975Y423886D01*
X808012Y423824D01*
X808044Y423761D01*
X808073Y423696D01*
X808099Y423629D01*
X808120Y423562D01*
X808138Y423493D01*
X808152Y423423D01*
X808162Y423352D01*
X808168Y423281D01*
X808170Y423210D01*
X808168Y423139D01*
X808162Y423068D01*
X808152Y422997D01*
X808138Y422927D01*
X808120Y422858D01*
X808099Y422791D01*
X808073Y422724D01*
X808044Y422659D01*
X808012Y422596D01*
X807975Y422534D01*
X807936Y422475D01*
X807893Y422418D01*
X807847Y422364D01*
X807798Y422312D01*
X807746Y422263D01*
X807692Y422217D01*
X807635Y422174D01*
X807576Y422135D01*
X807514Y422098D01*
X807451Y422066D01*
X807386Y422037D01*
X807319Y422011D01*
X807252Y421990D01*
X807183Y421972D01*
X807113Y421958D01*
X807042Y421948D01*
X806971Y421942D01*
X806900Y421940D01*
X806829Y421942D01*
X806758Y421948D01*
X806687Y421958D01*
X806617Y421972D01*
X806548Y421990D01*
X806481Y422011D01*
X806414Y422037D01*
X806349Y422066D01*
X806286Y422098D01*
X806224Y422135D01*
X806165Y422174D01*
X806108Y422217D01*
X806054Y422263D01*
X806002Y422312D01*
X805953Y422364D01*
X805907Y422418D01*
X805864Y422475D01*
X805825Y422534D01*
X805788Y422596D01*
X805756Y422659D01*
X805727Y422724D01*
X805701Y422791D01*
X805680Y422858D01*
X805662Y422927D01*
X805648Y422997D01*
X805638Y423068D01*
X805632Y423139D01*
X805630Y423210D01*
D17*
X835526Y436367D02*
X840852Y436367D01*
X840941Y436369D01*
X841030Y436375D01*
X841119Y436385D01*
X841208Y436398D01*
X841295Y436416D01*
X841382Y436437D01*
X841468Y436462D01*
X841552Y436491D01*
X841636Y436523D01*
X841718Y436559D01*
X841798Y436598D01*
X841876Y436641D01*
X841952Y436688D01*
X842027Y436737D01*
X842099Y436790D01*
X842168Y436846D01*
X842236Y436905D01*
X842300Y436967D01*
X842362Y437031D01*
X842421Y437099D01*
X842477Y437168D01*
X842530Y437240D01*
X842579Y437315D01*
X842626Y437391D01*
X842669Y437469D01*
X842708Y437549D01*
X842744Y437631D01*
X842776Y437715D01*
X842805Y437799D01*
X842830Y437885D01*
X842851Y437972D01*
X842869Y438059D01*
X842882Y438148D01*
X842892Y438237D01*
X842898Y438326D01*
X842900Y438415D01*
X842898Y438504D01*
X842892Y438593D01*
X842882Y438682D01*
X842869Y438771D01*
X842851Y438858D01*
X842830Y438945D01*
X842805Y439031D01*
X842776Y439115D01*
X842744Y439199D01*
X842708Y439281D01*
X842669Y439361D01*
X842626Y439439D01*
X842579Y439515D01*
X842530Y439590D01*
X842477Y439662D01*
X842421Y439731D01*
X842362Y439799D01*
X842300Y439863D01*
X842236Y439925D01*
X842168Y439984D01*
X842099Y440040D01*
X842027Y440093D01*
X841952Y440142D01*
X841876Y440189D01*
X841798Y440232D01*
X841718Y440271D01*
X841636Y440307D01*
X841552Y440339D01*
X841468Y440368D01*
X841382Y440393D01*
X841295Y440414D01*
X841208Y440432D01*
X841119Y440445D01*
X841030Y440455D01*
X840941Y440461D01*
X840852Y440463D01*
X835526Y440463D01*
X837164Y443933D02*
X835526Y445982D01*
X842900Y445982D01*
X842900Y448030D02*
X842900Y443933D01*
D11*
X810180Y463940D02*
X800180Y463940D01*
X800180Y480940D02*
X810180Y480940D01*
D12*
X800962Y461375D02*
X802571Y459096D01*
X804180Y461375D01*
X802571Y459096D02*
X802571Y456549D01*
X806717Y460303D02*
X808057Y461375D01*
X808057Y456549D01*
X806717Y456549D02*
X809398Y456549D01*
D10*
X617220Y453390D02*
X617220Y466090D01*
X617220Y453390D02*
X610870Y447040D01*
X598170Y447040D02*
X591820Y453390D01*
X610870Y447040D02*
X617220Y440690D01*
X617220Y427990D01*
X610870Y421640D01*
X598170Y421640D02*
X591820Y427990D01*
X591820Y440690D01*
X598170Y447040D01*
X598170Y472440D02*
X610870Y472440D01*
X617220Y466090D01*
X598170Y472440D02*
X591820Y466090D01*
X591820Y453390D01*
X610870Y421640D02*
X617220Y415290D01*
X617220Y402590D01*
X610870Y396240D01*
X598170Y396240D02*
X591820Y402590D01*
X591820Y415290D01*
X598170Y421640D01*
X617220Y389890D02*
X617220Y377190D01*
X610870Y370840D01*
X598170Y370840D02*
X591820Y377190D01*
X610870Y370840D02*
X617220Y364490D01*
X617220Y351790D01*
X610870Y345440D01*
X598170Y345440D01*
X591820Y351790D01*
X591820Y364490D01*
X598170Y370840D01*
X617220Y389890D02*
X610870Y396240D01*
X598170Y396240D02*
X591820Y389890D01*
X591820Y377190D01*
D12*
X578485Y459105D02*
X575945Y462280D01*
X587375Y462280D01*
X587375Y459105D02*
X587375Y465455D01*
X633095Y361315D02*
X633095Y357505D01*
X633095Y361315D02*
X633093Y361415D01*
X633087Y361514D01*
X633077Y361614D01*
X633064Y361712D01*
X633046Y361811D01*
X633025Y361908D01*
X633000Y362004D01*
X632971Y362100D01*
X632938Y362194D01*
X632902Y362287D01*
X632862Y362378D01*
X632818Y362468D01*
X632771Y362556D01*
X632721Y362642D01*
X632667Y362726D01*
X632610Y362808D01*
X632550Y362887D01*
X632486Y362965D01*
X632420Y363039D01*
X632351Y363111D01*
X632279Y363180D01*
X632205Y363246D01*
X632127Y363310D01*
X632048Y363370D01*
X631966Y363427D01*
X631882Y363481D01*
X631796Y363531D01*
X631708Y363578D01*
X631618Y363622D01*
X631527Y363662D01*
X631434Y363698D01*
X631340Y363731D01*
X631244Y363760D01*
X631148Y363785D01*
X631051Y363806D01*
X630952Y363824D01*
X630854Y363837D01*
X630754Y363847D01*
X630655Y363853D01*
X630555Y363855D01*
X629285Y363855D01*
X629185Y363853D01*
X629086Y363847D01*
X628986Y363837D01*
X628888Y363824D01*
X628789Y363806D01*
X628692Y363785D01*
X628596Y363760D01*
X628500Y363731D01*
X628406Y363698D01*
X628313Y363662D01*
X628222Y363622D01*
X628132Y363578D01*
X628044Y363531D01*
X627958Y363481D01*
X627874Y363427D01*
X627792Y363370D01*
X627713Y363310D01*
X627635Y363246D01*
X627561Y363180D01*
X627489Y363111D01*
X627420Y363039D01*
X627354Y362965D01*
X627290Y362887D01*
X627230Y362808D01*
X627173Y362726D01*
X627119Y362642D01*
X627069Y362556D01*
X627022Y362468D01*
X626978Y362378D01*
X626938Y362287D01*
X626902Y362194D01*
X626869Y362100D01*
X626840Y362004D01*
X626815Y361908D01*
X626794Y361811D01*
X626776Y361712D01*
X626763Y361614D01*
X626753Y361514D01*
X626747Y361415D01*
X626745Y361315D01*
X626745Y357505D01*
X621665Y357505D01*
X621665Y363855D01*
X580771Y382524D02*
X580769Y382624D01*
X580763Y382723D01*
X580753Y382823D01*
X580740Y382921D01*
X580722Y383020D01*
X580701Y383117D01*
X580676Y383213D01*
X580647Y383309D01*
X580614Y383403D01*
X580578Y383496D01*
X580538Y383587D01*
X580494Y383677D01*
X580447Y383765D01*
X580397Y383851D01*
X580343Y383935D01*
X580286Y384017D01*
X580226Y384096D01*
X580162Y384174D01*
X580096Y384248D01*
X580027Y384320D01*
X579955Y384389D01*
X579881Y384455D01*
X579803Y384519D01*
X579724Y384579D01*
X579642Y384636D01*
X579558Y384690D01*
X579472Y384740D01*
X579384Y384787D01*
X579294Y384831D01*
X579203Y384871D01*
X579110Y384907D01*
X579016Y384940D01*
X578920Y384969D01*
X578824Y384994D01*
X578727Y385015D01*
X578628Y385033D01*
X578530Y385046D01*
X578430Y385056D01*
X578331Y385062D01*
X578231Y385064D01*
X580771Y382524D02*
X580769Y382383D01*
X580764Y382242D01*
X580754Y382101D01*
X580741Y381960D01*
X580725Y381820D01*
X580704Y381680D01*
X580680Y381541D01*
X580652Y381402D01*
X580621Y381265D01*
X580586Y381128D01*
X580548Y380992D01*
X580506Y380857D01*
X580460Y380724D01*
X580411Y380591D01*
X580358Y380460D01*
X580302Y380331D01*
X580243Y380202D01*
X580180Y380076D01*
X580114Y379951D01*
X580045Y379828D01*
X579972Y379707D01*
X579896Y379588D01*
X579817Y379470D01*
X579736Y379355D01*
X579651Y379243D01*
X579563Y379132D01*
X579472Y379024D01*
X579379Y378918D01*
X579282Y378815D01*
X579183Y378714D01*
X571881Y379032D02*
X571781Y379034D01*
X571682Y379040D01*
X571582Y379050D01*
X571484Y379063D01*
X571385Y379081D01*
X571288Y379102D01*
X571192Y379127D01*
X571096Y379156D01*
X571002Y379189D01*
X570909Y379225D01*
X570818Y379265D01*
X570728Y379309D01*
X570640Y379356D01*
X570554Y379406D01*
X570470Y379460D01*
X570388Y379517D01*
X570309Y379577D01*
X570231Y379641D01*
X570157Y379707D01*
X570085Y379776D01*
X570016Y379848D01*
X569950Y379922D01*
X569886Y380000D01*
X569826Y380079D01*
X569769Y380161D01*
X569715Y380245D01*
X569665Y380331D01*
X569618Y380419D01*
X569574Y380509D01*
X569534Y380600D01*
X569498Y380693D01*
X569465Y380787D01*
X569436Y380883D01*
X569411Y380979D01*
X569390Y381076D01*
X569372Y381175D01*
X569359Y381273D01*
X569349Y381373D01*
X569343Y381472D01*
X569341Y381572D01*
X569343Y381705D01*
X569348Y381838D01*
X569358Y381971D01*
X569371Y382104D01*
X569388Y382236D01*
X569408Y382368D01*
X569432Y382499D01*
X569460Y382629D01*
X569491Y382759D01*
X569526Y382887D01*
X569565Y383015D01*
X569607Y383141D01*
X569653Y383266D01*
X569702Y383390D01*
X569754Y383513D01*
X569810Y383634D01*
X569870Y383753D01*
X569932Y383871D01*
X569998Y383986D01*
X570067Y384100D01*
X570140Y384212D01*
X570215Y384322D01*
X570294Y384430D01*
X574104Y380301D02*
X574052Y380217D01*
X573997Y380134D01*
X573938Y380054D01*
X573877Y379976D01*
X573813Y379901D01*
X573745Y379828D01*
X573675Y379757D01*
X573603Y379690D01*
X573528Y379625D01*
X573450Y379563D01*
X573370Y379504D01*
X573288Y379448D01*
X573204Y379396D01*
X573118Y379347D01*
X573030Y379301D01*
X572940Y379258D01*
X572849Y379219D01*
X572756Y379184D01*
X572662Y379152D01*
X572567Y379124D01*
X572471Y379099D01*
X572374Y379079D01*
X572276Y379061D01*
X572178Y379048D01*
X572079Y379039D01*
X571980Y379033D01*
X571881Y379031D01*
X576008Y383794D02*
X576060Y383878D01*
X576115Y383961D01*
X576174Y384041D01*
X576235Y384119D01*
X576299Y384194D01*
X576367Y384267D01*
X576437Y384338D01*
X576509Y384405D01*
X576584Y384470D01*
X576662Y384532D01*
X576742Y384591D01*
X576824Y384647D01*
X576908Y384699D01*
X576994Y384748D01*
X577082Y384794D01*
X577172Y384837D01*
X577263Y384876D01*
X577356Y384911D01*
X577450Y384943D01*
X577545Y384971D01*
X577641Y384996D01*
X577738Y385016D01*
X577836Y385034D01*
X577934Y385047D01*
X578033Y385056D01*
X578132Y385062D01*
X578231Y385064D01*
X576009Y383794D02*
X574104Y380302D01*
X569341Y390144D02*
X580771Y390144D01*
X569341Y390144D02*
X569341Y393319D01*
X569343Y393430D01*
X569349Y393540D01*
X569358Y393651D01*
X569372Y393761D01*
X569389Y393870D01*
X569410Y393979D01*
X569435Y394087D01*
X569464Y394194D01*
X569496Y394300D01*
X569532Y394405D01*
X569572Y394508D01*
X569615Y394610D01*
X569662Y394711D01*
X569713Y394810D01*
X569766Y394907D01*
X569823Y395001D01*
X569884Y395094D01*
X569947Y395185D01*
X570014Y395274D01*
X570084Y395360D01*
X570157Y395443D01*
X570232Y395525D01*
X570310Y395603D01*
X570392Y395678D01*
X570475Y395751D01*
X570561Y395821D01*
X570650Y395888D01*
X570741Y395951D01*
X570834Y396012D01*
X570929Y396069D01*
X571025Y396122D01*
X571124Y396173D01*
X571225Y396220D01*
X571327Y396263D01*
X571430Y396303D01*
X571535Y396339D01*
X571641Y396371D01*
X571748Y396400D01*
X571856Y396425D01*
X571965Y396446D01*
X572074Y396463D01*
X572184Y396477D01*
X572295Y396486D01*
X572405Y396492D01*
X572516Y396494D01*
X577596Y396494D01*
X577707Y396492D01*
X577817Y396486D01*
X577928Y396477D01*
X578038Y396463D01*
X578147Y396446D01*
X578256Y396425D01*
X578364Y396400D01*
X578471Y396371D01*
X578577Y396339D01*
X578682Y396303D01*
X578785Y396263D01*
X578887Y396220D01*
X578988Y396173D01*
X579087Y396122D01*
X579184Y396069D01*
X579278Y396012D01*
X579371Y395951D01*
X579462Y395888D01*
X579551Y395821D01*
X579637Y395751D01*
X579720Y395678D01*
X579802Y395603D01*
X579880Y395525D01*
X579955Y395443D01*
X580028Y395360D01*
X580098Y395274D01*
X580165Y395185D01*
X580228Y395094D01*
X580289Y395001D01*
X580346Y394907D01*
X580399Y394810D01*
X580450Y394711D01*
X580497Y394610D01*
X580540Y394508D01*
X580580Y394405D01*
X580616Y394300D01*
X580648Y394194D01*
X580677Y394087D01*
X580702Y393979D01*
X580723Y393870D01*
X580740Y393761D01*
X580754Y393651D01*
X580763Y393540D01*
X580769Y393430D01*
X580771Y393319D01*
X580771Y390144D01*
X580771Y405384D02*
X580769Y405484D01*
X580763Y405583D01*
X580753Y405683D01*
X580740Y405781D01*
X580722Y405880D01*
X580701Y405977D01*
X580676Y406073D01*
X580647Y406169D01*
X580614Y406263D01*
X580578Y406356D01*
X580538Y406447D01*
X580494Y406537D01*
X580447Y406625D01*
X580397Y406711D01*
X580343Y406795D01*
X580286Y406877D01*
X580226Y406956D01*
X580162Y407034D01*
X580096Y407108D01*
X580027Y407180D01*
X579955Y407249D01*
X579881Y407315D01*
X579803Y407379D01*
X579724Y407439D01*
X579642Y407496D01*
X579558Y407550D01*
X579472Y407600D01*
X579384Y407647D01*
X579294Y407691D01*
X579203Y407731D01*
X579110Y407767D01*
X579016Y407800D01*
X578920Y407829D01*
X578824Y407854D01*
X578727Y407875D01*
X578628Y407893D01*
X578530Y407906D01*
X578430Y407916D01*
X578331Y407922D01*
X578231Y407924D01*
X580771Y405384D02*
X580769Y405243D01*
X580764Y405102D01*
X580754Y404961D01*
X580741Y404820D01*
X580725Y404680D01*
X580704Y404540D01*
X580680Y404401D01*
X580652Y404262D01*
X580621Y404125D01*
X580586Y403988D01*
X580548Y403852D01*
X580506Y403717D01*
X580460Y403584D01*
X580411Y403451D01*
X580358Y403320D01*
X580302Y403191D01*
X580243Y403062D01*
X580180Y402936D01*
X580114Y402811D01*
X580045Y402688D01*
X579972Y402567D01*
X579896Y402448D01*
X579817Y402330D01*
X579736Y402215D01*
X579651Y402103D01*
X579563Y401992D01*
X579472Y401884D01*
X579379Y401778D01*
X579282Y401675D01*
X579183Y401574D01*
X571881Y401892D02*
X571781Y401894D01*
X571682Y401900D01*
X571582Y401910D01*
X571484Y401923D01*
X571385Y401941D01*
X571288Y401962D01*
X571192Y401987D01*
X571096Y402016D01*
X571002Y402049D01*
X570909Y402085D01*
X570818Y402125D01*
X570728Y402169D01*
X570640Y402216D01*
X570554Y402266D01*
X570470Y402320D01*
X570388Y402377D01*
X570309Y402437D01*
X570231Y402501D01*
X570157Y402567D01*
X570085Y402636D01*
X570016Y402708D01*
X569950Y402782D01*
X569886Y402860D01*
X569826Y402939D01*
X569769Y403021D01*
X569715Y403105D01*
X569665Y403191D01*
X569618Y403279D01*
X569574Y403369D01*
X569534Y403460D01*
X569498Y403553D01*
X569465Y403647D01*
X569436Y403743D01*
X569411Y403839D01*
X569390Y403936D01*
X569372Y404035D01*
X569359Y404133D01*
X569349Y404233D01*
X569343Y404332D01*
X569341Y404432D01*
X569343Y404565D01*
X569348Y404698D01*
X569358Y404831D01*
X569371Y404964D01*
X569388Y405096D01*
X569408Y405228D01*
X569432Y405359D01*
X569460Y405489D01*
X569491Y405619D01*
X569526Y405747D01*
X569565Y405875D01*
X569607Y406001D01*
X569653Y406126D01*
X569702Y406250D01*
X569754Y406373D01*
X569810Y406494D01*
X569870Y406613D01*
X569932Y406731D01*
X569998Y406846D01*
X570067Y406960D01*
X570140Y407072D01*
X570215Y407182D01*
X570294Y407290D01*
X574104Y403161D02*
X574052Y403077D01*
X573997Y402994D01*
X573938Y402914D01*
X573877Y402836D01*
X573813Y402761D01*
X573745Y402688D01*
X573675Y402617D01*
X573603Y402550D01*
X573528Y402485D01*
X573450Y402423D01*
X573370Y402364D01*
X573288Y402308D01*
X573204Y402256D01*
X573118Y402207D01*
X573030Y402161D01*
X572940Y402118D01*
X572849Y402079D01*
X572756Y402044D01*
X572662Y402012D01*
X572567Y401984D01*
X572471Y401959D01*
X572374Y401939D01*
X572276Y401921D01*
X572178Y401908D01*
X572079Y401899D01*
X571980Y401893D01*
X571881Y401891D01*
X576008Y406654D02*
X576060Y406738D01*
X576115Y406821D01*
X576174Y406901D01*
X576235Y406979D01*
X576299Y407054D01*
X576367Y407127D01*
X576437Y407198D01*
X576509Y407265D01*
X576584Y407330D01*
X576662Y407392D01*
X576742Y407451D01*
X576824Y407507D01*
X576908Y407559D01*
X576994Y407608D01*
X577082Y407654D01*
X577172Y407697D01*
X577263Y407736D01*
X577356Y407771D01*
X577450Y407803D01*
X577545Y407831D01*
X577641Y407856D01*
X577738Y407876D01*
X577836Y407894D01*
X577934Y407907D01*
X578033Y407916D01*
X578132Y407922D01*
X578231Y407924D01*
X576009Y406654D02*
X574104Y403162D01*
X575056Y412623D02*
X574831Y412626D01*
X574606Y412634D01*
X574382Y412647D01*
X574158Y412666D01*
X573934Y412690D01*
X573711Y412719D01*
X573489Y412754D01*
X573268Y412794D01*
X573048Y412840D01*
X572829Y412890D01*
X572611Y412946D01*
X572394Y413007D01*
X572179Y413073D01*
X571966Y413144D01*
X571755Y413221D01*
X571545Y413302D01*
X571337Y413388D01*
X571132Y413479D01*
X570929Y413575D01*
X570841Y413607D01*
X570754Y413643D01*
X570668Y413682D01*
X570584Y413725D01*
X570502Y413771D01*
X570422Y413820D01*
X570344Y413872D01*
X570268Y413928D01*
X570194Y413986D01*
X570123Y414048D01*
X570054Y414112D01*
X569988Y414179D01*
X569925Y414248D01*
X569864Y414320D01*
X569806Y414394D01*
X569752Y414471D01*
X569700Y414549D01*
X569652Y414630D01*
X569607Y414712D01*
X569565Y414797D01*
X569527Y414883D01*
X569492Y414970D01*
X569460Y415058D01*
X569433Y415148D01*
X569408Y415239D01*
X569388Y415331D01*
X569371Y415423D01*
X569358Y415517D01*
X569349Y415610D01*
X569343Y415704D01*
X569341Y415798D01*
X569343Y415892D01*
X569349Y415986D01*
X569358Y416079D01*
X569371Y416173D01*
X569388Y416265D01*
X569408Y416357D01*
X569433Y416448D01*
X569460Y416538D01*
X569492Y416626D01*
X569527Y416713D01*
X569565Y416799D01*
X569607Y416884D01*
X569652Y416966D01*
X569700Y417047D01*
X569752Y417125D01*
X569806Y417202D01*
X569864Y417276D01*
X569925Y417348D01*
X569988Y417417D01*
X570054Y417484D01*
X570123Y417548D01*
X570194Y417610D01*
X570268Y417668D01*
X570344Y417724D01*
X570422Y417776D01*
X570502Y417825D01*
X570584Y417871D01*
X570668Y417914D01*
X570754Y417953D01*
X570841Y417989D01*
X570929Y418021D01*
X571132Y418117D01*
X571337Y418208D01*
X571545Y418294D01*
X571755Y418375D01*
X571966Y418452D01*
X572179Y418523D01*
X572394Y418589D01*
X572611Y418650D01*
X572829Y418706D01*
X573048Y418756D01*
X573268Y418802D01*
X573489Y418842D01*
X573711Y418877D01*
X573934Y418906D01*
X574158Y418930D01*
X574382Y418949D01*
X574606Y418962D01*
X574831Y418970D01*
X575056Y418973D01*
X575056Y412623D02*
X575281Y412626D01*
X575506Y412634D01*
X575730Y412647D01*
X575954Y412666D01*
X576178Y412690D01*
X576401Y412719D01*
X576623Y412754D01*
X576844Y412794D01*
X577064Y412840D01*
X577283Y412890D01*
X577501Y412946D01*
X577718Y413007D01*
X577933Y413073D01*
X578146Y413144D01*
X578357Y413221D01*
X578567Y413302D01*
X578775Y413388D01*
X578980Y413479D01*
X579183Y413575D01*
X579184Y413575D02*
X579272Y413607D01*
X579359Y413643D01*
X579445Y413682D01*
X579529Y413725D01*
X579611Y413771D01*
X579691Y413820D01*
X579769Y413872D01*
X579845Y413928D01*
X579919Y413986D01*
X579990Y414048D01*
X580059Y414112D01*
X580125Y414179D01*
X580188Y414248D01*
X580249Y414320D01*
X580307Y414394D01*
X580361Y414471D01*
X580413Y414549D01*
X580461Y414630D01*
X580506Y414712D01*
X580548Y414797D01*
X580586Y414883D01*
X580621Y414970D01*
X580653Y415058D01*
X580680Y415148D01*
X580705Y415239D01*
X580725Y415331D01*
X580742Y415423D01*
X580755Y415517D01*
X580764Y415610D01*
X580770Y415704D01*
X580772Y415798D01*
X579183Y418021D02*
X578980Y418117D01*
X578775Y418208D01*
X578567Y418294D01*
X578357Y418375D01*
X578146Y418452D01*
X577933Y418523D01*
X577718Y418589D01*
X577501Y418650D01*
X577283Y418706D01*
X577064Y418756D01*
X576844Y418802D01*
X576623Y418842D01*
X576401Y418877D01*
X576178Y418906D01*
X575954Y418930D01*
X575730Y418949D01*
X575506Y418962D01*
X575281Y418970D01*
X575056Y418973D01*
X579184Y418021D02*
X579272Y417989D01*
X579359Y417953D01*
X579445Y417914D01*
X579529Y417871D01*
X579611Y417825D01*
X579691Y417776D01*
X579769Y417724D01*
X579845Y417668D01*
X579919Y417610D01*
X579990Y417548D01*
X580059Y417484D01*
X580125Y417417D01*
X580188Y417348D01*
X580249Y417276D01*
X580307Y417202D01*
X580361Y417125D01*
X580413Y417047D01*
X580461Y416966D01*
X580506Y416884D01*
X580548Y416799D01*
X580586Y416713D01*
X580621Y416626D01*
X580653Y416538D01*
X580680Y416448D01*
X580705Y416357D01*
X580725Y416265D01*
X580742Y416173D01*
X580755Y416079D01*
X580764Y415986D01*
X580770Y415892D01*
X580772Y415798D01*
X578231Y413258D02*
X571881Y418338D01*
X571881Y424053D02*
X569341Y427228D01*
X580771Y427228D01*
X580771Y424053D02*
X580771Y430403D01*
X571881Y435483D02*
X569341Y438658D01*
X580771Y438658D01*
X580771Y435483D02*
X580771Y441833D01*
D10*
X901700Y260350D02*
X901700Y247650D01*
X895350Y241300D01*
X882650Y241300D02*
X876300Y247650D01*
X895350Y241300D02*
X901700Y234950D01*
X901700Y222250D01*
X895350Y215900D01*
X882650Y215900D02*
X876300Y222250D01*
X876300Y234950D01*
X882650Y241300D01*
X882650Y266700D02*
X895350Y266700D01*
X901700Y260350D01*
X882650Y266700D02*
X876300Y260350D01*
X876300Y247650D01*
X895350Y215900D02*
X901700Y209550D01*
X901700Y196850D01*
X895350Y190500D01*
X882650Y190500D02*
X876300Y196850D01*
X876300Y209550D01*
X882650Y215900D01*
X901700Y184150D02*
X901700Y171450D01*
X895350Y165100D01*
X882650Y165100D02*
X876300Y171450D01*
X895350Y165100D02*
X901700Y158750D01*
X901700Y146050D01*
X895350Y139700D01*
X882650Y139700D01*
X876300Y146050D01*
X876300Y158750D01*
X882650Y165100D01*
X901700Y184150D02*
X895350Y190500D01*
X882650Y190500D02*
X876300Y184150D01*
X876300Y171450D01*
D12*
X862965Y253365D02*
X860425Y256540D01*
X871855Y256540D01*
X871855Y253365D02*
X871855Y259715D01*
X917575Y155575D02*
X917575Y151765D01*
X917575Y155575D02*
X917573Y155675D01*
X917567Y155774D01*
X917557Y155874D01*
X917544Y155972D01*
X917526Y156071D01*
X917505Y156168D01*
X917480Y156264D01*
X917451Y156360D01*
X917418Y156454D01*
X917382Y156547D01*
X917342Y156638D01*
X917298Y156728D01*
X917251Y156816D01*
X917201Y156902D01*
X917147Y156986D01*
X917090Y157068D01*
X917030Y157147D01*
X916966Y157225D01*
X916900Y157299D01*
X916831Y157371D01*
X916759Y157440D01*
X916685Y157506D01*
X916607Y157570D01*
X916528Y157630D01*
X916446Y157687D01*
X916362Y157741D01*
X916276Y157791D01*
X916188Y157838D01*
X916098Y157882D01*
X916007Y157922D01*
X915914Y157958D01*
X915820Y157991D01*
X915724Y158020D01*
X915628Y158045D01*
X915531Y158066D01*
X915432Y158084D01*
X915334Y158097D01*
X915234Y158107D01*
X915135Y158113D01*
X915035Y158115D01*
X913765Y158115D01*
X913665Y158113D01*
X913566Y158107D01*
X913466Y158097D01*
X913368Y158084D01*
X913269Y158066D01*
X913172Y158045D01*
X913076Y158020D01*
X912980Y157991D01*
X912886Y157958D01*
X912793Y157922D01*
X912702Y157882D01*
X912612Y157838D01*
X912524Y157791D01*
X912438Y157741D01*
X912354Y157687D01*
X912272Y157630D01*
X912193Y157570D01*
X912115Y157506D01*
X912041Y157440D01*
X911969Y157371D01*
X911900Y157299D01*
X911834Y157225D01*
X911770Y157147D01*
X911710Y157068D01*
X911653Y156986D01*
X911599Y156902D01*
X911549Y156816D01*
X911502Y156728D01*
X911458Y156638D01*
X911418Y156547D01*
X911382Y156454D01*
X911349Y156360D01*
X911320Y156264D01*
X911295Y156168D01*
X911274Y156071D01*
X911256Y155972D01*
X911243Y155874D01*
X911233Y155774D01*
X911227Y155675D01*
X911225Y155575D01*
X911225Y151765D01*
X906145Y151765D01*
X906145Y158115D01*
X860933Y141180D02*
X849503Y141180D01*
X849503Y144355D01*
X849505Y144466D01*
X849511Y144576D01*
X849520Y144687D01*
X849534Y144797D01*
X849551Y144906D01*
X849572Y145015D01*
X849597Y145123D01*
X849626Y145230D01*
X849658Y145336D01*
X849694Y145441D01*
X849734Y145544D01*
X849777Y145646D01*
X849824Y145747D01*
X849875Y145846D01*
X849928Y145943D01*
X849985Y146037D01*
X850046Y146130D01*
X850109Y146221D01*
X850176Y146310D01*
X850246Y146396D01*
X850319Y146479D01*
X850394Y146561D01*
X850472Y146639D01*
X850554Y146714D01*
X850637Y146787D01*
X850723Y146857D01*
X850812Y146924D01*
X850903Y146987D01*
X850996Y147048D01*
X851091Y147105D01*
X851187Y147158D01*
X851286Y147209D01*
X851387Y147256D01*
X851489Y147299D01*
X851592Y147339D01*
X851697Y147375D01*
X851803Y147407D01*
X851910Y147436D01*
X852018Y147461D01*
X852127Y147482D01*
X852236Y147499D01*
X852346Y147513D01*
X852457Y147522D01*
X852567Y147528D01*
X852678Y147530D01*
X852789Y147528D01*
X852899Y147522D01*
X853010Y147513D01*
X853120Y147499D01*
X853229Y147482D01*
X853338Y147461D01*
X853446Y147436D01*
X853553Y147407D01*
X853659Y147375D01*
X853764Y147339D01*
X853867Y147299D01*
X853969Y147256D01*
X854070Y147209D01*
X854169Y147158D01*
X854266Y147105D01*
X854360Y147048D01*
X854453Y146987D01*
X854544Y146924D01*
X854633Y146857D01*
X854719Y146787D01*
X854802Y146714D01*
X854884Y146639D01*
X854962Y146561D01*
X855037Y146479D01*
X855110Y146396D01*
X855180Y146310D01*
X855247Y146221D01*
X855310Y146130D01*
X855371Y146037D01*
X855428Y145943D01*
X855481Y145846D01*
X855532Y145747D01*
X855579Y145646D01*
X855622Y145544D01*
X855662Y145441D01*
X855698Y145336D01*
X855730Y145230D01*
X855759Y145123D01*
X855784Y145015D01*
X855805Y144906D01*
X855822Y144797D01*
X855836Y144687D01*
X855845Y144576D01*
X855851Y144466D01*
X855853Y144355D01*
X855853Y141180D01*
X855853Y144990D02*
X860933Y147530D01*
X860933Y152908D02*
X849503Y152908D01*
X860933Y159258D01*
X849503Y159258D01*
X849503Y168212D02*
X849505Y168316D01*
X849511Y168421D01*
X849520Y168525D01*
X849533Y168628D01*
X849551Y168731D01*
X849571Y168833D01*
X849596Y168935D01*
X849624Y169035D01*
X849656Y169135D01*
X849692Y169233D01*
X849731Y169330D01*
X849773Y169425D01*
X849819Y169519D01*
X849869Y169611D01*
X849921Y169701D01*
X849977Y169789D01*
X850037Y169875D01*
X850099Y169959D01*
X850164Y170040D01*
X850232Y170119D01*
X850304Y170196D01*
X850377Y170269D01*
X850454Y170341D01*
X850533Y170409D01*
X850614Y170474D01*
X850698Y170536D01*
X850784Y170596D01*
X850872Y170652D01*
X850962Y170704D01*
X851054Y170754D01*
X851148Y170800D01*
X851243Y170842D01*
X851340Y170881D01*
X851438Y170917D01*
X851538Y170949D01*
X851638Y170977D01*
X851740Y171002D01*
X851842Y171022D01*
X851945Y171040D01*
X852048Y171053D01*
X852152Y171062D01*
X852257Y171068D01*
X852361Y171070D01*
X849503Y168212D02*
X849505Y168094D01*
X849511Y167975D01*
X849520Y167857D01*
X849533Y167740D01*
X849551Y167623D01*
X849571Y167506D01*
X849596Y167390D01*
X849624Y167275D01*
X849657Y167162D01*
X849692Y167049D01*
X849732Y166937D01*
X849774Y166827D01*
X849821Y166718D01*
X849871Y166610D01*
X849924Y166505D01*
X849981Y166401D01*
X850041Y166299D01*
X850104Y166199D01*
X850171Y166101D01*
X850240Y166005D01*
X850313Y165912D01*
X850389Y165821D01*
X850467Y165732D01*
X850549Y165646D01*
X850633Y165563D01*
X850719Y165482D01*
X850809Y165405D01*
X850900Y165330D01*
X850994Y165258D01*
X851091Y165189D01*
X851189Y165124D01*
X851290Y165061D01*
X851393Y165002D01*
X851497Y164946D01*
X851603Y164894D01*
X851711Y164845D01*
X851820Y164800D01*
X851931Y164758D01*
X852043Y164720D01*
X854583Y170117D02*
X854508Y170193D01*
X854429Y170268D01*
X854348Y170339D01*
X854264Y170408D01*
X854178Y170473D01*
X854090Y170535D01*
X854000Y170595D01*
X853908Y170651D01*
X853813Y170704D01*
X853717Y170753D01*
X853619Y170799D01*
X853520Y170842D01*
X853419Y170881D01*
X853317Y170916D01*
X853214Y170948D01*
X853110Y170976D01*
X853005Y171001D01*
X852898Y171022D01*
X852792Y171039D01*
X852685Y171052D01*
X852577Y171061D01*
X852469Y171067D01*
X852361Y171069D01*
X854583Y170117D02*
X860933Y164719D01*
X860933Y171069D01*
X858393Y176149D02*
X849503Y178689D01*
X858393Y176149D02*
X858393Y182499D01*
X855853Y180594D02*
X860933Y180594D01*
X857758Y187579D02*
X857647Y187581D01*
X857537Y187587D01*
X857426Y187596D01*
X857316Y187610D01*
X857207Y187627D01*
X857098Y187648D01*
X856990Y187673D01*
X856883Y187702D01*
X856777Y187734D01*
X856672Y187770D01*
X856569Y187810D01*
X856467Y187853D01*
X856366Y187900D01*
X856267Y187951D01*
X856171Y188004D01*
X856076Y188061D01*
X855983Y188122D01*
X855892Y188185D01*
X855803Y188252D01*
X855717Y188322D01*
X855634Y188395D01*
X855552Y188470D01*
X855474Y188548D01*
X855399Y188630D01*
X855326Y188713D01*
X855256Y188799D01*
X855189Y188888D01*
X855126Y188979D01*
X855065Y189072D01*
X855008Y189167D01*
X854955Y189263D01*
X854904Y189362D01*
X854857Y189463D01*
X854814Y189565D01*
X854774Y189668D01*
X854738Y189773D01*
X854706Y189879D01*
X854677Y189986D01*
X854652Y190094D01*
X854631Y190203D01*
X854614Y190312D01*
X854600Y190422D01*
X854591Y190533D01*
X854585Y190643D01*
X854583Y190754D01*
X854585Y190865D01*
X854591Y190975D01*
X854600Y191086D01*
X854614Y191196D01*
X854631Y191305D01*
X854652Y191414D01*
X854677Y191522D01*
X854706Y191629D01*
X854738Y191735D01*
X854774Y191840D01*
X854814Y191943D01*
X854857Y192045D01*
X854904Y192146D01*
X854955Y192245D01*
X855008Y192342D01*
X855065Y192436D01*
X855126Y192529D01*
X855189Y192620D01*
X855256Y192709D01*
X855326Y192795D01*
X855399Y192878D01*
X855474Y192960D01*
X855552Y193038D01*
X855634Y193113D01*
X855717Y193186D01*
X855803Y193256D01*
X855892Y193323D01*
X855983Y193386D01*
X856076Y193447D01*
X856171Y193504D01*
X856267Y193557D01*
X856366Y193608D01*
X856467Y193655D01*
X856569Y193698D01*
X856672Y193738D01*
X856777Y193774D01*
X856883Y193806D01*
X856990Y193835D01*
X857098Y193860D01*
X857207Y193881D01*
X857316Y193898D01*
X857426Y193912D01*
X857537Y193921D01*
X857647Y193927D01*
X857758Y193929D01*
X857869Y193927D01*
X857979Y193921D01*
X858090Y193912D01*
X858200Y193898D01*
X858309Y193881D01*
X858418Y193860D01*
X858526Y193835D01*
X858633Y193806D01*
X858739Y193774D01*
X858844Y193738D01*
X858947Y193698D01*
X859049Y193655D01*
X859150Y193608D01*
X859249Y193557D01*
X859346Y193504D01*
X859440Y193447D01*
X859533Y193386D01*
X859624Y193323D01*
X859713Y193256D01*
X859799Y193186D01*
X859882Y193113D01*
X859964Y193038D01*
X860042Y192960D01*
X860117Y192878D01*
X860190Y192795D01*
X860260Y192709D01*
X860327Y192620D01*
X860390Y192529D01*
X860451Y192436D01*
X860508Y192341D01*
X860561Y192245D01*
X860612Y192146D01*
X860659Y192045D01*
X860702Y191943D01*
X860742Y191840D01*
X860778Y191735D01*
X860810Y191629D01*
X860839Y191522D01*
X860864Y191414D01*
X860885Y191305D01*
X860902Y191196D01*
X860916Y191086D01*
X860925Y190975D01*
X860931Y190865D01*
X860933Y190754D01*
X860931Y190643D01*
X860925Y190533D01*
X860916Y190422D01*
X860902Y190312D01*
X860885Y190203D01*
X860864Y190094D01*
X860839Y189986D01*
X860810Y189879D01*
X860778Y189773D01*
X860742Y189668D01*
X860702Y189565D01*
X860659Y189463D01*
X860612Y189362D01*
X860561Y189263D01*
X860508Y189166D01*
X860451Y189072D01*
X860390Y188979D01*
X860327Y188888D01*
X860260Y188799D01*
X860190Y188713D01*
X860117Y188630D01*
X860042Y188548D01*
X859964Y188470D01*
X859882Y188395D01*
X859799Y188322D01*
X859713Y188252D01*
X859624Y188185D01*
X859533Y188122D01*
X859440Y188061D01*
X859346Y188004D01*
X859249Y187951D01*
X859150Y187900D01*
X859049Y187853D01*
X858947Y187810D01*
X858844Y187770D01*
X858739Y187734D01*
X858633Y187702D01*
X858526Y187673D01*
X858418Y187648D01*
X858309Y187627D01*
X858200Y187610D01*
X858090Y187596D01*
X857979Y187587D01*
X857869Y187581D01*
X857758Y187579D01*
X852043Y188214D02*
X851943Y188216D01*
X851844Y188222D01*
X851744Y188232D01*
X851646Y188245D01*
X851547Y188263D01*
X851450Y188284D01*
X851354Y188309D01*
X851258Y188338D01*
X851164Y188371D01*
X851071Y188407D01*
X850980Y188447D01*
X850890Y188491D01*
X850802Y188538D01*
X850716Y188588D01*
X850632Y188642D01*
X850550Y188699D01*
X850471Y188759D01*
X850393Y188823D01*
X850319Y188889D01*
X850247Y188958D01*
X850178Y189030D01*
X850112Y189104D01*
X850048Y189182D01*
X849988Y189261D01*
X849931Y189343D01*
X849877Y189427D01*
X849827Y189513D01*
X849780Y189601D01*
X849736Y189691D01*
X849696Y189782D01*
X849660Y189875D01*
X849627Y189969D01*
X849598Y190065D01*
X849573Y190161D01*
X849552Y190258D01*
X849534Y190357D01*
X849521Y190455D01*
X849511Y190555D01*
X849505Y190654D01*
X849503Y190754D01*
X849505Y190854D01*
X849511Y190953D01*
X849521Y191053D01*
X849534Y191151D01*
X849552Y191250D01*
X849573Y191347D01*
X849598Y191443D01*
X849627Y191539D01*
X849660Y191633D01*
X849696Y191726D01*
X849736Y191817D01*
X849780Y191907D01*
X849827Y191995D01*
X849877Y192081D01*
X849931Y192165D01*
X849988Y192247D01*
X850048Y192326D01*
X850112Y192404D01*
X850178Y192478D01*
X850247Y192550D01*
X850319Y192619D01*
X850393Y192685D01*
X850471Y192749D01*
X850550Y192809D01*
X850632Y192866D01*
X850716Y192920D01*
X850802Y192970D01*
X850890Y193017D01*
X850980Y193061D01*
X851071Y193101D01*
X851164Y193137D01*
X851258Y193170D01*
X851354Y193199D01*
X851450Y193224D01*
X851547Y193245D01*
X851646Y193263D01*
X851744Y193276D01*
X851844Y193286D01*
X851943Y193292D01*
X852043Y193294D01*
X852143Y193292D01*
X852242Y193286D01*
X852342Y193276D01*
X852440Y193263D01*
X852539Y193245D01*
X852636Y193224D01*
X852732Y193199D01*
X852828Y193170D01*
X852922Y193137D01*
X853015Y193101D01*
X853106Y193061D01*
X853196Y193017D01*
X853284Y192970D01*
X853370Y192920D01*
X853454Y192866D01*
X853536Y192809D01*
X853615Y192749D01*
X853693Y192685D01*
X853767Y192619D01*
X853839Y192550D01*
X853908Y192478D01*
X853974Y192404D01*
X854038Y192326D01*
X854098Y192247D01*
X854155Y192165D01*
X854209Y192081D01*
X854259Y191995D01*
X854306Y191907D01*
X854350Y191817D01*
X854390Y191726D01*
X854426Y191633D01*
X854459Y191539D01*
X854488Y191443D01*
X854513Y191347D01*
X854534Y191250D01*
X854552Y191151D01*
X854565Y191053D01*
X854575Y190953D01*
X854581Y190854D01*
X854583Y190754D01*
X854581Y190654D01*
X854575Y190555D01*
X854565Y190455D01*
X854552Y190357D01*
X854534Y190258D01*
X854513Y190161D01*
X854488Y190065D01*
X854459Y189969D01*
X854426Y189875D01*
X854390Y189782D01*
X854350Y189691D01*
X854306Y189601D01*
X854259Y189513D01*
X854209Y189427D01*
X854155Y189343D01*
X854098Y189261D01*
X854038Y189182D01*
X853974Y189104D01*
X853908Y189030D01*
X853839Y188958D01*
X853767Y188889D01*
X853693Y188823D01*
X853615Y188759D01*
X853536Y188699D01*
X853454Y188642D01*
X853370Y188588D01*
X853284Y188538D01*
X853196Y188491D01*
X853106Y188447D01*
X853015Y188407D01*
X852922Y188371D01*
X852828Y188338D01*
X852732Y188309D01*
X852636Y188284D01*
X852539Y188263D01*
X852440Y188245D01*
X852342Y188232D01*
X852242Y188222D01*
X852143Y188216D01*
X852043Y188214D01*
X860933Y199009D02*
X860933Y202184D01*
X860931Y202295D01*
X860925Y202405D01*
X860916Y202516D01*
X860902Y202626D01*
X860885Y202735D01*
X860864Y202844D01*
X860839Y202952D01*
X860810Y203059D01*
X860778Y203165D01*
X860742Y203270D01*
X860702Y203373D01*
X860659Y203475D01*
X860612Y203576D01*
X860561Y203675D01*
X860508Y203772D01*
X860451Y203866D01*
X860390Y203959D01*
X860327Y204050D01*
X860260Y204139D01*
X860190Y204225D01*
X860117Y204308D01*
X860042Y204390D01*
X859964Y204468D01*
X859882Y204543D01*
X859799Y204616D01*
X859713Y204686D01*
X859624Y204753D01*
X859533Y204816D01*
X859440Y204877D01*
X859346Y204934D01*
X859249Y204987D01*
X859150Y205038D01*
X859049Y205085D01*
X858947Y205128D01*
X858844Y205168D01*
X858739Y205204D01*
X858633Y205236D01*
X858526Y205265D01*
X858418Y205290D01*
X858309Y205311D01*
X858200Y205328D01*
X858090Y205342D01*
X857979Y205351D01*
X857869Y205357D01*
X857758Y205359D01*
X857647Y205357D01*
X857537Y205351D01*
X857426Y205342D01*
X857316Y205328D01*
X857207Y205311D01*
X857098Y205290D01*
X856990Y205265D01*
X856883Y205236D01*
X856777Y205204D01*
X856672Y205168D01*
X856569Y205128D01*
X856467Y205085D01*
X856366Y205038D01*
X856267Y204987D01*
X856171Y204934D01*
X856076Y204877D01*
X855983Y204816D01*
X855892Y204753D01*
X855803Y204686D01*
X855717Y204616D01*
X855634Y204543D01*
X855552Y204468D01*
X855474Y204390D01*
X855399Y204308D01*
X855326Y204225D01*
X855256Y204139D01*
X855189Y204050D01*
X855126Y203959D01*
X855065Y203866D01*
X855008Y203772D01*
X854955Y203675D01*
X854904Y203576D01*
X854857Y203475D01*
X854814Y203373D01*
X854774Y203270D01*
X854738Y203165D01*
X854706Y203059D01*
X854677Y202952D01*
X854652Y202844D01*
X854631Y202735D01*
X854614Y202626D01*
X854600Y202516D01*
X854591Y202405D01*
X854585Y202295D01*
X854583Y202184D01*
X849503Y202819D02*
X849503Y199009D01*
X849503Y202819D02*
X849505Y202919D01*
X849511Y203018D01*
X849521Y203118D01*
X849534Y203216D01*
X849552Y203315D01*
X849573Y203412D01*
X849598Y203508D01*
X849627Y203604D01*
X849660Y203698D01*
X849696Y203791D01*
X849736Y203882D01*
X849780Y203972D01*
X849827Y204060D01*
X849877Y204146D01*
X849931Y204230D01*
X849988Y204312D01*
X850048Y204391D01*
X850112Y204469D01*
X850178Y204543D01*
X850247Y204615D01*
X850319Y204684D01*
X850393Y204750D01*
X850471Y204814D01*
X850550Y204874D01*
X850632Y204931D01*
X850716Y204985D01*
X850802Y205035D01*
X850890Y205082D01*
X850980Y205126D01*
X851071Y205166D01*
X851164Y205202D01*
X851258Y205235D01*
X851354Y205264D01*
X851450Y205289D01*
X851547Y205310D01*
X851646Y205328D01*
X851744Y205341D01*
X851844Y205351D01*
X851943Y205357D01*
X852043Y205359D01*
X852143Y205357D01*
X852242Y205351D01*
X852342Y205341D01*
X852440Y205328D01*
X852539Y205310D01*
X852636Y205289D01*
X852732Y205264D01*
X852828Y205235D01*
X852922Y205202D01*
X853015Y205166D01*
X853106Y205126D01*
X853196Y205082D01*
X853284Y205035D01*
X853370Y204985D01*
X853454Y204931D01*
X853536Y204874D01*
X853615Y204814D01*
X853693Y204750D01*
X853767Y204684D01*
X853839Y204615D01*
X853908Y204543D01*
X853974Y204469D01*
X854038Y204391D01*
X854098Y204312D01*
X854155Y204230D01*
X854209Y204146D01*
X854259Y204060D01*
X854306Y203972D01*
X854350Y203882D01*
X854390Y203791D01*
X854426Y203698D01*
X854459Y203604D01*
X854488Y203508D01*
X854513Y203412D01*
X854534Y203315D01*
X854552Y203216D01*
X854565Y203118D01*
X854575Y203018D01*
X854581Y202919D01*
X854583Y202819D01*
X854583Y200279D01*
D10*
X622300Y247650D02*
X622300Y260350D01*
X622300Y247650D02*
X615950Y241300D01*
X603250Y241300D02*
X596900Y247650D01*
X615950Y241300D02*
X622300Y234950D01*
X622300Y222250D01*
X615950Y215900D01*
X603250Y215900D02*
X596900Y222250D01*
X596900Y234950D01*
X603250Y241300D01*
X603250Y266700D02*
X615950Y266700D01*
X622300Y260350D01*
X603250Y266700D02*
X596900Y260350D01*
X596900Y247650D01*
X615950Y215900D02*
X622300Y209550D01*
X622300Y196850D01*
X615950Y190500D01*
X603250Y190500D02*
X596900Y196850D01*
X596900Y209550D01*
X603250Y215900D01*
X622300Y184150D02*
X622300Y171450D01*
X615950Y165100D01*
X603250Y165100D02*
X596900Y171450D01*
X615950Y165100D02*
X622300Y158750D01*
X622300Y146050D01*
X615950Y139700D01*
X603250Y139700D01*
X596900Y146050D01*
X596900Y158750D01*
X603250Y165100D01*
X622300Y184150D02*
X615950Y190500D01*
X603250Y190500D02*
X596900Y184150D01*
X596900Y171450D01*
D12*
X583565Y253365D02*
X581025Y256540D01*
X592455Y256540D01*
X592455Y253365D02*
X592455Y259715D01*
X638175Y155575D02*
X638175Y151765D01*
X638175Y155575D02*
X638173Y155675D01*
X638167Y155774D01*
X638157Y155874D01*
X638144Y155972D01*
X638126Y156071D01*
X638105Y156168D01*
X638080Y156264D01*
X638051Y156360D01*
X638018Y156454D01*
X637982Y156547D01*
X637942Y156638D01*
X637898Y156728D01*
X637851Y156816D01*
X637801Y156902D01*
X637747Y156986D01*
X637690Y157068D01*
X637630Y157147D01*
X637566Y157225D01*
X637500Y157299D01*
X637431Y157371D01*
X637359Y157440D01*
X637285Y157506D01*
X637207Y157570D01*
X637128Y157630D01*
X637046Y157687D01*
X636962Y157741D01*
X636876Y157791D01*
X636788Y157838D01*
X636698Y157882D01*
X636607Y157922D01*
X636514Y157958D01*
X636420Y157991D01*
X636324Y158020D01*
X636228Y158045D01*
X636131Y158066D01*
X636032Y158084D01*
X635934Y158097D01*
X635834Y158107D01*
X635735Y158113D01*
X635635Y158115D01*
X634365Y158115D01*
X634265Y158113D01*
X634166Y158107D01*
X634066Y158097D01*
X633968Y158084D01*
X633869Y158066D01*
X633772Y158045D01*
X633676Y158020D01*
X633580Y157991D01*
X633486Y157958D01*
X633393Y157922D01*
X633302Y157882D01*
X633212Y157838D01*
X633124Y157791D01*
X633038Y157741D01*
X632954Y157687D01*
X632872Y157630D01*
X632793Y157570D01*
X632715Y157506D01*
X632641Y157440D01*
X632569Y157371D01*
X632500Y157299D01*
X632434Y157225D01*
X632370Y157147D01*
X632310Y157068D01*
X632253Y156986D01*
X632199Y156902D01*
X632149Y156816D01*
X632102Y156728D01*
X632058Y156638D01*
X632018Y156547D01*
X631982Y156454D01*
X631949Y156360D01*
X631920Y156264D01*
X631895Y156168D01*
X631874Y156071D01*
X631856Y155972D01*
X631843Y155874D01*
X631833Y155774D01*
X631827Y155675D01*
X631825Y155575D01*
X631825Y151765D01*
X626745Y151765D01*
X626745Y158115D01*
X579882Y141180D02*
X568452Y141180D01*
X568452Y144355D01*
X568454Y144466D01*
X568460Y144576D01*
X568469Y144687D01*
X568483Y144797D01*
X568500Y144906D01*
X568521Y145015D01*
X568546Y145123D01*
X568575Y145230D01*
X568607Y145336D01*
X568643Y145441D01*
X568683Y145544D01*
X568726Y145646D01*
X568773Y145747D01*
X568824Y145846D01*
X568877Y145943D01*
X568934Y146037D01*
X568995Y146130D01*
X569058Y146221D01*
X569125Y146310D01*
X569195Y146396D01*
X569268Y146479D01*
X569343Y146561D01*
X569421Y146639D01*
X569503Y146714D01*
X569586Y146787D01*
X569672Y146857D01*
X569761Y146924D01*
X569852Y146987D01*
X569945Y147048D01*
X570040Y147105D01*
X570136Y147158D01*
X570235Y147209D01*
X570336Y147256D01*
X570438Y147299D01*
X570541Y147339D01*
X570646Y147375D01*
X570752Y147407D01*
X570859Y147436D01*
X570967Y147461D01*
X571076Y147482D01*
X571185Y147499D01*
X571295Y147513D01*
X571406Y147522D01*
X571516Y147528D01*
X571627Y147530D01*
X571738Y147528D01*
X571848Y147522D01*
X571959Y147513D01*
X572069Y147499D01*
X572178Y147482D01*
X572287Y147461D01*
X572395Y147436D01*
X572502Y147407D01*
X572608Y147375D01*
X572713Y147339D01*
X572816Y147299D01*
X572918Y147256D01*
X573019Y147209D01*
X573118Y147158D01*
X573215Y147105D01*
X573309Y147048D01*
X573402Y146987D01*
X573493Y146924D01*
X573582Y146857D01*
X573668Y146787D01*
X573751Y146714D01*
X573833Y146639D01*
X573911Y146561D01*
X573986Y146479D01*
X574059Y146396D01*
X574129Y146310D01*
X574196Y146221D01*
X574259Y146130D01*
X574320Y146037D01*
X574377Y145943D01*
X574430Y145846D01*
X574481Y145747D01*
X574528Y145646D01*
X574571Y145544D01*
X574611Y145441D01*
X574647Y145336D01*
X574679Y145230D01*
X574708Y145123D01*
X574733Y145015D01*
X574754Y144906D01*
X574771Y144797D01*
X574785Y144687D01*
X574794Y144576D01*
X574800Y144466D01*
X574802Y144355D01*
X574802Y141180D01*
X574802Y144990D02*
X579882Y147530D01*
X579882Y152908D02*
X568452Y152908D01*
X579882Y159258D01*
X568452Y159258D01*
X568452Y168212D02*
X568454Y168316D01*
X568460Y168421D01*
X568469Y168525D01*
X568482Y168628D01*
X568500Y168731D01*
X568520Y168833D01*
X568545Y168935D01*
X568573Y169035D01*
X568605Y169135D01*
X568641Y169233D01*
X568680Y169330D01*
X568722Y169425D01*
X568768Y169519D01*
X568818Y169611D01*
X568870Y169701D01*
X568926Y169789D01*
X568986Y169875D01*
X569048Y169959D01*
X569113Y170040D01*
X569181Y170119D01*
X569253Y170196D01*
X569326Y170269D01*
X569403Y170341D01*
X569482Y170409D01*
X569563Y170474D01*
X569647Y170536D01*
X569733Y170596D01*
X569821Y170652D01*
X569911Y170704D01*
X570003Y170754D01*
X570097Y170800D01*
X570192Y170842D01*
X570289Y170881D01*
X570387Y170917D01*
X570487Y170949D01*
X570587Y170977D01*
X570689Y171002D01*
X570791Y171022D01*
X570894Y171040D01*
X570997Y171053D01*
X571101Y171062D01*
X571206Y171068D01*
X571310Y171070D01*
X568452Y168212D02*
X568454Y168094D01*
X568460Y167975D01*
X568469Y167857D01*
X568482Y167740D01*
X568500Y167623D01*
X568520Y167506D01*
X568545Y167390D01*
X568573Y167275D01*
X568606Y167162D01*
X568641Y167049D01*
X568681Y166937D01*
X568723Y166827D01*
X568770Y166718D01*
X568820Y166610D01*
X568873Y166505D01*
X568930Y166401D01*
X568990Y166299D01*
X569053Y166199D01*
X569120Y166101D01*
X569189Y166005D01*
X569262Y165912D01*
X569338Y165821D01*
X569416Y165732D01*
X569498Y165646D01*
X569582Y165563D01*
X569668Y165482D01*
X569758Y165405D01*
X569849Y165330D01*
X569943Y165258D01*
X570040Y165189D01*
X570138Y165124D01*
X570239Y165061D01*
X570342Y165002D01*
X570446Y164946D01*
X570552Y164894D01*
X570660Y164845D01*
X570769Y164800D01*
X570880Y164758D01*
X570992Y164720D01*
X573532Y170117D02*
X573457Y170193D01*
X573378Y170268D01*
X573297Y170339D01*
X573213Y170408D01*
X573127Y170473D01*
X573039Y170535D01*
X572949Y170595D01*
X572857Y170651D01*
X572762Y170704D01*
X572666Y170753D01*
X572568Y170799D01*
X572469Y170842D01*
X572368Y170881D01*
X572266Y170916D01*
X572163Y170948D01*
X572059Y170976D01*
X571954Y171001D01*
X571847Y171022D01*
X571741Y171039D01*
X571634Y171052D01*
X571526Y171061D01*
X571418Y171067D01*
X571310Y171069D01*
X573532Y170117D02*
X579882Y164719D01*
X579882Y171069D01*
X577342Y176149D02*
X568452Y178689D01*
X577342Y176149D02*
X577342Y182499D01*
X574802Y180594D02*
X579882Y180594D01*
X576707Y187579D02*
X576596Y187581D01*
X576486Y187587D01*
X576375Y187596D01*
X576265Y187610D01*
X576156Y187627D01*
X576047Y187648D01*
X575939Y187673D01*
X575832Y187702D01*
X575726Y187734D01*
X575621Y187770D01*
X575518Y187810D01*
X575416Y187853D01*
X575315Y187900D01*
X575216Y187951D01*
X575120Y188004D01*
X575025Y188061D01*
X574932Y188122D01*
X574841Y188185D01*
X574752Y188252D01*
X574666Y188322D01*
X574583Y188395D01*
X574501Y188470D01*
X574423Y188548D01*
X574348Y188630D01*
X574275Y188713D01*
X574205Y188799D01*
X574138Y188888D01*
X574075Y188979D01*
X574014Y189072D01*
X573957Y189167D01*
X573904Y189263D01*
X573853Y189362D01*
X573806Y189463D01*
X573763Y189565D01*
X573723Y189668D01*
X573687Y189773D01*
X573655Y189879D01*
X573626Y189986D01*
X573601Y190094D01*
X573580Y190203D01*
X573563Y190312D01*
X573549Y190422D01*
X573540Y190533D01*
X573534Y190643D01*
X573532Y190754D01*
X573534Y190865D01*
X573540Y190975D01*
X573549Y191086D01*
X573563Y191196D01*
X573580Y191305D01*
X573601Y191414D01*
X573626Y191522D01*
X573655Y191629D01*
X573687Y191735D01*
X573723Y191840D01*
X573763Y191943D01*
X573806Y192045D01*
X573853Y192146D01*
X573904Y192245D01*
X573957Y192342D01*
X574014Y192436D01*
X574075Y192529D01*
X574138Y192620D01*
X574205Y192709D01*
X574275Y192795D01*
X574348Y192878D01*
X574423Y192960D01*
X574501Y193038D01*
X574583Y193113D01*
X574666Y193186D01*
X574752Y193256D01*
X574841Y193323D01*
X574932Y193386D01*
X575025Y193447D01*
X575120Y193504D01*
X575216Y193557D01*
X575315Y193608D01*
X575416Y193655D01*
X575518Y193698D01*
X575621Y193738D01*
X575726Y193774D01*
X575832Y193806D01*
X575939Y193835D01*
X576047Y193860D01*
X576156Y193881D01*
X576265Y193898D01*
X576375Y193912D01*
X576486Y193921D01*
X576596Y193927D01*
X576707Y193929D01*
X576818Y193927D01*
X576928Y193921D01*
X577039Y193912D01*
X577149Y193898D01*
X577258Y193881D01*
X577367Y193860D01*
X577475Y193835D01*
X577582Y193806D01*
X577688Y193774D01*
X577793Y193738D01*
X577896Y193698D01*
X577998Y193655D01*
X578099Y193608D01*
X578198Y193557D01*
X578295Y193504D01*
X578389Y193447D01*
X578482Y193386D01*
X578573Y193323D01*
X578662Y193256D01*
X578748Y193186D01*
X578831Y193113D01*
X578913Y193038D01*
X578991Y192960D01*
X579066Y192878D01*
X579139Y192795D01*
X579209Y192709D01*
X579276Y192620D01*
X579339Y192529D01*
X579400Y192436D01*
X579457Y192341D01*
X579510Y192245D01*
X579561Y192146D01*
X579608Y192045D01*
X579651Y191943D01*
X579691Y191840D01*
X579727Y191735D01*
X579759Y191629D01*
X579788Y191522D01*
X579813Y191414D01*
X579834Y191305D01*
X579851Y191196D01*
X579865Y191086D01*
X579874Y190975D01*
X579880Y190865D01*
X579882Y190754D01*
X579880Y190643D01*
X579874Y190533D01*
X579865Y190422D01*
X579851Y190312D01*
X579834Y190203D01*
X579813Y190094D01*
X579788Y189986D01*
X579759Y189879D01*
X579727Y189773D01*
X579691Y189668D01*
X579651Y189565D01*
X579608Y189463D01*
X579561Y189362D01*
X579510Y189263D01*
X579457Y189166D01*
X579400Y189072D01*
X579339Y188979D01*
X579276Y188888D01*
X579209Y188799D01*
X579139Y188713D01*
X579066Y188630D01*
X578991Y188548D01*
X578913Y188470D01*
X578831Y188395D01*
X578748Y188322D01*
X578662Y188252D01*
X578573Y188185D01*
X578482Y188122D01*
X578389Y188061D01*
X578295Y188004D01*
X578198Y187951D01*
X578099Y187900D01*
X577998Y187853D01*
X577896Y187810D01*
X577793Y187770D01*
X577688Y187734D01*
X577582Y187702D01*
X577475Y187673D01*
X577367Y187648D01*
X577258Y187627D01*
X577149Y187610D01*
X577039Y187596D01*
X576928Y187587D01*
X576818Y187581D01*
X576707Y187579D01*
X570992Y188214D02*
X570892Y188216D01*
X570793Y188222D01*
X570693Y188232D01*
X570595Y188245D01*
X570496Y188263D01*
X570399Y188284D01*
X570303Y188309D01*
X570207Y188338D01*
X570113Y188371D01*
X570020Y188407D01*
X569929Y188447D01*
X569839Y188491D01*
X569751Y188538D01*
X569665Y188588D01*
X569581Y188642D01*
X569499Y188699D01*
X569420Y188759D01*
X569342Y188823D01*
X569268Y188889D01*
X569196Y188958D01*
X569127Y189030D01*
X569061Y189104D01*
X568997Y189182D01*
X568937Y189261D01*
X568880Y189343D01*
X568826Y189427D01*
X568776Y189513D01*
X568729Y189601D01*
X568685Y189691D01*
X568645Y189782D01*
X568609Y189875D01*
X568576Y189969D01*
X568547Y190065D01*
X568522Y190161D01*
X568501Y190258D01*
X568483Y190357D01*
X568470Y190455D01*
X568460Y190555D01*
X568454Y190654D01*
X568452Y190754D01*
X568454Y190854D01*
X568460Y190953D01*
X568470Y191053D01*
X568483Y191151D01*
X568501Y191250D01*
X568522Y191347D01*
X568547Y191443D01*
X568576Y191539D01*
X568609Y191633D01*
X568645Y191726D01*
X568685Y191817D01*
X568729Y191907D01*
X568776Y191995D01*
X568826Y192081D01*
X568880Y192165D01*
X568937Y192247D01*
X568997Y192326D01*
X569061Y192404D01*
X569127Y192478D01*
X569196Y192550D01*
X569268Y192619D01*
X569342Y192685D01*
X569420Y192749D01*
X569499Y192809D01*
X569581Y192866D01*
X569665Y192920D01*
X569751Y192970D01*
X569839Y193017D01*
X569929Y193061D01*
X570020Y193101D01*
X570113Y193137D01*
X570207Y193170D01*
X570303Y193199D01*
X570399Y193224D01*
X570496Y193245D01*
X570595Y193263D01*
X570693Y193276D01*
X570793Y193286D01*
X570892Y193292D01*
X570992Y193294D01*
X571092Y193292D01*
X571191Y193286D01*
X571291Y193276D01*
X571389Y193263D01*
X571488Y193245D01*
X571585Y193224D01*
X571681Y193199D01*
X571777Y193170D01*
X571871Y193137D01*
X571964Y193101D01*
X572055Y193061D01*
X572145Y193017D01*
X572233Y192970D01*
X572319Y192920D01*
X572403Y192866D01*
X572485Y192809D01*
X572564Y192749D01*
X572642Y192685D01*
X572716Y192619D01*
X572788Y192550D01*
X572857Y192478D01*
X572923Y192404D01*
X572987Y192326D01*
X573047Y192247D01*
X573104Y192165D01*
X573158Y192081D01*
X573208Y191995D01*
X573255Y191907D01*
X573299Y191817D01*
X573339Y191726D01*
X573375Y191633D01*
X573408Y191539D01*
X573437Y191443D01*
X573462Y191347D01*
X573483Y191250D01*
X573501Y191151D01*
X573514Y191053D01*
X573524Y190953D01*
X573530Y190854D01*
X573532Y190754D01*
X573530Y190654D01*
X573524Y190555D01*
X573514Y190455D01*
X573501Y190357D01*
X573483Y190258D01*
X573462Y190161D01*
X573437Y190065D01*
X573408Y189969D01*
X573375Y189875D01*
X573339Y189782D01*
X573299Y189691D01*
X573255Y189601D01*
X573208Y189513D01*
X573158Y189427D01*
X573104Y189343D01*
X573047Y189261D01*
X572987Y189182D01*
X572923Y189104D01*
X572857Y189030D01*
X572788Y188958D01*
X572716Y188889D01*
X572642Y188823D01*
X572564Y188759D01*
X572485Y188699D01*
X572403Y188642D01*
X572319Y188588D01*
X572233Y188538D01*
X572145Y188491D01*
X572055Y188447D01*
X571964Y188407D01*
X571871Y188371D01*
X571777Y188338D01*
X571681Y188309D01*
X571585Y188284D01*
X571488Y188263D01*
X571389Y188245D01*
X571291Y188232D01*
X571191Y188222D01*
X571092Y188216D01*
X570992Y188214D01*
X579882Y199009D02*
X579882Y202184D01*
X579880Y202295D01*
X579874Y202405D01*
X579865Y202516D01*
X579851Y202626D01*
X579834Y202735D01*
X579813Y202844D01*
X579788Y202952D01*
X579759Y203059D01*
X579727Y203165D01*
X579691Y203270D01*
X579651Y203373D01*
X579608Y203475D01*
X579561Y203576D01*
X579510Y203675D01*
X579457Y203772D01*
X579400Y203866D01*
X579339Y203959D01*
X579276Y204050D01*
X579209Y204139D01*
X579139Y204225D01*
X579066Y204308D01*
X578991Y204390D01*
X578913Y204468D01*
X578831Y204543D01*
X578748Y204616D01*
X578662Y204686D01*
X578573Y204753D01*
X578482Y204816D01*
X578389Y204877D01*
X578295Y204934D01*
X578198Y204987D01*
X578099Y205038D01*
X577998Y205085D01*
X577896Y205128D01*
X577793Y205168D01*
X577688Y205204D01*
X577582Y205236D01*
X577475Y205265D01*
X577367Y205290D01*
X577258Y205311D01*
X577149Y205328D01*
X577039Y205342D01*
X576928Y205351D01*
X576818Y205357D01*
X576707Y205359D01*
X576596Y205357D01*
X576486Y205351D01*
X576375Y205342D01*
X576265Y205328D01*
X576156Y205311D01*
X576047Y205290D01*
X575939Y205265D01*
X575832Y205236D01*
X575726Y205204D01*
X575621Y205168D01*
X575518Y205128D01*
X575416Y205085D01*
X575315Y205038D01*
X575216Y204987D01*
X575120Y204934D01*
X575025Y204877D01*
X574932Y204816D01*
X574841Y204753D01*
X574752Y204686D01*
X574666Y204616D01*
X574583Y204543D01*
X574501Y204468D01*
X574423Y204390D01*
X574348Y204308D01*
X574275Y204225D01*
X574205Y204139D01*
X574138Y204050D01*
X574075Y203959D01*
X574014Y203866D01*
X573957Y203772D01*
X573904Y203675D01*
X573853Y203576D01*
X573806Y203475D01*
X573763Y203373D01*
X573723Y203270D01*
X573687Y203165D01*
X573655Y203059D01*
X573626Y202952D01*
X573601Y202844D01*
X573580Y202735D01*
X573563Y202626D01*
X573549Y202516D01*
X573540Y202405D01*
X573534Y202295D01*
X573532Y202184D01*
X568452Y202819D02*
X568452Y199009D01*
X568452Y202819D02*
X568454Y202919D01*
X568460Y203018D01*
X568470Y203118D01*
X568483Y203216D01*
X568501Y203315D01*
X568522Y203412D01*
X568547Y203508D01*
X568576Y203604D01*
X568609Y203698D01*
X568645Y203791D01*
X568685Y203882D01*
X568729Y203972D01*
X568776Y204060D01*
X568826Y204146D01*
X568880Y204230D01*
X568937Y204312D01*
X568997Y204391D01*
X569061Y204469D01*
X569127Y204543D01*
X569196Y204615D01*
X569268Y204684D01*
X569342Y204750D01*
X569420Y204814D01*
X569499Y204874D01*
X569581Y204931D01*
X569665Y204985D01*
X569751Y205035D01*
X569839Y205082D01*
X569929Y205126D01*
X570020Y205166D01*
X570113Y205202D01*
X570207Y205235D01*
X570303Y205264D01*
X570399Y205289D01*
X570496Y205310D01*
X570595Y205328D01*
X570693Y205341D01*
X570793Y205351D01*
X570892Y205357D01*
X570992Y205359D01*
X571092Y205357D01*
X571191Y205351D01*
X571291Y205341D01*
X571389Y205328D01*
X571488Y205310D01*
X571585Y205289D01*
X571681Y205264D01*
X571777Y205235D01*
X571871Y205202D01*
X571964Y205166D01*
X572055Y205126D01*
X572145Y205082D01*
X572233Y205035D01*
X572319Y204985D01*
X572403Y204931D01*
X572485Y204874D01*
X572564Y204814D01*
X572642Y204750D01*
X572716Y204684D01*
X572788Y204615D01*
X572857Y204543D01*
X572923Y204469D01*
X572987Y204391D01*
X573047Y204312D01*
X573104Y204230D01*
X573158Y204146D01*
X573208Y204060D01*
X573255Y203972D01*
X573299Y203882D01*
X573339Y203791D01*
X573375Y203698D01*
X573408Y203604D01*
X573437Y203508D01*
X573462Y203412D01*
X573483Y203315D01*
X573501Y203216D01*
X573514Y203118D01*
X573524Y203018D01*
X573530Y202919D01*
X573532Y202819D01*
X573532Y200279D01*
X581152Y209931D02*
X581152Y215011D01*
X571310Y225934D02*
X571206Y225932D01*
X571101Y225926D01*
X570997Y225917D01*
X570894Y225904D01*
X570791Y225886D01*
X570689Y225866D01*
X570587Y225841D01*
X570487Y225813D01*
X570387Y225781D01*
X570289Y225745D01*
X570192Y225706D01*
X570097Y225664D01*
X570003Y225618D01*
X569911Y225568D01*
X569821Y225516D01*
X569733Y225460D01*
X569647Y225400D01*
X569563Y225338D01*
X569482Y225273D01*
X569403Y225205D01*
X569326Y225133D01*
X569253Y225060D01*
X569181Y224983D01*
X569113Y224904D01*
X569048Y224823D01*
X568986Y224739D01*
X568926Y224653D01*
X568870Y224565D01*
X568818Y224475D01*
X568768Y224383D01*
X568722Y224289D01*
X568680Y224194D01*
X568641Y224097D01*
X568605Y223999D01*
X568573Y223899D01*
X568545Y223799D01*
X568520Y223697D01*
X568500Y223595D01*
X568482Y223492D01*
X568469Y223389D01*
X568460Y223285D01*
X568454Y223180D01*
X568452Y223076D01*
X568454Y222958D01*
X568460Y222839D01*
X568469Y222721D01*
X568482Y222604D01*
X568500Y222487D01*
X568520Y222370D01*
X568545Y222254D01*
X568573Y222139D01*
X568606Y222026D01*
X568641Y221913D01*
X568681Y221801D01*
X568723Y221691D01*
X568770Y221582D01*
X568820Y221474D01*
X568873Y221369D01*
X568930Y221265D01*
X568990Y221163D01*
X569053Y221063D01*
X569120Y220965D01*
X569189Y220869D01*
X569262Y220776D01*
X569338Y220685D01*
X569416Y220596D01*
X569498Y220510D01*
X569582Y220427D01*
X569668Y220346D01*
X569758Y220269D01*
X569849Y220194D01*
X569943Y220122D01*
X570040Y220053D01*
X570138Y219988D01*
X570239Y219925D01*
X570342Y219866D01*
X570446Y219810D01*
X570552Y219758D01*
X570660Y219709D01*
X570769Y219664D01*
X570880Y219622D01*
X570992Y219584D01*
X573532Y224981D02*
X573457Y225057D01*
X573378Y225132D01*
X573297Y225203D01*
X573213Y225272D01*
X573127Y225337D01*
X573039Y225399D01*
X572949Y225459D01*
X572857Y225515D01*
X572762Y225568D01*
X572666Y225617D01*
X572568Y225663D01*
X572469Y225706D01*
X572368Y225745D01*
X572266Y225780D01*
X572163Y225812D01*
X572059Y225840D01*
X571954Y225865D01*
X571847Y225886D01*
X571741Y225903D01*
X571634Y225916D01*
X571526Y225925D01*
X571418Y225931D01*
X571310Y225933D01*
X573532Y224981D02*
X579882Y219583D01*
X579882Y225933D01*
D11*
X634238Y350774D02*
X634238Y363474D01*
X640588Y369824D01*
X653288Y369824D02*
X659638Y363474D01*
X640588Y369824D02*
X634238Y376174D01*
X634238Y388874D01*
X640588Y395224D01*
X653288Y395224D02*
X659638Y388874D01*
X659638Y376174D01*
X653288Y369824D01*
X653288Y344424D02*
X640588Y344424D01*
X634238Y350774D01*
X653288Y344424D02*
X659638Y350774D01*
X659638Y363474D01*
X653288Y395224D02*
X640588Y395224D01*
D12*
X632333Y346668D02*
X632333Y345059D01*
X632333Y346668D02*
X632331Y346733D01*
X632325Y346797D01*
X632315Y346861D01*
X632302Y346925D01*
X632284Y346987D01*
X632263Y347048D01*
X632239Y347108D01*
X632210Y347166D01*
X632178Y347223D01*
X632143Y347277D01*
X632105Y347329D01*
X632063Y347379D01*
X632019Y347426D01*
X631972Y347470D01*
X631922Y347512D01*
X631870Y347550D01*
X631816Y347585D01*
X631759Y347617D01*
X631701Y347646D01*
X631641Y347670D01*
X631580Y347691D01*
X631518Y347709D01*
X631454Y347722D01*
X631390Y347732D01*
X631326Y347738D01*
X631261Y347740D01*
X630724Y347740D01*
X630659Y347738D01*
X630595Y347732D01*
X630531Y347722D01*
X630467Y347709D01*
X630405Y347691D01*
X630344Y347670D01*
X630284Y347646D01*
X630226Y347617D01*
X630169Y347585D01*
X630115Y347550D01*
X630063Y347512D01*
X630013Y347470D01*
X629966Y347426D01*
X629922Y347379D01*
X629880Y347329D01*
X629842Y347277D01*
X629807Y347223D01*
X629775Y347166D01*
X629746Y347108D01*
X629722Y347048D01*
X629701Y346987D01*
X629683Y346925D01*
X629670Y346861D01*
X629660Y346797D01*
X629654Y346733D01*
X629652Y346668D01*
X629652Y345059D01*
X627507Y345059D01*
X627507Y347740D01*
X627507Y350277D02*
X632333Y351886D01*
X627507Y353495D01*
X628579Y356032D02*
X627507Y357372D01*
X632333Y357372D01*
X632333Y356032D02*
X632333Y358713D01*
D11*
X1013460Y333883D02*
X1013460Y321183D01*
X1007110Y314833D01*
X994410Y314833D02*
X988060Y321183D01*
X1007110Y314833D02*
X1013460Y308483D01*
X1013460Y295783D01*
X1007110Y289433D01*
X994410Y289433D02*
X988060Y295783D01*
X988060Y308483D01*
X994410Y314833D01*
X994410Y340233D02*
X1007110Y340233D01*
X1013460Y333883D01*
X994410Y340233D02*
X988060Y333883D01*
X988060Y321183D01*
X994410Y289433D02*
X1007110Y289433D01*
D12*
X1020191Y325944D02*
X1020191Y327553D01*
X1020189Y327618D01*
X1020183Y327682D01*
X1020173Y327746D01*
X1020160Y327810D01*
X1020142Y327872D01*
X1020121Y327933D01*
X1020097Y327993D01*
X1020068Y328051D01*
X1020036Y328108D01*
X1020001Y328162D01*
X1019963Y328214D01*
X1019921Y328264D01*
X1019877Y328311D01*
X1019830Y328355D01*
X1019780Y328397D01*
X1019728Y328435D01*
X1019674Y328470D01*
X1019617Y328502D01*
X1019559Y328531D01*
X1019499Y328555D01*
X1019438Y328576D01*
X1019376Y328594D01*
X1019312Y328607D01*
X1019248Y328617D01*
X1019184Y328623D01*
X1019119Y328625D01*
X1018582Y328625D01*
X1018517Y328623D01*
X1018453Y328617D01*
X1018389Y328607D01*
X1018325Y328594D01*
X1018263Y328576D01*
X1018202Y328555D01*
X1018142Y328531D01*
X1018084Y328502D01*
X1018027Y328470D01*
X1017973Y328435D01*
X1017921Y328397D01*
X1017871Y328355D01*
X1017824Y328311D01*
X1017780Y328264D01*
X1017738Y328214D01*
X1017700Y328162D01*
X1017665Y328108D01*
X1017633Y328051D01*
X1017604Y327993D01*
X1017580Y327933D01*
X1017559Y327872D01*
X1017541Y327810D01*
X1017528Y327746D01*
X1017518Y327682D01*
X1017512Y327618D01*
X1017510Y327553D01*
X1017510Y325944D01*
X1015365Y325944D01*
X1015365Y328625D01*
X1015365Y331162D02*
X1020191Y332771D01*
X1015365Y334380D01*
X1015365Y338391D02*
X1015367Y338459D01*
X1015373Y338526D01*
X1015382Y338593D01*
X1015395Y338660D01*
X1015412Y338725D01*
X1015433Y338790D01*
X1015457Y338853D01*
X1015485Y338915D01*
X1015516Y338975D01*
X1015550Y339033D01*
X1015588Y339089D01*
X1015628Y339144D01*
X1015672Y339195D01*
X1015719Y339244D01*
X1015768Y339291D01*
X1015819Y339335D01*
X1015874Y339375D01*
X1015930Y339413D01*
X1015988Y339447D01*
X1016048Y339478D01*
X1016110Y339506D01*
X1016173Y339530D01*
X1016238Y339551D01*
X1016303Y339568D01*
X1016370Y339581D01*
X1016437Y339590D01*
X1016504Y339596D01*
X1016572Y339598D01*
X1015365Y338391D02*
X1015367Y338313D01*
X1015373Y338235D01*
X1015383Y338158D01*
X1015396Y338081D01*
X1015414Y338005D01*
X1015435Y337930D01*
X1015460Y337856D01*
X1015489Y337784D01*
X1015521Y337713D01*
X1015557Y337644D01*
X1015596Y337576D01*
X1015639Y337511D01*
X1015685Y337448D01*
X1015734Y337387D01*
X1015786Y337329D01*
X1015841Y337274D01*
X1015898Y337221D01*
X1015958Y337172D01*
X1016021Y337125D01*
X1016086Y337082D01*
X1016152Y337042D01*
X1016221Y337005D01*
X1016292Y336972D01*
X1016364Y336942D01*
X1016438Y336916D01*
X1017510Y339196D02*
X1017461Y339245D01*
X1017409Y339292D01*
X1017354Y339335D01*
X1017297Y339376D01*
X1017238Y339414D01*
X1017177Y339448D01*
X1017114Y339479D01*
X1017050Y339507D01*
X1016984Y339531D01*
X1016918Y339551D01*
X1016850Y339568D01*
X1016781Y339581D01*
X1016712Y339590D01*
X1016642Y339596D01*
X1016572Y339598D01*
X1017510Y339196D02*
X1020191Y336917D01*
X1020191Y339598D01*
X893445Y688058D02*
X893445Y689130D01*
X893445Y688058D02*
X893443Y687993D01*
X893437Y687929D01*
X893427Y687865D01*
X893414Y687801D01*
X893396Y687739D01*
X893375Y687678D01*
X893351Y687618D01*
X893322Y687560D01*
X893290Y687503D01*
X893255Y687449D01*
X893217Y687397D01*
X893175Y687347D01*
X893131Y687300D01*
X893084Y687256D01*
X893034Y687214D01*
X892982Y687176D01*
X892928Y687141D01*
X892871Y687109D01*
X892813Y687080D01*
X892753Y687056D01*
X892692Y687035D01*
X892630Y687017D01*
X892566Y687004D01*
X892502Y686994D01*
X892438Y686988D01*
X892373Y686986D01*
X892373Y686985D02*
X889691Y686985D01*
X889626Y686987D01*
X889562Y686993D01*
X889498Y687003D01*
X889434Y687016D01*
X889372Y687034D01*
X889311Y687055D01*
X889251Y687080D01*
X889192Y687108D01*
X889136Y687140D01*
X889081Y687175D01*
X889029Y687213D01*
X888979Y687255D01*
X888932Y687299D01*
X888888Y687346D01*
X888846Y687396D01*
X888808Y687448D01*
X888773Y687503D01*
X888741Y687559D01*
X888713Y687618D01*
X888688Y687677D01*
X888667Y687739D01*
X888649Y687801D01*
X888636Y687865D01*
X888626Y687929D01*
X888620Y687993D01*
X888618Y688058D01*
X888619Y688058D02*
X888619Y689130D01*
X891300Y692658D02*
X891300Y694267D01*
X891300Y692658D02*
X891298Y692593D01*
X891292Y692529D01*
X891282Y692465D01*
X891269Y692401D01*
X891251Y692339D01*
X891230Y692278D01*
X891206Y692218D01*
X891177Y692160D01*
X891145Y692103D01*
X891110Y692049D01*
X891072Y691997D01*
X891030Y691947D01*
X890986Y691900D01*
X890939Y691856D01*
X890889Y691814D01*
X890837Y691776D01*
X890783Y691741D01*
X890726Y691709D01*
X890668Y691680D01*
X890608Y691656D01*
X890547Y691635D01*
X890485Y691617D01*
X890421Y691604D01*
X890357Y691594D01*
X890293Y691588D01*
X890228Y691586D01*
X889960Y691586D01*
X889960Y691585D02*
X889889Y691587D01*
X889817Y691593D01*
X889747Y691602D01*
X889677Y691615D01*
X889607Y691632D01*
X889539Y691653D01*
X889472Y691677D01*
X889406Y691705D01*
X889342Y691736D01*
X889279Y691771D01*
X889219Y691809D01*
X889160Y691850D01*
X889104Y691894D01*
X889050Y691941D01*
X888999Y691990D01*
X888951Y692043D01*
X888905Y692098D01*
X888863Y692155D01*
X888823Y692215D01*
X888787Y692276D01*
X888754Y692340D01*
X888725Y692405D01*
X888699Y692471D01*
X888676Y692539D01*
X888657Y692608D01*
X888642Y692678D01*
X888631Y692748D01*
X888623Y692819D01*
X888619Y692890D01*
X888619Y692962D01*
X888623Y693033D01*
X888631Y693104D01*
X888642Y693174D01*
X888657Y693244D01*
X888676Y693313D01*
X888699Y693381D01*
X888725Y693447D01*
X888754Y693512D01*
X888787Y693576D01*
X888823Y693637D01*
X888863Y693697D01*
X888905Y693754D01*
X888951Y693809D01*
X888999Y693862D01*
X889050Y693911D01*
X889104Y693958D01*
X889160Y694002D01*
X889219Y694043D01*
X889279Y694081D01*
X889342Y694116D01*
X889406Y694147D01*
X889472Y694175D01*
X889539Y694199D01*
X889607Y694220D01*
X889677Y694237D01*
X889747Y694250D01*
X889817Y694259D01*
X889889Y694265D01*
X889960Y694267D01*
X891300Y694267D01*
X891391Y694265D01*
X891482Y694259D01*
X891572Y694250D01*
X891663Y694236D01*
X891752Y694219D01*
X891840Y694198D01*
X891928Y694173D01*
X892015Y694144D01*
X892100Y694112D01*
X892184Y694077D01*
X892266Y694037D01*
X892346Y693995D01*
X892425Y693949D01*
X892501Y693899D01*
X892575Y693847D01*
X892648Y693791D01*
X892717Y693732D01*
X892784Y693671D01*
X892849Y693606D01*
X892910Y693539D01*
X892969Y693470D01*
X893025Y693397D01*
X893077Y693323D01*
X893127Y693247D01*
X893173Y693168D01*
X893215Y693088D01*
X893255Y693006D01*
X893290Y692922D01*
X893322Y692837D01*
X893351Y692750D01*
X893376Y692662D01*
X893397Y692574D01*
X893414Y692485D01*
X893428Y692394D01*
X893437Y692304D01*
X893443Y692213D01*
X893445Y692122D01*
X871855Y653824D02*
X871855Y652752D01*
X871853Y652687D01*
X871847Y652623D01*
X871837Y652559D01*
X871824Y652495D01*
X871806Y652433D01*
X871785Y652372D01*
X871761Y652312D01*
X871732Y652254D01*
X871700Y652197D01*
X871665Y652143D01*
X871627Y652091D01*
X871585Y652041D01*
X871541Y651994D01*
X871494Y651950D01*
X871444Y651908D01*
X871392Y651870D01*
X871338Y651835D01*
X871281Y651803D01*
X871223Y651774D01*
X871163Y651750D01*
X871102Y651729D01*
X871040Y651711D01*
X870976Y651698D01*
X870912Y651688D01*
X870848Y651682D01*
X870783Y651680D01*
X870783Y651679D02*
X868101Y651679D01*
X868036Y651681D01*
X867972Y651687D01*
X867908Y651697D01*
X867844Y651710D01*
X867782Y651728D01*
X867721Y651749D01*
X867661Y651774D01*
X867602Y651802D01*
X867546Y651834D01*
X867491Y651869D01*
X867439Y651907D01*
X867389Y651949D01*
X867342Y651993D01*
X867298Y652040D01*
X867256Y652090D01*
X867218Y652142D01*
X867183Y652197D01*
X867151Y652253D01*
X867123Y652312D01*
X867098Y652371D01*
X867077Y652433D01*
X867059Y652495D01*
X867046Y652559D01*
X867036Y652623D01*
X867030Y652687D01*
X867028Y652752D01*
X867029Y652752D02*
X867029Y653824D01*
X870514Y656279D02*
X870443Y656281D01*
X870371Y656287D01*
X870301Y656296D01*
X870231Y656309D01*
X870161Y656326D01*
X870093Y656347D01*
X870026Y656371D01*
X869960Y656399D01*
X869896Y656430D01*
X869833Y656465D01*
X869773Y656503D01*
X869714Y656544D01*
X869658Y656588D01*
X869604Y656635D01*
X869553Y656684D01*
X869505Y656737D01*
X869459Y656792D01*
X869417Y656849D01*
X869377Y656909D01*
X869341Y656970D01*
X869308Y657034D01*
X869279Y657099D01*
X869253Y657165D01*
X869230Y657233D01*
X869211Y657302D01*
X869196Y657372D01*
X869185Y657442D01*
X869177Y657513D01*
X869173Y657584D01*
X869173Y657656D01*
X869177Y657727D01*
X869185Y657798D01*
X869196Y657868D01*
X869211Y657938D01*
X869230Y658007D01*
X869253Y658075D01*
X869279Y658141D01*
X869308Y658206D01*
X869341Y658270D01*
X869377Y658331D01*
X869417Y658391D01*
X869459Y658448D01*
X869505Y658503D01*
X869553Y658556D01*
X869604Y658605D01*
X869658Y658652D01*
X869714Y658696D01*
X869773Y658737D01*
X869833Y658775D01*
X869896Y658810D01*
X869960Y658841D01*
X870026Y658869D01*
X870093Y658893D01*
X870161Y658914D01*
X870231Y658931D01*
X870301Y658944D01*
X870371Y658953D01*
X870443Y658959D01*
X870514Y658961D01*
X870585Y658959D01*
X870657Y658953D01*
X870727Y658944D01*
X870797Y658931D01*
X870867Y658914D01*
X870935Y658893D01*
X871002Y658869D01*
X871068Y658841D01*
X871132Y658810D01*
X871195Y658775D01*
X871255Y658737D01*
X871314Y658696D01*
X871370Y658652D01*
X871424Y658605D01*
X871475Y658556D01*
X871523Y658503D01*
X871569Y658448D01*
X871611Y658391D01*
X871651Y658331D01*
X871687Y658270D01*
X871720Y658206D01*
X871749Y658141D01*
X871775Y658075D01*
X871798Y658007D01*
X871817Y657938D01*
X871832Y657868D01*
X871843Y657798D01*
X871851Y657727D01*
X871855Y657656D01*
X871855Y657584D01*
X871851Y657513D01*
X871843Y657442D01*
X871832Y657372D01*
X871817Y657302D01*
X871798Y657233D01*
X871775Y657165D01*
X871749Y657099D01*
X871720Y657034D01*
X871687Y656970D01*
X871651Y656909D01*
X871611Y656849D01*
X871569Y656792D01*
X871523Y656737D01*
X871475Y656684D01*
X871424Y656635D01*
X871370Y656588D01*
X871314Y656544D01*
X871255Y656503D01*
X871195Y656465D01*
X871132Y656430D01*
X871068Y656399D01*
X871002Y656371D01*
X870935Y656347D01*
X870867Y656326D01*
X870797Y656309D01*
X870727Y656296D01*
X870657Y656287D01*
X870585Y656281D01*
X870514Y656279D01*
X868101Y656548D02*
X868036Y656550D01*
X867972Y656556D01*
X867908Y656566D01*
X867844Y656579D01*
X867782Y656597D01*
X867721Y656618D01*
X867661Y656642D01*
X867603Y656671D01*
X867546Y656703D01*
X867492Y656738D01*
X867440Y656776D01*
X867390Y656818D01*
X867343Y656862D01*
X867299Y656909D01*
X867257Y656959D01*
X867219Y657011D01*
X867184Y657065D01*
X867152Y657122D01*
X867123Y657180D01*
X867099Y657240D01*
X867078Y657301D01*
X867060Y657363D01*
X867047Y657427D01*
X867037Y657491D01*
X867031Y657555D01*
X867029Y657620D01*
X867031Y657685D01*
X867037Y657749D01*
X867047Y657813D01*
X867060Y657877D01*
X867078Y657939D01*
X867099Y658000D01*
X867123Y658060D01*
X867152Y658118D01*
X867184Y658175D01*
X867219Y658229D01*
X867257Y658281D01*
X867299Y658331D01*
X867343Y658378D01*
X867390Y658422D01*
X867440Y658464D01*
X867492Y658502D01*
X867546Y658537D01*
X867603Y658569D01*
X867661Y658598D01*
X867721Y658622D01*
X867782Y658643D01*
X867844Y658661D01*
X867908Y658674D01*
X867972Y658684D01*
X868036Y658690D01*
X868101Y658692D01*
X868166Y658690D01*
X868230Y658684D01*
X868294Y658674D01*
X868358Y658661D01*
X868420Y658643D01*
X868481Y658622D01*
X868541Y658598D01*
X868599Y658569D01*
X868656Y658537D01*
X868710Y658502D01*
X868762Y658464D01*
X868812Y658422D01*
X868859Y658378D01*
X868903Y658331D01*
X868945Y658281D01*
X868983Y658229D01*
X869018Y658175D01*
X869050Y658118D01*
X869079Y658060D01*
X869103Y658000D01*
X869124Y657939D01*
X869142Y657877D01*
X869155Y657813D01*
X869165Y657749D01*
X869171Y657685D01*
X869173Y657620D01*
X869171Y657555D01*
X869165Y657491D01*
X869155Y657427D01*
X869142Y657363D01*
X869124Y657301D01*
X869103Y657240D01*
X869079Y657180D01*
X869050Y657122D01*
X869018Y657065D01*
X868983Y657011D01*
X868945Y656959D01*
X868903Y656909D01*
X868859Y656862D01*
X868812Y656818D01*
X868762Y656776D01*
X868710Y656738D01*
X868656Y656703D01*
X868599Y656671D01*
X868541Y656642D01*
X868481Y656618D01*
X868420Y656597D01*
X868358Y656579D01*
X868294Y656566D01*
X868230Y656556D01*
X868166Y656550D01*
X868101Y656548D01*
X682879Y630710D02*
X682879Y629638D01*
X682877Y629573D01*
X682871Y629509D01*
X682861Y629445D01*
X682848Y629381D01*
X682830Y629319D01*
X682809Y629258D01*
X682785Y629198D01*
X682756Y629140D01*
X682724Y629083D01*
X682689Y629029D01*
X682651Y628977D01*
X682609Y628927D01*
X682565Y628880D01*
X682518Y628836D01*
X682468Y628794D01*
X682416Y628756D01*
X682362Y628721D01*
X682305Y628689D01*
X682247Y628660D01*
X682187Y628636D01*
X682126Y628615D01*
X682064Y628597D01*
X682000Y628584D01*
X681936Y628574D01*
X681872Y628568D01*
X681807Y628566D01*
X681807Y628565D02*
X679125Y628565D01*
X679060Y628567D01*
X678996Y628573D01*
X678932Y628583D01*
X678868Y628596D01*
X678806Y628614D01*
X678745Y628635D01*
X678685Y628660D01*
X678626Y628688D01*
X678570Y628720D01*
X678515Y628755D01*
X678463Y628793D01*
X678413Y628835D01*
X678366Y628879D01*
X678322Y628926D01*
X678280Y628976D01*
X678242Y629028D01*
X678207Y629083D01*
X678175Y629139D01*
X678147Y629198D01*
X678122Y629257D01*
X678101Y629319D01*
X678083Y629381D01*
X678070Y629445D01*
X678060Y629509D01*
X678054Y629573D01*
X678052Y629638D01*
X678053Y629638D02*
X678053Y630710D01*
X682879Y633166D02*
X682879Y634506D01*
X682877Y634577D01*
X682871Y634649D01*
X682862Y634719D01*
X682849Y634789D01*
X682832Y634859D01*
X682811Y634927D01*
X682787Y634994D01*
X682759Y635060D01*
X682728Y635124D01*
X682693Y635187D01*
X682655Y635247D01*
X682614Y635306D01*
X682570Y635362D01*
X682523Y635416D01*
X682474Y635467D01*
X682421Y635515D01*
X682366Y635561D01*
X682309Y635603D01*
X682249Y635643D01*
X682188Y635679D01*
X682124Y635712D01*
X682059Y635741D01*
X681993Y635767D01*
X681925Y635790D01*
X681856Y635809D01*
X681786Y635824D01*
X681716Y635835D01*
X681645Y635843D01*
X681574Y635847D01*
X681502Y635847D01*
X681431Y635843D01*
X681360Y635835D01*
X681290Y635824D01*
X681220Y635809D01*
X681151Y635790D01*
X681083Y635767D01*
X681017Y635741D01*
X680952Y635712D01*
X680888Y635679D01*
X680827Y635643D01*
X680767Y635603D01*
X680710Y635561D01*
X680655Y635515D01*
X680602Y635467D01*
X680553Y635416D01*
X680506Y635362D01*
X680462Y635306D01*
X680421Y635247D01*
X680383Y635187D01*
X680348Y635124D01*
X680317Y635060D01*
X680289Y634994D01*
X680265Y634927D01*
X680244Y634859D01*
X680227Y634789D01*
X680214Y634719D01*
X680205Y634649D01*
X680199Y634577D01*
X680197Y634506D01*
X678053Y634774D02*
X678053Y633166D01*
X678053Y634774D02*
X678055Y634839D01*
X678061Y634903D01*
X678071Y634967D01*
X678084Y635031D01*
X678102Y635093D01*
X678123Y635154D01*
X678147Y635214D01*
X678176Y635272D01*
X678208Y635329D01*
X678243Y635383D01*
X678281Y635435D01*
X678323Y635485D01*
X678367Y635532D01*
X678414Y635576D01*
X678464Y635618D01*
X678516Y635656D01*
X678570Y635691D01*
X678627Y635723D01*
X678685Y635752D01*
X678745Y635776D01*
X678806Y635797D01*
X678868Y635815D01*
X678932Y635828D01*
X678996Y635838D01*
X679060Y635844D01*
X679125Y635846D01*
X679190Y635844D01*
X679254Y635838D01*
X679318Y635828D01*
X679382Y635815D01*
X679444Y635797D01*
X679505Y635776D01*
X679565Y635752D01*
X679623Y635723D01*
X679680Y635691D01*
X679734Y635656D01*
X679786Y635618D01*
X679836Y635576D01*
X679883Y635532D01*
X679927Y635485D01*
X679969Y635435D01*
X680007Y635383D01*
X680042Y635329D01*
X680074Y635272D01*
X680103Y635214D01*
X680127Y635154D01*
X680148Y635093D01*
X680166Y635031D01*
X680179Y634967D01*
X680189Y634903D01*
X680195Y634839D01*
X680197Y634774D01*
X680198Y634774D02*
X680198Y633702D01*
X755269Y632488D02*
X755269Y631416D01*
X755267Y631351D01*
X755261Y631287D01*
X755251Y631223D01*
X755238Y631159D01*
X755220Y631097D01*
X755199Y631036D01*
X755175Y630976D01*
X755146Y630918D01*
X755114Y630861D01*
X755079Y630807D01*
X755041Y630755D01*
X754999Y630705D01*
X754955Y630658D01*
X754908Y630614D01*
X754858Y630572D01*
X754806Y630534D01*
X754752Y630499D01*
X754695Y630467D01*
X754637Y630438D01*
X754577Y630414D01*
X754516Y630393D01*
X754454Y630375D01*
X754390Y630362D01*
X754326Y630352D01*
X754262Y630346D01*
X754197Y630344D01*
X754197Y630343D02*
X751515Y630343D01*
X751450Y630345D01*
X751386Y630351D01*
X751322Y630361D01*
X751258Y630374D01*
X751196Y630392D01*
X751135Y630413D01*
X751075Y630438D01*
X751016Y630466D01*
X750960Y630498D01*
X750905Y630533D01*
X750853Y630571D01*
X750803Y630613D01*
X750756Y630657D01*
X750712Y630704D01*
X750670Y630754D01*
X750632Y630806D01*
X750597Y630861D01*
X750565Y630917D01*
X750537Y630976D01*
X750512Y631035D01*
X750491Y631097D01*
X750473Y631159D01*
X750460Y631223D01*
X750450Y631287D01*
X750444Y631351D01*
X750442Y631416D01*
X750443Y631416D02*
X750443Y632488D01*
X750443Y634944D02*
X750979Y634944D01*
X750443Y634944D02*
X750443Y637625D01*
X755269Y636284D01*
X749935Y506504D02*
X749935Y505432D01*
X749933Y505367D01*
X749927Y505303D01*
X749917Y505239D01*
X749904Y505175D01*
X749886Y505113D01*
X749865Y505052D01*
X749841Y504992D01*
X749812Y504934D01*
X749780Y504877D01*
X749745Y504823D01*
X749707Y504771D01*
X749665Y504721D01*
X749621Y504674D01*
X749574Y504630D01*
X749524Y504588D01*
X749472Y504550D01*
X749418Y504515D01*
X749361Y504483D01*
X749303Y504454D01*
X749243Y504430D01*
X749182Y504409D01*
X749120Y504391D01*
X749056Y504378D01*
X748992Y504368D01*
X748928Y504362D01*
X748863Y504360D01*
X748863Y504359D02*
X746181Y504359D01*
X746116Y504361D01*
X746052Y504367D01*
X745988Y504377D01*
X745924Y504390D01*
X745862Y504408D01*
X745801Y504429D01*
X745741Y504454D01*
X745682Y504482D01*
X745626Y504514D01*
X745571Y504549D01*
X745519Y504587D01*
X745469Y504629D01*
X745422Y504673D01*
X745378Y504720D01*
X745336Y504770D01*
X745298Y504822D01*
X745263Y504877D01*
X745231Y504933D01*
X745203Y504992D01*
X745178Y505051D01*
X745157Y505113D01*
X745139Y505175D01*
X745126Y505239D01*
X745116Y505303D01*
X745110Y505367D01*
X745108Y505432D01*
X745109Y505432D02*
X745109Y506504D01*
X749935Y508960D02*
X749935Y510568D01*
X749933Y510633D01*
X749927Y510697D01*
X749917Y510761D01*
X749904Y510825D01*
X749886Y510887D01*
X749865Y510948D01*
X749841Y511008D01*
X749812Y511066D01*
X749780Y511123D01*
X749745Y511177D01*
X749707Y511229D01*
X749665Y511279D01*
X749621Y511326D01*
X749574Y511370D01*
X749524Y511412D01*
X749472Y511450D01*
X749418Y511485D01*
X749361Y511517D01*
X749303Y511546D01*
X749243Y511570D01*
X749182Y511591D01*
X749120Y511609D01*
X749056Y511622D01*
X748992Y511632D01*
X748928Y511638D01*
X748863Y511640D01*
X748863Y511641D02*
X748326Y511641D01*
X748326Y511640D02*
X748261Y511638D01*
X748197Y511632D01*
X748133Y511622D01*
X748069Y511609D01*
X748007Y511591D01*
X747946Y511570D01*
X747886Y511546D01*
X747828Y511517D01*
X747771Y511485D01*
X747717Y511450D01*
X747665Y511412D01*
X747615Y511370D01*
X747568Y511326D01*
X747524Y511279D01*
X747482Y511229D01*
X747444Y511177D01*
X747409Y511123D01*
X747377Y511066D01*
X747348Y511008D01*
X747324Y510948D01*
X747303Y510887D01*
X747285Y510825D01*
X747272Y510761D01*
X747262Y510697D01*
X747256Y510633D01*
X747254Y510568D01*
X747254Y508960D01*
X745109Y508960D01*
X745109Y511641D01*
X841375Y506504D02*
X841375Y505432D01*
X841373Y505367D01*
X841367Y505303D01*
X841357Y505239D01*
X841344Y505175D01*
X841326Y505113D01*
X841305Y505052D01*
X841281Y504992D01*
X841252Y504934D01*
X841220Y504877D01*
X841185Y504823D01*
X841147Y504771D01*
X841105Y504721D01*
X841061Y504674D01*
X841014Y504630D01*
X840964Y504588D01*
X840912Y504550D01*
X840858Y504515D01*
X840801Y504483D01*
X840743Y504454D01*
X840683Y504430D01*
X840622Y504409D01*
X840560Y504391D01*
X840496Y504378D01*
X840432Y504368D01*
X840368Y504362D01*
X840303Y504360D01*
X840303Y504359D02*
X837621Y504359D01*
X837556Y504361D01*
X837492Y504367D01*
X837428Y504377D01*
X837364Y504390D01*
X837302Y504408D01*
X837241Y504429D01*
X837181Y504454D01*
X837122Y504482D01*
X837066Y504514D01*
X837011Y504549D01*
X836959Y504587D01*
X836909Y504629D01*
X836862Y504673D01*
X836818Y504720D01*
X836776Y504770D01*
X836738Y504822D01*
X836703Y504877D01*
X836671Y504933D01*
X836643Y504992D01*
X836618Y505051D01*
X836597Y505113D01*
X836579Y505175D01*
X836566Y505239D01*
X836556Y505303D01*
X836550Y505367D01*
X836548Y505432D01*
X836549Y505432D02*
X836549Y506504D01*
X838694Y508960D02*
X838694Y510568D01*
X838696Y510633D01*
X838702Y510697D01*
X838712Y510761D01*
X838725Y510825D01*
X838743Y510887D01*
X838764Y510948D01*
X838788Y511008D01*
X838817Y511066D01*
X838849Y511123D01*
X838884Y511177D01*
X838922Y511229D01*
X838964Y511279D01*
X839008Y511326D01*
X839055Y511370D01*
X839105Y511412D01*
X839157Y511450D01*
X839211Y511485D01*
X839268Y511517D01*
X839326Y511546D01*
X839386Y511570D01*
X839447Y511591D01*
X839509Y511609D01*
X839573Y511622D01*
X839637Y511632D01*
X839701Y511638D01*
X839766Y511640D01*
X839766Y511641D02*
X840034Y511641D01*
X840105Y511639D01*
X840177Y511633D01*
X840247Y511624D01*
X840317Y511611D01*
X840387Y511594D01*
X840455Y511573D01*
X840522Y511549D01*
X840588Y511521D01*
X840652Y511490D01*
X840715Y511455D01*
X840775Y511417D01*
X840834Y511376D01*
X840890Y511332D01*
X840944Y511285D01*
X840995Y511236D01*
X841043Y511183D01*
X841089Y511128D01*
X841131Y511071D01*
X841171Y511011D01*
X841207Y510950D01*
X841240Y510886D01*
X841269Y510821D01*
X841295Y510755D01*
X841318Y510687D01*
X841337Y510618D01*
X841352Y510548D01*
X841363Y510478D01*
X841371Y510407D01*
X841375Y510336D01*
X841375Y510264D01*
X841371Y510193D01*
X841363Y510122D01*
X841352Y510052D01*
X841337Y509982D01*
X841318Y509913D01*
X841295Y509845D01*
X841269Y509779D01*
X841240Y509714D01*
X841207Y509650D01*
X841171Y509589D01*
X841131Y509529D01*
X841089Y509472D01*
X841043Y509417D01*
X840995Y509364D01*
X840944Y509315D01*
X840890Y509268D01*
X840834Y509224D01*
X840775Y509183D01*
X840715Y509145D01*
X840652Y509110D01*
X840588Y509079D01*
X840522Y509051D01*
X840455Y509027D01*
X840387Y509006D01*
X840317Y508989D01*
X840247Y508976D01*
X840177Y508967D01*
X840105Y508961D01*
X840034Y508959D01*
X840034Y508960D02*
X838694Y508960D01*
X838603Y508962D01*
X838512Y508968D01*
X838422Y508977D01*
X838331Y508991D01*
X838242Y509008D01*
X838154Y509029D01*
X838066Y509054D01*
X837979Y509083D01*
X837894Y509115D01*
X837810Y509150D01*
X837728Y509190D01*
X837648Y509232D01*
X837569Y509278D01*
X837493Y509328D01*
X837419Y509380D01*
X837346Y509436D01*
X837277Y509495D01*
X837210Y509556D01*
X837145Y509621D01*
X837084Y509688D01*
X837025Y509757D01*
X836969Y509829D01*
X836917Y509904D01*
X836867Y509980D01*
X836821Y510059D01*
X836779Y510139D01*
X836739Y510221D01*
X836704Y510305D01*
X836672Y510390D01*
X836643Y510477D01*
X836618Y510564D01*
X836597Y510653D01*
X836580Y510742D01*
X836566Y510832D01*
X836557Y510923D01*
X836551Y511014D01*
X836549Y511105D01*
X810895Y506504D02*
X810895Y505432D01*
X810893Y505367D01*
X810887Y505303D01*
X810877Y505239D01*
X810864Y505175D01*
X810846Y505113D01*
X810825Y505052D01*
X810801Y504992D01*
X810772Y504934D01*
X810740Y504877D01*
X810705Y504823D01*
X810667Y504771D01*
X810625Y504721D01*
X810581Y504674D01*
X810534Y504630D01*
X810484Y504588D01*
X810432Y504550D01*
X810378Y504515D01*
X810321Y504483D01*
X810263Y504454D01*
X810203Y504430D01*
X810142Y504409D01*
X810080Y504391D01*
X810016Y504378D01*
X809952Y504368D01*
X809888Y504362D01*
X809823Y504360D01*
X809823Y504359D02*
X807141Y504359D01*
X807076Y504361D01*
X807012Y504367D01*
X806948Y504377D01*
X806884Y504390D01*
X806822Y504408D01*
X806761Y504429D01*
X806701Y504454D01*
X806642Y504482D01*
X806586Y504514D01*
X806531Y504549D01*
X806479Y504587D01*
X806429Y504629D01*
X806382Y504673D01*
X806338Y504720D01*
X806296Y504770D01*
X806258Y504822D01*
X806223Y504877D01*
X806191Y504933D01*
X806163Y504992D01*
X806138Y505051D01*
X806117Y505113D01*
X806099Y505175D01*
X806086Y505239D01*
X806076Y505303D01*
X806070Y505367D01*
X806068Y505432D01*
X806069Y505432D02*
X806069Y506504D01*
X807141Y508960D02*
X806069Y510300D01*
X810895Y510300D01*
X810895Y508960D02*
X810895Y511641D01*
X780415Y506504D02*
X780415Y505432D01*
X780413Y505367D01*
X780407Y505303D01*
X780397Y505239D01*
X780384Y505175D01*
X780366Y505113D01*
X780345Y505052D01*
X780321Y504992D01*
X780292Y504934D01*
X780260Y504877D01*
X780225Y504823D01*
X780187Y504771D01*
X780145Y504721D01*
X780101Y504674D01*
X780054Y504630D01*
X780004Y504588D01*
X779952Y504550D01*
X779898Y504515D01*
X779841Y504483D01*
X779783Y504454D01*
X779723Y504430D01*
X779662Y504409D01*
X779600Y504391D01*
X779536Y504378D01*
X779472Y504368D01*
X779408Y504362D01*
X779343Y504360D01*
X779343Y504359D02*
X776661Y504359D01*
X776596Y504361D01*
X776532Y504367D01*
X776468Y504377D01*
X776404Y504390D01*
X776342Y504408D01*
X776281Y504429D01*
X776221Y504454D01*
X776162Y504482D01*
X776106Y504514D01*
X776051Y504549D01*
X775999Y504587D01*
X775949Y504629D01*
X775902Y504673D01*
X775858Y504720D01*
X775816Y504770D01*
X775778Y504822D01*
X775743Y504877D01*
X775711Y504933D01*
X775683Y504992D01*
X775658Y505051D01*
X775637Y505113D01*
X775619Y505175D01*
X775606Y505239D01*
X775596Y505303D01*
X775590Y505367D01*
X775588Y505432D01*
X775589Y505432D02*
X775589Y506504D01*
X775589Y510434D02*
X775591Y510502D01*
X775597Y510569D01*
X775606Y510636D01*
X775619Y510703D01*
X775636Y510768D01*
X775657Y510833D01*
X775681Y510896D01*
X775709Y510958D01*
X775740Y511018D01*
X775774Y511076D01*
X775812Y511132D01*
X775852Y511187D01*
X775896Y511238D01*
X775943Y511287D01*
X775992Y511334D01*
X776043Y511378D01*
X776098Y511418D01*
X776154Y511456D01*
X776212Y511490D01*
X776272Y511521D01*
X776334Y511549D01*
X776397Y511573D01*
X776462Y511594D01*
X776527Y511611D01*
X776594Y511624D01*
X776661Y511633D01*
X776728Y511639D01*
X776796Y511641D01*
X775589Y510434D02*
X775591Y510356D01*
X775597Y510278D01*
X775607Y510201D01*
X775620Y510124D01*
X775638Y510048D01*
X775659Y509973D01*
X775684Y509899D01*
X775713Y509827D01*
X775745Y509756D01*
X775781Y509687D01*
X775820Y509619D01*
X775863Y509554D01*
X775909Y509491D01*
X775958Y509430D01*
X776010Y509372D01*
X776065Y509317D01*
X776122Y509264D01*
X776182Y509215D01*
X776245Y509168D01*
X776310Y509125D01*
X776376Y509085D01*
X776445Y509048D01*
X776516Y509015D01*
X776588Y508985D01*
X776662Y508959D01*
X777734Y511239D02*
X777685Y511288D01*
X777633Y511335D01*
X777578Y511378D01*
X777521Y511419D01*
X777462Y511457D01*
X777401Y511491D01*
X777338Y511522D01*
X777274Y511550D01*
X777208Y511574D01*
X777142Y511594D01*
X777074Y511611D01*
X777005Y511624D01*
X776936Y511633D01*
X776866Y511639D01*
X776796Y511641D01*
X777734Y511239D02*
X780415Y508960D01*
X780415Y511641D01*
X992505Y255028D02*
X997331Y255028D01*
X992505Y255028D02*
X992505Y256369D01*
X992507Y256440D01*
X992513Y256512D01*
X992522Y256582D01*
X992535Y256652D01*
X992552Y256722D01*
X992573Y256790D01*
X992597Y256857D01*
X992625Y256923D01*
X992656Y256987D01*
X992691Y257050D01*
X992729Y257110D01*
X992770Y257169D01*
X992814Y257225D01*
X992861Y257279D01*
X992910Y257330D01*
X992963Y257378D01*
X993018Y257424D01*
X993075Y257466D01*
X993135Y257506D01*
X993196Y257542D01*
X993260Y257575D01*
X993325Y257604D01*
X993391Y257630D01*
X993459Y257653D01*
X993528Y257672D01*
X993598Y257687D01*
X993668Y257698D01*
X993739Y257706D01*
X993810Y257710D01*
X993882Y257710D01*
X993953Y257706D01*
X994024Y257698D01*
X994094Y257687D01*
X994164Y257672D01*
X994233Y257653D01*
X994301Y257630D01*
X994367Y257604D01*
X994432Y257575D01*
X994496Y257542D01*
X994557Y257506D01*
X994617Y257466D01*
X994674Y257424D01*
X994729Y257378D01*
X994782Y257330D01*
X994831Y257279D01*
X994878Y257225D01*
X994922Y257169D01*
X994963Y257110D01*
X995001Y257050D01*
X995036Y256987D01*
X995067Y256923D01*
X995095Y256857D01*
X995119Y256790D01*
X995140Y256722D01*
X995157Y256652D01*
X995170Y256582D01*
X995179Y256512D01*
X995185Y256440D01*
X995187Y256369D01*
X995186Y256369D02*
X995186Y255028D01*
X995186Y256637D02*
X997331Y257709D01*
X993577Y260451D02*
X992505Y261791D01*
X997331Y261791D01*
X997331Y260451D02*
X997331Y263132D01*
X966851Y255028D02*
X962025Y255028D01*
X962025Y256369D01*
X962027Y256440D01*
X962033Y256512D01*
X962042Y256582D01*
X962055Y256652D01*
X962072Y256722D01*
X962093Y256790D01*
X962117Y256857D01*
X962145Y256923D01*
X962176Y256987D01*
X962211Y257050D01*
X962249Y257110D01*
X962290Y257169D01*
X962334Y257225D01*
X962381Y257279D01*
X962430Y257330D01*
X962483Y257378D01*
X962538Y257424D01*
X962595Y257466D01*
X962655Y257506D01*
X962716Y257542D01*
X962780Y257575D01*
X962845Y257604D01*
X962911Y257630D01*
X962979Y257653D01*
X963048Y257672D01*
X963118Y257687D01*
X963188Y257698D01*
X963259Y257706D01*
X963330Y257710D01*
X963402Y257710D01*
X963473Y257706D01*
X963544Y257698D01*
X963614Y257687D01*
X963684Y257672D01*
X963753Y257653D01*
X963821Y257630D01*
X963887Y257604D01*
X963952Y257575D01*
X964016Y257542D01*
X964077Y257506D01*
X964137Y257466D01*
X964194Y257424D01*
X964249Y257378D01*
X964302Y257330D01*
X964351Y257279D01*
X964398Y257225D01*
X964442Y257169D01*
X964483Y257110D01*
X964521Y257050D01*
X964556Y256987D01*
X964587Y256923D01*
X964615Y256857D01*
X964639Y256790D01*
X964660Y256722D01*
X964677Y256652D01*
X964690Y256582D01*
X964699Y256512D01*
X964705Y256440D01*
X964707Y256369D01*
X964706Y256369D02*
X964706Y255028D01*
X964706Y256637D02*
X966851Y257709D01*
X962025Y261925D02*
X962027Y261993D01*
X962033Y262060D01*
X962042Y262127D01*
X962055Y262194D01*
X962072Y262259D01*
X962093Y262324D01*
X962117Y262387D01*
X962145Y262449D01*
X962176Y262509D01*
X962210Y262567D01*
X962248Y262623D01*
X962288Y262678D01*
X962332Y262729D01*
X962379Y262778D01*
X962428Y262825D01*
X962479Y262869D01*
X962534Y262909D01*
X962590Y262947D01*
X962648Y262981D01*
X962708Y263012D01*
X962770Y263040D01*
X962833Y263064D01*
X962898Y263085D01*
X962963Y263102D01*
X963030Y263115D01*
X963097Y263124D01*
X963164Y263130D01*
X963232Y263132D01*
X962025Y261925D02*
X962027Y261847D01*
X962033Y261769D01*
X962043Y261692D01*
X962056Y261615D01*
X962074Y261539D01*
X962095Y261464D01*
X962120Y261390D01*
X962149Y261318D01*
X962181Y261247D01*
X962217Y261178D01*
X962256Y261110D01*
X962299Y261045D01*
X962345Y260982D01*
X962394Y260921D01*
X962446Y260863D01*
X962501Y260808D01*
X962558Y260755D01*
X962618Y260706D01*
X962681Y260659D01*
X962746Y260616D01*
X962812Y260576D01*
X962881Y260539D01*
X962952Y260506D01*
X963024Y260476D01*
X963098Y260450D01*
X964170Y262730D02*
X964121Y262779D01*
X964069Y262826D01*
X964014Y262869D01*
X963957Y262910D01*
X963898Y262948D01*
X963837Y262982D01*
X963774Y263013D01*
X963710Y263041D01*
X963644Y263065D01*
X963578Y263085D01*
X963510Y263102D01*
X963441Y263115D01*
X963372Y263124D01*
X963302Y263130D01*
X963232Y263132D01*
X964170Y262730D02*
X966851Y260451D01*
X966851Y263132D01*
X1003935Y254841D02*
X1003935Y253768D01*
X1003933Y253703D01*
X1003927Y253639D01*
X1003917Y253575D01*
X1003904Y253511D01*
X1003886Y253449D01*
X1003865Y253388D01*
X1003841Y253328D01*
X1003812Y253270D01*
X1003780Y253213D01*
X1003745Y253159D01*
X1003707Y253107D01*
X1003665Y253057D01*
X1003621Y253010D01*
X1003574Y252966D01*
X1003524Y252924D01*
X1003472Y252886D01*
X1003418Y252851D01*
X1003361Y252819D01*
X1003303Y252790D01*
X1003243Y252766D01*
X1003182Y252745D01*
X1003120Y252727D01*
X1003056Y252714D01*
X1002992Y252704D01*
X1002928Y252698D01*
X1002863Y252696D01*
X1000181Y252696D01*
X1000181Y252695D02*
X1000116Y252697D01*
X1000052Y252703D01*
X999988Y252713D01*
X999924Y252726D01*
X999862Y252744D01*
X999801Y252765D01*
X999741Y252790D01*
X999682Y252818D01*
X999626Y252850D01*
X999571Y252885D01*
X999519Y252923D01*
X999469Y252965D01*
X999422Y253009D01*
X999378Y253056D01*
X999336Y253106D01*
X999298Y253158D01*
X999263Y253213D01*
X999231Y253269D01*
X999203Y253328D01*
X999178Y253387D01*
X999157Y253449D01*
X999139Y253511D01*
X999126Y253575D01*
X999116Y253639D01*
X999110Y253703D01*
X999108Y253768D01*
X999109Y253768D02*
X999109Y254841D01*
X1000181Y257297D02*
X999109Y258637D01*
X1003935Y258637D01*
X1003935Y257297D02*
X1003935Y259978D01*
X1000181Y262783D02*
X999109Y264124D01*
X1003935Y264124D01*
X1003935Y265464D02*
X1003935Y262783D01*
D10*
X949706Y557530D02*
X956056Y563880D01*
X949706Y544830D02*
X956056Y538480D01*
X949706Y532130D01*
X949706Y519430D02*
X956056Y513080D01*
X949706Y506730D01*
X949706Y494030D02*
X956056Y487680D01*
X956056Y563880D02*
X994156Y563880D01*
X1000506Y557530D01*
X1000506Y544830D01*
X994156Y538480D01*
X1000506Y532130D01*
X1000506Y519430D01*
X994156Y513080D01*
X1000506Y506730D01*
X1000506Y494030D01*
X994156Y487680D01*
X994156Y538480D02*
X956056Y538480D01*
X956056Y513080D02*
X994156Y513080D01*
X994156Y487680D02*
X956056Y487680D01*
X949706Y494030D02*
X949706Y506730D01*
X949706Y519430D02*
X949706Y532130D01*
X949706Y544830D02*
X949706Y557530D01*
X956056Y487680D02*
X949706Y481330D01*
X949706Y468630D02*
X956056Y462280D01*
X994156Y487680D02*
X1000506Y481330D01*
X1000506Y468630D01*
X994156Y462280D01*
X956056Y462280D01*
X949706Y468630D02*
X949706Y481330D01*
D12*
X1007491Y529769D02*
X1016381Y529769D01*
X1016481Y529767D01*
X1016580Y529761D01*
X1016680Y529751D01*
X1016778Y529738D01*
X1016877Y529720D01*
X1016974Y529699D01*
X1017070Y529674D01*
X1017166Y529645D01*
X1017260Y529612D01*
X1017353Y529576D01*
X1017444Y529536D01*
X1017534Y529492D01*
X1017622Y529445D01*
X1017708Y529395D01*
X1017792Y529341D01*
X1017874Y529284D01*
X1017953Y529224D01*
X1018031Y529160D01*
X1018105Y529094D01*
X1018177Y529025D01*
X1018246Y528953D01*
X1018312Y528879D01*
X1018376Y528801D01*
X1018436Y528722D01*
X1018493Y528640D01*
X1018547Y528556D01*
X1018597Y528470D01*
X1018644Y528382D01*
X1018688Y528292D01*
X1018728Y528201D01*
X1018764Y528108D01*
X1018797Y528014D01*
X1018826Y527918D01*
X1018851Y527822D01*
X1018872Y527725D01*
X1018890Y527626D01*
X1018903Y527528D01*
X1018913Y527428D01*
X1018919Y527329D01*
X1018921Y527229D01*
X1018921Y525959D01*
X1018921Y537591D02*
X1007491Y537591D01*
X1007491Y534416D02*
X1007491Y540766D01*
X1007491Y548259D02*
X1018921Y544449D01*
X1018921Y552069D02*
X1007491Y548259D01*
X1016064Y551117D02*
X1016064Y545402D01*
X1012571Y561340D02*
X1012571Y563245D01*
X1018921Y563245D01*
X1018921Y559435D01*
X1018919Y559335D01*
X1018913Y559236D01*
X1018903Y559136D01*
X1018890Y559038D01*
X1018872Y558939D01*
X1018851Y558842D01*
X1018826Y558746D01*
X1018797Y558650D01*
X1018764Y558556D01*
X1018728Y558463D01*
X1018688Y558372D01*
X1018644Y558282D01*
X1018597Y558194D01*
X1018547Y558108D01*
X1018493Y558024D01*
X1018436Y557942D01*
X1018376Y557863D01*
X1018312Y557785D01*
X1018246Y557711D01*
X1018177Y557639D01*
X1018105Y557570D01*
X1018031Y557504D01*
X1017953Y557440D01*
X1017874Y557380D01*
X1017792Y557323D01*
X1017708Y557269D01*
X1017622Y557219D01*
X1017534Y557172D01*
X1017444Y557128D01*
X1017353Y557088D01*
X1017260Y557052D01*
X1017166Y557019D01*
X1017070Y556990D01*
X1016974Y556965D01*
X1016877Y556944D01*
X1016778Y556926D01*
X1016680Y556913D01*
X1016580Y556903D01*
X1016481Y556897D01*
X1016381Y556895D01*
X1010031Y556895D01*
X1009931Y556897D01*
X1009832Y556903D01*
X1009732Y556913D01*
X1009634Y556926D01*
X1009535Y556944D01*
X1009438Y556965D01*
X1009342Y556990D01*
X1009246Y557019D01*
X1009152Y557052D01*
X1009059Y557088D01*
X1008968Y557128D01*
X1008878Y557172D01*
X1008790Y557219D01*
X1008704Y557269D01*
X1008620Y557323D01*
X1008538Y557380D01*
X1008459Y557440D01*
X1008381Y557504D01*
X1008307Y557570D01*
X1008235Y557639D01*
X1008166Y557711D01*
X1008100Y557785D01*
X1008036Y557863D01*
X1007976Y557942D01*
X1007919Y558024D01*
X1007865Y558108D01*
X1007815Y558194D01*
X1007768Y558282D01*
X1007724Y558372D01*
X1007684Y558463D01*
X1007648Y558556D01*
X1007615Y558650D01*
X1007586Y558746D01*
X1007561Y558842D01*
X1007540Y558939D01*
X1007522Y559038D01*
X1007509Y559136D01*
X1007499Y559236D01*
X1007493Y559335D01*
X1007491Y559435D01*
X1007491Y563245D01*
D11*
X717296Y632992D02*
X717296Y641580D01*
X742696Y641580D02*
X742696Y632992D01*
X732680Y630198D02*
X727312Y630198D01*
D18*
X745998Y647446D03*
D19*
X748865Y638937D02*
X748865Y636185D01*
X748867Y636121D01*
X748873Y636057D01*
X748882Y635994D01*
X748896Y635932D01*
X748913Y635870D01*
X748934Y635810D01*
X748958Y635751D01*
X748986Y635693D01*
X749018Y635638D01*
X749052Y635584D01*
X749090Y635533D01*
X749131Y635483D01*
X749175Y635437D01*
X749221Y635393D01*
X749271Y635352D01*
X749322Y635314D01*
X749376Y635280D01*
X749431Y635248D01*
X749489Y635220D01*
X749548Y635196D01*
X749608Y635175D01*
X749670Y635158D01*
X749732Y635144D01*
X749795Y635135D01*
X749859Y635129D01*
X749923Y635127D01*
X749987Y635129D01*
X750051Y635135D01*
X750114Y635144D01*
X750176Y635158D01*
X750238Y635175D01*
X750298Y635196D01*
X750357Y635220D01*
X750415Y635248D01*
X750470Y635280D01*
X750524Y635314D01*
X750575Y635352D01*
X750625Y635393D01*
X750671Y635437D01*
X750715Y635483D01*
X750756Y635533D01*
X750794Y635584D01*
X750828Y635638D01*
X750860Y635693D01*
X750888Y635751D01*
X750912Y635810D01*
X750933Y635870D01*
X750950Y635932D01*
X750964Y635994D01*
X750973Y636057D01*
X750979Y636121D01*
X750981Y636185D01*
X750982Y636185D02*
X750982Y638937D01*
X753809Y638938D02*
X753869Y638936D01*
X753928Y638930D01*
X753988Y638921D01*
X754046Y638908D01*
X754103Y638891D01*
X754160Y638871D01*
X754215Y638847D01*
X754268Y638820D01*
X754320Y638790D01*
X754369Y638756D01*
X754416Y638719D01*
X754461Y638680D01*
X754504Y638637D01*
X754543Y638592D01*
X754580Y638545D01*
X754614Y638496D01*
X754644Y638444D01*
X754671Y638391D01*
X754695Y638336D01*
X754715Y638279D01*
X754732Y638222D01*
X754745Y638164D01*
X754754Y638104D01*
X754760Y638045D01*
X754762Y637985D01*
X753809Y638937D02*
X753742Y638935D01*
X753675Y638930D01*
X753609Y638921D01*
X753543Y638908D01*
X753479Y638892D01*
X753415Y638872D01*
X753352Y638848D01*
X753290Y638822D01*
X753231Y638792D01*
X753173Y638759D01*
X753116Y638722D01*
X753062Y638683D01*
X753010Y638641D01*
X752961Y638596D01*
X752914Y638548D01*
X752870Y638498D01*
X752828Y638445D01*
X752790Y638390D01*
X752754Y638334D01*
X752722Y638275D01*
X752693Y638215D01*
X752667Y638153D01*
X752645Y638090D01*
X754444Y637244D02*
X754485Y637286D01*
X754524Y637331D01*
X754561Y637377D01*
X754595Y637426D01*
X754626Y637476D01*
X754653Y637528D01*
X754678Y637582D01*
X754700Y637637D01*
X754719Y637693D01*
X754734Y637750D01*
X754746Y637808D01*
X754754Y637867D01*
X754759Y637926D01*
X754761Y637985D01*
X754444Y637244D02*
X752644Y635127D01*
X754761Y635127D01*
D12*
X851408Y372884D02*
X856234Y372884D01*
X851408Y372884D02*
X851408Y374225D01*
X851410Y374296D01*
X851416Y374368D01*
X851425Y374438D01*
X851438Y374508D01*
X851455Y374578D01*
X851476Y374646D01*
X851500Y374713D01*
X851528Y374779D01*
X851559Y374843D01*
X851594Y374906D01*
X851632Y374966D01*
X851673Y375025D01*
X851717Y375081D01*
X851764Y375135D01*
X851813Y375186D01*
X851866Y375234D01*
X851921Y375280D01*
X851978Y375322D01*
X852038Y375362D01*
X852099Y375398D01*
X852163Y375431D01*
X852228Y375460D01*
X852294Y375486D01*
X852362Y375509D01*
X852431Y375528D01*
X852501Y375543D01*
X852571Y375554D01*
X852642Y375562D01*
X852713Y375566D01*
X852785Y375566D01*
X852856Y375562D01*
X852927Y375554D01*
X852997Y375543D01*
X853067Y375528D01*
X853136Y375509D01*
X853204Y375486D01*
X853270Y375460D01*
X853335Y375431D01*
X853399Y375398D01*
X853460Y375362D01*
X853520Y375322D01*
X853577Y375280D01*
X853632Y375234D01*
X853685Y375186D01*
X853734Y375135D01*
X853781Y375081D01*
X853825Y375025D01*
X853866Y374966D01*
X853904Y374906D01*
X853939Y374843D01*
X853970Y374779D01*
X853998Y374713D01*
X854022Y374646D01*
X854043Y374578D01*
X854060Y374508D01*
X854073Y374438D01*
X854082Y374368D01*
X854088Y374296D01*
X854090Y374225D01*
X854089Y374225D02*
X854089Y372884D01*
X854089Y374493D02*
X856234Y375565D01*
X856234Y378307D02*
X856234Y379647D01*
X856232Y379718D01*
X856226Y379790D01*
X856217Y379860D01*
X856204Y379930D01*
X856187Y380000D01*
X856166Y380068D01*
X856142Y380135D01*
X856114Y380201D01*
X856083Y380265D01*
X856048Y380328D01*
X856010Y380388D01*
X855969Y380447D01*
X855925Y380503D01*
X855878Y380557D01*
X855829Y380608D01*
X855776Y380656D01*
X855721Y380702D01*
X855664Y380744D01*
X855604Y380784D01*
X855543Y380820D01*
X855479Y380853D01*
X855414Y380882D01*
X855348Y380908D01*
X855280Y380931D01*
X855211Y380950D01*
X855141Y380965D01*
X855071Y380976D01*
X855000Y380984D01*
X854929Y380988D01*
X854857Y380988D01*
X854786Y380984D01*
X854715Y380976D01*
X854645Y380965D01*
X854575Y380950D01*
X854506Y380931D01*
X854438Y380908D01*
X854372Y380882D01*
X854307Y380853D01*
X854243Y380820D01*
X854182Y380784D01*
X854122Y380744D01*
X854065Y380702D01*
X854010Y380656D01*
X853957Y380608D01*
X853908Y380557D01*
X853861Y380503D01*
X853817Y380447D01*
X853776Y380388D01*
X853738Y380328D01*
X853703Y380265D01*
X853672Y380201D01*
X853644Y380135D01*
X853620Y380068D01*
X853599Y380000D01*
X853582Y379930D01*
X853569Y379860D01*
X853560Y379790D01*
X853554Y379718D01*
X853552Y379647D01*
X851408Y379915D02*
X851408Y378307D01*
X851408Y379915D02*
X851410Y379980D01*
X851416Y380044D01*
X851426Y380108D01*
X851439Y380172D01*
X851457Y380234D01*
X851478Y380295D01*
X851502Y380355D01*
X851531Y380413D01*
X851563Y380470D01*
X851598Y380524D01*
X851636Y380576D01*
X851678Y380626D01*
X851722Y380673D01*
X851769Y380717D01*
X851819Y380759D01*
X851871Y380797D01*
X851925Y380832D01*
X851982Y380864D01*
X852040Y380893D01*
X852100Y380917D01*
X852161Y380938D01*
X852223Y380956D01*
X852287Y380969D01*
X852351Y380979D01*
X852415Y380985D01*
X852480Y380987D01*
X852545Y380985D01*
X852609Y380979D01*
X852673Y380969D01*
X852737Y380956D01*
X852799Y380938D01*
X852860Y380917D01*
X852920Y380893D01*
X852978Y380864D01*
X853035Y380832D01*
X853089Y380797D01*
X853141Y380759D01*
X853191Y380717D01*
X853238Y380673D01*
X853282Y380626D01*
X853324Y380576D01*
X853362Y380524D01*
X853397Y380470D01*
X853429Y380413D01*
X853458Y380355D01*
X853482Y380295D01*
X853503Y380234D01*
X853521Y380172D01*
X853534Y380108D01*
X853544Y380044D01*
X853550Y379980D01*
X853552Y379915D01*
X853553Y379915D02*
X853553Y378843D01*
X674999Y291847D02*
X675067Y291214D01*
X675150Y290584D01*
X675249Y289956D01*
X675362Y289330D01*
X675490Y288708D01*
X675632Y288088D01*
X675790Y287472D01*
X675962Y286860D01*
X676149Y286252D01*
X676350Y285649D01*
X676565Y285051D01*
X676795Y284458D01*
X677038Y283871D01*
X677296Y283290D01*
X677567Y282715D01*
X677852Y282146D01*
X678151Y281585D01*
X678463Y281031D01*
X678788Y280484D01*
X679125Y279946D01*
X679476Y279416D01*
X679839Y278894D01*
X680215Y278381D01*
X680602Y277877D01*
X674999Y291846D02*
X674945Y292495D01*
X674907Y293144D01*
X674885Y293795D01*
X674878Y294446D01*
X674887Y295097D01*
X674913Y295747D01*
X674954Y296397D01*
X675011Y297045D01*
X675084Y297692D01*
X675172Y298337D01*
X675277Y298980D01*
X675397Y299620D01*
X675532Y300256D01*
X675683Y300890D01*
X675850Y301519D01*
X676031Y302144D01*
X676228Y302765D01*
X676440Y303380D01*
X676667Y303990D01*
X676909Y304595D01*
X677166Y305193D01*
X677437Y305785D01*
X677722Y306370D01*
X678022Y306948D01*
X678335Y307518D01*
X678663Y308081D01*
X679004Y308635D01*
X679358Y309181D01*
X679726Y309718D01*
X680107Y310247D01*
X680500Y310765D01*
X680906Y311274D01*
X681324Y311773D01*
X681755Y312261D01*
X682197Y312739D01*
X682651Y313206D01*
X683116Y313661D01*
X683592Y314105D01*
X684078Y314538D01*
X684575Y314958D01*
X685082Y315366D01*
X685599Y315762D01*
X686126Y316145D01*
X686662Y316515D01*
X687206Y316872D01*
X687759Y317215D01*
X688320Y317545D01*
X688890Y317861D01*
X689466Y318163D01*
X690050Y318450D01*
X690641Y318724D01*
X691238Y318983D01*
X691842Y319227D01*
X692451Y319457D01*
X693065Y319671D01*
X693685Y319871D01*
X709411Y319871D02*
X710026Y319672D01*
X710637Y319460D01*
X711242Y319232D01*
X711841Y318990D01*
X712434Y318733D01*
X713021Y318462D01*
X713601Y318177D01*
X714174Y317878D01*
X714740Y317565D01*
X715298Y317238D01*
X715848Y316898D01*
X716389Y316545D01*
X716922Y316179D01*
X717445Y315800D01*
X717960Y315408D01*
X718464Y315005D01*
X718959Y314588D01*
X719444Y314161D01*
X719918Y313721D01*
X720381Y313270D01*
X720833Y312808D01*
X721274Y312335D01*
X721703Y311852D01*
X722120Y311358D01*
X722526Y310855D01*
X722919Y310342D01*
X723299Y309819D01*
X723667Y309287D01*
X724021Y308747D01*
X724363Y308198D01*
X724691Y307641D01*
X725005Y307076D01*
X725306Y306504D01*
X725593Y305925D01*
X725865Y305338D01*
X726124Y304746D01*
X726367Y304147D01*
X726597Y303543D01*
X726811Y302933D01*
X727011Y302318D01*
X727196Y301699D01*
X727366Y301075D01*
X727520Y300447D01*
X727659Y299816D01*
X727783Y299182D01*
X727892Y298544D01*
X727985Y297905D01*
X728062Y297263D01*
X728124Y296620D01*
X728171Y295975D01*
X728201Y295329D01*
X728216Y294683D01*
X728216Y294037D01*
X728199Y293390D01*
X728167Y292745D01*
X728120Y292100D01*
X728057Y291457D01*
X727978Y290815D01*
X727884Y290176D01*
X727774Y289539D01*
X727649Y288904D01*
X727508Y288273D01*
X727352Y287646D01*
X727181Y287023D01*
X726995Y286404D01*
X726794Y285789D01*
X726579Y285180D01*
X726348Y284576D01*
X726103Y283978D01*
X725844Y283386D01*
X725570Y282800D01*
X725282Y282221D01*
X724980Y281650D01*
X724665Y281085D01*
X724336Y280529D01*
X723993Y279981D01*
X723637Y279441D01*
X723269Y278910D01*
X722887Y278388D01*
X722493Y277876D01*
X680603Y277876D01*
X679011Y291846D02*
X674999Y291846D01*
X698685Y291846D02*
X704411Y291846D01*
X724085Y291846D02*
X728097Y291846D01*
X728599Y325120D02*
X728599Y330200D01*
X728601Y330311D01*
X728607Y330421D01*
X728616Y330532D01*
X728630Y330642D01*
X728647Y330751D01*
X728668Y330860D01*
X728693Y330968D01*
X728722Y331075D01*
X728754Y331181D01*
X728790Y331286D01*
X728830Y331389D01*
X728873Y331491D01*
X728920Y331592D01*
X728971Y331691D01*
X729024Y331788D01*
X729081Y331882D01*
X729142Y331975D01*
X729205Y332066D01*
X729272Y332155D01*
X729342Y332241D01*
X729415Y332324D01*
X729490Y332406D01*
X729568Y332484D01*
X729650Y332559D01*
X729733Y332632D01*
X729819Y332702D01*
X729908Y332769D01*
X729999Y332832D01*
X730092Y332893D01*
X730187Y332950D01*
X730283Y333003D01*
X730382Y333054D01*
X730483Y333101D01*
X730585Y333144D01*
X730688Y333184D01*
X730793Y333220D01*
X730899Y333252D01*
X731006Y333281D01*
X731114Y333306D01*
X731223Y333327D01*
X731332Y333344D01*
X731442Y333358D01*
X731553Y333367D01*
X731663Y333373D01*
X731774Y333375D01*
X731885Y333373D01*
X731995Y333367D01*
X732106Y333358D01*
X732216Y333344D01*
X732325Y333327D01*
X732434Y333306D01*
X732542Y333281D01*
X732649Y333252D01*
X732755Y333220D01*
X732860Y333184D01*
X732963Y333144D01*
X733065Y333101D01*
X733166Y333054D01*
X733265Y333003D01*
X733362Y332950D01*
X733456Y332893D01*
X733549Y332832D01*
X733640Y332769D01*
X733729Y332702D01*
X733815Y332632D01*
X733898Y332559D01*
X733980Y332484D01*
X734058Y332406D01*
X734133Y332324D01*
X734206Y332241D01*
X734276Y332155D01*
X734343Y332066D01*
X734406Y331975D01*
X734467Y331882D01*
X734524Y331788D01*
X734577Y331691D01*
X734628Y331592D01*
X734675Y331491D01*
X734718Y331389D01*
X734758Y331286D01*
X734794Y331181D01*
X734826Y331075D01*
X734855Y330968D01*
X734880Y330860D01*
X734901Y330751D01*
X734918Y330642D01*
X734932Y330532D01*
X734941Y330421D01*
X734947Y330311D01*
X734949Y330200D01*
X734949Y325120D01*
X734947Y325009D01*
X734941Y324899D01*
X734932Y324788D01*
X734918Y324678D01*
X734901Y324569D01*
X734880Y324460D01*
X734855Y324352D01*
X734826Y324245D01*
X734794Y324139D01*
X734758Y324034D01*
X734718Y323931D01*
X734675Y323829D01*
X734628Y323728D01*
X734577Y323629D01*
X734524Y323532D01*
X734467Y323438D01*
X734406Y323345D01*
X734343Y323254D01*
X734276Y323165D01*
X734206Y323079D01*
X734133Y322996D01*
X734058Y322914D01*
X733980Y322836D01*
X733898Y322761D01*
X733815Y322688D01*
X733729Y322618D01*
X733640Y322551D01*
X733549Y322488D01*
X733456Y322427D01*
X733362Y322370D01*
X733265Y322317D01*
X733166Y322266D01*
X733065Y322219D01*
X732963Y322176D01*
X732860Y322136D01*
X732755Y322100D01*
X732649Y322068D01*
X732542Y322039D01*
X732434Y322014D01*
X732325Y321993D01*
X732216Y321976D01*
X732106Y321962D01*
X731995Y321953D01*
X731885Y321947D01*
X731774Y321945D01*
X731663Y321947D01*
X731553Y321953D01*
X731442Y321962D01*
X731332Y321976D01*
X731223Y321993D01*
X731114Y322014D01*
X731006Y322039D01*
X730899Y322068D01*
X730793Y322100D01*
X730688Y322136D01*
X730585Y322176D01*
X730483Y322219D01*
X730382Y322266D01*
X730283Y322317D01*
X730187Y322370D01*
X730092Y322427D01*
X729999Y322488D01*
X729908Y322551D01*
X729819Y322618D01*
X729733Y322688D01*
X729650Y322761D01*
X729568Y322836D01*
X729490Y322914D01*
X729415Y322996D01*
X729342Y323079D01*
X729272Y323165D01*
X729205Y323254D01*
X729142Y323345D01*
X729081Y323438D01*
X729024Y323533D01*
X728971Y323629D01*
X728920Y323728D01*
X728873Y323829D01*
X728830Y323931D01*
X728790Y324034D01*
X728754Y324139D01*
X728722Y324245D01*
X728693Y324352D01*
X728668Y324460D01*
X728647Y324569D01*
X728630Y324678D01*
X728616Y324788D01*
X728607Y324899D01*
X728601Y325009D01*
X728599Y325120D01*
X733679Y324485D02*
X736219Y321945D01*
X739660Y330835D02*
X742835Y333375D01*
X742835Y321945D01*
X739660Y321945D02*
X746010Y321945D01*
D11*
X1033272Y321310D02*
X1033272Y334010D01*
X1039622Y340360D01*
X1052322Y340360D02*
X1058672Y334010D01*
X1033272Y295910D02*
X1039622Y289560D01*
X1033272Y295910D02*
X1033272Y308610D01*
X1039622Y314960D01*
X1052322Y314960D02*
X1058672Y308610D01*
X1058672Y295910D01*
X1052322Y289560D01*
X1039622Y314960D02*
X1033272Y321310D01*
X1052322Y314960D02*
X1058672Y321310D01*
X1058672Y334010D01*
X1033272Y257810D02*
X1033272Y245110D01*
X1033272Y257810D02*
X1039622Y264160D01*
X1052322Y264160D02*
X1058672Y257810D01*
X1039622Y264160D02*
X1033272Y270510D01*
X1033272Y283210D01*
X1039622Y289560D01*
X1052322Y289560D02*
X1058672Y283210D01*
X1058672Y270510D01*
X1052322Y264160D01*
X1052322Y238760D02*
X1039622Y238760D01*
X1033272Y245110D01*
X1052322Y238760D02*
X1058672Y245110D01*
X1058672Y257810D01*
X1052322Y340360D02*
X1039622Y340360D01*
D12*
X649732Y299986D02*
X644906Y299986D01*
X644906Y301327D01*
X644908Y301398D01*
X644914Y301470D01*
X644923Y301540D01*
X644936Y301610D01*
X644953Y301680D01*
X644974Y301748D01*
X644998Y301815D01*
X645026Y301881D01*
X645057Y301945D01*
X645092Y302008D01*
X645130Y302068D01*
X645171Y302127D01*
X645215Y302183D01*
X645262Y302237D01*
X645311Y302288D01*
X645364Y302336D01*
X645419Y302382D01*
X645476Y302424D01*
X645536Y302464D01*
X645597Y302500D01*
X645661Y302533D01*
X645726Y302562D01*
X645792Y302588D01*
X645860Y302611D01*
X645929Y302630D01*
X645999Y302645D01*
X646069Y302656D01*
X646140Y302664D01*
X646211Y302668D01*
X646283Y302668D01*
X646354Y302664D01*
X646425Y302656D01*
X646495Y302645D01*
X646565Y302630D01*
X646634Y302611D01*
X646702Y302588D01*
X646768Y302562D01*
X646833Y302533D01*
X646897Y302500D01*
X646958Y302464D01*
X647018Y302424D01*
X647075Y302382D01*
X647130Y302336D01*
X647183Y302288D01*
X647232Y302237D01*
X647279Y302183D01*
X647323Y302127D01*
X647364Y302068D01*
X647402Y302008D01*
X647437Y301945D01*
X647468Y301881D01*
X647496Y301815D01*
X647520Y301748D01*
X647541Y301680D01*
X647558Y301610D01*
X647571Y301540D01*
X647580Y301470D01*
X647586Y301398D01*
X647588Y301327D01*
X647587Y301327D02*
X647587Y299986D01*
X647587Y301595D02*
X649732Y302667D01*
X648660Y305409D02*
X644906Y306481D01*
X648660Y305409D02*
X648660Y308090D01*
X647587Y307286D02*
X649732Y307286D01*
X605740Y700928D02*
X605740Y743928D01*
X605740Y700928D02*
X605740Y686928D01*
X605740Y643928D01*
X567740Y643928D01*
X567740Y672928D01*
X567740Y683928D01*
X567740Y703928D01*
X567740Y714928D01*
X567740Y743928D01*
X605740Y743928D01*
X605740Y700928D02*
X598740Y700928D01*
X598740Y686928D01*
X605740Y686928D01*
X570740Y714928D02*
X567740Y714928D01*
X570740Y714928D02*
X570740Y672928D01*
X567740Y672928D01*
X567740Y703928D02*
X516740Y703928D01*
X516740Y683928D01*
X567740Y683928D01*
D20*
X557146Y733191D02*
X557144Y733290D01*
X557138Y733390D01*
X557129Y733489D01*
X557116Y733587D01*
X557099Y733685D01*
X557078Y733783D01*
X557053Y733879D01*
X557025Y733974D01*
X556993Y734068D01*
X556958Y734161D01*
X556919Y734253D01*
X556876Y734343D01*
X556831Y734431D01*
X556781Y734518D01*
X556729Y734602D01*
X556673Y734685D01*
X556615Y734765D01*
X556553Y734843D01*
X556488Y734918D01*
X556420Y734991D01*
X556350Y735061D01*
X556277Y735129D01*
X556202Y735194D01*
X556124Y735256D01*
X556044Y735314D01*
X555961Y735370D01*
X555877Y735422D01*
X555790Y735472D01*
X555702Y735517D01*
X555612Y735560D01*
X555520Y735599D01*
X555427Y735634D01*
X555333Y735666D01*
X555238Y735694D01*
X555142Y735719D01*
X555044Y735740D01*
X554946Y735757D01*
X554848Y735770D01*
X554749Y735779D01*
X554649Y735785D01*
X554550Y735787D01*
X557146Y733191D02*
X557144Y733047D01*
X557138Y732902D01*
X557129Y732758D01*
X557116Y732615D01*
X557099Y732471D01*
X557078Y732328D01*
X557053Y732186D01*
X557025Y732045D01*
X556993Y731904D01*
X556957Y731764D01*
X556918Y731625D01*
X556875Y731487D01*
X556828Y731351D01*
X556778Y731215D01*
X556724Y731081D01*
X556667Y730949D01*
X556606Y730818D01*
X556542Y730689D01*
X556474Y730561D01*
X556404Y730435D01*
X556329Y730311D01*
X556252Y730190D01*
X556171Y730070D01*
X556088Y729952D01*
X556001Y729837D01*
X555911Y729724D01*
X555818Y729613D01*
X555723Y729505D01*
X555624Y729399D01*
X555523Y729296D01*
X548058Y729621D02*
X547959Y729623D01*
X547859Y729629D01*
X547760Y729638D01*
X547662Y729651D01*
X547564Y729668D01*
X547466Y729689D01*
X547370Y729714D01*
X547275Y729742D01*
X547181Y729774D01*
X547088Y729809D01*
X546996Y729848D01*
X546906Y729891D01*
X546818Y729936D01*
X546731Y729986D01*
X546647Y730038D01*
X546564Y730094D01*
X546484Y730152D01*
X546406Y730214D01*
X546331Y730279D01*
X546258Y730347D01*
X546188Y730417D01*
X546120Y730490D01*
X546055Y730565D01*
X545993Y730643D01*
X545935Y730723D01*
X545879Y730806D01*
X545827Y730890D01*
X545777Y730977D01*
X545732Y731065D01*
X545689Y731155D01*
X545650Y731247D01*
X545615Y731340D01*
X545583Y731434D01*
X545555Y731529D01*
X545530Y731625D01*
X545509Y731723D01*
X545492Y731821D01*
X545479Y731919D01*
X545470Y732018D01*
X545464Y732118D01*
X545462Y732217D01*
X545464Y732353D01*
X545470Y732489D01*
X545479Y732625D01*
X545492Y732761D01*
X545510Y732896D01*
X545530Y733030D01*
X545555Y733164D01*
X545583Y733298D01*
X545616Y733430D01*
X545651Y733561D01*
X545691Y733692D01*
X545734Y733821D01*
X545780Y733949D01*
X545831Y734075D01*
X545884Y734201D01*
X545942Y734324D01*
X546002Y734446D01*
X546066Y734566D01*
X546134Y734685D01*
X546204Y734801D01*
X546278Y734915D01*
X546355Y735028D01*
X546436Y735138D01*
X550330Y730918D02*
X550277Y730832D01*
X550220Y730748D01*
X550161Y730666D01*
X550098Y730586D01*
X550032Y730509D01*
X549964Y730434D01*
X549892Y730362D01*
X549818Y730293D01*
X549741Y730227D01*
X549662Y730164D01*
X549580Y730104D01*
X549496Y730047D01*
X549410Y729993D01*
X549322Y729943D01*
X549232Y729896D01*
X549141Y729852D01*
X549047Y729813D01*
X548953Y729776D01*
X548857Y729744D01*
X548759Y729715D01*
X548661Y729690D01*
X548562Y729669D01*
X548462Y729651D01*
X548362Y729638D01*
X548261Y729628D01*
X548159Y729622D01*
X548058Y729620D01*
X552278Y734489D02*
X552331Y734575D01*
X552388Y734659D01*
X552447Y734741D01*
X552510Y734821D01*
X552576Y734898D01*
X552644Y734973D01*
X552716Y735045D01*
X552790Y735114D01*
X552867Y735180D01*
X552946Y735243D01*
X553028Y735303D01*
X553112Y735360D01*
X553198Y735414D01*
X553286Y735464D01*
X553376Y735511D01*
X553467Y735555D01*
X553561Y735594D01*
X553655Y735631D01*
X553751Y735663D01*
X553849Y735692D01*
X553947Y735717D01*
X554046Y735738D01*
X554146Y735756D01*
X554246Y735769D01*
X554347Y735779D01*
X554449Y735785D01*
X554550Y735787D01*
X552278Y734489D02*
X550330Y730919D01*
X548058Y740345D02*
X545462Y743590D01*
X557146Y743590D01*
X557146Y740345D02*
X557146Y746836D01*
D12*
X714340Y-12848D02*
X789340Y-12848D01*
D21*
X738340Y50402D02*
X738342Y50446D01*
X738348Y50490D01*
X738358Y50533D01*
X738371Y50575D01*
X738388Y50616D01*
X738409Y50655D01*
X738433Y50692D01*
X738460Y50727D01*
X738490Y50759D01*
X738523Y50789D01*
X738559Y50815D01*
X738596Y50839D01*
X738636Y50858D01*
X738677Y50875D01*
X738720Y50887D01*
X738763Y50896D01*
X738807Y50901D01*
X738851Y50902D01*
X738895Y50899D01*
X738939Y50892D01*
X738982Y50881D01*
X739024Y50867D01*
X739064Y50849D01*
X739103Y50827D01*
X739139Y50803D01*
X739173Y50775D01*
X739205Y50744D01*
X739234Y50710D01*
X739260Y50674D01*
X739282Y50636D01*
X739301Y50596D01*
X739316Y50554D01*
X739328Y50512D01*
X739336Y50468D01*
X739340Y50424D01*
X739340Y50380D01*
X739336Y50336D01*
X739328Y50292D01*
X739316Y50250D01*
X739301Y50208D01*
X739282Y50168D01*
X739260Y50130D01*
X739234Y50094D01*
X739205Y50060D01*
X739173Y50029D01*
X739139Y50001D01*
X739103Y49977D01*
X739064Y49955D01*
X739024Y49937D01*
X738982Y49923D01*
X738939Y49912D01*
X738895Y49905D01*
X738851Y49902D01*
X738807Y49903D01*
X738763Y49908D01*
X738720Y49917D01*
X738677Y49929D01*
X738636Y49946D01*
X738596Y49965D01*
X738559Y49989D01*
X738523Y50015D01*
X738490Y50045D01*
X738460Y50077D01*
X738433Y50112D01*
X738409Y50149D01*
X738388Y50188D01*
X738371Y50229D01*
X738358Y50271D01*
X738348Y50314D01*
X738342Y50358D01*
X738340Y50402D01*
D12*
X734840Y43152D02*
X729840Y43152D01*
X768840Y43152D02*
X773840Y43152D01*
X793040Y152D02*
X712440Y152D01*
D20*
X713729Y54511D02*
X713729Y63602D01*
X713729Y54511D02*
X713727Y54412D01*
X713721Y54312D01*
X713712Y54213D01*
X713699Y54115D01*
X713681Y54017D01*
X713661Y53919D01*
X713636Y53823D01*
X713608Y53727D01*
X713576Y53633D01*
X713541Y53540D01*
X713502Y53449D01*
X713459Y53359D01*
X713413Y53270D01*
X713364Y53184D01*
X713312Y53099D01*
X713256Y53017D01*
X713197Y52937D01*
X713136Y52859D01*
X713071Y52783D01*
X713003Y52710D01*
X712933Y52640D01*
X712860Y52572D01*
X712784Y52507D01*
X712706Y52446D01*
X712626Y52387D01*
X712544Y52331D01*
X712459Y52279D01*
X712373Y52229D01*
X712284Y52184D01*
X712194Y52141D01*
X712103Y52102D01*
X712010Y52067D01*
X711916Y52035D01*
X711820Y52007D01*
X711724Y51982D01*
X711626Y51961D01*
X711528Y51944D01*
X711430Y51931D01*
X711331Y51922D01*
X711231Y51916D01*
X711132Y51914D01*
X711132Y51913D02*
X709833Y51913D01*
X719004Y51913D02*
X722251Y51913D01*
X722363Y51915D01*
X722475Y51921D01*
X722587Y51930D01*
X722698Y51944D01*
X722809Y51961D01*
X722919Y51982D01*
X723028Y52007D01*
X723136Y52036D01*
X723244Y52068D01*
X723350Y52105D01*
X723455Y52144D01*
X723558Y52188D01*
X723660Y52235D01*
X723760Y52285D01*
X723858Y52339D01*
X723955Y52396D01*
X724049Y52456D01*
X724141Y52520D01*
X724231Y52587D01*
X724319Y52657D01*
X724404Y52730D01*
X724487Y52805D01*
X724567Y52884D01*
X724644Y52965D01*
X724718Y53049D01*
X724790Y53136D01*
X724858Y53224D01*
X724923Y53315D01*
X724985Y53409D01*
X725044Y53504D01*
X725100Y53602D01*
X725152Y53701D01*
X725200Y53802D01*
X725245Y53904D01*
X725287Y54009D01*
X725325Y54114D01*
X725359Y54221D01*
X725390Y54329D01*
X725417Y54437D01*
X725440Y54547D01*
X725459Y54658D01*
X725474Y54769D01*
X725486Y54880D01*
X725494Y54992D01*
X725498Y55104D01*
X725498Y55216D01*
X725494Y55328D01*
X725486Y55440D01*
X725474Y55551D01*
X725459Y55662D01*
X725440Y55773D01*
X725417Y55883D01*
X725390Y55991D01*
X725359Y56099D01*
X725325Y56206D01*
X725287Y56311D01*
X725245Y56416D01*
X725200Y56518D01*
X725152Y56619D01*
X725100Y56718D01*
X725044Y56816D01*
X724985Y56911D01*
X724923Y57005D01*
X724858Y57096D01*
X724790Y57184D01*
X724718Y57271D01*
X724644Y57355D01*
X724567Y57436D01*
X724487Y57515D01*
X724404Y57590D01*
X724319Y57663D01*
X724231Y57733D01*
X724141Y57800D01*
X724049Y57864D01*
X723955Y57924D01*
X723858Y57981D01*
X723760Y58035D01*
X723660Y58085D01*
X723558Y58132D01*
X723455Y58176D01*
X723350Y58215D01*
X723244Y58252D01*
X723136Y58284D01*
X723028Y58313D01*
X722919Y58338D01*
X722809Y58359D01*
X722698Y58376D01*
X722587Y58390D01*
X722475Y58399D01*
X722363Y58405D01*
X722251Y58407D01*
X722901Y63602D02*
X719004Y63602D01*
X722901Y63601D02*
X723002Y63599D01*
X723102Y63593D01*
X723202Y63583D01*
X723302Y63570D01*
X723401Y63552D01*
X723500Y63531D01*
X723597Y63506D01*
X723694Y63477D01*
X723789Y63444D01*
X723883Y63408D01*
X723976Y63368D01*
X724067Y63325D01*
X724156Y63278D01*
X724243Y63227D01*
X724328Y63174D01*
X724411Y63117D01*
X724492Y63057D01*
X724570Y62993D01*
X724646Y62927D01*
X724719Y62858D01*
X724790Y62786D01*
X724858Y62712D01*
X724922Y62634D01*
X724984Y62555D01*
X725043Y62473D01*
X725098Y62389D01*
X725150Y62302D01*
X725199Y62214D01*
X725244Y62124D01*
X725286Y62033D01*
X725324Y61939D01*
X725358Y61845D01*
X725389Y61749D01*
X725416Y61652D01*
X725439Y61554D01*
X725459Y61455D01*
X725474Y61355D01*
X725486Y61255D01*
X725494Y61155D01*
X725498Y61054D01*
X725498Y60954D01*
X725494Y60853D01*
X725486Y60753D01*
X725474Y60653D01*
X725459Y60553D01*
X725439Y60454D01*
X725416Y60356D01*
X725389Y60259D01*
X725358Y60163D01*
X725324Y60069D01*
X725286Y59975D01*
X725244Y59884D01*
X725199Y59794D01*
X725150Y59705D01*
X725098Y59619D01*
X725043Y59535D01*
X724984Y59453D01*
X724922Y59374D01*
X724858Y59296D01*
X724790Y59222D01*
X724719Y59150D01*
X724646Y59081D01*
X724570Y59015D01*
X724492Y58951D01*
X724411Y58891D01*
X724328Y58834D01*
X724243Y58781D01*
X724156Y58730D01*
X724067Y58683D01*
X723976Y58640D01*
X723883Y58600D01*
X723789Y58564D01*
X723694Y58531D01*
X723597Y58502D01*
X723500Y58477D01*
X723401Y58456D01*
X723302Y58438D01*
X723202Y58425D01*
X723102Y58415D01*
X723002Y58409D01*
X722901Y58407D01*
X720303Y58407D01*
M02*
