G04 EAGLE Gerber RS-274X export*
G75*
%MOMM*%
%FSLAX34Y34*%
%LPD*%
%INSilkscreen Top*%
%IPPOS*%
%AMOC8*
5,1,8,0,0,1.08239X$1,22.5*%
G01*
%ADD10C,0.152400*%
%ADD11C,0.203200*%
%ADD12C,0.127000*%
%ADD13C,0.304800*%
%ADD14C,0.050800*%
%ADD15C,0.170000*%
%ADD16C,0.400000*%
%ADD17C,0.076200*%
%ADD18C,0.200000*%
%ADD19C,0.101600*%
%ADD20C,0.254000*%
%ADD21C,0.025400*%


D10*
X954786Y61976D02*
X938530Y67395D01*
X954786Y72813D01*
X950722Y71459D02*
X950722Y63331D01*
X954786Y78337D02*
X943949Y78337D01*
X939433Y77885D02*
X938530Y77885D01*
X938530Y78788D01*
X939433Y78788D01*
X939433Y77885D01*
X943949Y85230D02*
X954786Y85230D01*
X943949Y85230D02*
X943949Y90648D01*
X945755Y90648D01*
X948464Y96920D02*
X950270Y101436D01*
X948464Y96920D02*
X948427Y96832D01*
X948386Y96746D01*
X948342Y96661D01*
X948294Y96578D01*
X948243Y96498D01*
X948189Y96419D01*
X948131Y96343D01*
X948071Y96269D01*
X948007Y96197D01*
X947941Y96129D01*
X947871Y96063D01*
X947800Y96000D01*
X947725Y95939D01*
X947649Y95882D01*
X947570Y95829D01*
X947489Y95778D01*
X947406Y95731D01*
X947321Y95687D01*
X947234Y95647D01*
X947146Y95610D01*
X947056Y95577D01*
X946965Y95547D01*
X946873Y95522D01*
X946780Y95500D01*
X946686Y95482D01*
X946592Y95467D01*
X946497Y95457D01*
X946401Y95451D01*
X946306Y95448D01*
X946210Y95449D01*
X946115Y95455D01*
X946019Y95464D01*
X945925Y95477D01*
X945831Y95493D01*
X945737Y95514D01*
X945645Y95539D01*
X945554Y95567D01*
X945464Y95599D01*
X945375Y95634D01*
X945288Y95673D01*
X945202Y95716D01*
X945118Y95762D01*
X945037Y95812D01*
X944957Y95864D01*
X944879Y95920D01*
X944804Y95980D01*
X944732Y96042D01*
X944662Y96107D01*
X944594Y96175D01*
X944530Y96245D01*
X944468Y96318D01*
X944410Y96394D01*
X944354Y96472D01*
X944302Y96552D01*
X944253Y96634D01*
X944208Y96718D01*
X944166Y96804D01*
X944127Y96891D01*
X944092Y96980D01*
X944061Y97071D01*
X944034Y97162D01*
X944010Y97255D01*
X943990Y97348D01*
X943974Y97442D01*
X943962Y97537D01*
X943953Y97632D01*
X943949Y97728D01*
X943948Y97823D01*
X943955Y98070D01*
X943967Y98316D01*
X943985Y98562D01*
X944010Y98808D01*
X944040Y99052D01*
X944076Y99296D01*
X944118Y99539D01*
X944165Y99781D01*
X944219Y100022D01*
X944278Y100261D01*
X944343Y100499D01*
X944414Y100736D01*
X944490Y100970D01*
X944572Y101203D01*
X944660Y101433D01*
X944753Y101661D01*
X944851Y101888D01*
X950271Y101436D02*
X950308Y101524D01*
X950349Y101610D01*
X950393Y101695D01*
X950441Y101778D01*
X950492Y101858D01*
X950546Y101937D01*
X950604Y102013D01*
X950664Y102087D01*
X950728Y102159D01*
X950794Y102227D01*
X950864Y102293D01*
X950935Y102356D01*
X951010Y102417D01*
X951086Y102474D01*
X951165Y102527D01*
X951246Y102578D01*
X951329Y102625D01*
X951414Y102669D01*
X951501Y102709D01*
X951589Y102746D01*
X951679Y102779D01*
X951770Y102809D01*
X951862Y102834D01*
X951955Y102856D01*
X952049Y102874D01*
X952143Y102889D01*
X952238Y102899D01*
X952334Y102905D01*
X952429Y102908D01*
X952525Y102907D01*
X952620Y102901D01*
X952716Y102892D01*
X952810Y102879D01*
X952904Y102863D01*
X952998Y102842D01*
X953090Y102817D01*
X953181Y102789D01*
X953271Y102757D01*
X953360Y102722D01*
X953447Y102683D01*
X953533Y102640D01*
X953617Y102594D01*
X953698Y102544D01*
X953778Y102492D01*
X953856Y102436D01*
X953931Y102376D01*
X954003Y102314D01*
X954073Y102249D01*
X954141Y102181D01*
X954205Y102111D01*
X954267Y102038D01*
X954325Y101962D01*
X954381Y101884D01*
X954433Y101804D01*
X954482Y101722D01*
X954527Y101638D01*
X954569Y101552D01*
X954608Y101465D01*
X954643Y101376D01*
X954674Y101285D01*
X954701Y101194D01*
X954725Y101101D01*
X954745Y101008D01*
X954761Y100914D01*
X954773Y100819D01*
X954782Y100724D01*
X954786Y100628D01*
X954787Y100533D01*
X954786Y100533D02*
X954777Y100171D01*
X954759Y99809D01*
X954732Y99448D01*
X954697Y99088D01*
X954654Y98728D01*
X954602Y98369D01*
X954541Y98012D01*
X954472Y97657D01*
X954395Y97303D01*
X954309Y96951D01*
X954215Y96601D01*
X954112Y96253D01*
X954002Y95908D01*
X953883Y95566D01*
X954786Y111822D02*
X954786Y116338D01*
X954786Y111822D02*
X954784Y111721D01*
X954778Y111620D01*
X954769Y111519D01*
X954756Y111418D01*
X954739Y111318D01*
X954718Y111219D01*
X954694Y111121D01*
X954666Y111024D01*
X954634Y110927D01*
X954599Y110832D01*
X954560Y110739D01*
X954518Y110647D01*
X954472Y110556D01*
X954423Y110467D01*
X954371Y110381D01*
X954315Y110296D01*
X954257Y110213D01*
X954195Y110133D01*
X954130Y110055D01*
X954063Y109979D01*
X953993Y109906D01*
X953920Y109836D01*
X953844Y109769D01*
X953766Y109704D01*
X953686Y109642D01*
X953603Y109584D01*
X953518Y109528D01*
X953432Y109476D01*
X953343Y109427D01*
X953252Y109381D01*
X953160Y109339D01*
X953067Y109300D01*
X952972Y109265D01*
X952875Y109233D01*
X952778Y109205D01*
X952680Y109181D01*
X952581Y109160D01*
X952481Y109143D01*
X952380Y109130D01*
X952279Y109121D01*
X952178Y109115D01*
X952077Y109113D01*
X947561Y109113D01*
X947442Y109115D01*
X947322Y109121D01*
X947203Y109131D01*
X947085Y109145D01*
X946966Y109162D01*
X946849Y109184D01*
X946732Y109209D01*
X946617Y109239D01*
X946502Y109272D01*
X946388Y109309D01*
X946276Y109349D01*
X946165Y109394D01*
X946056Y109442D01*
X945948Y109493D01*
X945842Y109548D01*
X945738Y109607D01*
X945636Y109669D01*
X945536Y109734D01*
X945438Y109803D01*
X945342Y109875D01*
X945249Y109950D01*
X945159Y110027D01*
X945071Y110108D01*
X944986Y110192D01*
X944904Y110279D01*
X944824Y110368D01*
X944748Y110460D01*
X944674Y110554D01*
X944604Y110651D01*
X944537Y110749D01*
X944473Y110850D01*
X944413Y110954D01*
X944356Y111059D01*
X944303Y111166D01*
X944253Y111274D01*
X944207Y111384D01*
X944165Y111496D01*
X944126Y111609D01*
X944091Y111723D01*
X944060Y111838D01*
X944032Y111955D01*
X944009Y112072D01*
X943989Y112189D01*
X943973Y112308D01*
X943961Y112427D01*
X943953Y112546D01*
X943949Y112665D01*
X943949Y112785D01*
X943953Y112904D01*
X943961Y113023D01*
X943973Y113142D01*
X943989Y113261D01*
X944009Y113378D01*
X944032Y113495D01*
X944060Y113612D01*
X944091Y113727D01*
X944126Y113841D01*
X944165Y113954D01*
X944207Y114066D01*
X944253Y114176D01*
X944303Y114284D01*
X944356Y114391D01*
X944413Y114496D01*
X944473Y114600D01*
X944537Y114701D01*
X944604Y114799D01*
X944674Y114896D01*
X944748Y114990D01*
X944824Y115082D01*
X944904Y115171D01*
X944986Y115258D01*
X945071Y115342D01*
X945159Y115423D01*
X945249Y115500D01*
X945342Y115575D01*
X945438Y115647D01*
X945536Y115716D01*
X945636Y115781D01*
X945738Y115843D01*
X945842Y115902D01*
X945948Y115957D01*
X946056Y116008D01*
X946165Y116056D01*
X946276Y116101D01*
X946388Y116141D01*
X946502Y116178D01*
X946617Y116211D01*
X946732Y116241D01*
X946849Y116266D01*
X946966Y116288D01*
X947085Y116305D01*
X947203Y116319D01*
X947322Y116329D01*
X947442Y116335D01*
X947561Y116337D01*
X947561Y116338D02*
X949367Y116338D01*
X949367Y109113D01*
X954786Y123181D02*
X943949Y123181D01*
X943949Y127696D01*
X943951Y127800D01*
X943957Y127903D01*
X943967Y128007D01*
X943981Y128110D01*
X943999Y128212D01*
X944020Y128313D01*
X944046Y128414D01*
X944075Y128513D01*
X944108Y128612D01*
X944145Y128709D01*
X944186Y128804D01*
X944230Y128898D01*
X944278Y128990D01*
X944329Y129080D01*
X944384Y129169D01*
X944442Y129255D01*
X944504Y129338D01*
X944568Y129420D01*
X944636Y129498D01*
X944706Y129574D01*
X944779Y129648D01*
X944856Y129718D01*
X944934Y129786D01*
X945016Y129850D01*
X945099Y129912D01*
X945185Y129970D01*
X945274Y130025D01*
X945364Y130076D01*
X945456Y130124D01*
X945550Y130168D01*
X945645Y130209D01*
X945742Y130246D01*
X945841Y130279D01*
X945940Y130308D01*
X946041Y130334D01*
X946142Y130355D01*
X946244Y130373D01*
X946347Y130387D01*
X946451Y130397D01*
X946554Y130403D01*
X946658Y130405D01*
X946658Y130406D02*
X954786Y130406D01*
X948464Y138604D02*
X950270Y143119D01*
X948464Y138603D02*
X948427Y138515D01*
X948386Y138429D01*
X948342Y138344D01*
X948294Y138261D01*
X948243Y138181D01*
X948189Y138102D01*
X948131Y138026D01*
X948071Y137952D01*
X948007Y137880D01*
X947941Y137812D01*
X947871Y137746D01*
X947800Y137683D01*
X947725Y137622D01*
X947649Y137565D01*
X947570Y137512D01*
X947489Y137461D01*
X947406Y137414D01*
X947321Y137370D01*
X947234Y137330D01*
X947146Y137293D01*
X947056Y137260D01*
X946965Y137230D01*
X946873Y137205D01*
X946780Y137183D01*
X946686Y137165D01*
X946592Y137150D01*
X946497Y137140D01*
X946401Y137134D01*
X946306Y137131D01*
X946210Y137132D01*
X946115Y137138D01*
X946019Y137147D01*
X945925Y137160D01*
X945831Y137176D01*
X945737Y137197D01*
X945645Y137222D01*
X945554Y137250D01*
X945464Y137282D01*
X945375Y137317D01*
X945288Y137356D01*
X945202Y137399D01*
X945118Y137445D01*
X945037Y137495D01*
X944957Y137547D01*
X944879Y137603D01*
X944804Y137663D01*
X944732Y137725D01*
X944662Y137790D01*
X944594Y137858D01*
X944530Y137928D01*
X944468Y138001D01*
X944410Y138077D01*
X944354Y138155D01*
X944302Y138235D01*
X944253Y138317D01*
X944208Y138401D01*
X944166Y138487D01*
X944127Y138574D01*
X944092Y138663D01*
X944061Y138754D01*
X944034Y138845D01*
X944010Y138938D01*
X943990Y139031D01*
X943974Y139125D01*
X943962Y139220D01*
X943953Y139315D01*
X943949Y139411D01*
X943948Y139506D01*
X943955Y139753D01*
X943967Y139999D01*
X943985Y140245D01*
X944010Y140491D01*
X944040Y140735D01*
X944076Y140979D01*
X944118Y141222D01*
X944165Y141464D01*
X944219Y141705D01*
X944278Y141944D01*
X944343Y142182D01*
X944414Y142419D01*
X944490Y142653D01*
X944572Y142886D01*
X944660Y143116D01*
X944753Y143344D01*
X944851Y143571D01*
X950271Y143119D02*
X950308Y143207D01*
X950349Y143293D01*
X950393Y143378D01*
X950441Y143461D01*
X950492Y143541D01*
X950546Y143620D01*
X950604Y143696D01*
X950664Y143770D01*
X950728Y143842D01*
X950794Y143910D01*
X950864Y143976D01*
X950935Y144039D01*
X951010Y144100D01*
X951086Y144157D01*
X951165Y144210D01*
X951246Y144261D01*
X951329Y144308D01*
X951414Y144352D01*
X951501Y144392D01*
X951589Y144429D01*
X951679Y144462D01*
X951770Y144492D01*
X951862Y144517D01*
X951955Y144539D01*
X952049Y144557D01*
X952143Y144572D01*
X952238Y144582D01*
X952334Y144588D01*
X952429Y144591D01*
X952525Y144590D01*
X952620Y144584D01*
X952716Y144575D01*
X952810Y144562D01*
X952904Y144546D01*
X952998Y144525D01*
X953090Y144500D01*
X953181Y144472D01*
X953271Y144440D01*
X953360Y144405D01*
X953447Y144366D01*
X953533Y144323D01*
X953617Y144277D01*
X953698Y144227D01*
X953778Y144175D01*
X953856Y144119D01*
X953931Y144059D01*
X954003Y143997D01*
X954073Y143932D01*
X954141Y143864D01*
X954205Y143794D01*
X954267Y143721D01*
X954325Y143645D01*
X954381Y143567D01*
X954433Y143487D01*
X954482Y143405D01*
X954527Y143321D01*
X954569Y143235D01*
X954608Y143148D01*
X954643Y143059D01*
X954674Y142968D01*
X954701Y142877D01*
X954725Y142784D01*
X954745Y142691D01*
X954761Y142597D01*
X954773Y142502D01*
X954782Y142407D01*
X954786Y142311D01*
X954787Y142216D01*
X954786Y142216D02*
X954777Y141854D01*
X954759Y141492D01*
X954732Y141131D01*
X954697Y140771D01*
X954654Y140411D01*
X954602Y140052D01*
X954541Y139695D01*
X954472Y139340D01*
X954395Y138986D01*
X954309Y138634D01*
X954215Y138284D01*
X954112Y137936D01*
X954002Y137591D01*
X953883Y137249D01*
X951174Y150796D02*
X947561Y150796D01*
X947442Y150798D01*
X947322Y150804D01*
X947203Y150814D01*
X947085Y150828D01*
X946966Y150845D01*
X946849Y150867D01*
X946732Y150892D01*
X946617Y150922D01*
X946502Y150955D01*
X946388Y150992D01*
X946276Y151032D01*
X946165Y151077D01*
X946056Y151125D01*
X945948Y151176D01*
X945842Y151231D01*
X945738Y151290D01*
X945636Y151352D01*
X945536Y151417D01*
X945438Y151486D01*
X945342Y151558D01*
X945249Y151633D01*
X945159Y151710D01*
X945071Y151791D01*
X944986Y151875D01*
X944904Y151962D01*
X944824Y152051D01*
X944748Y152143D01*
X944674Y152237D01*
X944604Y152334D01*
X944537Y152432D01*
X944473Y152533D01*
X944413Y152637D01*
X944356Y152742D01*
X944303Y152849D01*
X944253Y152957D01*
X944207Y153067D01*
X944165Y153179D01*
X944126Y153292D01*
X944091Y153406D01*
X944060Y153521D01*
X944032Y153638D01*
X944009Y153755D01*
X943989Y153872D01*
X943973Y153991D01*
X943961Y154110D01*
X943953Y154229D01*
X943949Y154348D01*
X943949Y154468D01*
X943953Y154587D01*
X943961Y154706D01*
X943973Y154825D01*
X943989Y154944D01*
X944009Y155061D01*
X944032Y155178D01*
X944060Y155295D01*
X944091Y155410D01*
X944126Y155524D01*
X944165Y155637D01*
X944207Y155749D01*
X944253Y155859D01*
X944303Y155967D01*
X944356Y156074D01*
X944413Y156179D01*
X944473Y156283D01*
X944537Y156384D01*
X944604Y156482D01*
X944674Y156579D01*
X944748Y156673D01*
X944824Y156765D01*
X944904Y156854D01*
X944986Y156941D01*
X945071Y157025D01*
X945159Y157106D01*
X945249Y157183D01*
X945342Y157258D01*
X945438Y157330D01*
X945536Y157399D01*
X945636Y157464D01*
X945738Y157526D01*
X945842Y157585D01*
X945948Y157640D01*
X946056Y157691D01*
X946165Y157739D01*
X946276Y157784D01*
X946388Y157824D01*
X946502Y157861D01*
X946617Y157894D01*
X946732Y157924D01*
X946849Y157949D01*
X946966Y157971D01*
X947085Y157988D01*
X947203Y158002D01*
X947322Y158012D01*
X947442Y158018D01*
X947561Y158020D01*
X947561Y158021D02*
X951174Y158021D01*
X951174Y158020D02*
X951293Y158018D01*
X951413Y158012D01*
X951532Y158002D01*
X951650Y157988D01*
X951769Y157971D01*
X951886Y157949D01*
X952003Y157924D01*
X952118Y157894D01*
X952233Y157861D01*
X952347Y157824D01*
X952459Y157784D01*
X952570Y157739D01*
X952679Y157691D01*
X952787Y157640D01*
X952893Y157585D01*
X952997Y157526D01*
X953099Y157464D01*
X953199Y157399D01*
X953297Y157330D01*
X953393Y157258D01*
X953486Y157183D01*
X953576Y157106D01*
X953664Y157025D01*
X953749Y156941D01*
X953831Y156854D01*
X953911Y156765D01*
X953987Y156673D01*
X954061Y156579D01*
X954131Y156482D01*
X954198Y156384D01*
X954262Y156283D01*
X954322Y156179D01*
X954379Y156074D01*
X954432Y155967D01*
X954482Y155859D01*
X954528Y155749D01*
X954570Y155637D01*
X954609Y155524D01*
X954644Y155410D01*
X954675Y155295D01*
X954703Y155178D01*
X954726Y155061D01*
X954746Y154944D01*
X954762Y154825D01*
X954774Y154706D01*
X954782Y154587D01*
X954786Y154468D01*
X954786Y154348D01*
X954782Y154229D01*
X954774Y154110D01*
X954762Y153991D01*
X954746Y153872D01*
X954726Y153755D01*
X954703Y153638D01*
X954675Y153521D01*
X954644Y153406D01*
X954609Y153292D01*
X954570Y153179D01*
X954528Y153067D01*
X954482Y152957D01*
X954432Y152849D01*
X954379Y152742D01*
X954322Y152637D01*
X954262Y152533D01*
X954198Y152432D01*
X954131Y152334D01*
X954061Y152237D01*
X953987Y152143D01*
X953911Y152051D01*
X953831Y151962D01*
X953749Y151875D01*
X953664Y151791D01*
X953576Y151710D01*
X953486Y151633D01*
X953393Y151558D01*
X953297Y151486D01*
X953199Y151417D01*
X953099Y151352D01*
X952997Y151290D01*
X952893Y151231D01*
X952787Y151176D01*
X952679Y151125D01*
X952570Y151077D01*
X952459Y151032D01*
X952347Y150992D01*
X952233Y150955D01*
X952118Y150922D01*
X952003Y150892D01*
X951886Y150867D01*
X951769Y150845D01*
X951650Y150828D01*
X951532Y150814D01*
X951413Y150804D01*
X951293Y150798D01*
X951174Y150796D01*
X954786Y164949D02*
X943949Y164949D01*
X943949Y170368D01*
X945755Y170368D01*
X965200Y68157D02*
X981456Y62738D01*
X981456Y73575D02*
X965200Y68157D01*
X977392Y72221D02*
X977392Y64093D01*
X976940Y80109D02*
X969716Y80109D01*
X969716Y80108D02*
X969583Y80110D01*
X969451Y80116D01*
X969319Y80126D01*
X969187Y80139D01*
X969055Y80157D01*
X968925Y80178D01*
X968794Y80203D01*
X968665Y80232D01*
X968537Y80265D01*
X968409Y80301D01*
X968283Y80341D01*
X968158Y80385D01*
X968034Y80433D01*
X967912Y80484D01*
X967791Y80539D01*
X967672Y80597D01*
X967554Y80659D01*
X967439Y80724D01*
X967325Y80793D01*
X967214Y80864D01*
X967105Y80940D01*
X966998Y81018D01*
X966893Y81099D01*
X966791Y81184D01*
X966691Y81271D01*
X966594Y81361D01*
X966499Y81454D01*
X966408Y81550D01*
X966319Y81648D01*
X966233Y81749D01*
X966150Y81853D01*
X966070Y81959D01*
X965994Y82067D01*
X965920Y82177D01*
X965850Y82290D01*
X965783Y82404D01*
X965720Y82521D01*
X965660Y82639D01*
X965603Y82759D01*
X965550Y82881D01*
X965501Y83004D01*
X965455Y83128D01*
X965413Y83254D01*
X965375Y83381D01*
X965340Y83509D01*
X965309Y83638D01*
X965282Y83767D01*
X965259Y83898D01*
X965239Y84029D01*
X965224Y84161D01*
X965212Y84293D01*
X965204Y84425D01*
X965200Y84558D01*
X965200Y84690D01*
X965204Y84823D01*
X965212Y84955D01*
X965224Y85087D01*
X965239Y85219D01*
X965259Y85350D01*
X965282Y85481D01*
X965309Y85610D01*
X965340Y85739D01*
X965375Y85867D01*
X965413Y85994D01*
X965455Y86120D01*
X965501Y86244D01*
X965550Y86367D01*
X965603Y86489D01*
X965660Y86609D01*
X965720Y86727D01*
X965783Y86844D01*
X965850Y86958D01*
X965920Y87071D01*
X965994Y87181D01*
X966070Y87289D01*
X966150Y87395D01*
X966233Y87499D01*
X966319Y87600D01*
X966408Y87698D01*
X966499Y87794D01*
X966594Y87887D01*
X966691Y87977D01*
X966791Y88064D01*
X966893Y88149D01*
X966998Y88230D01*
X967105Y88308D01*
X967214Y88384D01*
X967325Y88455D01*
X967439Y88524D01*
X967554Y88589D01*
X967672Y88651D01*
X967791Y88709D01*
X967912Y88764D01*
X968034Y88815D01*
X968158Y88863D01*
X968283Y88907D01*
X968409Y88947D01*
X968537Y88983D01*
X968665Y89016D01*
X968794Y89045D01*
X968925Y89070D01*
X969055Y89091D01*
X969187Y89109D01*
X969319Y89122D01*
X969451Y89132D01*
X969583Y89138D01*
X969716Y89140D01*
X976940Y89140D01*
X977073Y89138D01*
X977205Y89132D01*
X977337Y89122D01*
X977469Y89109D01*
X977601Y89091D01*
X977731Y89070D01*
X977862Y89045D01*
X977991Y89016D01*
X978119Y88983D01*
X978247Y88947D01*
X978373Y88907D01*
X978498Y88863D01*
X978622Y88815D01*
X978744Y88764D01*
X978865Y88709D01*
X978984Y88651D01*
X979102Y88589D01*
X979217Y88524D01*
X979331Y88455D01*
X979442Y88384D01*
X979551Y88308D01*
X979658Y88230D01*
X979763Y88149D01*
X979865Y88064D01*
X979965Y87977D01*
X980062Y87887D01*
X980157Y87794D01*
X980248Y87698D01*
X980337Y87600D01*
X980423Y87499D01*
X980506Y87395D01*
X980586Y87289D01*
X980662Y87181D01*
X980736Y87071D01*
X980806Y86958D01*
X980873Y86844D01*
X980936Y86727D01*
X980996Y86609D01*
X981053Y86489D01*
X981106Y86367D01*
X981155Y86244D01*
X981201Y86120D01*
X981243Y85994D01*
X981281Y85867D01*
X981316Y85739D01*
X981347Y85610D01*
X981374Y85481D01*
X981397Y85350D01*
X981417Y85219D01*
X981432Y85087D01*
X981444Y84955D01*
X981452Y84823D01*
X981456Y84690D01*
X981456Y84558D01*
X981452Y84425D01*
X981444Y84293D01*
X981432Y84161D01*
X981417Y84029D01*
X981397Y83898D01*
X981374Y83767D01*
X981347Y83638D01*
X981316Y83509D01*
X981281Y83381D01*
X981243Y83254D01*
X981201Y83128D01*
X981155Y83004D01*
X981106Y82881D01*
X981053Y82759D01*
X980996Y82639D01*
X980936Y82521D01*
X980873Y82404D01*
X980806Y82290D01*
X980736Y82177D01*
X980662Y82067D01*
X980586Y81959D01*
X980506Y81853D01*
X980423Y81749D01*
X980337Y81648D01*
X980248Y81550D01*
X980157Y81454D01*
X980062Y81361D01*
X979965Y81271D01*
X979865Y81184D01*
X979763Y81099D01*
X979658Y81018D01*
X979551Y80940D01*
X979442Y80864D01*
X979331Y80793D01*
X979217Y80724D01*
X979102Y80659D01*
X978984Y80597D01*
X978865Y80539D01*
X978744Y80484D01*
X978622Y80433D01*
X978498Y80385D01*
X978373Y80341D01*
X978247Y80301D01*
X978119Y80265D01*
X977991Y80232D01*
X977862Y80203D01*
X977731Y80178D01*
X977601Y80157D01*
X977469Y80139D01*
X977337Y80126D01*
X977205Y80116D01*
X977073Y80110D01*
X976940Y80108D01*
X977844Y87334D02*
X981456Y90946D01*
X981456Y100322D02*
X981454Y100440D01*
X981448Y100558D01*
X981439Y100676D01*
X981425Y100793D01*
X981408Y100910D01*
X981387Y101027D01*
X981362Y101142D01*
X981333Y101257D01*
X981300Y101371D01*
X981264Y101483D01*
X981224Y101594D01*
X981181Y101704D01*
X981134Y101813D01*
X981084Y101920D01*
X981029Y102025D01*
X980972Y102128D01*
X980911Y102229D01*
X980847Y102329D01*
X980780Y102426D01*
X980710Y102521D01*
X980636Y102613D01*
X980560Y102704D01*
X980480Y102791D01*
X980398Y102876D01*
X980313Y102958D01*
X980226Y103038D01*
X980135Y103114D01*
X980043Y103188D01*
X979948Y103258D01*
X979851Y103325D01*
X979751Y103389D01*
X979650Y103450D01*
X979547Y103507D01*
X979442Y103562D01*
X979335Y103612D01*
X979226Y103659D01*
X979116Y103702D01*
X979005Y103742D01*
X978893Y103778D01*
X978779Y103811D01*
X978664Y103840D01*
X978549Y103865D01*
X978432Y103886D01*
X978315Y103903D01*
X978198Y103917D01*
X978080Y103926D01*
X977962Y103932D01*
X977844Y103934D01*
X981456Y100322D02*
X981454Y100139D01*
X981447Y99957D01*
X981436Y99775D01*
X981421Y99593D01*
X981401Y99411D01*
X981378Y99230D01*
X981349Y99050D01*
X981317Y98870D01*
X981280Y98691D01*
X981239Y98514D01*
X981193Y98337D01*
X981144Y98161D01*
X981090Y97987D01*
X981032Y97813D01*
X980970Y97642D01*
X980904Y97472D01*
X980833Y97303D01*
X980759Y97136D01*
X980681Y96971D01*
X980599Y96808D01*
X980513Y96647D01*
X980423Y96488D01*
X980329Y96331D01*
X980232Y96177D01*
X980131Y96025D01*
X980026Y95875D01*
X979918Y95728D01*
X979807Y95584D01*
X979692Y95442D01*
X979573Y95303D01*
X979451Y95167D01*
X979326Y95034D01*
X979198Y94904D01*
X968812Y95356D02*
X968694Y95358D01*
X968576Y95364D01*
X968458Y95373D01*
X968341Y95387D01*
X968224Y95404D01*
X968107Y95425D01*
X967992Y95450D01*
X967877Y95479D01*
X967763Y95512D01*
X967651Y95548D01*
X967540Y95588D01*
X967430Y95631D01*
X967321Y95678D01*
X967214Y95728D01*
X967109Y95783D01*
X967006Y95840D01*
X966905Y95901D01*
X966805Y95965D01*
X966708Y96032D01*
X966613Y96102D01*
X966521Y96176D01*
X966430Y96252D01*
X966343Y96332D01*
X966258Y96414D01*
X966176Y96499D01*
X966096Y96586D01*
X966020Y96677D01*
X965946Y96769D01*
X965876Y96864D01*
X965809Y96961D01*
X965745Y97061D01*
X965684Y97162D01*
X965627Y97265D01*
X965572Y97370D01*
X965522Y97477D01*
X965475Y97586D01*
X965432Y97696D01*
X965392Y97807D01*
X965356Y97919D01*
X965323Y98033D01*
X965294Y98148D01*
X965269Y98263D01*
X965248Y98380D01*
X965231Y98497D01*
X965217Y98614D01*
X965208Y98732D01*
X965202Y98850D01*
X965200Y98968D01*
X965202Y99129D01*
X965208Y99291D01*
X965217Y99452D01*
X965231Y99613D01*
X965248Y99773D01*
X965269Y99933D01*
X965294Y100093D01*
X965323Y100252D01*
X965355Y100410D01*
X965391Y100567D01*
X965431Y100723D01*
X965475Y100879D01*
X965523Y101033D01*
X965574Y101186D01*
X965628Y101338D01*
X965687Y101489D01*
X965748Y101638D01*
X965814Y101785D01*
X965883Y101931D01*
X965955Y102076D01*
X966031Y102218D01*
X966110Y102359D01*
X966192Y102498D01*
X966278Y102634D01*
X966367Y102769D01*
X966459Y102902D01*
X966555Y103032D01*
X971973Y97161D02*
X971911Y97060D01*
X971846Y96960D01*
X971777Y96863D01*
X971705Y96768D01*
X971631Y96675D01*
X971553Y96585D01*
X971472Y96497D01*
X971389Y96412D01*
X971303Y96330D01*
X971214Y96251D01*
X971123Y96174D01*
X971029Y96101D01*
X970933Y96030D01*
X970835Y95963D01*
X970735Y95899D01*
X970632Y95838D01*
X970528Y95781D01*
X970422Y95727D01*
X970314Y95677D01*
X970205Y95630D01*
X970094Y95586D01*
X969982Y95546D01*
X969868Y95510D01*
X969754Y95478D01*
X969638Y95449D01*
X969522Y95424D01*
X969405Y95403D01*
X969287Y95386D01*
X969169Y95372D01*
X969050Y95363D01*
X968931Y95357D01*
X968812Y95355D01*
X974683Y102129D02*
X974745Y102230D01*
X974810Y102330D01*
X974879Y102427D01*
X974951Y102522D01*
X975025Y102615D01*
X975103Y102705D01*
X975184Y102793D01*
X975267Y102878D01*
X975353Y102960D01*
X975442Y103039D01*
X975533Y103116D01*
X975627Y103189D01*
X975723Y103260D01*
X975821Y103327D01*
X975921Y103391D01*
X976024Y103452D01*
X976128Y103509D01*
X976234Y103563D01*
X976342Y103613D01*
X976451Y103660D01*
X976562Y103704D01*
X976674Y103744D01*
X976788Y103780D01*
X976902Y103812D01*
X977018Y103841D01*
X977134Y103866D01*
X977251Y103887D01*
X977369Y103904D01*
X977487Y103918D01*
X977606Y103927D01*
X977725Y103933D01*
X977844Y103935D01*
X974683Y102128D02*
X971973Y97161D01*
X965200Y114981D02*
X965202Y115106D01*
X965208Y115231D01*
X965217Y115356D01*
X965231Y115480D01*
X965248Y115604D01*
X965269Y115728D01*
X965294Y115850D01*
X965323Y115972D01*
X965355Y116093D01*
X965391Y116213D01*
X965431Y116332D01*
X965474Y116449D01*
X965521Y116565D01*
X965572Y116680D01*
X965626Y116792D01*
X965684Y116904D01*
X965744Y117013D01*
X965809Y117120D01*
X965876Y117226D01*
X965947Y117329D01*
X966021Y117430D01*
X966098Y117529D01*
X966178Y117625D01*
X966261Y117719D01*
X966346Y117810D01*
X966435Y117899D01*
X966526Y117984D01*
X966620Y118067D01*
X966716Y118147D01*
X966815Y118224D01*
X966916Y118298D01*
X967019Y118369D01*
X967125Y118436D01*
X967232Y118501D01*
X967341Y118561D01*
X967453Y118619D01*
X967565Y118673D01*
X967680Y118724D01*
X967796Y118771D01*
X967913Y118814D01*
X968032Y118854D01*
X968152Y118890D01*
X968273Y118922D01*
X968395Y118951D01*
X968517Y118976D01*
X968641Y118997D01*
X968765Y119014D01*
X968889Y119028D01*
X969014Y119037D01*
X969139Y119043D01*
X969264Y119045D01*
X965200Y114981D02*
X965202Y114838D01*
X965208Y114696D01*
X965218Y114553D01*
X965231Y114411D01*
X965249Y114270D01*
X965270Y114128D01*
X965295Y113988D01*
X965324Y113848D01*
X965357Y113709D01*
X965394Y113571D01*
X965434Y113434D01*
X965478Y113299D01*
X965526Y113164D01*
X965578Y113031D01*
X965633Y112899D01*
X965692Y112769D01*
X965754Y112641D01*
X965820Y112514D01*
X965889Y112389D01*
X965961Y112266D01*
X966037Y112145D01*
X966116Y112027D01*
X966199Y111910D01*
X966284Y111796D01*
X966373Y111684D01*
X966464Y111575D01*
X966559Y111468D01*
X966656Y111363D01*
X966757Y111262D01*
X966860Y111163D01*
X966965Y111067D01*
X967074Y110974D01*
X967185Y110884D01*
X967298Y110797D01*
X967413Y110713D01*
X967531Y110633D01*
X967651Y110555D01*
X967773Y110481D01*
X967897Y110411D01*
X968023Y110343D01*
X968151Y110280D01*
X968280Y110219D01*
X968411Y110162D01*
X968543Y110109D01*
X968677Y110060D01*
X968812Y110014D01*
X972425Y117690D02*
X972333Y117784D01*
X972239Y117874D01*
X972142Y117962D01*
X972042Y118047D01*
X971940Y118129D01*
X971835Y118207D01*
X971728Y118283D01*
X971619Y118355D01*
X971508Y118424D01*
X971394Y118490D01*
X971279Y118552D01*
X971162Y118611D01*
X971043Y118666D01*
X970923Y118717D01*
X970801Y118765D01*
X970678Y118810D01*
X970554Y118850D01*
X970428Y118887D01*
X970301Y118920D01*
X970174Y118949D01*
X970045Y118975D01*
X969916Y118996D01*
X969786Y119014D01*
X969656Y119027D01*
X969526Y119037D01*
X969395Y119043D01*
X969264Y119045D01*
X972425Y117690D02*
X981456Y110014D01*
X981456Y119045D01*
D11*
X990600Y722630D02*
X990600Y735330D01*
X996950Y741680D01*
X1009650Y741680D02*
X1016000Y735330D01*
X996950Y741680D02*
X990600Y748030D01*
X990600Y760730D01*
X996950Y767080D01*
X1009650Y767080D02*
X1016000Y760730D01*
X1016000Y748030D01*
X1009650Y741680D01*
X1009650Y716280D02*
X996950Y716280D01*
X990600Y722630D01*
X1009650Y716280D02*
X1016000Y722630D01*
X1016000Y735330D01*
X1009650Y767080D02*
X996950Y767080D01*
D12*
X988695Y718256D02*
X988695Y716915D01*
X988695Y718256D02*
X988693Y718327D01*
X988687Y718399D01*
X988678Y718469D01*
X988665Y718539D01*
X988648Y718609D01*
X988627Y718677D01*
X988603Y718744D01*
X988575Y718810D01*
X988544Y718874D01*
X988509Y718937D01*
X988471Y718997D01*
X988430Y719056D01*
X988386Y719112D01*
X988339Y719166D01*
X988290Y719217D01*
X988237Y719265D01*
X988182Y719311D01*
X988125Y719353D01*
X988065Y719393D01*
X988004Y719429D01*
X987940Y719462D01*
X987875Y719491D01*
X987809Y719517D01*
X987741Y719540D01*
X987672Y719559D01*
X987602Y719574D01*
X987532Y719585D01*
X987461Y719593D01*
X987390Y719597D01*
X987318Y719597D01*
X987247Y719593D01*
X987176Y719585D01*
X987106Y719574D01*
X987036Y719559D01*
X986967Y719540D01*
X986899Y719517D01*
X986833Y719491D01*
X986768Y719462D01*
X986704Y719429D01*
X986643Y719393D01*
X986583Y719353D01*
X986526Y719311D01*
X986471Y719265D01*
X986418Y719217D01*
X986369Y719166D01*
X986322Y719112D01*
X986278Y719056D01*
X986237Y718997D01*
X986199Y718937D01*
X986164Y718874D01*
X986133Y718810D01*
X986105Y718744D01*
X986081Y718677D01*
X986060Y718609D01*
X986043Y718539D01*
X986030Y718469D01*
X986021Y718399D01*
X986015Y718327D01*
X986013Y718256D01*
X983869Y718524D02*
X983869Y716915D01*
X983869Y718524D02*
X983871Y718589D01*
X983877Y718653D01*
X983887Y718717D01*
X983900Y718781D01*
X983918Y718843D01*
X983939Y718904D01*
X983963Y718964D01*
X983992Y719022D01*
X984024Y719079D01*
X984059Y719133D01*
X984097Y719185D01*
X984139Y719235D01*
X984183Y719282D01*
X984230Y719326D01*
X984280Y719368D01*
X984332Y719406D01*
X984386Y719441D01*
X984443Y719473D01*
X984501Y719502D01*
X984561Y719526D01*
X984622Y719547D01*
X984684Y719565D01*
X984748Y719578D01*
X984812Y719588D01*
X984876Y719594D01*
X984941Y719596D01*
X985006Y719594D01*
X985070Y719588D01*
X985134Y719578D01*
X985198Y719565D01*
X985260Y719547D01*
X985321Y719526D01*
X985381Y719502D01*
X985439Y719473D01*
X985496Y719441D01*
X985550Y719406D01*
X985602Y719368D01*
X985652Y719326D01*
X985699Y719282D01*
X985743Y719235D01*
X985785Y719185D01*
X985823Y719133D01*
X985858Y719079D01*
X985890Y719022D01*
X985919Y718964D01*
X985943Y718904D01*
X985964Y718843D01*
X985982Y718781D01*
X985995Y718717D01*
X986005Y718653D01*
X986011Y718589D01*
X986013Y718524D01*
X986014Y718524D02*
X986014Y717451D01*
X988427Y721962D02*
X988695Y721962D01*
X988427Y721962D02*
X988427Y722230D01*
X988695Y722230D01*
X988695Y721962D01*
X988695Y724596D02*
X988695Y725936D01*
X988693Y726007D01*
X988687Y726079D01*
X988678Y726149D01*
X988665Y726219D01*
X988648Y726289D01*
X988627Y726357D01*
X988603Y726424D01*
X988575Y726490D01*
X988544Y726554D01*
X988509Y726617D01*
X988471Y726677D01*
X988430Y726736D01*
X988386Y726792D01*
X988339Y726846D01*
X988290Y726897D01*
X988237Y726945D01*
X988182Y726991D01*
X988125Y727033D01*
X988065Y727073D01*
X988004Y727109D01*
X987940Y727142D01*
X987875Y727171D01*
X987809Y727197D01*
X987741Y727220D01*
X987672Y727239D01*
X987602Y727254D01*
X987532Y727265D01*
X987461Y727273D01*
X987390Y727277D01*
X987318Y727277D01*
X987247Y727273D01*
X987176Y727265D01*
X987106Y727254D01*
X987036Y727239D01*
X986967Y727220D01*
X986899Y727197D01*
X986833Y727171D01*
X986768Y727142D01*
X986704Y727109D01*
X986643Y727073D01*
X986583Y727033D01*
X986526Y726991D01*
X986471Y726945D01*
X986418Y726897D01*
X986369Y726846D01*
X986322Y726792D01*
X986278Y726736D01*
X986237Y726677D01*
X986199Y726617D01*
X986164Y726554D01*
X986133Y726490D01*
X986105Y726424D01*
X986081Y726357D01*
X986060Y726289D01*
X986043Y726219D01*
X986030Y726149D01*
X986021Y726079D01*
X986015Y726007D01*
X986013Y725936D01*
X983869Y726205D02*
X983869Y724596D01*
X983869Y726205D02*
X983871Y726270D01*
X983877Y726334D01*
X983887Y726398D01*
X983900Y726462D01*
X983918Y726524D01*
X983939Y726585D01*
X983963Y726645D01*
X983992Y726703D01*
X984024Y726760D01*
X984059Y726814D01*
X984097Y726866D01*
X984139Y726916D01*
X984183Y726963D01*
X984230Y727007D01*
X984280Y727049D01*
X984332Y727087D01*
X984386Y727122D01*
X984443Y727154D01*
X984501Y727183D01*
X984561Y727207D01*
X984622Y727228D01*
X984684Y727246D01*
X984748Y727259D01*
X984812Y727269D01*
X984876Y727275D01*
X984941Y727277D01*
X985006Y727275D01*
X985070Y727269D01*
X985134Y727259D01*
X985198Y727246D01*
X985260Y727228D01*
X985321Y727207D01*
X985381Y727183D01*
X985439Y727154D01*
X985496Y727122D01*
X985550Y727087D01*
X985602Y727049D01*
X985652Y727007D01*
X985699Y726963D01*
X985743Y726916D01*
X985785Y726866D01*
X985823Y726814D01*
X985858Y726760D01*
X985890Y726703D01*
X985919Y726645D01*
X985943Y726585D01*
X985964Y726524D01*
X985982Y726462D01*
X985995Y726398D01*
X986005Y726334D01*
X986011Y726270D01*
X986013Y726205D01*
X986014Y726205D02*
X986014Y725132D01*
X983869Y729814D02*
X988695Y731423D01*
X983869Y733031D01*
D11*
X990600Y648970D02*
X990600Y636270D01*
X990600Y648970D02*
X996950Y655320D01*
X1009650Y655320D02*
X1016000Y648970D01*
X996950Y655320D02*
X990600Y661670D01*
X990600Y674370D01*
X996950Y680720D01*
X1009650Y680720D02*
X1016000Y674370D01*
X1016000Y661670D01*
X1009650Y655320D01*
X1009650Y629920D02*
X996950Y629920D01*
X990600Y636270D01*
X1009650Y629920D02*
X1016000Y636270D01*
X1016000Y648970D01*
X1009650Y680720D02*
X996950Y680720D01*
D12*
X988695Y632164D02*
X988695Y630555D01*
X988695Y632164D02*
X988693Y632229D01*
X988687Y632293D01*
X988677Y632357D01*
X988664Y632421D01*
X988646Y632483D01*
X988625Y632544D01*
X988601Y632604D01*
X988572Y632662D01*
X988540Y632719D01*
X988505Y632773D01*
X988467Y632825D01*
X988425Y632875D01*
X988381Y632922D01*
X988334Y632966D01*
X988284Y633008D01*
X988232Y633046D01*
X988178Y633081D01*
X988121Y633113D01*
X988063Y633142D01*
X988003Y633166D01*
X987942Y633187D01*
X987880Y633205D01*
X987816Y633218D01*
X987752Y633228D01*
X987688Y633234D01*
X987623Y633236D01*
X987086Y633236D01*
X987021Y633234D01*
X986957Y633228D01*
X986893Y633218D01*
X986829Y633205D01*
X986767Y633187D01*
X986706Y633166D01*
X986646Y633142D01*
X986588Y633113D01*
X986531Y633081D01*
X986477Y633046D01*
X986425Y633008D01*
X986375Y632966D01*
X986328Y632922D01*
X986284Y632875D01*
X986242Y632825D01*
X986204Y632773D01*
X986169Y632719D01*
X986137Y632662D01*
X986108Y632604D01*
X986084Y632544D01*
X986063Y632483D01*
X986045Y632421D01*
X986032Y632357D01*
X986022Y632293D01*
X986016Y632229D01*
X986014Y632164D01*
X986014Y630555D01*
X983869Y630555D01*
X983869Y633236D01*
X983869Y635773D02*
X988695Y637382D01*
X983869Y638991D01*
D11*
X439066Y598380D02*
X327814Y598380D01*
X327814Y693730D01*
X338990Y693730D01*
X338990Y728528D01*
X427890Y728528D01*
X427890Y693730D01*
X439066Y693730D01*
X439066Y598380D01*
X439266Y173780D02*
X328014Y173780D01*
X439266Y173780D02*
X439266Y78430D01*
X428090Y78430D01*
X428090Y43632D01*
X339190Y43632D01*
X339190Y78430D01*
X328014Y78430D01*
X328014Y173780D01*
D13*
X386024Y555075D02*
X386024Y569976D01*
X393474Y562525D02*
X378573Y562525D01*
X386024Y219456D02*
X386024Y204555D01*
D12*
X378584Y733566D02*
X377244Y733566D01*
X378584Y733567D02*
X378655Y733565D01*
X378727Y733559D01*
X378797Y733550D01*
X378867Y733537D01*
X378937Y733520D01*
X379005Y733499D01*
X379072Y733475D01*
X379138Y733447D01*
X379202Y733416D01*
X379265Y733381D01*
X379325Y733343D01*
X379384Y733302D01*
X379440Y733258D01*
X379494Y733211D01*
X379545Y733162D01*
X379593Y733109D01*
X379639Y733054D01*
X379681Y732997D01*
X379721Y732937D01*
X379757Y732876D01*
X379790Y732812D01*
X379819Y732747D01*
X379845Y732681D01*
X379868Y732613D01*
X379887Y732544D01*
X379902Y732474D01*
X379913Y732404D01*
X379921Y732333D01*
X379925Y732262D01*
X379925Y732190D01*
X379921Y732119D01*
X379913Y732048D01*
X379902Y731978D01*
X379887Y731908D01*
X379868Y731839D01*
X379845Y731771D01*
X379819Y731705D01*
X379790Y731640D01*
X379757Y731576D01*
X379721Y731515D01*
X379681Y731455D01*
X379639Y731398D01*
X379593Y731343D01*
X379545Y731290D01*
X379494Y731241D01*
X379440Y731194D01*
X379384Y731150D01*
X379325Y731109D01*
X379265Y731071D01*
X379202Y731036D01*
X379138Y731005D01*
X379072Y730977D01*
X379005Y730953D01*
X378937Y730932D01*
X378867Y730915D01*
X378797Y730902D01*
X378727Y730893D01*
X378655Y730887D01*
X378584Y730885D01*
X377244Y730885D01*
X377244Y735711D01*
X378584Y735711D01*
X378649Y735709D01*
X378713Y735703D01*
X378777Y735693D01*
X378841Y735680D01*
X378903Y735662D01*
X378964Y735641D01*
X379024Y735617D01*
X379082Y735588D01*
X379139Y735556D01*
X379193Y735521D01*
X379245Y735483D01*
X379295Y735441D01*
X379342Y735397D01*
X379386Y735350D01*
X379428Y735300D01*
X379466Y735248D01*
X379501Y735194D01*
X379533Y735137D01*
X379562Y735079D01*
X379586Y735019D01*
X379607Y734958D01*
X379625Y734896D01*
X379638Y734832D01*
X379648Y734768D01*
X379654Y734704D01*
X379656Y734639D01*
X379654Y734574D01*
X379648Y734510D01*
X379638Y734446D01*
X379625Y734382D01*
X379607Y734320D01*
X379586Y734259D01*
X379562Y734199D01*
X379533Y734141D01*
X379501Y734084D01*
X379466Y734030D01*
X379428Y733978D01*
X379386Y733928D01*
X379342Y733881D01*
X379295Y733837D01*
X379245Y733795D01*
X379193Y733757D01*
X379139Y733722D01*
X379082Y733690D01*
X379024Y733661D01*
X378964Y733637D01*
X378903Y733616D01*
X378841Y733598D01*
X378777Y733585D01*
X378713Y733575D01*
X378649Y733569D01*
X378584Y733567D01*
X383375Y735711D02*
X383375Y730885D01*
X382035Y735711D02*
X384716Y735711D01*
X387155Y734639D02*
X388496Y735711D01*
X388496Y730885D01*
X389836Y730885D02*
X387155Y730885D01*
D11*
X197966Y173780D02*
X86714Y173780D01*
X197966Y173780D02*
X197966Y78430D01*
X186790Y78430D01*
X186790Y43632D01*
X97890Y43632D01*
X97890Y78430D01*
X86714Y78430D01*
X86714Y173780D01*
X86514Y598380D02*
X197766Y598380D01*
X86514Y598380D02*
X86514Y693730D01*
X97690Y693730D01*
X97690Y728528D01*
X186590Y728528D01*
X186590Y693730D01*
X197766Y693730D01*
X197766Y598380D01*
D13*
X144724Y217085D02*
X144724Y202184D01*
X152174Y209635D02*
X137273Y209635D01*
X144724Y552704D02*
X144724Y567605D01*
D12*
X137284Y39130D02*
X135944Y39130D01*
X137284Y39131D02*
X137355Y39129D01*
X137427Y39123D01*
X137497Y39114D01*
X137567Y39101D01*
X137637Y39084D01*
X137705Y39063D01*
X137772Y39039D01*
X137838Y39011D01*
X137902Y38980D01*
X137965Y38945D01*
X138025Y38907D01*
X138084Y38866D01*
X138140Y38822D01*
X138194Y38775D01*
X138245Y38726D01*
X138293Y38673D01*
X138339Y38618D01*
X138381Y38561D01*
X138421Y38501D01*
X138457Y38440D01*
X138490Y38376D01*
X138519Y38311D01*
X138545Y38245D01*
X138568Y38177D01*
X138587Y38108D01*
X138602Y38038D01*
X138613Y37968D01*
X138621Y37897D01*
X138625Y37826D01*
X138625Y37754D01*
X138621Y37683D01*
X138613Y37612D01*
X138602Y37542D01*
X138587Y37472D01*
X138568Y37403D01*
X138545Y37335D01*
X138519Y37269D01*
X138490Y37204D01*
X138457Y37140D01*
X138421Y37079D01*
X138381Y37019D01*
X138339Y36962D01*
X138293Y36907D01*
X138245Y36854D01*
X138194Y36805D01*
X138140Y36758D01*
X138084Y36714D01*
X138025Y36673D01*
X137965Y36635D01*
X137902Y36600D01*
X137838Y36569D01*
X137772Y36541D01*
X137705Y36517D01*
X137637Y36496D01*
X137567Y36479D01*
X137497Y36466D01*
X137427Y36457D01*
X137355Y36451D01*
X137284Y36449D01*
X135944Y36449D01*
X135944Y41275D01*
X137284Y41275D01*
X137349Y41273D01*
X137413Y41267D01*
X137477Y41257D01*
X137541Y41244D01*
X137603Y41226D01*
X137664Y41205D01*
X137724Y41181D01*
X137782Y41152D01*
X137839Y41120D01*
X137893Y41085D01*
X137945Y41047D01*
X137995Y41005D01*
X138042Y40961D01*
X138086Y40914D01*
X138128Y40864D01*
X138166Y40812D01*
X138201Y40758D01*
X138233Y40701D01*
X138262Y40643D01*
X138286Y40583D01*
X138307Y40522D01*
X138325Y40460D01*
X138338Y40396D01*
X138348Y40332D01*
X138354Y40268D01*
X138356Y40203D01*
X138354Y40138D01*
X138348Y40074D01*
X138338Y40010D01*
X138325Y39946D01*
X138307Y39884D01*
X138286Y39823D01*
X138262Y39763D01*
X138233Y39705D01*
X138201Y39648D01*
X138166Y39594D01*
X138128Y39542D01*
X138086Y39492D01*
X138042Y39445D01*
X137995Y39401D01*
X137945Y39359D01*
X137893Y39321D01*
X137839Y39286D01*
X137782Y39254D01*
X137724Y39225D01*
X137664Y39201D01*
X137603Y39180D01*
X137541Y39162D01*
X137477Y39149D01*
X137413Y39139D01*
X137349Y39133D01*
X137284Y39131D01*
X142075Y41275D02*
X142075Y36449D01*
X140735Y41275D02*
X143416Y41275D01*
X147330Y41275D02*
X147398Y41273D01*
X147465Y41267D01*
X147532Y41258D01*
X147599Y41245D01*
X147664Y41228D01*
X147729Y41207D01*
X147792Y41183D01*
X147854Y41155D01*
X147914Y41124D01*
X147972Y41090D01*
X148028Y41052D01*
X148083Y41012D01*
X148134Y40968D01*
X148183Y40921D01*
X148230Y40872D01*
X148274Y40821D01*
X148314Y40766D01*
X148352Y40710D01*
X148386Y40652D01*
X148417Y40592D01*
X148445Y40530D01*
X148469Y40467D01*
X148490Y40402D01*
X148507Y40337D01*
X148520Y40270D01*
X148529Y40203D01*
X148535Y40136D01*
X148537Y40068D01*
X147330Y41275D02*
X147252Y41273D01*
X147174Y41267D01*
X147097Y41257D01*
X147020Y41244D01*
X146944Y41226D01*
X146869Y41205D01*
X146795Y41180D01*
X146723Y41151D01*
X146652Y41119D01*
X146583Y41083D01*
X146515Y41044D01*
X146450Y41001D01*
X146387Y40955D01*
X146326Y40906D01*
X146268Y40854D01*
X146213Y40799D01*
X146160Y40742D01*
X146111Y40682D01*
X146064Y40619D01*
X146021Y40555D01*
X145981Y40488D01*
X145944Y40419D01*
X145911Y40348D01*
X145881Y40276D01*
X145855Y40203D01*
X148135Y39130D02*
X148184Y39179D01*
X148231Y39231D01*
X148274Y39286D01*
X148315Y39343D01*
X148353Y39402D01*
X148387Y39463D01*
X148418Y39526D01*
X148446Y39590D01*
X148470Y39656D01*
X148490Y39722D01*
X148507Y39790D01*
X148520Y39859D01*
X148529Y39928D01*
X148535Y39998D01*
X148537Y40068D01*
X148134Y39130D02*
X145855Y36449D01*
X148536Y36449D01*
D11*
X915670Y767080D02*
X928370Y767080D01*
X934720Y760730D01*
X934720Y748030D02*
X928370Y741680D01*
X934720Y760730D02*
X941070Y767080D01*
X953770Y767080D01*
X960120Y760730D01*
X960120Y748030D02*
X953770Y741680D01*
X941070Y741680D01*
X934720Y748030D01*
X909320Y748030D02*
X909320Y760730D01*
X915670Y767080D01*
X909320Y748030D02*
X915670Y741680D01*
X928370Y741680D01*
X960120Y748030D02*
X960120Y760730D01*
D12*
X911564Y770057D02*
X911564Y773811D01*
X911563Y770057D02*
X911561Y769992D01*
X911555Y769928D01*
X911545Y769864D01*
X911532Y769800D01*
X911514Y769738D01*
X911493Y769677D01*
X911469Y769617D01*
X911440Y769559D01*
X911408Y769502D01*
X911373Y769448D01*
X911335Y769396D01*
X911293Y769346D01*
X911249Y769299D01*
X911202Y769255D01*
X911152Y769213D01*
X911100Y769175D01*
X911046Y769140D01*
X910989Y769108D01*
X910931Y769079D01*
X910871Y769055D01*
X910810Y769034D01*
X910748Y769016D01*
X910684Y769003D01*
X910620Y768993D01*
X910556Y768987D01*
X910491Y768985D01*
X909955Y768985D01*
X914512Y772739D02*
X915852Y773811D01*
X915852Y768985D01*
X914512Y768985D02*
X917193Y768985D01*
D11*
X801370Y723900D02*
X801370Y622300D01*
X801370Y723900D02*
X839470Y723900D01*
X845820Y723900D01*
X845820Y622300D01*
X839470Y622300D01*
X801370Y622300D01*
X839470Y622300D02*
X839470Y723900D01*
D10*
X911860Y416560D02*
X914400Y416560D01*
X911860Y416560D02*
X911860Y401320D01*
X914400Y401320D01*
X975360Y401320D02*
X977900Y401320D01*
X977900Y416560D01*
X975360Y416560D01*
D14*
X957580Y381000D02*
X957580Y378460D01*
X957580Y381000D02*
X932180Y381000D01*
X932180Y378460D01*
X933450Y436880D02*
X957580Y436880D01*
X933450Y436880D02*
X933450Y439420D01*
X957580Y439420D02*
X957580Y436880D01*
D10*
X957580Y439420D02*
X966470Y439420D01*
X932180Y378460D02*
X923290Y378460D01*
X932180Y378460D02*
X957580Y378460D01*
X966470Y378460D01*
X957580Y439420D02*
X933450Y439420D01*
X923290Y439420D01*
X914400Y419100D02*
X914400Y416560D01*
X914400Y401320D02*
X914400Y398780D01*
X975360Y416560D02*
X975360Y419100D01*
X975360Y401320D02*
X975360Y398780D01*
X927100Y408940D02*
X927105Y409376D01*
X927121Y409812D01*
X927148Y410248D01*
X927186Y410683D01*
X927234Y411116D01*
X927292Y411549D01*
X927362Y411980D01*
X927442Y412409D01*
X927532Y412836D01*
X927633Y413260D01*
X927744Y413682D01*
X927866Y414101D01*
X927997Y414517D01*
X928139Y414930D01*
X928291Y415339D01*
X928453Y415744D01*
X928625Y416145D01*
X928807Y416542D01*
X928998Y416934D01*
X929199Y417321D01*
X929410Y417704D01*
X929630Y418081D01*
X929859Y418452D01*
X930096Y418818D01*
X930343Y419178D01*
X930599Y419532D01*
X930863Y419879D01*
X931136Y420220D01*
X931417Y420553D01*
X931706Y420880D01*
X932003Y421200D01*
X932308Y421512D01*
X932620Y421817D01*
X932940Y422114D01*
X933267Y422403D01*
X933600Y422684D01*
X933941Y422957D01*
X934288Y423221D01*
X934642Y423477D01*
X935002Y423724D01*
X935368Y423961D01*
X935739Y424190D01*
X936116Y424410D01*
X936499Y424621D01*
X936886Y424822D01*
X937278Y425013D01*
X937675Y425195D01*
X938076Y425367D01*
X938481Y425529D01*
X938890Y425681D01*
X939303Y425823D01*
X939719Y425954D01*
X940138Y426076D01*
X940560Y426187D01*
X940984Y426288D01*
X941411Y426378D01*
X941840Y426458D01*
X942271Y426528D01*
X942704Y426586D01*
X943137Y426634D01*
X943572Y426672D01*
X944008Y426699D01*
X944444Y426715D01*
X944880Y426720D01*
X945316Y426715D01*
X945752Y426699D01*
X946188Y426672D01*
X946623Y426634D01*
X947056Y426586D01*
X947489Y426528D01*
X947920Y426458D01*
X948349Y426378D01*
X948776Y426288D01*
X949200Y426187D01*
X949622Y426076D01*
X950041Y425954D01*
X950457Y425823D01*
X950870Y425681D01*
X951279Y425529D01*
X951684Y425367D01*
X952085Y425195D01*
X952482Y425013D01*
X952874Y424822D01*
X953261Y424621D01*
X953644Y424410D01*
X954021Y424190D01*
X954392Y423961D01*
X954758Y423724D01*
X955118Y423477D01*
X955472Y423221D01*
X955819Y422957D01*
X956160Y422684D01*
X956493Y422403D01*
X956820Y422114D01*
X957140Y421817D01*
X957452Y421512D01*
X957757Y421200D01*
X958054Y420880D01*
X958343Y420553D01*
X958624Y420220D01*
X958897Y419879D01*
X959161Y419532D01*
X959417Y419178D01*
X959664Y418818D01*
X959901Y418452D01*
X960130Y418081D01*
X960350Y417704D01*
X960561Y417321D01*
X960762Y416934D01*
X960953Y416542D01*
X961135Y416145D01*
X961307Y415744D01*
X961469Y415339D01*
X961621Y414930D01*
X961763Y414517D01*
X961894Y414101D01*
X962016Y413682D01*
X962127Y413260D01*
X962228Y412836D01*
X962318Y412409D01*
X962398Y411980D01*
X962468Y411549D01*
X962526Y411116D01*
X962574Y410683D01*
X962612Y410248D01*
X962639Y409812D01*
X962655Y409376D01*
X962660Y408940D01*
X962655Y408504D01*
X962639Y408068D01*
X962612Y407632D01*
X962574Y407197D01*
X962526Y406764D01*
X962468Y406331D01*
X962398Y405900D01*
X962318Y405471D01*
X962228Y405044D01*
X962127Y404620D01*
X962016Y404198D01*
X961894Y403779D01*
X961763Y403363D01*
X961621Y402950D01*
X961469Y402541D01*
X961307Y402136D01*
X961135Y401735D01*
X960953Y401338D01*
X960762Y400946D01*
X960561Y400559D01*
X960350Y400176D01*
X960130Y399799D01*
X959901Y399428D01*
X959664Y399062D01*
X959417Y398702D01*
X959161Y398348D01*
X958897Y398001D01*
X958624Y397660D01*
X958343Y397327D01*
X958054Y397000D01*
X957757Y396680D01*
X957452Y396368D01*
X957140Y396063D01*
X956820Y395766D01*
X956493Y395477D01*
X956160Y395196D01*
X955819Y394923D01*
X955472Y394659D01*
X955118Y394403D01*
X954758Y394156D01*
X954392Y393919D01*
X954021Y393690D01*
X953644Y393470D01*
X953261Y393259D01*
X952874Y393058D01*
X952482Y392867D01*
X952085Y392685D01*
X951684Y392513D01*
X951279Y392351D01*
X950870Y392199D01*
X950457Y392057D01*
X950041Y391926D01*
X949622Y391804D01*
X949200Y391693D01*
X948776Y391592D01*
X948349Y391502D01*
X947920Y391422D01*
X947489Y391352D01*
X947056Y391294D01*
X946623Y391246D01*
X946188Y391208D01*
X945752Y391181D01*
X945316Y391165D01*
X944880Y391160D01*
X944444Y391165D01*
X944008Y391181D01*
X943572Y391208D01*
X943137Y391246D01*
X942704Y391294D01*
X942271Y391352D01*
X941840Y391422D01*
X941411Y391502D01*
X940984Y391592D01*
X940560Y391693D01*
X940138Y391804D01*
X939719Y391926D01*
X939303Y392057D01*
X938890Y392199D01*
X938481Y392351D01*
X938076Y392513D01*
X937675Y392685D01*
X937278Y392867D01*
X936886Y393058D01*
X936499Y393259D01*
X936116Y393470D01*
X935739Y393690D01*
X935368Y393919D01*
X935002Y394156D01*
X934642Y394403D01*
X934288Y394659D01*
X933941Y394923D01*
X933600Y395196D01*
X933267Y395477D01*
X932940Y395766D01*
X932620Y396063D01*
X932308Y396368D01*
X932003Y396680D01*
X931706Y397000D01*
X931417Y397327D01*
X931136Y397660D01*
X930863Y398001D01*
X930599Y398348D01*
X930343Y398702D01*
X930096Y399062D01*
X929859Y399428D01*
X929630Y399799D01*
X929410Y400176D01*
X929199Y400559D01*
X928998Y400946D01*
X928807Y401338D01*
X928625Y401735D01*
X928453Y402136D01*
X928291Y402541D01*
X928139Y402950D01*
X927997Y403363D01*
X927866Y403779D01*
X927744Y404198D01*
X927633Y404620D01*
X927532Y405044D01*
X927442Y405471D01*
X927362Y405900D01*
X927292Y406331D01*
X927234Y406764D01*
X927186Y407197D01*
X927148Y407632D01*
X927121Y408068D01*
X927105Y408504D01*
X927100Y408940D01*
X942340Y408940D02*
X942342Y409040D01*
X942348Y409141D01*
X942358Y409240D01*
X942372Y409340D01*
X942389Y409439D01*
X942411Y409537D01*
X942437Y409634D01*
X942466Y409730D01*
X942499Y409824D01*
X942536Y409918D01*
X942576Y410010D01*
X942620Y410100D01*
X942668Y410188D01*
X942719Y410275D01*
X942773Y410359D01*
X942831Y410441D01*
X942892Y410521D01*
X942956Y410598D01*
X943023Y410673D01*
X943093Y410745D01*
X943166Y410814D01*
X943241Y410880D01*
X943319Y410944D01*
X943399Y411004D01*
X943482Y411061D01*
X943567Y411114D01*
X943654Y411164D01*
X943743Y411211D01*
X943833Y411254D01*
X943925Y411294D01*
X944019Y411330D01*
X944114Y411362D01*
X944210Y411390D01*
X944308Y411415D01*
X944406Y411435D01*
X944505Y411452D01*
X944605Y411465D01*
X944704Y411474D01*
X944805Y411479D01*
X944905Y411480D01*
X945005Y411477D01*
X945106Y411470D01*
X945205Y411459D01*
X945305Y411444D01*
X945403Y411426D01*
X945501Y411403D01*
X945598Y411376D01*
X945693Y411346D01*
X945788Y411312D01*
X945881Y411274D01*
X945972Y411233D01*
X946062Y411188D01*
X946150Y411140D01*
X946236Y411088D01*
X946320Y411033D01*
X946401Y410974D01*
X946480Y410912D01*
X946557Y410848D01*
X946631Y410780D01*
X946702Y410709D01*
X946771Y410636D01*
X946836Y410560D01*
X946899Y410481D01*
X946958Y410400D01*
X947014Y410317D01*
X947067Y410232D01*
X947116Y410144D01*
X947162Y410055D01*
X947204Y409964D01*
X947243Y409871D01*
X947278Y409777D01*
X947309Y409682D01*
X947337Y409585D01*
X947360Y409488D01*
X947380Y409389D01*
X947396Y409290D01*
X947408Y409191D01*
X947416Y409090D01*
X947420Y408990D01*
X947420Y408890D01*
X947416Y408790D01*
X947408Y408689D01*
X947396Y408590D01*
X947380Y408491D01*
X947360Y408392D01*
X947337Y408295D01*
X947309Y408198D01*
X947278Y408103D01*
X947243Y408009D01*
X947204Y407916D01*
X947162Y407825D01*
X947116Y407736D01*
X947067Y407648D01*
X947014Y407563D01*
X946958Y407480D01*
X946899Y407399D01*
X946836Y407320D01*
X946771Y407244D01*
X946702Y407171D01*
X946631Y407100D01*
X946557Y407032D01*
X946480Y406968D01*
X946401Y406906D01*
X946320Y406847D01*
X946236Y406792D01*
X946150Y406740D01*
X946062Y406692D01*
X945972Y406647D01*
X945881Y406606D01*
X945788Y406568D01*
X945693Y406534D01*
X945598Y406504D01*
X945501Y406477D01*
X945403Y406454D01*
X945305Y406436D01*
X945205Y406421D01*
X945106Y406410D01*
X945005Y406403D01*
X944905Y406400D01*
X944805Y406401D01*
X944704Y406406D01*
X944605Y406415D01*
X944505Y406428D01*
X944406Y406445D01*
X944308Y406465D01*
X944210Y406490D01*
X944114Y406518D01*
X944019Y406550D01*
X943925Y406586D01*
X943833Y406626D01*
X943743Y406669D01*
X943654Y406716D01*
X943567Y406766D01*
X943482Y406819D01*
X943399Y406876D01*
X943319Y406936D01*
X943241Y407000D01*
X943166Y407066D01*
X943093Y407135D01*
X943023Y407207D01*
X942956Y407282D01*
X942892Y407359D01*
X942831Y407439D01*
X942773Y407521D01*
X942719Y407605D01*
X942668Y407692D01*
X942620Y407780D01*
X942576Y407870D01*
X942536Y407962D01*
X942499Y408056D01*
X942466Y408150D01*
X942437Y408246D01*
X942411Y408343D01*
X942389Y408441D01*
X942372Y408540D01*
X942358Y408640D01*
X942348Y408739D01*
X942342Y408840D01*
X942340Y408940D01*
D12*
X963676Y362585D02*
X963674Y362485D01*
X963668Y362386D01*
X963658Y362286D01*
X963645Y362188D01*
X963627Y362089D01*
X963606Y361992D01*
X963581Y361896D01*
X963552Y361800D01*
X963519Y361706D01*
X963483Y361613D01*
X963443Y361522D01*
X963399Y361432D01*
X963352Y361344D01*
X963302Y361258D01*
X963248Y361174D01*
X963191Y361092D01*
X963131Y361013D01*
X963067Y360935D01*
X963001Y360861D01*
X962932Y360789D01*
X962860Y360720D01*
X962786Y360654D01*
X962708Y360590D01*
X962629Y360530D01*
X962547Y360473D01*
X962463Y360419D01*
X962377Y360369D01*
X962289Y360322D01*
X962199Y360278D01*
X962108Y360238D01*
X962015Y360202D01*
X961921Y360169D01*
X961825Y360140D01*
X961729Y360115D01*
X961632Y360094D01*
X961533Y360076D01*
X961435Y360063D01*
X961335Y360053D01*
X961236Y360047D01*
X961136Y360045D01*
X960995Y360047D01*
X960854Y360052D01*
X960713Y360062D01*
X960572Y360075D01*
X960432Y360091D01*
X960292Y360112D01*
X960153Y360136D01*
X960014Y360164D01*
X959877Y360195D01*
X959740Y360230D01*
X959604Y360268D01*
X959469Y360310D01*
X959336Y360356D01*
X959203Y360405D01*
X959072Y360458D01*
X958943Y360514D01*
X958814Y360573D01*
X958688Y360636D01*
X958563Y360702D01*
X958440Y360771D01*
X958319Y360844D01*
X958200Y360920D01*
X958082Y360999D01*
X957967Y361080D01*
X957855Y361165D01*
X957744Y361253D01*
X957636Y361344D01*
X957530Y361437D01*
X957427Y361534D01*
X957326Y361633D01*
X957644Y368935D02*
X957646Y369035D01*
X957652Y369134D01*
X957662Y369234D01*
X957675Y369332D01*
X957693Y369431D01*
X957714Y369528D01*
X957739Y369624D01*
X957768Y369720D01*
X957801Y369814D01*
X957837Y369907D01*
X957877Y369998D01*
X957921Y370088D01*
X957968Y370176D01*
X958018Y370262D01*
X958072Y370346D01*
X958129Y370428D01*
X958189Y370507D01*
X958253Y370585D01*
X958319Y370659D01*
X958388Y370731D01*
X958460Y370800D01*
X958534Y370866D01*
X958612Y370930D01*
X958691Y370990D01*
X958773Y371047D01*
X958857Y371101D01*
X958943Y371151D01*
X959031Y371198D01*
X959121Y371242D01*
X959212Y371282D01*
X959305Y371318D01*
X959399Y371351D01*
X959495Y371380D01*
X959591Y371405D01*
X959688Y371426D01*
X959787Y371444D01*
X959885Y371457D01*
X959985Y371467D01*
X960084Y371473D01*
X960184Y371475D01*
X960184Y371476D02*
X960317Y371474D01*
X960450Y371469D01*
X960583Y371459D01*
X960716Y371446D01*
X960848Y371429D01*
X960980Y371409D01*
X961111Y371385D01*
X961241Y371357D01*
X961371Y371326D01*
X961499Y371291D01*
X961627Y371252D01*
X961753Y371210D01*
X961878Y371164D01*
X962002Y371115D01*
X962125Y371063D01*
X962246Y371007D01*
X962365Y370947D01*
X962483Y370885D01*
X962598Y370819D01*
X962712Y370750D01*
X962824Y370677D01*
X962934Y370602D01*
X963042Y370523D01*
X958913Y366712D02*
X958829Y366764D01*
X958746Y366819D01*
X958666Y366878D01*
X958588Y366939D01*
X958513Y367003D01*
X958440Y367071D01*
X958369Y367141D01*
X958302Y367213D01*
X958237Y367288D01*
X958175Y367366D01*
X958116Y367446D01*
X958060Y367528D01*
X958008Y367612D01*
X957959Y367698D01*
X957913Y367786D01*
X957870Y367876D01*
X957831Y367967D01*
X957796Y368060D01*
X957764Y368154D01*
X957736Y368249D01*
X957711Y368345D01*
X957691Y368442D01*
X957673Y368540D01*
X957660Y368638D01*
X957651Y368737D01*
X957645Y368836D01*
X957643Y368935D01*
X962406Y364808D02*
X962490Y364756D01*
X962573Y364701D01*
X962653Y364642D01*
X962731Y364581D01*
X962806Y364517D01*
X962879Y364449D01*
X962950Y364379D01*
X963017Y364307D01*
X963082Y364232D01*
X963144Y364154D01*
X963203Y364074D01*
X963259Y363992D01*
X963311Y363908D01*
X963360Y363822D01*
X963406Y363734D01*
X963449Y363644D01*
X963488Y363553D01*
X963523Y363460D01*
X963555Y363366D01*
X963583Y363271D01*
X963608Y363175D01*
X963628Y363078D01*
X963646Y362980D01*
X963659Y362882D01*
X963668Y362783D01*
X963674Y362684D01*
X963676Y362585D01*
X962406Y364808D02*
X958914Y366713D01*
X971868Y371476D02*
X971972Y371474D01*
X972077Y371468D01*
X972181Y371459D01*
X972284Y371446D01*
X972387Y371428D01*
X972489Y371408D01*
X972591Y371383D01*
X972691Y371355D01*
X972791Y371323D01*
X972889Y371287D01*
X972986Y371248D01*
X973081Y371206D01*
X973175Y371160D01*
X973267Y371110D01*
X973357Y371058D01*
X973445Y371002D01*
X973531Y370942D01*
X973615Y370880D01*
X973696Y370815D01*
X973775Y370747D01*
X973852Y370675D01*
X973925Y370602D01*
X973997Y370525D01*
X974065Y370446D01*
X974130Y370365D01*
X974192Y370281D01*
X974252Y370195D01*
X974308Y370107D01*
X974360Y370017D01*
X974410Y369925D01*
X974456Y369831D01*
X974498Y369736D01*
X974537Y369639D01*
X974573Y369541D01*
X974605Y369441D01*
X974633Y369341D01*
X974658Y369239D01*
X974678Y369137D01*
X974696Y369034D01*
X974709Y368931D01*
X974718Y368827D01*
X974724Y368722D01*
X974726Y368618D01*
X971868Y371475D02*
X971750Y371473D01*
X971631Y371467D01*
X971513Y371458D01*
X971396Y371445D01*
X971279Y371427D01*
X971162Y371407D01*
X971046Y371382D01*
X970931Y371354D01*
X970818Y371321D01*
X970705Y371286D01*
X970593Y371246D01*
X970483Y371204D01*
X970374Y371157D01*
X970266Y371107D01*
X970161Y371054D01*
X970057Y370997D01*
X969955Y370937D01*
X969855Y370874D01*
X969757Y370807D01*
X969661Y370738D01*
X969568Y370665D01*
X969477Y370589D01*
X969388Y370511D01*
X969302Y370429D01*
X969219Y370345D01*
X969138Y370259D01*
X969061Y370169D01*
X968986Y370078D01*
X968914Y369984D01*
X968845Y369887D01*
X968780Y369789D01*
X968717Y369688D01*
X968658Y369585D01*
X968602Y369481D01*
X968550Y369375D01*
X968501Y369267D01*
X968456Y369158D01*
X968414Y369047D01*
X968376Y368935D01*
X973773Y366396D02*
X973849Y366471D01*
X973924Y366550D01*
X973995Y366631D01*
X974064Y366715D01*
X974129Y366801D01*
X974191Y366889D01*
X974251Y366979D01*
X974307Y367071D01*
X974360Y367166D01*
X974409Y367262D01*
X974455Y367360D01*
X974498Y367459D01*
X974537Y367560D01*
X974572Y367662D01*
X974604Y367765D01*
X974632Y367869D01*
X974657Y367974D01*
X974678Y368081D01*
X974695Y368187D01*
X974708Y368294D01*
X974717Y368402D01*
X974723Y368510D01*
X974725Y368618D01*
X973773Y366395D02*
X968375Y360045D01*
X974725Y360045D01*
D15*
X814150Y440480D02*
X814152Y440543D01*
X814158Y440605D01*
X814168Y440667D01*
X814181Y440729D01*
X814199Y440789D01*
X814220Y440848D01*
X814245Y440906D01*
X814274Y440962D01*
X814306Y441016D01*
X814341Y441068D01*
X814379Y441117D01*
X814421Y441165D01*
X814465Y441209D01*
X814513Y441251D01*
X814562Y441289D01*
X814614Y441324D01*
X814668Y441356D01*
X814724Y441385D01*
X814782Y441410D01*
X814841Y441431D01*
X814901Y441449D01*
X814963Y441462D01*
X815025Y441472D01*
X815087Y441478D01*
X815150Y441480D01*
X815213Y441478D01*
X815275Y441472D01*
X815337Y441462D01*
X815399Y441449D01*
X815459Y441431D01*
X815518Y441410D01*
X815576Y441385D01*
X815632Y441356D01*
X815686Y441324D01*
X815738Y441289D01*
X815787Y441251D01*
X815835Y441209D01*
X815879Y441165D01*
X815921Y441117D01*
X815959Y441068D01*
X815994Y441016D01*
X816026Y440962D01*
X816055Y440906D01*
X816080Y440848D01*
X816101Y440789D01*
X816119Y440729D01*
X816132Y440667D01*
X816142Y440605D01*
X816148Y440543D01*
X816150Y440480D01*
X816148Y440417D01*
X816142Y440355D01*
X816132Y440293D01*
X816119Y440231D01*
X816101Y440171D01*
X816080Y440112D01*
X816055Y440054D01*
X816026Y439998D01*
X815994Y439944D01*
X815959Y439892D01*
X815921Y439843D01*
X815879Y439795D01*
X815835Y439751D01*
X815787Y439709D01*
X815738Y439671D01*
X815686Y439636D01*
X815632Y439604D01*
X815576Y439575D01*
X815518Y439550D01*
X815459Y439529D01*
X815399Y439511D01*
X815337Y439498D01*
X815275Y439488D01*
X815213Y439482D01*
X815150Y439480D01*
X815087Y439482D01*
X815025Y439488D01*
X814963Y439498D01*
X814901Y439511D01*
X814841Y439529D01*
X814782Y439550D01*
X814724Y439575D01*
X814668Y439604D01*
X814614Y439636D01*
X814562Y439671D01*
X814513Y439709D01*
X814465Y439751D01*
X814421Y439795D01*
X814379Y439843D01*
X814341Y439892D01*
X814306Y439944D01*
X814274Y439998D01*
X814245Y440054D01*
X814220Y440112D01*
X814199Y440171D01*
X814181Y440231D01*
X814168Y440293D01*
X814158Y440355D01*
X814152Y440417D01*
X814150Y440480D01*
D16*
X805630Y423210D02*
X805632Y423281D01*
X805638Y423352D01*
X805648Y423423D01*
X805662Y423493D01*
X805680Y423562D01*
X805701Y423629D01*
X805727Y423696D01*
X805756Y423761D01*
X805788Y423824D01*
X805825Y423886D01*
X805864Y423945D01*
X805907Y424002D01*
X805953Y424056D01*
X806002Y424108D01*
X806054Y424157D01*
X806108Y424203D01*
X806165Y424246D01*
X806224Y424285D01*
X806286Y424322D01*
X806349Y424354D01*
X806414Y424383D01*
X806481Y424409D01*
X806548Y424430D01*
X806617Y424448D01*
X806687Y424462D01*
X806758Y424472D01*
X806829Y424478D01*
X806900Y424480D01*
X806971Y424478D01*
X807042Y424472D01*
X807113Y424462D01*
X807183Y424448D01*
X807252Y424430D01*
X807319Y424409D01*
X807386Y424383D01*
X807451Y424354D01*
X807514Y424322D01*
X807576Y424285D01*
X807635Y424246D01*
X807692Y424203D01*
X807746Y424157D01*
X807798Y424108D01*
X807847Y424056D01*
X807893Y424002D01*
X807936Y423945D01*
X807975Y423886D01*
X808012Y423824D01*
X808044Y423761D01*
X808073Y423696D01*
X808099Y423629D01*
X808120Y423562D01*
X808138Y423493D01*
X808152Y423423D01*
X808162Y423352D01*
X808168Y423281D01*
X808170Y423210D01*
X808168Y423139D01*
X808162Y423068D01*
X808152Y422997D01*
X808138Y422927D01*
X808120Y422858D01*
X808099Y422791D01*
X808073Y422724D01*
X808044Y422659D01*
X808012Y422596D01*
X807975Y422534D01*
X807936Y422475D01*
X807893Y422418D01*
X807847Y422364D01*
X807798Y422312D01*
X807746Y422263D01*
X807692Y422217D01*
X807635Y422174D01*
X807576Y422135D01*
X807514Y422098D01*
X807451Y422066D01*
X807386Y422037D01*
X807319Y422011D01*
X807252Y421990D01*
X807183Y421972D01*
X807113Y421958D01*
X807042Y421948D01*
X806971Y421942D01*
X806900Y421940D01*
X806829Y421942D01*
X806758Y421948D01*
X806687Y421958D01*
X806617Y421972D01*
X806548Y421990D01*
X806481Y422011D01*
X806414Y422037D01*
X806349Y422066D01*
X806286Y422098D01*
X806224Y422135D01*
X806165Y422174D01*
X806108Y422217D01*
X806054Y422263D01*
X806002Y422312D01*
X805953Y422364D01*
X805907Y422418D01*
X805864Y422475D01*
X805825Y422534D01*
X805788Y422596D01*
X805756Y422659D01*
X805727Y422724D01*
X805701Y422791D01*
X805680Y422858D01*
X805662Y422927D01*
X805648Y422997D01*
X805638Y423068D01*
X805632Y423139D01*
X805630Y423210D01*
D17*
X835526Y436367D02*
X840852Y436367D01*
X840941Y436369D01*
X841030Y436375D01*
X841119Y436385D01*
X841208Y436398D01*
X841295Y436416D01*
X841382Y436437D01*
X841468Y436462D01*
X841552Y436491D01*
X841636Y436523D01*
X841718Y436559D01*
X841798Y436598D01*
X841876Y436641D01*
X841952Y436688D01*
X842027Y436737D01*
X842099Y436790D01*
X842168Y436846D01*
X842236Y436905D01*
X842300Y436967D01*
X842362Y437031D01*
X842421Y437099D01*
X842477Y437168D01*
X842530Y437240D01*
X842579Y437315D01*
X842626Y437391D01*
X842669Y437469D01*
X842708Y437549D01*
X842744Y437631D01*
X842776Y437715D01*
X842805Y437799D01*
X842830Y437885D01*
X842851Y437972D01*
X842869Y438059D01*
X842882Y438148D01*
X842892Y438237D01*
X842898Y438326D01*
X842900Y438415D01*
X842898Y438504D01*
X842892Y438593D01*
X842882Y438682D01*
X842869Y438771D01*
X842851Y438858D01*
X842830Y438945D01*
X842805Y439031D01*
X842776Y439115D01*
X842744Y439199D01*
X842708Y439281D01*
X842669Y439361D01*
X842626Y439439D01*
X842579Y439515D01*
X842530Y439590D01*
X842477Y439662D01*
X842421Y439731D01*
X842362Y439799D01*
X842300Y439863D01*
X842236Y439925D01*
X842168Y439984D01*
X842099Y440040D01*
X842027Y440093D01*
X841952Y440142D01*
X841876Y440189D01*
X841798Y440232D01*
X841718Y440271D01*
X841636Y440307D01*
X841552Y440339D01*
X841468Y440368D01*
X841382Y440393D01*
X841295Y440414D01*
X841208Y440432D01*
X841119Y440445D01*
X841030Y440455D01*
X840941Y440461D01*
X840852Y440463D01*
X835526Y440463D01*
X837164Y443933D02*
X835526Y445982D01*
X842900Y445982D01*
X842900Y448030D02*
X842900Y443933D01*
D11*
X810180Y463940D02*
X800180Y463940D01*
X800180Y480940D02*
X810180Y480940D01*
D12*
X800962Y461375D02*
X802571Y459096D01*
X804180Y461375D01*
X802571Y459096D02*
X802571Y456549D01*
X806717Y460303D02*
X808057Y461375D01*
X808057Y456549D01*
X806717Y456549D02*
X809398Y456549D01*
D10*
X617220Y453390D02*
X617220Y466090D01*
X617220Y453390D02*
X610870Y447040D01*
X598170Y447040D02*
X591820Y453390D01*
X610870Y447040D02*
X617220Y440690D01*
X617220Y427990D01*
X610870Y421640D01*
X598170Y421640D02*
X591820Y427990D01*
X591820Y440690D01*
X598170Y447040D01*
X598170Y472440D02*
X610870Y472440D01*
X617220Y466090D01*
X598170Y472440D02*
X591820Y466090D01*
X591820Y453390D01*
X610870Y421640D02*
X617220Y415290D01*
X617220Y402590D01*
X610870Y396240D01*
X598170Y396240D02*
X591820Y402590D01*
X591820Y415290D01*
X598170Y421640D01*
X617220Y389890D02*
X617220Y377190D01*
X610870Y370840D01*
X598170Y370840D02*
X591820Y377190D01*
X610870Y370840D02*
X617220Y364490D01*
X617220Y351790D01*
X610870Y345440D01*
X598170Y345440D01*
X591820Y351790D01*
X591820Y364490D01*
X598170Y370840D01*
X617220Y389890D02*
X610870Y396240D01*
X598170Y396240D02*
X591820Y389890D01*
X591820Y377190D01*
D12*
X578485Y459105D02*
X575945Y462280D01*
X587375Y462280D01*
X587375Y459105D02*
X587375Y465455D01*
X633095Y361315D02*
X633095Y357505D01*
X633095Y361315D02*
X633093Y361415D01*
X633087Y361514D01*
X633077Y361614D01*
X633064Y361712D01*
X633046Y361811D01*
X633025Y361908D01*
X633000Y362004D01*
X632971Y362100D01*
X632938Y362194D01*
X632902Y362287D01*
X632862Y362378D01*
X632818Y362468D01*
X632771Y362556D01*
X632721Y362642D01*
X632667Y362726D01*
X632610Y362808D01*
X632550Y362887D01*
X632486Y362965D01*
X632420Y363039D01*
X632351Y363111D01*
X632279Y363180D01*
X632205Y363246D01*
X632127Y363310D01*
X632048Y363370D01*
X631966Y363427D01*
X631882Y363481D01*
X631796Y363531D01*
X631708Y363578D01*
X631618Y363622D01*
X631527Y363662D01*
X631434Y363698D01*
X631340Y363731D01*
X631244Y363760D01*
X631148Y363785D01*
X631051Y363806D01*
X630952Y363824D01*
X630854Y363837D01*
X630754Y363847D01*
X630655Y363853D01*
X630555Y363855D01*
X629285Y363855D01*
X629185Y363853D01*
X629086Y363847D01*
X628986Y363837D01*
X628888Y363824D01*
X628789Y363806D01*
X628692Y363785D01*
X628596Y363760D01*
X628500Y363731D01*
X628406Y363698D01*
X628313Y363662D01*
X628222Y363622D01*
X628132Y363578D01*
X628044Y363531D01*
X627958Y363481D01*
X627874Y363427D01*
X627792Y363370D01*
X627713Y363310D01*
X627635Y363246D01*
X627561Y363180D01*
X627489Y363111D01*
X627420Y363039D01*
X627354Y362965D01*
X627290Y362887D01*
X627230Y362808D01*
X627173Y362726D01*
X627119Y362642D01*
X627069Y362556D01*
X627022Y362468D01*
X626978Y362378D01*
X626938Y362287D01*
X626902Y362194D01*
X626869Y362100D01*
X626840Y362004D01*
X626815Y361908D01*
X626794Y361811D01*
X626776Y361712D01*
X626763Y361614D01*
X626753Y361514D01*
X626747Y361415D01*
X626745Y361315D01*
X626745Y357505D01*
X621665Y357505D01*
X621665Y363855D01*
X580771Y382524D02*
X580769Y382624D01*
X580763Y382723D01*
X580753Y382823D01*
X580740Y382921D01*
X580722Y383020D01*
X580701Y383117D01*
X580676Y383213D01*
X580647Y383309D01*
X580614Y383403D01*
X580578Y383496D01*
X580538Y383587D01*
X580494Y383677D01*
X580447Y383765D01*
X580397Y383851D01*
X580343Y383935D01*
X580286Y384017D01*
X580226Y384096D01*
X580162Y384174D01*
X580096Y384248D01*
X580027Y384320D01*
X579955Y384389D01*
X579881Y384455D01*
X579803Y384519D01*
X579724Y384579D01*
X579642Y384636D01*
X579558Y384690D01*
X579472Y384740D01*
X579384Y384787D01*
X579294Y384831D01*
X579203Y384871D01*
X579110Y384907D01*
X579016Y384940D01*
X578920Y384969D01*
X578824Y384994D01*
X578727Y385015D01*
X578628Y385033D01*
X578530Y385046D01*
X578430Y385056D01*
X578331Y385062D01*
X578231Y385064D01*
X580771Y382524D02*
X580769Y382383D01*
X580764Y382242D01*
X580754Y382101D01*
X580741Y381960D01*
X580725Y381820D01*
X580704Y381680D01*
X580680Y381541D01*
X580652Y381402D01*
X580621Y381265D01*
X580586Y381128D01*
X580548Y380992D01*
X580506Y380857D01*
X580460Y380724D01*
X580411Y380591D01*
X580358Y380460D01*
X580302Y380331D01*
X580243Y380202D01*
X580180Y380076D01*
X580114Y379951D01*
X580045Y379828D01*
X579972Y379707D01*
X579896Y379588D01*
X579817Y379470D01*
X579736Y379355D01*
X579651Y379243D01*
X579563Y379132D01*
X579472Y379024D01*
X579379Y378918D01*
X579282Y378815D01*
X579183Y378714D01*
X571881Y379032D02*
X571781Y379034D01*
X571682Y379040D01*
X571582Y379050D01*
X571484Y379063D01*
X571385Y379081D01*
X571288Y379102D01*
X571192Y379127D01*
X571096Y379156D01*
X571002Y379189D01*
X570909Y379225D01*
X570818Y379265D01*
X570728Y379309D01*
X570640Y379356D01*
X570554Y379406D01*
X570470Y379460D01*
X570388Y379517D01*
X570309Y379577D01*
X570231Y379641D01*
X570157Y379707D01*
X570085Y379776D01*
X570016Y379848D01*
X569950Y379922D01*
X569886Y380000D01*
X569826Y380079D01*
X569769Y380161D01*
X569715Y380245D01*
X569665Y380331D01*
X569618Y380419D01*
X569574Y380509D01*
X569534Y380600D01*
X569498Y380693D01*
X569465Y380787D01*
X569436Y380883D01*
X569411Y380979D01*
X569390Y381076D01*
X569372Y381175D01*
X569359Y381273D01*
X569349Y381373D01*
X569343Y381472D01*
X569341Y381572D01*
X569343Y381705D01*
X569348Y381838D01*
X569358Y381971D01*
X569371Y382104D01*
X569388Y382236D01*
X569408Y382368D01*
X569432Y382499D01*
X569460Y382629D01*
X569491Y382759D01*
X569526Y382887D01*
X569565Y383015D01*
X569607Y383141D01*
X569653Y383266D01*
X569702Y383390D01*
X569754Y383513D01*
X569810Y383634D01*
X569870Y383753D01*
X569932Y383871D01*
X569998Y383986D01*
X570067Y384100D01*
X570140Y384212D01*
X570215Y384322D01*
X570294Y384430D01*
X574104Y380301D02*
X574052Y380217D01*
X573997Y380134D01*
X573938Y380054D01*
X573877Y379976D01*
X573813Y379901D01*
X573745Y379828D01*
X573675Y379757D01*
X573603Y379690D01*
X573528Y379625D01*
X573450Y379563D01*
X573370Y379504D01*
X573288Y379448D01*
X573204Y379396D01*
X573118Y379347D01*
X573030Y379301D01*
X572940Y379258D01*
X572849Y379219D01*
X572756Y379184D01*
X572662Y379152D01*
X572567Y379124D01*
X572471Y379099D01*
X572374Y379079D01*
X572276Y379061D01*
X572178Y379048D01*
X572079Y379039D01*
X571980Y379033D01*
X571881Y379031D01*
X576008Y383794D02*
X576060Y383878D01*
X576115Y383961D01*
X576174Y384041D01*
X576235Y384119D01*
X576299Y384194D01*
X576367Y384267D01*
X576437Y384338D01*
X576509Y384405D01*
X576584Y384470D01*
X576662Y384532D01*
X576742Y384591D01*
X576824Y384647D01*
X576908Y384699D01*
X576994Y384748D01*
X577082Y384794D01*
X577172Y384837D01*
X577263Y384876D01*
X577356Y384911D01*
X577450Y384943D01*
X577545Y384971D01*
X577641Y384996D01*
X577738Y385016D01*
X577836Y385034D01*
X577934Y385047D01*
X578033Y385056D01*
X578132Y385062D01*
X578231Y385064D01*
X576009Y383794D02*
X574104Y380302D01*
X569341Y390144D02*
X580771Y390144D01*
X569341Y390144D02*
X569341Y393319D01*
X569343Y393430D01*
X569349Y393540D01*
X569358Y393651D01*
X569372Y393761D01*
X569389Y393870D01*
X569410Y393979D01*
X569435Y394087D01*
X569464Y394194D01*
X569496Y394300D01*
X569532Y394405D01*
X569572Y394508D01*
X569615Y394610D01*
X569662Y394711D01*
X569713Y394810D01*
X569766Y394907D01*
X569823Y395001D01*
X569884Y395094D01*
X569947Y395185D01*
X570014Y395274D01*
X570084Y395360D01*
X570157Y395443D01*
X570232Y395525D01*
X570310Y395603D01*
X570392Y395678D01*
X570475Y395751D01*
X570561Y395821D01*
X570650Y395888D01*
X570741Y395951D01*
X570834Y396012D01*
X570929Y396069D01*
X571025Y396122D01*
X571124Y396173D01*
X571225Y396220D01*
X571327Y396263D01*
X571430Y396303D01*
X571535Y396339D01*
X571641Y396371D01*
X571748Y396400D01*
X571856Y396425D01*
X571965Y396446D01*
X572074Y396463D01*
X572184Y396477D01*
X572295Y396486D01*
X572405Y396492D01*
X572516Y396494D01*
X577596Y396494D01*
X577707Y396492D01*
X577817Y396486D01*
X577928Y396477D01*
X578038Y396463D01*
X578147Y396446D01*
X578256Y396425D01*
X578364Y396400D01*
X578471Y396371D01*
X578577Y396339D01*
X578682Y396303D01*
X578785Y396263D01*
X578887Y396220D01*
X578988Y396173D01*
X579087Y396122D01*
X579184Y396069D01*
X579278Y396012D01*
X579371Y395951D01*
X579462Y395888D01*
X579551Y395821D01*
X579637Y395751D01*
X579720Y395678D01*
X579802Y395603D01*
X579880Y395525D01*
X579955Y395443D01*
X580028Y395360D01*
X580098Y395274D01*
X580165Y395185D01*
X580228Y395094D01*
X580289Y395001D01*
X580346Y394907D01*
X580399Y394810D01*
X580450Y394711D01*
X580497Y394610D01*
X580540Y394508D01*
X580580Y394405D01*
X580616Y394300D01*
X580648Y394194D01*
X580677Y394087D01*
X580702Y393979D01*
X580723Y393870D01*
X580740Y393761D01*
X580754Y393651D01*
X580763Y393540D01*
X580769Y393430D01*
X580771Y393319D01*
X580771Y390144D01*
X580771Y405384D02*
X580769Y405484D01*
X580763Y405583D01*
X580753Y405683D01*
X580740Y405781D01*
X580722Y405880D01*
X580701Y405977D01*
X580676Y406073D01*
X580647Y406169D01*
X580614Y406263D01*
X580578Y406356D01*
X580538Y406447D01*
X580494Y406537D01*
X580447Y406625D01*
X580397Y406711D01*
X580343Y406795D01*
X580286Y406877D01*
X580226Y406956D01*
X580162Y407034D01*
X580096Y407108D01*
X580027Y407180D01*
X579955Y407249D01*
X579881Y407315D01*
X579803Y407379D01*
X579724Y407439D01*
X579642Y407496D01*
X579558Y407550D01*
X579472Y407600D01*
X579384Y407647D01*
X579294Y407691D01*
X579203Y407731D01*
X579110Y407767D01*
X579016Y407800D01*
X578920Y407829D01*
X578824Y407854D01*
X578727Y407875D01*
X578628Y407893D01*
X578530Y407906D01*
X578430Y407916D01*
X578331Y407922D01*
X578231Y407924D01*
X580771Y405384D02*
X580769Y405243D01*
X580764Y405102D01*
X580754Y404961D01*
X580741Y404820D01*
X580725Y404680D01*
X580704Y404540D01*
X580680Y404401D01*
X580652Y404262D01*
X580621Y404125D01*
X580586Y403988D01*
X580548Y403852D01*
X580506Y403717D01*
X580460Y403584D01*
X580411Y403451D01*
X580358Y403320D01*
X580302Y403191D01*
X580243Y403062D01*
X580180Y402936D01*
X580114Y402811D01*
X580045Y402688D01*
X579972Y402567D01*
X579896Y402448D01*
X579817Y402330D01*
X579736Y402215D01*
X579651Y402103D01*
X579563Y401992D01*
X579472Y401884D01*
X579379Y401778D01*
X579282Y401675D01*
X579183Y401574D01*
X571881Y401892D02*
X571781Y401894D01*
X571682Y401900D01*
X571582Y401910D01*
X571484Y401923D01*
X571385Y401941D01*
X571288Y401962D01*
X571192Y401987D01*
X571096Y402016D01*
X571002Y402049D01*
X570909Y402085D01*
X570818Y402125D01*
X570728Y402169D01*
X570640Y402216D01*
X570554Y402266D01*
X570470Y402320D01*
X570388Y402377D01*
X570309Y402437D01*
X570231Y402501D01*
X570157Y402567D01*
X570085Y402636D01*
X570016Y402708D01*
X569950Y402782D01*
X569886Y402860D01*
X569826Y402939D01*
X569769Y403021D01*
X569715Y403105D01*
X569665Y403191D01*
X569618Y403279D01*
X569574Y403369D01*
X569534Y403460D01*
X569498Y403553D01*
X569465Y403647D01*
X569436Y403743D01*
X569411Y403839D01*
X569390Y403936D01*
X569372Y404035D01*
X569359Y404133D01*
X569349Y404233D01*
X569343Y404332D01*
X569341Y404432D01*
X569343Y404565D01*
X569348Y404698D01*
X569358Y404831D01*
X569371Y404964D01*
X569388Y405096D01*
X569408Y405228D01*
X569432Y405359D01*
X569460Y405489D01*
X569491Y405619D01*
X569526Y405747D01*
X569565Y405875D01*
X569607Y406001D01*
X569653Y406126D01*
X569702Y406250D01*
X569754Y406373D01*
X569810Y406494D01*
X569870Y406613D01*
X569932Y406731D01*
X569998Y406846D01*
X570067Y406960D01*
X570140Y407072D01*
X570215Y407182D01*
X570294Y407290D01*
X574104Y403161D02*
X574052Y403077D01*
X573997Y402994D01*
X573938Y402914D01*
X573877Y402836D01*
X573813Y402761D01*
X573745Y402688D01*
X573675Y402617D01*
X573603Y402550D01*
X573528Y402485D01*
X573450Y402423D01*
X573370Y402364D01*
X573288Y402308D01*
X573204Y402256D01*
X573118Y402207D01*
X573030Y402161D01*
X572940Y402118D01*
X572849Y402079D01*
X572756Y402044D01*
X572662Y402012D01*
X572567Y401984D01*
X572471Y401959D01*
X572374Y401939D01*
X572276Y401921D01*
X572178Y401908D01*
X572079Y401899D01*
X571980Y401893D01*
X571881Y401891D01*
X576008Y406654D02*
X576060Y406738D01*
X576115Y406821D01*
X576174Y406901D01*
X576235Y406979D01*
X576299Y407054D01*
X576367Y407127D01*
X576437Y407198D01*
X576509Y407265D01*
X576584Y407330D01*
X576662Y407392D01*
X576742Y407451D01*
X576824Y407507D01*
X576908Y407559D01*
X576994Y407608D01*
X577082Y407654D01*
X577172Y407697D01*
X577263Y407736D01*
X577356Y407771D01*
X577450Y407803D01*
X577545Y407831D01*
X577641Y407856D01*
X577738Y407876D01*
X577836Y407894D01*
X577934Y407907D01*
X578033Y407916D01*
X578132Y407922D01*
X578231Y407924D01*
X576009Y406654D02*
X574104Y403162D01*
X575056Y412623D02*
X574831Y412626D01*
X574606Y412634D01*
X574382Y412647D01*
X574158Y412666D01*
X573934Y412690D01*
X573711Y412719D01*
X573489Y412754D01*
X573268Y412794D01*
X573048Y412840D01*
X572829Y412890D01*
X572611Y412946D01*
X572394Y413007D01*
X572179Y413073D01*
X571966Y413144D01*
X571755Y413221D01*
X571545Y413302D01*
X571337Y413388D01*
X571132Y413479D01*
X570929Y413575D01*
X570841Y413607D01*
X570754Y413643D01*
X570668Y413682D01*
X570584Y413725D01*
X570502Y413771D01*
X570422Y413820D01*
X570344Y413872D01*
X570268Y413928D01*
X570194Y413986D01*
X570123Y414048D01*
X570054Y414112D01*
X569988Y414179D01*
X569925Y414248D01*
X569864Y414320D01*
X569806Y414394D01*
X569752Y414471D01*
X569700Y414549D01*
X569652Y414630D01*
X569607Y414712D01*
X569565Y414797D01*
X569527Y414883D01*
X569492Y414970D01*
X569460Y415058D01*
X569433Y415148D01*
X569408Y415239D01*
X569388Y415331D01*
X569371Y415423D01*
X569358Y415517D01*
X569349Y415610D01*
X569343Y415704D01*
X569341Y415798D01*
X569343Y415892D01*
X569349Y415986D01*
X569358Y416079D01*
X569371Y416173D01*
X569388Y416265D01*
X569408Y416357D01*
X569433Y416448D01*
X569460Y416538D01*
X569492Y416626D01*
X569527Y416713D01*
X569565Y416799D01*
X569607Y416884D01*
X569652Y416966D01*
X569700Y417047D01*
X569752Y417125D01*
X569806Y417202D01*
X569864Y417276D01*
X569925Y417348D01*
X569988Y417417D01*
X570054Y417484D01*
X570123Y417548D01*
X570194Y417610D01*
X570268Y417668D01*
X570344Y417724D01*
X570422Y417776D01*
X570502Y417825D01*
X570584Y417871D01*
X570668Y417914D01*
X570754Y417953D01*
X570841Y417989D01*
X570929Y418021D01*
X571132Y418117D01*
X571337Y418208D01*
X571545Y418294D01*
X571755Y418375D01*
X571966Y418452D01*
X572179Y418523D01*
X572394Y418589D01*
X572611Y418650D01*
X572829Y418706D01*
X573048Y418756D01*
X573268Y418802D01*
X573489Y418842D01*
X573711Y418877D01*
X573934Y418906D01*
X574158Y418930D01*
X574382Y418949D01*
X574606Y418962D01*
X574831Y418970D01*
X575056Y418973D01*
X575056Y412623D02*
X575281Y412626D01*
X575506Y412634D01*
X575730Y412647D01*
X575954Y412666D01*
X576178Y412690D01*
X576401Y412719D01*
X576623Y412754D01*
X576844Y412794D01*
X577064Y412840D01*
X577283Y412890D01*
X577501Y412946D01*
X577718Y413007D01*
X577933Y413073D01*
X578146Y413144D01*
X578357Y413221D01*
X578567Y413302D01*
X578775Y413388D01*
X578980Y413479D01*
X579183Y413575D01*
X579184Y413575D02*
X579272Y413607D01*
X579359Y413643D01*
X579445Y413682D01*
X579529Y413725D01*
X579611Y413771D01*
X579691Y413820D01*
X579769Y413872D01*
X579845Y413928D01*
X579919Y413986D01*
X579990Y414048D01*
X580059Y414112D01*
X580125Y414179D01*
X580188Y414248D01*
X580249Y414320D01*
X580307Y414394D01*
X580361Y414471D01*
X580413Y414549D01*
X580461Y414630D01*
X580506Y414712D01*
X580548Y414797D01*
X580586Y414883D01*
X580621Y414970D01*
X580653Y415058D01*
X580680Y415148D01*
X580705Y415239D01*
X580725Y415331D01*
X580742Y415423D01*
X580755Y415517D01*
X580764Y415610D01*
X580770Y415704D01*
X580772Y415798D01*
X579183Y418021D02*
X578980Y418117D01*
X578775Y418208D01*
X578567Y418294D01*
X578357Y418375D01*
X578146Y418452D01*
X577933Y418523D01*
X577718Y418589D01*
X577501Y418650D01*
X577283Y418706D01*
X577064Y418756D01*
X576844Y418802D01*
X576623Y418842D01*
X576401Y418877D01*
X576178Y418906D01*
X575954Y418930D01*
X575730Y418949D01*
X575506Y418962D01*
X575281Y418970D01*
X575056Y418973D01*
X579184Y418021D02*
X579272Y417989D01*
X579359Y417953D01*
X579445Y417914D01*
X579529Y417871D01*
X579611Y417825D01*
X579691Y417776D01*
X579769Y417724D01*
X579845Y417668D01*
X579919Y417610D01*
X579990Y417548D01*
X580059Y417484D01*
X580125Y417417D01*
X580188Y417348D01*
X580249Y417276D01*
X580307Y417202D01*
X580361Y417125D01*
X580413Y417047D01*
X580461Y416966D01*
X580506Y416884D01*
X580548Y416799D01*
X580586Y416713D01*
X580621Y416626D01*
X580653Y416538D01*
X580680Y416448D01*
X580705Y416357D01*
X580725Y416265D01*
X580742Y416173D01*
X580755Y416079D01*
X580764Y415986D01*
X580770Y415892D01*
X580772Y415798D01*
X578231Y413258D02*
X571881Y418338D01*
X571881Y424053D02*
X569341Y427228D01*
X580771Y427228D01*
X580771Y424053D02*
X580771Y430403D01*
X571881Y435483D02*
X569341Y438658D01*
X580771Y438658D01*
X580771Y435483D02*
X580771Y441833D01*
D10*
X901700Y260350D02*
X901700Y247650D01*
X895350Y241300D01*
X882650Y241300D02*
X876300Y247650D01*
X895350Y241300D02*
X901700Y234950D01*
X901700Y222250D01*
X895350Y215900D01*
X882650Y215900D02*
X876300Y222250D01*
X876300Y234950D01*
X882650Y241300D01*
X882650Y266700D02*
X895350Y266700D01*
X901700Y260350D01*
X882650Y266700D02*
X876300Y260350D01*
X876300Y247650D01*
X895350Y215900D02*
X901700Y209550D01*
X901700Y196850D01*
X895350Y190500D01*
X882650Y190500D02*
X876300Y196850D01*
X876300Y209550D01*
X882650Y215900D01*
X901700Y184150D02*
X901700Y171450D01*
X895350Y165100D01*
X882650Y165100D02*
X876300Y171450D01*
X895350Y165100D02*
X901700Y158750D01*
X901700Y146050D01*
X895350Y139700D01*
X882650Y139700D01*
X876300Y146050D01*
X876300Y158750D01*
X882650Y165100D01*
X901700Y184150D02*
X895350Y190500D01*
X882650Y190500D02*
X876300Y184150D01*
X876300Y171450D01*
D12*
X862965Y253365D02*
X860425Y256540D01*
X871855Y256540D01*
X871855Y253365D02*
X871855Y259715D01*
X917575Y155575D02*
X917575Y151765D01*
X917575Y155575D02*
X917573Y155675D01*
X917567Y155774D01*
X917557Y155874D01*
X917544Y155972D01*
X917526Y156071D01*
X917505Y156168D01*
X917480Y156264D01*
X917451Y156360D01*
X917418Y156454D01*
X917382Y156547D01*
X917342Y156638D01*
X917298Y156728D01*
X917251Y156816D01*
X917201Y156902D01*
X917147Y156986D01*
X917090Y157068D01*
X917030Y157147D01*
X916966Y157225D01*
X916900Y157299D01*
X916831Y157371D01*
X916759Y157440D01*
X916685Y157506D01*
X916607Y157570D01*
X916528Y157630D01*
X916446Y157687D01*
X916362Y157741D01*
X916276Y157791D01*
X916188Y157838D01*
X916098Y157882D01*
X916007Y157922D01*
X915914Y157958D01*
X915820Y157991D01*
X915724Y158020D01*
X915628Y158045D01*
X915531Y158066D01*
X915432Y158084D01*
X915334Y158097D01*
X915234Y158107D01*
X915135Y158113D01*
X915035Y158115D01*
X913765Y158115D01*
X913665Y158113D01*
X913566Y158107D01*
X913466Y158097D01*
X913368Y158084D01*
X913269Y158066D01*
X913172Y158045D01*
X913076Y158020D01*
X912980Y157991D01*
X912886Y157958D01*
X912793Y157922D01*
X912702Y157882D01*
X912612Y157838D01*
X912524Y157791D01*
X912438Y157741D01*
X912354Y157687D01*
X912272Y157630D01*
X912193Y157570D01*
X912115Y157506D01*
X912041Y157440D01*
X911969Y157371D01*
X911900Y157299D01*
X911834Y157225D01*
X911770Y157147D01*
X911710Y157068D01*
X911653Y156986D01*
X911599Y156902D01*
X911549Y156816D01*
X911502Y156728D01*
X911458Y156638D01*
X911418Y156547D01*
X911382Y156454D01*
X911349Y156360D01*
X911320Y156264D01*
X911295Y156168D01*
X911274Y156071D01*
X911256Y155972D01*
X911243Y155874D01*
X911233Y155774D01*
X911227Y155675D01*
X911225Y155575D01*
X911225Y151765D01*
X906145Y151765D01*
X906145Y158115D01*
X860933Y141180D02*
X849503Y141180D01*
X849503Y144355D01*
X849505Y144466D01*
X849511Y144576D01*
X849520Y144687D01*
X849534Y144797D01*
X849551Y144906D01*
X849572Y145015D01*
X849597Y145123D01*
X849626Y145230D01*
X849658Y145336D01*
X849694Y145441D01*
X849734Y145544D01*
X849777Y145646D01*
X849824Y145747D01*
X849875Y145846D01*
X849928Y145943D01*
X849985Y146037D01*
X850046Y146130D01*
X850109Y146221D01*
X850176Y146310D01*
X850246Y146396D01*
X850319Y146479D01*
X850394Y146561D01*
X850472Y146639D01*
X850554Y146714D01*
X850637Y146787D01*
X850723Y146857D01*
X850812Y146924D01*
X850903Y146987D01*
X850996Y147048D01*
X851091Y147105D01*
X851187Y147158D01*
X851286Y147209D01*
X851387Y147256D01*
X851489Y147299D01*
X851592Y147339D01*
X851697Y147375D01*
X851803Y147407D01*
X851910Y147436D01*
X852018Y147461D01*
X852127Y147482D01*
X852236Y147499D01*
X852346Y147513D01*
X852457Y147522D01*
X852567Y147528D01*
X852678Y147530D01*
X852789Y147528D01*
X852899Y147522D01*
X853010Y147513D01*
X853120Y147499D01*
X853229Y147482D01*
X853338Y147461D01*
X853446Y147436D01*
X853553Y147407D01*
X853659Y147375D01*
X853764Y147339D01*
X853867Y147299D01*
X853969Y147256D01*
X854070Y147209D01*
X854169Y147158D01*
X854266Y147105D01*
X854360Y147048D01*
X854453Y146987D01*
X854544Y146924D01*
X854633Y146857D01*
X854719Y146787D01*
X854802Y146714D01*
X854884Y146639D01*
X854962Y146561D01*
X855037Y146479D01*
X855110Y146396D01*
X855180Y146310D01*
X855247Y146221D01*
X855310Y146130D01*
X855371Y146037D01*
X855428Y145943D01*
X855481Y145846D01*
X855532Y145747D01*
X855579Y145646D01*
X855622Y145544D01*
X855662Y145441D01*
X855698Y145336D01*
X855730Y145230D01*
X855759Y145123D01*
X855784Y145015D01*
X855805Y144906D01*
X855822Y144797D01*
X855836Y144687D01*
X855845Y144576D01*
X855851Y144466D01*
X855853Y144355D01*
X855853Y141180D01*
X855853Y144990D02*
X860933Y147530D01*
X860933Y152908D02*
X849503Y152908D01*
X860933Y159258D01*
X849503Y159258D01*
X849503Y168212D02*
X849505Y168316D01*
X849511Y168421D01*
X849520Y168525D01*
X849533Y168628D01*
X849551Y168731D01*
X849571Y168833D01*
X849596Y168935D01*
X849624Y169035D01*
X849656Y169135D01*
X849692Y169233D01*
X849731Y169330D01*
X849773Y169425D01*
X849819Y169519D01*
X849869Y169611D01*
X849921Y169701D01*
X849977Y169789D01*
X850037Y169875D01*
X850099Y169959D01*
X850164Y170040D01*
X850232Y170119D01*
X850304Y170196D01*
X850377Y170269D01*
X850454Y170341D01*
X850533Y170409D01*
X850614Y170474D01*
X850698Y170536D01*
X850784Y170596D01*
X850872Y170652D01*
X850962Y170704D01*
X851054Y170754D01*
X851148Y170800D01*
X851243Y170842D01*
X851340Y170881D01*
X851438Y170917D01*
X851538Y170949D01*
X851638Y170977D01*
X851740Y171002D01*
X851842Y171022D01*
X851945Y171040D01*
X852048Y171053D01*
X852152Y171062D01*
X852257Y171068D01*
X852361Y171070D01*
X849503Y168212D02*
X849505Y168094D01*
X849511Y167975D01*
X849520Y167857D01*
X849533Y167740D01*
X849551Y167623D01*
X849571Y167506D01*
X849596Y167390D01*
X849624Y167275D01*
X849657Y167162D01*
X849692Y167049D01*
X849732Y166937D01*
X849774Y166827D01*
X849821Y166718D01*
X849871Y166610D01*
X849924Y166505D01*
X849981Y166401D01*
X850041Y166299D01*
X850104Y166199D01*
X850171Y166101D01*
X850240Y166005D01*
X850313Y165912D01*
X850389Y165821D01*
X850467Y165732D01*
X850549Y165646D01*
X850633Y165563D01*
X850719Y165482D01*
X850809Y165405D01*
X850900Y165330D01*
X850994Y165258D01*
X851091Y165189D01*
X851189Y165124D01*
X851290Y165061D01*
X851393Y165002D01*
X851497Y164946D01*
X851603Y164894D01*
X851711Y164845D01*
X851820Y164800D01*
X851931Y164758D01*
X852043Y164720D01*
X854583Y170117D02*
X854508Y170193D01*
X854429Y170268D01*
X854348Y170339D01*
X854264Y170408D01*
X854178Y170473D01*
X854090Y170535D01*
X854000Y170595D01*
X853908Y170651D01*
X853813Y170704D01*
X853717Y170753D01*
X853619Y170799D01*
X853520Y170842D01*
X853419Y170881D01*
X853317Y170916D01*
X853214Y170948D01*
X853110Y170976D01*
X853005Y171001D01*
X852898Y171022D01*
X852792Y171039D01*
X852685Y171052D01*
X852577Y171061D01*
X852469Y171067D01*
X852361Y171069D01*
X854583Y170117D02*
X860933Y164719D01*
X860933Y171069D01*
X858393Y176149D02*
X849503Y178689D01*
X858393Y176149D02*
X858393Y182499D01*
X855853Y180594D02*
X860933Y180594D01*
X857758Y187579D02*
X857647Y187581D01*
X857537Y187587D01*
X857426Y187596D01*
X857316Y187610D01*
X857207Y187627D01*
X857098Y187648D01*
X856990Y187673D01*
X856883Y187702D01*
X856777Y187734D01*
X856672Y187770D01*
X856569Y187810D01*
X856467Y187853D01*
X856366Y187900D01*
X856267Y187951D01*
X856171Y188004D01*
X856076Y188061D01*
X855983Y188122D01*
X855892Y188185D01*
X855803Y188252D01*
X855717Y188322D01*
X855634Y188395D01*
X855552Y188470D01*
X855474Y188548D01*
X855399Y188630D01*
X855326Y188713D01*
X855256Y188799D01*
X855189Y188888D01*
X855126Y188979D01*
X855065Y189072D01*
X855008Y189167D01*
X854955Y189263D01*
X854904Y189362D01*
X854857Y189463D01*
X854814Y189565D01*
X854774Y189668D01*
X854738Y189773D01*
X854706Y189879D01*
X854677Y189986D01*
X854652Y190094D01*
X854631Y190203D01*
X854614Y190312D01*
X854600Y190422D01*
X854591Y190533D01*
X854585Y190643D01*
X854583Y190754D01*
X854585Y190865D01*
X854591Y190975D01*
X854600Y191086D01*
X854614Y191196D01*
X854631Y191305D01*
X854652Y191414D01*
X854677Y191522D01*
X854706Y191629D01*
X854738Y191735D01*
X854774Y191840D01*
X854814Y191943D01*
X854857Y192045D01*
X854904Y192146D01*
X854955Y192245D01*
X855008Y192342D01*
X855065Y192436D01*
X855126Y192529D01*
X855189Y192620D01*
X855256Y192709D01*
X855326Y192795D01*
X855399Y192878D01*
X855474Y192960D01*
X855552Y193038D01*
X855634Y193113D01*
X855717Y193186D01*
X855803Y193256D01*
X855892Y193323D01*
X855983Y193386D01*
X856076Y193447D01*
X856171Y193504D01*
X856267Y193557D01*
X856366Y193608D01*
X856467Y193655D01*
X856569Y193698D01*
X856672Y193738D01*
X856777Y193774D01*
X856883Y193806D01*
X856990Y193835D01*
X857098Y193860D01*
X857207Y193881D01*
X857316Y193898D01*
X857426Y193912D01*
X857537Y193921D01*
X857647Y193927D01*
X857758Y193929D01*
X857869Y193927D01*
X857979Y193921D01*
X858090Y193912D01*
X858200Y193898D01*
X858309Y193881D01*
X858418Y193860D01*
X858526Y193835D01*
X858633Y193806D01*
X858739Y193774D01*
X858844Y193738D01*
X858947Y193698D01*
X859049Y193655D01*
X859150Y193608D01*
X859249Y193557D01*
X859346Y193504D01*
X859440Y193447D01*
X859533Y193386D01*
X859624Y193323D01*
X859713Y193256D01*
X859799Y193186D01*
X859882Y193113D01*
X859964Y193038D01*
X860042Y192960D01*
X860117Y192878D01*
X860190Y192795D01*
X860260Y192709D01*
X860327Y192620D01*
X860390Y192529D01*
X860451Y192436D01*
X860508Y192341D01*
X860561Y192245D01*
X860612Y192146D01*
X860659Y192045D01*
X860702Y191943D01*
X860742Y191840D01*
X860778Y191735D01*
X860810Y191629D01*
X860839Y191522D01*
X860864Y191414D01*
X860885Y191305D01*
X860902Y191196D01*
X860916Y191086D01*
X860925Y190975D01*
X860931Y190865D01*
X860933Y190754D01*
X860931Y190643D01*
X860925Y190533D01*
X860916Y190422D01*
X860902Y190312D01*
X860885Y190203D01*
X860864Y190094D01*
X860839Y189986D01*
X860810Y189879D01*
X860778Y189773D01*
X860742Y189668D01*
X860702Y189565D01*
X860659Y189463D01*
X860612Y189362D01*
X860561Y189263D01*
X860508Y189166D01*
X860451Y189072D01*
X860390Y188979D01*
X860327Y188888D01*
X860260Y188799D01*
X860190Y188713D01*
X860117Y188630D01*
X860042Y188548D01*
X859964Y188470D01*
X859882Y188395D01*
X859799Y188322D01*
X859713Y188252D01*
X859624Y188185D01*
X859533Y188122D01*
X859440Y188061D01*
X859346Y188004D01*
X859249Y187951D01*
X859150Y187900D01*
X859049Y187853D01*
X858947Y187810D01*
X858844Y187770D01*
X858739Y187734D01*
X858633Y187702D01*
X858526Y187673D01*
X858418Y187648D01*
X858309Y187627D01*
X858200Y187610D01*
X858090Y187596D01*
X857979Y187587D01*
X857869Y187581D01*
X857758Y187579D01*
X852043Y188214D02*
X851943Y188216D01*
X851844Y188222D01*
X851744Y188232D01*
X851646Y188245D01*
X851547Y188263D01*
X851450Y188284D01*
X851354Y188309D01*
X851258Y188338D01*
X851164Y188371D01*
X851071Y188407D01*
X850980Y188447D01*
X850890Y188491D01*
X850802Y188538D01*
X850716Y188588D01*
X850632Y188642D01*
X850550Y188699D01*
X850471Y188759D01*
X850393Y188823D01*
X850319Y188889D01*
X850247Y188958D01*
X850178Y189030D01*
X850112Y189104D01*
X850048Y189182D01*
X849988Y189261D01*
X849931Y189343D01*
X849877Y189427D01*
X849827Y189513D01*
X849780Y189601D01*
X849736Y189691D01*
X849696Y189782D01*
X849660Y189875D01*
X849627Y189969D01*
X849598Y190065D01*
X849573Y190161D01*
X849552Y190258D01*
X849534Y190357D01*
X849521Y190455D01*
X849511Y190555D01*
X849505Y190654D01*
X849503Y190754D01*
X849505Y190854D01*
X849511Y190953D01*
X849521Y191053D01*
X849534Y191151D01*
X849552Y191250D01*
X849573Y191347D01*
X849598Y191443D01*
X849627Y191539D01*
X849660Y191633D01*
X849696Y191726D01*
X849736Y191817D01*
X849780Y191907D01*
X849827Y191995D01*
X849877Y192081D01*
X849931Y192165D01*
X849988Y192247D01*
X850048Y192326D01*
X850112Y192404D01*
X850178Y192478D01*
X850247Y192550D01*
X850319Y192619D01*
X850393Y192685D01*
X850471Y192749D01*
X850550Y192809D01*
X850632Y192866D01*
X850716Y192920D01*
X850802Y192970D01*
X850890Y193017D01*
X850980Y193061D01*
X851071Y193101D01*
X851164Y193137D01*
X851258Y193170D01*
X851354Y193199D01*
X851450Y193224D01*
X851547Y193245D01*
X851646Y193263D01*
X851744Y193276D01*
X851844Y193286D01*
X851943Y193292D01*
X852043Y193294D01*
X852143Y193292D01*
X852242Y193286D01*
X852342Y193276D01*
X852440Y193263D01*
X852539Y193245D01*
X852636Y193224D01*
X852732Y193199D01*
X852828Y193170D01*
X852922Y193137D01*
X853015Y193101D01*
X853106Y193061D01*
X853196Y193017D01*
X853284Y192970D01*
X853370Y192920D01*
X853454Y192866D01*
X853536Y192809D01*
X853615Y192749D01*
X853693Y192685D01*
X853767Y192619D01*
X853839Y192550D01*
X853908Y192478D01*
X853974Y192404D01*
X854038Y192326D01*
X854098Y192247D01*
X854155Y192165D01*
X854209Y192081D01*
X854259Y191995D01*
X854306Y191907D01*
X854350Y191817D01*
X854390Y191726D01*
X854426Y191633D01*
X854459Y191539D01*
X854488Y191443D01*
X854513Y191347D01*
X854534Y191250D01*
X854552Y191151D01*
X854565Y191053D01*
X854575Y190953D01*
X854581Y190854D01*
X854583Y190754D01*
X854581Y190654D01*
X854575Y190555D01*
X854565Y190455D01*
X854552Y190357D01*
X854534Y190258D01*
X854513Y190161D01*
X854488Y190065D01*
X854459Y189969D01*
X854426Y189875D01*
X854390Y189782D01*
X854350Y189691D01*
X854306Y189601D01*
X854259Y189513D01*
X854209Y189427D01*
X854155Y189343D01*
X854098Y189261D01*
X854038Y189182D01*
X853974Y189104D01*
X853908Y189030D01*
X853839Y188958D01*
X853767Y188889D01*
X853693Y188823D01*
X853615Y188759D01*
X853536Y188699D01*
X853454Y188642D01*
X853370Y188588D01*
X853284Y188538D01*
X853196Y188491D01*
X853106Y188447D01*
X853015Y188407D01*
X852922Y188371D01*
X852828Y188338D01*
X852732Y188309D01*
X852636Y188284D01*
X852539Y188263D01*
X852440Y188245D01*
X852342Y188232D01*
X852242Y188222D01*
X852143Y188216D01*
X852043Y188214D01*
X860933Y199009D02*
X860933Y202184D01*
X860931Y202295D01*
X860925Y202405D01*
X860916Y202516D01*
X860902Y202626D01*
X860885Y202735D01*
X860864Y202844D01*
X860839Y202952D01*
X860810Y203059D01*
X860778Y203165D01*
X860742Y203270D01*
X860702Y203373D01*
X860659Y203475D01*
X860612Y203576D01*
X860561Y203675D01*
X860508Y203772D01*
X860451Y203866D01*
X860390Y203959D01*
X860327Y204050D01*
X860260Y204139D01*
X860190Y204225D01*
X860117Y204308D01*
X860042Y204390D01*
X859964Y204468D01*
X859882Y204543D01*
X859799Y204616D01*
X859713Y204686D01*
X859624Y204753D01*
X859533Y204816D01*
X859440Y204877D01*
X859346Y204934D01*
X859249Y204987D01*
X859150Y205038D01*
X859049Y205085D01*
X858947Y205128D01*
X858844Y205168D01*
X858739Y205204D01*
X858633Y205236D01*
X858526Y205265D01*
X858418Y205290D01*
X858309Y205311D01*
X858200Y205328D01*
X858090Y205342D01*
X857979Y205351D01*
X857869Y205357D01*
X857758Y205359D01*
X857647Y205357D01*
X857537Y205351D01*
X857426Y205342D01*
X857316Y205328D01*
X857207Y205311D01*
X857098Y205290D01*
X856990Y205265D01*
X856883Y205236D01*
X856777Y205204D01*
X856672Y205168D01*
X856569Y205128D01*
X856467Y205085D01*
X856366Y205038D01*
X856267Y204987D01*
X856171Y204934D01*
X856076Y204877D01*
X855983Y204816D01*
X855892Y204753D01*
X855803Y204686D01*
X855717Y204616D01*
X855634Y204543D01*
X855552Y204468D01*
X855474Y204390D01*
X855399Y204308D01*
X855326Y204225D01*
X855256Y204139D01*
X855189Y204050D01*
X855126Y203959D01*
X855065Y203866D01*
X855008Y203772D01*
X854955Y203675D01*
X854904Y203576D01*
X854857Y203475D01*
X854814Y203373D01*
X854774Y203270D01*
X854738Y203165D01*
X854706Y203059D01*
X854677Y202952D01*
X854652Y202844D01*
X854631Y202735D01*
X854614Y202626D01*
X854600Y202516D01*
X854591Y202405D01*
X854585Y202295D01*
X854583Y202184D01*
X849503Y202819D02*
X849503Y199009D01*
X849503Y202819D02*
X849505Y202919D01*
X849511Y203018D01*
X849521Y203118D01*
X849534Y203216D01*
X849552Y203315D01*
X849573Y203412D01*
X849598Y203508D01*
X849627Y203604D01*
X849660Y203698D01*
X849696Y203791D01*
X849736Y203882D01*
X849780Y203972D01*
X849827Y204060D01*
X849877Y204146D01*
X849931Y204230D01*
X849988Y204312D01*
X850048Y204391D01*
X850112Y204469D01*
X850178Y204543D01*
X850247Y204615D01*
X850319Y204684D01*
X850393Y204750D01*
X850471Y204814D01*
X850550Y204874D01*
X850632Y204931D01*
X850716Y204985D01*
X850802Y205035D01*
X850890Y205082D01*
X850980Y205126D01*
X851071Y205166D01*
X851164Y205202D01*
X851258Y205235D01*
X851354Y205264D01*
X851450Y205289D01*
X851547Y205310D01*
X851646Y205328D01*
X851744Y205341D01*
X851844Y205351D01*
X851943Y205357D01*
X852043Y205359D01*
X852143Y205357D01*
X852242Y205351D01*
X852342Y205341D01*
X852440Y205328D01*
X852539Y205310D01*
X852636Y205289D01*
X852732Y205264D01*
X852828Y205235D01*
X852922Y205202D01*
X853015Y205166D01*
X853106Y205126D01*
X853196Y205082D01*
X853284Y205035D01*
X853370Y204985D01*
X853454Y204931D01*
X853536Y204874D01*
X853615Y204814D01*
X853693Y204750D01*
X853767Y204684D01*
X853839Y204615D01*
X853908Y204543D01*
X853974Y204469D01*
X854038Y204391D01*
X854098Y204312D01*
X854155Y204230D01*
X854209Y204146D01*
X854259Y204060D01*
X854306Y203972D01*
X854350Y203882D01*
X854390Y203791D01*
X854426Y203698D01*
X854459Y203604D01*
X854488Y203508D01*
X854513Y203412D01*
X854534Y203315D01*
X854552Y203216D01*
X854565Y203118D01*
X854575Y203018D01*
X854581Y202919D01*
X854583Y202819D01*
X854583Y200279D01*
D10*
X622300Y247650D02*
X622300Y260350D01*
X622300Y247650D02*
X615950Y241300D01*
X603250Y241300D02*
X596900Y247650D01*
X615950Y241300D02*
X622300Y234950D01*
X622300Y222250D01*
X615950Y215900D01*
X603250Y215900D02*
X596900Y222250D01*
X596900Y234950D01*
X603250Y241300D01*
X603250Y266700D02*
X615950Y266700D01*
X622300Y260350D01*
X603250Y266700D02*
X596900Y260350D01*
X596900Y247650D01*
X615950Y215900D02*
X622300Y209550D01*
X622300Y196850D01*
X615950Y190500D01*
X603250Y190500D02*
X596900Y196850D01*
X596900Y209550D01*
X603250Y215900D01*
X622300Y184150D02*
X622300Y171450D01*
X615950Y165100D01*
X603250Y165100D02*
X596900Y171450D01*
X615950Y165100D02*
X622300Y158750D01*
X622300Y146050D01*
X615950Y139700D01*
X603250Y139700D01*
X596900Y146050D01*
X596900Y158750D01*
X603250Y165100D01*
X622300Y184150D02*
X615950Y190500D01*
X603250Y190500D02*
X596900Y184150D01*
X596900Y171450D01*
D12*
X583565Y253365D02*
X581025Y256540D01*
X592455Y256540D01*
X592455Y253365D02*
X592455Y259715D01*
X638175Y155575D02*
X638175Y151765D01*
X638175Y155575D02*
X638173Y155675D01*
X638167Y155774D01*
X638157Y155874D01*
X638144Y155972D01*
X638126Y156071D01*
X638105Y156168D01*
X638080Y156264D01*
X638051Y156360D01*
X638018Y156454D01*
X637982Y156547D01*
X637942Y156638D01*
X637898Y156728D01*
X637851Y156816D01*
X637801Y156902D01*
X637747Y156986D01*
X637690Y157068D01*
X637630Y157147D01*
X637566Y157225D01*
X637500Y157299D01*
X637431Y157371D01*
X637359Y157440D01*
X637285Y157506D01*
X637207Y157570D01*
X637128Y157630D01*
X637046Y157687D01*
X636962Y157741D01*
X636876Y157791D01*
X636788Y157838D01*
X636698Y157882D01*
X636607Y157922D01*
X636514Y157958D01*
X636420Y157991D01*
X636324Y158020D01*
X636228Y158045D01*
X636131Y158066D01*
X636032Y158084D01*
X635934Y158097D01*
X635834Y158107D01*
X635735Y158113D01*
X635635Y158115D01*
X634365Y158115D01*
X634265Y158113D01*
X634166Y158107D01*
X634066Y158097D01*
X633968Y158084D01*
X633869Y158066D01*
X633772Y158045D01*
X633676Y158020D01*
X633580Y157991D01*
X633486Y157958D01*
X633393Y157922D01*
X633302Y157882D01*
X633212Y157838D01*
X633124Y157791D01*
X633038Y157741D01*
X632954Y157687D01*
X632872Y157630D01*
X632793Y157570D01*
X632715Y157506D01*
X632641Y157440D01*
X632569Y157371D01*
X632500Y157299D01*
X632434Y157225D01*
X632370Y157147D01*
X632310Y157068D01*
X632253Y156986D01*
X632199Y156902D01*
X632149Y156816D01*
X632102Y156728D01*
X632058Y156638D01*
X632018Y156547D01*
X631982Y156454D01*
X631949Y156360D01*
X631920Y156264D01*
X631895Y156168D01*
X631874Y156071D01*
X631856Y155972D01*
X631843Y155874D01*
X631833Y155774D01*
X631827Y155675D01*
X631825Y155575D01*
X631825Y151765D01*
X626745Y151765D01*
X626745Y158115D01*
X579882Y141180D02*
X568452Y141180D01*
X568452Y144355D01*
X568454Y144466D01*
X568460Y144576D01*
X568469Y144687D01*
X568483Y144797D01*
X568500Y144906D01*
X568521Y145015D01*
X568546Y145123D01*
X568575Y145230D01*
X568607Y145336D01*
X568643Y145441D01*
X568683Y145544D01*
X568726Y145646D01*
X568773Y145747D01*
X568824Y145846D01*
X568877Y145943D01*
X568934Y146037D01*
X568995Y146130D01*
X569058Y146221D01*
X569125Y146310D01*
X569195Y146396D01*
X569268Y146479D01*
X569343Y146561D01*
X569421Y146639D01*
X569503Y146714D01*
X569586Y146787D01*
X569672Y146857D01*
X569761Y146924D01*
X569852Y146987D01*
X569945Y147048D01*
X570040Y147105D01*
X570136Y147158D01*
X570235Y147209D01*
X570336Y147256D01*
X570438Y147299D01*
X570541Y147339D01*
X570646Y147375D01*
X570752Y147407D01*
X570859Y147436D01*
X570967Y147461D01*
X571076Y147482D01*
X571185Y147499D01*
X571295Y147513D01*
X571406Y147522D01*
X571516Y147528D01*
X571627Y147530D01*
X571738Y147528D01*
X571848Y147522D01*
X571959Y147513D01*
X572069Y147499D01*
X572178Y147482D01*
X572287Y147461D01*
X572395Y147436D01*
X572502Y147407D01*
X572608Y147375D01*
X572713Y147339D01*
X572816Y147299D01*
X572918Y147256D01*
X573019Y147209D01*
X573118Y147158D01*
X573215Y147105D01*
X573309Y147048D01*
X573402Y146987D01*
X573493Y146924D01*
X573582Y146857D01*
X573668Y146787D01*
X573751Y146714D01*
X573833Y146639D01*
X573911Y146561D01*
X573986Y146479D01*
X574059Y146396D01*
X574129Y146310D01*
X574196Y146221D01*
X574259Y146130D01*
X574320Y146037D01*
X574377Y145943D01*
X574430Y145846D01*
X574481Y145747D01*
X574528Y145646D01*
X574571Y145544D01*
X574611Y145441D01*
X574647Y145336D01*
X574679Y145230D01*
X574708Y145123D01*
X574733Y145015D01*
X574754Y144906D01*
X574771Y144797D01*
X574785Y144687D01*
X574794Y144576D01*
X574800Y144466D01*
X574802Y144355D01*
X574802Y141180D01*
X574802Y144990D02*
X579882Y147530D01*
X579882Y152908D02*
X568452Y152908D01*
X579882Y159258D01*
X568452Y159258D01*
X568452Y168212D02*
X568454Y168316D01*
X568460Y168421D01*
X568469Y168525D01*
X568482Y168628D01*
X568500Y168731D01*
X568520Y168833D01*
X568545Y168935D01*
X568573Y169035D01*
X568605Y169135D01*
X568641Y169233D01*
X568680Y169330D01*
X568722Y169425D01*
X568768Y169519D01*
X568818Y169611D01*
X568870Y169701D01*
X568926Y169789D01*
X568986Y169875D01*
X569048Y169959D01*
X569113Y170040D01*
X569181Y170119D01*
X569253Y170196D01*
X569326Y170269D01*
X569403Y170341D01*
X569482Y170409D01*
X569563Y170474D01*
X569647Y170536D01*
X569733Y170596D01*
X569821Y170652D01*
X569911Y170704D01*
X570003Y170754D01*
X570097Y170800D01*
X570192Y170842D01*
X570289Y170881D01*
X570387Y170917D01*
X570487Y170949D01*
X570587Y170977D01*
X570689Y171002D01*
X570791Y171022D01*
X570894Y171040D01*
X570997Y171053D01*
X571101Y171062D01*
X571206Y171068D01*
X571310Y171070D01*
X568452Y168212D02*
X568454Y168094D01*
X568460Y167975D01*
X568469Y167857D01*
X568482Y167740D01*
X568500Y167623D01*
X568520Y167506D01*
X568545Y167390D01*
X568573Y167275D01*
X568606Y167162D01*
X568641Y167049D01*
X568681Y166937D01*
X568723Y166827D01*
X568770Y166718D01*
X568820Y166610D01*
X568873Y166505D01*
X568930Y166401D01*
X568990Y166299D01*
X569053Y166199D01*
X569120Y166101D01*
X569189Y166005D01*
X569262Y165912D01*
X569338Y165821D01*
X569416Y165732D01*
X569498Y165646D01*
X569582Y165563D01*
X569668Y165482D01*
X569758Y165405D01*
X569849Y165330D01*
X569943Y165258D01*
X570040Y165189D01*
X570138Y165124D01*
X570239Y165061D01*
X570342Y165002D01*
X570446Y164946D01*
X570552Y164894D01*
X570660Y164845D01*
X570769Y164800D01*
X570880Y164758D01*
X570992Y164720D01*
X573532Y170117D02*
X573457Y170193D01*
X573378Y170268D01*
X573297Y170339D01*
X573213Y170408D01*
X573127Y170473D01*
X573039Y170535D01*
X572949Y170595D01*
X572857Y170651D01*
X572762Y170704D01*
X572666Y170753D01*
X572568Y170799D01*
X572469Y170842D01*
X572368Y170881D01*
X572266Y170916D01*
X572163Y170948D01*
X572059Y170976D01*
X571954Y171001D01*
X571847Y171022D01*
X571741Y171039D01*
X571634Y171052D01*
X571526Y171061D01*
X571418Y171067D01*
X571310Y171069D01*
X573532Y170117D02*
X579882Y164719D01*
X579882Y171069D01*
X577342Y176149D02*
X568452Y178689D01*
X577342Y176149D02*
X577342Y182499D01*
X574802Y180594D02*
X579882Y180594D01*
X576707Y187579D02*
X576596Y187581D01*
X576486Y187587D01*
X576375Y187596D01*
X576265Y187610D01*
X576156Y187627D01*
X576047Y187648D01*
X575939Y187673D01*
X575832Y187702D01*
X575726Y187734D01*
X575621Y187770D01*
X575518Y187810D01*
X575416Y187853D01*
X575315Y187900D01*
X575216Y187951D01*
X575120Y188004D01*
X575025Y188061D01*
X574932Y188122D01*
X574841Y188185D01*
X574752Y188252D01*
X574666Y188322D01*
X574583Y188395D01*
X574501Y188470D01*
X574423Y188548D01*
X574348Y188630D01*
X574275Y188713D01*
X574205Y188799D01*
X574138Y188888D01*
X574075Y188979D01*
X574014Y189072D01*
X573957Y189167D01*
X573904Y189263D01*
X573853Y189362D01*
X573806Y189463D01*
X573763Y189565D01*
X573723Y189668D01*
X573687Y189773D01*
X573655Y189879D01*
X573626Y189986D01*
X573601Y190094D01*
X573580Y190203D01*
X573563Y190312D01*
X573549Y190422D01*
X573540Y190533D01*
X573534Y190643D01*
X573532Y190754D01*
X573534Y190865D01*
X573540Y190975D01*
X573549Y191086D01*
X573563Y191196D01*
X573580Y191305D01*
X573601Y191414D01*
X573626Y191522D01*
X573655Y191629D01*
X573687Y191735D01*
X573723Y191840D01*
X573763Y191943D01*
X573806Y192045D01*
X573853Y192146D01*
X573904Y192245D01*
X573957Y192342D01*
X574014Y192436D01*
X574075Y192529D01*
X574138Y192620D01*
X574205Y192709D01*
X574275Y192795D01*
X574348Y192878D01*
X574423Y192960D01*
X574501Y193038D01*
X574583Y193113D01*
X574666Y193186D01*
X574752Y193256D01*
X574841Y193323D01*
X574932Y193386D01*
X575025Y193447D01*
X575120Y193504D01*
X575216Y193557D01*
X575315Y193608D01*
X575416Y193655D01*
X575518Y193698D01*
X575621Y193738D01*
X575726Y193774D01*
X575832Y193806D01*
X575939Y193835D01*
X576047Y193860D01*
X576156Y193881D01*
X576265Y193898D01*
X576375Y193912D01*
X576486Y193921D01*
X576596Y193927D01*
X576707Y193929D01*
X576818Y193927D01*
X576928Y193921D01*
X577039Y193912D01*
X577149Y193898D01*
X577258Y193881D01*
X577367Y193860D01*
X577475Y193835D01*
X577582Y193806D01*
X577688Y193774D01*
X577793Y193738D01*
X577896Y193698D01*
X577998Y193655D01*
X578099Y193608D01*
X578198Y193557D01*
X578295Y193504D01*
X578389Y193447D01*
X578482Y193386D01*
X578573Y193323D01*
X578662Y193256D01*
X578748Y193186D01*
X578831Y193113D01*
X578913Y193038D01*
X578991Y192960D01*
X579066Y192878D01*
X579139Y192795D01*
X579209Y192709D01*
X579276Y192620D01*
X579339Y192529D01*
X579400Y192436D01*
X579457Y192341D01*
X579510Y192245D01*
X579561Y192146D01*
X579608Y192045D01*
X579651Y191943D01*
X579691Y191840D01*
X579727Y191735D01*
X579759Y191629D01*
X579788Y191522D01*
X579813Y191414D01*
X579834Y191305D01*
X579851Y191196D01*
X579865Y191086D01*
X579874Y190975D01*
X579880Y190865D01*
X579882Y190754D01*
X579880Y190643D01*
X579874Y190533D01*
X579865Y190422D01*
X579851Y190312D01*
X579834Y190203D01*
X579813Y190094D01*
X579788Y189986D01*
X579759Y189879D01*
X579727Y189773D01*
X579691Y189668D01*
X579651Y189565D01*
X579608Y189463D01*
X579561Y189362D01*
X579510Y189263D01*
X579457Y189166D01*
X579400Y189072D01*
X579339Y188979D01*
X579276Y188888D01*
X579209Y188799D01*
X579139Y188713D01*
X579066Y188630D01*
X578991Y188548D01*
X578913Y188470D01*
X578831Y188395D01*
X578748Y188322D01*
X578662Y188252D01*
X578573Y188185D01*
X578482Y188122D01*
X578389Y188061D01*
X578295Y188004D01*
X578198Y187951D01*
X578099Y187900D01*
X577998Y187853D01*
X577896Y187810D01*
X577793Y187770D01*
X577688Y187734D01*
X577582Y187702D01*
X577475Y187673D01*
X577367Y187648D01*
X577258Y187627D01*
X577149Y187610D01*
X577039Y187596D01*
X576928Y187587D01*
X576818Y187581D01*
X576707Y187579D01*
X570992Y188214D02*
X570892Y188216D01*
X570793Y188222D01*
X570693Y188232D01*
X570595Y188245D01*
X570496Y188263D01*
X570399Y188284D01*
X570303Y188309D01*
X570207Y188338D01*
X570113Y188371D01*
X570020Y188407D01*
X569929Y188447D01*
X569839Y188491D01*
X569751Y188538D01*
X569665Y188588D01*
X569581Y188642D01*
X569499Y188699D01*
X569420Y188759D01*
X569342Y188823D01*
X569268Y188889D01*
X569196Y188958D01*
X569127Y189030D01*
X569061Y189104D01*
X568997Y189182D01*
X568937Y189261D01*
X568880Y189343D01*
X568826Y189427D01*
X568776Y189513D01*
X568729Y189601D01*
X568685Y189691D01*
X568645Y189782D01*
X568609Y189875D01*
X568576Y189969D01*
X568547Y190065D01*
X568522Y190161D01*
X568501Y190258D01*
X568483Y190357D01*
X568470Y190455D01*
X568460Y190555D01*
X568454Y190654D01*
X568452Y190754D01*
X568454Y190854D01*
X568460Y190953D01*
X568470Y191053D01*
X568483Y191151D01*
X568501Y191250D01*
X568522Y191347D01*
X568547Y191443D01*
X568576Y191539D01*
X568609Y191633D01*
X568645Y191726D01*
X568685Y191817D01*
X568729Y191907D01*
X568776Y191995D01*
X568826Y192081D01*
X568880Y192165D01*
X568937Y192247D01*
X568997Y192326D01*
X569061Y192404D01*
X569127Y192478D01*
X569196Y192550D01*
X569268Y192619D01*
X569342Y192685D01*
X569420Y192749D01*
X569499Y192809D01*
X569581Y192866D01*
X569665Y192920D01*
X569751Y192970D01*
X569839Y193017D01*
X569929Y193061D01*
X570020Y193101D01*
X570113Y193137D01*
X570207Y193170D01*
X570303Y193199D01*
X570399Y193224D01*
X570496Y193245D01*
X570595Y193263D01*
X570693Y193276D01*
X570793Y193286D01*
X570892Y193292D01*
X570992Y193294D01*
X571092Y193292D01*
X571191Y193286D01*
X571291Y193276D01*
X571389Y193263D01*
X571488Y193245D01*
X571585Y193224D01*
X571681Y193199D01*
X571777Y193170D01*
X571871Y193137D01*
X571964Y193101D01*
X572055Y193061D01*
X572145Y193017D01*
X572233Y192970D01*
X572319Y192920D01*
X572403Y192866D01*
X572485Y192809D01*
X572564Y192749D01*
X572642Y192685D01*
X572716Y192619D01*
X572788Y192550D01*
X572857Y192478D01*
X572923Y192404D01*
X572987Y192326D01*
X573047Y192247D01*
X573104Y192165D01*
X573158Y192081D01*
X573208Y191995D01*
X573255Y191907D01*
X573299Y191817D01*
X573339Y191726D01*
X573375Y191633D01*
X573408Y191539D01*
X573437Y191443D01*
X573462Y191347D01*
X573483Y191250D01*
X573501Y191151D01*
X573514Y191053D01*
X573524Y190953D01*
X573530Y190854D01*
X573532Y190754D01*
X573530Y190654D01*
X573524Y190555D01*
X573514Y190455D01*
X573501Y190357D01*
X573483Y190258D01*
X573462Y190161D01*
X573437Y190065D01*
X573408Y189969D01*
X573375Y189875D01*
X573339Y189782D01*
X573299Y189691D01*
X573255Y189601D01*
X573208Y189513D01*
X573158Y189427D01*
X573104Y189343D01*
X573047Y189261D01*
X572987Y189182D01*
X572923Y189104D01*
X572857Y189030D01*
X572788Y188958D01*
X572716Y188889D01*
X572642Y188823D01*
X572564Y188759D01*
X572485Y188699D01*
X572403Y188642D01*
X572319Y188588D01*
X572233Y188538D01*
X572145Y188491D01*
X572055Y188447D01*
X571964Y188407D01*
X571871Y188371D01*
X571777Y188338D01*
X571681Y188309D01*
X571585Y188284D01*
X571488Y188263D01*
X571389Y188245D01*
X571291Y188232D01*
X571191Y188222D01*
X571092Y188216D01*
X570992Y188214D01*
X579882Y199009D02*
X579882Y202184D01*
X579880Y202295D01*
X579874Y202405D01*
X579865Y202516D01*
X579851Y202626D01*
X579834Y202735D01*
X579813Y202844D01*
X579788Y202952D01*
X579759Y203059D01*
X579727Y203165D01*
X579691Y203270D01*
X579651Y203373D01*
X579608Y203475D01*
X579561Y203576D01*
X579510Y203675D01*
X579457Y203772D01*
X579400Y203866D01*
X579339Y203959D01*
X579276Y204050D01*
X579209Y204139D01*
X579139Y204225D01*
X579066Y204308D01*
X578991Y204390D01*
X578913Y204468D01*
X578831Y204543D01*
X578748Y204616D01*
X578662Y204686D01*
X578573Y204753D01*
X578482Y204816D01*
X578389Y204877D01*
X578295Y204934D01*
X578198Y204987D01*
X578099Y205038D01*
X577998Y205085D01*
X577896Y205128D01*
X577793Y205168D01*
X577688Y205204D01*
X577582Y205236D01*
X577475Y205265D01*
X577367Y205290D01*
X577258Y205311D01*
X577149Y205328D01*
X577039Y205342D01*
X576928Y205351D01*
X576818Y205357D01*
X576707Y205359D01*
X576596Y205357D01*
X576486Y205351D01*
X576375Y205342D01*
X576265Y205328D01*
X576156Y205311D01*
X576047Y205290D01*
X575939Y205265D01*
X575832Y205236D01*
X575726Y205204D01*
X575621Y205168D01*
X575518Y205128D01*
X575416Y205085D01*
X575315Y205038D01*
X575216Y204987D01*
X575120Y204934D01*
X575025Y204877D01*
X574932Y204816D01*
X574841Y204753D01*
X574752Y204686D01*
X574666Y204616D01*
X574583Y204543D01*
X574501Y204468D01*
X574423Y204390D01*
X574348Y204308D01*
X574275Y204225D01*
X574205Y204139D01*
X574138Y204050D01*
X574075Y203959D01*
X574014Y203866D01*
X573957Y203772D01*
X573904Y203675D01*
X573853Y203576D01*
X573806Y203475D01*
X573763Y203373D01*
X573723Y203270D01*
X573687Y203165D01*
X573655Y203059D01*
X573626Y202952D01*
X573601Y202844D01*
X573580Y202735D01*
X573563Y202626D01*
X573549Y202516D01*
X573540Y202405D01*
X573534Y202295D01*
X573532Y202184D01*
X568452Y202819D02*
X568452Y199009D01*
X568452Y202819D02*
X568454Y202919D01*
X568460Y203018D01*
X568470Y203118D01*
X568483Y203216D01*
X568501Y203315D01*
X568522Y203412D01*
X568547Y203508D01*
X568576Y203604D01*
X568609Y203698D01*
X568645Y203791D01*
X568685Y203882D01*
X568729Y203972D01*
X568776Y204060D01*
X568826Y204146D01*
X568880Y204230D01*
X568937Y204312D01*
X568997Y204391D01*
X569061Y204469D01*
X569127Y204543D01*
X569196Y204615D01*
X569268Y204684D01*
X569342Y204750D01*
X569420Y204814D01*
X569499Y204874D01*
X569581Y204931D01*
X569665Y204985D01*
X569751Y205035D01*
X569839Y205082D01*
X569929Y205126D01*
X570020Y205166D01*
X570113Y205202D01*
X570207Y205235D01*
X570303Y205264D01*
X570399Y205289D01*
X570496Y205310D01*
X570595Y205328D01*
X570693Y205341D01*
X570793Y205351D01*
X570892Y205357D01*
X570992Y205359D01*
X571092Y205357D01*
X571191Y205351D01*
X571291Y205341D01*
X571389Y205328D01*
X571488Y205310D01*
X571585Y205289D01*
X571681Y205264D01*
X571777Y205235D01*
X571871Y205202D01*
X571964Y205166D01*
X572055Y205126D01*
X572145Y205082D01*
X572233Y205035D01*
X572319Y204985D01*
X572403Y204931D01*
X572485Y204874D01*
X572564Y204814D01*
X572642Y204750D01*
X572716Y204684D01*
X572788Y204615D01*
X572857Y204543D01*
X572923Y204469D01*
X572987Y204391D01*
X573047Y204312D01*
X573104Y204230D01*
X573158Y204146D01*
X573208Y204060D01*
X573255Y203972D01*
X573299Y203882D01*
X573339Y203791D01*
X573375Y203698D01*
X573408Y203604D01*
X573437Y203508D01*
X573462Y203412D01*
X573483Y203315D01*
X573501Y203216D01*
X573514Y203118D01*
X573524Y203018D01*
X573530Y202919D01*
X573532Y202819D01*
X573532Y200279D01*
X581152Y209931D02*
X581152Y215011D01*
X571310Y225934D02*
X571206Y225932D01*
X571101Y225926D01*
X570997Y225917D01*
X570894Y225904D01*
X570791Y225886D01*
X570689Y225866D01*
X570587Y225841D01*
X570487Y225813D01*
X570387Y225781D01*
X570289Y225745D01*
X570192Y225706D01*
X570097Y225664D01*
X570003Y225618D01*
X569911Y225568D01*
X569821Y225516D01*
X569733Y225460D01*
X569647Y225400D01*
X569563Y225338D01*
X569482Y225273D01*
X569403Y225205D01*
X569326Y225133D01*
X569253Y225060D01*
X569181Y224983D01*
X569113Y224904D01*
X569048Y224823D01*
X568986Y224739D01*
X568926Y224653D01*
X568870Y224565D01*
X568818Y224475D01*
X568768Y224383D01*
X568722Y224289D01*
X568680Y224194D01*
X568641Y224097D01*
X568605Y223999D01*
X568573Y223899D01*
X568545Y223799D01*
X568520Y223697D01*
X568500Y223595D01*
X568482Y223492D01*
X568469Y223389D01*
X568460Y223285D01*
X568454Y223180D01*
X568452Y223076D01*
X568454Y222958D01*
X568460Y222839D01*
X568469Y222721D01*
X568482Y222604D01*
X568500Y222487D01*
X568520Y222370D01*
X568545Y222254D01*
X568573Y222139D01*
X568606Y222026D01*
X568641Y221913D01*
X568681Y221801D01*
X568723Y221691D01*
X568770Y221582D01*
X568820Y221474D01*
X568873Y221369D01*
X568930Y221265D01*
X568990Y221163D01*
X569053Y221063D01*
X569120Y220965D01*
X569189Y220869D01*
X569262Y220776D01*
X569338Y220685D01*
X569416Y220596D01*
X569498Y220510D01*
X569582Y220427D01*
X569668Y220346D01*
X569758Y220269D01*
X569849Y220194D01*
X569943Y220122D01*
X570040Y220053D01*
X570138Y219988D01*
X570239Y219925D01*
X570342Y219866D01*
X570446Y219810D01*
X570552Y219758D01*
X570660Y219709D01*
X570769Y219664D01*
X570880Y219622D01*
X570992Y219584D01*
X573532Y224981D02*
X573457Y225057D01*
X573378Y225132D01*
X573297Y225203D01*
X573213Y225272D01*
X573127Y225337D01*
X573039Y225399D01*
X572949Y225459D01*
X572857Y225515D01*
X572762Y225568D01*
X572666Y225617D01*
X572568Y225663D01*
X572469Y225706D01*
X572368Y225745D01*
X572266Y225780D01*
X572163Y225812D01*
X572059Y225840D01*
X571954Y225865D01*
X571847Y225886D01*
X571741Y225903D01*
X571634Y225916D01*
X571526Y225925D01*
X571418Y225931D01*
X571310Y225933D01*
X573532Y224981D02*
X579882Y219583D01*
X579882Y225933D01*
D11*
X634238Y350774D02*
X634238Y363474D01*
X640588Y369824D01*
X653288Y369824D02*
X659638Y363474D01*
X640588Y369824D02*
X634238Y376174D01*
X634238Y388874D01*
X640588Y395224D01*
X653288Y395224D02*
X659638Y388874D01*
X659638Y376174D01*
X653288Y369824D01*
X653288Y344424D02*
X640588Y344424D01*
X634238Y350774D01*
X653288Y344424D02*
X659638Y350774D01*
X659638Y363474D01*
X653288Y395224D02*
X640588Y395224D01*
D12*
X632333Y346668D02*
X632333Y345059D01*
X632333Y346668D02*
X632331Y346733D01*
X632325Y346797D01*
X632315Y346861D01*
X632302Y346925D01*
X632284Y346987D01*
X632263Y347048D01*
X632239Y347108D01*
X632210Y347166D01*
X632178Y347223D01*
X632143Y347277D01*
X632105Y347329D01*
X632063Y347379D01*
X632019Y347426D01*
X631972Y347470D01*
X631922Y347512D01*
X631870Y347550D01*
X631816Y347585D01*
X631759Y347617D01*
X631701Y347646D01*
X631641Y347670D01*
X631580Y347691D01*
X631518Y347709D01*
X631454Y347722D01*
X631390Y347732D01*
X631326Y347738D01*
X631261Y347740D01*
X630724Y347740D01*
X630659Y347738D01*
X630595Y347732D01*
X630531Y347722D01*
X630467Y347709D01*
X630405Y347691D01*
X630344Y347670D01*
X630284Y347646D01*
X630226Y347617D01*
X630169Y347585D01*
X630115Y347550D01*
X630063Y347512D01*
X630013Y347470D01*
X629966Y347426D01*
X629922Y347379D01*
X629880Y347329D01*
X629842Y347277D01*
X629807Y347223D01*
X629775Y347166D01*
X629746Y347108D01*
X629722Y347048D01*
X629701Y346987D01*
X629683Y346925D01*
X629670Y346861D01*
X629660Y346797D01*
X629654Y346733D01*
X629652Y346668D01*
X629652Y345059D01*
X627507Y345059D01*
X627507Y347740D01*
X627507Y350277D02*
X632333Y351886D01*
X627507Y353495D01*
X628579Y356032D02*
X627507Y357372D01*
X632333Y357372D01*
X632333Y356032D02*
X632333Y358713D01*
D11*
X1013460Y333883D02*
X1013460Y321183D01*
X1007110Y314833D01*
X994410Y314833D02*
X988060Y321183D01*
X1007110Y314833D02*
X1013460Y308483D01*
X1013460Y295783D01*
X1007110Y289433D01*
X994410Y289433D02*
X988060Y295783D01*
X988060Y308483D01*
X994410Y314833D01*
X994410Y340233D02*
X1007110Y340233D01*
X1013460Y333883D01*
X994410Y340233D02*
X988060Y333883D01*
X988060Y321183D01*
X994410Y289433D02*
X1007110Y289433D01*
D12*
X1020191Y325944D02*
X1020191Y327553D01*
X1020189Y327618D01*
X1020183Y327682D01*
X1020173Y327746D01*
X1020160Y327810D01*
X1020142Y327872D01*
X1020121Y327933D01*
X1020097Y327993D01*
X1020068Y328051D01*
X1020036Y328108D01*
X1020001Y328162D01*
X1019963Y328214D01*
X1019921Y328264D01*
X1019877Y328311D01*
X1019830Y328355D01*
X1019780Y328397D01*
X1019728Y328435D01*
X1019674Y328470D01*
X1019617Y328502D01*
X1019559Y328531D01*
X1019499Y328555D01*
X1019438Y328576D01*
X1019376Y328594D01*
X1019312Y328607D01*
X1019248Y328617D01*
X1019184Y328623D01*
X1019119Y328625D01*
X1018582Y328625D01*
X1018517Y328623D01*
X1018453Y328617D01*
X1018389Y328607D01*
X1018325Y328594D01*
X1018263Y328576D01*
X1018202Y328555D01*
X1018142Y328531D01*
X1018084Y328502D01*
X1018027Y328470D01*
X1017973Y328435D01*
X1017921Y328397D01*
X1017871Y328355D01*
X1017824Y328311D01*
X1017780Y328264D01*
X1017738Y328214D01*
X1017700Y328162D01*
X1017665Y328108D01*
X1017633Y328051D01*
X1017604Y327993D01*
X1017580Y327933D01*
X1017559Y327872D01*
X1017541Y327810D01*
X1017528Y327746D01*
X1017518Y327682D01*
X1017512Y327618D01*
X1017510Y327553D01*
X1017510Y325944D01*
X1015365Y325944D01*
X1015365Y328625D01*
X1015365Y331162D02*
X1020191Y332771D01*
X1015365Y334380D01*
X1015365Y338391D02*
X1015367Y338459D01*
X1015373Y338526D01*
X1015382Y338593D01*
X1015395Y338660D01*
X1015412Y338725D01*
X1015433Y338790D01*
X1015457Y338853D01*
X1015485Y338915D01*
X1015516Y338975D01*
X1015550Y339033D01*
X1015588Y339089D01*
X1015628Y339144D01*
X1015672Y339195D01*
X1015719Y339244D01*
X1015768Y339291D01*
X1015819Y339335D01*
X1015874Y339375D01*
X1015930Y339413D01*
X1015988Y339447D01*
X1016048Y339478D01*
X1016110Y339506D01*
X1016173Y339530D01*
X1016238Y339551D01*
X1016303Y339568D01*
X1016370Y339581D01*
X1016437Y339590D01*
X1016504Y339596D01*
X1016572Y339598D01*
X1015365Y338391D02*
X1015367Y338313D01*
X1015373Y338235D01*
X1015383Y338158D01*
X1015396Y338081D01*
X1015414Y338005D01*
X1015435Y337930D01*
X1015460Y337856D01*
X1015489Y337784D01*
X1015521Y337713D01*
X1015557Y337644D01*
X1015596Y337576D01*
X1015639Y337511D01*
X1015685Y337448D01*
X1015734Y337387D01*
X1015786Y337329D01*
X1015841Y337274D01*
X1015898Y337221D01*
X1015958Y337172D01*
X1016021Y337125D01*
X1016086Y337082D01*
X1016152Y337042D01*
X1016221Y337005D01*
X1016292Y336972D01*
X1016364Y336942D01*
X1016438Y336916D01*
X1017510Y339196D02*
X1017461Y339245D01*
X1017409Y339292D01*
X1017354Y339335D01*
X1017297Y339376D01*
X1017238Y339414D01*
X1017177Y339448D01*
X1017114Y339479D01*
X1017050Y339507D01*
X1016984Y339531D01*
X1016918Y339551D01*
X1016850Y339568D01*
X1016781Y339581D01*
X1016712Y339590D01*
X1016642Y339596D01*
X1016572Y339598D01*
X1017510Y339196D02*
X1020191Y336917D01*
X1020191Y339598D01*
X714840Y43740D02*
X714840Y26190D01*
X788840Y26190D02*
X788840Y43740D01*
X716640Y43740D02*
X714840Y43740D01*
X787040Y43740D02*
X788840Y43740D01*
X714840Y3440D02*
X714840Y740D01*
X788840Y740D02*
X788840Y3440D01*
X788840Y740D02*
X714840Y740D01*
D18*
X737340Y56240D02*
X737342Y56303D01*
X737348Y56365D01*
X737358Y56427D01*
X737371Y56489D01*
X737389Y56549D01*
X737410Y56608D01*
X737435Y56666D01*
X737464Y56722D01*
X737496Y56776D01*
X737531Y56828D01*
X737569Y56877D01*
X737611Y56925D01*
X737655Y56969D01*
X737703Y57011D01*
X737752Y57049D01*
X737804Y57084D01*
X737858Y57116D01*
X737914Y57145D01*
X737972Y57170D01*
X738031Y57191D01*
X738091Y57209D01*
X738153Y57222D01*
X738215Y57232D01*
X738277Y57238D01*
X738340Y57240D01*
X738403Y57238D01*
X738465Y57232D01*
X738527Y57222D01*
X738589Y57209D01*
X738649Y57191D01*
X738708Y57170D01*
X738766Y57145D01*
X738822Y57116D01*
X738876Y57084D01*
X738928Y57049D01*
X738977Y57011D01*
X739025Y56969D01*
X739069Y56925D01*
X739111Y56877D01*
X739149Y56828D01*
X739184Y56776D01*
X739216Y56722D01*
X739245Y56666D01*
X739270Y56608D01*
X739291Y56549D01*
X739309Y56489D01*
X739322Y56427D01*
X739332Y56365D01*
X739338Y56303D01*
X739340Y56240D01*
X739338Y56177D01*
X739332Y56115D01*
X739322Y56053D01*
X739309Y55991D01*
X739291Y55931D01*
X739270Y55872D01*
X739245Y55814D01*
X739216Y55758D01*
X739184Y55704D01*
X739149Y55652D01*
X739111Y55603D01*
X739069Y55555D01*
X739025Y55511D01*
X738977Y55469D01*
X738928Y55431D01*
X738876Y55396D01*
X738822Y55364D01*
X738766Y55335D01*
X738708Y55310D01*
X738649Y55289D01*
X738589Y55271D01*
X738527Y55258D01*
X738465Y55248D01*
X738403Y55242D01*
X738340Y55240D01*
X738277Y55242D01*
X738215Y55248D01*
X738153Y55258D01*
X738091Y55271D01*
X738031Y55289D01*
X737972Y55310D01*
X737914Y55335D01*
X737858Y55364D01*
X737804Y55396D01*
X737752Y55431D01*
X737703Y55469D01*
X737655Y55511D01*
X737611Y55555D01*
X737569Y55603D01*
X737531Y55652D01*
X737496Y55704D01*
X737464Y55758D01*
X737435Y55814D01*
X737410Y55872D01*
X737389Y55931D01*
X737371Y55991D01*
X737358Y56053D01*
X737348Y56115D01*
X737342Y56177D01*
X737340Y56240D01*
D19*
X715804Y62239D02*
X715804Y71336D01*
X715804Y62239D02*
X715802Y62139D01*
X715796Y62040D01*
X715787Y61941D01*
X715774Y61842D01*
X715756Y61744D01*
X715736Y61647D01*
X715711Y61550D01*
X715683Y61455D01*
X715651Y61360D01*
X715616Y61267D01*
X715577Y61176D01*
X715534Y61086D01*
X715488Y60997D01*
X715439Y60911D01*
X715387Y60826D01*
X715331Y60744D01*
X715272Y60663D01*
X715210Y60585D01*
X715145Y60510D01*
X715078Y60437D01*
X715007Y60366D01*
X714934Y60299D01*
X714859Y60234D01*
X714781Y60172D01*
X714700Y60113D01*
X714618Y60057D01*
X714533Y60005D01*
X714447Y59956D01*
X714358Y59910D01*
X714268Y59867D01*
X714177Y59828D01*
X714084Y59793D01*
X713989Y59761D01*
X713894Y59733D01*
X713797Y59708D01*
X713700Y59688D01*
X713602Y59670D01*
X713503Y59657D01*
X713404Y59648D01*
X713305Y59642D01*
X713205Y59640D01*
X713205Y59639D02*
X711905Y59639D01*
X724656Y71335D02*
X724763Y71333D01*
X724869Y71327D01*
X724976Y71317D01*
X725082Y71304D01*
X725187Y71286D01*
X725292Y71265D01*
X725396Y71240D01*
X725498Y71211D01*
X725600Y71178D01*
X725701Y71142D01*
X725800Y71102D01*
X725897Y71059D01*
X725993Y71011D01*
X726087Y70961D01*
X726179Y70907D01*
X726269Y70850D01*
X726357Y70789D01*
X726443Y70725D01*
X726526Y70659D01*
X726607Y70589D01*
X726685Y70516D01*
X726761Y70440D01*
X726834Y70362D01*
X726904Y70281D01*
X726970Y70198D01*
X727034Y70112D01*
X727095Y70024D01*
X727152Y69934D01*
X727206Y69842D01*
X727256Y69748D01*
X727304Y69652D01*
X727347Y69555D01*
X727387Y69456D01*
X727423Y69355D01*
X727456Y69253D01*
X727485Y69151D01*
X727510Y69047D01*
X727531Y68942D01*
X727549Y68837D01*
X727562Y68731D01*
X727572Y68624D01*
X727578Y68518D01*
X727580Y68411D01*
X724656Y71336D02*
X724535Y71334D01*
X724414Y71328D01*
X724293Y71318D01*
X724173Y71305D01*
X724053Y71287D01*
X723934Y71266D01*
X723815Y71241D01*
X723698Y71212D01*
X723581Y71179D01*
X723465Y71142D01*
X723351Y71102D01*
X723238Y71058D01*
X723127Y71011D01*
X723017Y70960D01*
X722909Y70905D01*
X722802Y70847D01*
X722698Y70785D01*
X722596Y70721D01*
X722496Y70653D01*
X722398Y70581D01*
X722302Y70507D01*
X722209Y70430D01*
X722118Y70349D01*
X722030Y70266D01*
X721945Y70180D01*
X721862Y70091D01*
X721783Y70000D01*
X721706Y69906D01*
X721633Y69810D01*
X721562Y69711D01*
X721495Y69610D01*
X721432Y69507D01*
X721371Y69402D01*
X721314Y69295D01*
X721260Y69187D01*
X721210Y69076D01*
X721164Y68964D01*
X721121Y68851D01*
X721082Y68737D01*
X726605Y66136D02*
X726684Y66214D01*
X726760Y66295D01*
X726833Y66378D01*
X726903Y66463D01*
X726970Y66551D01*
X727034Y66641D01*
X727095Y66734D01*
X727152Y66828D01*
X727206Y66925D01*
X727257Y67023D01*
X727304Y67123D01*
X727347Y67225D01*
X727387Y67328D01*
X727424Y67432D01*
X727456Y67538D01*
X727485Y67645D01*
X727510Y67752D01*
X727531Y67861D01*
X727549Y67970D01*
X727562Y68080D01*
X727572Y68190D01*
X727578Y68300D01*
X727580Y68411D01*
X726605Y66137D02*
X721082Y59639D01*
X727580Y59639D01*
D12*
X893445Y688058D02*
X893445Y689130D01*
X893445Y688058D02*
X893443Y687993D01*
X893437Y687929D01*
X893427Y687865D01*
X893414Y687801D01*
X893396Y687739D01*
X893375Y687678D01*
X893351Y687618D01*
X893322Y687560D01*
X893290Y687503D01*
X893255Y687449D01*
X893217Y687397D01*
X893175Y687347D01*
X893131Y687300D01*
X893084Y687256D01*
X893034Y687214D01*
X892982Y687176D01*
X892928Y687141D01*
X892871Y687109D01*
X892813Y687080D01*
X892753Y687056D01*
X892692Y687035D01*
X892630Y687017D01*
X892566Y687004D01*
X892502Y686994D01*
X892438Y686988D01*
X892373Y686986D01*
X892373Y686985D02*
X889691Y686985D01*
X889626Y686987D01*
X889562Y686993D01*
X889498Y687003D01*
X889434Y687016D01*
X889372Y687034D01*
X889311Y687055D01*
X889251Y687080D01*
X889192Y687108D01*
X889136Y687140D01*
X889081Y687175D01*
X889029Y687213D01*
X888979Y687255D01*
X888932Y687299D01*
X888888Y687346D01*
X888846Y687396D01*
X888808Y687448D01*
X888773Y687503D01*
X888741Y687559D01*
X888713Y687618D01*
X888688Y687677D01*
X888667Y687739D01*
X888649Y687801D01*
X888636Y687865D01*
X888626Y687929D01*
X888620Y687993D01*
X888618Y688058D01*
X888619Y688058D02*
X888619Y689130D01*
X891300Y692658D02*
X891300Y694267D01*
X891300Y692658D02*
X891298Y692593D01*
X891292Y692529D01*
X891282Y692465D01*
X891269Y692401D01*
X891251Y692339D01*
X891230Y692278D01*
X891206Y692218D01*
X891177Y692160D01*
X891145Y692103D01*
X891110Y692049D01*
X891072Y691997D01*
X891030Y691947D01*
X890986Y691900D01*
X890939Y691856D01*
X890889Y691814D01*
X890837Y691776D01*
X890783Y691741D01*
X890726Y691709D01*
X890668Y691680D01*
X890608Y691656D01*
X890547Y691635D01*
X890485Y691617D01*
X890421Y691604D01*
X890357Y691594D01*
X890293Y691588D01*
X890228Y691586D01*
X889960Y691586D01*
X889960Y691585D02*
X889889Y691587D01*
X889817Y691593D01*
X889747Y691602D01*
X889677Y691615D01*
X889607Y691632D01*
X889539Y691653D01*
X889472Y691677D01*
X889406Y691705D01*
X889342Y691736D01*
X889279Y691771D01*
X889219Y691809D01*
X889160Y691850D01*
X889104Y691894D01*
X889050Y691941D01*
X888999Y691990D01*
X888951Y692043D01*
X888905Y692098D01*
X888863Y692155D01*
X888823Y692215D01*
X888787Y692276D01*
X888754Y692340D01*
X888725Y692405D01*
X888699Y692471D01*
X888676Y692539D01*
X888657Y692608D01*
X888642Y692678D01*
X888631Y692748D01*
X888623Y692819D01*
X888619Y692890D01*
X888619Y692962D01*
X888623Y693033D01*
X888631Y693104D01*
X888642Y693174D01*
X888657Y693244D01*
X888676Y693313D01*
X888699Y693381D01*
X888725Y693447D01*
X888754Y693512D01*
X888787Y693576D01*
X888823Y693637D01*
X888863Y693697D01*
X888905Y693754D01*
X888951Y693809D01*
X888999Y693862D01*
X889050Y693911D01*
X889104Y693958D01*
X889160Y694002D01*
X889219Y694043D01*
X889279Y694081D01*
X889342Y694116D01*
X889406Y694147D01*
X889472Y694175D01*
X889539Y694199D01*
X889607Y694220D01*
X889677Y694237D01*
X889747Y694250D01*
X889817Y694259D01*
X889889Y694265D01*
X889960Y694267D01*
X891300Y694267D01*
X891391Y694265D01*
X891482Y694259D01*
X891572Y694250D01*
X891663Y694236D01*
X891752Y694219D01*
X891840Y694198D01*
X891928Y694173D01*
X892015Y694144D01*
X892100Y694112D01*
X892184Y694077D01*
X892266Y694037D01*
X892346Y693995D01*
X892425Y693949D01*
X892501Y693899D01*
X892575Y693847D01*
X892648Y693791D01*
X892717Y693732D01*
X892784Y693671D01*
X892849Y693606D01*
X892910Y693539D01*
X892969Y693470D01*
X893025Y693397D01*
X893077Y693323D01*
X893127Y693247D01*
X893173Y693168D01*
X893215Y693088D01*
X893255Y693006D01*
X893290Y692922D01*
X893322Y692837D01*
X893351Y692750D01*
X893376Y692662D01*
X893397Y692574D01*
X893414Y692485D01*
X893428Y692394D01*
X893437Y692304D01*
X893443Y692213D01*
X893445Y692122D01*
X871855Y653824D02*
X871855Y652752D01*
X871853Y652687D01*
X871847Y652623D01*
X871837Y652559D01*
X871824Y652495D01*
X871806Y652433D01*
X871785Y652372D01*
X871761Y652312D01*
X871732Y652254D01*
X871700Y652197D01*
X871665Y652143D01*
X871627Y652091D01*
X871585Y652041D01*
X871541Y651994D01*
X871494Y651950D01*
X871444Y651908D01*
X871392Y651870D01*
X871338Y651835D01*
X871281Y651803D01*
X871223Y651774D01*
X871163Y651750D01*
X871102Y651729D01*
X871040Y651711D01*
X870976Y651698D01*
X870912Y651688D01*
X870848Y651682D01*
X870783Y651680D01*
X870783Y651679D02*
X868101Y651679D01*
X868036Y651681D01*
X867972Y651687D01*
X867908Y651697D01*
X867844Y651710D01*
X867782Y651728D01*
X867721Y651749D01*
X867661Y651774D01*
X867602Y651802D01*
X867546Y651834D01*
X867491Y651869D01*
X867439Y651907D01*
X867389Y651949D01*
X867342Y651993D01*
X867298Y652040D01*
X867256Y652090D01*
X867218Y652142D01*
X867183Y652197D01*
X867151Y652253D01*
X867123Y652312D01*
X867098Y652371D01*
X867077Y652433D01*
X867059Y652495D01*
X867046Y652559D01*
X867036Y652623D01*
X867030Y652687D01*
X867028Y652752D01*
X867029Y652752D02*
X867029Y653824D01*
X870514Y656279D02*
X870443Y656281D01*
X870371Y656287D01*
X870301Y656296D01*
X870231Y656309D01*
X870161Y656326D01*
X870093Y656347D01*
X870026Y656371D01*
X869960Y656399D01*
X869896Y656430D01*
X869833Y656465D01*
X869773Y656503D01*
X869714Y656544D01*
X869658Y656588D01*
X869604Y656635D01*
X869553Y656684D01*
X869505Y656737D01*
X869459Y656792D01*
X869417Y656849D01*
X869377Y656909D01*
X869341Y656970D01*
X869308Y657034D01*
X869279Y657099D01*
X869253Y657165D01*
X869230Y657233D01*
X869211Y657302D01*
X869196Y657372D01*
X869185Y657442D01*
X869177Y657513D01*
X869173Y657584D01*
X869173Y657656D01*
X869177Y657727D01*
X869185Y657798D01*
X869196Y657868D01*
X869211Y657938D01*
X869230Y658007D01*
X869253Y658075D01*
X869279Y658141D01*
X869308Y658206D01*
X869341Y658270D01*
X869377Y658331D01*
X869417Y658391D01*
X869459Y658448D01*
X869505Y658503D01*
X869553Y658556D01*
X869604Y658605D01*
X869658Y658652D01*
X869714Y658696D01*
X869773Y658737D01*
X869833Y658775D01*
X869896Y658810D01*
X869960Y658841D01*
X870026Y658869D01*
X870093Y658893D01*
X870161Y658914D01*
X870231Y658931D01*
X870301Y658944D01*
X870371Y658953D01*
X870443Y658959D01*
X870514Y658961D01*
X870585Y658959D01*
X870657Y658953D01*
X870727Y658944D01*
X870797Y658931D01*
X870867Y658914D01*
X870935Y658893D01*
X871002Y658869D01*
X871068Y658841D01*
X871132Y658810D01*
X871195Y658775D01*
X871255Y658737D01*
X871314Y658696D01*
X871370Y658652D01*
X871424Y658605D01*
X871475Y658556D01*
X871523Y658503D01*
X871569Y658448D01*
X871611Y658391D01*
X871651Y658331D01*
X871687Y658270D01*
X871720Y658206D01*
X871749Y658141D01*
X871775Y658075D01*
X871798Y658007D01*
X871817Y657938D01*
X871832Y657868D01*
X871843Y657798D01*
X871851Y657727D01*
X871855Y657656D01*
X871855Y657584D01*
X871851Y657513D01*
X871843Y657442D01*
X871832Y657372D01*
X871817Y657302D01*
X871798Y657233D01*
X871775Y657165D01*
X871749Y657099D01*
X871720Y657034D01*
X871687Y656970D01*
X871651Y656909D01*
X871611Y656849D01*
X871569Y656792D01*
X871523Y656737D01*
X871475Y656684D01*
X871424Y656635D01*
X871370Y656588D01*
X871314Y656544D01*
X871255Y656503D01*
X871195Y656465D01*
X871132Y656430D01*
X871068Y656399D01*
X871002Y656371D01*
X870935Y656347D01*
X870867Y656326D01*
X870797Y656309D01*
X870727Y656296D01*
X870657Y656287D01*
X870585Y656281D01*
X870514Y656279D01*
X868101Y656548D02*
X868036Y656550D01*
X867972Y656556D01*
X867908Y656566D01*
X867844Y656579D01*
X867782Y656597D01*
X867721Y656618D01*
X867661Y656642D01*
X867603Y656671D01*
X867546Y656703D01*
X867492Y656738D01*
X867440Y656776D01*
X867390Y656818D01*
X867343Y656862D01*
X867299Y656909D01*
X867257Y656959D01*
X867219Y657011D01*
X867184Y657065D01*
X867152Y657122D01*
X867123Y657180D01*
X867099Y657240D01*
X867078Y657301D01*
X867060Y657363D01*
X867047Y657427D01*
X867037Y657491D01*
X867031Y657555D01*
X867029Y657620D01*
X867031Y657685D01*
X867037Y657749D01*
X867047Y657813D01*
X867060Y657877D01*
X867078Y657939D01*
X867099Y658000D01*
X867123Y658060D01*
X867152Y658118D01*
X867184Y658175D01*
X867219Y658229D01*
X867257Y658281D01*
X867299Y658331D01*
X867343Y658378D01*
X867390Y658422D01*
X867440Y658464D01*
X867492Y658502D01*
X867546Y658537D01*
X867603Y658569D01*
X867661Y658598D01*
X867721Y658622D01*
X867782Y658643D01*
X867844Y658661D01*
X867908Y658674D01*
X867972Y658684D01*
X868036Y658690D01*
X868101Y658692D01*
X868166Y658690D01*
X868230Y658684D01*
X868294Y658674D01*
X868358Y658661D01*
X868420Y658643D01*
X868481Y658622D01*
X868541Y658598D01*
X868599Y658569D01*
X868656Y658537D01*
X868710Y658502D01*
X868762Y658464D01*
X868812Y658422D01*
X868859Y658378D01*
X868903Y658331D01*
X868945Y658281D01*
X868983Y658229D01*
X869018Y658175D01*
X869050Y658118D01*
X869079Y658060D01*
X869103Y658000D01*
X869124Y657939D01*
X869142Y657877D01*
X869155Y657813D01*
X869165Y657749D01*
X869171Y657685D01*
X869173Y657620D01*
X869171Y657555D01*
X869165Y657491D01*
X869155Y657427D01*
X869142Y657363D01*
X869124Y657301D01*
X869103Y657240D01*
X869079Y657180D01*
X869050Y657122D01*
X869018Y657065D01*
X868983Y657011D01*
X868945Y656959D01*
X868903Y656909D01*
X868859Y656862D01*
X868812Y656818D01*
X868762Y656776D01*
X868710Y656738D01*
X868656Y656703D01*
X868599Y656671D01*
X868541Y656642D01*
X868481Y656618D01*
X868420Y656597D01*
X868358Y656579D01*
X868294Y656566D01*
X868230Y656556D01*
X868166Y656550D01*
X868101Y656548D01*
X682879Y630710D02*
X682879Y629638D01*
X682877Y629573D01*
X682871Y629509D01*
X682861Y629445D01*
X682848Y629381D01*
X682830Y629319D01*
X682809Y629258D01*
X682785Y629198D01*
X682756Y629140D01*
X682724Y629083D01*
X682689Y629029D01*
X682651Y628977D01*
X682609Y628927D01*
X682565Y628880D01*
X682518Y628836D01*
X682468Y628794D01*
X682416Y628756D01*
X682362Y628721D01*
X682305Y628689D01*
X682247Y628660D01*
X682187Y628636D01*
X682126Y628615D01*
X682064Y628597D01*
X682000Y628584D01*
X681936Y628574D01*
X681872Y628568D01*
X681807Y628566D01*
X681807Y628565D02*
X679125Y628565D01*
X679060Y628567D01*
X678996Y628573D01*
X678932Y628583D01*
X678868Y628596D01*
X678806Y628614D01*
X678745Y628635D01*
X678685Y628660D01*
X678626Y628688D01*
X678570Y628720D01*
X678515Y628755D01*
X678463Y628793D01*
X678413Y628835D01*
X678366Y628879D01*
X678322Y628926D01*
X678280Y628976D01*
X678242Y629028D01*
X678207Y629083D01*
X678175Y629139D01*
X678147Y629198D01*
X678122Y629257D01*
X678101Y629319D01*
X678083Y629381D01*
X678070Y629445D01*
X678060Y629509D01*
X678054Y629573D01*
X678052Y629638D01*
X678053Y629638D02*
X678053Y630710D01*
X682879Y633166D02*
X682879Y634506D01*
X682877Y634577D01*
X682871Y634649D01*
X682862Y634719D01*
X682849Y634789D01*
X682832Y634859D01*
X682811Y634927D01*
X682787Y634994D01*
X682759Y635060D01*
X682728Y635124D01*
X682693Y635187D01*
X682655Y635247D01*
X682614Y635306D01*
X682570Y635362D01*
X682523Y635416D01*
X682474Y635467D01*
X682421Y635515D01*
X682366Y635561D01*
X682309Y635603D01*
X682249Y635643D01*
X682188Y635679D01*
X682124Y635712D01*
X682059Y635741D01*
X681993Y635767D01*
X681925Y635790D01*
X681856Y635809D01*
X681786Y635824D01*
X681716Y635835D01*
X681645Y635843D01*
X681574Y635847D01*
X681502Y635847D01*
X681431Y635843D01*
X681360Y635835D01*
X681290Y635824D01*
X681220Y635809D01*
X681151Y635790D01*
X681083Y635767D01*
X681017Y635741D01*
X680952Y635712D01*
X680888Y635679D01*
X680827Y635643D01*
X680767Y635603D01*
X680710Y635561D01*
X680655Y635515D01*
X680602Y635467D01*
X680553Y635416D01*
X680506Y635362D01*
X680462Y635306D01*
X680421Y635247D01*
X680383Y635187D01*
X680348Y635124D01*
X680317Y635060D01*
X680289Y634994D01*
X680265Y634927D01*
X680244Y634859D01*
X680227Y634789D01*
X680214Y634719D01*
X680205Y634649D01*
X680199Y634577D01*
X680197Y634506D01*
X678053Y634774D02*
X678053Y633166D01*
X678053Y634774D02*
X678055Y634839D01*
X678061Y634903D01*
X678071Y634967D01*
X678084Y635031D01*
X678102Y635093D01*
X678123Y635154D01*
X678147Y635214D01*
X678176Y635272D01*
X678208Y635329D01*
X678243Y635383D01*
X678281Y635435D01*
X678323Y635485D01*
X678367Y635532D01*
X678414Y635576D01*
X678464Y635618D01*
X678516Y635656D01*
X678570Y635691D01*
X678627Y635723D01*
X678685Y635752D01*
X678745Y635776D01*
X678806Y635797D01*
X678868Y635815D01*
X678932Y635828D01*
X678996Y635838D01*
X679060Y635844D01*
X679125Y635846D01*
X679190Y635844D01*
X679254Y635838D01*
X679318Y635828D01*
X679382Y635815D01*
X679444Y635797D01*
X679505Y635776D01*
X679565Y635752D01*
X679623Y635723D01*
X679680Y635691D01*
X679734Y635656D01*
X679786Y635618D01*
X679836Y635576D01*
X679883Y635532D01*
X679927Y635485D01*
X679969Y635435D01*
X680007Y635383D01*
X680042Y635329D01*
X680074Y635272D01*
X680103Y635214D01*
X680127Y635154D01*
X680148Y635093D01*
X680166Y635031D01*
X680179Y634967D01*
X680189Y634903D01*
X680195Y634839D01*
X680197Y634774D01*
X680198Y634774D02*
X680198Y633702D01*
X755269Y632488D02*
X755269Y631416D01*
X755267Y631351D01*
X755261Y631287D01*
X755251Y631223D01*
X755238Y631159D01*
X755220Y631097D01*
X755199Y631036D01*
X755175Y630976D01*
X755146Y630918D01*
X755114Y630861D01*
X755079Y630807D01*
X755041Y630755D01*
X754999Y630705D01*
X754955Y630658D01*
X754908Y630614D01*
X754858Y630572D01*
X754806Y630534D01*
X754752Y630499D01*
X754695Y630467D01*
X754637Y630438D01*
X754577Y630414D01*
X754516Y630393D01*
X754454Y630375D01*
X754390Y630362D01*
X754326Y630352D01*
X754262Y630346D01*
X754197Y630344D01*
X754197Y630343D02*
X751515Y630343D01*
X751450Y630345D01*
X751386Y630351D01*
X751322Y630361D01*
X751258Y630374D01*
X751196Y630392D01*
X751135Y630413D01*
X751075Y630438D01*
X751016Y630466D01*
X750960Y630498D01*
X750905Y630533D01*
X750853Y630571D01*
X750803Y630613D01*
X750756Y630657D01*
X750712Y630704D01*
X750670Y630754D01*
X750632Y630806D01*
X750597Y630861D01*
X750565Y630917D01*
X750537Y630976D01*
X750512Y631035D01*
X750491Y631097D01*
X750473Y631159D01*
X750460Y631223D01*
X750450Y631287D01*
X750444Y631351D01*
X750442Y631416D01*
X750443Y631416D02*
X750443Y632488D01*
X750443Y634944D02*
X750979Y634944D01*
X750443Y634944D02*
X750443Y637625D01*
X755269Y636284D01*
X749935Y506504D02*
X749935Y505432D01*
X749933Y505367D01*
X749927Y505303D01*
X749917Y505239D01*
X749904Y505175D01*
X749886Y505113D01*
X749865Y505052D01*
X749841Y504992D01*
X749812Y504934D01*
X749780Y504877D01*
X749745Y504823D01*
X749707Y504771D01*
X749665Y504721D01*
X749621Y504674D01*
X749574Y504630D01*
X749524Y504588D01*
X749472Y504550D01*
X749418Y504515D01*
X749361Y504483D01*
X749303Y504454D01*
X749243Y504430D01*
X749182Y504409D01*
X749120Y504391D01*
X749056Y504378D01*
X748992Y504368D01*
X748928Y504362D01*
X748863Y504360D01*
X748863Y504359D02*
X746181Y504359D01*
X746116Y504361D01*
X746052Y504367D01*
X745988Y504377D01*
X745924Y504390D01*
X745862Y504408D01*
X745801Y504429D01*
X745741Y504454D01*
X745682Y504482D01*
X745626Y504514D01*
X745571Y504549D01*
X745519Y504587D01*
X745469Y504629D01*
X745422Y504673D01*
X745378Y504720D01*
X745336Y504770D01*
X745298Y504822D01*
X745263Y504877D01*
X745231Y504933D01*
X745203Y504992D01*
X745178Y505051D01*
X745157Y505113D01*
X745139Y505175D01*
X745126Y505239D01*
X745116Y505303D01*
X745110Y505367D01*
X745108Y505432D01*
X745109Y505432D02*
X745109Y506504D01*
X749935Y508960D02*
X749935Y510568D01*
X749933Y510633D01*
X749927Y510697D01*
X749917Y510761D01*
X749904Y510825D01*
X749886Y510887D01*
X749865Y510948D01*
X749841Y511008D01*
X749812Y511066D01*
X749780Y511123D01*
X749745Y511177D01*
X749707Y511229D01*
X749665Y511279D01*
X749621Y511326D01*
X749574Y511370D01*
X749524Y511412D01*
X749472Y511450D01*
X749418Y511485D01*
X749361Y511517D01*
X749303Y511546D01*
X749243Y511570D01*
X749182Y511591D01*
X749120Y511609D01*
X749056Y511622D01*
X748992Y511632D01*
X748928Y511638D01*
X748863Y511640D01*
X748863Y511641D02*
X748326Y511641D01*
X748326Y511640D02*
X748261Y511638D01*
X748197Y511632D01*
X748133Y511622D01*
X748069Y511609D01*
X748007Y511591D01*
X747946Y511570D01*
X747886Y511546D01*
X747828Y511517D01*
X747771Y511485D01*
X747717Y511450D01*
X747665Y511412D01*
X747615Y511370D01*
X747568Y511326D01*
X747524Y511279D01*
X747482Y511229D01*
X747444Y511177D01*
X747409Y511123D01*
X747377Y511066D01*
X747348Y511008D01*
X747324Y510948D01*
X747303Y510887D01*
X747285Y510825D01*
X747272Y510761D01*
X747262Y510697D01*
X747256Y510633D01*
X747254Y510568D01*
X747254Y508960D01*
X745109Y508960D01*
X745109Y511641D01*
X841375Y506504D02*
X841375Y505432D01*
X841373Y505367D01*
X841367Y505303D01*
X841357Y505239D01*
X841344Y505175D01*
X841326Y505113D01*
X841305Y505052D01*
X841281Y504992D01*
X841252Y504934D01*
X841220Y504877D01*
X841185Y504823D01*
X841147Y504771D01*
X841105Y504721D01*
X841061Y504674D01*
X841014Y504630D01*
X840964Y504588D01*
X840912Y504550D01*
X840858Y504515D01*
X840801Y504483D01*
X840743Y504454D01*
X840683Y504430D01*
X840622Y504409D01*
X840560Y504391D01*
X840496Y504378D01*
X840432Y504368D01*
X840368Y504362D01*
X840303Y504360D01*
X840303Y504359D02*
X837621Y504359D01*
X837556Y504361D01*
X837492Y504367D01*
X837428Y504377D01*
X837364Y504390D01*
X837302Y504408D01*
X837241Y504429D01*
X837181Y504454D01*
X837122Y504482D01*
X837066Y504514D01*
X837011Y504549D01*
X836959Y504587D01*
X836909Y504629D01*
X836862Y504673D01*
X836818Y504720D01*
X836776Y504770D01*
X836738Y504822D01*
X836703Y504877D01*
X836671Y504933D01*
X836643Y504992D01*
X836618Y505051D01*
X836597Y505113D01*
X836579Y505175D01*
X836566Y505239D01*
X836556Y505303D01*
X836550Y505367D01*
X836548Y505432D01*
X836549Y505432D02*
X836549Y506504D01*
X838694Y508960D02*
X838694Y510568D01*
X838696Y510633D01*
X838702Y510697D01*
X838712Y510761D01*
X838725Y510825D01*
X838743Y510887D01*
X838764Y510948D01*
X838788Y511008D01*
X838817Y511066D01*
X838849Y511123D01*
X838884Y511177D01*
X838922Y511229D01*
X838964Y511279D01*
X839008Y511326D01*
X839055Y511370D01*
X839105Y511412D01*
X839157Y511450D01*
X839211Y511485D01*
X839268Y511517D01*
X839326Y511546D01*
X839386Y511570D01*
X839447Y511591D01*
X839509Y511609D01*
X839573Y511622D01*
X839637Y511632D01*
X839701Y511638D01*
X839766Y511640D01*
X839766Y511641D02*
X840034Y511641D01*
X840105Y511639D01*
X840177Y511633D01*
X840247Y511624D01*
X840317Y511611D01*
X840387Y511594D01*
X840455Y511573D01*
X840522Y511549D01*
X840588Y511521D01*
X840652Y511490D01*
X840715Y511455D01*
X840775Y511417D01*
X840834Y511376D01*
X840890Y511332D01*
X840944Y511285D01*
X840995Y511236D01*
X841043Y511183D01*
X841089Y511128D01*
X841131Y511071D01*
X841171Y511011D01*
X841207Y510950D01*
X841240Y510886D01*
X841269Y510821D01*
X841295Y510755D01*
X841318Y510687D01*
X841337Y510618D01*
X841352Y510548D01*
X841363Y510478D01*
X841371Y510407D01*
X841375Y510336D01*
X841375Y510264D01*
X841371Y510193D01*
X841363Y510122D01*
X841352Y510052D01*
X841337Y509982D01*
X841318Y509913D01*
X841295Y509845D01*
X841269Y509779D01*
X841240Y509714D01*
X841207Y509650D01*
X841171Y509589D01*
X841131Y509529D01*
X841089Y509472D01*
X841043Y509417D01*
X840995Y509364D01*
X840944Y509315D01*
X840890Y509268D01*
X840834Y509224D01*
X840775Y509183D01*
X840715Y509145D01*
X840652Y509110D01*
X840588Y509079D01*
X840522Y509051D01*
X840455Y509027D01*
X840387Y509006D01*
X840317Y508989D01*
X840247Y508976D01*
X840177Y508967D01*
X840105Y508961D01*
X840034Y508959D01*
X840034Y508960D02*
X838694Y508960D01*
X838603Y508962D01*
X838512Y508968D01*
X838422Y508977D01*
X838331Y508991D01*
X838242Y509008D01*
X838154Y509029D01*
X838066Y509054D01*
X837979Y509083D01*
X837894Y509115D01*
X837810Y509150D01*
X837728Y509190D01*
X837648Y509232D01*
X837569Y509278D01*
X837493Y509328D01*
X837419Y509380D01*
X837346Y509436D01*
X837277Y509495D01*
X837210Y509556D01*
X837145Y509621D01*
X837084Y509688D01*
X837025Y509757D01*
X836969Y509829D01*
X836917Y509904D01*
X836867Y509980D01*
X836821Y510059D01*
X836779Y510139D01*
X836739Y510221D01*
X836704Y510305D01*
X836672Y510390D01*
X836643Y510477D01*
X836618Y510564D01*
X836597Y510653D01*
X836580Y510742D01*
X836566Y510832D01*
X836557Y510923D01*
X836551Y511014D01*
X836549Y511105D01*
X810895Y506504D02*
X810895Y505432D01*
X810893Y505367D01*
X810887Y505303D01*
X810877Y505239D01*
X810864Y505175D01*
X810846Y505113D01*
X810825Y505052D01*
X810801Y504992D01*
X810772Y504934D01*
X810740Y504877D01*
X810705Y504823D01*
X810667Y504771D01*
X810625Y504721D01*
X810581Y504674D01*
X810534Y504630D01*
X810484Y504588D01*
X810432Y504550D01*
X810378Y504515D01*
X810321Y504483D01*
X810263Y504454D01*
X810203Y504430D01*
X810142Y504409D01*
X810080Y504391D01*
X810016Y504378D01*
X809952Y504368D01*
X809888Y504362D01*
X809823Y504360D01*
X809823Y504359D02*
X807141Y504359D01*
X807076Y504361D01*
X807012Y504367D01*
X806948Y504377D01*
X806884Y504390D01*
X806822Y504408D01*
X806761Y504429D01*
X806701Y504454D01*
X806642Y504482D01*
X806586Y504514D01*
X806531Y504549D01*
X806479Y504587D01*
X806429Y504629D01*
X806382Y504673D01*
X806338Y504720D01*
X806296Y504770D01*
X806258Y504822D01*
X806223Y504877D01*
X806191Y504933D01*
X806163Y504992D01*
X806138Y505051D01*
X806117Y505113D01*
X806099Y505175D01*
X806086Y505239D01*
X806076Y505303D01*
X806070Y505367D01*
X806068Y505432D01*
X806069Y505432D02*
X806069Y506504D01*
X807141Y508960D02*
X806069Y510300D01*
X810895Y510300D01*
X810895Y508960D02*
X810895Y511641D01*
X780415Y506504D02*
X780415Y505432D01*
X780413Y505367D01*
X780407Y505303D01*
X780397Y505239D01*
X780384Y505175D01*
X780366Y505113D01*
X780345Y505052D01*
X780321Y504992D01*
X780292Y504934D01*
X780260Y504877D01*
X780225Y504823D01*
X780187Y504771D01*
X780145Y504721D01*
X780101Y504674D01*
X780054Y504630D01*
X780004Y504588D01*
X779952Y504550D01*
X779898Y504515D01*
X779841Y504483D01*
X779783Y504454D01*
X779723Y504430D01*
X779662Y504409D01*
X779600Y504391D01*
X779536Y504378D01*
X779472Y504368D01*
X779408Y504362D01*
X779343Y504360D01*
X779343Y504359D02*
X776661Y504359D01*
X776596Y504361D01*
X776532Y504367D01*
X776468Y504377D01*
X776404Y504390D01*
X776342Y504408D01*
X776281Y504429D01*
X776221Y504454D01*
X776162Y504482D01*
X776106Y504514D01*
X776051Y504549D01*
X775999Y504587D01*
X775949Y504629D01*
X775902Y504673D01*
X775858Y504720D01*
X775816Y504770D01*
X775778Y504822D01*
X775743Y504877D01*
X775711Y504933D01*
X775683Y504992D01*
X775658Y505051D01*
X775637Y505113D01*
X775619Y505175D01*
X775606Y505239D01*
X775596Y505303D01*
X775590Y505367D01*
X775588Y505432D01*
X775589Y505432D02*
X775589Y506504D01*
X775589Y510434D02*
X775591Y510502D01*
X775597Y510569D01*
X775606Y510636D01*
X775619Y510703D01*
X775636Y510768D01*
X775657Y510833D01*
X775681Y510896D01*
X775709Y510958D01*
X775740Y511018D01*
X775774Y511076D01*
X775812Y511132D01*
X775852Y511187D01*
X775896Y511238D01*
X775943Y511287D01*
X775992Y511334D01*
X776043Y511378D01*
X776098Y511418D01*
X776154Y511456D01*
X776212Y511490D01*
X776272Y511521D01*
X776334Y511549D01*
X776397Y511573D01*
X776462Y511594D01*
X776527Y511611D01*
X776594Y511624D01*
X776661Y511633D01*
X776728Y511639D01*
X776796Y511641D01*
X775589Y510434D02*
X775591Y510356D01*
X775597Y510278D01*
X775607Y510201D01*
X775620Y510124D01*
X775638Y510048D01*
X775659Y509973D01*
X775684Y509899D01*
X775713Y509827D01*
X775745Y509756D01*
X775781Y509687D01*
X775820Y509619D01*
X775863Y509554D01*
X775909Y509491D01*
X775958Y509430D01*
X776010Y509372D01*
X776065Y509317D01*
X776122Y509264D01*
X776182Y509215D01*
X776245Y509168D01*
X776310Y509125D01*
X776376Y509085D01*
X776445Y509048D01*
X776516Y509015D01*
X776588Y508985D01*
X776662Y508959D01*
X777734Y511239D02*
X777685Y511288D01*
X777633Y511335D01*
X777578Y511378D01*
X777521Y511419D01*
X777462Y511457D01*
X777401Y511491D01*
X777338Y511522D01*
X777274Y511550D01*
X777208Y511574D01*
X777142Y511594D01*
X777074Y511611D01*
X777005Y511624D01*
X776936Y511633D01*
X776866Y511639D01*
X776796Y511641D01*
X777734Y511239D02*
X780415Y508960D01*
X780415Y511641D01*
X992505Y255028D02*
X997331Y255028D01*
X992505Y255028D02*
X992505Y256369D01*
X992507Y256440D01*
X992513Y256512D01*
X992522Y256582D01*
X992535Y256652D01*
X992552Y256722D01*
X992573Y256790D01*
X992597Y256857D01*
X992625Y256923D01*
X992656Y256987D01*
X992691Y257050D01*
X992729Y257110D01*
X992770Y257169D01*
X992814Y257225D01*
X992861Y257279D01*
X992910Y257330D01*
X992963Y257378D01*
X993018Y257424D01*
X993075Y257466D01*
X993135Y257506D01*
X993196Y257542D01*
X993260Y257575D01*
X993325Y257604D01*
X993391Y257630D01*
X993459Y257653D01*
X993528Y257672D01*
X993598Y257687D01*
X993668Y257698D01*
X993739Y257706D01*
X993810Y257710D01*
X993882Y257710D01*
X993953Y257706D01*
X994024Y257698D01*
X994094Y257687D01*
X994164Y257672D01*
X994233Y257653D01*
X994301Y257630D01*
X994367Y257604D01*
X994432Y257575D01*
X994496Y257542D01*
X994557Y257506D01*
X994617Y257466D01*
X994674Y257424D01*
X994729Y257378D01*
X994782Y257330D01*
X994831Y257279D01*
X994878Y257225D01*
X994922Y257169D01*
X994963Y257110D01*
X995001Y257050D01*
X995036Y256987D01*
X995067Y256923D01*
X995095Y256857D01*
X995119Y256790D01*
X995140Y256722D01*
X995157Y256652D01*
X995170Y256582D01*
X995179Y256512D01*
X995185Y256440D01*
X995187Y256369D01*
X995186Y256369D02*
X995186Y255028D01*
X995186Y256637D02*
X997331Y257709D01*
X993577Y260451D02*
X992505Y261791D01*
X997331Y261791D01*
X997331Y260451D02*
X997331Y263132D01*
X966851Y255028D02*
X962025Y255028D01*
X962025Y256369D01*
X962027Y256440D01*
X962033Y256512D01*
X962042Y256582D01*
X962055Y256652D01*
X962072Y256722D01*
X962093Y256790D01*
X962117Y256857D01*
X962145Y256923D01*
X962176Y256987D01*
X962211Y257050D01*
X962249Y257110D01*
X962290Y257169D01*
X962334Y257225D01*
X962381Y257279D01*
X962430Y257330D01*
X962483Y257378D01*
X962538Y257424D01*
X962595Y257466D01*
X962655Y257506D01*
X962716Y257542D01*
X962780Y257575D01*
X962845Y257604D01*
X962911Y257630D01*
X962979Y257653D01*
X963048Y257672D01*
X963118Y257687D01*
X963188Y257698D01*
X963259Y257706D01*
X963330Y257710D01*
X963402Y257710D01*
X963473Y257706D01*
X963544Y257698D01*
X963614Y257687D01*
X963684Y257672D01*
X963753Y257653D01*
X963821Y257630D01*
X963887Y257604D01*
X963952Y257575D01*
X964016Y257542D01*
X964077Y257506D01*
X964137Y257466D01*
X964194Y257424D01*
X964249Y257378D01*
X964302Y257330D01*
X964351Y257279D01*
X964398Y257225D01*
X964442Y257169D01*
X964483Y257110D01*
X964521Y257050D01*
X964556Y256987D01*
X964587Y256923D01*
X964615Y256857D01*
X964639Y256790D01*
X964660Y256722D01*
X964677Y256652D01*
X964690Y256582D01*
X964699Y256512D01*
X964705Y256440D01*
X964707Y256369D01*
X964706Y256369D02*
X964706Y255028D01*
X964706Y256637D02*
X966851Y257709D01*
X962025Y261925D02*
X962027Y261993D01*
X962033Y262060D01*
X962042Y262127D01*
X962055Y262194D01*
X962072Y262259D01*
X962093Y262324D01*
X962117Y262387D01*
X962145Y262449D01*
X962176Y262509D01*
X962210Y262567D01*
X962248Y262623D01*
X962288Y262678D01*
X962332Y262729D01*
X962379Y262778D01*
X962428Y262825D01*
X962479Y262869D01*
X962534Y262909D01*
X962590Y262947D01*
X962648Y262981D01*
X962708Y263012D01*
X962770Y263040D01*
X962833Y263064D01*
X962898Y263085D01*
X962963Y263102D01*
X963030Y263115D01*
X963097Y263124D01*
X963164Y263130D01*
X963232Y263132D01*
X962025Y261925D02*
X962027Y261847D01*
X962033Y261769D01*
X962043Y261692D01*
X962056Y261615D01*
X962074Y261539D01*
X962095Y261464D01*
X962120Y261390D01*
X962149Y261318D01*
X962181Y261247D01*
X962217Y261178D01*
X962256Y261110D01*
X962299Y261045D01*
X962345Y260982D01*
X962394Y260921D01*
X962446Y260863D01*
X962501Y260808D01*
X962558Y260755D01*
X962618Y260706D01*
X962681Y260659D01*
X962746Y260616D01*
X962812Y260576D01*
X962881Y260539D01*
X962952Y260506D01*
X963024Y260476D01*
X963098Y260450D01*
X964170Y262730D02*
X964121Y262779D01*
X964069Y262826D01*
X964014Y262869D01*
X963957Y262910D01*
X963898Y262948D01*
X963837Y262982D01*
X963774Y263013D01*
X963710Y263041D01*
X963644Y263065D01*
X963578Y263085D01*
X963510Y263102D01*
X963441Y263115D01*
X963372Y263124D01*
X963302Y263130D01*
X963232Y263132D01*
X964170Y262730D02*
X966851Y260451D01*
X966851Y263132D01*
X1003935Y254841D02*
X1003935Y253768D01*
X1003933Y253703D01*
X1003927Y253639D01*
X1003917Y253575D01*
X1003904Y253511D01*
X1003886Y253449D01*
X1003865Y253388D01*
X1003841Y253328D01*
X1003812Y253270D01*
X1003780Y253213D01*
X1003745Y253159D01*
X1003707Y253107D01*
X1003665Y253057D01*
X1003621Y253010D01*
X1003574Y252966D01*
X1003524Y252924D01*
X1003472Y252886D01*
X1003418Y252851D01*
X1003361Y252819D01*
X1003303Y252790D01*
X1003243Y252766D01*
X1003182Y252745D01*
X1003120Y252727D01*
X1003056Y252714D01*
X1002992Y252704D01*
X1002928Y252698D01*
X1002863Y252696D01*
X1000181Y252696D01*
X1000181Y252695D02*
X1000116Y252697D01*
X1000052Y252703D01*
X999988Y252713D01*
X999924Y252726D01*
X999862Y252744D01*
X999801Y252765D01*
X999741Y252790D01*
X999682Y252818D01*
X999626Y252850D01*
X999571Y252885D01*
X999519Y252923D01*
X999469Y252965D01*
X999422Y253009D01*
X999378Y253056D01*
X999336Y253106D01*
X999298Y253158D01*
X999263Y253213D01*
X999231Y253269D01*
X999203Y253328D01*
X999178Y253387D01*
X999157Y253449D01*
X999139Y253511D01*
X999126Y253575D01*
X999116Y253639D01*
X999110Y253703D01*
X999108Y253768D01*
X999109Y253768D02*
X999109Y254841D01*
X1000181Y257297D02*
X999109Y258637D01*
X1003935Y258637D01*
X1003935Y257297D02*
X1003935Y259978D01*
X1000181Y262783D02*
X999109Y264124D01*
X1003935Y264124D01*
X1003935Y265464D02*
X1003935Y262783D01*
D10*
X949706Y557530D02*
X956056Y563880D01*
X949706Y544830D02*
X956056Y538480D01*
X949706Y532130D01*
X949706Y519430D02*
X956056Y513080D01*
X949706Y506730D01*
X949706Y494030D02*
X956056Y487680D01*
X956056Y563880D02*
X994156Y563880D01*
X1000506Y557530D01*
X1000506Y544830D01*
X994156Y538480D01*
X1000506Y532130D01*
X1000506Y519430D01*
X994156Y513080D01*
X1000506Y506730D01*
X1000506Y494030D01*
X994156Y487680D01*
X994156Y538480D02*
X956056Y538480D01*
X956056Y513080D02*
X994156Y513080D01*
X994156Y487680D02*
X956056Y487680D01*
X949706Y494030D02*
X949706Y506730D01*
X949706Y519430D02*
X949706Y532130D01*
X949706Y544830D02*
X949706Y557530D01*
X956056Y487680D02*
X949706Y481330D01*
X949706Y468630D02*
X956056Y462280D01*
X994156Y487680D02*
X1000506Y481330D01*
X1000506Y468630D01*
X994156Y462280D01*
X956056Y462280D01*
X949706Y468630D02*
X949706Y481330D01*
D12*
X1007491Y529769D02*
X1016381Y529769D01*
X1016481Y529767D01*
X1016580Y529761D01*
X1016680Y529751D01*
X1016778Y529738D01*
X1016877Y529720D01*
X1016974Y529699D01*
X1017070Y529674D01*
X1017166Y529645D01*
X1017260Y529612D01*
X1017353Y529576D01*
X1017444Y529536D01*
X1017534Y529492D01*
X1017622Y529445D01*
X1017708Y529395D01*
X1017792Y529341D01*
X1017874Y529284D01*
X1017953Y529224D01*
X1018031Y529160D01*
X1018105Y529094D01*
X1018177Y529025D01*
X1018246Y528953D01*
X1018312Y528879D01*
X1018376Y528801D01*
X1018436Y528722D01*
X1018493Y528640D01*
X1018547Y528556D01*
X1018597Y528470D01*
X1018644Y528382D01*
X1018688Y528292D01*
X1018728Y528201D01*
X1018764Y528108D01*
X1018797Y528014D01*
X1018826Y527918D01*
X1018851Y527822D01*
X1018872Y527725D01*
X1018890Y527626D01*
X1018903Y527528D01*
X1018913Y527428D01*
X1018919Y527329D01*
X1018921Y527229D01*
X1018921Y525959D01*
X1018921Y537591D02*
X1007491Y537591D01*
X1007491Y534416D02*
X1007491Y540766D01*
X1007491Y548259D02*
X1018921Y544449D01*
X1018921Y552069D02*
X1007491Y548259D01*
X1016064Y551117D02*
X1016064Y545402D01*
X1012571Y561340D02*
X1012571Y563245D01*
X1018921Y563245D01*
X1018921Y559435D01*
X1018919Y559335D01*
X1018913Y559236D01*
X1018903Y559136D01*
X1018890Y559038D01*
X1018872Y558939D01*
X1018851Y558842D01*
X1018826Y558746D01*
X1018797Y558650D01*
X1018764Y558556D01*
X1018728Y558463D01*
X1018688Y558372D01*
X1018644Y558282D01*
X1018597Y558194D01*
X1018547Y558108D01*
X1018493Y558024D01*
X1018436Y557942D01*
X1018376Y557863D01*
X1018312Y557785D01*
X1018246Y557711D01*
X1018177Y557639D01*
X1018105Y557570D01*
X1018031Y557504D01*
X1017953Y557440D01*
X1017874Y557380D01*
X1017792Y557323D01*
X1017708Y557269D01*
X1017622Y557219D01*
X1017534Y557172D01*
X1017444Y557128D01*
X1017353Y557088D01*
X1017260Y557052D01*
X1017166Y557019D01*
X1017070Y556990D01*
X1016974Y556965D01*
X1016877Y556944D01*
X1016778Y556926D01*
X1016680Y556913D01*
X1016580Y556903D01*
X1016481Y556897D01*
X1016381Y556895D01*
X1010031Y556895D01*
X1009931Y556897D01*
X1009832Y556903D01*
X1009732Y556913D01*
X1009634Y556926D01*
X1009535Y556944D01*
X1009438Y556965D01*
X1009342Y556990D01*
X1009246Y557019D01*
X1009152Y557052D01*
X1009059Y557088D01*
X1008968Y557128D01*
X1008878Y557172D01*
X1008790Y557219D01*
X1008704Y557269D01*
X1008620Y557323D01*
X1008538Y557380D01*
X1008459Y557440D01*
X1008381Y557504D01*
X1008307Y557570D01*
X1008235Y557639D01*
X1008166Y557711D01*
X1008100Y557785D01*
X1008036Y557863D01*
X1007976Y557942D01*
X1007919Y558024D01*
X1007865Y558108D01*
X1007815Y558194D01*
X1007768Y558282D01*
X1007724Y558372D01*
X1007684Y558463D01*
X1007648Y558556D01*
X1007615Y558650D01*
X1007586Y558746D01*
X1007561Y558842D01*
X1007540Y558939D01*
X1007522Y559038D01*
X1007509Y559136D01*
X1007499Y559236D01*
X1007493Y559335D01*
X1007491Y559435D01*
X1007491Y563245D01*
D11*
X717296Y632992D02*
X717296Y641580D01*
X742696Y641580D02*
X742696Y632992D01*
X732680Y630198D02*
X727312Y630198D01*
D20*
X745998Y647446D03*
D21*
X748865Y638937D02*
X748865Y636185D01*
X748867Y636121D01*
X748873Y636057D01*
X748882Y635994D01*
X748896Y635932D01*
X748913Y635870D01*
X748934Y635810D01*
X748958Y635751D01*
X748986Y635693D01*
X749018Y635638D01*
X749052Y635584D01*
X749090Y635533D01*
X749131Y635483D01*
X749175Y635437D01*
X749221Y635393D01*
X749271Y635352D01*
X749322Y635314D01*
X749376Y635280D01*
X749431Y635248D01*
X749489Y635220D01*
X749548Y635196D01*
X749608Y635175D01*
X749670Y635158D01*
X749732Y635144D01*
X749795Y635135D01*
X749859Y635129D01*
X749923Y635127D01*
X749987Y635129D01*
X750051Y635135D01*
X750114Y635144D01*
X750176Y635158D01*
X750238Y635175D01*
X750298Y635196D01*
X750357Y635220D01*
X750415Y635248D01*
X750470Y635280D01*
X750524Y635314D01*
X750575Y635352D01*
X750625Y635393D01*
X750671Y635437D01*
X750715Y635483D01*
X750756Y635533D01*
X750794Y635584D01*
X750828Y635638D01*
X750860Y635693D01*
X750888Y635751D01*
X750912Y635810D01*
X750933Y635870D01*
X750950Y635932D01*
X750964Y635994D01*
X750973Y636057D01*
X750979Y636121D01*
X750981Y636185D01*
X750982Y636185D02*
X750982Y638937D01*
X753809Y638938D02*
X753869Y638936D01*
X753928Y638930D01*
X753988Y638921D01*
X754046Y638908D01*
X754103Y638891D01*
X754160Y638871D01*
X754215Y638847D01*
X754268Y638820D01*
X754320Y638790D01*
X754369Y638756D01*
X754416Y638719D01*
X754461Y638680D01*
X754504Y638637D01*
X754543Y638592D01*
X754580Y638545D01*
X754614Y638496D01*
X754644Y638444D01*
X754671Y638391D01*
X754695Y638336D01*
X754715Y638279D01*
X754732Y638222D01*
X754745Y638164D01*
X754754Y638104D01*
X754760Y638045D01*
X754762Y637985D01*
X753809Y638937D02*
X753742Y638935D01*
X753675Y638930D01*
X753609Y638921D01*
X753543Y638908D01*
X753479Y638892D01*
X753415Y638872D01*
X753352Y638848D01*
X753290Y638822D01*
X753231Y638792D01*
X753173Y638759D01*
X753116Y638722D01*
X753062Y638683D01*
X753010Y638641D01*
X752961Y638596D01*
X752914Y638548D01*
X752870Y638498D01*
X752828Y638445D01*
X752790Y638390D01*
X752754Y638334D01*
X752722Y638275D01*
X752693Y638215D01*
X752667Y638153D01*
X752645Y638090D01*
X754444Y637244D02*
X754485Y637286D01*
X754524Y637331D01*
X754561Y637377D01*
X754595Y637426D01*
X754626Y637476D01*
X754653Y637528D01*
X754678Y637582D01*
X754700Y637637D01*
X754719Y637693D01*
X754734Y637750D01*
X754746Y637808D01*
X754754Y637867D01*
X754759Y637926D01*
X754761Y637985D01*
X754444Y637244D02*
X752644Y635127D01*
X754761Y635127D01*
D12*
X851408Y372884D02*
X856234Y372884D01*
X851408Y372884D02*
X851408Y374225D01*
X851410Y374296D01*
X851416Y374368D01*
X851425Y374438D01*
X851438Y374508D01*
X851455Y374578D01*
X851476Y374646D01*
X851500Y374713D01*
X851528Y374779D01*
X851559Y374843D01*
X851594Y374906D01*
X851632Y374966D01*
X851673Y375025D01*
X851717Y375081D01*
X851764Y375135D01*
X851813Y375186D01*
X851866Y375234D01*
X851921Y375280D01*
X851978Y375322D01*
X852038Y375362D01*
X852099Y375398D01*
X852163Y375431D01*
X852228Y375460D01*
X852294Y375486D01*
X852362Y375509D01*
X852431Y375528D01*
X852501Y375543D01*
X852571Y375554D01*
X852642Y375562D01*
X852713Y375566D01*
X852785Y375566D01*
X852856Y375562D01*
X852927Y375554D01*
X852997Y375543D01*
X853067Y375528D01*
X853136Y375509D01*
X853204Y375486D01*
X853270Y375460D01*
X853335Y375431D01*
X853399Y375398D01*
X853460Y375362D01*
X853520Y375322D01*
X853577Y375280D01*
X853632Y375234D01*
X853685Y375186D01*
X853734Y375135D01*
X853781Y375081D01*
X853825Y375025D01*
X853866Y374966D01*
X853904Y374906D01*
X853939Y374843D01*
X853970Y374779D01*
X853998Y374713D01*
X854022Y374646D01*
X854043Y374578D01*
X854060Y374508D01*
X854073Y374438D01*
X854082Y374368D01*
X854088Y374296D01*
X854090Y374225D01*
X854089Y374225D02*
X854089Y372884D01*
X854089Y374493D02*
X856234Y375565D01*
X856234Y378307D02*
X856234Y379647D01*
X856232Y379718D01*
X856226Y379790D01*
X856217Y379860D01*
X856204Y379930D01*
X856187Y380000D01*
X856166Y380068D01*
X856142Y380135D01*
X856114Y380201D01*
X856083Y380265D01*
X856048Y380328D01*
X856010Y380388D01*
X855969Y380447D01*
X855925Y380503D01*
X855878Y380557D01*
X855829Y380608D01*
X855776Y380656D01*
X855721Y380702D01*
X855664Y380744D01*
X855604Y380784D01*
X855543Y380820D01*
X855479Y380853D01*
X855414Y380882D01*
X855348Y380908D01*
X855280Y380931D01*
X855211Y380950D01*
X855141Y380965D01*
X855071Y380976D01*
X855000Y380984D01*
X854929Y380988D01*
X854857Y380988D01*
X854786Y380984D01*
X854715Y380976D01*
X854645Y380965D01*
X854575Y380950D01*
X854506Y380931D01*
X854438Y380908D01*
X854372Y380882D01*
X854307Y380853D01*
X854243Y380820D01*
X854182Y380784D01*
X854122Y380744D01*
X854065Y380702D01*
X854010Y380656D01*
X853957Y380608D01*
X853908Y380557D01*
X853861Y380503D01*
X853817Y380447D01*
X853776Y380388D01*
X853738Y380328D01*
X853703Y380265D01*
X853672Y380201D01*
X853644Y380135D01*
X853620Y380068D01*
X853599Y380000D01*
X853582Y379930D01*
X853569Y379860D01*
X853560Y379790D01*
X853554Y379718D01*
X853552Y379647D01*
X851408Y379915D02*
X851408Y378307D01*
X851408Y379915D02*
X851410Y379980D01*
X851416Y380044D01*
X851426Y380108D01*
X851439Y380172D01*
X851457Y380234D01*
X851478Y380295D01*
X851502Y380355D01*
X851531Y380413D01*
X851563Y380470D01*
X851598Y380524D01*
X851636Y380576D01*
X851678Y380626D01*
X851722Y380673D01*
X851769Y380717D01*
X851819Y380759D01*
X851871Y380797D01*
X851925Y380832D01*
X851982Y380864D01*
X852040Y380893D01*
X852100Y380917D01*
X852161Y380938D01*
X852223Y380956D01*
X852287Y380969D01*
X852351Y380979D01*
X852415Y380985D01*
X852480Y380987D01*
X852545Y380985D01*
X852609Y380979D01*
X852673Y380969D01*
X852737Y380956D01*
X852799Y380938D01*
X852860Y380917D01*
X852920Y380893D01*
X852978Y380864D01*
X853035Y380832D01*
X853089Y380797D01*
X853141Y380759D01*
X853191Y380717D01*
X853238Y380673D01*
X853282Y380626D01*
X853324Y380576D01*
X853362Y380524D01*
X853397Y380470D01*
X853429Y380413D01*
X853458Y380355D01*
X853482Y380295D01*
X853503Y380234D01*
X853521Y380172D01*
X853534Y380108D01*
X853544Y380044D01*
X853550Y379980D01*
X853552Y379915D01*
X853553Y379915D02*
X853553Y378843D01*
X674999Y291847D02*
X675067Y291214D01*
X675150Y290584D01*
X675249Y289956D01*
X675362Y289330D01*
X675490Y288708D01*
X675632Y288088D01*
X675790Y287472D01*
X675962Y286860D01*
X676149Y286252D01*
X676350Y285649D01*
X676565Y285051D01*
X676795Y284458D01*
X677038Y283871D01*
X677296Y283290D01*
X677567Y282715D01*
X677852Y282146D01*
X678151Y281585D01*
X678463Y281031D01*
X678788Y280484D01*
X679125Y279946D01*
X679476Y279416D01*
X679839Y278894D01*
X680215Y278381D01*
X680602Y277877D01*
X674999Y291846D02*
X674945Y292495D01*
X674907Y293144D01*
X674885Y293795D01*
X674878Y294446D01*
X674887Y295097D01*
X674913Y295747D01*
X674954Y296397D01*
X675011Y297045D01*
X675084Y297692D01*
X675172Y298337D01*
X675277Y298980D01*
X675397Y299620D01*
X675532Y300256D01*
X675683Y300890D01*
X675850Y301519D01*
X676031Y302144D01*
X676228Y302765D01*
X676440Y303380D01*
X676667Y303990D01*
X676909Y304595D01*
X677166Y305193D01*
X677437Y305785D01*
X677722Y306370D01*
X678022Y306948D01*
X678335Y307518D01*
X678663Y308081D01*
X679004Y308635D01*
X679358Y309181D01*
X679726Y309718D01*
X680107Y310247D01*
X680500Y310765D01*
X680906Y311274D01*
X681324Y311773D01*
X681755Y312261D01*
X682197Y312739D01*
X682651Y313206D01*
X683116Y313661D01*
X683592Y314105D01*
X684078Y314538D01*
X684575Y314958D01*
X685082Y315366D01*
X685599Y315762D01*
X686126Y316145D01*
X686662Y316515D01*
X687206Y316872D01*
X687759Y317215D01*
X688320Y317545D01*
X688890Y317861D01*
X689466Y318163D01*
X690050Y318450D01*
X690641Y318724D01*
X691238Y318983D01*
X691842Y319227D01*
X692451Y319457D01*
X693065Y319671D01*
X693685Y319871D01*
X709411Y319871D02*
X710026Y319672D01*
X710637Y319460D01*
X711242Y319232D01*
X711841Y318990D01*
X712434Y318733D01*
X713021Y318462D01*
X713601Y318177D01*
X714174Y317878D01*
X714740Y317565D01*
X715298Y317238D01*
X715848Y316898D01*
X716389Y316545D01*
X716922Y316179D01*
X717445Y315800D01*
X717960Y315408D01*
X718464Y315005D01*
X718959Y314588D01*
X719444Y314161D01*
X719918Y313721D01*
X720381Y313270D01*
X720833Y312808D01*
X721274Y312335D01*
X721703Y311852D01*
X722120Y311358D01*
X722526Y310855D01*
X722919Y310342D01*
X723299Y309819D01*
X723667Y309287D01*
X724021Y308747D01*
X724363Y308198D01*
X724691Y307641D01*
X725005Y307076D01*
X725306Y306504D01*
X725593Y305925D01*
X725865Y305338D01*
X726124Y304746D01*
X726367Y304147D01*
X726597Y303543D01*
X726811Y302933D01*
X727011Y302318D01*
X727196Y301699D01*
X727366Y301075D01*
X727520Y300447D01*
X727659Y299816D01*
X727783Y299182D01*
X727892Y298544D01*
X727985Y297905D01*
X728062Y297263D01*
X728124Y296620D01*
X728171Y295975D01*
X728201Y295329D01*
X728216Y294683D01*
X728216Y294037D01*
X728199Y293390D01*
X728167Y292745D01*
X728120Y292100D01*
X728057Y291457D01*
X727978Y290815D01*
X727884Y290176D01*
X727774Y289539D01*
X727649Y288904D01*
X727508Y288273D01*
X727352Y287646D01*
X727181Y287023D01*
X726995Y286404D01*
X726794Y285789D01*
X726579Y285180D01*
X726348Y284576D01*
X726103Y283978D01*
X725844Y283386D01*
X725570Y282800D01*
X725282Y282221D01*
X724980Y281650D01*
X724665Y281085D01*
X724336Y280529D01*
X723993Y279981D01*
X723637Y279441D01*
X723269Y278910D01*
X722887Y278388D01*
X722493Y277876D01*
X680603Y277876D01*
X679011Y291846D02*
X674999Y291846D01*
X698685Y291846D02*
X704411Y291846D01*
X724085Y291846D02*
X728097Y291846D01*
X728599Y325120D02*
X728599Y330200D01*
X728601Y330311D01*
X728607Y330421D01*
X728616Y330532D01*
X728630Y330642D01*
X728647Y330751D01*
X728668Y330860D01*
X728693Y330968D01*
X728722Y331075D01*
X728754Y331181D01*
X728790Y331286D01*
X728830Y331389D01*
X728873Y331491D01*
X728920Y331592D01*
X728971Y331691D01*
X729024Y331788D01*
X729081Y331882D01*
X729142Y331975D01*
X729205Y332066D01*
X729272Y332155D01*
X729342Y332241D01*
X729415Y332324D01*
X729490Y332406D01*
X729568Y332484D01*
X729650Y332559D01*
X729733Y332632D01*
X729819Y332702D01*
X729908Y332769D01*
X729999Y332832D01*
X730092Y332893D01*
X730187Y332950D01*
X730283Y333003D01*
X730382Y333054D01*
X730483Y333101D01*
X730585Y333144D01*
X730688Y333184D01*
X730793Y333220D01*
X730899Y333252D01*
X731006Y333281D01*
X731114Y333306D01*
X731223Y333327D01*
X731332Y333344D01*
X731442Y333358D01*
X731553Y333367D01*
X731663Y333373D01*
X731774Y333375D01*
X731885Y333373D01*
X731995Y333367D01*
X732106Y333358D01*
X732216Y333344D01*
X732325Y333327D01*
X732434Y333306D01*
X732542Y333281D01*
X732649Y333252D01*
X732755Y333220D01*
X732860Y333184D01*
X732963Y333144D01*
X733065Y333101D01*
X733166Y333054D01*
X733265Y333003D01*
X733362Y332950D01*
X733456Y332893D01*
X733549Y332832D01*
X733640Y332769D01*
X733729Y332702D01*
X733815Y332632D01*
X733898Y332559D01*
X733980Y332484D01*
X734058Y332406D01*
X734133Y332324D01*
X734206Y332241D01*
X734276Y332155D01*
X734343Y332066D01*
X734406Y331975D01*
X734467Y331882D01*
X734524Y331788D01*
X734577Y331691D01*
X734628Y331592D01*
X734675Y331491D01*
X734718Y331389D01*
X734758Y331286D01*
X734794Y331181D01*
X734826Y331075D01*
X734855Y330968D01*
X734880Y330860D01*
X734901Y330751D01*
X734918Y330642D01*
X734932Y330532D01*
X734941Y330421D01*
X734947Y330311D01*
X734949Y330200D01*
X734949Y325120D01*
X734947Y325009D01*
X734941Y324899D01*
X734932Y324788D01*
X734918Y324678D01*
X734901Y324569D01*
X734880Y324460D01*
X734855Y324352D01*
X734826Y324245D01*
X734794Y324139D01*
X734758Y324034D01*
X734718Y323931D01*
X734675Y323829D01*
X734628Y323728D01*
X734577Y323629D01*
X734524Y323532D01*
X734467Y323438D01*
X734406Y323345D01*
X734343Y323254D01*
X734276Y323165D01*
X734206Y323079D01*
X734133Y322996D01*
X734058Y322914D01*
X733980Y322836D01*
X733898Y322761D01*
X733815Y322688D01*
X733729Y322618D01*
X733640Y322551D01*
X733549Y322488D01*
X733456Y322427D01*
X733362Y322370D01*
X733265Y322317D01*
X733166Y322266D01*
X733065Y322219D01*
X732963Y322176D01*
X732860Y322136D01*
X732755Y322100D01*
X732649Y322068D01*
X732542Y322039D01*
X732434Y322014D01*
X732325Y321993D01*
X732216Y321976D01*
X732106Y321962D01*
X731995Y321953D01*
X731885Y321947D01*
X731774Y321945D01*
X731663Y321947D01*
X731553Y321953D01*
X731442Y321962D01*
X731332Y321976D01*
X731223Y321993D01*
X731114Y322014D01*
X731006Y322039D01*
X730899Y322068D01*
X730793Y322100D01*
X730688Y322136D01*
X730585Y322176D01*
X730483Y322219D01*
X730382Y322266D01*
X730283Y322317D01*
X730187Y322370D01*
X730092Y322427D01*
X729999Y322488D01*
X729908Y322551D01*
X729819Y322618D01*
X729733Y322688D01*
X729650Y322761D01*
X729568Y322836D01*
X729490Y322914D01*
X729415Y322996D01*
X729342Y323079D01*
X729272Y323165D01*
X729205Y323254D01*
X729142Y323345D01*
X729081Y323438D01*
X729024Y323533D01*
X728971Y323629D01*
X728920Y323728D01*
X728873Y323829D01*
X728830Y323931D01*
X728790Y324034D01*
X728754Y324139D01*
X728722Y324245D01*
X728693Y324352D01*
X728668Y324460D01*
X728647Y324569D01*
X728630Y324678D01*
X728616Y324788D01*
X728607Y324899D01*
X728601Y325009D01*
X728599Y325120D01*
X733679Y324485D02*
X736219Y321945D01*
X739660Y330835D02*
X742835Y333375D01*
X742835Y321945D01*
X739660Y321945D02*
X746010Y321945D01*
D11*
X1033272Y321310D02*
X1033272Y334010D01*
X1039622Y340360D01*
X1052322Y340360D02*
X1058672Y334010D01*
X1033272Y295910D02*
X1039622Y289560D01*
X1033272Y295910D02*
X1033272Y308610D01*
X1039622Y314960D01*
X1052322Y314960D02*
X1058672Y308610D01*
X1058672Y295910D01*
X1052322Y289560D01*
X1039622Y314960D02*
X1033272Y321310D01*
X1052322Y314960D02*
X1058672Y321310D01*
X1058672Y334010D01*
X1033272Y257810D02*
X1033272Y245110D01*
X1033272Y257810D02*
X1039622Y264160D01*
X1052322Y264160D02*
X1058672Y257810D01*
X1039622Y264160D02*
X1033272Y270510D01*
X1033272Y283210D01*
X1039622Y289560D01*
X1052322Y289560D02*
X1058672Y283210D01*
X1058672Y270510D01*
X1052322Y264160D01*
X1052322Y238760D02*
X1039622Y238760D01*
X1033272Y245110D01*
X1052322Y238760D02*
X1058672Y245110D01*
X1058672Y257810D01*
X1052322Y340360D02*
X1039622Y340360D01*
D12*
X649732Y299986D02*
X644906Y299986D01*
X644906Y301327D01*
X644908Y301398D01*
X644914Y301470D01*
X644923Y301540D01*
X644936Y301610D01*
X644953Y301680D01*
X644974Y301748D01*
X644998Y301815D01*
X645026Y301881D01*
X645057Y301945D01*
X645092Y302008D01*
X645130Y302068D01*
X645171Y302127D01*
X645215Y302183D01*
X645262Y302237D01*
X645311Y302288D01*
X645364Y302336D01*
X645419Y302382D01*
X645476Y302424D01*
X645536Y302464D01*
X645597Y302500D01*
X645661Y302533D01*
X645726Y302562D01*
X645792Y302588D01*
X645860Y302611D01*
X645929Y302630D01*
X645999Y302645D01*
X646069Y302656D01*
X646140Y302664D01*
X646211Y302668D01*
X646283Y302668D01*
X646354Y302664D01*
X646425Y302656D01*
X646495Y302645D01*
X646565Y302630D01*
X646634Y302611D01*
X646702Y302588D01*
X646768Y302562D01*
X646833Y302533D01*
X646897Y302500D01*
X646958Y302464D01*
X647018Y302424D01*
X647075Y302382D01*
X647130Y302336D01*
X647183Y302288D01*
X647232Y302237D01*
X647279Y302183D01*
X647323Y302127D01*
X647364Y302068D01*
X647402Y302008D01*
X647437Y301945D01*
X647468Y301881D01*
X647496Y301815D01*
X647520Y301748D01*
X647541Y301680D01*
X647558Y301610D01*
X647571Y301540D01*
X647580Y301470D01*
X647586Y301398D01*
X647588Y301327D01*
X647587Y301327D02*
X647587Y299986D01*
X647587Y301595D02*
X649732Y302667D01*
X648660Y305409D02*
X644906Y306481D01*
X648660Y305409D02*
X648660Y308090D01*
X647587Y307286D02*
X649732Y307286D01*
X605740Y700928D02*
X605740Y743928D01*
X605740Y700928D02*
X605740Y686928D01*
X605740Y643928D01*
X567740Y643928D01*
X567740Y672928D01*
X567740Y683928D01*
X567740Y703928D01*
X567740Y714928D01*
X567740Y743928D01*
X605740Y743928D01*
X605740Y700928D02*
X598740Y700928D01*
X598740Y686928D01*
X605740Y686928D01*
X570740Y714928D02*
X567740Y714928D01*
X570740Y714928D02*
X570740Y672928D01*
X567740Y672928D01*
X567740Y703928D02*
X516740Y703928D01*
X516740Y683928D01*
X567740Y683928D01*
D19*
X557146Y733191D02*
X557144Y733290D01*
X557138Y733390D01*
X557129Y733489D01*
X557116Y733587D01*
X557099Y733685D01*
X557078Y733783D01*
X557053Y733879D01*
X557025Y733974D01*
X556993Y734068D01*
X556958Y734161D01*
X556919Y734253D01*
X556876Y734343D01*
X556831Y734431D01*
X556781Y734518D01*
X556729Y734602D01*
X556673Y734685D01*
X556615Y734765D01*
X556553Y734843D01*
X556488Y734918D01*
X556420Y734991D01*
X556350Y735061D01*
X556277Y735129D01*
X556202Y735194D01*
X556124Y735256D01*
X556044Y735314D01*
X555961Y735370D01*
X555877Y735422D01*
X555790Y735472D01*
X555702Y735517D01*
X555612Y735560D01*
X555520Y735599D01*
X555427Y735634D01*
X555333Y735666D01*
X555238Y735694D01*
X555142Y735719D01*
X555044Y735740D01*
X554946Y735757D01*
X554848Y735770D01*
X554749Y735779D01*
X554649Y735785D01*
X554550Y735787D01*
X557146Y733191D02*
X557144Y733047D01*
X557138Y732902D01*
X557129Y732758D01*
X557116Y732615D01*
X557099Y732471D01*
X557078Y732328D01*
X557053Y732186D01*
X557025Y732045D01*
X556993Y731904D01*
X556957Y731764D01*
X556918Y731625D01*
X556875Y731487D01*
X556828Y731351D01*
X556778Y731215D01*
X556724Y731081D01*
X556667Y730949D01*
X556606Y730818D01*
X556542Y730689D01*
X556474Y730561D01*
X556404Y730435D01*
X556329Y730311D01*
X556252Y730190D01*
X556171Y730070D01*
X556088Y729952D01*
X556001Y729837D01*
X555911Y729724D01*
X555818Y729613D01*
X555723Y729505D01*
X555624Y729399D01*
X555523Y729296D01*
X548058Y729621D02*
X547959Y729623D01*
X547859Y729629D01*
X547760Y729638D01*
X547662Y729651D01*
X547564Y729668D01*
X547466Y729689D01*
X547370Y729714D01*
X547275Y729742D01*
X547181Y729774D01*
X547088Y729809D01*
X546996Y729848D01*
X546906Y729891D01*
X546818Y729936D01*
X546731Y729986D01*
X546647Y730038D01*
X546564Y730094D01*
X546484Y730152D01*
X546406Y730214D01*
X546331Y730279D01*
X546258Y730347D01*
X546188Y730417D01*
X546120Y730490D01*
X546055Y730565D01*
X545993Y730643D01*
X545935Y730723D01*
X545879Y730806D01*
X545827Y730890D01*
X545777Y730977D01*
X545732Y731065D01*
X545689Y731155D01*
X545650Y731247D01*
X545615Y731340D01*
X545583Y731434D01*
X545555Y731529D01*
X545530Y731625D01*
X545509Y731723D01*
X545492Y731821D01*
X545479Y731919D01*
X545470Y732018D01*
X545464Y732118D01*
X545462Y732217D01*
X545464Y732353D01*
X545470Y732489D01*
X545479Y732625D01*
X545492Y732761D01*
X545510Y732896D01*
X545530Y733030D01*
X545555Y733164D01*
X545583Y733298D01*
X545616Y733430D01*
X545651Y733561D01*
X545691Y733692D01*
X545734Y733821D01*
X545780Y733949D01*
X545831Y734075D01*
X545884Y734201D01*
X545942Y734324D01*
X546002Y734446D01*
X546066Y734566D01*
X546134Y734685D01*
X546204Y734801D01*
X546278Y734915D01*
X546355Y735028D01*
X546436Y735138D01*
X550330Y730918D02*
X550277Y730832D01*
X550220Y730748D01*
X550161Y730666D01*
X550098Y730586D01*
X550032Y730509D01*
X549964Y730434D01*
X549892Y730362D01*
X549818Y730293D01*
X549741Y730227D01*
X549662Y730164D01*
X549580Y730104D01*
X549496Y730047D01*
X549410Y729993D01*
X549322Y729943D01*
X549232Y729896D01*
X549141Y729852D01*
X549047Y729813D01*
X548953Y729776D01*
X548857Y729744D01*
X548759Y729715D01*
X548661Y729690D01*
X548562Y729669D01*
X548462Y729651D01*
X548362Y729638D01*
X548261Y729628D01*
X548159Y729622D01*
X548058Y729620D01*
X552278Y734489D02*
X552331Y734575D01*
X552388Y734659D01*
X552447Y734741D01*
X552510Y734821D01*
X552576Y734898D01*
X552644Y734973D01*
X552716Y735045D01*
X552790Y735114D01*
X552867Y735180D01*
X552946Y735243D01*
X553028Y735303D01*
X553112Y735360D01*
X553198Y735414D01*
X553286Y735464D01*
X553376Y735511D01*
X553467Y735555D01*
X553561Y735594D01*
X553655Y735631D01*
X553751Y735663D01*
X553849Y735692D01*
X553947Y735717D01*
X554046Y735738D01*
X554146Y735756D01*
X554246Y735769D01*
X554347Y735779D01*
X554449Y735785D01*
X554550Y735787D01*
X552278Y734489D02*
X550330Y730919D01*
X548058Y740345D02*
X545462Y743590D01*
X557146Y743590D01*
X557146Y740345D02*
X557146Y746836D01*
M02*
