G04 EAGLE Gerber RS-274X export*
G75*
%MOMM*%
%FSLAX34Y34*%
%LPD*%
%INSoldermask Top*%
%IPPOS*%
%AMOC8*
5,1,8,0,0,1.08239X$1,22.5*%
G01*
%ADD10C,3.203200*%
%ADD11C,2.082800*%
%ADD12C,2.946400*%
%ADD13R,2.082800X2.082800*%
%ADD14C,1.727200*%
%ADD15R,0.503200X1.653200*%
%ADD16R,1.653200X0.503200*%
%ADD17R,1.203200X2.003200*%
%ADD18R,0.603200X1.553200*%
%ADD19C,1.261200*%
%ADD20C,1.211200*%
%ADD21R,1.703200X1.753200*%
%ADD22R,1.403200X1.003200*%
%ADD23P,2.034460X8X292.500000*%
%ADD24R,0.753200X1.403200*%
%ADD25P,1.649562X8X22.500000*%
%ADD26C,1.625600*%
%ADD27C,2.743200*%
%ADD28C,0.959600*%

G36*
X787840Y6486D02*
X787840Y6486D01*
X787841Y6485D01*
X788953Y6611D01*
X788954Y6611D01*
X790011Y6981D01*
X790012Y6981D01*
X790960Y7577D01*
X790960Y7578D01*
X790961Y7578D01*
X791753Y8369D01*
X791753Y8370D01*
X792349Y9318D01*
X792349Y9319D01*
X792719Y10376D01*
X792719Y10377D01*
X792720Y10380D01*
X792720Y10384D01*
X792721Y10389D01*
X792721Y10394D01*
X792723Y10408D01*
X792723Y10413D01*
X792724Y10418D01*
X792724Y10422D01*
X792725Y10422D01*
X792724Y10422D01*
X792725Y10427D01*
X792726Y10432D01*
X792727Y10446D01*
X792728Y10451D01*
X792728Y10456D01*
X792729Y10460D01*
X792729Y10465D01*
X792730Y10470D01*
X792731Y10484D01*
X792732Y10489D01*
X792733Y10494D01*
X792733Y10498D01*
X792734Y10503D01*
X792734Y10508D01*
X792736Y10522D01*
X792736Y10527D01*
X792737Y10532D01*
X792737Y10536D01*
X792738Y10541D01*
X792739Y10555D01*
X792740Y10555D01*
X792739Y10555D01*
X792740Y10560D01*
X792741Y10565D01*
X792741Y10570D01*
X792742Y10574D01*
X792742Y10579D01*
X792744Y10593D01*
X792744Y10598D01*
X792745Y10603D01*
X792745Y10608D01*
X792746Y10612D01*
X792746Y10617D01*
X792748Y10631D01*
X792749Y10636D01*
X792749Y10641D01*
X792750Y10646D01*
X792750Y10650D01*
X792751Y10655D01*
X792752Y10669D01*
X792753Y10674D01*
X792753Y10679D01*
X792754Y10684D01*
X792754Y10688D01*
X792757Y10707D01*
X792757Y10712D01*
X792758Y10717D01*
X792758Y10722D01*
X792759Y10726D01*
X792760Y10741D01*
X792761Y10745D01*
X792761Y10750D01*
X792762Y10755D01*
X792762Y10760D01*
X792763Y10760D01*
X792762Y10760D01*
X792763Y10764D01*
X792765Y10779D01*
X792765Y10783D01*
X792766Y10788D01*
X792766Y10793D01*
X792767Y10798D01*
X792767Y10802D01*
X792769Y10817D01*
X792769Y10821D01*
X792770Y10826D01*
X792771Y10831D01*
X792771Y10836D01*
X792772Y10840D01*
X792773Y10855D01*
X792774Y10859D01*
X792774Y10864D01*
X792775Y10869D01*
X792775Y10874D01*
X792777Y10893D01*
X792778Y10893D01*
X792777Y10893D01*
X792778Y10897D01*
X792779Y10902D01*
X792779Y10907D01*
X792780Y10912D01*
X792781Y10926D01*
X792782Y10931D01*
X792782Y10935D01*
X792783Y10940D01*
X792783Y10945D01*
X792784Y10950D01*
X792786Y10964D01*
X792786Y10969D01*
X792787Y10973D01*
X792787Y10978D01*
X792788Y10983D01*
X792788Y10988D01*
X792790Y11002D01*
X792790Y11007D01*
X792791Y11011D01*
X792791Y11016D01*
X792792Y11021D01*
X792792Y11026D01*
X792794Y11040D01*
X792795Y11045D01*
X792795Y11049D01*
X792796Y11054D01*
X792796Y11059D01*
X792798Y11073D01*
X792798Y11078D01*
X792799Y11083D01*
X792799Y11087D01*
X792800Y11092D01*
X792800Y11097D01*
X792801Y11097D01*
X792800Y11097D01*
X792802Y11111D01*
X792803Y11116D01*
X792803Y11121D01*
X792804Y11125D01*
X792804Y11130D01*
X792805Y11135D01*
X792806Y11149D01*
X792807Y11154D01*
X792807Y11159D01*
X792808Y11163D01*
X792809Y11168D01*
X792809Y11173D01*
X792811Y11187D01*
X792811Y11192D01*
X792812Y11197D01*
X792812Y11201D01*
X792813Y11206D01*
X792815Y11225D01*
X792815Y11230D01*
X792816Y11230D01*
X792815Y11230D01*
X792816Y11235D01*
X792817Y11239D01*
X792817Y11244D01*
X792819Y11258D01*
X792819Y11263D01*
X792820Y11268D01*
X792820Y11273D01*
X792821Y11277D01*
X792821Y11282D01*
X792823Y11296D01*
X792824Y11301D01*
X792824Y11306D01*
X792825Y11311D01*
X792825Y11315D01*
X792826Y11320D01*
X792827Y11334D01*
X792828Y11339D01*
X792828Y11344D01*
X792829Y11349D01*
X792829Y11353D01*
X792830Y11358D01*
X792832Y11372D01*
X792832Y11377D01*
X792833Y11382D01*
X792833Y11387D01*
X792834Y11391D01*
X792836Y11410D01*
X792836Y11415D01*
X792837Y11420D01*
X792837Y11425D01*
X792838Y11429D01*
X792840Y11444D01*
X792840Y11448D01*
X792841Y11453D01*
X792841Y11458D01*
X792842Y11463D01*
X792842Y11467D01*
X792844Y11482D01*
X792844Y11486D01*
X792845Y11489D01*
X792845Y11490D01*
X792845Y18990D01*
X792845Y18991D01*
X792719Y20103D01*
X792719Y20104D01*
X792349Y21161D01*
X792349Y21162D01*
X791753Y22110D01*
X791752Y22110D01*
X791753Y22111D01*
X790961Y22903D01*
X790960Y22903D01*
X790012Y23499D01*
X790011Y23499D01*
X788954Y23869D01*
X788953Y23869D01*
X787841Y23995D01*
X787840Y23995D01*
X773840Y23995D01*
X773835Y23991D01*
X773836Y23990D01*
X773835Y23990D01*
X773835Y6490D01*
X773839Y6485D01*
X773840Y6486D01*
X773840Y6485D01*
X787840Y6485D01*
X787840Y6486D01*
G37*
G36*
X729845Y6489D02*
X729845Y6489D01*
X729844Y6490D01*
X729845Y6490D01*
X729845Y23990D01*
X729841Y23995D01*
X729840Y23994D01*
X729840Y23995D01*
X715840Y23995D01*
X715839Y23995D01*
X714727Y23869D01*
X714726Y23869D01*
X713669Y23499D01*
X713668Y23499D01*
X712720Y22903D01*
X712720Y22902D01*
X712719Y22903D01*
X711928Y22111D01*
X711927Y22110D01*
X711331Y21162D01*
X711331Y21161D01*
X710961Y20104D01*
X710961Y20103D01*
X710959Y20090D01*
X710959Y20085D01*
X710958Y20080D01*
X710958Y20076D01*
X710957Y20071D01*
X710955Y20057D01*
X710955Y20052D01*
X710954Y20047D01*
X710954Y20042D01*
X710953Y20038D01*
X710953Y20033D01*
X710951Y20019D01*
X710951Y20014D01*
X710950Y20009D01*
X710950Y20004D01*
X710949Y20000D01*
X710948Y19995D01*
X710947Y19981D01*
X710946Y19976D01*
X710946Y19971D01*
X710945Y19966D01*
X710945Y19962D01*
X710944Y19957D01*
X710943Y19943D01*
X710942Y19938D01*
X710942Y19933D01*
X710941Y19933D01*
X710942Y19933D01*
X710941Y19928D01*
X710940Y19924D01*
X710938Y19905D01*
X710938Y19900D01*
X710937Y19895D01*
X710937Y19890D01*
X710936Y19886D01*
X710935Y19871D01*
X710934Y19867D01*
X710933Y19862D01*
X710933Y19857D01*
X710932Y19852D01*
X710932Y19848D01*
X710930Y19833D01*
X710930Y19829D01*
X710929Y19824D01*
X710929Y19819D01*
X710928Y19814D01*
X710928Y19810D01*
X710926Y19795D01*
X710925Y19791D01*
X710925Y19786D01*
X710924Y19781D01*
X710924Y19776D01*
X710923Y19772D01*
X710922Y19757D01*
X710921Y19753D01*
X710921Y19748D01*
X710920Y19743D01*
X710920Y19738D01*
X710918Y19724D01*
X710917Y19719D01*
X710917Y19715D01*
X710916Y19710D01*
X710916Y19705D01*
X710915Y19700D01*
X710914Y19686D01*
X710913Y19681D01*
X710913Y19677D01*
X710912Y19672D01*
X710912Y19667D01*
X710911Y19662D01*
X710909Y19648D01*
X710909Y19643D01*
X710908Y19639D01*
X710908Y19634D01*
X710907Y19629D01*
X710907Y19624D01*
X710905Y19610D01*
X710905Y19605D01*
X710904Y19601D01*
X710904Y19596D01*
X710903Y19596D01*
X710904Y19596D01*
X710903Y19591D01*
X710901Y19572D01*
X710900Y19567D01*
X710900Y19563D01*
X710899Y19558D01*
X710899Y19553D01*
X710897Y19539D01*
X710897Y19534D01*
X710896Y19529D01*
X710895Y19525D01*
X710895Y19520D01*
X710894Y19515D01*
X710893Y19501D01*
X710892Y19496D01*
X710892Y19491D01*
X710891Y19487D01*
X710891Y19482D01*
X710890Y19477D01*
X710889Y19463D01*
X710888Y19463D01*
X710889Y19463D01*
X710888Y19458D01*
X710887Y19453D01*
X710887Y19449D01*
X710886Y19444D01*
X710886Y19439D01*
X710884Y19425D01*
X710884Y19420D01*
X710883Y19415D01*
X710883Y19411D01*
X710882Y19406D01*
X710880Y19387D01*
X710879Y19382D01*
X710879Y19377D01*
X710878Y19373D01*
X710878Y19368D01*
X710876Y19354D01*
X710876Y19349D01*
X710875Y19344D01*
X710875Y19339D01*
X710874Y19335D01*
X710874Y19330D01*
X710872Y19316D01*
X710871Y19311D01*
X710871Y19306D01*
X710870Y19301D01*
X710870Y19297D01*
X710869Y19292D01*
X710868Y19278D01*
X710867Y19273D01*
X710867Y19268D01*
X710866Y19263D01*
X710866Y19259D01*
X710865Y19259D01*
X710866Y19259D01*
X710865Y19254D01*
X710863Y19240D01*
X710863Y19235D01*
X710862Y19230D01*
X710862Y19225D01*
X710861Y19221D01*
X710860Y19206D01*
X710859Y19202D01*
X710859Y19197D01*
X710858Y19192D01*
X710857Y19187D01*
X710857Y19183D01*
X710855Y19168D01*
X710855Y19164D01*
X710854Y19159D01*
X710854Y19154D01*
X710853Y19149D01*
X710853Y19145D01*
X710851Y19130D01*
X710851Y19126D01*
X710850Y19126D01*
X710851Y19126D01*
X710850Y19121D01*
X710849Y19116D01*
X710849Y19111D01*
X710848Y19107D01*
X710847Y19092D01*
X710846Y19088D01*
X710846Y19083D01*
X710845Y19078D01*
X710845Y19073D01*
X710842Y19054D01*
X710842Y19050D01*
X710841Y19045D01*
X710841Y19040D01*
X710840Y19035D01*
X710839Y19021D01*
X710838Y19016D01*
X710838Y19012D01*
X710837Y19007D01*
X710837Y19002D01*
X710836Y18997D01*
X710835Y18991D01*
X710836Y18990D01*
X710835Y18990D01*
X710835Y11490D01*
X710836Y11490D01*
X710835Y11489D01*
X710961Y10377D01*
X710961Y10376D01*
X711331Y9319D01*
X711331Y9318D01*
X711927Y8370D01*
X711928Y8370D01*
X711928Y8369D01*
X712719Y7578D01*
X712720Y7577D01*
X713668Y6981D01*
X713669Y6981D01*
X714726Y6611D01*
X714727Y6611D01*
X715839Y6485D01*
X715840Y6486D01*
X715840Y6485D01*
X729840Y6485D01*
X729845Y6489D01*
G37*
D10*
X25400Y25400D03*
X25400Y774700D03*
X1061720Y774700D03*
X1061720Y25400D03*
D11*
X1003300Y728980D03*
X1003300Y754380D03*
X1003300Y642620D03*
X1003300Y668020D03*
D12*
X358040Y624880D03*
X383440Y692360D03*
X408840Y624880D03*
X409040Y147280D03*
X383640Y79800D03*
X358240Y147280D03*
X167740Y147280D03*
X142340Y79800D03*
X116940Y147280D03*
X116740Y624880D03*
X142140Y692360D03*
X167540Y624880D03*
D11*
X922020Y754380D03*
X947420Y754380D03*
D13*
X820420Y698500D03*
D11*
X820420Y673100D03*
X820420Y647700D03*
D14*
X969772Y386334D02*
X985012Y386334D01*
X985012Y431546D02*
X969772Y431546D01*
X919988Y386334D02*
X904748Y386334D01*
X904748Y431546D02*
X919988Y431546D01*
D15*
X809820Y440780D03*
X804820Y440780D03*
X799820Y440780D03*
X794820Y440780D03*
X789820Y440780D03*
X784820Y440780D03*
X779820Y440780D03*
X774820Y440780D03*
X769820Y440780D03*
X759820Y440780D03*
X754820Y440780D03*
D16*
X740320Y426280D03*
X740320Y421280D03*
X740320Y416280D03*
X740320Y411280D03*
X740320Y406280D03*
X740320Y401280D03*
X740320Y396280D03*
X740320Y391280D03*
X740320Y386280D03*
X740320Y381280D03*
X740320Y376280D03*
X740320Y371280D03*
D15*
X764820Y440780D03*
X754820Y357080D03*
X759820Y356780D03*
X764820Y356780D03*
X769820Y356780D03*
X774820Y356780D03*
X779820Y356780D03*
X784820Y356780D03*
X789820Y356780D03*
X794820Y356780D03*
X804820Y356780D03*
X809820Y356780D03*
X799820Y356780D03*
D16*
X824320Y371280D03*
X824320Y376280D03*
X824320Y381280D03*
X824320Y386280D03*
X824320Y391280D03*
X824320Y396280D03*
X824320Y401280D03*
X824320Y406280D03*
X824320Y411280D03*
X824320Y416280D03*
X824320Y421280D03*
X824320Y426280D03*
D17*
X817680Y472440D03*
X792680Y472440D03*
D14*
X612140Y459740D02*
X596900Y459740D01*
X596900Y434340D02*
X612140Y434340D01*
X612140Y408940D02*
X596900Y408940D01*
X596900Y383540D02*
X612140Y383540D01*
X612140Y358140D02*
X596900Y358140D01*
X881380Y254000D02*
X896620Y254000D01*
X896620Y228600D02*
X881380Y228600D01*
X881380Y203200D02*
X896620Y203200D01*
X896620Y177800D02*
X881380Y177800D01*
X881380Y152400D02*
X896620Y152400D01*
X617220Y254000D02*
X601980Y254000D01*
X601980Y228600D02*
X617220Y228600D01*
X617220Y203200D02*
X601980Y203200D01*
X601980Y177800D02*
X617220Y177800D01*
X617220Y152400D02*
X601980Y152400D01*
D11*
X646938Y357124D03*
X646938Y382524D03*
X1000760Y327533D03*
X1000760Y302133D03*
D18*
X738840Y42240D03*
X745340Y42240D03*
X751840Y42240D03*
X758340Y42240D03*
X764840Y42240D03*
D19*
X732130Y42240D02*
X721550Y42240D01*
X771550Y42240D02*
X782130Y42240D01*
D20*
X716840Y20280D02*
X716840Y10200D01*
D21*
X741840Y15240D03*
X761840Y15240D03*
D20*
X786840Y20280D02*
X786840Y10200D01*
D22*
X881634Y699626D03*
X881634Y681626D03*
X881380Y646320D03*
X881380Y664320D03*
X692404Y623206D03*
X692404Y641206D03*
X764794Y624984D03*
X764794Y642984D03*
X759460Y499000D03*
X759460Y517000D03*
X850900Y499000D03*
X850900Y517000D03*
X820420Y499000D03*
X820420Y517000D03*
X789940Y499000D03*
X789940Y517000D03*
X982980Y268080D03*
X982980Y250080D03*
X952500Y268080D03*
X952500Y250080D03*
X1013460Y250080D03*
X1013460Y268080D03*
D23*
X962406Y551180D03*
X987806Y551180D03*
X962406Y525780D03*
X987806Y525780D03*
X962406Y500380D03*
X987806Y500380D03*
X962406Y474980D03*
X987806Y474980D03*
D24*
X739496Y650287D03*
X729996Y650287D03*
X720496Y650287D03*
X720496Y624285D03*
X739496Y624285D03*
D22*
X865759Y367936D03*
X865759Y385936D03*
D25*
X714248Y294386D03*
X701548Y313436D03*
X688848Y294386D03*
D11*
X1045972Y251460D03*
X1045972Y276860D03*
X1045972Y302260D03*
X1045972Y327660D03*
D22*
X659257Y295038D03*
X659257Y313038D03*
D26*
X586740Y693928D03*
D27*
X586740Y645928D03*
X586740Y741928D03*
D26*
X586740Y713928D03*
X586740Y674928D03*
D28*
X790869Y403994D03*
X824230Y359410D03*
X762762Y302768D03*
X972820Y278130D03*
X788244Y303220D03*
X935990Y267970D03*
X775716Y303022D03*
M02*
