G04 EAGLE Gerber RS-274X export*
G75*
%MOMM*%
%FSLAX34Y34*%
%LPD*%
%INSolderpaste Top*%
%IPPOS*%
%AMOC8*
5,1,8,0,0,1.08239X$1,22.5*%
G01*
%ADD10R,0.300000X1.450000*%
%ADD11R,1.450000X0.300000*%
%ADD12R,1.000000X1.800000*%
%ADD13R,1.200000X0.800000*%
%ADD14R,0.550000X1.200000*%
%ADD15R,0.800000X1.200000*%
%ADD16C,0.000100*%
%ADD17R,0.400000X1.350000*%
%ADD18R,1.500000X1.550000*%

G36*
X786586Y6470D02*
X786586Y6470D01*
X786587Y6469D01*
X787699Y6595D01*
X787700Y6595D01*
X788757Y6965D01*
X788758Y6965D01*
X789706Y7561D01*
X789706Y7562D01*
X789707Y7562D01*
X790499Y8353D01*
X790499Y8354D01*
X791095Y9302D01*
X791095Y9303D01*
X791465Y10360D01*
X791465Y10361D01*
X791466Y10364D01*
X791466Y10368D01*
X791467Y10373D01*
X791467Y10378D01*
X791469Y10392D01*
X791469Y10397D01*
X791470Y10402D01*
X791470Y10406D01*
X791471Y10406D01*
X791470Y10406D01*
X791471Y10411D01*
X791472Y10416D01*
X791473Y10430D01*
X791474Y10435D01*
X791474Y10440D01*
X791475Y10444D01*
X791475Y10449D01*
X791476Y10454D01*
X791477Y10468D01*
X791478Y10473D01*
X791479Y10478D01*
X791479Y10482D01*
X791480Y10487D01*
X791480Y10492D01*
X791482Y10506D01*
X791482Y10511D01*
X791483Y10516D01*
X791483Y10520D01*
X791484Y10525D01*
X791485Y10539D01*
X791486Y10539D01*
X791485Y10539D01*
X791486Y10544D01*
X791487Y10549D01*
X791487Y10554D01*
X791488Y10558D01*
X791488Y10563D01*
X791490Y10577D01*
X791490Y10582D01*
X791491Y10587D01*
X791491Y10592D01*
X791492Y10596D01*
X791492Y10601D01*
X791494Y10615D01*
X791495Y10620D01*
X791495Y10625D01*
X791496Y10630D01*
X791496Y10634D01*
X791497Y10639D01*
X791498Y10653D01*
X791499Y10658D01*
X791499Y10663D01*
X791500Y10668D01*
X791500Y10672D01*
X791503Y10691D01*
X791503Y10696D01*
X791504Y10701D01*
X791504Y10706D01*
X791505Y10710D01*
X791506Y10725D01*
X791507Y10729D01*
X791507Y10734D01*
X791508Y10739D01*
X791508Y10744D01*
X791509Y10744D01*
X791508Y10744D01*
X791509Y10748D01*
X791511Y10763D01*
X791511Y10767D01*
X791512Y10772D01*
X791512Y10777D01*
X791513Y10782D01*
X791513Y10786D01*
X791515Y10801D01*
X791515Y10805D01*
X791516Y10810D01*
X791517Y10815D01*
X791517Y10820D01*
X791518Y10824D01*
X791519Y10839D01*
X791520Y10843D01*
X791520Y10848D01*
X791521Y10853D01*
X791521Y10858D01*
X791523Y10877D01*
X791524Y10877D01*
X791523Y10877D01*
X791524Y10881D01*
X791525Y10886D01*
X791525Y10891D01*
X791526Y10896D01*
X791527Y10910D01*
X791528Y10915D01*
X791528Y10919D01*
X791529Y10924D01*
X791529Y10929D01*
X791530Y10934D01*
X791532Y10948D01*
X791532Y10953D01*
X791533Y10957D01*
X791533Y10962D01*
X791534Y10967D01*
X791534Y10972D01*
X791536Y10986D01*
X791536Y10991D01*
X791537Y10995D01*
X791537Y11000D01*
X791538Y11005D01*
X791538Y11010D01*
X791540Y11024D01*
X791541Y11029D01*
X791541Y11033D01*
X791542Y11038D01*
X791542Y11043D01*
X791544Y11057D01*
X791544Y11062D01*
X791545Y11067D01*
X791545Y11071D01*
X791546Y11076D01*
X791546Y11081D01*
X791547Y11081D01*
X791546Y11081D01*
X791548Y11095D01*
X791549Y11100D01*
X791549Y11105D01*
X791550Y11109D01*
X791550Y11114D01*
X791551Y11119D01*
X791552Y11133D01*
X791553Y11138D01*
X791553Y11143D01*
X791554Y11147D01*
X791555Y11152D01*
X791555Y11157D01*
X791557Y11171D01*
X791557Y11176D01*
X791558Y11181D01*
X791558Y11185D01*
X791559Y11190D01*
X791561Y11209D01*
X791561Y11214D01*
X791562Y11214D01*
X791561Y11214D01*
X791562Y11219D01*
X791563Y11223D01*
X791563Y11228D01*
X791565Y11242D01*
X791565Y11247D01*
X791566Y11252D01*
X791566Y11257D01*
X791567Y11261D01*
X791567Y11266D01*
X791569Y11280D01*
X791570Y11285D01*
X791570Y11290D01*
X791571Y11295D01*
X791571Y11299D01*
X791572Y11304D01*
X791573Y11318D01*
X791574Y11323D01*
X791574Y11328D01*
X791575Y11333D01*
X791575Y11337D01*
X791576Y11342D01*
X791578Y11356D01*
X791578Y11361D01*
X791579Y11366D01*
X791579Y11371D01*
X791580Y11375D01*
X791582Y11394D01*
X791582Y11399D01*
X791583Y11404D01*
X791583Y11409D01*
X791584Y11413D01*
X791586Y11428D01*
X791586Y11432D01*
X791587Y11437D01*
X791587Y11442D01*
X791588Y11447D01*
X791588Y11451D01*
X791590Y11466D01*
X791590Y11470D01*
X791591Y11473D01*
X791591Y11474D01*
X791591Y16974D01*
X791591Y16975D01*
X791465Y18087D01*
X791465Y18088D01*
X791095Y19145D01*
X791095Y19146D01*
X790499Y20094D01*
X790498Y20094D01*
X790499Y20095D01*
X789707Y20887D01*
X789706Y20887D01*
X788758Y21483D01*
X788757Y21483D01*
X787700Y21853D01*
X787699Y21853D01*
X786587Y21979D01*
X786586Y21979D01*
X774586Y21979D01*
X774581Y21975D01*
X774582Y21974D01*
X774581Y21974D01*
X774581Y6474D01*
X774585Y6469D01*
X774586Y6470D01*
X774586Y6469D01*
X786586Y6469D01*
X786586Y6470D01*
G37*
G36*
X728591Y6473D02*
X728591Y6473D01*
X728590Y6474D01*
X728591Y6474D01*
X728591Y21974D01*
X728587Y21979D01*
X728586Y21978D01*
X728586Y21979D01*
X716586Y21979D01*
X716585Y21979D01*
X715473Y21853D01*
X715472Y21853D01*
X714415Y21483D01*
X714414Y21483D01*
X713466Y20887D01*
X713466Y20886D01*
X713465Y20887D01*
X712674Y20095D01*
X712673Y20094D01*
X712077Y19146D01*
X712077Y19145D01*
X711707Y18088D01*
X711707Y18087D01*
X711706Y18079D01*
X711705Y18074D01*
X711705Y18069D01*
X711704Y18065D01*
X711704Y18060D01*
X711701Y18041D01*
X711701Y18036D01*
X711700Y18031D01*
X711700Y18027D01*
X711699Y18022D01*
X711698Y18008D01*
X711697Y18003D01*
X711697Y17998D01*
X711696Y17993D01*
X711696Y17989D01*
X711695Y17984D01*
X711693Y17970D01*
X711693Y17965D01*
X711692Y17960D01*
X711692Y17955D01*
X711691Y17951D01*
X711691Y17946D01*
X711689Y17932D01*
X711689Y17927D01*
X711688Y17922D01*
X711688Y17917D01*
X711687Y17913D01*
X711686Y17908D01*
X711685Y17894D01*
X711684Y17889D01*
X711684Y17884D01*
X711683Y17879D01*
X711683Y17875D01*
X711681Y17856D01*
X711680Y17851D01*
X711680Y17846D01*
X711679Y17846D01*
X711680Y17846D01*
X711679Y17841D01*
X711678Y17837D01*
X711677Y17822D01*
X711676Y17818D01*
X711676Y17813D01*
X711675Y17808D01*
X711675Y17803D01*
X711674Y17799D01*
X711673Y17784D01*
X711672Y17780D01*
X711671Y17775D01*
X711671Y17770D01*
X711670Y17765D01*
X711670Y17761D01*
X711668Y17746D01*
X711668Y17742D01*
X711667Y17737D01*
X711667Y17732D01*
X711666Y17727D01*
X711666Y17723D01*
X711664Y17708D01*
X711663Y17704D01*
X711663Y17699D01*
X711662Y17694D01*
X711662Y17689D01*
X711660Y17675D01*
X711660Y17670D01*
X711659Y17666D01*
X711659Y17661D01*
X711658Y17656D01*
X711658Y17651D01*
X711656Y17637D01*
X711655Y17632D01*
X711655Y17628D01*
X711654Y17623D01*
X711654Y17618D01*
X711653Y17613D01*
X711652Y17599D01*
X711651Y17594D01*
X711651Y17590D01*
X711650Y17585D01*
X711650Y17580D01*
X711649Y17575D01*
X711647Y17561D01*
X711647Y17556D01*
X711646Y17552D01*
X711646Y17547D01*
X711645Y17542D01*
X711643Y17523D01*
X711643Y17518D01*
X711642Y17514D01*
X711642Y17509D01*
X711641Y17509D01*
X711642Y17509D01*
X711641Y17504D01*
X711639Y17490D01*
X711639Y17485D01*
X711638Y17480D01*
X711638Y17476D01*
X711637Y17471D01*
X711637Y17466D01*
X711635Y17452D01*
X711635Y17447D01*
X711634Y17442D01*
X711633Y17438D01*
X711633Y17433D01*
X711632Y17428D01*
X711631Y17414D01*
X711630Y17409D01*
X711630Y17404D01*
X711629Y17400D01*
X711629Y17395D01*
X711628Y17390D01*
X711627Y17376D01*
X711626Y17376D01*
X711627Y17376D01*
X711626Y17371D01*
X711625Y17366D01*
X711625Y17362D01*
X711624Y17357D01*
X711622Y17338D01*
X711622Y17333D01*
X711621Y17328D01*
X711621Y17324D01*
X711620Y17319D01*
X711618Y17305D01*
X711618Y17300D01*
X711617Y17295D01*
X711617Y17290D01*
X711616Y17286D01*
X711616Y17281D01*
X711614Y17267D01*
X711614Y17262D01*
X711613Y17257D01*
X711613Y17252D01*
X711612Y17248D01*
X711612Y17243D01*
X711610Y17229D01*
X711609Y17224D01*
X711609Y17219D01*
X711608Y17214D01*
X711608Y17210D01*
X711607Y17205D01*
X711606Y17191D01*
X711605Y17186D01*
X711605Y17181D01*
X711604Y17176D01*
X711604Y17172D01*
X711603Y17172D01*
X711604Y17172D01*
X711602Y17157D01*
X711601Y17153D01*
X711601Y17148D01*
X711600Y17143D01*
X711600Y17138D01*
X711599Y17134D01*
X711598Y17119D01*
X711597Y17115D01*
X711597Y17110D01*
X711596Y17105D01*
X711595Y17100D01*
X711595Y17096D01*
X711593Y17081D01*
X711593Y17077D01*
X711592Y17072D01*
X711592Y17067D01*
X711591Y17062D01*
X711591Y17058D01*
X711589Y17043D01*
X711589Y17039D01*
X711588Y17039D01*
X711589Y17039D01*
X711588Y17034D01*
X711587Y17029D01*
X711587Y17024D01*
X711585Y17005D01*
X711584Y17001D01*
X711584Y16996D01*
X711583Y16991D01*
X711583Y16986D01*
X711581Y16975D01*
X711582Y16974D01*
X711581Y16974D01*
X711581Y11474D01*
X711582Y11474D01*
X711581Y11473D01*
X711707Y10361D01*
X711707Y10360D01*
X712077Y9303D01*
X712077Y9302D01*
X712673Y8354D01*
X712674Y8354D01*
X712674Y8353D01*
X713465Y7562D01*
X713466Y7561D01*
X714414Y6965D01*
X714415Y6965D01*
X715472Y6595D01*
X715473Y6595D01*
X716585Y6469D01*
X716586Y6470D01*
X716586Y6469D01*
X728586Y6469D01*
X728591Y6473D01*
G37*
%LPC*%
G36*
X785940Y8564D02*
X785940Y8564D01*
X785339Y8813D01*
X784822Y9210D01*
X784425Y9727D01*
X784176Y10328D01*
X784091Y10974D01*
X784091Y17474D01*
X784176Y18120D01*
X784425Y18722D01*
X784822Y19238D01*
X785339Y19635D01*
X785940Y19884D01*
X786586Y19969D01*
X787232Y19884D01*
X787834Y19635D01*
X788350Y19238D01*
X788747Y18722D01*
X788996Y18120D01*
X789081Y17474D01*
X789081Y10974D01*
X789045Y10702D01*
X789045Y10697D01*
X789044Y10693D01*
X789044Y10688D01*
X789043Y10683D01*
X789042Y10678D01*
X789042Y10674D01*
X789041Y10669D01*
X789040Y10664D01*
X789040Y10659D01*
X789039Y10655D01*
X789039Y10650D01*
X789038Y10645D01*
X789037Y10640D01*
X789037Y10636D01*
X789036Y10631D01*
X789035Y10626D01*
X789035Y10621D01*
X789034Y10617D01*
X789034Y10612D01*
X789033Y10607D01*
X789032Y10602D01*
X789032Y10598D01*
X789031Y10593D01*
X789030Y10588D01*
X789030Y10583D01*
X789029Y10579D01*
X789029Y10574D01*
X789028Y10569D01*
X789027Y10564D01*
X789027Y10560D01*
X789026Y10555D01*
X788996Y10328D01*
X788747Y9727D01*
X788350Y9210D01*
X787834Y8813D01*
X787232Y8564D01*
X786586Y8479D01*
X785940Y8564D01*
G37*
%LPD*%
%LPC*%
G36*
X715940Y8564D02*
X715940Y8564D01*
X715339Y8813D01*
X714822Y9210D01*
X714425Y9727D01*
X714176Y10328D01*
X714091Y10974D01*
X714091Y17474D01*
X714091Y17479D01*
X714092Y17479D01*
X714091Y17479D01*
X714092Y17484D01*
X714093Y17489D01*
X714093Y17493D01*
X714094Y17498D01*
X714095Y17503D01*
X714095Y17508D01*
X714096Y17512D01*
X714096Y17517D01*
X714097Y17517D01*
X714097Y17522D01*
X714098Y17527D01*
X714098Y17531D01*
X714099Y17536D01*
X714135Y17812D01*
X714136Y17816D01*
X714137Y17821D01*
X714137Y17826D01*
X714138Y17831D01*
X714138Y17835D01*
X714139Y17840D01*
X714140Y17845D01*
X714140Y17850D01*
X714141Y17854D01*
X714142Y17859D01*
X714142Y17864D01*
X714143Y17869D01*
X714143Y17873D01*
X714144Y17878D01*
X714145Y17883D01*
X714145Y17888D01*
X714146Y17892D01*
X714147Y17897D01*
X714147Y17902D01*
X714148Y17907D01*
X714148Y17911D01*
X714149Y17916D01*
X714150Y17921D01*
X714150Y17926D01*
X714151Y17930D01*
X714152Y17935D01*
X714152Y17940D01*
X714153Y17945D01*
X714153Y17949D01*
X714154Y17954D01*
X714155Y17959D01*
X714155Y17964D01*
X714176Y18120D01*
X714425Y18722D01*
X714822Y19238D01*
X715339Y19635D01*
X715940Y19884D01*
X716586Y19969D01*
X717232Y19884D01*
X717834Y19635D01*
X718350Y19238D01*
X718747Y18722D01*
X718996Y18120D01*
X719081Y17474D01*
X719081Y10974D01*
X718996Y10328D01*
X718747Y9727D01*
X718350Y9210D01*
X717834Y8813D01*
X717232Y8564D01*
X716586Y8479D01*
X715940Y8564D01*
G37*
%LPD*%
D10*
X809820Y440780D03*
X804820Y440780D03*
X799820Y440780D03*
X794820Y440780D03*
X789820Y440780D03*
X784820Y440780D03*
X779820Y440780D03*
X774820Y440780D03*
X769820Y440780D03*
X759820Y440780D03*
X754820Y440780D03*
D11*
X740320Y426280D03*
X740320Y421280D03*
X740320Y416280D03*
X740320Y411280D03*
X740320Y406280D03*
X740320Y401280D03*
X740320Y396280D03*
X740320Y391280D03*
X740320Y386280D03*
X740320Y381280D03*
X740320Y376280D03*
X740320Y371280D03*
D10*
X764820Y440780D03*
X754820Y357080D03*
X759820Y356780D03*
X764820Y356780D03*
X769820Y356780D03*
X774820Y356780D03*
X779820Y356780D03*
X784820Y356780D03*
X789820Y356780D03*
X794820Y356780D03*
X804820Y356780D03*
X809820Y356780D03*
X799820Y356780D03*
D11*
X824320Y371280D03*
X824320Y376280D03*
X824320Y381280D03*
X824320Y386280D03*
X824320Y391280D03*
X824320Y396280D03*
X824320Y401280D03*
X824320Y406280D03*
X824320Y411280D03*
X824320Y416280D03*
X824320Y421280D03*
X824320Y426280D03*
D12*
X817680Y472440D03*
X792680Y472440D03*
D13*
X881634Y699626D03*
X881634Y681626D03*
X881380Y646320D03*
X881380Y664320D03*
X692404Y623206D03*
X692404Y641206D03*
X764794Y624984D03*
X764794Y642984D03*
X759460Y499000D03*
X759460Y517000D03*
X850900Y499000D03*
X850900Y517000D03*
X820420Y499000D03*
X820420Y517000D03*
X789940Y499000D03*
X789940Y517000D03*
X982980Y268080D03*
X982980Y250080D03*
X952500Y268080D03*
X952500Y250080D03*
X1013460Y250080D03*
X1013460Y268080D03*
D14*
X739496Y650287D03*
X729996Y650287D03*
X720496Y650287D03*
X720496Y624285D03*
X739496Y624285D03*
D13*
X865759Y367936D03*
X865759Y385936D03*
D15*
X688230Y469011D03*
X706230Y469011D03*
D16*
X716586Y21924D02*
X716586Y20224D01*
X786586Y8224D02*
X786586Y6524D01*
D17*
X738586Y41224D03*
X745086Y41224D03*
X751586Y41224D03*
X758086Y41224D03*
X764586Y41224D03*
D18*
X741586Y14224D03*
X761586Y14224D03*
M02*
