G04 EAGLE Gerber RS-274X export*
G75*
%MOMM*%
%FSLAX34Y34*%
%LPD*%
%INBottom Copper*%
%IPPOS*%
%AMOC8*
5,1,8,0,0,1.08239X$1,22.5*%
G01*
%ADD10C,1.524000*%
%ADD11R,1.524000X4.064000*%
%ADD12C,0.406400*%

G36*
X96841Y533212D02*
X96841Y533212D01*
X96920Y533222D01*
X96999Y533222D01*
X97077Y533242D01*
X97157Y533252D01*
X97231Y533281D01*
X97307Y533301D01*
X97378Y533340D01*
X97453Y533369D01*
X97517Y533416D01*
X97586Y533454D01*
X97645Y533509D01*
X97710Y533556D01*
X97760Y533617D01*
X97818Y533672D01*
X97861Y533739D01*
X97912Y533801D01*
X97946Y533873D01*
X97989Y533940D01*
X98014Y534016D01*
X98048Y534089D01*
X98063Y534167D01*
X98087Y534242D01*
X98092Y534323D01*
X98107Y534401D01*
X98102Y534481D01*
X98107Y534560D01*
X98092Y534639D01*
X98087Y534719D01*
X98063Y534794D01*
X98048Y534872D01*
X98014Y534945D01*
X97989Y535021D01*
X97947Y535088D01*
X97913Y535160D01*
X97862Y535222D01*
X97819Y535290D01*
X97761Y535344D01*
X97711Y535405D01*
X97587Y535507D01*
X97587Y535508D01*
X97521Y535556D01*
X96390Y536687D01*
X95450Y537981D01*
X94724Y539406D01*
X94281Y540767D01*
X110490Y540767D01*
X110608Y540782D01*
X110727Y540789D01*
X110765Y540802D01*
X110805Y540807D01*
X110916Y540850D01*
X111029Y540887D01*
X111063Y540909D01*
X111101Y540924D01*
X111197Y540994D01*
X111298Y541057D01*
X111326Y541087D01*
X111358Y541110D01*
X111434Y541202D01*
X111516Y541289D01*
X111535Y541324D01*
X111561Y541355D01*
X111612Y541463D01*
X111669Y541567D01*
X111680Y541607D01*
X111697Y541643D01*
X111719Y541760D01*
X111749Y541875D01*
X111753Y541936D01*
X111757Y541956D01*
X111756Y541958D01*
X111757Y541959D01*
X111755Y541977D01*
X111759Y542036D01*
X111759Y543307D01*
X111761Y543307D01*
X111761Y542036D01*
X111776Y541918D01*
X111783Y541799D01*
X111796Y541761D01*
X111801Y541720D01*
X111845Y541609D01*
X111881Y541497D01*
X111903Y541462D01*
X111918Y541425D01*
X111988Y541329D01*
X112051Y541228D01*
X112081Y541200D01*
X112105Y541167D01*
X112196Y541092D01*
X112283Y541010D01*
X112318Y540990D01*
X112350Y540965D01*
X112457Y540914D01*
X112562Y540856D01*
X112601Y540846D01*
X112637Y540829D01*
X112754Y540807D01*
X112869Y540777D01*
X112930Y540773D01*
X112950Y540769D01*
X112970Y540771D01*
X113030Y540767D01*
X129239Y540767D01*
X128796Y539406D01*
X128070Y537981D01*
X127130Y536687D01*
X125999Y535556D01*
X125961Y535528D01*
X125903Y535473D01*
X125838Y535426D01*
X125787Y535365D01*
X125729Y535310D01*
X125686Y535243D01*
X125635Y535181D01*
X125601Y535109D01*
X125559Y535042D01*
X125534Y534966D01*
X125500Y534893D01*
X125485Y534815D01*
X125460Y534740D01*
X125455Y534660D01*
X125440Y534581D01*
X125445Y534501D01*
X125440Y534422D01*
X125455Y534343D01*
X125460Y534263D01*
X125485Y534188D01*
X125500Y534110D01*
X125534Y534037D01*
X125558Y533961D01*
X125601Y533894D01*
X125635Y533822D01*
X125686Y533760D01*
X125729Y533692D01*
X125787Y533638D01*
X125837Y533577D01*
X125902Y533530D01*
X125961Y533475D01*
X126030Y533436D01*
X126094Y533389D01*
X126169Y533360D01*
X126239Y533321D01*
X126316Y533301D01*
X126390Y533272D01*
X126469Y533262D01*
X126547Y533242D01*
X126703Y533232D01*
X126706Y533232D01*
X126708Y533232D01*
X161805Y533256D01*
X161884Y533266D01*
X161963Y533266D01*
X162041Y533286D01*
X162121Y533296D01*
X162195Y533325D01*
X162271Y533345D01*
X162342Y533383D01*
X162416Y533413D01*
X162481Y533459D01*
X162550Y533498D01*
X162609Y533553D01*
X162674Y533600D01*
X162724Y533661D01*
X162782Y533715D01*
X162825Y533783D01*
X162876Y533845D01*
X162910Y533917D01*
X162953Y533984D01*
X162978Y534060D01*
X163012Y534133D01*
X163027Y534211D01*
X163051Y534286D01*
X163056Y534366D01*
X163071Y534445D01*
X163066Y534524D01*
X163071Y534604D01*
X163056Y534682D01*
X163051Y534763D01*
X163027Y534838D01*
X163012Y534916D01*
X162978Y534989D01*
X162953Y535065D01*
X162911Y535132D01*
X162877Y535204D01*
X162826Y535266D01*
X162783Y535334D01*
X162725Y535388D01*
X162674Y535449D01*
X162551Y535551D01*
X162550Y535552D01*
X162545Y535556D01*
X161414Y536687D01*
X160474Y537981D01*
X159748Y539406D01*
X159305Y540767D01*
X175514Y540767D01*
X175632Y540782D01*
X175751Y540789D01*
X175789Y540802D01*
X175829Y540807D01*
X175940Y540850D01*
X176053Y540887D01*
X176087Y540909D01*
X176125Y540924D01*
X176221Y540994D01*
X176322Y541057D01*
X176350Y541087D01*
X176382Y541110D01*
X176458Y541202D01*
X176540Y541289D01*
X176559Y541324D01*
X176585Y541355D01*
X176636Y541463D01*
X176693Y541567D01*
X176704Y541607D01*
X176721Y541643D01*
X176743Y541760D01*
X176773Y541875D01*
X176777Y541936D01*
X176781Y541956D01*
X176780Y541958D01*
X176781Y541959D01*
X176779Y541977D01*
X176783Y542036D01*
X176783Y543307D01*
X176785Y543307D01*
X176785Y542036D01*
X176800Y541918D01*
X176807Y541799D01*
X176820Y541761D01*
X176825Y541720D01*
X176869Y541609D01*
X176905Y541497D01*
X176927Y541462D01*
X176942Y541425D01*
X177012Y541329D01*
X177075Y541228D01*
X177105Y541200D01*
X177129Y541167D01*
X177220Y541092D01*
X177307Y541010D01*
X177342Y540990D01*
X177374Y540965D01*
X177481Y540914D01*
X177586Y540856D01*
X177625Y540846D01*
X177661Y540829D01*
X177778Y540807D01*
X177893Y540777D01*
X177954Y540773D01*
X177974Y540769D01*
X177994Y540771D01*
X178054Y540767D01*
X194263Y540767D01*
X193820Y539406D01*
X193094Y537981D01*
X192154Y536687D01*
X190978Y535511D01*
X190922Y535470D01*
X190871Y535409D01*
X190814Y535354D01*
X190771Y535287D01*
X190719Y535225D01*
X190686Y535153D01*
X190643Y535086D01*
X190618Y535010D01*
X190584Y534937D01*
X190569Y534859D01*
X190545Y534784D01*
X190540Y534703D01*
X190525Y534625D01*
X190529Y534545D01*
X190524Y534466D01*
X190539Y534387D01*
X190544Y534307D01*
X190569Y534232D01*
X190584Y534154D01*
X190618Y534081D01*
X190643Y534005D01*
X190685Y533938D01*
X190719Y533866D01*
X190770Y533804D01*
X190813Y533736D01*
X190871Y533682D01*
X190921Y533621D01*
X190986Y533573D01*
X191045Y533518D01*
X191114Y533480D01*
X191179Y533433D01*
X191253Y533404D01*
X191323Y533365D01*
X191400Y533345D01*
X191474Y533316D01*
X191554Y533306D01*
X191631Y533286D01*
X191787Y533276D01*
X191790Y533276D01*
X191792Y533276D01*
X242571Y533310D01*
X242689Y533325D01*
X242807Y533332D01*
X242846Y533345D01*
X242886Y533350D01*
X242997Y533394D01*
X243109Y533430D01*
X243144Y533452D01*
X243182Y533467D01*
X243278Y533537D01*
X243378Y533600D01*
X243406Y533630D01*
X243439Y533654D01*
X243515Y533746D01*
X243596Y533832D01*
X243616Y533868D01*
X243642Y533899D01*
X243692Y534007D01*
X243750Y534110D01*
X243760Y534150D01*
X243777Y534187D01*
X243799Y534304D01*
X243829Y534418D01*
X243833Y534479D01*
X243837Y534499D01*
X243835Y534520D01*
X243839Y534579D01*
X243839Y538481D01*
X252730Y538481D01*
X252848Y538496D01*
X252967Y538503D01*
X253005Y538516D01*
X253045Y538521D01*
X253156Y538564D01*
X253269Y538601D01*
X253304Y538623D01*
X253341Y538638D01*
X253437Y538708D01*
X253538Y538771D01*
X253566Y538801D01*
X253598Y538825D01*
X253674Y538916D01*
X253756Y539003D01*
X253775Y539038D01*
X253801Y539069D01*
X253852Y539177D01*
X253909Y539281D01*
X253920Y539321D01*
X253937Y539357D01*
X253959Y539474D01*
X253989Y539589D01*
X253993Y539650D01*
X253997Y539670D01*
X253995Y539690D01*
X253999Y539750D01*
X253999Y541021D01*
X254001Y541021D01*
X254001Y539750D01*
X254016Y539632D01*
X254023Y539513D01*
X254036Y539475D01*
X254041Y539435D01*
X254085Y539324D01*
X254121Y539211D01*
X254143Y539176D01*
X254158Y539139D01*
X254228Y539043D01*
X254291Y538942D01*
X254321Y538914D01*
X254345Y538881D01*
X254436Y538806D01*
X254523Y538724D01*
X254558Y538704D01*
X254590Y538679D01*
X254697Y538628D01*
X254801Y538570D01*
X254841Y538560D01*
X254877Y538543D01*
X254994Y538521D01*
X255109Y538491D01*
X255170Y538487D01*
X255190Y538483D01*
X255210Y538485D01*
X255270Y538481D01*
X264161Y538481D01*
X264161Y534594D01*
X264176Y534476D01*
X264183Y534357D01*
X264196Y534319D01*
X264201Y534279D01*
X264245Y534168D01*
X264281Y534054D01*
X264303Y534020D01*
X264318Y533983D01*
X264388Y533887D01*
X264452Y533786D01*
X264481Y533758D01*
X264504Y533726D01*
X264597Y533650D01*
X264684Y533568D01*
X264719Y533549D01*
X264749Y533523D01*
X264858Y533472D01*
X264962Y533415D01*
X265001Y533405D01*
X265037Y533388D01*
X265154Y533365D01*
X265270Y533335D01*
X265330Y533332D01*
X265349Y533328D01*
X265370Y533329D01*
X265431Y533325D01*
X293371Y533344D01*
X293489Y533359D01*
X293607Y533366D01*
X293646Y533379D01*
X293686Y533384D01*
X293797Y533428D01*
X293909Y533464D01*
X293944Y533486D01*
X293982Y533501D01*
X294078Y533571D01*
X294178Y533635D01*
X294206Y533664D01*
X294239Y533688D01*
X294315Y533780D01*
X294396Y533866D01*
X294416Y533902D01*
X294442Y533933D01*
X294492Y534041D01*
X294550Y534145D01*
X294560Y534184D01*
X294577Y534221D01*
X294599Y534338D01*
X294629Y534453D01*
X294633Y534513D01*
X294637Y534534D01*
X294635Y534554D01*
X294639Y534613D01*
X294639Y538481D01*
X303530Y538481D01*
X303648Y538496D01*
X303767Y538503D01*
X303805Y538516D01*
X303845Y538521D01*
X303956Y538564D01*
X304069Y538601D01*
X304104Y538623D01*
X304141Y538638D01*
X304237Y538708D01*
X304338Y538771D01*
X304366Y538801D01*
X304398Y538825D01*
X304474Y538916D01*
X304556Y539003D01*
X304575Y539038D01*
X304601Y539069D01*
X304652Y539177D01*
X304709Y539281D01*
X304720Y539321D01*
X304737Y539357D01*
X304759Y539474D01*
X304789Y539589D01*
X304793Y539650D01*
X304797Y539670D01*
X304795Y539690D01*
X304799Y539750D01*
X304799Y541021D01*
X304801Y541021D01*
X304801Y539750D01*
X304816Y539632D01*
X304823Y539513D01*
X304836Y539475D01*
X304841Y539435D01*
X304885Y539324D01*
X304921Y539211D01*
X304943Y539176D01*
X304958Y539139D01*
X305028Y539043D01*
X305091Y538942D01*
X305121Y538914D01*
X305145Y538881D01*
X305236Y538806D01*
X305323Y538724D01*
X305358Y538704D01*
X305390Y538679D01*
X305497Y538628D01*
X305601Y538570D01*
X305641Y538560D01*
X305677Y538543D01*
X305794Y538521D01*
X305909Y538491D01*
X305970Y538487D01*
X305990Y538483D01*
X306010Y538485D01*
X306070Y538481D01*
X314961Y538481D01*
X314961Y534629D01*
X314976Y534510D01*
X314983Y534391D01*
X314996Y534353D01*
X315001Y534313D01*
X315045Y534202D01*
X315081Y534088D01*
X315103Y534055D01*
X315118Y534017D01*
X315188Y533921D01*
X315252Y533820D01*
X315281Y533792D01*
X315304Y533760D01*
X315397Y533684D01*
X315484Y533602D01*
X315519Y533583D01*
X315549Y533557D01*
X315658Y533506D01*
X315762Y533449D01*
X315801Y533439D01*
X315837Y533422D01*
X315954Y533399D01*
X316070Y533369D01*
X316130Y533366D01*
X316149Y533362D01*
X316170Y533363D01*
X316231Y533359D01*
X366271Y533393D01*
X366389Y533408D01*
X366507Y533415D01*
X366546Y533428D01*
X366586Y533433D01*
X366697Y533477D01*
X366809Y533513D01*
X366844Y533535D01*
X366882Y533550D01*
X366978Y533620D01*
X367078Y533684D01*
X367106Y533713D01*
X367139Y533737D01*
X367215Y533829D01*
X367296Y533915D01*
X367316Y533951D01*
X367342Y533982D01*
X367392Y534090D01*
X367450Y534194D01*
X367460Y534233D01*
X367477Y534270D01*
X367499Y534387D01*
X367529Y534502D01*
X367533Y534562D01*
X367537Y534583D01*
X367535Y534603D01*
X367539Y534662D01*
X367539Y962552D01*
X367524Y962671D01*
X367517Y962790D01*
X367504Y962828D01*
X367499Y962868D01*
X367455Y962979D01*
X367419Y963093D01*
X367397Y963126D01*
X367382Y963164D01*
X367312Y963260D01*
X367248Y963361D01*
X367219Y963388D01*
X367196Y963421D01*
X367103Y963497D01*
X367016Y963579D01*
X366981Y963598D01*
X366951Y963624D01*
X366842Y963675D01*
X366738Y963732D01*
X366699Y963742D01*
X366663Y963759D01*
X366546Y963782D01*
X366430Y963811D01*
X366370Y963815D01*
X366351Y963819D01*
X366330Y963818D01*
X366269Y963822D01*
X11429Y963583D01*
X11311Y963568D01*
X11193Y963561D01*
X11154Y963548D01*
X11114Y963543D01*
X11003Y963499D01*
X10891Y963463D01*
X10856Y963441D01*
X10818Y963426D01*
X10722Y963356D01*
X10622Y963292D01*
X10594Y963263D01*
X10561Y963239D01*
X10485Y963147D01*
X10404Y963061D01*
X10384Y963025D01*
X10358Y962994D01*
X10308Y962886D01*
X10250Y962782D01*
X10240Y962743D01*
X10223Y962706D01*
X10201Y962589D01*
X10171Y962474D01*
X10167Y962414D01*
X10163Y962393D01*
X10165Y962373D01*
X10161Y962314D01*
X10161Y534424D01*
X10176Y534305D01*
X10183Y534186D01*
X10196Y534148D01*
X10201Y534108D01*
X10245Y533997D01*
X10281Y533883D01*
X10303Y533850D01*
X10318Y533812D01*
X10388Y533716D01*
X10452Y533615D01*
X10481Y533588D01*
X10504Y533555D01*
X10597Y533479D01*
X10684Y533397D01*
X10719Y533378D01*
X10749Y533352D01*
X10858Y533301D01*
X10962Y533244D01*
X11001Y533234D01*
X11037Y533217D01*
X11154Y533194D01*
X11270Y533165D01*
X11330Y533161D01*
X11349Y533157D01*
X11370Y533158D01*
X11431Y533154D01*
X96841Y533212D01*
G37*
%LPC*%
G36*
X167042Y577849D02*
X167042Y577849D01*
X163121Y579473D01*
X160119Y582475D01*
X158495Y586396D01*
X158495Y590640D01*
X160119Y594561D01*
X163121Y597563D01*
X167042Y599187D01*
X170434Y599187D01*
X170552Y599202D01*
X170671Y599209D01*
X170709Y599222D01*
X170750Y599227D01*
X170860Y599270D01*
X170973Y599307D01*
X171008Y599329D01*
X171045Y599344D01*
X171141Y599413D01*
X171242Y599477D01*
X171270Y599507D01*
X171303Y599530D01*
X171379Y599622D01*
X171460Y599709D01*
X171480Y599744D01*
X171505Y599775D01*
X171556Y599883D01*
X171614Y599987D01*
X171624Y600027D01*
X171641Y600063D01*
X171663Y600180D01*
X171693Y600295D01*
X171697Y600355D01*
X171701Y600375D01*
X171699Y600396D01*
X171703Y600456D01*
X171703Y622295D01*
X172477Y624162D01*
X174085Y625770D01*
X314356Y766041D01*
X314429Y766135D01*
X314508Y766224D01*
X314526Y766260D01*
X314551Y766292D01*
X314598Y766402D01*
X314652Y766508D01*
X314661Y766547D01*
X314677Y766584D01*
X314696Y766702D01*
X314722Y766818D01*
X314721Y766858D01*
X314727Y766898D01*
X314716Y767017D01*
X314712Y767136D01*
X314701Y767175D01*
X314697Y767215D01*
X314657Y767327D01*
X314624Y767441D01*
X314603Y767476D01*
X314590Y767514D01*
X314523Y767613D01*
X314462Y767715D01*
X314422Y767761D01*
X314411Y767777D01*
X314396Y767791D01*
X314356Y767836D01*
X313535Y768657D01*
X311911Y772578D01*
X311911Y776822D01*
X313535Y780743D01*
X316537Y783745D01*
X320458Y785369D01*
X339942Y785369D01*
X343863Y783745D01*
X346865Y780743D01*
X348489Y776822D01*
X348489Y772578D01*
X346865Y768657D01*
X343863Y765655D01*
X339942Y764031D01*
X327242Y764031D01*
X327144Y764019D01*
X327045Y764016D01*
X326987Y763999D01*
X326927Y763991D01*
X326835Y763955D01*
X326740Y763927D01*
X326687Y763897D01*
X326631Y763874D01*
X326551Y763816D01*
X326466Y763766D01*
X326390Y763700D01*
X326374Y763688D01*
X326366Y763678D01*
X326345Y763660D01*
X324821Y762135D01*
X324736Y762026D01*
X324647Y761919D01*
X324638Y761900D01*
X324626Y761884D01*
X324571Y761757D01*
X324511Y761631D01*
X324508Y761611D01*
X324499Y761592D01*
X324478Y761454D01*
X324452Y761318D01*
X324453Y761298D01*
X324450Y761278D01*
X324463Y761139D01*
X324471Y761001D01*
X324477Y760982D01*
X324479Y760962D01*
X324527Y760830D01*
X324569Y760699D01*
X324580Y760681D01*
X324587Y760662D01*
X324665Y760547D01*
X324739Y760430D01*
X324754Y760416D01*
X324766Y760399D01*
X324870Y760307D01*
X324971Y760212D01*
X324989Y760202D01*
X325004Y760189D01*
X325128Y760125D01*
X325250Y760058D01*
X325269Y760053D01*
X325287Y760044D01*
X325423Y760014D01*
X325558Y759979D01*
X325586Y759977D01*
X325598Y759974D01*
X325618Y759975D01*
X325718Y759969D01*
X339942Y759969D01*
X343863Y758345D01*
X346865Y755343D01*
X348489Y751422D01*
X348489Y747178D01*
X346865Y743257D01*
X343863Y740255D01*
X339942Y738631D01*
X320458Y738631D01*
X316537Y740255D01*
X313535Y743257D01*
X312038Y746871D01*
X312014Y746914D01*
X311997Y746961D01*
X311935Y747052D01*
X311881Y747147D01*
X311846Y747183D01*
X311818Y747224D01*
X311736Y747297D01*
X311659Y747376D01*
X311617Y747402D01*
X311580Y747435D01*
X311482Y747485D01*
X311388Y747542D01*
X311341Y747557D01*
X311297Y747579D01*
X311189Y747603D01*
X311084Y747636D01*
X311035Y747638D01*
X310986Y747649D01*
X310876Y747646D01*
X310767Y747651D01*
X310718Y747641D01*
X310668Y747639D01*
X310563Y747609D01*
X310455Y747587D01*
X310411Y747565D01*
X310363Y747551D01*
X310268Y747495D01*
X310170Y747447D01*
X310132Y747415D01*
X310089Y747389D01*
X309968Y747283D01*
X182236Y619551D01*
X182176Y619473D01*
X182108Y619401D01*
X182079Y619348D01*
X182042Y619300D01*
X182002Y619209D01*
X181954Y619122D01*
X181939Y619064D01*
X181915Y619008D01*
X181900Y618910D01*
X181875Y618814D01*
X181869Y618714D01*
X181865Y618694D01*
X181867Y618682D01*
X181865Y618654D01*
X181865Y600456D01*
X181880Y600338D01*
X181887Y600219D01*
X181900Y600181D01*
X181905Y600140D01*
X181948Y600030D01*
X181985Y599917D01*
X182007Y599882D01*
X182022Y599845D01*
X182091Y599749D01*
X182155Y599648D01*
X182185Y599620D01*
X182208Y599587D01*
X182300Y599511D01*
X182387Y599430D01*
X182422Y599410D01*
X182453Y599385D01*
X182561Y599334D01*
X182665Y599276D01*
X182705Y599266D01*
X182741Y599249D01*
X182858Y599227D01*
X182973Y599197D01*
X183033Y599193D01*
X183053Y599189D01*
X183074Y599191D01*
X183134Y599187D01*
X186526Y599187D01*
X190447Y597563D01*
X193449Y594561D01*
X195073Y590640D01*
X195073Y586396D01*
X193449Y582475D01*
X190447Y579473D01*
X186526Y577849D01*
X167042Y577849D01*
G37*
%LPD*%
%LPC*%
G36*
X41058Y764031D02*
X41058Y764031D01*
X37137Y765655D01*
X34135Y768657D01*
X32511Y772578D01*
X32511Y776822D01*
X34135Y780743D01*
X37137Y783745D01*
X41058Y785369D01*
X60542Y785369D01*
X64463Y783745D01*
X67465Y780743D01*
X69089Y776822D01*
X69089Y772578D01*
X67465Y768657D01*
X64463Y765655D01*
X60542Y764031D01*
X41058Y764031D01*
G37*
%LPD*%
%LPC*%
G36*
X41058Y738631D02*
X41058Y738631D01*
X37137Y740255D01*
X34135Y743257D01*
X32511Y747178D01*
X32511Y751422D01*
X34135Y755343D01*
X37137Y758345D01*
X41058Y759969D01*
X60542Y759969D01*
X64463Y758345D01*
X67465Y755343D01*
X69089Y751422D01*
X69089Y747178D01*
X67465Y743257D01*
X64463Y740255D01*
X60542Y738631D01*
X41058Y738631D01*
G37*
%LPD*%
%LPC*%
G36*
X320458Y713231D02*
X320458Y713231D01*
X316537Y714855D01*
X313535Y717857D01*
X311911Y721778D01*
X311911Y726022D01*
X313535Y729943D01*
X316537Y732945D01*
X320458Y734569D01*
X339942Y734569D01*
X343863Y732945D01*
X346865Y729943D01*
X348489Y726022D01*
X348489Y721778D01*
X346865Y717857D01*
X343863Y714855D01*
X339942Y713231D01*
X320458Y713231D01*
G37*
%LPD*%
%LPC*%
G36*
X41058Y713231D02*
X41058Y713231D01*
X37137Y714855D01*
X34135Y717857D01*
X32511Y721778D01*
X32511Y726022D01*
X34135Y729943D01*
X37137Y732945D01*
X41058Y734569D01*
X60542Y734569D01*
X64463Y732945D01*
X67465Y729943D01*
X69089Y726022D01*
X69089Y721778D01*
X67465Y717857D01*
X64463Y714855D01*
X60542Y713231D01*
X41058Y713231D01*
G37*
%LPD*%
%LPC*%
G36*
X320458Y687831D02*
X320458Y687831D01*
X316537Y689455D01*
X313535Y692457D01*
X311911Y696378D01*
X311911Y700622D01*
X313535Y704543D01*
X316537Y707545D01*
X320458Y709169D01*
X339942Y709169D01*
X343863Y707545D01*
X346865Y704543D01*
X348489Y700622D01*
X348489Y696378D01*
X346865Y692457D01*
X343863Y689455D01*
X339942Y687831D01*
X320458Y687831D01*
G37*
%LPD*%
%LPC*%
G36*
X41058Y687831D02*
X41058Y687831D01*
X37137Y689455D01*
X34135Y692457D01*
X32511Y696378D01*
X32511Y700622D01*
X34135Y704543D01*
X37137Y707545D01*
X41058Y709169D01*
X60542Y709169D01*
X64463Y707545D01*
X67465Y704543D01*
X69089Y700622D01*
X69089Y696378D01*
X67465Y692457D01*
X64463Y689455D01*
X60542Y687831D01*
X41058Y687831D01*
G37*
%LPD*%
%LPC*%
G36*
X41058Y662431D02*
X41058Y662431D01*
X37137Y664055D01*
X34135Y667057D01*
X32511Y670978D01*
X32511Y675222D01*
X34135Y679143D01*
X37137Y682145D01*
X41058Y683769D01*
X60542Y683769D01*
X64463Y682145D01*
X67465Y679143D01*
X69089Y675222D01*
X69089Y670978D01*
X67465Y667057D01*
X64463Y664055D01*
X60542Y662431D01*
X41058Y662431D01*
G37*
%LPD*%
%LPC*%
G36*
X102018Y577849D02*
X102018Y577849D01*
X98097Y579473D01*
X95095Y582475D01*
X93471Y586396D01*
X93471Y590640D01*
X95095Y594561D01*
X98097Y597563D01*
X102018Y599187D01*
X121502Y599187D01*
X125423Y597563D01*
X128425Y594561D01*
X130049Y590640D01*
X130049Y586396D01*
X128425Y582475D01*
X125423Y579473D01*
X121502Y577849D01*
X102018Y577849D01*
G37*
%LPD*%
%LPC*%
G36*
X307339Y543559D02*
X307339Y543559D01*
X307339Y563881D01*
X312754Y563881D01*
X313401Y563708D01*
X313980Y563373D01*
X314453Y562900D01*
X314788Y562321D01*
X314961Y561674D01*
X314961Y543559D01*
X307339Y543559D01*
G37*
%LPD*%
%LPC*%
G36*
X256539Y543559D02*
X256539Y543559D01*
X256539Y563881D01*
X261954Y563881D01*
X262601Y563708D01*
X263180Y563373D01*
X263653Y562900D01*
X263988Y562321D01*
X264161Y561674D01*
X264161Y543559D01*
X256539Y543559D01*
G37*
%LPD*%
%LPC*%
G36*
X294639Y543559D02*
X294639Y543559D01*
X294639Y561674D01*
X294812Y562321D01*
X295147Y562900D01*
X295620Y563373D01*
X296199Y563708D01*
X296846Y563881D01*
X302261Y563881D01*
X302261Y543559D01*
X294639Y543559D01*
G37*
%LPD*%
%LPC*%
G36*
X243839Y543559D02*
X243839Y543559D01*
X243839Y561674D01*
X244012Y562321D01*
X244347Y562900D01*
X244820Y563373D01*
X245399Y563708D01*
X246046Y563881D01*
X251461Y563881D01*
X251461Y543559D01*
X243839Y543559D01*
G37*
%LPD*%
%LPC*%
G36*
X114299Y545845D02*
X114299Y545845D01*
X114299Y553467D01*
X120180Y553467D01*
X121759Y553217D01*
X123280Y552722D01*
X124705Y551996D01*
X125847Y551167D01*
X125999Y551056D01*
X127130Y549925D01*
X128070Y548631D01*
X128796Y547206D01*
X129239Y545845D01*
X114299Y545845D01*
G37*
%LPD*%
%LPC*%
G36*
X179323Y545845D02*
X179323Y545845D01*
X179323Y553467D01*
X185204Y553467D01*
X186783Y553217D01*
X188304Y552722D01*
X189729Y551996D01*
X190871Y551167D01*
X191023Y551056D01*
X192154Y549925D01*
X193094Y548631D01*
X193820Y547206D01*
X194263Y545845D01*
X179323Y545845D01*
G37*
%LPD*%
%LPC*%
G36*
X332739Y675639D02*
X332739Y675639D01*
X332739Y683261D01*
X338620Y683261D01*
X340199Y683011D01*
X341720Y682516D01*
X343145Y681790D01*
X344439Y680850D01*
X345570Y679719D01*
X346510Y678425D01*
X347236Y677000D01*
X347679Y675639D01*
X332739Y675639D01*
G37*
%LPD*%
%LPC*%
G36*
X312721Y675639D02*
X312721Y675639D01*
X313164Y677000D01*
X313890Y678425D01*
X314830Y679719D01*
X315961Y680850D01*
X317255Y681790D01*
X318680Y682516D01*
X320201Y683011D01*
X321780Y683261D01*
X327661Y683261D01*
X327661Y675639D01*
X312721Y675639D01*
G37*
%LPD*%
%LPC*%
G36*
X94281Y545845D02*
X94281Y545845D01*
X94724Y547206D01*
X95450Y548631D01*
X96390Y549925D01*
X97521Y551056D01*
X98815Y551996D01*
X100240Y552722D01*
X101761Y553217D01*
X103340Y553467D01*
X109221Y553467D01*
X109221Y545845D01*
X94281Y545845D01*
G37*
%LPD*%
%LPC*%
G36*
X159305Y545845D02*
X159305Y545845D01*
X159748Y547206D01*
X160474Y548631D01*
X161414Y549925D01*
X162545Y551056D01*
X163839Y551996D01*
X165264Y552722D01*
X166785Y553217D01*
X168364Y553467D01*
X174245Y553467D01*
X174245Y545845D01*
X159305Y545845D01*
G37*
%LPD*%
%LPC*%
G36*
X332739Y662939D02*
X332739Y662939D01*
X332739Y670561D01*
X347679Y670561D01*
X347236Y669200D01*
X346510Y667775D01*
X345570Y666481D01*
X344439Y665350D01*
X343145Y664410D01*
X341720Y663684D01*
X340199Y663189D01*
X338620Y662939D01*
X332739Y662939D01*
G37*
%LPD*%
%LPC*%
G36*
X321780Y662939D02*
X321780Y662939D01*
X320201Y663189D01*
X318680Y663684D01*
X317255Y664410D01*
X315961Y665350D01*
X314830Y666481D01*
X313890Y667775D01*
X313164Y669200D01*
X312721Y670561D01*
X327661Y670561D01*
X327661Y662939D01*
X321780Y662939D01*
G37*
%LPD*%
%LPC*%
G36*
X330199Y673099D02*
X330199Y673099D01*
X330199Y673101D01*
X330201Y673101D01*
X330201Y673099D01*
X330199Y673099D01*
G37*
%LPD*%
D10*
X322580Y774700D02*
X337820Y774700D01*
X337820Y749300D02*
X322580Y749300D01*
X322580Y723900D02*
X337820Y723900D01*
X337820Y698500D02*
X322580Y698500D01*
X322580Y673100D02*
X337820Y673100D01*
X58420Y673100D02*
X43180Y673100D01*
X43180Y698500D02*
X58420Y698500D01*
X58420Y723900D02*
X43180Y723900D01*
X43180Y749300D02*
X58420Y749300D01*
X58420Y774700D02*
X43180Y774700D01*
X104140Y588518D02*
X119380Y588518D01*
X119380Y543306D02*
X104140Y543306D01*
X169164Y588518D02*
X184404Y588518D01*
X184404Y543306D02*
X169164Y543306D01*
D11*
X254000Y541020D03*
X304800Y541020D03*
D12*
X176784Y621284D02*
X330200Y774700D01*
X176784Y621284D02*
X176784Y588518D01*
M02*
