G04 EAGLE Gerber RS-274X export*
G75*
%MOMM*%
%FSLAX34Y34*%
%LPD*%
%INSilkscreen Top*%
%IPPOS*%
%AMOC8*
5,1,8,0,0,1.08239X$1,22.5*%
G01*
%ADD10C,0.152400*%
%ADD11C,0.127000*%
%ADD12C,0.050800*%
%ADD13C,0.177800*%
%ADD14C,0.508000*%
%ADD15C,0.120000*%
%ADD16C,0.076200*%
%ADD17R,0.200000X0.200000*%
%ADD18C,0.101600*%


D10*
X129032Y963168D02*
X129032Y946912D01*
X136257Y946912D01*
X141889Y950524D02*
X141889Y954137D01*
X141890Y954137D02*
X141892Y954256D01*
X141898Y954376D01*
X141908Y954495D01*
X141922Y954613D01*
X141939Y954732D01*
X141961Y954849D01*
X141986Y954966D01*
X142016Y955081D01*
X142049Y955196D01*
X142086Y955310D01*
X142126Y955422D01*
X142171Y955533D01*
X142219Y955642D01*
X142270Y955750D01*
X142325Y955856D01*
X142384Y955960D01*
X142446Y956062D01*
X142511Y956162D01*
X142580Y956260D01*
X142652Y956356D01*
X142727Y956449D01*
X142804Y956539D01*
X142885Y956627D01*
X142969Y956712D01*
X143056Y956794D01*
X143145Y956874D01*
X143237Y956950D01*
X143331Y957024D01*
X143428Y957094D01*
X143526Y957161D01*
X143627Y957225D01*
X143731Y957285D01*
X143836Y957342D01*
X143943Y957395D01*
X144051Y957445D01*
X144161Y957491D01*
X144273Y957533D01*
X144386Y957572D01*
X144500Y957607D01*
X144615Y957638D01*
X144732Y957666D01*
X144849Y957689D01*
X144966Y957709D01*
X145085Y957725D01*
X145204Y957737D01*
X145323Y957745D01*
X145442Y957749D01*
X145562Y957749D01*
X145681Y957745D01*
X145800Y957737D01*
X145919Y957725D01*
X146038Y957709D01*
X146155Y957689D01*
X146272Y957666D01*
X146389Y957638D01*
X146504Y957607D01*
X146618Y957572D01*
X146731Y957533D01*
X146843Y957491D01*
X146953Y957445D01*
X147061Y957395D01*
X147168Y957342D01*
X147273Y957285D01*
X147377Y957225D01*
X147478Y957161D01*
X147576Y957094D01*
X147673Y957024D01*
X147767Y956950D01*
X147859Y956874D01*
X147948Y956794D01*
X148035Y956712D01*
X148119Y956627D01*
X148200Y956539D01*
X148277Y956449D01*
X148352Y956356D01*
X148424Y956260D01*
X148493Y956162D01*
X148558Y956062D01*
X148620Y955960D01*
X148679Y955856D01*
X148734Y955750D01*
X148785Y955642D01*
X148833Y955533D01*
X148878Y955422D01*
X148918Y955310D01*
X148955Y955196D01*
X148988Y955081D01*
X149018Y954966D01*
X149043Y954849D01*
X149065Y954732D01*
X149082Y954613D01*
X149096Y954495D01*
X149106Y954376D01*
X149112Y954256D01*
X149114Y954137D01*
X149114Y950524D01*
X149112Y950405D01*
X149106Y950285D01*
X149096Y950166D01*
X149082Y950048D01*
X149065Y949929D01*
X149043Y949812D01*
X149018Y949695D01*
X148988Y949580D01*
X148955Y949465D01*
X148918Y949351D01*
X148878Y949239D01*
X148833Y949128D01*
X148785Y949019D01*
X148734Y948911D01*
X148679Y948805D01*
X148620Y948701D01*
X148558Y948599D01*
X148493Y948499D01*
X148424Y948401D01*
X148352Y948305D01*
X148277Y948212D01*
X148200Y948122D01*
X148119Y948034D01*
X148035Y947949D01*
X147948Y947867D01*
X147859Y947787D01*
X147767Y947711D01*
X147673Y947637D01*
X147576Y947567D01*
X147478Y947500D01*
X147377Y947436D01*
X147273Y947376D01*
X147168Y947319D01*
X147061Y947266D01*
X146953Y947216D01*
X146843Y947170D01*
X146731Y947128D01*
X146618Y947089D01*
X146504Y947054D01*
X146389Y947023D01*
X146272Y946995D01*
X146155Y946972D01*
X146038Y946952D01*
X145919Y946936D01*
X145800Y946924D01*
X145681Y946916D01*
X145562Y946912D01*
X145442Y946912D01*
X145323Y946916D01*
X145204Y946924D01*
X145085Y946936D01*
X144966Y946952D01*
X144849Y946972D01*
X144732Y946995D01*
X144615Y947023D01*
X144500Y947054D01*
X144386Y947089D01*
X144273Y947128D01*
X144161Y947170D01*
X144051Y947216D01*
X143943Y947266D01*
X143836Y947319D01*
X143731Y947376D01*
X143627Y947436D01*
X143526Y947500D01*
X143428Y947567D01*
X143331Y947637D01*
X143237Y947711D01*
X143145Y947787D01*
X143056Y947867D01*
X142969Y947949D01*
X142885Y948034D01*
X142804Y948122D01*
X142727Y948212D01*
X142652Y948305D01*
X142580Y948401D01*
X142511Y948499D01*
X142446Y948599D01*
X142384Y948701D01*
X142325Y948805D01*
X142270Y948911D01*
X142219Y949019D01*
X142171Y949128D01*
X142126Y949239D01*
X142086Y949351D01*
X142049Y949465D01*
X142016Y949580D01*
X141986Y949695D01*
X141961Y949812D01*
X141939Y949929D01*
X141922Y950048D01*
X141908Y950166D01*
X141898Y950285D01*
X141892Y950405D01*
X141890Y950524D01*
X156188Y946912D02*
X156188Y963168D01*
X160703Y963168D01*
X160836Y963166D01*
X160968Y963160D01*
X161100Y963150D01*
X161232Y963137D01*
X161364Y963119D01*
X161494Y963098D01*
X161625Y963073D01*
X161754Y963044D01*
X161882Y963011D01*
X162010Y962975D01*
X162136Y962935D01*
X162261Y962891D01*
X162385Y962843D01*
X162507Y962792D01*
X162628Y962737D01*
X162747Y962679D01*
X162865Y962617D01*
X162980Y962552D01*
X163094Y962483D01*
X163205Y962412D01*
X163314Y962336D01*
X163421Y962258D01*
X163526Y962177D01*
X163628Y962092D01*
X163728Y962005D01*
X163825Y961915D01*
X163920Y961822D01*
X164011Y961726D01*
X164100Y961628D01*
X164186Y961527D01*
X164269Y961423D01*
X164349Y961317D01*
X164425Y961209D01*
X164499Y961099D01*
X164569Y960986D01*
X164636Y960872D01*
X164699Y960755D01*
X164759Y960637D01*
X164816Y960517D01*
X164869Y960395D01*
X164918Y960272D01*
X164964Y960148D01*
X165006Y960022D01*
X165044Y959895D01*
X165079Y959767D01*
X165110Y959638D01*
X165137Y959509D01*
X165160Y959378D01*
X165180Y959247D01*
X165195Y959115D01*
X165207Y958983D01*
X165215Y958851D01*
X165219Y958718D01*
X165219Y958586D01*
X165215Y958453D01*
X165207Y958321D01*
X165195Y958189D01*
X165180Y958057D01*
X165160Y957926D01*
X165137Y957795D01*
X165110Y957666D01*
X165079Y957537D01*
X165044Y957409D01*
X165006Y957282D01*
X164964Y957156D01*
X164918Y957032D01*
X164869Y956909D01*
X164816Y956787D01*
X164759Y956667D01*
X164699Y956549D01*
X164636Y956432D01*
X164569Y956318D01*
X164499Y956205D01*
X164425Y956095D01*
X164349Y955987D01*
X164269Y955881D01*
X164186Y955777D01*
X164100Y955676D01*
X164011Y955578D01*
X163920Y955482D01*
X163825Y955389D01*
X163728Y955299D01*
X163628Y955212D01*
X163526Y955127D01*
X163421Y955046D01*
X163314Y954968D01*
X163205Y954892D01*
X163094Y954821D01*
X162980Y954752D01*
X162865Y954687D01*
X162747Y954625D01*
X162628Y954567D01*
X162507Y954512D01*
X162385Y954461D01*
X162261Y954413D01*
X162136Y954369D01*
X162010Y954329D01*
X161882Y954293D01*
X161754Y954260D01*
X161625Y954231D01*
X161494Y954206D01*
X161364Y954185D01*
X161232Y954167D01*
X161100Y954154D01*
X160968Y954144D01*
X160836Y954138D01*
X160703Y954136D01*
X160703Y954137D02*
X156188Y954137D01*
X161607Y954137D02*
X165219Y946912D01*
X174676Y953234D02*
X178740Y953234D01*
X174676Y953234D02*
X174564Y953232D01*
X174453Y953226D01*
X174342Y953216D01*
X174231Y953203D01*
X174121Y953185D01*
X174012Y953163D01*
X173903Y953138D01*
X173795Y953109D01*
X173689Y953076D01*
X173583Y953039D01*
X173479Y952999D01*
X173377Y952955D01*
X173276Y952907D01*
X173177Y952856D01*
X173079Y952801D01*
X172984Y952743D01*
X172891Y952682D01*
X172800Y952617D01*
X172711Y952549D01*
X172625Y952478D01*
X172542Y952405D01*
X172461Y952328D01*
X172382Y952248D01*
X172307Y952166D01*
X172235Y952081D01*
X172165Y951994D01*
X172099Y951904D01*
X172036Y951812D01*
X171976Y951717D01*
X171920Y951621D01*
X171867Y951523D01*
X171818Y951423D01*
X171772Y951321D01*
X171730Y951218D01*
X171691Y951113D01*
X171656Y951007D01*
X171625Y950900D01*
X171598Y950792D01*
X171574Y950683D01*
X171555Y950573D01*
X171539Y950463D01*
X171527Y950352D01*
X171519Y950240D01*
X171515Y950129D01*
X171515Y950017D01*
X171519Y949906D01*
X171527Y949794D01*
X171539Y949683D01*
X171555Y949573D01*
X171574Y949463D01*
X171598Y949354D01*
X171625Y949246D01*
X171656Y949139D01*
X171691Y949033D01*
X171730Y948928D01*
X171772Y948825D01*
X171818Y948723D01*
X171867Y948623D01*
X171920Y948525D01*
X171976Y948429D01*
X172036Y948334D01*
X172099Y948242D01*
X172165Y948152D01*
X172235Y948065D01*
X172307Y947980D01*
X172382Y947898D01*
X172461Y947818D01*
X172542Y947741D01*
X172625Y947668D01*
X172711Y947597D01*
X172800Y947529D01*
X172891Y947464D01*
X172984Y947403D01*
X173079Y947345D01*
X173177Y947290D01*
X173276Y947239D01*
X173377Y947191D01*
X173479Y947147D01*
X173583Y947107D01*
X173689Y947070D01*
X173795Y947037D01*
X173903Y947008D01*
X174012Y946983D01*
X174121Y946961D01*
X174231Y946943D01*
X174342Y946930D01*
X174453Y946920D01*
X174564Y946914D01*
X174676Y946912D01*
X178740Y946912D01*
X178740Y955040D01*
X178738Y955141D01*
X178732Y955242D01*
X178723Y955343D01*
X178710Y955444D01*
X178693Y955544D01*
X178672Y955643D01*
X178648Y955741D01*
X178620Y955838D01*
X178588Y955935D01*
X178553Y956030D01*
X178514Y956123D01*
X178472Y956215D01*
X178426Y956306D01*
X178377Y956395D01*
X178325Y956481D01*
X178269Y956566D01*
X178211Y956649D01*
X178149Y956729D01*
X178084Y956807D01*
X178017Y956883D01*
X177947Y956956D01*
X177874Y957026D01*
X177798Y957093D01*
X177720Y957158D01*
X177640Y957220D01*
X177557Y957278D01*
X177472Y957334D01*
X177386Y957386D01*
X177297Y957435D01*
X177206Y957481D01*
X177114Y957523D01*
X177021Y957562D01*
X176926Y957597D01*
X176829Y957629D01*
X176732Y957657D01*
X176634Y957681D01*
X176535Y957702D01*
X176435Y957719D01*
X176334Y957732D01*
X176233Y957741D01*
X176132Y957747D01*
X176031Y957749D01*
X172418Y957749D01*
X185171Y963168D02*
X188783Y946912D01*
X192395Y957749D01*
X196008Y946912D01*
X199620Y963168D01*
X210111Y963168D02*
X204692Y946912D01*
X215529Y946912D02*
X210111Y963168D01*
X214175Y950976D02*
X206047Y950976D01*
X221748Y946912D02*
X221748Y963168D01*
X230779Y946912D01*
X230779Y963168D01*
D11*
X55451Y635381D02*
X54378Y635381D01*
X54313Y635383D01*
X54249Y635389D01*
X54185Y635399D01*
X54121Y635412D01*
X54059Y635430D01*
X53998Y635451D01*
X53938Y635475D01*
X53880Y635504D01*
X53823Y635536D01*
X53769Y635571D01*
X53717Y635609D01*
X53667Y635651D01*
X53620Y635695D01*
X53576Y635742D01*
X53534Y635792D01*
X53496Y635844D01*
X53461Y635898D01*
X53429Y635955D01*
X53400Y636013D01*
X53376Y636073D01*
X53355Y636134D01*
X53337Y636196D01*
X53324Y636260D01*
X53314Y636324D01*
X53308Y636388D01*
X53306Y636453D01*
X53306Y639135D01*
X53308Y639200D01*
X53314Y639264D01*
X53324Y639328D01*
X53337Y639392D01*
X53355Y639454D01*
X53376Y639515D01*
X53400Y639575D01*
X53429Y639633D01*
X53461Y639690D01*
X53496Y639744D01*
X53534Y639796D01*
X53576Y639846D01*
X53620Y639893D01*
X53667Y639937D01*
X53717Y639979D01*
X53769Y640017D01*
X53823Y640052D01*
X53880Y640084D01*
X53938Y640113D01*
X53998Y640137D01*
X54059Y640158D01*
X54121Y640176D01*
X54185Y640189D01*
X54249Y640199D01*
X54313Y640205D01*
X54378Y640207D01*
X55451Y640207D01*
X57907Y639135D02*
X59247Y640207D01*
X59247Y635381D01*
X57907Y635381D02*
X60588Y635381D01*
X63393Y637794D02*
X63395Y637914D01*
X63400Y638034D01*
X63409Y638154D01*
X63422Y638274D01*
X63438Y638393D01*
X63458Y638512D01*
X63482Y638630D01*
X63509Y638747D01*
X63539Y638863D01*
X63573Y638978D01*
X63611Y639093D01*
X63652Y639206D01*
X63696Y639317D01*
X63744Y639428D01*
X63795Y639537D01*
X63796Y639537D02*
X63817Y639594D01*
X63843Y639650D01*
X63871Y639705D01*
X63903Y639757D01*
X63939Y639808D01*
X63977Y639856D01*
X64018Y639902D01*
X64062Y639945D01*
X64108Y639985D01*
X64157Y640022D01*
X64209Y640056D01*
X64262Y640087D01*
X64317Y640115D01*
X64373Y640139D01*
X64431Y640160D01*
X64490Y640177D01*
X64550Y640190D01*
X64611Y640199D01*
X64673Y640205D01*
X64734Y640207D01*
X64795Y640205D01*
X64857Y640199D01*
X64918Y640190D01*
X64978Y640177D01*
X65037Y640160D01*
X65095Y640139D01*
X65151Y640115D01*
X65206Y640087D01*
X65259Y640056D01*
X65311Y640022D01*
X65360Y639985D01*
X65406Y639945D01*
X65450Y639902D01*
X65491Y639856D01*
X65529Y639808D01*
X65565Y639757D01*
X65597Y639705D01*
X65625Y639650D01*
X65651Y639594D01*
X65672Y639537D01*
X65723Y639428D01*
X65771Y639317D01*
X65815Y639206D01*
X65856Y639093D01*
X65894Y638978D01*
X65928Y638863D01*
X65958Y638747D01*
X65985Y638630D01*
X66009Y638512D01*
X66029Y638393D01*
X66045Y638274D01*
X66058Y638154D01*
X66067Y638034D01*
X66072Y637914D01*
X66074Y637794D01*
X63393Y637794D02*
X63395Y637674D01*
X63400Y637554D01*
X63409Y637434D01*
X63422Y637314D01*
X63438Y637195D01*
X63458Y637076D01*
X63482Y636958D01*
X63509Y636841D01*
X63539Y636725D01*
X63573Y636610D01*
X63611Y636495D01*
X63652Y636382D01*
X63696Y636271D01*
X63744Y636160D01*
X63795Y636051D01*
X63796Y636051D02*
X63817Y635994D01*
X63843Y635938D01*
X63871Y635883D01*
X63903Y635831D01*
X63939Y635780D01*
X63977Y635732D01*
X64018Y635686D01*
X64062Y635643D01*
X64108Y635603D01*
X64157Y635566D01*
X64209Y635532D01*
X64262Y635501D01*
X64317Y635473D01*
X64373Y635449D01*
X64431Y635428D01*
X64490Y635411D01*
X64550Y635398D01*
X64611Y635389D01*
X64673Y635383D01*
X64734Y635381D01*
X65672Y636051D02*
X65723Y636160D01*
X65771Y636271D01*
X65815Y636382D01*
X65856Y636495D01*
X65894Y636610D01*
X65928Y636725D01*
X65958Y636841D01*
X65985Y636958D01*
X66009Y637076D01*
X66029Y637195D01*
X66045Y637314D01*
X66058Y637434D01*
X66067Y637554D01*
X66072Y637674D01*
X66074Y637794D01*
X65672Y636051D02*
X65651Y635994D01*
X65625Y635938D01*
X65597Y635883D01*
X65565Y635831D01*
X65529Y635780D01*
X65491Y635732D01*
X65450Y635686D01*
X65406Y635643D01*
X65359Y635603D01*
X65311Y635566D01*
X65259Y635532D01*
X65206Y635501D01*
X65151Y635473D01*
X65095Y635449D01*
X65037Y635428D01*
X64978Y635411D01*
X64918Y635398D01*
X64857Y635389D01*
X64795Y635383D01*
X64734Y635381D01*
X63661Y636453D02*
X65806Y639135D01*
D10*
X342900Y768350D02*
X342900Y781050D01*
X342900Y768350D02*
X336550Y762000D01*
X323850Y762000D02*
X317500Y768350D01*
X336550Y762000D02*
X342900Y755650D01*
X342900Y742950D01*
X336550Y736600D01*
X323850Y736600D02*
X317500Y742950D01*
X317500Y755650D01*
X323850Y762000D01*
X323850Y787400D02*
X336550Y787400D01*
X342900Y781050D01*
X323850Y787400D02*
X317500Y781050D01*
X317500Y768350D01*
X336550Y736600D02*
X342900Y730250D01*
X342900Y717550D01*
X336550Y711200D01*
X323850Y711200D02*
X317500Y717550D01*
X317500Y730250D01*
X323850Y736600D01*
X342900Y704850D02*
X342900Y692150D01*
X336550Y685800D01*
X323850Y685800D02*
X317500Y692150D01*
X336550Y685800D02*
X342900Y679450D01*
X342900Y666750D01*
X336550Y660400D01*
X323850Y660400D01*
X317500Y666750D01*
X317500Y679450D01*
X323850Y685800D01*
X342900Y704850D02*
X336550Y711200D01*
X323850Y711200D02*
X317500Y704850D01*
X317500Y692150D01*
D11*
X304165Y774065D02*
X301625Y777240D01*
X313055Y777240D01*
X313055Y774065D02*
X313055Y780415D01*
X358775Y676275D02*
X358775Y672465D01*
X358775Y676275D02*
X358773Y676375D01*
X358767Y676474D01*
X358757Y676574D01*
X358744Y676672D01*
X358726Y676771D01*
X358705Y676868D01*
X358680Y676964D01*
X358651Y677060D01*
X358618Y677154D01*
X358582Y677247D01*
X358542Y677338D01*
X358498Y677428D01*
X358451Y677516D01*
X358401Y677602D01*
X358347Y677686D01*
X358290Y677768D01*
X358230Y677847D01*
X358166Y677925D01*
X358100Y677999D01*
X358031Y678071D01*
X357959Y678140D01*
X357885Y678206D01*
X357807Y678270D01*
X357728Y678330D01*
X357646Y678387D01*
X357562Y678441D01*
X357476Y678491D01*
X357388Y678538D01*
X357298Y678582D01*
X357207Y678622D01*
X357114Y678658D01*
X357020Y678691D01*
X356924Y678720D01*
X356828Y678745D01*
X356731Y678766D01*
X356632Y678784D01*
X356534Y678797D01*
X356434Y678807D01*
X356335Y678813D01*
X356235Y678815D01*
X354965Y678815D01*
X354865Y678813D01*
X354766Y678807D01*
X354666Y678797D01*
X354568Y678784D01*
X354469Y678766D01*
X354372Y678745D01*
X354276Y678720D01*
X354180Y678691D01*
X354086Y678658D01*
X353993Y678622D01*
X353902Y678582D01*
X353812Y678538D01*
X353724Y678491D01*
X353638Y678441D01*
X353554Y678387D01*
X353472Y678330D01*
X353393Y678270D01*
X353315Y678206D01*
X353241Y678140D01*
X353169Y678071D01*
X353100Y677999D01*
X353034Y677925D01*
X352970Y677847D01*
X352910Y677768D01*
X352853Y677686D01*
X352799Y677602D01*
X352749Y677516D01*
X352702Y677428D01*
X352658Y677338D01*
X352618Y677247D01*
X352582Y677154D01*
X352549Y677060D01*
X352520Y676964D01*
X352495Y676868D01*
X352474Y676771D01*
X352456Y676672D01*
X352443Y676574D01*
X352433Y676474D01*
X352427Y676375D01*
X352425Y676275D01*
X352425Y672465D01*
X347345Y672465D01*
X347345Y678815D01*
D10*
X38100Y679450D02*
X38100Y666750D01*
X38100Y679450D02*
X44450Y685800D01*
X57150Y685800D02*
X63500Y679450D01*
X44450Y685800D02*
X38100Y692150D01*
X38100Y704850D01*
X44450Y711200D01*
X57150Y711200D02*
X63500Y704850D01*
X63500Y692150D01*
X57150Y685800D01*
X57150Y660400D02*
X44450Y660400D01*
X38100Y666750D01*
X57150Y660400D02*
X63500Y666750D01*
X63500Y679450D01*
X44450Y711200D02*
X38100Y717550D01*
X38100Y730250D01*
X44450Y736600D01*
X57150Y736600D02*
X63500Y730250D01*
X63500Y717550D01*
X57150Y711200D01*
X38100Y742950D02*
X38100Y755650D01*
X44450Y762000D01*
X57150Y762000D02*
X63500Y755650D01*
X44450Y762000D02*
X38100Y768350D01*
X38100Y781050D01*
X44450Y787400D01*
X57150Y787400D01*
X63500Y781050D01*
X63500Y768350D01*
X57150Y762000D01*
X38100Y742950D02*
X44450Y736600D01*
X57150Y736600D02*
X63500Y742950D01*
X63500Y755650D01*
D11*
X67945Y670560D02*
X70485Y667385D01*
X67945Y670560D02*
X79375Y670560D01*
X79375Y667385D02*
X79375Y673735D01*
X33655Y768985D02*
X33655Y772795D01*
X33653Y772895D01*
X33647Y772994D01*
X33637Y773094D01*
X33624Y773192D01*
X33606Y773291D01*
X33585Y773388D01*
X33560Y773484D01*
X33531Y773580D01*
X33498Y773674D01*
X33462Y773767D01*
X33422Y773858D01*
X33378Y773948D01*
X33331Y774036D01*
X33281Y774122D01*
X33227Y774206D01*
X33170Y774288D01*
X33110Y774367D01*
X33046Y774445D01*
X32980Y774519D01*
X32911Y774591D01*
X32839Y774660D01*
X32765Y774726D01*
X32687Y774790D01*
X32608Y774850D01*
X32526Y774907D01*
X32442Y774961D01*
X32356Y775011D01*
X32268Y775058D01*
X32178Y775102D01*
X32087Y775142D01*
X31994Y775178D01*
X31900Y775211D01*
X31804Y775240D01*
X31708Y775265D01*
X31611Y775286D01*
X31512Y775304D01*
X31414Y775317D01*
X31314Y775327D01*
X31215Y775333D01*
X31115Y775335D01*
X29845Y775335D01*
X29745Y775333D01*
X29646Y775327D01*
X29546Y775317D01*
X29448Y775304D01*
X29349Y775286D01*
X29252Y775265D01*
X29156Y775240D01*
X29060Y775211D01*
X28966Y775178D01*
X28873Y775142D01*
X28782Y775102D01*
X28692Y775058D01*
X28604Y775011D01*
X28518Y774961D01*
X28434Y774907D01*
X28352Y774850D01*
X28273Y774790D01*
X28195Y774726D01*
X28121Y774660D01*
X28049Y774591D01*
X27980Y774519D01*
X27914Y774445D01*
X27850Y774367D01*
X27790Y774288D01*
X27733Y774206D01*
X27679Y774122D01*
X27629Y774036D01*
X27582Y773948D01*
X27538Y773858D01*
X27498Y773767D01*
X27462Y773674D01*
X27429Y773580D01*
X27400Y773484D01*
X27375Y773388D01*
X27354Y773291D01*
X27336Y773192D01*
X27323Y773094D01*
X27313Y772994D01*
X27307Y772895D01*
X27305Y772795D01*
X27305Y768985D01*
X22225Y768985D01*
X22225Y775335D01*
D10*
X174752Y558292D02*
X177292Y558292D01*
X177292Y573532D01*
X174752Y573532D01*
X113792Y573532D02*
X111252Y573532D01*
X111252Y558292D01*
X113792Y558292D01*
D12*
X131572Y593852D02*
X131572Y596392D01*
X131572Y593852D02*
X156972Y593852D01*
X156972Y596392D01*
X155702Y537972D02*
X131572Y537972D01*
X155702Y537972D02*
X155702Y535432D01*
X131572Y535432D02*
X131572Y537972D01*
D10*
X131572Y535432D02*
X122682Y535432D01*
X156972Y596392D02*
X165862Y596392D01*
X156972Y596392D02*
X131572Y596392D01*
X122682Y596392D01*
X131572Y535432D02*
X155702Y535432D01*
X165862Y535432D01*
X174752Y555752D02*
X174752Y558292D01*
X174752Y573532D02*
X174752Y576072D01*
X113792Y558292D02*
X113792Y555752D01*
X113792Y573532D02*
X113792Y576072D01*
X126492Y565912D02*
X126497Y566348D01*
X126513Y566784D01*
X126540Y567220D01*
X126578Y567655D01*
X126626Y568088D01*
X126684Y568521D01*
X126754Y568952D01*
X126834Y569381D01*
X126924Y569808D01*
X127025Y570232D01*
X127136Y570654D01*
X127258Y571073D01*
X127389Y571489D01*
X127531Y571902D01*
X127683Y572311D01*
X127845Y572716D01*
X128017Y573117D01*
X128199Y573514D01*
X128390Y573906D01*
X128591Y574293D01*
X128802Y574676D01*
X129022Y575053D01*
X129251Y575424D01*
X129488Y575790D01*
X129735Y576150D01*
X129991Y576504D01*
X130255Y576851D01*
X130528Y577192D01*
X130809Y577525D01*
X131098Y577852D01*
X131395Y578172D01*
X131700Y578484D01*
X132012Y578789D01*
X132332Y579086D01*
X132659Y579375D01*
X132992Y579656D01*
X133333Y579929D01*
X133680Y580193D01*
X134034Y580449D01*
X134394Y580696D01*
X134760Y580933D01*
X135131Y581162D01*
X135508Y581382D01*
X135891Y581593D01*
X136278Y581794D01*
X136670Y581985D01*
X137067Y582167D01*
X137468Y582339D01*
X137873Y582501D01*
X138282Y582653D01*
X138695Y582795D01*
X139111Y582926D01*
X139530Y583048D01*
X139952Y583159D01*
X140376Y583260D01*
X140803Y583350D01*
X141232Y583430D01*
X141663Y583500D01*
X142096Y583558D01*
X142529Y583606D01*
X142964Y583644D01*
X143400Y583671D01*
X143836Y583687D01*
X144272Y583692D01*
X144708Y583687D01*
X145144Y583671D01*
X145580Y583644D01*
X146015Y583606D01*
X146448Y583558D01*
X146881Y583500D01*
X147312Y583430D01*
X147741Y583350D01*
X148168Y583260D01*
X148592Y583159D01*
X149014Y583048D01*
X149433Y582926D01*
X149849Y582795D01*
X150262Y582653D01*
X150671Y582501D01*
X151076Y582339D01*
X151477Y582167D01*
X151874Y581985D01*
X152266Y581794D01*
X152653Y581593D01*
X153036Y581382D01*
X153413Y581162D01*
X153784Y580933D01*
X154150Y580696D01*
X154510Y580449D01*
X154864Y580193D01*
X155211Y579929D01*
X155552Y579656D01*
X155885Y579375D01*
X156212Y579086D01*
X156532Y578789D01*
X156844Y578484D01*
X157149Y578172D01*
X157446Y577852D01*
X157735Y577525D01*
X158016Y577192D01*
X158289Y576851D01*
X158553Y576504D01*
X158809Y576150D01*
X159056Y575790D01*
X159293Y575424D01*
X159522Y575053D01*
X159742Y574676D01*
X159953Y574293D01*
X160154Y573906D01*
X160345Y573514D01*
X160527Y573117D01*
X160699Y572716D01*
X160861Y572311D01*
X161013Y571902D01*
X161155Y571489D01*
X161286Y571073D01*
X161408Y570654D01*
X161519Y570232D01*
X161620Y569808D01*
X161710Y569381D01*
X161790Y568952D01*
X161860Y568521D01*
X161918Y568088D01*
X161966Y567655D01*
X162004Y567220D01*
X162031Y566784D01*
X162047Y566348D01*
X162052Y565912D01*
X162047Y565476D01*
X162031Y565040D01*
X162004Y564604D01*
X161966Y564169D01*
X161918Y563736D01*
X161860Y563303D01*
X161790Y562872D01*
X161710Y562443D01*
X161620Y562016D01*
X161519Y561592D01*
X161408Y561170D01*
X161286Y560751D01*
X161155Y560335D01*
X161013Y559922D01*
X160861Y559513D01*
X160699Y559108D01*
X160527Y558707D01*
X160345Y558310D01*
X160154Y557918D01*
X159953Y557531D01*
X159742Y557148D01*
X159522Y556771D01*
X159293Y556400D01*
X159056Y556034D01*
X158809Y555674D01*
X158553Y555320D01*
X158289Y554973D01*
X158016Y554632D01*
X157735Y554299D01*
X157446Y553972D01*
X157149Y553652D01*
X156844Y553340D01*
X156532Y553035D01*
X156212Y552738D01*
X155885Y552449D01*
X155552Y552168D01*
X155211Y551895D01*
X154864Y551631D01*
X154510Y551375D01*
X154150Y551128D01*
X153784Y550891D01*
X153413Y550662D01*
X153036Y550442D01*
X152653Y550231D01*
X152266Y550030D01*
X151874Y549839D01*
X151477Y549657D01*
X151076Y549485D01*
X150671Y549323D01*
X150262Y549171D01*
X149849Y549029D01*
X149433Y548898D01*
X149014Y548776D01*
X148592Y548665D01*
X148168Y548564D01*
X147741Y548474D01*
X147312Y548394D01*
X146881Y548324D01*
X146448Y548266D01*
X146015Y548218D01*
X145580Y548180D01*
X145144Y548153D01*
X144708Y548137D01*
X144272Y548132D01*
X143836Y548137D01*
X143400Y548153D01*
X142964Y548180D01*
X142529Y548218D01*
X142096Y548266D01*
X141663Y548324D01*
X141232Y548394D01*
X140803Y548474D01*
X140376Y548564D01*
X139952Y548665D01*
X139530Y548776D01*
X139111Y548898D01*
X138695Y549029D01*
X138282Y549171D01*
X137873Y549323D01*
X137468Y549485D01*
X137067Y549657D01*
X136670Y549839D01*
X136278Y550030D01*
X135891Y550231D01*
X135508Y550442D01*
X135131Y550662D01*
X134760Y550891D01*
X134394Y551128D01*
X134034Y551375D01*
X133680Y551631D01*
X133333Y551895D01*
X132992Y552168D01*
X132659Y552449D01*
X132332Y552738D01*
X132012Y553035D01*
X131700Y553340D01*
X131395Y553652D01*
X131098Y553972D01*
X130809Y554299D01*
X130528Y554632D01*
X130255Y554973D01*
X129991Y555320D01*
X129735Y555674D01*
X129488Y556034D01*
X129251Y556400D01*
X129022Y556771D01*
X128802Y557148D01*
X128591Y557531D01*
X128390Y557918D01*
X128199Y558310D01*
X128017Y558707D01*
X127845Y559108D01*
X127683Y559513D01*
X127531Y559922D01*
X127389Y560335D01*
X127258Y560751D01*
X127136Y561170D01*
X127025Y561592D01*
X126924Y562016D01*
X126834Y562443D01*
X126754Y562872D01*
X126684Y563303D01*
X126626Y563736D01*
X126578Y564169D01*
X126540Y564604D01*
X126513Y565040D01*
X126497Y565476D01*
X126492Y565912D01*
X141732Y565912D02*
X141734Y566012D01*
X141740Y566113D01*
X141750Y566212D01*
X141764Y566312D01*
X141781Y566411D01*
X141803Y566509D01*
X141829Y566606D01*
X141858Y566702D01*
X141891Y566796D01*
X141928Y566890D01*
X141968Y566982D01*
X142012Y567072D01*
X142060Y567160D01*
X142111Y567247D01*
X142165Y567331D01*
X142223Y567413D01*
X142284Y567493D01*
X142348Y567570D01*
X142415Y567645D01*
X142485Y567717D01*
X142558Y567786D01*
X142633Y567852D01*
X142711Y567916D01*
X142791Y567976D01*
X142874Y568033D01*
X142959Y568086D01*
X143046Y568136D01*
X143135Y568183D01*
X143225Y568226D01*
X143317Y568266D01*
X143411Y568302D01*
X143506Y568334D01*
X143602Y568362D01*
X143700Y568387D01*
X143798Y568407D01*
X143897Y568424D01*
X143997Y568437D01*
X144096Y568446D01*
X144197Y568451D01*
X144297Y568452D01*
X144397Y568449D01*
X144498Y568442D01*
X144597Y568431D01*
X144697Y568416D01*
X144795Y568398D01*
X144893Y568375D01*
X144990Y568348D01*
X145085Y568318D01*
X145180Y568284D01*
X145273Y568246D01*
X145364Y568205D01*
X145454Y568160D01*
X145542Y568112D01*
X145628Y568060D01*
X145712Y568005D01*
X145793Y567946D01*
X145872Y567884D01*
X145949Y567820D01*
X146023Y567752D01*
X146094Y567681D01*
X146163Y567608D01*
X146228Y567532D01*
X146291Y567453D01*
X146350Y567372D01*
X146406Y567289D01*
X146459Y567204D01*
X146508Y567116D01*
X146554Y567027D01*
X146596Y566936D01*
X146635Y566843D01*
X146670Y566749D01*
X146701Y566654D01*
X146729Y566557D01*
X146752Y566460D01*
X146772Y566361D01*
X146788Y566262D01*
X146800Y566163D01*
X146808Y566062D01*
X146812Y565962D01*
X146812Y565862D01*
X146808Y565762D01*
X146800Y565661D01*
X146788Y565562D01*
X146772Y565463D01*
X146752Y565364D01*
X146729Y565267D01*
X146701Y565170D01*
X146670Y565075D01*
X146635Y564981D01*
X146596Y564888D01*
X146554Y564797D01*
X146508Y564708D01*
X146459Y564620D01*
X146406Y564535D01*
X146350Y564452D01*
X146291Y564371D01*
X146228Y564292D01*
X146163Y564216D01*
X146094Y564143D01*
X146023Y564072D01*
X145949Y564004D01*
X145872Y563940D01*
X145793Y563878D01*
X145712Y563819D01*
X145628Y563764D01*
X145542Y563712D01*
X145454Y563664D01*
X145364Y563619D01*
X145273Y563578D01*
X145180Y563540D01*
X145085Y563506D01*
X144990Y563476D01*
X144893Y563449D01*
X144795Y563426D01*
X144697Y563408D01*
X144597Y563393D01*
X144498Y563382D01*
X144397Y563375D01*
X144297Y563372D01*
X144197Y563373D01*
X144096Y563378D01*
X143997Y563387D01*
X143897Y563400D01*
X143798Y563417D01*
X143700Y563437D01*
X143602Y563462D01*
X143506Y563490D01*
X143411Y563522D01*
X143317Y563558D01*
X143225Y563598D01*
X143135Y563641D01*
X143046Y563688D01*
X142959Y563738D01*
X142874Y563791D01*
X142791Y563848D01*
X142711Y563908D01*
X142633Y563972D01*
X142558Y564038D01*
X142485Y564107D01*
X142415Y564179D01*
X142348Y564254D01*
X142284Y564331D01*
X142223Y564411D01*
X142165Y564493D01*
X142111Y564577D01*
X142060Y564664D01*
X142012Y564752D01*
X141968Y564842D01*
X141928Y564934D01*
X141891Y565028D01*
X141858Y565122D01*
X141829Y565218D01*
X141803Y565315D01*
X141781Y565413D01*
X141764Y565512D01*
X141750Y565612D01*
X141740Y565711D01*
X141734Y565812D01*
X141732Y565912D01*
D11*
X118237Y603377D02*
X118337Y603379D01*
X118436Y603385D01*
X118536Y603395D01*
X118634Y603408D01*
X118733Y603426D01*
X118830Y603447D01*
X118926Y603472D01*
X119022Y603501D01*
X119116Y603534D01*
X119209Y603570D01*
X119300Y603610D01*
X119390Y603654D01*
X119478Y603701D01*
X119564Y603751D01*
X119648Y603805D01*
X119730Y603862D01*
X119809Y603922D01*
X119887Y603986D01*
X119961Y604052D01*
X120033Y604121D01*
X120102Y604193D01*
X120168Y604267D01*
X120232Y604345D01*
X120292Y604424D01*
X120349Y604506D01*
X120403Y604590D01*
X120453Y604676D01*
X120500Y604764D01*
X120544Y604854D01*
X120584Y604945D01*
X120620Y605038D01*
X120653Y605132D01*
X120682Y605228D01*
X120707Y605324D01*
X120728Y605421D01*
X120746Y605520D01*
X120759Y605618D01*
X120769Y605718D01*
X120775Y605817D01*
X120777Y605917D01*
X118237Y603377D02*
X118096Y603379D01*
X117955Y603384D01*
X117814Y603394D01*
X117673Y603407D01*
X117533Y603423D01*
X117393Y603444D01*
X117254Y603468D01*
X117115Y603496D01*
X116978Y603527D01*
X116841Y603562D01*
X116705Y603600D01*
X116570Y603642D01*
X116437Y603688D01*
X116304Y603737D01*
X116173Y603790D01*
X116044Y603846D01*
X115915Y603905D01*
X115789Y603968D01*
X115664Y604034D01*
X115541Y604103D01*
X115420Y604176D01*
X115301Y604252D01*
X115183Y604331D01*
X115068Y604412D01*
X114956Y604497D01*
X114845Y604585D01*
X114737Y604676D01*
X114631Y604769D01*
X114528Y604866D01*
X114427Y604965D01*
X114745Y612267D02*
X114747Y612367D01*
X114753Y612466D01*
X114763Y612566D01*
X114776Y612664D01*
X114794Y612763D01*
X114815Y612860D01*
X114840Y612956D01*
X114869Y613052D01*
X114902Y613146D01*
X114938Y613239D01*
X114978Y613330D01*
X115022Y613420D01*
X115069Y613508D01*
X115119Y613594D01*
X115173Y613678D01*
X115230Y613760D01*
X115290Y613839D01*
X115354Y613917D01*
X115420Y613991D01*
X115489Y614063D01*
X115561Y614132D01*
X115635Y614198D01*
X115713Y614262D01*
X115792Y614322D01*
X115874Y614379D01*
X115958Y614433D01*
X116044Y614483D01*
X116132Y614530D01*
X116222Y614574D01*
X116313Y614614D01*
X116406Y614650D01*
X116500Y614683D01*
X116596Y614712D01*
X116692Y614737D01*
X116789Y614758D01*
X116888Y614776D01*
X116986Y614789D01*
X117086Y614799D01*
X117185Y614805D01*
X117285Y614807D01*
X117285Y614808D02*
X117418Y614806D01*
X117551Y614801D01*
X117684Y614791D01*
X117817Y614778D01*
X117949Y614761D01*
X118081Y614741D01*
X118212Y614717D01*
X118342Y614689D01*
X118472Y614658D01*
X118600Y614623D01*
X118728Y614584D01*
X118854Y614542D01*
X118979Y614496D01*
X119103Y614447D01*
X119226Y614395D01*
X119347Y614339D01*
X119466Y614279D01*
X119584Y614217D01*
X119699Y614151D01*
X119813Y614082D01*
X119925Y614009D01*
X120035Y613934D01*
X120143Y613855D01*
X116014Y610044D02*
X115930Y610096D01*
X115847Y610151D01*
X115767Y610210D01*
X115689Y610271D01*
X115614Y610335D01*
X115541Y610403D01*
X115470Y610473D01*
X115403Y610545D01*
X115338Y610620D01*
X115276Y610698D01*
X115217Y610778D01*
X115161Y610860D01*
X115109Y610944D01*
X115060Y611030D01*
X115014Y611118D01*
X114971Y611208D01*
X114932Y611299D01*
X114897Y611392D01*
X114865Y611486D01*
X114837Y611581D01*
X114812Y611677D01*
X114792Y611774D01*
X114774Y611872D01*
X114761Y611970D01*
X114752Y612069D01*
X114746Y612168D01*
X114744Y612267D01*
X119507Y608140D02*
X119591Y608088D01*
X119674Y608033D01*
X119754Y607974D01*
X119832Y607913D01*
X119907Y607849D01*
X119980Y607781D01*
X120051Y607711D01*
X120118Y607639D01*
X120183Y607564D01*
X120245Y607486D01*
X120304Y607406D01*
X120360Y607324D01*
X120412Y607240D01*
X120461Y607154D01*
X120507Y607066D01*
X120550Y606976D01*
X120589Y606885D01*
X120624Y606792D01*
X120656Y606698D01*
X120684Y606603D01*
X120709Y606507D01*
X120729Y606410D01*
X120747Y606312D01*
X120760Y606214D01*
X120769Y606115D01*
X120775Y606016D01*
X120777Y605917D01*
X119507Y608140D02*
X116015Y610045D01*
X125476Y612267D02*
X128651Y614807D01*
X128651Y603377D01*
X125476Y603377D02*
X131826Y603377D01*
D13*
X346583Y522195D02*
X348911Y527783D01*
X351240Y522195D01*
X352171Y532748D02*
X343789Y532748D01*
X352171Y532748D02*
X352171Y536474D01*
X352171Y539874D02*
X343789Y542668D01*
X352171Y545462D01*
X350076Y544763D02*
X350076Y540572D01*
X347514Y550004D02*
X347514Y552332D01*
X347515Y552332D02*
X347517Y552427D01*
X347523Y552522D01*
X347532Y552616D01*
X347546Y552710D01*
X347563Y552804D01*
X347584Y552896D01*
X347609Y552988D01*
X347638Y553078D01*
X347670Y553168D01*
X347706Y553256D01*
X347746Y553342D01*
X347788Y553427D01*
X347835Y553510D01*
X347885Y553591D01*
X347938Y553669D01*
X347994Y553746D01*
X348053Y553820D01*
X348115Y553892D01*
X348180Y553961D01*
X348248Y554028D01*
X348318Y554091D01*
X348392Y554152D01*
X348467Y554210D01*
X348545Y554264D01*
X348625Y554316D01*
X348707Y554364D01*
X348790Y554408D01*
X348876Y554450D01*
X348963Y554487D01*
X349052Y554521D01*
X349142Y554552D01*
X349233Y554579D01*
X349325Y554602D01*
X349418Y554621D01*
X349512Y554636D01*
X349606Y554648D01*
X349701Y554656D01*
X349796Y554660D01*
X349890Y554660D01*
X349985Y554656D01*
X350080Y554648D01*
X350174Y554636D01*
X350268Y554621D01*
X350361Y554602D01*
X350453Y554579D01*
X350544Y554552D01*
X350634Y554521D01*
X350723Y554487D01*
X350810Y554450D01*
X350896Y554408D01*
X350979Y554364D01*
X351061Y554316D01*
X351141Y554264D01*
X351219Y554210D01*
X351294Y554152D01*
X351368Y554091D01*
X351438Y554028D01*
X351506Y553961D01*
X351571Y553892D01*
X351633Y553820D01*
X351692Y553746D01*
X351748Y553669D01*
X351801Y553591D01*
X351851Y553510D01*
X351898Y553427D01*
X351940Y553342D01*
X351980Y553256D01*
X352016Y553168D01*
X352048Y553078D01*
X352077Y552988D01*
X352102Y552896D01*
X352123Y552804D01*
X352140Y552710D01*
X352154Y552616D01*
X352163Y552522D01*
X352169Y552427D01*
X352171Y552332D01*
X352171Y550004D01*
X343789Y550004D01*
X343789Y552332D01*
X343791Y552417D01*
X343797Y552501D01*
X343806Y552586D01*
X343820Y552669D01*
X343837Y552752D01*
X343858Y552835D01*
X343883Y552916D01*
X343911Y552996D01*
X343943Y553074D01*
X343979Y553151D01*
X344018Y553227D01*
X344060Y553300D01*
X344106Y553371D01*
X344155Y553441D01*
X344207Y553508D01*
X344262Y553572D01*
X344320Y553634D01*
X344380Y553694D01*
X344444Y553750D01*
X344509Y553804D01*
X344578Y553854D01*
X344648Y553901D01*
X344721Y553945D01*
X344795Y553986D01*
X344871Y554023D01*
X344949Y554057D01*
X345028Y554087D01*
X345109Y554114D01*
X345190Y554137D01*
X345273Y554156D01*
X345356Y554171D01*
X345440Y554183D01*
X345525Y554191D01*
X345610Y554195D01*
X345694Y554195D01*
X345779Y554191D01*
X345864Y554183D01*
X345948Y554171D01*
X346031Y554156D01*
X346114Y554137D01*
X346195Y554114D01*
X346276Y554087D01*
X346355Y554057D01*
X346433Y554023D01*
X346509Y553986D01*
X346584Y553945D01*
X346656Y553901D01*
X346726Y553854D01*
X346795Y553804D01*
X346860Y553750D01*
X346924Y553694D01*
X346984Y553634D01*
X347042Y553572D01*
X347097Y553508D01*
X347149Y553441D01*
X347198Y553371D01*
X347244Y553300D01*
X347286Y553227D01*
X347325Y553151D01*
X347361Y553074D01*
X347393Y552996D01*
X347421Y552916D01*
X347446Y552835D01*
X347467Y552752D01*
X347484Y552669D01*
X347498Y552586D01*
X347507Y552501D01*
X347513Y552417D01*
X347515Y552332D01*
X352171Y558961D02*
X352171Y562686D01*
X352171Y558961D02*
X343789Y558961D01*
X343789Y562686D01*
X347514Y561755D02*
X347514Y558961D01*
X343789Y566886D02*
X352171Y566886D01*
X352171Y570611D01*
X218821Y556345D02*
X210439Y561933D01*
X210439Y556345D02*
X218821Y561933D01*
X212302Y565954D02*
X210439Y568283D01*
X218821Y568283D01*
X218821Y570611D02*
X218821Y565954D01*
D11*
X58194Y605155D02*
X57122Y605155D01*
X57057Y605157D01*
X56993Y605163D01*
X56929Y605173D01*
X56865Y605186D01*
X56803Y605204D01*
X56742Y605225D01*
X56682Y605249D01*
X56624Y605278D01*
X56567Y605310D01*
X56513Y605345D01*
X56461Y605383D01*
X56411Y605425D01*
X56364Y605469D01*
X56320Y605516D01*
X56278Y605566D01*
X56240Y605618D01*
X56205Y605672D01*
X56173Y605729D01*
X56144Y605787D01*
X56120Y605847D01*
X56099Y605908D01*
X56081Y605970D01*
X56068Y606034D01*
X56058Y606098D01*
X56052Y606162D01*
X56050Y606227D01*
X56049Y606227D02*
X56049Y608909D01*
X56050Y608909D02*
X56052Y608974D01*
X56058Y609038D01*
X56068Y609102D01*
X56081Y609166D01*
X56099Y609228D01*
X56120Y609289D01*
X56144Y609349D01*
X56173Y609407D01*
X56205Y609464D01*
X56240Y609518D01*
X56278Y609570D01*
X56320Y609620D01*
X56364Y609667D01*
X56411Y609711D01*
X56461Y609753D01*
X56513Y609791D01*
X56567Y609826D01*
X56624Y609858D01*
X56682Y609887D01*
X56742Y609911D01*
X56803Y609932D01*
X56865Y609950D01*
X56929Y609963D01*
X56993Y609973D01*
X57057Y609979D01*
X57122Y609981D01*
X58194Y609981D01*
X60650Y608909D02*
X61990Y609981D01*
X61990Y605155D01*
X60650Y605155D02*
X63331Y605155D01*
X58194Y574675D02*
X57122Y574675D01*
X57057Y574677D01*
X56993Y574683D01*
X56929Y574693D01*
X56865Y574706D01*
X56803Y574724D01*
X56742Y574745D01*
X56682Y574769D01*
X56624Y574798D01*
X56567Y574830D01*
X56513Y574865D01*
X56461Y574903D01*
X56411Y574945D01*
X56364Y574989D01*
X56320Y575036D01*
X56278Y575086D01*
X56240Y575138D01*
X56205Y575192D01*
X56173Y575249D01*
X56144Y575307D01*
X56120Y575367D01*
X56099Y575428D01*
X56081Y575490D01*
X56068Y575554D01*
X56058Y575618D01*
X56052Y575682D01*
X56050Y575747D01*
X56049Y575747D02*
X56049Y578429D01*
X56050Y578429D02*
X56052Y578494D01*
X56058Y578558D01*
X56068Y578622D01*
X56081Y578686D01*
X56099Y578748D01*
X56120Y578809D01*
X56144Y578869D01*
X56173Y578927D01*
X56205Y578984D01*
X56240Y579038D01*
X56278Y579090D01*
X56320Y579140D01*
X56364Y579187D01*
X56411Y579231D01*
X56461Y579273D01*
X56513Y579311D01*
X56567Y579346D01*
X56624Y579378D01*
X56682Y579407D01*
X56742Y579431D01*
X56803Y579452D01*
X56865Y579470D01*
X56929Y579483D01*
X56993Y579493D01*
X57057Y579499D01*
X57122Y579501D01*
X58194Y579501D01*
X62124Y579501D02*
X62192Y579499D01*
X62259Y579493D01*
X62326Y579484D01*
X62393Y579471D01*
X62458Y579454D01*
X62523Y579433D01*
X62586Y579409D01*
X62648Y579381D01*
X62708Y579350D01*
X62766Y579316D01*
X62822Y579278D01*
X62877Y579238D01*
X62928Y579194D01*
X62977Y579147D01*
X63024Y579098D01*
X63068Y579047D01*
X63108Y578992D01*
X63146Y578936D01*
X63180Y578878D01*
X63211Y578818D01*
X63239Y578756D01*
X63263Y578693D01*
X63284Y578628D01*
X63301Y578563D01*
X63314Y578496D01*
X63323Y578429D01*
X63329Y578362D01*
X63331Y578294D01*
X62124Y579501D02*
X62046Y579499D01*
X61968Y579493D01*
X61891Y579483D01*
X61814Y579470D01*
X61738Y579452D01*
X61663Y579431D01*
X61589Y579406D01*
X61517Y579377D01*
X61446Y579345D01*
X61377Y579309D01*
X61309Y579270D01*
X61244Y579227D01*
X61181Y579181D01*
X61120Y579132D01*
X61062Y579080D01*
X61007Y579025D01*
X60954Y578968D01*
X60905Y578908D01*
X60858Y578845D01*
X60815Y578781D01*
X60775Y578714D01*
X60738Y578645D01*
X60705Y578574D01*
X60675Y578502D01*
X60649Y578429D01*
X62929Y577356D02*
X62978Y577405D01*
X63025Y577457D01*
X63068Y577512D01*
X63109Y577569D01*
X63147Y577628D01*
X63181Y577689D01*
X63212Y577752D01*
X63240Y577816D01*
X63264Y577882D01*
X63284Y577948D01*
X63301Y578016D01*
X63314Y578085D01*
X63323Y578154D01*
X63329Y578224D01*
X63331Y578294D01*
X62929Y577356D02*
X60650Y574675D01*
X63331Y574675D01*
X101500Y936140D02*
X279500Y936140D01*
X265300Y929540D02*
X115700Y929540D01*
X115700Y683340D01*
X265300Y683340D01*
X265300Y929540D01*
D14*
X96900Y934290D03*
D15*
X338470Y860850D02*
X338470Y853650D01*
X324470Y853650D02*
X324470Y860850D01*
D16*
X344551Y867542D02*
X352489Y867542D01*
X344551Y867542D02*
X344551Y869747D01*
X344553Y869839D01*
X344559Y869932D01*
X344568Y870023D01*
X344582Y870115D01*
X344599Y870205D01*
X344620Y870295D01*
X344645Y870384D01*
X344674Y870472D01*
X344706Y870559D01*
X344742Y870644D01*
X344781Y870727D01*
X344824Y870809D01*
X344870Y870889D01*
X344919Y870967D01*
X344972Y871043D01*
X345028Y871117D01*
X345087Y871188D01*
X345149Y871256D01*
X345213Y871322D01*
X345281Y871386D01*
X345350Y871446D01*
X345423Y871503D01*
X345498Y871558D01*
X345575Y871609D01*
X345654Y871657D01*
X345734Y871701D01*
X345817Y871742D01*
X345902Y871780D01*
X345987Y871814D01*
X346075Y871844D01*
X346163Y871871D01*
X346252Y871894D01*
X346343Y871913D01*
X346434Y871928D01*
X346526Y871940D01*
X346618Y871948D01*
X346710Y871952D01*
X346802Y871952D01*
X346894Y871948D01*
X346986Y871940D01*
X347078Y871928D01*
X347169Y871913D01*
X347260Y871894D01*
X347349Y871871D01*
X347437Y871844D01*
X347525Y871814D01*
X347610Y871780D01*
X347695Y871742D01*
X347778Y871701D01*
X347859Y871657D01*
X347937Y871609D01*
X348014Y871558D01*
X348089Y871503D01*
X348162Y871446D01*
X348231Y871386D01*
X348299Y871322D01*
X348363Y871256D01*
X348425Y871188D01*
X348484Y871117D01*
X348540Y871043D01*
X348593Y870967D01*
X348642Y870889D01*
X348688Y870809D01*
X348731Y870727D01*
X348770Y870644D01*
X348806Y870559D01*
X348838Y870472D01*
X348867Y870384D01*
X348892Y870295D01*
X348913Y870205D01*
X348930Y870115D01*
X348944Y870023D01*
X348953Y869932D01*
X348959Y869839D01*
X348961Y869747D01*
X348961Y867542D01*
X348961Y870188D02*
X352489Y871952D01*
X346536Y879730D02*
X346449Y879728D01*
X346363Y879722D01*
X346277Y879713D01*
X346191Y879700D01*
X346106Y879683D01*
X346022Y879662D01*
X345939Y879638D01*
X345857Y879610D01*
X345776Y879579D01*
X345697Y879544D01*
X345619Y879506D01*
X345544Y879464D01*
X345469Y879419D01*
X345397Y879371D01*
X345328Y879320D01*
X345260Y879266D01*
X345195Y879208D01*
X345132Y879149D01*
X345073Y879086D01*
X345015Y879021D01*
X344961Y878953D01*
X344910Y878884D01*
X344862Y878812D01*
X344817Y878738D01*
X344775Y878662D01*
X344737Y878584D01*
X344702Y878505D01*
X344671Y878424D01*
X344643Y878342D01*
X344619Y878259D01*
X344598Y878175D01*
X344581Y878090D01*
X344568Y878004D01*
X344559Y877918D01*
X344553Y877832D01*
X344551Y877745D01*
X344553Y877645D01*
X344559Y877545D01*
X344569Y877445D01*
X344582Y877346D01*
X344600Y877247D01*
X344622Y877149D01*
X344647Y877052D01*
X344676Y876956D01*
X344709Y876862D01*
X344745Y876768D01*
X344786Y876677D01*
X344829Y876587D01*
X344877Y876498D01*
X344927Y876412D01*
X344981Y876327D01*
X345039Y876245D01*
X345099Y876165D01*
X345163Y876088D01*
X345229Y876013D01*
X345299Y875941D01*
X345371Y875871D01*
X345446Y875805D01*
X345524Y875741D01*
X345604Y875681D01*
X345686Y875624D01*
X345770Y875570D01*
X345857Y875519D01*
X345945Y875472D01*
X346035Y875428D01*
X346127Y875388D01*
X346221Y875352D01*
X346315Y875319D01*
X348080Y879068D02*
X348016Y879133D01*
X347949Y879194D01*
X347880Y879253D01*
X347808Y879309D01*
X347734Y879362D01*
X347658Y879411D01*
X347579Y879457D01*
X347499Y879500D01*
X347417Y879539D01*
X347334Y879575D01*
X347249Y879607D01*
X347163Y879636D01*
X347075Y879661D01*
X346987Y879682D01*
X346898Y879699D01*
X346808Y879713D01*
X346718Y879722D01*
X346627Y879728D01*
X346536Y879730D01*
X348079Y879068D02*
X352489Y875319D01*
X352489Y879729D01*
D17*
X331470Y926830D03*
D18*
X318262Y913638D02*
X306578Y913638D01*
X318262Y913638D02*
X318262Y918831D01*
X318262Y923544D02*
X318262Y928737D01*
X318262Y923544D02*
X306578Y923544D01*
X306578Y928737D01*
X311771Y927439D02*
X311771Y923544D01*
X306578Y933427D02*
X318262Y933427D01*
X306578Y933427D02*
X306578Y936673D01*
X306580Y936786D01*
X306586Y936899D01*
X306596Y937012D01*
X306610Y937125D01*
X306627Y937237D01*
X306649Y937348D01*
X306674Y937458D01*
X306704Y937568D01*
X306737Y937676D01*
X306774Y937783D01*
X306814Y937889D01*
X306859Y937993D01*
X306907Y938096D01*
X306958Y938197D01*
X307013Y938296D01*
X307071Y938393D01*
X307133Y938488D01*
X307198Y938581D01*
X307266Y938671D01*
X307337Y938759D01*
X307412Y938845D01*
X307489Y938928D01*
X307569Y939008D01*
X307652Y939085D01*
X307738Y939160D01*
X307826Y939231D01*
X307916Y939299D01*
X308009Y939364D01*
X308104Y939426D01*
X308201Y939484D01*
X308300Y939539D01*
X308401Y939590D01*
X308504Y939638D01*
X308608Y939683D01*
X308714Y939723D01*
X308821Y939760D01*
X308929Y939793D01*
X309039Y939823D01*
X309149Y939848D01*
X309260Y939870D01*
X309372Y939887D01*
X309485Y939901D01*
X309598Y939911D01*
X309711Y939917D01*
X309824Y939919D01*
X315016Y939919D01*
X315129Y939917D01*
X315242Y939911D01*
X315355Y939901D01*
X315468Y939887D01*
X315580Y939870D01*
X315691Y939848D01*
X315801Y939823D01*
X315911Y939793D01*
X316019Y939760D01*
X316126Y939723D01*
X316232Y939683D01*
X316336Y939638D01*
X316439Y939590D01*
X316540Y939539D01*
X316639Y939484D01*
X316736Y939426D01*
X316831Y939364D01*
X316924Y939299D01*
X317014Y939231D01*
X317102Y939160D01*
X317188Y939085D01*
X317271Y939008D01*
X317351Y938928D01*
X317428Y938845D01*
X317503Y938759D01*
X317574Y938671D01*
X317642Y938581D01*
X317707Y938488D01*
X317769Y938393D01*
X317827Y938296D01*
X317882Y938197D01*
X317933Y938096D01*
X317981Y937993D01*
X318026Y937889D01*
X318066Y937783D01*
X318103Y937676D01*
X318136Y937568D01*
X318166Y937458D01*
X318191Y937348D01*
X318213Y937237D01*
X318230Y937125D01*
X318244Y937012D01*
X318254Y936899D01*
X318260Y936786D01*
X318262Y936673D01*
X318262Y933427D01*
X309174Y945238D02*
X306578Y948484D01*
X318262Y948484D01*
X318262Y951729D02*
X318262Y945238D01*
D15*
X365140Y862120D02*
X365140Y854920D01*
X351140Y854920D02*
X351140Y862120D01*
D16*
X371221Y868812D02*
X379159Y868812D01*
X371221Y868812D02*
X371221Y871017D01*
X371223Y871109D01*
X371229Y871202D01*
X371238Y871293D01*
X371252Y871385D01*
X371269Y871475D01*
X371290Y871565D01*
X371315Y871654D01*
X371344Y871742D01*
X371376Y871829D01*
X371412Y871914D01*
X371451Y871997D01*
X371494Y872079D01*
X371540Y872159D01*
X371589Y872237D01*
X371642Y872313D01*
X371698Y872387D01*
X371757Y872458D01*
X371819Y872526D01*
X371883Y872592D01*
X371951Y872656D01*
X372020Y872716D01*
X372093Y872773D01*
X372168Y872828D01*
X372245Y872879D01*
X372324Y872927D01*
X372404Y872971D01*
X372487Y873012D01*
X372572Y873050D01*
X372657Y873084D01*
X372745Y873114D01*
X372833Y873141D01*
X372922Y873164D01*
X373013Y873183D01*
X373104Y873198D01*
X373196Y873210D01*
X373288Y873218D01*
X373380Y873222D01*
X373472Y873222D01*
X373564Y873218D01*
X373656Y873210D01*
X373748Y873198D01*
X373839Y873183D01*
X373930Y873164D01*
X374019Y873141D01*
X374107Y873114D01*
X374195Y873084D01*
X374280Y873050D01*
X374365Y873012D01*
X374448Y872971D01*
X374529Y872927D01*
X374607Y872879D01*
X374684Y872828D01*
X374759Y872773D01*
X374832Y872716D01*
X374901Y872656D01*
X374969Y872592D01*
X375033Y872526D01*
X375095Y872458D01*
X375154Y872387D01*
X375210Y872313D01*
X375263Y872237D01*
X375312Y872159D01*
X375358Y872079D01*
X375401Y871997D01*
X375440Y871914D01*
X375476Y871829D01*
X375508Y871742D01*
X375537Y871654D01*
X375562Y871565D01*
X375583Y871475D01*
X375600Y871385D01*
X375614Y871293D01*
X375623Y871202D01*
X375629Y871109D01*
X375631Y871017D01*
X375631Y868812D01*
X375631Y871458D02*
X379159Y873222D01*
X372985Y876589D02*
X371221Y878794D01*
X379159Y878794D01*
X379159Y876589D02*
X379159Y880999D01*
M02*
