G04 EAGLE Gerber RS-274X export*
G75*
%MOMM*%
%FSLAX34Y34*%
%LPD*%
%INTop Copper*%
%IPPOS*%
%AMOC8*
5,1,8,0,0,1.08239X$1,22.5*%
G01*
%ADD10R,0.800000X1.200000*%
%ADD11C,1.524000*%
%ADD12R,3.000000X1.400000*%
%ADD13R,1.524000X4.064000*%
%ADD14R,1.270000X4.064000*%
%ADD15C,0.508000*%
%ADD16C,0.806400*%
%ADD17C,0.406400*%

G36*
X96083Y533211D02*
X96083Y533211D01*
X96220Y533229D01*
X96359Y533242D01*
X96378Y533249D01*
X96399Y533251D01*
X96527Y533302D01*
X96658Y533349D01*
X96675Y533361D01*
X96695Y533369D01*
X96806Y533450D01*
X96921Y533528D01*
X96935Y533543D01*
X96952Y533556D01*
X97040Y533663D01*
X97132Y533766D01*
X97141Y533785D01*
X97154Y533801D01*
X97213Y533926D01*
X97276Y534050D01*
X97281Y534070D01*
X97290Y534089D01*
X97316Y534225D01*
X97346Y534360D01*
X97345Y534381D01*
X97349Y534401D01*
X97341Y534539D01*
X97336Y534678D01*
X97331Y534698D01*
X97329Y534718D01*
X97287Y534850D01*
X97248Y534983D01*
X97237Y535001D01*
X97231Y535021D01*
X97157Y535137D01*
X97086Y535257D01*
X97067Y535279D01*
X97061Y535289D01*
X97046Y535303D01*
X96980Y535378D01*
X95095Y537263D01*
X93471Y541184D01*
X93471Y545428D01*
X95095Y549349D01*
X98097Y552351D01*
X102018Y553975D01*
X121502Y553975D01*
X125423Y552351D01*
X128425Y549349D01*
X130049Y545428D01*
X130049Y541184D01*
X128425Y537263D01*
X126561Y535399D01*
X126476Y535289D01*
X126387Y535182D01*
X126378Y535164D01*
X126366Y535148D01*
X126311Y535020D01*
X126251Y534894D01*
X126248Y534874D01*
X126240Y534856D01*
X126218Y534718D01*
X126192Y534581D01*
X126193Y534562D01*
X126190Y534542D01*
X126203Y534403D01*
X126212Y534264D01*
X126218Y534245D01*
X126220Y534225D01*
X126267Y534094D01*
X126310Y533961D01*
X126321Y533945D01*
X126327Y533926D01*
X126406Y533810D01*
X126480Y533693D01*
X126495Y533679D01*
X126506Y533663D01*
X126611Y533570D01*
X126712Y533475D01*
X126729Y533466D01*
X126744Y533452D01*
X126869Y533389D01*
X126991Y533322D01*
X127010Y533317D01*
X127028Y533308D01*
X127164Y533277D01*
X127299Y533243D01*
X127326Y533241D01*
X127338Y533238D01*
X127358Y533239D01*
X127459Y533232D01*
X161064Y533255D01*
X161201Y533272D01*
X161339Y533285D01*
X161359Y533293D01*
X161379Y533295D01*
X161508Y533346D01*
X161638Y533393D01*
X161656Y533405D01*
X161675Y533412D01*
X161787Y533494D01*
X161902Y533572D01*
X161915Y533587D01*
X161932Y533599D01*
X162021Y533706D01*
X162112Y533810D01*
X162121Y533828D01*
X162135Y533844D01*
X162194Y533970D01*
X162257Y534093D01*
X162261Y534113D01*
X162270Y534132D01*
X162296Y534269D01*
X162326Y534404D01*
X162326Y534424D01*
X162330Y534445D01*
X162321Y534583D01*
X162317Y534722D01*
X162311Y534741D01*
X162310Y534762D01*
X162267Y534894D01*
X162228Y535027D01*
X162218Y535045D01*
X162211Y535065D01*
X162137Y535182D01*
X162067Y535301D01*
X162048Y535323D01*
X162041Y535333D01*
X162026Y535347D01*
X161960Y535422D01*
X160119Y537263D01*
X158495Y541184D01*
X158495Y545428D01*
X160119Y549349D01*
X163121Y552351D01*
X167042Y553975D01*
X186526Y553975D01*
X190447Y552351D01*
X193449Y549349D01*
X195073Y545428D01*
X195073Y541184D01*
X193449Y537263D01*
X191629Y535443D01*
X191543Y535333D01*
X191454Y535225D01*
X191446Y535207D01*
X191434Y535192D01*
X191378Y535064D01*
X191319Y534937D01*
X191315Y534918D01*
X191308Y534900D01*
X191286Y534762D01*
X191260Y534625D01*
X191261Y534605D01*
X191258Y534586D01*
X191271Y534446D01*
X191280Y534308D01*
X191286Y534289D01*
X191287Y534269D01*
X191335Y534137D01*
X191378Y534005D01*
X191388Y533989D01*
X191395Y533970D01*
X191474Y533854D01*
X191548Y533737D01*
X191563Y533723D01*
X191574Y533707D01*
X191678Y533614D01*
X191780Y533519D01*
X191797Y533509D01*
X191812Y533496D01*
X191937Y533433D01*
X192058Y533366D01*
X192078Y533361D01*
X192095Y533352D01*
X192231Y533321D01*
X192366Y533286D01*
X192394Y533285D01*
X192406Y533282D01*
X192426Y533283D01*
X192527Y533276D01*
X242571Y533310D01*
X242689Y533325D01*
X242807Y533332D01*
X242846Y533345D01*
X242886Y533350D01*
X242997Y533394D01*
X243109Y533430D01*
X243144Y533452D01*
X243182Y533467D01*
X243278Y533537D01*
X243378Y533600D01*
X243406Y533630D01*
X243439Y533654D01*
X243515Y533746D01*
X243596Y533832D01*
X243616Y533868D01*
X243642Y533899D01*
X243692Y534007D01*
X243750Y534110D01*
X243760Y534150D01*
X243777Y534187D01*
X243799Y534304D01*
X243829Y534418D01*
X243833Y534479D01*
X243837Y534499D01*
X243835Y534520D01*
X243839Y534579D01*
X243839Y538481D01*
X252730Y538481D01*
X252848Y538496D01*
X252967Y538503D01*
X253005Y538516D01*
X253045Y538521D01*
X253156Y538564D01*
X253269Y538601D01*
X253304Y538623D01*
X253341Y538638D01*
X253437Y538708D01*
X253538Y538771D01*
X253566Y538801D01*
X253598Y538825D01*
X253674Y538916D01*
X253756Y539003D01*
X253775Y539038D01*
X253801Y539069D01*
X253852Y539177D01*
X253909Y539281D01*
X253920Y539321D01*
X253937Y539357D01*
X253959Y539474D01*
X253989Y539589D01*
X253993Y539650D01*
X253997Y539670D01*
X253995Y539690D01*
X253999Y539750D01*
X253999Y541021D01*
X254001Y541021D01*
X254001Y539750D01*
X254016Y539632D01*
X254023Y539513D01*
X254036Y539475D01*
X254041Y539435D01*
X254085Y539324D01*
X254121Y539211D01*
X254143Y539176D01*
X254158Y539139D01*
X254228Y539043D01*
X254291Y538942D01*
X254321Y538914D01*
X254345Y538881D01*
X254436Y538806D01*
X254523Y538724D01*
X254558Y538704D01*
X254590Y538679D01*
X254697Y538628D01*
X254801Y538570D01*
X254841Y538560D01*
X254877Y538543D01*
X254994Y538521D01*
X255109Y538491D01*
X255170Y538487D01*
X255190Y538483D01*
X255210Y538485D01*
X255270Y538481D01*
X264161Y538481D01*
X264161Y534594D01*
X264176Y534476D01*
X264183Y534357D01*
X264196Y534319D01*
X264201Y534279D01*
X264245Y534168D01*
X264281Y534054D01*
X264303Y534020D01*
X264318Y533983D01*
X264388Y533887D01*
X264452Y533786D01*
X264481Y533758D01*
X264504Y533726D01*
X264597Y533650D01*
X264684Y533568D01*
X264719Y533549D01*
X264749Y533523D01*
X264858Y533472D01*
X264962Y533415D01*
X265001Y533405D01*
X265037Y533388D01*
X265154Y533365D01*
X265270Y533335D01*
X265330Y533332D01*
X265349Y533328D01*
X265370Y533329D01*
X265431Y533325D01*
X268733Y533327D01*
X268851Y533342D01*
X268969Y533350D01*
X269008Y533362D01*
X269048Y533368D01*
X269159Y533411D01*
X269271Y533448D01*
X269306Y533470D01*
X269344Y533485D01*
X269440Y533554D01*
X269540Y533618D01*
X269568Y533648D01*
X269601Y533672D01*
X269677Y533763D01*
X269758Y533850D01*
X269778Y533885D01*
X269804Y533917D01*
X269854Y534024D01*
X269912Y534128D01*
X269922Y534168D01*
X269939Y534205D01*
X269961Y534321D01*
X269991Y534436D01*
X269995Y534497D01*
X269999Y534517D01*
X269997Y534537D01*
X270001Y534597D01*
X270001Y562603D01*
X271787Y564389D01*
X272542Y564389D01*
X272660Y564404D01*
X272779Y564411D01*
X272817Y564424D01*
X272858Y564429D01*
X272968Y564472D01*
X273081Y564509D01*
X273116Y564531D01*
X273153Y564546D01*
X273249Y564615D01*
X273350Y564679D01*
X273378Y564709D01*
X273411Y564732D01*
X273487Y564824D01*
X273568Y564911D01*
X273588Y564946D01*
X273613Y564977D01*
X273664Y565085D01*
X273722Y565189D01*
X273732Y565229D01*
X273749Y565265D01*
X273771Y565382D01*
X273801Y565497D01*
X273805Y565557D01*
X273809Y565577D01*
X273807Y565598D01*
X273811Y565658D01*
X273811Y613759D01*
X273799Y613858D01*
X273796Y613957D01*
X273779Y614015D01*
X273771Y614075D01*
X273735Y614167D01*
X273707Y614262D01*
X273677Y614314D01*
X273654Y614371D01*
X273596Y614451D01*
X273546Y614536D01*
X273480Y614611D01*
X273468Y614628D01*
X273458Y614636D01*
X273440Y614657D01*
X270017Y618080D01*
X269939Y618140D01*
X269866Y618208D01*
X269813Y618237D01*
X269766Y618274D01*
X269675Y618314D01*
X269588Y618362D01*
X269529Y618377D01*
X269474Y618401D01*
X269376Y618416D01*
X269280Y618441D01*
X269180Y618447D01*
X269160Y618451D01*
X269147Y618449D01*
X269119Y618451D01*
X251237Y618451D01*
X249451Y620237D01*
X249451Y636763D01*
X250650Y637962D01*
X250723Y638056D01*
X250802Y638145D01*
X250820Y638181D01*
X250845Y638213D01*
X250892Y638322D01*
X250947Y638428D01*
X250955Y638468D01*
X250971Y638505D01*
X250990Y638623D01*
X251016Y638739D01*
X251015Y638779D01*
X251021Y638819D01*
X251010Y638938D01*
X251007Y639056D01*
X250995Y639095D01*
X250991Y639136D01*
X250951Y639248D01*
X250918Y639362D01*
X250898Y639397D01*
X250884Y639435D01*
X250817Y639533D01*
X250757Y639636D01*
X250717Y639681D01*
X250705Y639698D01*
X250690Y639711D01*
X250650Y639757D01*
X250467Y639940D01*
X250132Y640519D01*
X249959Y641166D01*
X249959Y645961D01*
X266230Y645961D01*
X266348Y645976D01*
X266467Y645983D01*
X266505Y645996D01*
X266545Y646001D01*
X266656Y646044D01*
X266769Y646081D01*
X266804Y646103D01*
X266841Y646118D01*
X266937Y646188D01*
X267038Y646251D01*
X267066Y646281D01*
X267098Y646305D01*
X267174Y646396D01*
X267256Y646483D01*
X267275Y646518D01*
X267301Y646549D01*
X267352Y646657D01*
X267409Y646761D01*
X267420Y646801D01*
X267437Y646837D01*
X267459Y646954D01*
X267489Y647069D01*
X267493Y647130D01*
X267497Y647150D01*
X267495Y647170D01*
X267499Y647230D01*
X267499Y649770D01*
X267484Y649888D01*
X267477Y650007D01*
X267464Y650045D01*
X267459Y650085D01*
X267415Y650196D01*
X267379Y650309D01*
X267357Y650344D01*
X267342Y650381D01*
X267272Y650477D01*
X267209Y650578D01*
X267179Y650606D01*
X267155Y650638D01*
X267064Y650714D01*
X266977Y650796D01*
X266942Y650815D01*
X266910Y650841D01*
X266803Y650892D01*
X266699Y650949D01*
X266659Y650960D01*
X266623Y650977D01*
X266506Y650999D01*
X266391Y651029D01*
X266330Y651033D01*
X266310Y651037D01*
X266290Y651035D01*
X266230Y651039D01*
X249959Y651039D01*
X249959Y655834D01*
X250132Y656481D01*
X250467Y657060D01*
X250650Y657243D01*
X250723Y657337D01*
X250802Y657427D01*
X250820Y657463D01*
X250845Y657494D01*
X250892Y657604D01*
X250947Y657710D01*
X250955Y657749D01*
X250971Y657786D01*
X250990Y657904D01*
X251016Y658020D01*
X251015Y658061D01*
X251021Y658100D01*
X251010Y658219D01*
X251007Y658338D01*
X250995Y658377D01*
X250991Y658417D01*
X250951Y658529D01*
X250918Y658643D01*
X250898Y658678D01*
X250884Y658716D01*
X250817Y658815D01*
X250757Y658917D01*
X250717Y658963D01*
X250705Y658979D01*
X250690Y658993D01*
X250650Y659038D01*
X249451Y660237D01*
X249451Y676763D01*
X250291Y677602D01*
X250364Y677696D01*
X250443Y677786D01*
X250461Y677822D01*
X250486Y677854D01*
X250533Y677963D01*
X250587Y678069D01*
X250596Y678108D01*
X250612Y678146D01*
X250631Y678263D01*
X250657Y678379D01*
X250656Y678420D01*
X250662Y678460D01*
X250651Y678578D01*
X250647Y678697D01*
X250636Y678736D01*
X250632Y678776D01*
X250592Y678889D01*
X250559Y679003D01*
X250538Y679037D01*
X250525Y679076D01*
X250458Y679174D01*
X250397Y679277D01*
X250357Y679322D01*
X250346Y679339D01*
X250331Y679352D01*
X250291Y679397D01*
X249451Y680237D01*
X249451Y696763D01*
X250291Y697602D01*
X250364Y697696D01*
X250443Y697786D01*
X250461Y697822D01*
X250486Y697854D01*
X250533Y697963D01*
X250587Y698069D01*
X250596Y698108D01*
X250612Y698146D01*
X250631Y698263D01*
X250657Y698379D01*
X250656Y698420D01*
X250662Y698460D01*
X250651Y698578D01*
X250647Y698697D01*
X250636Y698736D01*
X250632Y698776D01*
X250592Y698889D01*
X250559Y699003D01*
X250538Y699037D01*
X250525Y699076D01*
X250458Y699174D01*
X250397Y699277D01*
X250357Y699322D01*
X250346Y699339D01*
X250331Y699352D01*
X250291Y699397D01*
X249451Y700237D01*
X249451Y701642D01*
X249436Y701760D01*
X249429Y701879D01*
X249416Y701917D01*
X249411Y701958D01*
X249368Y702068D01*
X249331Y702181D01*
X249309Y702216D01*
X249294Y702253D01*
X249225Y702349D01*
X249161Y702450D01*
X249131Y702478D01*
X249108Y702511D01*
X249016Y702587D01*
X248929Y702668D01*
X248894Y702688D01*
X248863Y702713D01*
X248755Y702764D01*
X248651Y702822D01*
X248611Y702832D01*
X248575Y702849D01*
X248458Y702871D01*
X248343Y702901D01*
X248283Y702905D01*
X248263Y702909D01*
X248242Y702907D01*
X248182Y702911D01*
X239155Y702911D01*
X239056Y702899D01*
X238957Y702896D01*
X238899Y702879D01*
X238839Y702871D01*
X238747Y702835D01*
X238652Y702807D01*
X238600Y702777D01*
X238543Y702754D01*
X238463Y702696D01*
X238378Y702646D01*
X238303Y702580D01*
X238286Y702568D01*
X238278Y702558D01*
X238257Y702540D01*
X208779Y673061D01*
X206725Y672210D01*
X160956Y672210D01*
X160818Y672193D01*
X160679Y672180D01*
X160660Y672173D01*
X160640Y672170D01*
X160511Y672119D01*
X160380Y672072D01*
X160363Y672061D01*
X160344Y672053D01*
X160232Y671972D01*
X160117Y671894D01*
X160103Y671878D01*
X160087Y671867D01*
X159998Y671759D01*
X159906Y671655D01*
X159897Y671637D01*
X159884Y671622D01*
X159825Y671496D01*
X159762Y671372D01*
X159757Y671352D01*
X159749Y671334D01*
X159723Y671198D01*
X159692Y671062D01*
X159693Y671041D01*
X159689Y671022D01*
X159698Y670883D01*
X159702Y670744D01*
X159707Y670724D01*
X159709Y670704D01*
X159751Y670572D01*
X159790Y670438D01*
X159800Y670421D01*
X159807Y670402D01*
X159881Y670284D01*
X159952Y670164D01*
X159970Y670143D01*
X159977Y670133D01*
X159992Y670119D01*
X160058Y670044D01*
X164758Y665344D01*
X165609Y663290D01*
X165609Y608123D01*
X165621Y608024D01*
X165624Y607925D01*
X165641Y607867D01*
X165649Y607807D01*
X165685Y607715D01*
X165713Y607620D01*
X165743Y607568D01*
X165766Y607511D01*
X165824Y607431D01*
X165874Y607346D01*
X165940Y607271D01*
X165952Y607254D01*
X165962Y607246D01*
X165980Y607225D01*
X173647Y599558D01*
X173725Y599498D01*
X173798Y599430D01*
X173851Y599401D01*
X173898Y599364D01*
X173989Y599324D01*
X174076Y599276D01*
X174135Y599261D01*
X174190Y599237D01*
X174288Y599222D01*
X174384Y599197D01*
X174484Y599191D01*
X174504Y599187D01*
X174517Y599189D01*
X174545Y599187D01*
X186526Y599187D01*
X190447Y597563D01*
X193449Y594561D01*
X195073Y590640D01*
X195073Y586396D01*
X193449Y582475D01*
X190447Y579473D01*
X186526Y577849D01*
X167042Y577849D01*
X163121Y579473D01*
X160119Y582475D01*
X158495Y586396D01*
X158495Y590640D01*
X160119Y594561D01*
X160581Y595023D01*
X160654Y595117D01*
X160733Y595206D01*
X160751Y595242D01*
X160776Y595274D01*
X160823Y595383D01*
X160877Y595489D01*
X160886Y595529D01*
X160902Y595566D01*
X160921Y595684D01*
X160947Y595799D01*
X160946Y595840D01*
X160952Y595880D01*
X160941Y595998D01*
X160937Y596117D01*
X160926Y596156D01*
X160922Y596196D01*
X160882Y596308D01*
X160849Y596423D01*
X160828Y596458D01*
X160814Y596496D01*
X160748Y596594D01*
X160687Y596697D01*
X160647Y596742D01*
X160636Y596759D01*
X160621Y596772D01*
X160581Y596818D01*
X155282Y602116D01*
X154431Y604170D01*
X154431Y659337D01*
X154419Y659436D01*
X154416Y659535D01*
X154399Y659593D01*
X154391Y659653D01*
X154355Y659745D01*
X154327Y659840D01*
X154297Y659892D01*
X154274Y659949D01*
X154216Y660029D01*
X154166Y660114D01*
X154100Y660189D01*
X154088Y660206D01*
X154078Y660214D01*
X154060Y660235D01*
X151755Y662540D01*
X151677Y662600D01*
X151604Y662668D01*
X151551Y662697D01*
X151504Y662734D01*
X151413Y662774D01*
X151326Y662822D01*
X151267Y662837D01*
X151212Y662861D01*
X151114Y662876D01*
X151018Y662901D01*
X150918Y662907D01*
X150898Y662911D01*
X150885Y662909D01*
X150857Y662911D01*
X132818Y662911D01*
X132700Y662896D01*
X132581Y662889D01*
X132543Y662876D01*
X132502Y662871D01*
X132392Y662828D01*
X132279Y662791D01*
X132244Y662769D01*
X132207Y662754D01*
X132111Y662685D01*
X132010Y662621D01*
X131982Y662591D01*
X131949Y662568D01*
X131873Y662476D01*
X131792Y662389D01*
X131772Y662354D01*
X131747Y662323D01*
X131696Y662215D01*
X131638Y662111D01*
X131628Y662071D01*
X131611Y662035D01*
X131589Y661918D01*
X131559Y661803D01*
X131555Y661743D01*
X131551Y661723D01*
X131553Y661702D01*
X131549Y661642D01*
X131549Y660237D01*
X130709Y659398D01*
X130636Y659304D01*
X130557Y659214D01*
X130539Y659178D01*
X130514Y659146D01*
X130467Y659037D01*
X130413Y658931D01*
X130404Y658892D01*
X130388Y658854D01*
X130369Y658737D01*
X130343Y658621D01*
X130344Y658580D01*
X130338Y658540D01*
X130349Y658422D01*
X130353Y658303D01*
X130364Y658264D01*
X130368Y658224D01*
X130408Y658111D01*
X130441Y657997D01*
X130462Y657963D01*
X130475Y657924D01*
X130542Y657826D01*
X130603Y657723D01*
X130643Y657678D01*
X130654Y657661D01*
X130669Y657648D01*
X130709Y657603D01*
X131549Y656763D01*
X131549Y640237D01*
X130350Y639038D01*
X130277Y638944D01*
X130198Y638855D01*
X130180Y638819D01*
X130155Y638787D01*
X130108Y638678D01*
X130053Y638572D01*
X130045Y638532D01*
X130029Y638495D01*
X130010Y638377D01*
X129984Y638261D01*
X129985Y638221D01*
X129979Y638181D01*
X129990Y638062D01*
X129993Y637944D01*
X130005Y637905D01*
X130009Y637864D01*
X130049Y637752D01*
X130082Y637638D01*
X130102Y637603D01*
X130116Y637565D01*
X130183Y637467D01*
X130243Y637364D01*
X130283Y637319D01*
X130295Y637302D01*
X130310Y637289D01*
X130350Y637243D01*
X130533Y637060D01*
X130868Y636481D01*
X131041Y635834D01*
X131041Y631039D01*
X114770Y631039D01*
X114652Y631024D01*
X114533Y631017D01*
X114495Y631004D01*
X114455Y630999D01*
X114344Y630955D01*
X114231Y630919D01*
X114196Y630897D01*
X114159Y630882D01*
X114063Y630812D01*
X113962Y630749D01*
X113934Y630719D01*
X113902Y630695D01*
X113826Y630604D01*
X113744Y630517D01*
X113725Y630482D01*
X113699Y630450D01*
X113648Y630343D01*
X113591Y630239D01*
X113580Y630199D01*
X113563Y630163D01*
X113541Y630046D01*
X113511Y629931D01*
X113507Y629870D01*
X113503Y629850D01*
X113505Y629830D01*
X113501Y629770D01*
X113501Y628499D01*
X113499Y628499D01*
X113499Y629770D01*
X113484Y629888D01*
X113477Y630007D01*
X113464Y630045D01*
X113459Y630085D01*
X113415Y630196D01*
X113379Y630309D01*
X113357Y630344D01*
X113342Y630381D01*
X113272Y630477D01*
X113209Y630578D01*
X113179Y630606D01*
X113155Y630638D01*
X113064Y630714D01*
X112977Y630796D01*
X112942Y630815D01*
X112910Y630841D01*
X112803Y630892D01*
X112699Y630949D01*
X112659Y630960D01*
X112623Y630977D01*
X112506Y630999D01*
X112391Y631029D01*
X112330Y631033D01*
X112310Y631037D01*
X112290Y631035D01*
X112230Y631039D01*
X95959Y631039D01*
X95959Y635834D01*
X96132Y636481D01*
X96467Y637060D01*
X96650Y637243D01*
X96723Y637337D01*
X96802Y637427D01*
X96820Y637463D01*
X96845Y637495D01*
X96892Y637604D01*
X96947Y637710D01*
X96955Y637749D01*
X96971Y637786D01*
X96990Y637904D01*
X97016Y638020D01*
X97015Y638061D01*
X97021Y638101D01*
X97010Y638219D01*
X97007Y638338D01*
X96995Y638377D01*
X96991Y638417D01*
X96951Y638529D01*
X96918Y638644D01*
X96898Y638678D01*
X96884Y638716D01*
X96817Y638815D01*
X96757Y638917D01*
X96717Y638963D01*
X96705Y638980D01*
X96690Y638993D01*
X96650Y639038D01*
X95451Y640237D01*
X95451Y656763D01*
X96291Y657603D01*
X96364Y657697D01*
X96443Y657786D01*
X96461Y657822D01*
X96486Y657854D01*
X96533Y657963D01*
X96587Y658069D01*
X96596Y658108D01*
X96612Y658146D01*
X96631Y658263D01*
X96657Y658379D01*
X96656Y658420D01*
X96662Y658460D01*
X96651Y658578D01*
X96647Y658697D01*
X96636Y658736D01*
X96632Y658776D01*
X96592Y658888D01*
X96559Y659003D01*
X96538Y659038D01*
X96525Y659076D01*
X96458Y659174D01*
X96397Y659277D01*
X96358Y659322D01*
X96346Y659339D01*
X96331Y659352D01*
X96291Y659398D01*
X95451Y660237D01*
X95451Y676763D01*
X96291Y677602D01*
X96364Y677696D01*
X96443Y677786D01*
X96461Y677822D01*
X96486Y677854D01*
X96533Y677963D01*
X96587Y678069D01*
X96596Y678108D01*
X96612Y678146D01*
X96631Y678263D01*
X96657Y678379D01*
X96656Y678420D01*
X96662Y678460D01*
X96651Y678578D01*
X96647Y678697D01*
X96636Y678736D01*
X96632Y678776D01*
X96592Y678889D01*
X96559Y679003D01*
X96538Y679037D01*
X96525Y679076D01*
X96458Y679174D01*
X96397Y679277D01*
X96357Y679322D01*
X96346Y679339D01*
X96331Y679352D01*
X96291Y679397D01*
X95451Y680237D01*
X95451Y681664D01*
X95448Y681693D01*
X95450Y681722D01*
X95434Y681815D01*
X95429Y681894D01*
X95418Y681928D01*
X95411Y681979D01*
X95401Y682006D01*
X95396Y682036D01*
X95351Y682135D01*
X95331Y682196D01*
X95316Y682219D01*
X95294Y682275D01*
X95277Y682299D01*
X95265Y682326D01*
X95188Y682422D01*
X95161Y682465D01*
X95147Y682478D01*
X95108Y682532D01*
X95085Y682551D01*
X95066Y682574D01*
X94963Y682652D01*
X94955Y682658D01*
X94929Y682683D01*
X94918Y682689D01*
X94863Y682735D01*
X94836Y682747D01*
X94812Y682765D01*
X94668Y682836D01*
X92432Y683762D01*
X80829Y695366D01*
X80751Y695426D01*
X80678Y695494D01*
X80625Y695523D01*
X80578Y695560D01*
X80487Y695600D01*
X80400Y695648D01*
X80341Y695663D01*
X80286Y695687D01*
X80188Y695702D01*
X80092Y695727D01*
X79992Y695733D01*
X79972Y695737D01*
X79959Y695735D01*
X79931Y695737D01*
X79618Y695737D01*
X77015Y696815D01*
X75023Y698807D01*
X73945Y701410D01*
X73945Y704226D01*
X75023Y706829D01*
X77015Y708821D01*
X79618Y709899D01*
X82434Y709899D01*
X85037Y708821D01*
X87029Y706829D01*
X88142Y704141D01*
X88147Y704105D01*
X88183Y704013D01*
X88211Y703918D01*
X88241Y703866D01*
X88264Y703809D01*
X88322Y703729D01*
X88372Y703644D01*
X88438Y703569D01*
X88450Y703552D01*
X88460Y703544D01*
X88478Y703523D01*
X94448Y697554D01*
X94542Y697481D01*
X94631Y697402D01*
X94667Y697384D01*
X94699Y697359D01*
X94808Y697312D01*
X94914Y697258D01*
X94954Y697249D01*
X94991Y697233D01*
X95109Y697214D01*
X95225Y697188D01*
X95265Y697189D01*
X95305Y697183D01*
X95424Y697194D01*
X95543Y697198D01*
X95581Y697209D01*
X95621Y697213D01*
X95734Y697253D01*
X95848Y697286D01*
X95883Y697307D01*
X95921Y697320D01*
X96019Y697387D01*
X96122Y697448D01*
X96167Y697488D01*
X96184Y697499D01*
X96197Y697514D01*
X96243Y697554D01*
X96291Y697603D01*
X96364Y697697D01*
X96443Y697786D01*
X96461Y697822D01*
X96486Y697854D01*
X96533Y697963D01*
X96587Y698069D01*
X96596Y698109D01*
X96612Y698146D01*
X96631Y698264D01*
X96657Y698379D01*
X96656Y698420D01*
X96662Y698460D01*
X96651Y698578D01*
X96647Y698697D01*
X96636Y698736D01*
X96632Y698777D01*
X96592Y698889D01*
X96559Y699003D01*
X96538Y699038D01*
X96524Y699076D01*
X96458Y699174D01*
X96397Y699277D01*
X96357Y699322D01*
X96346Y699339D01*
X96330Y699353D01*
X96291Y699398D01*
X95451Y700237D01*
X95451Y716763D01*
X96291Y717603D01*
X96364Y717697D01*
X96443Y717786D01*
X96461Y717822D01*
X96486Y717854D01*
X96533Y717963D01*
X96587Y718069D01*
X96596Y718108D01*
X96612Y718146D01*
X96631Y718263D01*
X96657Y718379D01*
X96656Y718420D01*
X96662Y718460D01*
X96651Y718578D01*
X96647Y718697D01*
X96636Y718736D01*
X96632Y718776D01*
X96592Y718888D01*
X96559Y719003D01*
X96538Y719038D01*
X96525Y719076D01*
X96458Y719174D01*
X96397Y719277D01*
X96358Y719322D01*
X96346Y719339D01*
X96331Y719352D01*
X96291Y719398D01*
X95451Y720237D01*
X95451Y721642D01*
X95436Y721760D01*
X95429Y721879D01*
X95416Y721917D01*
X95411Y721958D01*
X95368Y722068D01*
X95331Y722181D01*
X95309Y722216D01*
X95294Y722253D01*
X95225Y722349D01*
X95161Y722450D01*
X95131Y722478D01*
X95108Y722511D01*
X95016Y722587D01*
X94929Y722668D01*
X94894Y722688D01*
X94863Y722713D01*
X94755Y722764D01*
X94651Y722822D01*
X94611Y722832D01*
X94575Y722849D01*
X94458Y722871D01*
X94343Y722901D01*
X94283Y722905D01*
X94263Y722909D01*
X94242Y722907D01*
X94182Y722911D01*
X83641Y722911D01*
X83542Y722899D01*
X83443Y722896D01*
X83385Y722879D01*
X83325Y722871D01*
X83233Y722835D01*
X83138Y722807D01*
X83086Y722777D01*
X83029Y722754D01*
X82949Y722696D01*
X82864Y722646D01*
X82789Y722580D01*
X82772Y722568D01*
X82764Y722558D01*
X82743Y722540D01*
X67003Y706800D01*
X66930Y706705D01*
X66851Y706616D01*
X66833Y706580D01*
X66808Y706548D01*
X66761Y706439D01*
X66707Y706333D01*
X66698Y706294D01*
X66682Y706256D01*
X66663Y706139D01*
X66637Y706023D01*
X66638Y705982D01*
X66632Y705942D01*
X66643Y705823D01*
X66647Y705705D01*
X66658Y705666D01*
X66662Y705626D01*
X66702Y705514D01*
X66735Y705399D01*
X66756Y705365D01*
X66770Y705326D01*
X66836Y705228D01*
X66897Y705125D01*
X66937Y705080D01*
X66948Y705063D01*
X66963Y705050D01*
X67003Y705005D01*
X67465Y704543D01*
X69089Y700622D01*
X69089Y696378D01*
X67465Y692457D01*
X64463Y689455D01*
X60542Y687831D01*
X41058Y687831D01*
X37137Y689455D01*
X34135Y692457D01*
X32511Y696378D01*
X32511Y700622D01*
X34135Y704543D01*
X37137Y707545D01*
X41058Y709169D01*
X53039Y709169D01*
X53138Y709181D01*
X53237Y709184D01*
X53295Y709201D01*
X53355Y709209D01*
X53447Y709245D01*
X53542Y709273D01*
X53594Y709303D01*
X53651Y709326D01*
X53731Y709384D01*
X53816Y709434D01*
X53891Y709500D01*
X53908Y709512D01*
X53916Y709522D01*
X53937Y709540D01*
X55461Y711065D01*
X55546Y711174D01*
X55635Y711281D01*
X55643Y711300D01*
X55656Y711316D01*
X55711Y711443D01*
X55770Y711569D01*
X55774Y711589D01*
X55782Y711608D01*
X55804Y711746D01*
X55830Y711882D01*
X55829Y711902D01*
X55832Y711922D01*
X55819Y712061D01*
X55810Y712199D01*
X55804Y712218D01*
X55802Y712238D01*
X55755Y712370D01*
X55712Y712501D01*
X55701Y712519D01*
X55695Y712538D01*
X55617Y712653D01*
X55542Y712770D01*
X55527Y712784D01*
X55516Y712801D01*
X55412Y712893D01*
X55311Y712988D01*
X55293Y712998D01*
X55278Y713011D01*
X55153Y713075D01*
X55032Y713142D01*
X55012Y713147D01*
X54994Y713156D01*
X54859Y713186D01*
X54724Y713221D01*
X54696Y713223D01*
X54684Y713226D01*
X54664Y713225D01*
X54563Y713231D01*
X41058Y713231D01*
X37137Y714855D01*
X34135Y717857D01*
X32511Y721778D01*
X32511Y726022D01*
X34135Y729943D01*
X37137Y732945D01*
X41058Y734569D01*
X53039Y734569D01*
X53138Y734581D01*
X53237Y734584D01*
X53295Y734601D01*
X53355Y734609D01*
X53447Y734645D01*
X53542Y734673D01*
X53594Y734703D01*
X53651Y734726D01*
X53731Y734784D01*
X53816Y734834D01*
X53891Y734900D01*
X53908Y734912D01*
X53916Y734922D01*
X53937Y734940D01*
X55461Y736465D01*
X55546Y736574D01*
X55635Y736681D01*
X55643Y736700D01*
X55656Y736716D01*
X55711Y736843D01*
X55770Y736969D01*
X55774Y736989D01*
X55782Y737008D01*
X55804Y737146D01*
X55830Y737282D01*
X55829Y737302D01*
X55832Y737322D01*
X55819Y737461D01*
X55810Y737599D01*
X55804Y737618D01*
X55802Y737638D01*
X55755Y737770D01*
X55712Y737901D01*
X55701Y737919D01*
X55695Y737938D01*
X55617Y738053D01*
X55542Y738170D01*
X55527Y738184D01*
X55516Y738201D01*
X55412Y738293D01*
X55311Y738388D01*
X55293Y738398D01*
X55278Y738411D01*
X55153Y738475D01*
X55032Y738542D01*
X55012Y738547D01*
X54994Y738556D01*
X54859Y738586D01*
X54724Y738621D01*
X54696Y738623D01*
X54684Y738626D01*
X54664Y738625D01*
X54563Y738631D01*
X41058Y738631D01*
X37137Y740255D01*
X34135Y743257D01*
X32511Y747178D01*
X32511Y751422D01*
X34135Y755343D01*
X37137Y758345D01*
X41058Y759969D01*
X60542Y759969D01*
X64463Y758345D01*
X67465Y755343D01*
X68751Y752237D01*
X68763Y752216D01*
X68770Y752195D01*
X68782Y752176D01*
X68793Y752147D01*
X68854Y752056D01*
X68909Y751961D01*
X68937Y751931D01*
X68940Y751927D01*
X68946Y751921D01*
X68971Y751884D01*
X69054Y751811D01*
X69130Y751732D01*
X69173Y751706D01*
X69210Y751673D01*
X69307Y751623D01*
X69401Y751566D01*
X69449Y751551D01*
X69493Y751529D01*
X69600Y751505D01*
X69705Y751472D01*
X69755Y751470D01*
X69803Y751459D01*
X69913Y751462D01*
X70023Y751457D01*
X70071Y751467D01*
X70121Y751469D01*
X70227Y751499D01*
X70334Y751521D01*
X70379Y751543D01*
X70427Y751557D01*
X70517Y751610D01*
X70547Y751622D01*
X70561Y751632D01*
X70620Y751661D01*
X70658Y751693D01*
X70701Y751719D01*
X70797Y751804D01*
X70805Y751809D01*
X70808Y751813D01*
X70821Y751825D01*
X72234Y753238D01*
X74288Y754089D01*
X94182Y754089D01*
X94300Y754104D01*
X94419Y754111D01*
X94457Y754124D01*
X94498Y754129D01*
X94608Y754172D01*
X94721Y754209D01*
X94756Y754231D01*
X94793Y754246D01*
X94889Y754315D01*
X94990Y754379D01*
X95018Y754409D01*
X95051Y754432D01*
X95127Y754524D01*
X95208Y754611D01*
X95228Y754646D01*
X95253Y754677D01*
X95304Y754785D01*
X95362Y754889D01*
X95372Y754929D01*
X95389Y754965D01*
X95411Y755082D01*
X95441Y755197D01*
X95445Y755257D01*
X95449Y755277D01*
X95447Y755298D01*
X95451Y755358D01*
X95451Y756763D01*
X96650Y757962D01*
X96723Y758056D01*
X96802Y758145D01*
X96820Y758181D01*
X96845Y758213D01*
X96892Y758322D01*
X96947Y758428D01*
X96955Y758468D01*
X96971Y758505D01*
X96990Y758623D01*
X97016Y758739D01*
X97015Y758779D01*
X97021Y758819D01*
X97010Y758938D01*
X97006Y759057D01*
X96995Y759095D01*
X96991Y759136D01*
X96951Y759248D01*
X96918Y759362D01*
X96898Y759397D01*
X96884Y759435D01*
X96817Y759533D01*
X96757Y759636D01*
X96717Y759681D01*
X96705Y759698D01*
X96690Y759712D01*
X96650Y759757D01*
X96467Y759940D01*
X96132Y760519D01*
X95959Y761166D01*
X95959Y765961D01*
X112230Y765961D01*
X112348Y765976D01*
X112467Y765983D01*
X112505Y765996D01*
X112545Y766001D01*
X112656Y766044D01*
X112769Y766081D01*
X112804Y766103D01*
X112841Y766118D01*
X112937Y766188D01*
X113038Y766251D01*
X113066Y766281D01*
X113098Y766305D01*
X113174Y766396D01*
X113256Y766483D01*
X113275Y766518D01*
X113301Y766549D01*
X113352Y766657D01*
X113409Y766761D01*
X113420Y766801D01*
X113437Y766837D01*
X113459Y766954D01*
X113489Y767069D01*
X113493Y767130D01*
X113497Y767150D01*
X113495Y767170D01*
X113499Y767230D01*
X113499Y768501D01*
X113501Y768501D01*
X113501Y767230D01*
X113516Y767112D01*
X113523Y766993D01*
X113536Y766955D01*
X113541Y766915D01*
X113585Y766804D01*
X113621Y766691D01*
X113643Y766656D01*
X113658Y766619D01*
X113728Y766523D01*
X113791Y766422D01*
X113821Y766394D01*
X113845Y766361D01*
X113936Y766286D01*
X114023Y766204D01*
X114058Y766184D01*
X114090Y766159D01*
X114197Y766108D01*
X114301Y766050D01*
X114341Y766040D01*
X114377Y766023D01*
X114494Y766001D01*
X114609Y765971D01*
X114670Y765967D01*
X114690Y765963D01*
X114710Y765965D01*
X114770Y765961D01*
X131041Y765961D01*
X131041Y761166D01*
X130868Y760519D01*
X130533Y759940D01*
X130350Y759757D01*
X130277Y759663D01*
X130198Y759573D01*
X130180Y759537D01*
X130155Y759506D01*
X130107Y759396D01*
X130053Y759290D01*
X130045Y759251D01*
X130029Y759214D01*
X130010Y759096D01*
X129984Y758980D01*
X129985Y758939D01*
X129979Y758900D01*
X129990Y758781D01*
X129993Y758662D01*
X130005Y758623D01*
X130009Y758583D01*
X130049Y758471D01*
X130082Y758357D01*
X130102Y758322D01*
X130116Y758284D01*
X130183Y758185D01*
X130243Y758083D01*
X130283Y758037D01*
X130295Y758021D01*
X130310Y758007D01*
X130350Y757962D01*
X131549Y756763D01*
X131549Y740237D01*
X130709Y739398D01*
X130636Y739304D01*
X130557Y739214D01*
X130539Y739178D01*
X130514Y739146D01*
X130467Y739037D01*
X130413Y738931D01*
X130404Y738892D01*
X130388Y738854D01*
X130369Y738737D01*
X130343Y738621D01*
X130344Y738580D01*
X130338Y738540D01*
X130349Y738422D01*
X130353Y738303D01*
X130364Y738264D01*
X130368Y738224D01*
X130408Y738111D01*
X130441Y737997D01*
X130462Y737963D01*
X130475Y737924D01*
X130542Y737826D01*
X130603Y737723D01*
X130643Y737678D01*
X130654Y737661D01*
X130669Y737648D01*
X130709Y737603D01*
X131549Y736763D01*
X131549Y720237D01*
X130709Y719398D01*
X130636Y719304D01*
X130557Y719214D01*
X130539Y719178D01*
X130514Y719146D01*
X130467Y719037D01*
X130413Y718931D01*
X130404Y718892D01*
X130388Y718854D01*
X130369Y718737D01*
X130343Y718621D01*
X130344Y718580D01*
X130338Y718540D01*
X130349Y718422D01*
X130353Y718303D01*
X130364Y718264D01*
X130368Y718224D01*
X130408Y718111D01*
X130441Y717997D01*
X130462Y717963D01*
X130475Y717924D01*
X130542Y717826D01*
X130603Y717723D01*
X130643Y717678D01*
X130654Y717661D01*
X130669Y717648D01*
X130709Y717603D01*
X131549Y716763D01*
X131549Y715518D01*
X131564Y715400D01*
X131571Y715281D01*
X131584Y715243D01*
X131589Y715202D01*
X131632Y715092D01*
X131669Y714979D01*
X131691Y714944D01*
X131706Y714907D01*
X131775Y714811D01*
X131839Y714710D01*
X131869Y714682D01*
X131892Y714649D01*
X131984Y714573D01*
X132071Y714492D01*
X132106Y714472D01*
X132137Y714447D01*
X132245Y714396D01*
X132349Y714338D01*
X132389Y714328D01*
X132425Y714311D01*
X132542Y714289D01*
X132657Y714259D01*
X132717Y714255D01*
X132737Y714251D01*
X132758Y714253D01*
X132818Y714249D01*
X137289Y714249D01*
X137388Y714261D01*
X137487Y714264D01*
X137545Y714281D01*
X137605Y714289D01*
X137697Y714325D01*
X137792Y714353D01*
X137844Y714383D01*
X137901Y714406D01*
X137981Y714464D01*
X138066Y714514D01*
X138141Y714580D01*
X138158Y714592D01*
X138166Y714602D01*
X138187Y714620D01*
X138229Y714663D01*
X140832Y715741D01*
X143648Y715741D01*
X146251Y714663D01*
X148243Y712671D01*
X149321Y710068D01*
X149321Y707252D01*
X148243Y704649D01*
X146251Y702657D01*
X143648Y701579D01*
X140832Y701579D01*
X138229Y702657D01*
X138187Y702700D01*
X138109Y702760D01*
X138036Y702828D01*
X137983Y702857D01*
X137936Y702894D01*
X137845Y702934D01*
X137758Y702982D01*
X137699Y702997D01*
X137644Y703021D01*
X137546Y703036D01*
X137450Y703061D01*
X137350Y703067D01*
X137330Y703071D01*
X137317Y703069D01*
X137289Y703071D01*
X132818Y703071D01*
X132700Y703056D01*
X132581Y703049D01*
X132543Y703036D01*
X132502Y703031D01*
X132392Y702988D01*
X132279Y702951D01*
X132244Y702929D01*
X132207Y702914D01*
X132111Y702845D01*
X132010Y702781D01*
X131982Y702751D01*
X131949Y702728D01*
X131873Y702636D01*
X131792Y702549D01*
X131772Y702514D01*
X131747Y702483D01*
X131696Y702375D01*
X131638Y702271D01*
X131628Y702231D01*
X131611Y702195D01*
X131589Y702078D01*
X131559Y701963D01*
X131555Y701903D01*
X131551Y701883D01*
X131553Y701862D01*
X131549Y701802D01*
X131549Y700237D01*
X130709Y699398D01*
X130636Y699304D01*
X130557Y699214D01*
X130539Y699178D01*
X130514Y699146D01*
X130467Y699037D01*
X130413Y698931D01*
X130404Y698892D01*
X130388Y698854D01*
X130369Y698737D01*
X130343Y698621D01*
X130344Y698580D01*
X130338Y698540D01*
X130349Y698421D01*
X130353Y698303D01*
X130364Y698264D01*
X130368Y698224D01*
X130408Y698111D01*
X130441Y697997D01*
X130462Y697963D01*
X130475Y697924D01*
X130542Y697826D01*
X130603Y697723D01*
X130643Y697678D01*
X130654Y697661D01*
X130669Y697648D01*
X130709Y697603D01*
X131549Y696763D01*
X131549Y680237D01*
X130709Y679397D01*
X130636Y679303D01*
X130557Y679214D01*
X130539Y679178D01*
X130514Y679146D01*
X130467Y679037D01*
X130413Y678931D01*
X130404Y678892D01*
X130388Y678854D01*
X130369Y678737D01*
X130343Y678621D01*
X130344Y678580D01*
X130338Y678540D01*
X130349Y678422D01*
X130353Y678303D01*
X130364Y678264D01*
X130368Y678224D01*
X130408Y678112D01*
X130441Y677997D01*
X130462Y677962D01*
X130475Y677924D01*
X130542Y677826D01*
X130603Y677723D01*
X130642Y677678D01*
X130654Y677661D01*
X130669Y677648D01*
X130709Y677602D01*
X131549Y676763D01*
X131549Y675358D01*
X131564Y675240D01*
X131571Y675121D01*
X131584Y675083D01*
X131589Y675042D01*
X131632Y674932D01*
X131669Y674819D01*
X131691Y674784D01*
X131706Y674747D01*
X131775Y674651D01*
X131839Y674550D01*
X131869Y674522D01*
X131892Y674489D01*
X131984Y674413D01*
X132071Y674332D01*
X132106Y674312D01*
X132137Y674287D01*
X132245Y674236D01*
X132349Y674178D01*
X132389Y674168D01*
X132425Y674151D01*
X132542Y674129D01*
X132657Y674099D01*
X132717Y674095D01*
X132737Y674091D01*
X132758Y674093D01*
X132818Y674089D01*
X135610Y674089D01*
X135660Y674095D01*
X135709Y674093D01*
X135817Y674115D01*
X135926Y674129D01*
X135972Y674147D01*
X136021Y674157D01*
X136119Y674205D01*
X136221Y674246D01*
X136262Y674275D01*
X136306Y674297D01*
X136390Y674368D01*
X136479Y674432D01*
X136510Y674471D01*
X136548Y674503D01*
X136611Y674593D01*
X136682Y674677D01*
X136703Y674722D01*
X136731Y674763D01*
X136770Y674866D01*
X136817Y674965D01*
X136826Y675014D01*
X136844Y675060D01*
X136856Y675170D01*
X136877Y675277D01*
X136874Y675327D01*
X136879Y675376D01*
X136864Y675485D01*
X136857Y675595D01*
X136842Y675642D01*
X136835Y675691D01*
X136783Y675844D01*
X136556Y676391D01*
X136556Y679207D01*
X137634Y681810D01*
X139626Y683802D01*
X142229Y684880D01*
X145045Y684880D01*
X147648Y683802D01*
X147690Y683759D01*
X147768Y683699D01*
X147841Y683631D01*
X147894Y683602D01*
X147941Y683565D01*
X148032Y683525D01*
X148119Y683477D01*
X148178Y683462D01*
X148233Y683438D01*
X148331Y683423D01*
X148427Y683398D01*
X148527Y683392D01*
X148547Y683388D01*
X148560Y683390D01*
X148588Y683388D01*
X202772Y683388D01*
X202871Y683400D01*
X202970Y683403D01*
X203028Y683420D01*
X203088Y683428D01*
X203180Y683464D01*
X203275Y683492D01*
X203327Y683522D01*
X203384Y683545D01*
X203464Y683603D01*
X203549Y683653D01*
X203624Y683719D01*
X203641Y683731D01*
X203649Y683741D01*
X203670Y683759D01*
X233148Y713238D01*
X235202Y714089D01*
X248182Y714089D01*
X248300Y714104D01*
X248419Y714111D01*
X248457Y714124D01*
X248498Y714129D01*
X248608Y714172D01*
X248721Y714209D01*
X248756Y714231D01*
X248793Y714246D01*
X248889Y714315D01*
X248990Y714379D01*
X249018Y714409D01*
X249051Y714432D01*
X249127Y714524D01*
X249208Y714611D01*
X249228Y714646D01*
X249253Y714677D01*
X249304Y714785D01*
X249362Y714889D01*
X249372Y714929D01*
X249389Y714965D01*
X249411Y715082D01*
X249441Y715197D01*
X249445Y715257D01*
X249449Y715277D01*
X249447Y715298D01*
X249451Y715358D01*
X249451Y716763D01*
X250291Y717602D01*
X250364Y717696D01*
X250443Y717786D01*
X250461Y717822D01*
X250486Y717854D01*
X250533Y717963D01*
X250587Y718069D01*
X250596Y718108D01*
X250612Y718146D01*
X250631Y718263D01*
X250657Y718379D01*
X250656Y718420D01*
X250662Y718460D01*
X250651Y718578D01*
X250647Y718697D01*
X250636Y718736D01*
X250632Y718776D01*
X250592Y718889D01*
X250559Y719003D01*
X250538Y719037D01*
X250525Y719076D01*
X250458Y719174D01*
X250397Y719277D01*
X250357Y719322D01*
X250346Y719339D01*
X250331Y719352D01*
X250291Y719397D01*
X249451Y720237D01*
X249451Y736763D01*
X250291Y737602D01*
X250364Y737696D01*
X250443Y737786D01*
X250461Y737822D01*
X250486Y737854D01*
X250533Y737963D01*
X250587Y738069D01*
X250596Y738108D01*
X250612Y738146D01*
X250631Y738263D01*
X250657Y738379D01*
X250656Y738420D01*
X250662Y738460D01*
X250651Y738578D01*
X250647Y738697D01*
X250636Y738736D01*
X250632Y738776D01*
X250592Y738889D01*
X250559Y739003D01*
X250538Y739037D01*
X250525Y739076D01*
X250458Y739174D01*
X250397Y739277D01*
X250357Y739322D01*
X250346Y739339D01*
X250331Y739352D01*
X250291Y739397D01*
X249451Y740237D01*
X249451Y756763D01*
X250291Y757602D01*
X250364Y757696D01*
X250443Y757786D01*
X250461Y757822D01*
X250486Y757854D01*
X250533Y757963D01*
X250587Y758069D01*
X250596Y758108D01*
X250612Y758146D01*
X250631Y758263D01*
X250657Y758379D01*
X250656Y758420D01*
X250662Y758460D01*
X250651Y758578D01*
X250647Y758697D01*
X250636Y758736D01*
X250632Y758776D01*
X250592Y758889D01*
X250559Y759003D01*
X250538Y759037D01*
X250525Y759076D01*
X250458Y759174D01*
X250397Y759277D01*
X250357Y759322D01*
X250346Y759339D01*
X250331Y759352D01*
X250291Y759397D01*
X249451Y760237D01*
X249451Y776763D01*
X251237Y778549D01*
X283763Y778549D01*
X285549Y776763D01*
X285549Y760237D01*
X284709Y759397D01*
X284636Y759303D01*
X284557Y759214D01*
X284539Y759178D01*
X284514Y759146D01*
X284467Y759037D01*
X284413Y758931D01*
X284404Y758892D01*
X284388Y758854D01*
X284369Y758737D01*
X284343Y758621D01*
X284344Y758580D01*
X284338Y758540D01*
X284349Y758422D01*
X284353Y758303D01*
X284364Y758264D01*
X284368Y758224D01*
X284408Y758112D01*
X284441Y757997D01*
X284462Y757962D01*
X284475Y757924D01*
X284542Y757826D01*
X284603Y757723D01*
X284642Y757678D01*
X284654Y757661D01*
X284669Y757648D01*
X284709Y757602D01*
X285549Y756763D01*
X285549Y755396D01*
X285564Y755278D01*
X285571Y755159D01*
X285584Y755121D01*
X285589Y755080D01*
X285632Y754970D01*
X285669Y754857D01*
X285691Y754822D01*
X285706Y754785D01*
X285775Y754689D01*
X285839Y754588D01*
X285869Y754560D01*
X285892Y754527D01*
X285984Y754451D01*
X286071Y754370D01*
X286106Y754350D01*
X286137Y754325D01*
X286245Y754274D01*
X286349Y754216D01*
X286389Y754206D01*
X286425Y754189D01*
X286542Y754167D01*
X286657Y754137D01*
X286717Y754133D01*
X286737Y754129D01*
X286758Y754131D01*
X286818Y754127D01*
X299816Y754127D01*
X301870Y753276D01*
X303620Y751525D01*
X310188Y744958D01*
X310243Y744915D01*
X310291Y744865D01*
X310368Y744818D01*
X310439Y744763D01*
X310503Y744735D01*
X310563Y744699D01*
X310648Y744672D01*
X310731Y744637D01*
X310800Y744626D01*
X310866Y744605D01*
X310956Y744601D01*
X311045Y744587D01*
X311115Y744593D01*
X311184Y744590D01*
X311272Y744608D01*
X311362Y744617D01*
X311427Y744640D01*
X311496Y744654D01*
X311576Y744694D01*
X311661Y744724D01*
X311719Y744763D01*
X311781Y744794D01*
X311850Y744852D01*
X311924Y744903D01*
X311970Y744955D01*
X312023Y745000D01*
X312075Y745074D01*
X312134Y745141D01*
X312166Y745203D01*
X312206Y745260D01*
X312238Y745344D01*
X312279Y745424D01*
X312294Y745493D01*
X312319Y745558D01*
X312329Y745647D01*
X312349Y745735D01*
X312347Y745804D01*
X312354Y745874D01*
X312342Y745963D01*
X312339Y746053D01*
X312320Y746120D01*
X312310Y746189D01*
X312258Y746341D01*
X311911Y747178D01*
X311911Y751422D01*
X313535Y755343D01*
X316537Y758345D01*
X320458Y759969D01*
X339942Y759969D01*
X343863Y758345D01*
X346865Y755343D01*
X348489Y751422D01*
X348489Y747178D01*
X346865Y743257D01*
X343863Y740255D01*
X339942Y738631D01*
X320458Y738631D01*
X319621Y738978D01*
X319554Y738996D01*
X319490Y739024D01*
X319401Y739038D01*
X319314Y739062D01*
X319245Y739063D01*
X319176Y739074D01*
X319086Y739065D01*
X318996Y739067D01*
X318929Y739051D01*
X318859Y739044D01*
X318775Y739014D01*
X318687Y738993D01*
X318625Y738960D01*
X318560Y738936D01*
X318485Y738886D01*
X318406Y738844D01*
X318354Y738797D01*
X318297Y738758D01*
X318237Y738690D01*
X318171Y738630D01*
X318132Y738572D01*
X318086Y738519D01*
X318045Y738439D01*
X317996Y738364D01*
X317973Y738298D01*
X317942Y738236D01*
X317922Y738149D01*
X317893Y738064D01*
X317887Y737994D01*
X317872Y737926D01*
X317875Y737836D01*
X317868Y737746D01*
X317879Y737678D01*
X317882Y737608D01*
X317907Y737522D01*
X317922Y737433D01*
X317951Y737369D01*
X317970Y737302D01*
X318016Y737225D01*
X318053Y737143D01*
X318096Y737089D01*
X318132Y737029D01*
X318238Y736908D01*
X320205Y734940D01*
X320283Y734880D01*
X320356Y734812D01*
X320409Y734783D01*
X320456Y734746D01*
X320547Y734706D01*
X320634Y734658D01*
X320693Y734643D01*
X320748Y734619D01*
X320846Y734604D01*
X320942Y734579D01*
X321042Y734573D01*
X321062Y734569D01*
X321075Y734571D01*
X321103Y734569D01*
X339942Y734569D01*
X343863Y732945D01*
X346865Y729943D01*
X348489Y726022D01*
X348489Y721778D01*
X346865Y717857D01*
X343863Y714855D01*
X339942Y713231D01*
X323389Y713231D01*
X323251Y713214D01*
X323112Y713201D01*
X323093Y713194D01*
X323073Y713191D01*
X322944Y713140D01*
X322813Y713093D01*
X322796Y713082D01*
X322777Y713074D01*
X322665Y712993D01*
X322550Y712915D01*
X322536Y712899D01*
X322520Y712888D01*
X322431Y712780D01*
X322339Y712676D01*
X322330Y712658D01*
X322317Y712643D01*
X322258Y712517D01*
X322195Y712393D01*
X322190Y712373D01*
X322182Y712355D01*
X322156Y712218D01*
X322125Y712083D01*
X322126Y712062D01*
X322122Y712043D01*
X322131Y711904D01*
X322135Y711765D01*
X322140Y711745D01*
X322142Y711725D01*
X322184Y711593D01*
X322223Y711459D01*
X322233Y711442D01*
X322240Y711423D01*
X322314Y711305D01*
X322385Y711185D01*
X322403Y711164D01*
X322410Y711154D01*
X322425Y711140D01*
X322491Y711065D01*
X324015Y709540D01*
X324093Y709480D01*
X324166Y709412D01*
X324219Y709383D01*
X324266Y709346D01*
X324357Y709306D01*
X324444Y709258D01*
X324503Y709243D01*
X324558Y709219D01*
X324656Y709204D01*
X324752Y709179D01*
X324852Y709173D01*
X324872Y709169D01*
X324885Y709171D01*
X324913Y709169D01*
X339942Y709169D01*
X343863Y707545D01*
X346865Y704543D01*
X348489Y700622D01*
X348489Y696378D01*
X346865Y692457D01*
X343863Y689455D01*
X339942Y687831D01*
X320458Y687831D01*
X316537Y689455D01*
X313535Y692457D01*
X311911Y696378D01*
X311911Y700622D01*
X313114Y703526D01*
X313122Y703555D01*
X313135Y703581D01*
X313164Y703708D01*
X313198Y703833D01*
X313199Y703862D01*
X313205Y703891D01*
X313201Y704021D01*
X313203Y704151D01*
X313196Y704180D01*
X313195Y704209D01*
X313159Y704334D01*
X313129Y704460D01*
X313115Y704486D01*
X313107Y704515D01*
X313041Y704626D01*
X312980Y704741D01*
X312960Y704763D01*
X312945Y704789D01*
X312839Y704909D01*
X294983Y722766D01*
X294905Y722826D01*
X294832Y722894D01*
X294779Y722923D01*
X294732Y722960D01*
X294641Y723000D01*
X294554Y723048D01*
X294495Y723063D01*
X294440Y723087D01*
X294342Y723102D01*
X294246Y723127D01*
X294146Y723133D01*
X294126Y723137D01*
X294113Y723135D01*
X294085Y723137D01*
X286818Y723137D01*
X286700Y723122D01*
X286581Y723115D01*
X286543Y723102D01*
X286502Y723097D01*
X286392Y723054D01*
X286279Y723017D01*
X286244Y722995D01*
X286207Y722980D01*
X286111Y722911D01*
X286010Y722847D01*
X285982Y722817D01*
X285949Y722794D01*
X285873Y722702D01*
X285792Y722615D01*
X285772Y722580D01*
X285747Y722549D01*
X285696Y722441D01*
X285638Y722337D01*
X285628Y722297D01*
X285611Y722261D01*
X285589Y722144D01*
X285559Y722029D01*
X285555Y721969D01*
X285551Y721949D01*
X285553Y721928D01*
X285549Y721868D01*
X285549Y720237D01*
X284709Y719397D01*
X284636Y719303D01*
X284557Y719214D01*
X284539Y719178D01*
X284514Y719146D01*
X284467Y719037D01*
X284413Y718931D01*
X284404Y718892D01*
X284388Y718854D01*
X284369Y718737D01*
X284343Y718621D01*
X284344Y718580D01*
X284338Y718540D01*
X284349Y718422D01*
X284353Y718303D01*
X284364Y718264D01*
X284368Y718224D01*
X284408Y718112D01*
X284441Y717997D01*
X284462Y717962D01*
X284475Y717924D01*
X284542Y717826D01*
X284603Y717723D01*
X284642Y717678D01*
X284654Y717661D01*
X284669Y717648D01*
X284709Y717602D01*
X285549Y716763D01*
X285549Y700237D01*
X284709Y699397D01*
X284636Y699303D01*
X284557Y699214D01*
X284539Y699178D01*
X284514Y699146D01*
X284467Y699037D01*
X284413Y698931D01*
X284404Y698892D01*
X284388Y698854D01*
X284369Y698737D01*
X284343Y698621D01*
X284344Y698580D01*
X284338Y698540D01*
X284349Y698421D01*
X284353Y698303D01*
X284364Y698264D01*
X284368Y698224D01*
X284408Y698112D01*
X284441Y697997D01*
X284462Y697962D01*
X284475Y697924D01*
X284542Y697826D01*
X284603Y697723D01*
X284642Y697678D01*
X284654Y697661D01*
X284669Y697648D01*
X284709Y697602D01*
X285549Y696763D01*
X285549Y680237D01*
X284709Y679397D01*
X284636Y679303D01*
X284557Y679214D01*
X284539Y679178D01*
X284514Y679146D01*
X284467Y679037D01*
X284413Y678931D01*
X284404Y678892D01*
X284388Y678854D01*
X284369Y678737D01*
X284343Y678621D01*
X284344Y678580D01*
X284338Y678540D01*
X284349Y678422D01*
X284353Y678303D01*
X284364Y678264D01*
X284368Y678224D01*
X284408Y678112D01*
X284441Y677997D01*
X284462Y677962D01*
X284475Y677924D01*
X284542Y677826D01*
X284603Y677723D01*
X284642Y677678D01*
X284654Y677661D01*
X284669Y677648D01*
X284709Y677602D01*
X285549Y676763D01*
X285549Y660237D01*
X284350Y659038D01*
X284277Y658944D01*
X284198Y658855D01*
X284180Y658819D01*
X284155Y658787D01*
X284108Y658678D01*
X284053Y658572D01*
X284045Y658532D01*
X284029Y658495D01*
X284010Y658377D01*
X283984Y658261D01*
X283985Y658221D01*
X283979Y658181D01*
X283990Y658062D01*
X283994Y657943D01*
X284005Y657905D01*
X284009Y657864D01*
X284049Y657752D01*
X284082Y657638D01*
X284102Y657603D01*
X284116Y657565D01*
X284183Y657467D01*
X284243Y657364D01*
X284283Y657319D01*
X284295Y657302D01*
X284310Y657288D01*
X284350Y657243D01*
X284533Y657060D01*
X284868Y656481D01*
X285041Y655834D01*
X285041Y651039D01*
X268770Y651039D01*
X268652Y651024D01*
X268533Y651017D01*
X268495Y651004D01*
X268455Y650999D01*
X268344Y650955D01*
X268231Y650919D01*
X268196Y650897D01*
X268159Y650882D01*
X268063Y650812D01*
X267962Y650749D01*
X267934Y650719D01*
X267902Y650695D01*
X267826Y650604D01*
X267744Y650517D01*
X267725Y650482D01*
X267699Y650450D01*
X267648Y650343D01*
X267591Y650239D01*
X267580Y650199D01*
X267563Y650163D01*
X267541Y650046D01*
X267511Y649931D01*
X267507Y649870D01*
X267503Y649850D01*
X267505Y649830D01*
X267501Y649770D01*
X267501Y647230D01*
X267516Y647112D01*
X267523Y646993D01*
X267536Y646955D01*
X267541Y646915D01*
X267585Y646804D01*
X267621Y646691D01*
X267643Y646656D01*
X267658Y646619D01*
X267728Y646523D01*
X267791Y646422D01*
X267821Y646394D01*
X267845Y646361D01*
X267936Y646286D01*
X268023Y646204D01*
X268058Y646184D01*
X268090Y646159D01*
X268197Y646108D01*
X268301Y646050D01*
X268341Y646040D01*
X268377Y646023D01*
X268494Y646001D01*
X268609Y645971D01*
X268670Y645967D01*
X268690Y645963D01*
X268710Y645965D01*
X268770Y645961D01*
X285041Y645961D01*
X285041Y641166D01*
X284868Y640519D01*
X284533Y639940D01*
X284350Y639757D01*
X284277Y639663D01*
X284198Y639573D01*
X284180Y639537D01*
X284155Y639505D01*
X284108Y639396D01*
X284053Y639290D01*
X284045Y639251D01*
X284029Y639214D01*
X284010Y639096D01*
X283984Y638980D01*
X283985Y638939D01*
X283979Y638899D01*
X283990Y638781D01*
X283993Y638662D01*
X284005Y638623D01*
X284009Y638583D01*
X284049Y638471D01*
X284082Y638356D01*
X284102Y638322D01*
X284116Y638284D01*
X284183Y638185D01*
X284243Y638083D01*
X284283Y638037D01*
X284295Y638020D01*
X284310Y638007D01*
X284350Y637962D01*
X285549Y636763D01*
X285549Y620237D01*
X285013Y619701D01*
X284995Y619678D01*
X284972Y619659D01*
X284897Y619552D01*
X284818Y619450D01*
X284806Y619423D01*
X284789Y619399D01*
X284743Y619277D01*
X284691Y619158D01*
X284687Y619129D01*
X284676Y619101D01*
X284662Y618972D01*
X284642Y618844D01*
X284644Y618815D01*
X284641Y618785D01*
X284659Y618657D01*
X284671Y618527D01*
X284681Y618500D01*
X284686Y618470D01*
X284738Y618318D01*
X284989Y617712D01*
X284989Y565658D01*
X285004Y565540D01*
X285011Y565421D01*
X285024Y565383D01*
X285029Y565342D01*
X285072Y565232D01*
X285109Y565119D01*
X285131Y565084D01*
X285146Y565047D01*
X285215Y564951D01*
X285279Y564850D01*
X285309Y564822D01*
X285332Y564789D01*
X285424Y564713D01*
X285511Y564632D01*
X285546Y564612D01*
X285577Y564587D01*
X285685Y564536D01*
X285789Y564478D01*
X285829Y564468D01*
X285865Y564451D01*
X285982Y564429D01*
X286097Y564399D01*
X286157Y564395D01*
X286177Y564391D01*
X286198Y564393D01*
X286258Y564389D01*
X287013Y564389D01*
X288799Y562603D01*
X288799Y534611D01*
X288814Y534493D01*
X288821Y534373D01*
X288834Y534335D01*
X288839Y534296D01*
X288883Y534184D01*
X288919Y534071D01*
X288941Y534037D01*
X288956Y534000D01*
X289026Y533903D01*
X289090Y533802D01*
X289119Y533775D01*
X289142Y533742D01*
X289235Y533666D01*
X289322Y533584D01*
X289357Y533565D01*
X289387Y533540D01*
X289496Y533489D01*
X289600Y533431D01*
X289639Y533421D01*
X289675Y533404D01*
X289792Y533382D01*
X289908Y533352D01*
X289968Y533348D01*
X289987Y533344D01*
X290008Y533346D01*
X290069Y533342D01*
X293371Y533344D01*
X293489Y533359D01*
X293607Y533366D01*
X293646Y533379D01*
X293686Y533384D01*
X293797Y533428D01*
X293909Y533464D01*
X293944Y533486D01*
X293982Y533501D01*
X294078Y533571D01*
X294178Y533635D01*
X294206Y533664D01*
X294239Y533688D01*
X294315Y533780D01*
X294396Y533866D01*
X294416Y533902D01*
X294442Y533933D01*
X294492Y534041D01*
X294550Y534145D01*
X294560Y534184D01*
X294577Y534221D01*
X294599Y534338D01*
X294629Y534453D01*
X294633Y534513D01*
X294637Y534534D01*
X294635Y534554D01*
X294639Y534613D01*
X294639Y538481D01*
X303530Y538481D01*
X303648Y538496D01*
X303767Y538503D01*
X303805Y538516D01*
X303845Y538521D01*
X303956Y538564D01*
X304069Y538601D01*
X304104Y538623D01*
X304141Y538638D01*
X304237Y538708D01*
X304338Y538771D01*
X304366Y538801D01*
X304398Y538825D01*
X304474Y538916D01*
X304556Y539003D01*
X304575Y539038D01*
X304601Y539069D01*
X304652Y539177D01*
X304709Y539281D01*
X304720Y539321D01*
X304737Y539357D01*
X304759Y539474D01*
X304789Y539589D01*
X304793Y539650D01*
X304797Y539670D01*
X304795Y539690D01*
X304799Y539750D01*
X304799Y541021D01*
X304801Y541021D01*
X304801Y539750D01*
X304816Y539632D01*
X304823Y539513D01*
X304836Y539475D01*
X304841Y539435D01*
X304885Y539324D01*
X304921Y539211D01*
X304943Y539176D01*
X304958Y539139D01*
X305028Y539043D01*
X305091Y538942D01*
X305121Y538914D01*
X305145Y538881D01*
X305236Y538806D01*
X305323Y538724D01*
X305358Y538704D01*
X305390Y538679D01*
X305497Y538628D01*
X305601Y538570D01*
X305641Y538560D01*
X305677Y538543D01*
X305794Y538521D01*
X305909Y538491D01*
X305970Y538487D01*
X305990Y538483D01*
X306010Y538485D01*
X306070Y538481D01*
X314961Y538481D01*
X314961Y534629D01*
X314976Y534510D01*
X314983Y534391D01*
X314996Y534353D01*
X315001Y534313D01*
X315045Y534202D01*
X315081Y534088D01*
X315103Y534055D01*
X315118Y534017D01*
X315188Y533921D01*
X315252Y533820D01*
X315281Y533792D01*
X315304Y533760D01*
X315397Y533684D01*
X315484Y533602D01*
X315519Y533583D01*
X315549Y533557D01*
X315658Y533506D01*
X315762Y533449D01*
X315801Y533439D01*
X315837Y533422D01*
X315954Y533399D01*
X316070Y533369D01*
X316130Y533366D01*
X316149Y533362D01*
X316170Y533363D01*
X316231Y533359D01*
X366271Y533393D01*
X366389Y533408D01*
X366507Y533415D01*
X366546Y533428D01*
X366586Y533433D01*
X366697Y533477D01*
X366809Y533513D01*
X366844Y533535D01*
X366882Y533550D01*
X366978Y533620D01*
X367078Y533684D01*
X367106Y533713D01*
X367139Y533737D01*
X367215Y533829D01*
X367296Y533915D01*
X367316Y533951D01*
X367342Y533982D01*
X367392Y534090D01*
X367450Y534194D01*
X367460Y534233D01*
X367477Y534270D01*
X367499Y534387D01*
X367529Y534502D01*
X367533Y534562D01*
X367537Y534583D01*
X367535Y534603D01*
X367539Y534662D01*
X367539Y808882D01*
X367524Y809001D01*
X367517Y809120D01*
X367504Y809158D01*
X367499Y809198D01*
X367455Y809309D01*
X367419Y809423D01*
X367397Y809456D01*
X367382Y809494D01*
X367312Y809590D01*
X367248Y809691D01*
X367219Y809718D01*
X367196Y809751D01*
X367103Y809827D01*
X367016Y809909D01*
X366981Y809928D01*
X366951Y809954D01*
X366842Y810005D01*
X366738Y810062D01*
X366699Y810072D01*
X366663Y810089D01*
X366546Y810112D01*
X366430Y810141D01*
X366370Y810145D01*
X366351Y810149D01*
X366330Y810148D01*
X366269Y810152D01*
X11429Y809913D01*
X11311Y809898D01*
X11193Y809891D01*
X11154Y809878D01*
X11114Y809873D01*
X11003Y809829D01*
X10891Y809793D01*
X10856Y809771D01*
X10818Y809756D01*
X10722Y809686D01*
X10622Y809622D01*
X10594Y809593D01*
X10561Y809569D01*
X10485Y809477D01*
X10404Y809391D01*
X10384Y809355D01*
X10358Y809324D01*
X10308Y809216D01*
X10250Y809112D01*
X10240Y809073D01*
X10223Y809036D01*
X10201Y808919D01*
X10171Y808804D01*
X10167Y808744D01*
X10163Y808723D01*
X10165Y808703D01*
X10161Y808644D01*
X10161Y534424D01*
X10176Y534305D01*
X10183Y534186D01*
X10196Y534148D01*
X10201Y534108D01*
X10245Y533997D01*
X10281Y533883D01*
X10303Y533850D01*
X10318Y533812D01*
X10388Y533716D01*
X10452Y533615D01*
X10481Y533588D01*
X10504Y533555D01*
X10597Y533479D01*
X10684Y533397D01*
X10719Y533378D01*
X10749Y533352D01*
X10858Y533301D01*
X10962Y533244D01*
X11001Y533234D01*
X11037Y533217D01*
X11154Y533194D01*
X11270Y533165D01*
X11330Y533161D01*
X11349Y533157D01*
X11370Y533158D01*
X11431Y533154D01*
X96083Y533211D01*
G37*
%LPC*%
G36*
X45427Y556101D02*
X45427Y556101D01*
X43641Y557887D01*
X43641Y572413D01*
X45238Y574009D01*
X45298Y574087D01*
X45366Y574159D01*
X45395Y574212D01*
X45432Y574260D01*
X45472Y574351D01*
X45520Y574438D01*
X45535Y574496D01*
X45559Y574552D01*
X45574Y574650D01*
X45599Y574746D01*
X45605Y574846D01*
X45609Y574866D01*
X45607Y574879D01*
X45609Y574907D01*
X45609Y585873D01*
X45597Y585972D01*
X45594Y586071D01*
X45577Y586129D01*
X45569Y586189D01*
X45533Y586281D01*
X45505Y586376D01*
X45475Y586428D01*
X45452Y586485D01*
X45394Y586565D01*
X45344Y586650D01*
X45278Y586725D01*
X45266Y586742D01*
X45256Y586750D01*
X45238Y586771D01*
X43641Y588367D01*
X43641Y602893D01*
X45238Y604489D01*
X45298Y604567D01*
X45366Y604639D01*
X45395Y604692D01*
X45432Y604740D01*
X45472Y604831D01*
X45520Y604918D01*
X45535Y604977D01*
X45559Y605032D01*
X45574Y605130D01*
X45599Y605226D01*
X45605Y605326D01*
X45609Y605346D01*
X45607Y605359D01*
X45609Y605387D01*
X45609Y616099D01*
X45597Y616198D01*
X45594Y616297D01*
X45577Y616355D01*
X45569Y616415D01*
X45533Y616507D01*
X45505Y616602D01*
X45475Y616654D01*
X45452Y616711D01*
X45394Y616791D01*
X45344Y616876D01*
X45278Y616951D01*
X45266Y616968D01*
X45256Y616976D01*
X45238Y616997D01*
X43641Y618593D01*
X43641Y633119D01*
X44730Y634207D01*
X44790Y634285D01*
X44858Y634357D01*
X44887Y634411D01*
X44924Y634458D01*
X44964Y634549D01*
X45012Y634636D01*
X45027Y634695D01*
X45051Y634750D01*
X45066Y634848D01*
X45091Y634944D01*
X45097Y635044D01*
X45101Y635064D01*
X45099Y635077D01*
X45101Y635105D01*
X45101Y661162D01*
X45086Y661280D01*
X45079Y661399D01*
X45066Y661437D01*
X45061Y661478D01*
X45018Y661588D01*
X44981Y661701D01*
X44959Y661736D01*
X44944Y661773D01*
X44875Y661869D01*
X44811Y661970D01*
X44781Y661998D01*
X44758Y662031D01*
X44666Y662107D01*
X44579Y662188D01*
X44544Y662208D01*
X44513Y662233D01*
X44405Y662284D01*
X44301Y662342D01*
X44261Y662352D01*
X44225Y662369D01*
X44108Y662391D01*
X43993Y662421D01*
X43933Y662425D01*
X43913Y662429D01*
X43892Y662427D01*
X43832Y662431D01*
X41058Y662431D01*
X37137Y664055D01*
X34135Y667057D01*
X32511Y670978D01*
X32511Y675222D01*
X34135Y679143D01*
X37137Y682145D01*
X41058Y683769D01*
X60542Y683769D01*
X64463Y682145D01*
X67465Y679143D01*
X69089Y675222D01*
X69089Y670978D01*
X67465Y667057D01*
X64463Y664055D01*
X60542Y662431D01*
X57548Y662431D01*
X57430Y662416D01*
X57311Y662409D01*
X57273Y662396D01*
X57232Y662391D01*
X57122Y662348D01*
X57009Y662311D01*
X56974Y662289D01*
X56937Y662274D01*
X56841Y662205D01*
X56740Y662141D01*
X56712Y662111D01*
X56679Y662088D01*
X56603Y661996D01*
X56522Y661909D01*
X56502Y661874D01*
X56477Y661843D01*
X56426Y661735D01*
X56368Y661631D01*
X56358Y661591D01*
X56341Y661555D01*
X56319Y661438D01*
X56289Y661323D01*
X56285Y661263D01*
X56281Y661243D01*
X56283Y661222D01*
X56279Y661162D01*
X56279Y635105D01*
X56291Y635006D01*
X56294Y634907D01*
X56311Y634849D01*
X56319Y634789D01*
X56355Y634697D01*
X56383Y634602D01*
X56413Y634550D01*
X56436Y634493D01*
X56494Y634413D01*
X56544Y634328D01*
X56610Y634253D01*
X56622Y634236D01*
X56632Y634228D01*
X56650Y634207D01*
X57739Y633119D01*
X57739Y618593D01*
X56142Y616997D01*
X56082Y616919D01*
X56014Y616847D01*
X55985Y616794D01*
X55948Y616746D01*
X55908Y616655D01*
X55860Y616568D01*
X55845Y616510D01*
X55821Y616454D01*
X55806Y616356D01*
X55781Y616260D01*
X55775Y616160D01*
X55771Y616140D01*
X55773Y616127D01*
X55771Y616099D01*
X55771Y605387D01*
X55783Y605288D01*
X55786Y605189D01*
X55803Y605131D01*
X55811Y605071D01*
X55847Y604979D01*
X55875Y604884D01*
X55905Y604832D01*
X55928Y604775D01*
X55986Y604695D01*
X56036Y604610D01*
X56102Y604535D01*
X56114Y604518D01*
X56124Y604510D01*
X56142Y604489D01*
X57739Y602893D01*
X57739Y588367D01*
X56142Y586771D01*
X56082Y586693D01*
X56014Y586621D01*
X55985Y586568D01*
X55948Y586520D01*
X55908Y586429D01*
X55860Y586342D01*
X55845Y586283D01*
X55821Y586228D01*
X55806Y586130D01*
X55781Y586034D01*
X55775Y585934D01*
X55771Y585914D01*
X55773Y585901D01*
X55771Y585873D01*
X55771Y574907D01*
X55783Y574808D01*
X55786Y574709D01*
X55803Y574651D01*
X55811Y574591D01*
X55847Y574499D01*
X55875Y574404D01*
X55905Y574352D01*
X55928Y574295D01*
X55986Y574215D01*
X56036Y574130D01*
X56102Y574055D01*
X56114Y574038D01*
X56124Y574030D01*
X56142Y574009D01*
X57739Y572413D01*
X57739Y557887D01*
X55953Y556101D01*
X45427Y556101D01*
G37*
%LPD*%
%LPC*%
G36*
X320458Y764031D02*
X320458Y764031D01*
X316537Y765655D01*
X313535Y768657D01*
X311911Y772578D01*
X311911Y776822D01*
X313535Y780743D01*
X316537Y783745D01*
X320458Y785369D01*
X339942Y785369D01*
X343863Y783745D01*
X346865Y780743D01*
X348489Y776822D01*
X348489Y772578D01*
X346865Y768657D01*
X343863Y765655D01*
X339942Y764031D01*
X320458Y764031D01*
G37*
%LPD*%
%LPC*%
G36*
X320458Y662431D02*
X320458Y662431D01*
X316537Y664055D01*
X313535Y667057D01*
X311911Y670978D01*
X311911Y675222D01*
X313535Y679143D01*
X316537Y682145D01*
X320458Y683769D01*
X339942Y683769D01*
X343863Y682145D01*
X346865Y679143D01*
X348489Y675222D01*
X348489Y670978D01*
X346865Y667057D01*
X343863Y664055D01*
X339942Y662431D01*
X320458Y662431D01*
G37*
%LPD*%
%LPC*%
G36*
X102018Y577849D02*
X102018Y577849D01*
X98097Y579473D01*
X95095Y582475D01*
X93471Y586396D01*
X93471Y590640D01*
X95095Y594561D01*
X98097Y597563D01*
X102018Y599187D01*
X121502Y599187D01*
X125423Y597563D01*
X128425Y594561D01*
X130049Y590640D01*
X130049Y586396D01*
X128425Y582475D01*
X125423Y579473D01*
X121502Y577849D01*
X102018Y577849D01*
G37*
%LPD*%
%LPC*%
G36*
X307339Y543559D02*
X307339Y543559D01*
X307339Y563881D01*
X312754Y563881D01*
X313401Y563708D01*
X313980Y563373D01*
X314453Y562900D01*
X314788Y562321D01*
X314961Y561674D01*
X314961Y543559D01*
X307339Y543559D01*
G37*
%LPD*%
%LPC*%
G36*
X256539Y543559D02*
X256539Y543559D01*
X256539Y563881D01*
X261954Y563881D01*
X262601Y563708D01*
X263180Y563373D01*
X263653Y562900D01*
X263988Y562321D01*
X264161Y561674D01*
X264161Y543559D01*
X256539Y543559D01*
G37*
%LPD*%
%LPC*%
G36*
X294639Y543559D02*
X294639Y543559D01*
X294639Y561674D01*
X294812Y562321D01*
X295147Y562900D01*
X295620Y563373D01*
X296199Y563708D01*
X296846Y563881D01*
X302261Y563881D01*
X302261Y543559D01*
X294639Y543559D01*
G37*
%LPD*%
%LPC*%
G36*
X243839Y543559D02*
X243839Y543559D01*
X243839Y561674D01*
X244012Y562321D01*
X244347Y562900D01*
X244820Y563373D01*
X245399Y563708D01*
X246046Y563881D01*
X251461Y563881D01*
X251461Y543559D01*
X243839Y543559D01*
G37*
%LPD*%
%LPC*%
G36*
X116039Y771039D02*
X116039Y771039D01*
X116039Y778041D01*
X128834Y778041D01*
X129481Y777868D01*
X130060Y777533D01*
X130533Y777060D01*
X130868Y776481D01*
X131041Y775834D01*
X131041Y771039D01*
X116039Y771039D01*
G37*
%LPD*%
%LPC*%
G36*
X95959Y771039D02*
X95959Y771039D01*
X95959Y775834D01*
X96132Y776481D01*
X96467Y777060D01*
X96940Y777533D01*
X97519Y777868D01*
X98166Y778041D01*
X110961Y778041D01*
X110961Y771039D01*
X95959Y771039D01*
G37*
%LPD*%
%LPC*%
G36*
X116039Y618959D02*
X116039Y618959D01*
X116039Y625961D01*
X131041Y625961D01*
X131041Y621166D01*
X130868Y620519D01*
X130533Y619940D01*
X130060Y619467D01*
X129481Y619132D01*
X128834Y618959D01*
X116039Y618959D01*
G37*
%LPD*%
%LPC*%
G36*
X98166Y618959D02*
X98166Y618959D01*
X97519Y619132D01*
X96940Y619467D01*
X96467Y619940D01*
X96132Y620519D01*
X95959Y621166D01*
X95959Y625961D01*
X110961Y625961D01*
X110961Y618959D01*
X98166Y618959D01*
G37*
%LPD*%
%LPC*%
G36*
X53339Y777239D02*
X53339Y777239D01*
X53339Y784861D01*
X59220Y784861D01*
X60799Y784611D01*
X62320Y784116D01*
X63745Y783390D01*
X65039Y782450D01*
X66170Y781319D01*
X67110Y780025D01*
X67836Y778600D01*
X68279Y777239D01*
X53339Y777239D01*
G37*
%LPD*%
%LPC*%
G36*
X33321Y777239D02*
X33321Y777239D01*
X33764Y778600D01*
X34490Y780025D01*
X35430Y781319D01*
X36561Y782450D01*
X37855Y783390D01*
X39280Y784116D01*
X40801Y784611D01*
X42380Y784861D01*
X48261Y784861D01*
X48261Y777239D01*
X33321Y777239D01*
G37*
%LPD*%
%LPC*%
G36*
X53339Y764539D02*
X53339Y764539D01*
X53339Y772161D01*
X68279Y772161D01*
X67836Y770800D01*
X67110Y769375D01*
X66170Y768081D01*
X65039Y766950D01*
X63745Y766010D01*
X62320Y765284D01*
X60799Y764789D01*
X59220Y764539D01*
X53339Y764539D01*
G37*
%LPD*%
%LPC*%
G36*
X42380Y764539D02*
X42380Y764539D01*
X40801Y764789D01*
X39280Y765284D01*
X37855Y766010D01*
X37244Y766453D01*
X36561Y766950D01*
X35430Y768081D01*
X34490Y769375D01*
X33764Y770800D01*
X33321Y772161D01*
X48261Y772161D01*
X48261Y764539D01*
X42380Y764539D01*
G37*
%LPD*%
%LPC*%
G36*
X70689Y627855D02*
X70689Y627855D01*
X70689Y634397D01*
X73024Y634397D01*
X73671Y634224D01*
X74250Y633889D01*
X74723Y633416D01*
X75058Y632837D01*
X75231Y632190D01*
X75231Y627855D01*
X70689Y627855D01*
G37*
%LPD*%
%LPC*%
G36*
X70689Y597629D02*
X70689Y597629D01*
X70689Y604171D01*
X73024Y604171D01*
X73671Y603998D01*
X74250Y603663D01*
X74723Y603190D01*
X75058Y602611D01*
X75231Y601964D01*
X75231Y597629D01*
X70689Y597629D01*
G37*
%LPD*%
%LPC*%
G36*
X70689Y567149D02*
X70689Y567149D01*
X70689Y573691D01*
X73024Y573691D01*
X73671Y573518D01*
X74250Y573183D01*
X74723Y572710D01*
X75058Y572131D01*
X75231Y571484D01*
X75231Y567149D01*
X70689Y567149D01*
G37*
%LPD*%
%LPC*%
G36*
X62149Y627855D02*
X62149Y627855D01*
X62149Y632190D01*
X62322Y632837D01*
X62657Y633416D01*
X63130Y633889D01*
X63709Y634224D01*
X64356Y634397D01*
X66691Y634397D01*
X66691Y627855D01*
X62149Y627855D01*
G37*
%LPD*%
%LPC*%
G36*
X62149Y597629D02*
X62149Y597629D01*
X62149Y601964D01*
X62322Y602611D01*
X62657Y603190D01*
X63130Y603663D01*
X63709Y603998D01*
X64356Y604171D01*
X66691Y604171D01*
X66691Y597629D01*
X62149Y597629D01*
G37*
%LPD*%
%LPC*%
G36*
X62149Y567149D02*
X62149Y567149D01*
X62149Y571484D01*
X62322Y572131D01*
X62657Y572710D01*
X63130Y573183D01*
X63709Y573518D01*
X64356Y573691D01*
X66691Y573691D01*
X66691Y567149D01*
X62149Y567149D01*
G37*
%LPD*%
%LPC*%
G36*
X70689Y617315D02*
X70689Y617315D01*
X70689Y623857D01*
X75231Y623857D01*
X75231Y619522D01*
X75058Y618875D01*
X74723Y618296D01*
X74250Y617823D01*
X73671Y617488D01*
X73024Y617315D01*
X70689Y617315D01*
G37*
%LPD*%
%LPC*%
G36*
X70689Y587089D02*
X70689Y587089D01*
X70689Y593631D01*
X75231Y593631D01*
X75231Y589296D01*
X75058Y588649D01*
X74723Y588070D01*
X74250Y587597D01*
X73671Y587262D01*
X73024Y587089D01*
X70689Y587089D01*
G37*
%LPD*%
%LPC*%
G36*
X70689Y556609D02*
X70689Y556609D01*
X70689Y563151D01*
X75231Y563151D01*
X75231Y558816D01*
X75058Y558169D01*
X74723Y557590D01*
X74250Y557117D01*
X73671Y556782D01*
X73024Y556609D01*
X70689Y556609D01*
G37*
%LPD*%
%LPC*%
G36*
X64356Y617315D02*
X64356Y617315D01*
X63709Y617488D01*
X63130Y617823D01*
X62657Y618296D01*
X62322Y618875D01*
X62149Y619522D01*
X62149Y623857D01*
X66691Y623857D01*
X66691Y617315D01*
X64356Y617315D01*
G37*
%LPD*%
%LPC*%
G36*
X64356Y587089D02*
X64356Y587089D01*
X63709Y587262D01*
X63130Y587597D01*
X62657Y588070D01*
X62322Y588649D01*
X62149Y589296D01*
X62149Y593631D01*
X66691Y593631D01*
X66691Y587089D01*
X64356Y587089D01*
G37*
%LPD*%
%LPC*%
G36*
X64356Y556609D02*
X64356Y556609D01*
X63709Y556782D01*
X63130Y557117D01*
X62657Y557590D01*
X62322Y558169D01*
X62149Y558816D01*
X62149Y563151D01*
X66691Y563151D01*
X66691Y556609D01*
X64356Y556609D01*
G37*
%LPD*%
%LPC*%
G36*
X50799Y774699D02*
X50799Y774699D01*
X50799Y774701D01*
X50801Y774701D01*
X50801Y774699D01*
X50799Y774699D01*
G37*
%LPD*%
D10*
X50690Y625856D03*
X68690Y625856D03*
D11*
X322580Y774700D02*
X337820Y774700D01*
X337820Y749300D02*
X322580Y749300D01*
X322580Y723900D02*
X337820Y723900D01*
X337820Y698500D02*
X322580Y698500D01*
X322580Y673100D02*
X337820Y673100D01*
X58420Y673100D02*
X43180Y673100D01*
X43180Y698500D02*
X58420Y698500D01*
X58420Y723900D02*
X43180Y723900D01*
X43180Y749300D02*
X58420Y749300D01*
X58420Y774700D02*
X43180Y774700D01*
X104140Y588518D02*
X119380Y588518D01*
X119380Y543306D02*
X104140Y543306D01*
X169164Y588518D02*
X184404Y588518D01*
X184404Y543306D02*
X169164Y543306D01*
D12*
X113500Y768500D03*
X113500Y748500D03*
X113500Y728500D03*
X113500Y708500D03*
X113500Y688500D03*
X113500Y668500D03*
X113500Y648500D03*
X113500Y628500D03*
X267500Y628500D03*
X267500Y648500D03*
X267500Y668500D03*
X267500Y688500D03*
X267500Y708500D03*
X267500Y728500D03*
X267500Y748500D03*
X267500Y768500D03*
D13*
X254000Y541020D03*
X304800Y541020D03*
D14*
X279400Y541020D03*
D10*
X50690Y595630D03*
X68690Y595630D03*
X50690Y565150D03*
X68690Y565150D03*
D15*
X50690Y625856D02*
X50690Y672990D01*
X50800Y673100D01*
D16*
X143637Y677799D03*
D15*
X205613Y677799D01*
X236314Y708500D02*
X267500Y708500D01*
X236314Y708500D02*
X205613Y677799D01*
D17*
X50690Y625856D02*
X50690Y595630D01*
X50690Y565150D01*
D15*
X50800Y698500D02*
X80800Y728500D01*
X113500Y728500D01*
X75400Y748500D02*
X50800Y723900D01*
X75400Y748500D02*
X113500Y748500D01*
X113500Y688500D02*
X95598Y688500D01*
X81280Y702818D01*
X81026Y702818D01*
D16*
X81026Y702818D03*
X142240Y708660D03*
D15*
X113660Y708660D01*
X113500Y708500D01*
X327152Y698500D02*
X330200Y698500D01*
X327152Y698500D02*
X296926Y728726D01*
X267726Y728726D01*
X267500Y728500D01*
X323342Y723900D02*
X330200Y723900D01*
X323342Y723900D02*
X298704Y748538D01*
X267538Y748538D01*
X267500Y748500D01*
X279400Y616600D02*
X279400Y541020D01*
X279400Y616600D02*
X267500Y628500D01*
X176784Y588518D02*
X160020Y605282D01*
X160020Y662178D01*
X153698Y668500D01*
X113500Y668500D01*
M02*
