G04 EAGLE Gerber RS-274X export*
G75*
%MOMM*%
%FSLAX34Y34*%
%LPD*%
%INBottom Copper*%
%IPPOS*%
%AMOC8*
5,1,8,0,0,1.08239X$1,22.5*%
G01*
%ADD10C,1.524000*%
%ADD11R,1.524000X4.064000*%
%ADD12C,0.508000*%
%ADD13C,0.806400*%

G36*
X96083Y533211D02*
X96083Y533211D01*
X96220Y533229D01*
X96359Y533242D01*
X96378Y533249D01*
X96399Y533251D01*
X96527Y533302D01*
X96658Y533349D01*
X96675Y533361D01*
X96695Y533369D01*
X96806Y533450D01*
X96921Y533528D01*
X96935Y533543D01*
X96952Y533556D01*
X97040Y533663D01*
X97132Y533766D01*
X97141Y533785D01*
X97154Y533801D01*
X97213Y533926D01*
X97276Y534050D01*
X97281Y534070D01*
X97290Y534089D01*
X97316Y534225D01*
X97346Y534360D01*
X97345Y534381D01*
X97349Y534401D01*
X97341Y534539D01*
X97336Y534678D01*
X97331Y534698D01*
X97329Y534718D01*
X97287Y534850D01*
X97248Y534983D01*
X97237Y535001D01*
X97231Y535021D01*
X97157Y535137D01*
X97086Y535257D01*
X97067Y535279D01*
X97061Y535289D01*
X97046Y535303D01*
X96980Y535378D01*
X95095Y537263D01*
X93471Y541184D01*
X93471Y545428D01*
X95095Y549349D01*
X98097Y552351D01*
X102018Y553975D01*
X121502Y553975D01*
X125423Y552351D01*
X128425Y549349D01*
X130049Y545428D01*
X130049Y541184D01*
X128425Y537263D01*
X126561Y535399D01*
X126476Y535289D01*
X126387Y535182D01*
X126378Y535164D01*
X126366Y535148D01*
X126311Y535020D01*
X126251Y534894D01*
X126248Y534874D01*
X126240Y534856D01*
X126218Y534718D01*
X126192Y534581D01*
X126193Y534562D01*
X126190Y534542D01*
X126203Y534403D01*
X126212Y534264D01*
X126218Y534245D01*
X126220Y534225D01*
X126267Y534094D01*
X126310Y533961D01*
X126321Y533945D01*
X126327Y533926D01*
X126406Y533810D01*
X126480Y533693D01*
X126495Y533679D01*
X126506Y533663D01*
X126611Y533570D01*
X126712Y533475D01*
X126729Y533466D01*
X126744Y533452D01*
X126869Y533389D01*
X126991Y533322D01*
X127010Y533317D01*
X127028Y533308D01*
X127164Y533277D01*
X127299Y533243D01*
X127326Y533241D01*
X127338Y533238D01*
X127358Y533239D01*
X127459Y533232D01*
X161064Y533255D01*
X161201Y533272D01*
X161339Y533285D01*
X161359Y533293D01*
X161379Y533295D01*
X161508Y533346D01*
X161638Y533393D01*
X161656Y533405D01*
X161675Y533412D01*
X161787Y533494D01*
X161902Y533572D01*
X161915Y533587D01*
X161932Y533599D01*
X162021Y533706D01*
X162112Y533810D01*
X162121Y533828D01*
X162135Y533844D01*
X162194Y533970D01*
X162257Y534093D01*
X162261Y534113D01*
X162270Y534132D01*
X162296Y534269D01*
X162326Y534404D01*
X162326Y534424D01*
X162330Y534445D01*
X162321Y534583D01*
X162317Y534722D01*
X162311Y534741D01*
X162310Y534762D01*
X162267Y534894D01*
X162228Y535027D01*
X162218Y535045D01*
X162211Y535065D01*
X162137Y535182D01*
X162067Y535301D01*
X162048Y535323D01*
X162041Y535333D01*
X162026Y535347D01*
X161960Y535422D01*
X160119Y537263D01*
X158495Y541184D01*
X158495Y545428D01*
X160119Y549349D01*
X163121Y552351D01*
X167042Y553975D01*
X186526Y553975D01*
X190447Y552351D01*
X193449Y549349D01*
X195073Y545428D01*
X195073Y541184D01*
X193449Y537263D01*
X191629Y535443D01*
X191543Y535333D01*
X191454Y535225D01*
X191446Y535207D01*
X191434Y535192D01*
X191378Y535064D01*
X191319Y534937D01*
X191315Y534918D01*
X191308Y534900D01*
X191286Y534762D01*
X191260Y534625D01*
X191261Y534605D01*
X191258Y534586D01*
X191271Y534446D01*
X191280Y534308D01*
X191286Y534289D01*
X191287Y534269D01*
X191335Y534137D01*
X191378Y534005D01*
X191388Y533989D01*
X191395Y533970D01*
X191474Y533854D01*
X191548Y533737D01*
X191563Y533723D01*
X191574Y533707D01*
X191678Y533614D01*
X191780Y533519D01*
X191797Y533509D01*
X191812Y533496D01*
X191937Y533433D01*
X192058Y533366D01*
X192078Y533361D01*
X192095Y533352D01*
X192231Y533321D01*
X192366Y533286D01*
X192394Y533285D01*
X192406Y533282D01*
X192426Y533283D01*
X192527Y533276D01*
X242571Y533310D01*
X242689Y533325D01*
X242807Y533332D01*
X242846Y533345D01*
X242886Y533350D01*
X242997Y533394D01*
X243109Y533430D01*
X243144Y533452D01*
X243182Y533467D01*
X243278Y533537D01*
X243378Y533600D01*
X243406Y533630D01*
X243439Y533654D01*
X243515Y533746D01*
X243596Y533832D01*
X243616Y533868D01*
X243642Y533899D01*
X243692Y534007D01*
X243750Y534110D01*
X243760Y534150D01*
X243777Y534187D01*
X243799Y534304D01*
X243829Y534418D01*
X243833Y534479D01*
X243837Y534499D01*
X243835Y534520D01*
X243839Y534579D01*
X243839Y538481D01*
X252730Y538481D01*
X252848Y538496D01*
X252967Y538503D01*
X253005Y538516D01*
X253045Y538521D01*
X253156Y538564D01*
X253269Y538601D01*
X253304Y538623D01*
X253341Y538638D01*
X253437Y538708D01*
X253538Y538771D01*
X253566Y538801D01*
X253598Y538825D01*
X253674Y538916D01*
X253756Y539003D01*
X253775Y539038D01*
X253801Y539069D01*
X253852Y539177D01*
X253909Y539281D01*
X253920Y539321D01*
X253937Y539357D01*
X253959Y539474D01*
X253989Y539589D01*
X253993Y539650D01*
X253997Y539670D01*
X253995Y539690D01*
X253999Y539750D01*
X253999Y541021D01*
X254001Y541021D01*
X254001Y539750D01*
X254016Y539632D01*
X254023Y539513D01*
X254036Y539475D01*
X254041Y539435D01*
X254085Y539324D01*
X254121Y539211D01*
X254143Y539176D01*
X254158Y539139D01*
X254228Y539043D01*
X254291Y538942D01*
X254321Y538914D01*
X254345Y538881D01*
X254436Y538806D01*
X254523Y538724D01*
X254558Y538704D01*
X254590Y538679D01*
X254697Y538628D01*
X254801Y538570D01*
X254841Y538560D01*
X254877Y538543D01*
X254994Y538521D01*
X255109Y538491D01*
X255170Y538487D01*
X255190Y538483D01*
X255210Y538485D01*
X255270Y538481D01*
X264161Y538481D01*
X264161Y534594D01*
X264176Y534476D01*
X264183Y534357D01*
X264196Y534319D01*
X264201Y534279D01*
X264245Y534168D01*
X264281Y534054D01*
X264303Y534020D01*
X264318Y533983D01*
X264388Y533887D01*
X264452Y533786D01*
X264481Y533758D01*
X264504Y533726D01*
X264597Y533650D01*
X264684Y533568D01*
X264719Y533549D01*
X264749Y533523D01*
X264858Y533472D01*
X264962Y533415D01*
X265001Y533405D01*
X265037Y533388D01*
X265154Y533365D01*
X265270Y533335D01*
X265330Y533332D01*
X265349Y533328D01*
X265370Y533329D01*
X265431Y533325D01*
X293371Y533344D01*
X293489Y533359D01*
X293607Y533366D01*
X293646Y533379D01*
X293686Y533384D01*
X293797Y533428D01*
X293909Y533464D01*
X293944Y533486D01*
X293982Y533501D01*
X294078Y533571D01*
X294178Y533635D01*
X294206Y533664D01*
X294239Y533688D01*
X294315Y533780D01*
X294396Y533866D01*
X294416Y533902D01*
X294442Y533933D01*
X294492Y534041D01*
X294550Y534145D01*
X294560Y534184D01*
X294577Y534221D01*
X294599Y534338D01*
X294629Y534453D01*
X294633Y534513D01*
X294637Y534534D01*
X294635Y534554D01*
X294639Y534613D01*
X294639Y538481D01*
X303530Y538481D01*
X303648Y538496D01*
X303767Y538503D01*
X303805Y538516D01*
X303845Y538521D01*
X303956Y538564D01*
X304069Y538601D01*
X304104Y538623D01*
X304141Y538638D01*
X304237Y538708D01*
X304338Y538771D01*
X304366Y538801D01*
X304398Y538825D01*
X304474Y538916D01*
X304556Y539003D01*
X304575Y539038D01*
X304601Y539069D01*
X304652Y539177D01*
X304709Y539281D01*
X304720Y539321D01*
X304737Y539357D01*
X304759Y539474D01*
X304789Y539589D01*
X304793Y539650D01*
X304797Y539670D01*
X304795Y539690D01*
X304799Y539750D01*
X304799Y541021D01*
X304801Y541021D01*
X304801Y539750D01*
X304816Y539632D01*
X304823Y539513D01*
X304836Y539475D01*
X304841Y539435D01*
X304885Y539324D01*
X304921Y539211D01*
X304943Y539176D01*
X304958Y539139D01*
X305028Y539043D01*
X305091Y538942D01*
X305121Y538914D01*
X305145Y538881D01*
X305236Y538806D01*
X305323Y538724D01*
X305358Y538704D01*
X305390Y538679D01*
X305497Y538628D01*
X305601Y538570D01*
X305641Y538560D01*
X305677Y538543D01*
X305794Y538521D01*
X305909Y538491D01*
X305970Y538487D01*
X305990Y538483D01*
X306010Y538485D01*
X306070Y538481D01*
X314961Y538481D01*
X314961Y534629D01*
X314976Y534510D01*
X314983Y534391D01*
X314996Y534353D01*
X315001Y534313D01*
X315045Y534202D01*
X315081Y534088D01*
X315103Y534055D01*
X315118Y534017D01*
X315188Y533921D01*
X315252Y533820D01*
X315281Y533792D01*
X315304Y533760D01*
X315397Y533684D01*
X315484Y533602D01*
X315519Y533583D01*
X315549Y533557D01*
X315658Y533506D01*
X315762Y533449D01*
X315801Y533439D01*
X315837Y533422D01*
X315954Y533399D01*
X316070Y533369D01*
X316130Y533366D01*
X316149Y533362D01*
X316170Y533363D01*
X316231Y533359D01*
X366271Y533393D01*
X366389Y533408D01*
X366507Y533415D01*
X366546Y533428D01*
X366586Y533433D01*
X366697Y533477D01*
X366809Y533513D01*
X366844Y533535D01*
X366882Y533550D01*
X366978Y533620D01*
X367078Y533684D01*
X367106Y533713D01*
X367139Y533737D01*
X367215Y533829D01*
X367296Y533915D01*
X367316Y533951D01*
X367342Y533982D01*
X367392Y534090D01*
X367450Y534194D01*
X367460Y534233D01*
X367477Y534270D01*
X367499Y534387D01*
X367529Y534502D01*
X367533Y534562D01*
X367537Y534583D01*
X367535Y534603D01*
X367539Y534662D01*
X367539Y631653D01*
X367522Y631791D01*
X367509Y631930D01*
X367502Y631949D01*
X367499Y631969D01*
X367448Y632098D01*
X367401Y632229D01*
X367390Y632246D01*
X367382Y632265D01*
X367301Y632377D01*
X367223Y632492D01*
X367207Y632506D01*
X367196Y632522D01*
X367088Y632611D01*
X366984Y632703D01*
X366966Y632712D01*
X366951Y632725D01*
X366825Y632784D01*
X366701Y632847D01*
X366681Y632852D01*
X366663Y632860D01*
X366526Y632886D01*
X366391Y632917D01*
X366370Y632916D01*
X366351Y632920D01*
X366212Y632911D01*
X366073Y632907D01*
X366053Y632902D01*
X366033Y632900D01*
X365901Y632858D01*
X365767Y632819D01*
X365750Y632809D01*
X365731Y632802D01*
X365613Y632728D01*
X365493Y632657D01*
X365472Y632639D01*
X365462Y632632D01*
X365448Y632617D01*
X365373Y632551D01*
X363667Y630846D01*
X316602Y583780D01*
X314548Y582929D01*
X194429Y582929D01*
X194331Y582917D01*
X194232Y582914D01*
X194173Y582897D01*
X194113Y582889D01*
X194021Y582853D01*
X193926Y582825D01*
X193874Y582795D01*
X193818Y582772D01*
X193738Y582714D01*
X193652Y582664D01*
X193577Y582598D01*
X193560Y582586D01*
X193553Y582576D01*
X193531Y582558D01*
X190447Y579473D01*
X186526Y577849D01*
X167042Y577849D01*
X163121Y579473D01*
X160119Y582475D01*
X158495Y586396D01*
X158495Y590640D01*
X160119Y594561D01*
X163121Y597563D01*
X167042Y599187D01*
X169625Y599187D01*
X169763Y599204D01*
X169902Y599217D01*
X169921Y599224D01*
X169941Y599227D01*
X170070Y599278D01*
X170201Y599325D01*
X170218Y599336D01*
X170237Y599344D01*
X170349Y599425D01*
X170464Y599503D01*
X170478Y599519D01*
X170494Y599530D01*
X170583Y599638D01*
X170675Y599742D01*
X170684Y599760D01*
X170697Y599775D01*
X170756Y599901D01*
X170819Y600025D01*
X170824Y600045D01*
X170832Y600063D01*
X170858Y600199D01*
X170889Y600335D01*
X170888Y600356D01*
X170892Y600375D01*
X170883Y600514D01*
X170879Y600653D01*
X170874Y600673D01*
X170872Y600693D01*
X170830Y600825D01*
X170791Y600959D01*
X170781Y600976D01*
X170774Y600995D01*
X170700Y601113D01*
X170629Y601233D01*
X170611Y601254D01*
X170604Y601264D01*
X170589Y601278D01*
X170523Y601353D01*
X166685Y605192D01*
X164934Y606942D01*
X164083Y608996D01*
X164083Y678387D01*
X164071Y678486D01*
X164068Y678585D01*
X164051Y678643D01*
X164043Y678703D01*
X164007Y678795D01*
X163979Y678890D01*
X163949Y678942D01*
X163926Y678999D01*
X163868Y679079D01*
X163818Y679164D01*
X163752Y679239D01*
X163740Y679256D01*
X163730Y679264D01*
X163712Y679285D01*
X141789Y701208D01*
X141711Y701268D01*
X141638Y701336D01*
X141585Y701365D01*
X141538Y701402D01*
X141447Y701442D01*
X141360Y701490D01*
X141301Y701505D01*
X141246Y701529D01*
X141148Y701544D01*
X141052Y701569D01*
X140952Y701575D01*
X140932Y701579D01*
X140919Y701577D01*
X140891Y701579D01*
X140832Y701579D01*
X138229Y702657D01*
X136237Y704649D01*
X135159Y707252D01*
X135159Y710068D01*
X136237Y712671D01*
X138229Y714663D01*
X140832Y715741D01*
X143648Y715741D01*
X146251Y714663D01*
X148243Y712671D01*
X149321Y710068D01*
X149321Y710009D01*
X149333Y709910D01*
X149336Y709811D01*
X149353Y709753D01*
X149361Y709693D01*
X149397Y709601D01*
X149425Y709506D01*
X149455Y709454D01*
X149478Y709397D01*
X149536Y709317D01*
X149586Y709232D01*
X149652Y709157D01*
X149664Y709140D01*
X149674Y709132D01*
X149692Y709111D01*
X172659Y686144D01*
X174410Y684394D01*
X175261Y682340D01*
X175261Y612949D01*
X175273Y612850D01*
X175276Y612751D01*
X175293Y612693D01*
X175301Y612633D01*
X175337Y612541D01*
X175365Y612446D01*
X175395Y612394D01*
X175418Y612337D01*
X175476Y612257D01*
X175526Y612172D01*
X175592Y612097D01*
X175604Y612080D01*
X175614Y612072D01*
X175632Y612051D01*
X181013Y606670D01*
X181091Y606610D01*
X181164Y606542D01*
X181217Y606513D01*
X181264Y606476D01*
X181355Y606436D01*
X181442Y606388D01*
X181501Y606373D01*
X181556Y606349D01*
X181654Y606334D01*
X181750Y606309D01*
X181850Y606303D01*
X181870Y606299D01*
X181883Y606301D01*
X181911Y606299D01*
X304245Y606299D01*
X304344Y606311D01*
X304443Y606314D01*
X304501Y606331D01*
X304561Y606339D01*
X304653Y606375D01*
X304748Y606403D01*
X304800Y606433D01*
X304857Y606456D01*
X304937Y606514D01*
X305022Y606564D01*
X305097Y606630D01*
X305114Y606642D01*
X305122Y606652D01*
X305143Y606670D01*
X324240Y625767D01*
X324300Y625845D01*
X324368Y625918D01*
X324397Y625971D01*
X324434Y626018D01*
X324474Y626109D01*
X324522Y626196D01*
X324537Y626255D01*
X324561Y626310D01*
X324576Y626408D01*
X324601Y626504D01*
X324607Y626604D01*
X324611Y626624D01*
X324609Y626637D01*
X324611Y626665D01*
X324611Y661162D01*
X324596Y661280D01*
X324589Y661399D01*
X324576Y661437D01*
X324571Y661478D01*
X324528Y661588D01*
X324491Y661701D01*
X324469Y661736D01*
X324454Y661773D01*
X324385Y661869D01*
X324321Y661970D01*
X324291Y661998D01*
X324268Y662031D01*
X324176Y662107D01*
X324089Y662188D01*
X324054Y662208D01*
X324023Y662233D01*
X323915Y662284D01*
X323811Y662342D01*
X323771Y662352D01*
X323735Y662369D01*
X323618Y662391D01*
X323503Y662421D01*
X323443Y662425D01*
X323423Y662429D01*
X323402Y662427D01*
X323342Y662431D01*
X320458Y662431D01*
X316537Y664055D01*
X313535Y667057D01*
X311911Y670978D01*
X311911Y675222D01*
X313535Y679143D01*
X316537Y682145D01*
X320458Y683769D01*
X339942Y683769D01*
X343863Y682145D01*
X346865Y679143D01*
X348489Y675222D01*
X348489Y670978D01*
X346865Y667057D01*
X343863Y664055D01*
X339942Y662431D01*
X337058Y662431D01*
X336940Y662416D01*
X336821Y662409D01*
X336783Y662396D01*
X336742Y662391D01*
X336632Y662348D01*
X336519Y662311D01*
X336484Y662289D01*
X336447Y662274D01*
X336351Y662205D01*
X336250Y662141D01*
X336222Y662111D01*
X336189Y662088D01*
X336113Y661996D01*
X336032Y661909D01*
X336012Y661874D01*
X335987Y661843D01*
X335936Y661735D01*
X335878Y661631D01*
X335868Y661591D01*
X335851Y661555D01*
X335829Y661438D01*
X335799Y661323D01*
X335795Y661263D01*
X335791Y661243D01*
X335793Y661222D01*
X335789Y661162D01*
X335789Y622712D01*
X335446Y621885D01*
X335428Y621818D01*
X335400Y621754D01*
X335386Y621665D01*
X335362Y621578D01*
X335361Y621509D01*
X335350Y621440D01*
X335358Y621350D01*
X335357Y621260D01*
X335373Y621192D01*
X335380Y621123D01*
X335410Y621038D01*
X335431Y620951D01*
X335464Y620889D01*
X335487Y620824D01*
X335538Y620749D01*
X335580Y620670D01*
X335627Y620618D01*
X335666Y620561D01*
X335733Y620501D01*
X335794Y620435D01*
X335852Y620396D01*
X335904Y620350D01*
X335984Y620309D01*
X336060Y620260D01*
X336126Y620237D01*
X336188Y620205D01*
X336275Y620186D01*
X336360Y620157D01*
X336430Y620151D01*
X336498Y620136D01*
X336588Y620139D01*
X336677Y620131D01*
X336746Y620143D01*
X336816Y620145D01*
X336902Y620170D01*
X336991Y620186D01*
X337054Y620214D01*
X337121Y620234D01*
X337199Y620279D01*
X337281Y620316D01*
X337335Y620360D01*
X337395Y620395D01*
X337516Y620502D01*
X354720Y637705D01*
X354780Y637783D01*
X354848Y637856D01*
X354877Y637909D01*
X354914Y637956D01*
X354954Y638047D01*
X355002Y638134D01*
X355017Y638193D01*
X355041Y638248D01*
X355056Y638346D01*
X355081Y638442D01*
X355087Y638542D01*
X355091Y638562D01*
X355089Y638575D01*
X355091Y638603D01*
X355091Y728171D01*
X355079Y728270D01*
X355076Y728369D01*
X355059Y728427D01*
X355051Y728487D01*
X355015Y728579D01*
X354987Y728674D01*
X354957Y728726D01*
X354934Y728783D01*
X354876Y728863D01*
X354826Y728948D01*
X354760Y729023D01*
X354748Y729040D01*
X354738Y729048D01*
X354720Y729069D01*
X344229Y739559D01*
X344206Y739577D01*
X344187Y739600D01*
X344081Y739674D01*
X343978Y739754D01*
X343951Y739766D01*
X343927Y739783D01*
X343806Y739829D01*
X343686Y739880D01*
X343657Y739885D01*
X343629Y739895D01*
X343500Y739910D01*
X343372Y739930D01*
X343343Y739927D01*
X343313Y739931D01*
X343185Y739913D01*
X343056Y739900D01*
X343028Y739890D01*
X342998Y739886D01*
X342846Y739834D01*
X339942Y738631D01*
X320458Y738631D01*
X316537Y740255D01*
X313535Y743257D01*
X311911Y747178D01*
X311911Y751422D01*
X313535Y755343D01*
X316537Y758345D01*
X320458Y759969D01*
X339942Y759969D01*
X343863Y758345D01*
X346865Y755343D01*
X348527Y751330D01*
X348529Y751317D01*
X348565Y751225D01*
X348593Y751130D01*
X348623Y751078D01*
X348646Y751021D01*
X348704Y750941D01*
X348754Y750856D01*
X348820Y750781D01*
X348832Y750764D01*
X348842Y750756D01*
X348860Y750735D01*
X365373Y734223D01*
X365482Y734138D01*
X365589Y734049D01*
X365608Y734041D01*
X365624Y734028D01*
X365752Y733973D01*
X365877Y733914D01*
X365897Y733910D01*
X365916Y733902D01*
X366054Y733880D01*
X366190Y733854D01*
X366210Y733855D01*
X366230Y733852D01*
X366369Y733865D01*
X366507Y733874D01*
X366526Y733880D01*
X366546Y733882D01*
X366678Y733929D01*
X366809Y733972D01*
X366827Y733983D01*
X366846Y733989D01*
X366961Y734067D01*
X367078Y734142D01*
X367092Y734157D01*
X367109Y734168D01*
X367201Y734272D01*
X367296Y734373D01*
X367306Y734391D01*
X367319Y734406D01*
X367383Y734530D01*
X367450Y734652D01*
X367455Y734672D01*
X367464Y734690D01*
X367494Y734825D01*
X367529Y734960D01*
X367531Y734988D01*
X367534Y735000D01*
X367533Y735020D01*
X367539Y735121D01*
X367539Y808882D01*
X367524Y809001D01*
X367517Y809120D01*
X367504Y809158D01*
X367499Y809198D01*
X367455Y809309D01*
X367419Y809423D01*
X367397Y809456D01*
X367382Y809494D01*
X367312Y809590D01*
X367248Y809691D01*
X367219Y809718D01*
X367196Y809751D01*
X367103Y809827D01*
X367016Y809909D01*
X366981Y809928D01*
X366951Y809954D01*
X366842Y810005D01*
X366738Y810062D01*
X366699Y810072D01*
X366663Y810089D01*
X366546Y810112D01*
X366430Y810141D01*
X366370Y810145D01*
X366351Y810149D01*
X366330Y810148D01*
X366269Y810152D01*
X11429Y809913D01*
X11311Y809898D01*
X11193Y809891D01*
X11154Y809878D01*
X11114Y809873D01*
X11003Y809829D01*
X10891Y809793D01*
X10856Y809771D01*
X10818Y809756D01*
X10722Y809686D01*
X10622Y809622D01*
X10594Y809593D01*
X10561Y809569D01*
X10485Y809477D01*
X10404Y809391D01*
X10384Y809355D01*
X10358Y809324D01*
X10308Y809216D01*
X10250Y809112D01*
X10240Y809073D01*
X10223Y809036D01*
X10201Y808919D01*
X10171Y808804D01*
X10167Y808744D01*
X10163Y808723D01*
X10165Y808703D01*
X10161Y808644D01*
X10161Y534424D01*
X10176Y534305D01*
X10183Y534186D01*
X10196Y534148D01*
X10201Y534108D01*
X10245Y533997D01*
X10281Y533883D01*
X10303Y533850D01*
X10318Y533812D01*
X10388Y533716D01*
X10452Y533615D01*
X10481Y533588D01*
X10504Y533555D01*
X10597Y533479D01*
X10684Y533397D01*
X10719Y533378D01*
X10749Y533352D01*
X10858Y533301D01*
X10962Y533244D01*
X11001Y533234D01*
X11037Y533217D01*
X11154Y533194D01*
X11270Y533165D01*
X11330Y533161D01*
X11349Y533157D01*
X11370Y533158D01*
X11431Y533154D01*
X96083Y533211D01*
G37*
%LPC*%
G36*
X79618Y695737D02*
X79618Y695737D01*
X77015Y696815D01*
X75023Y698807D01*
X73945Y701410D01*
X73945Y701469D01*
X73933Y701568D01*
X73930Y701667D01*
X73913Y701725D01*
X73905Y701785D01*
X73869Y701877D01*
X73841Y701972D01*
X73811Y702024D01*
X73788Y702081D01*
X73730Y702161D01*
X73680Y702246D01*
X73614Y702321D01*
X73602Y702338D01*
X73592Y702346D01*
X73574Y702367D01*
X73213Y702728D01*
X71462Y704478D01*
X70611Y706532D01*
X70611Y719073D01*
X70603Y719142D01*
X70604Y719212D01*
X70583Y719299D01*
X70571Y719388D01*
X70546Y719453D01*
X70529Y719521D01*
X70487Y719600D01*
X70454Y719684D01*
X70413Y719740D01*
X70381Y719802D01*
X70320Y719868D01*
X70268Y719941D01*
X70214Y719986D01*
X70167Y720037D01*
X70092Y720087D01*
X70023Y720144D01*
X69959Y720174D01*
X69901Y720212D01*
X69816Y720241D01*
X69735Y720280D01*
X69666Y720293D01*
X69600Y720315D01*
X69511Y720322D01*
X69423Y720339D01*
X69353Y720335D01*
X69283Y720341D01*
X69195Y720325D01*
X69105Y720320D01*
X69039Y720298D01*
X68970Y720286D01*
X68888Y720249D01*
X68803Y720222D01*
X68744Y720184D01*
X68680Y720156D01*
X68610Y720099D01*
X68534Y720051D01*
X68486Y720001D01*
X68432Y719957D01*
X68377Y719885D01*
X68316Y719820D01*
X68282Y719759D01*
X68240Y719703D01*
X68169Y719558D01*
X67465Y717857D01*
X64463Y714855D01*
X60542Y713231D01*
X41058Y713231D01*
X37137Y714855D01*
X34135Y717857D01*
X32511Y721778D01*
X32511Y726022D01*
X34135Y729943D01*
X37137Y732945D01*
X41058Y734569D01*
X60542Y734569D01*
X64463Y732945D01*
X67465Y729943D01*
X68169Y728242D01*
X68204Y728181D01*
X68230Y728116D01*
X68282Y728043D01*
X68327Y727965D01*
X68375Y727915D01*
X68416Y727859D01*
X68486Y727801D01*
X68548Y727737D01*
X68608Y727701D01*
X68661Y727656D01*
X68743Y727618D01*
X68819Y727571D01*
X68886Y727550D01*
X68949Y727520D01*
X69037Y727504D01*
X69123Y727477D01*
X69193Y727474D01*
X69262Y727461D01*
X69351Y727466D01*
X69441Y727462D01*
X69509Y727476D01*
X69579Y727480D01*
X69664Y727508D01*
X69752Y727526D01*
X69815Y727557D01*
X69881Y727578D01*
X69957Y727626D01*
X70038Y727666D01*
X70091Y727711D01*
X70150Y727749D01*
X70212Y727814D01*
X70280Y727872D01*
X70320Y727929D01*
X70368Y727980D01*
X70411Y728059D01*
X70463Y728132D01*
X70488Y728198D01*
X70522Y728259D01*
X70544Y728346D01*
X70576Y728430D01*
X70584Y728499D01*
X70601Y728567D01*
X70611Y728727D01*
X70611Y736807D01*
X70599Y736906D01*
X70596Y737005D01*
X70579Y737063D01*
X70571Y737123D01*
X70535Y737215D01*
X70507Y737310D01*
X70477Y737362D01*
X70454Y737419D01*
X70396Y737499D01*
X70346Y737584D01*
X70280Y737659D01*
X70268Y737676D01*
X70258Y737684D01*
X70240Y737705D01*
X66974Y740971D01*
X66884Y741040D01*
X66854Y741068D01*
X66848Y741072D01*
X66790Y741123D01*
X66754Y741141D01*
X66722Y741166D01*
X66613Y741213D01*
X66507Y741267D01*
X66468Y741276D01*
X66430Y741292D01*
X66313Y741311D01*
X66197Y741337D01*
X66156Y741336D01*
X66116Y741342D01*
X65998Y741331D01*
X65879Y741327D01*
X65840Y741316D01*
X65800Y741312D01*
X65688Y741272D01*
X65573Y741239D01*
X65539Y741218D01*
X65500Y741204D01*
X65402Y741138D01*
X65299Y741077D01*
X65254Y741037D01*
X65237Y741026D01*
X65224Y741011D01*
X65179Y740971D01*
X64463Y740255D01*
X60542Y738631D01*
X41058Y738631D01*
X37137Y740255D01*
X34135Y743257D01*
X32511Y747178D01*
X32511Y751422D01*
X34135Y755343D01*
X37137Y758345D01*
X41058Y759969D01*
X60542Y759969D01*
X64463Y758345D01*
X67477Y755331D01*
X67499Y755292D01*
X67540Y755202D01*
X67578Y755154D01*
X67608Y755102D01*
X67677Y755031D01*
X67739Y754953D01*
X67787Y754917D01*
X67829Y754873D01*
X67913Y754822D01*
X67993Y754762D01*
X68083Y754718D01*
X68100Y754707D01*
X68112Y754703D01*
X68137Y754691D01*
X69714Y754038D01*
X71464Y752287D01*
X80938Y742814D01*
X81789Y740760D01*
X81789Y711014D01*
X81792Y710985D01*
X81790Y710956D01*
X81812Y710827D01*
X81829Y710699D01*
X81839Y710671D01*
X81844Y710642D01*
X81898Y710524D01*
X81946Y710403D01*
X81963Y710379D01*
X81975Y710352D01*
X82056Y710251D01*
X82132Y710146D01*
X82155Y710127D01*
X82174Y710104D01*
X82277Y710026D01*
X82377Y709943D01*
X82404Y709930D01*
X82428Y709913D01*
X82572Y709842D01*
X85037Y708821D01*
X87029Y706829D01*
X88107Y704226D01*
X88107Y701410D01*
X87029Y698807D01*
X85037Y696815D01*
X82434Y695737D01*
X79618Y695737D01*
G37*
%LPD*%
%LPC*%
G36*
X41058Y662431D02*
X41058Y662431D01*
X37137Y664055D01*
X34135Y667057D01*
X32511Y670978D01*
X32511Y675222D01*
X34135Y679143D01*
X37137Y682145D01*
X41058Y683769D01*
X60542Y683769D01*
X64463Y682145D01*
X67547Y679060D01*
X67626Y679000D01*
X67698Y678932D01*
X67751Y678903D01*
X67799Y678866D01*
X67890Y678826D01*
X67976Y678778D01*
X68035Y678763D01*
X68090Y678739D01*
X68188Y678724D01*
X68284Y678699D01*
X68384Y678693D01*
X68405Y678689D01*
X68417Y678691D01*
X68445Y678689D01*
X134827Y678689D01*
X134926Y678701D01*
X135025Y678704D01*
X135083Y678721D01*
X135143Y678729D01*
X135235Y678765D01*
X135330Y678793D01*
X135382Y678823D01*
X135439Y678846D01*
X135519Y678904D01*
X135604Y678954D01*
X135679Y679020D01*
X135696Y679032D01*
X135704Y679042D01*
X135725Y679060D01*
X136862Y680197D01*
X136867Y680205D01*
X136875Y680211D01*
X136966Y680331D01*
X137057Y680449D01*
X137060Y680457D01*
X137066Y680465D01*
X137137Y680609D01*
X137634Y681810D01*
X139626Y683802D01*
X142229Y684880D01*
X145045Y684880D01*
X147648Y683802D01*
X149640Y681810D01*
X150718Y679207D01*
X150718Y676391D01*
X149640Y673788D01*
X147648Y671796D01*
X145045Y670718D01*
X143716Y670718D01*
X143617Y670706D01*
X143518Y670703D01*
X143460Y670686D01*
X143400Y670678D01*
X143308Y670642D01*
X143213Y670614D01*
X143161Y670584D01*
X143104Y670561D01*
X143024Y670503D01*
X142939Y670453D01*
X142864Y670387D01*
X142847Y670375D01*
X142839Y670365D01*
X142818Y670347D01*
X140834Y668362D01*
X138780Y667511D01*
X68445Y667511D01*
X68347Y667499D01*
X68248Y667496D01*
X68189Y667479D01*
X68129Y667471D01*
X68037Y667435D01*
X67942Y667407D01*
X67890Y667377D01*
X67834Y667354D01*
X67753Y667296D01*
X67668Y667246D01*
X67593Y667180D01*
X67576Y667168D01*
X67568Y667158D01*
X67547Y667140D01*
X64463Y664055D01*
X60542Y662431D01*
X41058Y662431D01*
G37*
%LPD*%
%LPC*%
G36*
X320458Y764031D02*
X320458Y764031D01*
X316537Y765655D01*
X313535Y768657D01*
X311911Y772578D01*
X311911Y776822D01*
X313535Y780743D01*
X316537Y783745D01*
X320458Y785369D01*
X339942Y785369D01*
X343863Y783745D01*
X346865Y780743D01*
X348489Y776822D01*
X348489Y772578D01*
X346865Y768657D01*
X343863Y765655D01*
X339942Y764031D01*
X320458Y764031D01*
G37*
%LPD*%
%LPC*%
G36*
X320458Y713231D02*
X320458Y713231D01*
X316537Y714855D01*
X313535Y717857D01*
X311911Y721778D01*
X311911Y726022D01*
X313535Y729943D01*
X316537Y732945D01*
X320458Y734569D01*
X339942Y734569D01*
X343863Y732945D01*
X346865Y729943D01*
X348489Y726022D01*
X348489Y721778D01*
X346865Y717857D01*
X343863Y714855D01*
X339942Y713231D01*
X320458Y713231D01*
G37*
%LPD*%
%LPC*%
G36*
X320458Y687831D02*
X320458Y687831D01*
X316537Y689455D01*
X313535Y692457D01*
X311911Y696378D01*
X311911Y700622D01*
X313535Y704543D01*
X316537Y707545D01*
X320458Y709169D01*
X339942Y709169D01*
X343863Y707545D01*
X346865Y704543D01*
X348489Y700622D01*
X348489Y696378D01*
X346865Y692457D01*
X343863Y689455D01*
X339942Y687831D01*
X320458Y687831D01*
G37*
%LPD*%
%LPC*%
G36*
X41058Y687831D02*
X41058Y687831D01*
X37137Y689455D01*
X34135Y692457D01*
X32511Y696378D01*
X32511Y700622D01*
X34135Y704543D01*
X37137Y707545D01*
X41058Y709169D01*
X60542Y709169D01*
X64463Y707545D01*
X67465Y704543D01*
X69089Y700622D01*
X69089Y696378D01*
X67465Y692457D01*
X64463Y689455D01*
X60542Y687831D01*
X41058Y687831D01*
G37*
%LPD*%
%LPC*%
G36*
X102018Y577849D02*
X102018Y577849D01*
X98097Y579473D01*
X95095Y582475D01*
X93471Y586396D01*
X93471Y590640D01*
X95095Y594561D01*
X98097Y597563D01*
X102018Y599187D01*
X121502Y599187D01*
X125423Y597563D01*
X128425Y594561D01*
X130049Y590640D01*
X130049Y586396D01*
X128425Y582475D01*
X125423Y579473D01*
X121502Y577849D01*
X102018Y577849D01*
G37*
%LPD*%
%LPC*%
G36*
X307339Y543559D02*
X307339Y543559D01*
X307339Y563881D01*
X312754Y563881D01*
X313401Y563708D01*
X313980Y563373D01*
X314453Y562900D01*
X314788Y562321D01*
X314961Y561674D01*
X314961Y543559D01*
X307339Y543559D01*
G37*
%LPD*%
%LPC*%
G36*
X256539Y543559D02*
X256539Y543559D01*
X256539Y563881D01*
X261954Y563881D01*
X262601Y563708D01*
X263180Y563373D01*
X263653Y562900D01*
X263988Y562321D01*
X264161Y561674D01*
X264161Y543559D01*
X256539Y543559D01*
G37*
%LPD*%
%LPC*%
G36*
X294639Y543559D02*
X294639Y543559D01*
X294639Y561674D01*
X294812Y562321D01*
X295147Y562900D01*
X295620Y563373D01*
X296199Y563708D01*
X296846Y563881D01*
X302261Y563881D01*
X302261Y543559D01*
X294639Y543559D01*
G37*
%LPD*%
%LPC*%
G36*
X243839Y543559D02*
X243839Y543559D01*
X243839Y561674D01*
X244012Y562321D01*
X244347Y562900D01*
X244820Y563373D01*
X245399Y563708D01*
X246046Y563881D01*
X251461Y563881D01*
X251461Y543559D01*
X243839Y543559D01*
G37*
%LPD*%
%LPC*%
G36*
X53339Y777239D02*
X53339Y777239D01*
X53339Y784861D01*
X59220Y784861D01*
X60799Y784611D01*
X62320Y784116D01*
X63745Y783390D01*
X65039Y782450D01*
X66170Y781319D01*
X67110Y780025D01*
X67836Y778600D01*
X68279Y777239D01*
X53339Y777239D01*
G37*
%LPD*%
%LPC*%
G36*
X33321Y777239D02*
X33321Y777239D01*
X33764Y778600D01*
X34490Y780025D01*
X35430Y781319D01*
X36561Y782450D01*
X37855Y783390D01*
X39280Y784116D01*
X40801Y784611D01*
X42380Y784861D01*
X48261Y784861D01*
X48261Y777239D01*
X33321Y777239D01*
G37*
%LPD*%
%LPC*%
G36*
X53339Y764539D02*
X53339Y764539D01*
X53339Y772161D01*
X68279Y772161D01*
X67836Y770800D01*
X67110Y769375D01*
X66170Y768081D01*
X65039Y766950D01*
X63745Y766010D01*
X62320Y765284D01*
X60799Y764789D01*
X59220Y764539D01*
X53339Y764539D01*
G37*
%LPD*%
%LPC*%
G36*
X42380Y764539D02*
X42380Y764539D01*
X40801Y764789D01*
X39280Y765284D01*
X37855Y766010D01*
X37244Y766453D01*
X36561Y766950D01*
X35430Y768081D01*
X34490Y769375D01*
X33764Y770800D01*
X33321Y772161D01*
X48261Y772161D01*
X48261Y764539D01*
X42380Y764539D01*
G37*
%LPD*%
%LPC*%
G36*
X50799Y774699D02*
X50799Y774699D01*
X50799Y774701D01*
X50801Y774701D01*
X50801Y774699D01*
X50799Y774699D01*
G37*
%LPD*%
D10*
X322580Y774700D02*
X337820Y774700D01*
X337820Y749300D02*
X322580Y749300D01*
X322580Y723900D02*
X337820Y723900D01*
X337820Y698500D02*
X322580Y698500D01*
X322580Y673100D02*
X337820Y673100D01*
X58420Y673100D02*
X43180Y673100D01*
X43180Y698500D02*
X58420Y698500D01*
X58420Y723900D02*
X43180Y723900D01*
X43180Y749300D02*
X58420Y749300D01*
X58420Y774700D02*
X43180Y774700D01*
X104140Y588518D02*
X119380Y588518D01*
X119380Y543306D02*
X104140Y543306D01*
X169164Y588518D02*
X184404Y588518D01*
X184404Y543306D02*
X169164Y543306D01*
D11*
X254000Y541020D03*
X304800Y541020D03*
D12*
X137668Y673100D02*
X50800Y673100D01*
X137668Y673100D02*
X143002Y678434D01*
X143637Y677799D01*
D13*
X143637Y677799D03*
X81026Y702818D03*
D12*
X76200Y707644D01*
X76200Y739648D01*
X66548Y749300D01*
X50800Y749300D01*
X330200Y673100D02*
X330200Y623824D01*
X307086Y600710D01*
X179070Y600710D01*
X169672Y681228D02*
X142240Y708660D01*
D13*
X142240Y708660D03*
D12*
X169672Y610108D02*
X179070Y600710D01*
X169672Y610108D02*
X169672Y681228D01*
X176784Y588518D02*
X313436Y588518D01*
X360680Y635762D01*
X360680Y731012D01*
X342392Y749300D02*
X330200Y749300D01*
X342392Y749300D02*
X360680Y731012D01*
M02*
