G04 EAGLE Gerber RS-274X export*
G75*
%MOMM*%
%FSLAX34Y34*%
%LPD*%
%INSilkscreen Top*%
%IPPOS*%
%AMOC8*
5,1,8,0,0,1.08239X$1,22.5*%
G01*
%ADD10C,0.152400*%
%ADD11C,0.127000*%
%ADD12C,0.050800*%
%ADD13C,0.200000*%
%ADD14C,0.101600*%
%ADD15C,0.177800*%


D10*
X130302Y806958D02*
X130302Y790702D01*
X137527Y790702D01*
X143159Y794314D02*
X143159Y797927D01*
X143160Y797927D02*
X143162Y798046D01*
X143168Y798166D01*
X143178Y798285D01*
X143192Y798403D01*
X143209Y798522D01*
X143231Y798639D01*
X143256Y798756D01*
X143286Y798871D01*
X143319Y798986D01*
X143356Y799100D01*
X143396Y799212D01*
X143441Y799323D01*
X143489Y799432D01*
X143540Y799540D01*
X143595Y799646D01*
X143654Y799750D01*
X143716Y799852D01*
X143781Y799952D01*
X143850Y800050D01*
X143922Y800146D01*
X143997Y800239D01*
X144074Y800329D01*
X144155Y800417D01*
X144239Y800502D01*
X144326Y800584D01*
X144415Y800664D01*
X144507Y800740D01*
X144601Y800814D01*
X144698Y800884D01*
X144796Y800951D01*
X144897Y801015D01*
X145001Y801075D01*
X145106Y801132D01*
X145213Y801185D01*
X145321Y801235D01*
X145431Y801281D01*
X145543Y801323D01*
X145656Y801362D01*
X145770Y801397D01*
X145885Y801428D01*
X146002Y801456D01*
X146119Y801479D01*
X146236Y801499D01*
X146355Y801515D01*
X146474Y801527D01*
X146593Y801535D01*
X146712Y801539D01*
X146832Y801539D01*
X146951Y801535D01*
X147070Y801527D01*
X147189Y801515D01*
X147308Y801499D01*
X147425Y801479D01*
X147542Y801456D01*
X147659Y801428D01*
X147774Y801397D01*
X147888Y801362D01*
X148001Y801323D01*
X148113Y801281D01*
X148223Y801235D01*
X148331Y801185D01*
X148438Y801132D01*
X148543Y801075D01*
X148647Y801015D01*
X148748Y800951D01*
X148846Y800884D01*
X148943Y800814D01*
X149037Y800740D01*
X149129Y800664D01*
X149218Y800584D01*
X149305Y800502D01*
X149389Y800417D01*
X149470Y800329D01*
X149547Y800239D01*
X149622Y800146D01*
X149694Y800050D01*
X149763Y799952D01*
X149828Y799852D01*
X149890Y799750D01*
X149949Y799646D01*
X150004Y799540D01*
X150055Y799432D01*
X150103Y799323D01*
X150148Y799212D01*
X150188Y799100D01*
X150225Y798986D01*
X150258Y798871D01*
X150288Y798756D01*
X150313Y798639D01*
X150335Y798522D01*
X150352Y798403D01*
X150366Y798285D01*
X150376Y798166D01*
X150382Y798046D01*
X150384Y797927D01*
X150384Y794314D01*
X150382Y794195D01*
X150376Y794075D01*
X150366Y793956D01*
X150352Y793838D01*
X150335Y793719D01*
X150313Y793602D01*
X150288Y793485D01*
X150258Y793370D01*
X150225Y793255D01*
X150188Y793141D01*
X150148Y793029D01*
X150103Y792918D01*
X150055Y792809D01*
X150004Y792701D01*
X149949Y792595D01*
X149890Y792491D01*
X149828Y792389D01*
X149763Y792289D01*
X149694Y792191D01*
X149622Y792095D01*
X149547Y792002D01*
X149470Y791912D01*
X149389Y791824D01*
X149305Y791739D01*
X149218Y791657D01*
X149129Y791577D01*
X149037Y791501D01*
X148943Y791427D01*
X148846Y791357D01*
X148748Y791290D01*
X148647Y791226D01*
X148543Y791166D01*
X148438Y791109D01*
X148331Y791056D01*
X148223Y791006D01*
X148113Y790960D01*
X148001Y790918D01*
X147888Y790879D01*
X147774Y790844D01*
X147659Y790813D01*
X147542Y790785D01*
X147425Y790762D01*
X147308Y790742D01*
X147189Y790726D01*
X147070Y790714D01*
X146951Y790706D01*
X146832Y790702D01*
X146712Y790702D01*
X146593Y790706D01*
X146474Y790714D01*
X146355Y790726D01*
X146236Y790742D01*
X146119Y790762D01*
X146002Y790785D01*
X145885Y790813D01*
X145770Y790844D01*
X145656Y790879D01*
X145543Y790918D01*
X145431Y790960D01*
X145321Y791006D01*
X145213Y791056D01*
X145106Y791109D01*
X145001Y791166D01*
X144897Y791226D01*
X144796Y791290D01*
X144698Y791357D01*
X144601Y791427D01*
X144507Y791501D01*
X144415Y791577D01*
X144326Y791657D01*
X144239Y791739D01*
X144155Y791824D01*
X144074Y791912D01*
X143997Y792002D01*
X143922Y792095D01*
X143850Y792191D01*
X143781Y792289D01*
X143716Y792389D01*
X143654Y792491D01*
X143595Y792595D01*
X143540Y792701D01*
X143489Y792809D01*
X143441Y792918D01*
X143396Y793029D01*
X143356Y793141D01*
X143319Y793255D01*
X143286Y793370D01*
X143256Y793485D01*
X143231Y793602D01*
X143209Y793719D01*
X143192Y793838D01*
X143178Y793956D01*
X143168Y794075D01*
X143162Y794195D01*
X143160Y794314D01*
X157458Y790702D02*
X157458Y806958D01*
X161973Y806958D01*
X162106Y806956D01*
X162238Y806950D01*
X162370Y806940D01*
X162502Y806927D01*
X162634Y806909D01*
X162764Y806888D01*
X162895Y806863D01*
X163024Y806834D01*
X163152Y806801D01*
X163280Y806765D01*
X163406Y806725D01*
X163531Y806681D01*
X163655Y806633D01*
X163777Y806582D01*
X163898Y806527D01*
X164017Y806469D01*
X164135Y806407D01*
X164250Y806342D01*
X164364Y806273D01*
X164475Y806202D01*
X164584Y806126D01*
X164691Y806048D01*
X164796Y805967D01*
X164898Y805882D01*
X164998Y805795D01*
X165095Y805705D01*
X165190Y805612D01*
X165281Y805516D01*
X165370Y805418D01*
X165456Y805317D01*
X165539Y805213D01*
X165619Y805107D01*
X165695Y804999D01*
X165769Y804889D01*
X165839Y804776D01*
X165906Y804662D01*
X165969Y804545D01*
X166029Y804427D01*
X166086Y804307D01*
X166139Y804185D01*
X166188Y804062D01*
X166234Y803938D01*
X166276Y803812D01*
X166314Y803685D01*
X166349Y803557D01*
X166380Y803428D01*
X166407Y803299D01*
X166430Y803168D01*
X166450Y803037D01*
X166465Y802905D01*
X166477Y802773D01*
X166485Y802641D01*
X166489Y802508D01*
X166489Y802376D01*
X166485Y802243D01*
X166477Y802111D01*
X166465Y801979D01*
X166450Y801847D01*
X166430Y801716D01*
X166407Y801585D01*
X166380Y801456D01*
X166349Y801327D01*
X166314Y801199D01*
X166276Y801072D01*
X166234Y800946D01*
X166188Y800822D01*
X166139Y800699D01*
X166086Y800577D01*
X166029Y800457D01*
X165969Y800339D01*
X165906Y800222D01*
X165839Y800108D01*
X165769Y799995D01*
X165695Y799885D01*
X165619Y799777D01*
X165539Y799671D01*
X165456Y799567D01*
X165370Y799466D01*
X165281Y799368D01*
X165190Y799272D01*
X165095Y799179D01*
X164998Y799089D01*
X164898Y799002D01*
X164796Y798917D01*
X164691Y798836D01*
X164584Y798758D01*
X164475Y798682D01*
X164364Y798611D01*
X164250Y798542D01*
X164135Y798477D01*
X164017Y798415D01*
X163898Y798357D01*
X163777Y798302D01*
X163655Y798251D01*
X163531Y798203D01*
X163406Y798159D01*
X163280Y798119D01*
X163152Y798083D01*
X163024Y798050D01*
X162895Y798021D01*
X162764Y797996D01*
X162634Y797975D01*
X162502Y797957D01*
X162370Y797944D01*
X162238Y797934D01*
X162106Y797928D01*
X161973Y797926D01*
X161973Y797927D02*
X157458Y797927D01*
X162877Y797927D02*
X166489Y790702D01*
X175946Y797024D02*
X180010Y797024D01*
X175946Y797024D02*
X175834Y797022D01*
X175723Y797016D01*
X175612Y797006D01*
X175501Y796993D01*
X175391Y796975D01*
X175282Y796953D01*
X175173Y796928D01*
X175065Y796899D01*
X174959Y796866D01*
X174853Y796829D01*
X174749Y796789D01*
X174647Y796745D01*
X174546Y796697D01*
X174447Y796646D01*
X174349Y796591D01*
X174254Y796533D01*
X174161Y796472D01*
X174070Y796407D01*
X173981Y796339D01*
X173895Y796268D01*
X173812Y796195D01*
X173731Y796118D01*
X173652Y796038D01*
X173577Y795956D01*
X173505Y795871D01*
X173435Y795784D01*
X173369Y795694D01*
X173306Y795602D01*
X173246Y795507D01*
X173190Y795411D01*
X173137Y795313D01*
X173088Y795213D01*
X173042Y795111D01*
X173000Y795008D01*
X172961Y794903D01*
X172926Y794797D01*
X172895Y794690D01*
X172868Y794582D01*
X172844Y794473D01*
X172825Y794363D01*
X172809Y794253D01*
X172797Y794142D01*
X172789Y794030D01*
X172785Y793919D01*
X172785Y793807D01*
X172789Y793696D01*
X172797Y793584D01*
X172809Y793473D01*
X172825Y793363D01*
X172844Y793253D01*
X172868Y793144D01*
X172895Y793036D01*
X172926Y792929D01*
X172961Y792823D01*
X173000Y792718D01*
X173042Y792615D01*
X173088Y792513D01*
X173137Y792413D01*
X173190Y792315D01*
X173246Y792219D01*
X173306Y792124D01*
X173369Y792032D01*
X173435Y791942D01*
X173505Y791855D01*
X173577Y791770D01*
X173652Y791688D01*
X173731Y791608D01*
X173812Y791531D01*
X173895Y791458D01*
X173981Y791387D01*
X174070Y791319D01*
X174161Y791254D01*
X174254Y791193D01*
X174349Y791135D01*
X174447Y791080D01*
X174546Y791029D01*
X174647Y790981D01*
X174749Y790937D01*
X174853Y790897D01*
X174959Y790860D01*
X175065Y790827D01*
X175173Y790798D01*
X175282Y790773D01*
X175391Y790751D01*
X175501Y790733D01*
X175612Y790720D01*
X175723Y790710D01*
X175834Y790704D01*
X175946Y790702D01*
X180010Y790702D01*
X180010Y798830D01*
X180008Y798931D01*
X180002Y799032D01*
X179993Y799133D01*
X179980Y799234D01*
X179963Y799334D01*
X179942Y799433D01*
X179918Y799531D01*
X179890Y799628D01*
X179858Y799725D01*
X179823Y799820D01*
X179784Y799913D01*
X179742Y800005D01*
X179696Y800096D01*
X179647Y800185D01*
X179595Y800271D01*
X179539Y800356D01*
X179481Y800439D01*
X179419Y800519D01*
X179354Y800597D01*
X179287Y800673D01*
X179217Y800746D01*
X179144Y800816D01*
X179068Y800883D01*
X178990Y800948D01*
X178910Y801010D01*
X178827Y801068D01*
X178742Y801124D01*
X178656Y801176D01*
X178567Y801225D01*
X178476Y801271D01*
X178384Y801313D01*
X178291Y801352D01*
X178196Y801387D01*
X178099Y801419D01*
X178002Y801447D01*
X177904Y801471D01*
X177805Y801492D01*
X177705Y801509D01*
X177604Y801522D01*
X177503Y801531D01*
X177402Y801537D01*
X177301Y801539D01*
X173688Y801539D01*
X186441Y806958D02*
X190053Y790702D01*
X193665Y801539D01*
X197278Y790702D01*
X200890Y806958D01*
X211381Y806958D02*
X205962Y790702D01*
X216799Y790702D02*
X211381Y806958D01*
X215445Y794766D02*
X207317Y794766D01*
X223018Y790702D02*
X223018Y806958D01*
X232049Y790702D01*
X232049Y806958D01*
D11*
X55451Y635381D02*
X54378Y635381D01*
X54313Y635383D01*
X54249Y635389D01*
X54185Y635399D01*
X54121Y635412D01*
X54059Y635430D01*
X53998Y635451D01*
X53938Y635475D01*
X53880Y635504D01*
X53823Y635536D01*
X53769Y635571D01*
X53717Y635609D01*
X53667Y635651D01*
X53620Y635695D01*
X53576Y635742D01*
X53534Y635792D01*
X53496Y635844D01*
X53461Y635898D01*
X53429Y635955D01*
X53400Y636013D01*
X53376Y636073D01*
X53355Y636134D01*
X53337Y636196D01*
X53324Y636260D01*
X53314Y636324D01*
X53308Y636388D01*
X53306Y636453D01*
X53306Y639135D01*
X53308Y639200D01*
X53314Y639264D01*
X53324Y639328D01*
X53337Y639392D01*
X53355Y639454D01*
X53376Y639515D01*
X53400Y639575D01*
X53429Y639633D01*
X53461Y639690D01*
X53496Y639744D01*
X53534Y639796D01*
X53576Y639846D01*
X53620Y639893D01*
X53667Y639937D01*
X53717Y639979D01*
X53769Y640017D01*
X53823Y640052D01*
X53880Y640084D01*
X53938Y640113D01*
X53998Y640137D01*
X54059Y640158D01*
X54121Y640176D01*
X54185Y640189D01*
X54249Y640199D01*
X54313Y640205D01*
X54378Y640207D01*
X55451Y640207D01*
X57907Y639135D02*
X59247Y640207D01*
X59247Y635381D01*
X57907Y635381D02*
X60588Y635381D01*
X63393Y637794D02*
X63395Y637914D01*
X63400Y638034D01*
X63409Y638154D01*
X63422Y638274D01*
X63438Y638393D01*
X63458Y638512D01*
X63482Y638630D01*
X63509Y638747D01*
X63539Y638863D01*
X63573Y638978D01*
X63611Y639093D01*
X63652Y639206D01*
X63696Y639317D01*
X63744Y639428D01*
X63795Y639537D01*
X63796Y639537D02*
X63817Y639594D01*
X63843Y639650D01*
X63871Y639705D01*
X63903Y639757D01*
X63939Y639808D01*
X63977Y639856D01*
X64018Y639902D01*
X64062Y639945D01*
X64108Y639985D01*
X64157Y640022D01*
X64209Y640056D01*
X64262Y640087D01*
X64317Y640115D01*
X64373Y640139D01*
X64431Y640160D01*
X64490Y640177D01*
X64550Y640190D01*
X64611Y640199D01*
X64673Y640205D01*
X64734Y640207D01*
X64795Y640205D01*
X64857Y640199D01*
X64918Y640190D01*
X64978Y640177D01*
X65037Y640160D01*
X65095Y640139D01*
X65151Y640115D01*
X65206Y640087D01*
X65259Y640056D01*
X65311Y640022D01*
X65360Y639985D01*
X65406Y639945D01*
X65450Y639902D01*
X65491Y639856D01*
X65529Y639808D01*
X65565Y639757D01*
X65597Y639705D01*
X65625Y639650D01*
X65651Y639594D01*
X65672Y639537D01*
X65723Y639428D01*
X65771Y639317D01*
X65815Y639206D01*
X65856Y639093D01*
X65894Y638978D01*
X65928Y638863D01*
X65958Y638747D01*
X65985Y638630D01*
X66009Y638512D01*
X66029Y638393D01*
X66045Y638274D01*
X66058Y638154D01*
X66067Y638034D01*
X66072Y637914D01*
X66074Y637794D01*
X63393Y637794D02*
X63395Y637674D01*
X63400Y637554D01*
X63409Y637434D01*
X63422Y637314D01*
X63438Y637195D01*
X63458Y637076D01*
X63482Y636958D01*
X63509Y636841D01*
X63539Y636725D01*
X63573Y636610D01*
X63611Y636495D01*
X63652Y636382D01*
X63696Y636271D01*
X63744Y636160D01*
X63795Y636051D01*
X63796Y636051D02*
X63817Y635994D01*
X63843Y635938D01*
X63871Y635883D01*
X63903Y635831D01*
X63939Y635780D01*
X63977Y635732D01*
X64018Y635686D01*
X64062Y635643D01*
X64108Y635603D01*
X64157Y635566D01*
X64209Y635532D01*
X64262Y635501D01*
X64317Y635473D01*
X64373Y635449D01*
X64431Y635428D01*
X64490Y635411D01*
X64550Y635398D01*
X64611Y635389D01*
X64673Y635383D01*
X64734Y635381D01*
X65672Y636051D02*
X65723Y636160D01*
X65771Y636271D01*
X65815Y636382D01*
X65856Y636495D01*
X65894Y636610D01*
X65928Y636725D01*
X65958Y636841D01*
X65985Y636958D01*
X66009Y637076D01*
X66029Y637195D01*
X66045Y637314D01*
X66058Y637434D01*
X66067Y637554D01*
X66072Y637674D01*
X66074Y637794D01*
X65672Y636051D02*
X65651Y635994D01*
X65625Y635938D01*
X65597Y635883D01*
X65565Y635831D01*
X65529Y635780D01*
X65491Y635732D01*
X65450Y635686D01*
X65406Y635643D01*
X65359Y635603D01*
X65311Y635566D01*
X65259Y635532D01*
X65206Y635501D01*
X65151Y635473D01*
X65095Y635449D01*
X65037Y635428D01*
X64978Y635411D01*
X64918Y635398D01*
X64857Y635389D01*
X64795Y635383D01*
X64734Y635381D01*
X63661Y636453D02*
X65806Y639135D01*
D10*
X342900Y768350D02*
X342900Y781050D01*
X342900Y768350D02*
X336550Y762000D01*
X323850Y762000D02*
X317500Y768350D01*
X336550Y762000D02*
X342900Y755650D01*
X342900Y742950D01*
X336550Y736600D01*
X323850Y736600D02*
X317500Y742950D01*
X317500Y755650D01*
X323850Y762000D01*
X323850Y787400D02*
X336550Y787400D01*
X342900Y781050D01*
X323850Y787400D02*
X317500Y781050D01*
X317500Y768350D01*
X336550Y736600D02*
X342900Y730250D01*
X342900Y717550D01*
X336550Y711200D01*
X323850Y711200D02*
X317500Y717550D01*
X317500Y730250D01*
X323850Y736600D01*
X342900Y704850D02*
X342900Y692150D01*
X336550Y685800D01*
X323850Y685800D02*
X317500Y692150D01*
X336550Y685800D02*
X342900Y679450D01*
X342900Y666750D01*
X336550Y660400D01*
X323850Y660400D01*
X317500Y666750D01*
X317500Y679450D01*
X323850Y685800D01*
X342900Y704850D02*
X336550Y711200D01*
X323850Y711200D02*
X317500Y704850D01*
X317500Y692150D01*
D11*
X304165Y774065D02*
X301625Y777240D01*
X313055Y777240D01*
X313055Y774065D02*
X313055Y780415D01*
X358775Y676275D02*
X358775Y672465D01*
X358775Y676275D02*
X358773Y676375D01*
X358767Y676474D01*
X358757Y676574D01*
X358744Y676672D01*
X358726Y676771D01*
X358705Y676868D01*
X358680Y676964D01*
X358651Y677060D01*
X358618Y677154D01*
X358582Y677247D01*
X358542Y677338D01*
X358498Y677428D01*
X358451Y677516D01*
X358401Y677602D01*
X358347Y677686D01*
X358290Y677768D01*
X358230Y677847D01*
X358166Y677925D01*
X358100Y677999D01*
X358031Y678071D01*
X357959Y678140D01*
X357885Y678206D01*
X357807Y678270D01*
X357728Y678330D01*
X357646Y678387D01*
X357562Y678441D01*
X357476Y678491D01*
X357388Y678538D01*
X357298Y678582D01*
X357207Y678622D01*
X357114Y678658D01*
X357020Y678691D01*
X356924Y678720D01*
X356828Y678745D01*
X356731Y678766D01*
X356632Y678784D01*
X356534Y678797D01*
X356434Y678807D01*
X356335Y678813D01*
X356235Y678815D01*
X354965Y678815D01*
X354865Y678813D01*
X354766Y678807D01*
X354666Y678797D01*
X354568Y678784D01*
X354469Y678766D01*
X354372Y678745D01*
X354276Y678720D01*
X354180Y678691D01*
X354086Y678658D01*
X353993Y678622D01*
X353902Y678582D01*
X353812Y678538D01*
X353724Y678491D01*
X353638Y678441D01*
X353554Y678387D01*
X353472Y678330D01*
X353393Y678270D01*
X353315Y678206D01*
X353241Y678140D01*
X353169Y678071D01*
X353100Y677999D01*
X353034Y677925D01*
X352970Y677847D01*
X352910Y677768D01*
X352853Y677686D01*
X352799Y677602D01*
X352749Y677516D01*
X352702Y677428D01*
X352658Y677338D01*
X352618Y677247D01*
X352582Y677154D01*
X352549Y677060D01*
X352520Y676964D01*
X352495Y676868D01*
X352474Y676771D01*
X352456Y676672D01*
X352443Y676574D01*
X352433Y676474D01*
X352427Y676375D01*
X352425Y676275D01*
X352425Y672465D01*
X347345Y672465D01*
X347345Y678815D01*
X347345Y698964D02*
X358775Y698964D01*
X347345Y698964D02*
X347345Y702139D01*
X347347Y702250D01*
X347353Y702360D01*
X347362Y702471D01*
X347376Y702581D01*
X347393Y702690D01*
X347414Y702799D01*
X347439Y702907D01*
X347468Y703014D01*
X347500Y703120D01*
X347536Y703225D01*
X347576Y703328D01*
X347619Y703430D01*
X347666Y703531D01*
X347717Y703630D01*
X347770Y703727D01*
X347827Y703821D01*
X347888Y703914D01*
X347951Y704005D01*
X348018Y704094D01*
X348088Y704180D01*
X348161Y704263D01*
X348236Y704345D01*
X348314Y704423D01*
X348396Y704498D01*
X348479Y704571D01*
X348565Y704641D01*
X348654Y704708D01*
X348745Y704771D01*
X348838Y704832D01*
X348933Y704889D01*
X349029Y704942D01*
X349128Y704993D01*
X349229Y705040D01*
X349331Y705083D01*
X349434Y705123D01*
X349539Y705159D01*
X349645Y705191D01*
X349752Y705220D01*
X349860Y705245D01*
X349969Y705266D01*
X350078Y705283D01*
X350188Y705297D01*
X350299Y705306D01*
X350409Y705312D01*
X350520Y705314D01*
X350631Y705312D01*
X350741Y705306D01*
X350852Y705297D01*
X350962Y705283D01*
X351071Y705266D01*
X351180Y705245D01*
X351288Y705220D01*
X351395Y705191D01*
X351501Y705159D01*
X351606Y705123D01*
X351709Y705083D01*
X351811Y705040D01*
X351912Y704993D01*
X352011Y704942D01*
X352108Y704889D01*
X352202Y704832D01*
X352295Y704771D01*
X352386Y704708D01*
X352475Y704641D01*
X352561Y704571D01*
X352644Y704498D01*
X352726Y704423D01*
X352804Y704345D01*
X352879Y704263D01*
X352952Y704180D01*
X353022Y704094D01*
X353089Y704005D01*
X353152Y703914D01*
X353213Y703821D01*
X353270Y703727D01*
X353323Y703630D01*
X353374Y703531D01*
X353421Y703430D01*
X353464Y703328D01*
X353504Y703225D01*
X353540Y703120D01*
X353572Y703014D01*
X353601Y702907D01*
X353626Y702799D01*
X353647Y702690D01*
X353664Y702581D01*
X353678Y702471D01*
X353687Y702360D01*
X353693Y702250D01*
X353695Y702139D01*
X353695Y698964D01*
X353695Y702774D02*
X358775Y705314D01*
X358775Y710717D02*
X347345Y710717D01*
X347345Y715797D01*
X352425Y715797D02*
X352425Y710717D01*
X347345Y720725D02*
X358775Y720725D01*
X353695Y724535D02*
X347345Y720725D01*
X353695Y724535D02*
X347345Y728345D01*
X358775Y728345D01*
X353695Y736473D02*
X353695Y740283D01*
X353695Y736473D02*
X353693Y736373D01*
X353687Y736274D01*
X353677Y736174D01*
X353664Y736076D01*
X353646Y735977D01*
X353625Y735880D01*
X353600Y735784D01*
X353571Y735688D01*
X353538Y735594D01*
X353502Y735501D01*
X353462Y735410D01*
X353418Y735320D01*
X353371Y735232D01*
X353321Y735146D01*
X353267Y735062D01*
X353210Y734980D01*
X353150Y734901D01*
X353086Y734823D01*
X353020Y734749D01*
X352951Y734677D01*
X352879Y734608D01*
X352805Y734542D01*
X352727Y734478D01*
X352648Y734418D01*
X352566Y734361D01*
X352482Y734307D01*
X352396Y734257D01*
X352308Y734210D01*
X352218Y734166D01*
X352127Y734126D01*
X352034Y734090D01*
X351940Y734057D01*
X351844Y734028D01*
X351748Y734003D01*
X351651Y733982D01*
X351552Y733964D01*
X351454Y733951D01*
X351354Y733941D01*
X351255Y733935D01*
X351155Y733933D01*
X350520Y733933D01*
X350409Y733935D01*
X350299Y733941D01*
X350188Y733950D01*
X350078Y733964D01*
X349969Y733981D01*
X349860Y734002D01*
X349752Y734027D01*
X349645Y734056D01*
X349539Y734088D01*
X349434Y734124D01*
X349331Y734164D01*
X349229Y734207D01*
X349128Y734254D01*
X349029Y734305D01*
X348933Y734358D01*
X348838Y734415D01*
X348745Y734476D01*
X348654Y734539D01*
X348565Y734606D01*
X348479Y734676D01*
X348396Y734749D01*
X348314Y734824D01*
X348236Y734902D01*
X348161Y734984D01*
X348088Y735067D01*
X348018Y735153D01*
X347951Y735242D01*
X347888Y735333D01*
X347827Y735426D01*
X347770Y735521D01*
X347717Y735617D01*
X347666Y735716D01*
X347619Y735817D01*
X347576Y735919D01*
X347536Y736022D01*
X347500Y736127D01*
X347468Y736233D01*
X347439Y736340D01*
X347414Y736448D01*
X347393Y736557D01*
X347376Y736666D01*
X347362Y736776D01*
X347353Y736887D01*
X347347Y736997D01*
X347345Y737108D01*
X347347Y737219D01*
X347353Y737329D01*
X347362Y737440D01*
X347376Y737550D01*
X347393Y737659D01*
X347414Y737768D01*
X347439Y737876D01*
X347468Y737983D01*
X347500Y738089D01*
X347536Y738194D01*
X347576Y738297D01*
X347619Y738399D01*
X347666Y738500D01*
X347717Y738599D01*
X347770Y738696D01*
X347827Y738790D01*
X347888Y738883D01*
X347951Y738974D01*
X348018Y739063D01*
X348088Y739149D01*
X348161Y739232D01*
X348236Y739314D01*
X348314Y739392D01*
X348396Y739467D01*
X348479Y739540D01*
X348565Y739610D01*
X348654Y739677D01*
X348745Y739740D01*
X348838Y739801D01*
X348933Y739858D01*
X349029Y739911D01*
X349128Y739962D01*
X349229Y740009D01*
X349331Y740052D01*
X349434Y740092D01*
X349539Y740128D01*
X349645Y740160D01*
X349752Y740189D01*
X349860Y740214D01*
X349969Y740235D01*
X350078Y740252D01*
X350188Y740266D01*
X350299Y740275D01*
X350409Y740281D01*
X350520Y740283D01*
X353695Y740283D01*
X353835Y740281D01*
X353975Y740275D01*
X354115Y740266D01*
X354254Y740252D01*
X354393Y740235D01*
X354531Y740214D01*
X354669Y740189D01*
X354806Y740160D01*
X354942Y740128D01*
X355077Y740091D01*
X355211Y740051D01*
X355344Y740008D01*
X355476Y739960D01*
X355607Y739910D01*
X355736Y739855D01*
X355863Y739797D01*
X355989Y739736D01*
X356113Y739671D01*
X356235Y739602D01*
X356355Y739531D01*
X356473Y739456D01*
X356590Y739378D01*
X356704Y739296D01*
X356815Y739212D01*
X356924Y739124D01*
X357031Y739034D01*
X357136Y738940D01*
X357237Y738844D01*
X357336Y738745D01*
X357432Y738644D01*
X357526Y738539D01*
X357616Y738432D01*
X357704Y738323D01*
X357788Y738212D01*
X357870Y738098D01*
X357948Y737981D01*
X358023Y737863D01*
X358094Y737743D01*
X358163Y737621D01*
X358228Y737497D01*
X358289Y737371D01*
X358347Y737244D01*
X358402Y737115D01*
X358452Y736984D01*
X358500Y736852D01*
X358543Y736719D01*
X358583Y736585D01*
X358620Y736450D01*
X358652Y736314D01*
X358681Y736177D01*
X358706Y736039D01*
X358727Y735901D01*
X358744Y735762D01*
X358758Y735623D01*
X358767Y735483D01*
X358773Y735343D01*
X358775Y735203D01*
X358775Y745363D02*
X358775Y749173D01*
X358773Y749273D01*
X358767Y749372D01*
X358757Y749472D01*
X358744Y749570D01*
X358726Y749669D01*
X358705Y749766D01*
X358680Y749862D01*
X358651Y749958D01*
X358618Y750052D01*
X358582Y750145D01*
X358542Y750236D01*
X358498Y750326D01*
X358451Y750414D01*
X358401Y750500D01*
X358347Y750584D01*
X358290Y750666D01*
X358230Y750745D01*
X358166Y750823D01*
X358100Y750897D01*
X358031Y750969D01*
X357959Y751038D01*
X357885Y751104D01*
X357807Y751168D01*
X357728Y751228D01*
X357646Y751285D01*
X357562Y751339D01*
X357476Y751389D01*
X357388Y751436D01*
X357298Y751480D01*
X357207Y751520D01*
X357114Y751556D01*
X357020Y751589D01*
X356924Y751618D01*
X356828Y751643D01*
X356731Y751664D01*
X356632Y751682D01*
X356534Y751695D01*
X356434Y751705D01*
X356335Y751711D01*
X356235Y751713D01*
X354965Y751713D01*
X354865Y751711D01*
X354766Y751705D01*
X354666Y751695D01*
X354568Y751682D01*
X354469Y751664D01*
X354372Y751643D01*
X354276Y751618D01*
X354180Y751589D01*
X354086Y751556D01*
X353993Y751520D01*
X353902Y751480D01*
X353812Y751436D01*
X353724Y751389D01*
X353638Y751339D01*
X353554Y751285D01*
X353472Y751228D01*
X353393Y751168D01*
X353315Y751104D01*
X353241Y751038D01*
X353169Y750969D01*
X353100Y750897D01*
X353034Y750823D01*
X352970Y750745D01*
X352910Y750666D01*
X352853Y750584D01*
X352799Y750500D01*
X352749Y750414D01*
X352702Y750326D01*
X352658Y750236D01*
X352618Y750145D01*
X352582Y750052D01*
X352549Y749958D01*
X352520Y749862D01*
X352495Y749766D01*
X352474Y749669D01*
X352456Y749570D01*
X352443Y749472D01*
X352433Y749372D01*
X352427Y749273D01*
X352425Y749173D01*
X352425Y745363D01*
X347345Y745363D01*
X347345Y751713D01*
X347345Y756412D02*
X358775Y758952D01*
X351155Y761492D01*
X358775Y764032D01*
X347345Y766572D01*
X360045Y770763D02*
X360045Y775843D01*
X349885Y780415D02*
X347345Y783590D01*
X358775Y783590D01*
X358775Y780415D02*
X358775Y786765D01*
D10*
X38100Y679450D02*
X38100Y666750D01*
X38100Y679450D02*
X44450Y685800D01*
X57150Y685800D02*
X63500Y679450D01*
X44450Y685800D02*
X38100Y692150D01*
X38100Y704850D01*
X44450Y711200D01*
X57150Y711200D02*
X63500Y704850D01*
X63500Y692150D01*
X57150Y685800D01*
X57150Y660400D02*
X44450Y660400D01*
X38100Y666750D01*
X57150Y660400D02*
X63500Y666750D01*
X63500Y679450D01*
X44450Y711200D02*
X38100Y717550D01*
X38100Y730250D01*
X44450Y736600D01*
X57150Y736600D02*
X63500Y730250D01*
X63500Y717550D01*
X57150Y711200D01*
X38100Y742950D02*
X38100Y755650D01*
X44450Y762000D01*
X57150Y762000D02*
X63500Y755650D01*
X44450Y762000D02*
X38100Y768350D01*
X38100Y781050D01*
X44450Y787400D01*
X57150Y787400D01*
X63500Y781050D01*
X63500Y768350D01*
X57150Y762000D01*
X38100Y742950D02*
X44450Y736600D01*
X57150Y736600D02*
X63500Y742950D01*
X63500Y755650D01*
D11*
X67945Y670560D02*
X70485Y667385D01*
X67945Y670560D02*
X79375Y670560D01*
X79375Y667385D02*
X79375Y673735D01*
X33655Y768985D02*
X33655Y772795D01*
X33653Y772895D01*
X33647Y772994D01*
X33637Y773094D01*
X33624Y773192D01*
X33606Y773291D01*
X33585Y773388D01*
X33560Y773484D01*
X33531Y773580D01*
X33498Y773674D01*
X33462Y773767D01*
X33422Y773858D01*
X33378Y773948D01*
X33331Y774036D01*
X33281Y774122D01*
X33227Y774206D01*
X33170Y774288D01*
X33110Y774367D01*
X33046Y774445D01*
X32980Y774519D01*
X32911Y774591D01*
X32839Y774660D01*
X32765Y774726D01*
X32687Y774790D01*
X32608Y774850D01*
X32526Y774907D01*
X32442Y774961D01*
X32356Y775011D01*
X32268Y775058D01*
X32178Y775102D01*
X32087Y775142D01*
X31994Y775178D01*
X31900Y775211D01*
X31804Y775240D01*
X31708Y775265D01*
X31611Y775286D01*
X31512Y775304D01*
X31414Y775317D01*
X31314Y775327D01*
X31215Y775333D01*
X31115Y775335D01*
X29845Y775335D01*
X29745Y775333D01*
X29646Y775327D01*
X29546Y775317D01*
X29448Y775304D01*
X29349Y775286D01*
X29252Y775265D01*
X29156Y775240D01*
X29060Y775211D01*
X28966Y775178D01*
X28873Y775142D01*
X28782Y775102D01*
X28692Y775058D01*
X28604Y775011D01*
X28518Y774961D01*
X28434Y774907D01*
X28352Y774850D01*
X28273Y774790D01*
X28195Y774726D01*
X28121Y774660D01*
X28049Y774591D01*
X27980Y774519D01*
X27914Y774445D01*
X27850Y774367D01*
X27790Y774288D01*
X27733Y774206D01*
X27679Y774122D01*
X27629Y774036D01*
X27582Y773948D01*
X27538Y773858D01*
X27498Y773767D01*
X27462Y773674D01*
X27429Y773580D01*
X27400Y773484D01*
X27375Y773388D01*
X27354Y773291D01*
X27336Y773192D01*
X27323Y773094D01*
X27313Y772994D01*
X27307Y772895D01*
X27305Y772795D01*
X27305Y768985D01*
X22225Y768985D01*
X22225Y775335D01*
X22225Y661035D02*
X33655Y661035D01*
X22225Y661035D02*
X22225Y664210D01*
X22227Y664321D01*
X22233Y664431D01*
X22242Y664542D01*
X22256Y664652D01*
X22273Y664761D01*
X22294Y664870D01*
X22319Y664978D01*
X22348Y665085D01*
X22380Y665191D01*
X22416Y665296D01*
X22456Y665399D01*
X22499Y665501D01*
X22546Y665602D01*
X22597Y665701D01*
X22650Y665798D01*
X22707Y665892D01*
X22768Y665985D01*
X22831Y666076D01*
X22898Y666165D01*
X22968Y666251D01*
X23041Y666334D01*
X23116Y666416D01*
X23194Y666494D01*
X23276Y666569D01*
X23359Y666642D01*
X23445Y666712D01*
X23534Y666779D01*
X23625Y666842D01*
X23718Y666903D01*
X23812Y666960D01*
X23909Y667013D01*
X24008Y667064D01*
X24109Y667111D01*
X24211Y667154D01*
X24314Y667194D01*
X24419Y667230D01*
X24525Y667262D01*
X24632Y667291D01*
X24740Y667316D01*
X24849Y667337D01*
X24958Y667354D01*
X25068Y667368D01*
X25179Y667377D01*
X25289Y667383D01*
X25400Y667385D01*
X25511Y667383D01*
X25621Y667377D01*
X25732Y667368D01*
X25842Y667354D01*
X25951Y667337D01*
X26060Y667316D01*
X26168Y667291D01*
X26275Y667262D01*
X26381Y667230D01*
X26486Y667194D01*
X26589Y667154D01*
X26691Y667111D01*
X26792Y667064D01*
X26891Y667013D01*
X26988Y666960D01*
X27082Y666903D01*
X27175Y666842D01*
X27266Y666779D01*
X27355Y666712D01*
X27441Y666642D01*
X27524Y666569D01*
X27606Y666494D01*
X27684Y666416D01*
X27759Y666334D01*
X27832Y666251D01*
X27902Y666165D01*
X27969Y666076D01*
X28032Y665985D01*
X28093Y665892D01*
X28150Y665798D01*
X28203Y665701D01*
X28254Y665602D01*
X28301Y665501D01*
X28344Y665399D01*
X28384Y665296D01*
X28420Y665191D01*
X28452Y665085D01*
X28481Y664978D01*
X28506Y664870D01*
X28527Y664761D01*
X28544Y664652D01*
X28558Y664542D01*
X28567Y664431D01*
X28573Y664321D01*
X28575Y664210D01*
X28575Y661035D01*
X28575Y664845D02*
X33655Y667385D01*
X33655Y672789D02*
X22225Y672789D01*
X22225Y677869D01*
X27305Y677869D02*
X27305Y672789D01*
X22225Y682796D02*
X33655Y682796D01*
X28575Y686606D02*
X22225Y682796D01*
X28575Y686606D02*
X22225Y690416D01*
X33655Y690416D01*
X28575Y698544D02*
X28575Y702354D01*
X28575Y698544D02*
X28573Y698444D01*
X28567Y698345D01*
X28557Y698245D01*
X28544Y698147D01*
X28526Y698048D01*
X28505Y697951D01*
X28480Y697855D01*
X28451Y697759D01*
X28418Y697665D01*
X28382Y697572D01*
X28342Y697481D01*
X28298Y697391D01*
X28251Y697303D01*
X28201Y697217D01*
X28147Y697133D01*
X28090Y697051D01*
X28030Y696972D01*
X27966Y696894D01*
X27900Y696820D01*
X27831Y696748D01*
X27759Y696679D01*
X27685Y696613D01*
X27607Y696549D01*
X27528Y696489D01*
X27446Y696432D01*
X27362Y696378D01*
X27276Y696328D01*
X27188Y696281D01*
X27098Y696237D01*
X27007Y696197D01*
X26914Y696161D01*
X26820Y696128D01*
X26724Y696099D01*
X26628Y696074D01*
X26531Y696053D01*
X26432Y696035D01*
X26334Y696022D01*
X26234Y696012D01*
X26135Y696006D01*
X26035Y696004D01*
X25400Y696004D01*
X25289Y696006D01*
X25179Y696012D01*
X25068Y696021D01*
X24958Y696035D01*
X24849Y696052D01*
X24740Y696073D01*
X24632Y696098D01*
X24525Y696127D01*
X24419Y696159D01*
X24314Y696195D01*
X24211Y696235D01*
X24109Y696278D01*
X24008Y696325D01*
X23909Y696376D01*
X23813Y696429D01*
X23718Y696486D01*
X23625Y696547D01*
X23534Y696610D01*
X23445Y696677D01*
X23359Y696747D01*
X23276Y696820D01*
X23194Y696895D01*
X23116Y696973D01*
X23041Y697055D01*
X22968Y697138D01*
X22898Y697224D01*
X22831Y697313D01*
X22768Y697404D01*
X22707Y697497D01*
X22650Y697592D01*
X22597Y697688D01*
X22546Y697787D01*
X22499Y697888D01*
X22456Y697990D01*
X22416Y698093D01*
X22380Y698198D01*
X22348Y698304D01*
X22319Y698411D01*
X22294Y698519D01*
X22273Y698628D01*
X22256Y698737D01*
X22242Y698847D01*
X22233Y698958D01*
X22227Y699068D01*
X22225Y699179D01*
X22227Y699290D01*
X22233Y699400D01*
X22242Y699511D01*
X22256Y699621D01*
X22273Y699730D01*
X22294Y699839D01*
X22319Y699947D01*
X22348Y700054D01*
X22380Y700160D01*
X22416Y700265D01*
X22456Y700368D01*
X22499Y700470D01*
X22546Y700571D01*
X22597Y700670D01*
X22650Y700767D01*
X22707Y700861D01*
X22768Y700954D01*
X22831Y701045D01*
X22898Y701134D01*
X22968Y701220D01*
X23041Y701303D01*
X23116Y701385D01*
X23194Y701463D01*
X23276Y701538D01*
X23359Y701611D01*
X23445Y701681D01*
X23534Y701748D01*
X23625Y701811D01*
X23718Y701872D01*
X23813Y701929D01*
X23909Y701982D01*
X24008Y702033D01*
X24109Y702080D01*
X24211Y702123D01*
X24314Y702163D01*
X24419Y702199D01*
X24525Y702231D01*
X24632Y702260D01*
X24740Y702285D01*
X24849Y702306D01*
X24958Y702323D01*
X25068Y702337D01*
X25179Y702346D01*
X25289Y702352D01*
X25400Y702354D01*
X28575Y702354D01*
X28715Y702352D01*
X28855Y702346D01*
X28995Y702337D01*
X29134Y702323D01*
X29273Y702306D01*
X29411Y702285D01*
X29549Y702260D01*
X29686Y702231D01*
X29822Y702199D01*
X29957Y702162D01*
X30091Y702122D01*
X30224Y702079D01*
X30356Y702031D01*
X30487Y701981D01*
X30616Y701926D01*
X30743Y701868D01*
X30869Y701807D01*
X30993Y701742D01*
X31115Y701673D01*
X31235Y701602D01*
X31353Y701527D01*
X31470Y701449D01*
X31584Y701367D01*
X31695Y701283D01*
X31804Y701195D01*
X31911Y701105D01*
X32016Y701011D01*
X32117Y700915D01*
X32216Y700816D01*
X32312Y700715D01*
X32406Y700610D01*
X32496Y700503D01*
X32584Y700394D01*
X32668Y700283D01*
X32750Y700169D01*
X32828Y700052D01*
X32903Y699934D01*
X32974Y699814D01*
X33043Y699692D01*
X33108Y699568D01*
X33169Y699442D01*
X33227Y699315D01*
X33282Y699186D01*
X33332Y699055D01*
X33380Y698923D01*
X33423Y698790D01*
X33463Y698656D01*
X33500Y698521D01*
X33532Y698385D01*
X33561Y698248D01*
X33586Y698110D01*
X33607Y697972D01*
X33624Y697833D01*
X33638Y697694D01*
X33647Y697554D01*
X33653Y697414D01*
X33655Y697274D01*
X33655Y707434D02*
X33655Y711244D01*
X33653Y711344D01*
X33647Y711443D01*
X33637Y711543D01*
X33624Y711641D01*
X33606Y711740D01*
X33585Y711837D01*
X33560Y711933D01*
X33531Y712029D01*
X33498Y712123D01*
X33462Y712216D01*
X33422Y712307D01*
X33378Y712397D01*
X33331Y712485D01*
X33281Y712571D01*
X33227Y712655D01*
X33170Y712737D01*
X33110Y712816D01*
X33046Y712894D01*
X32980Y712968D01*
X32911Y713040D01*
X32839Y713109D01*
X32765Y713175D01*
X32687Y713239D01*
X32608Y713299D01*
X32526Y713356D01*
X32442Y713410D01*
X32356Y713460D01*
X32268Y713507D01*
X32178Y713551D01*
X32087Y713591D01*
X31994Y713627D01*
X31900Y713660D01*
X31804Y713689D01*
X31708Y713714D01*
X31611Y713735D01*
X31512Y713753D01*
X31414Y713766D01*
X31314Y713776D01*
X31215Y713782D01*
X31115Y713784D01*
X29845Y713784D01*
X29745Y713782D01*
X29646Y713776D01*
X29546Y713766D01*
X29448Y713753D01*
X29349Y713735D01*
X29252Y713714D01*
X29156Y713689D01*
X29060Y713660D01*
X28966Y713627D01*
X28873Y713591D01*
X28782Y713551D01*
X28692Y713507D01*
X28604Y713460D01*
X28518Y713410D01*
X28434Y713356D01*
X28352Y713299D01*
X28273Y713239D01*
X28195Y713175D01*
X28121Y713109D01*
X28049Y713040D01*
X27980Y712968D01*
X27914Y712894D01*
X27850Y712816D01*
X27790Y712737D01*
X27733Y712655D01*
X27679Y712571D01*
X27629Y712485D01*
X27582Y712397D01*
X27538Y712307D01*
X27498Y712216D01*
X27462Y712123D01*
X27429Y712029D01*
X27400Y711933D01*
X27375Y711837D01*
X27354Y711740D01*
X27336Y711641D01*
X27323Y711543D01*
X27313Y711443D01*
X27307Y711344D01*
X27305Y711244D01*
X27305Y707434D01*
X22225Y707434D01*
X22225Y713784D01*
X22225Y718483D02*
X33655Y721023D01*
X26035Y723563D01*
X33655Y726103D01*
X22225Y728643D01*
X34925Y732834D02*
X34925Y737914D01*
X25083Y748837D02*
X24979Y748835D01*
X24874Y748829D01*
X24770Y748820D01*
X24667Y748807D01*
X24564Y748789D01*
X24462Y748769D01*
X24360Y748744D01*
X24260Y748716D01*
X24160Y748684D01*
X24062Y748648D01*
X23965Y748609D01*
X23870Y748567D01*
X23776Y748521D01*
X23684Y748471D01*
X23594Y748419D01*
X23506Y748363D01*
X23420Y748303D01*
X23336Y748241D01*
X23255Y748176D01*
X23176Y748108D01*
X23099Y748036D01*
X23026Y747963D01*
X22954Y747886D01*
X22886Y747807D01*
X22821Y747726D01*
X22759Y747642D01*
X22699Y747556D01*
X22643Y747468D01*
X22591Y747378D01*
X22541Y747286D01*
X22495Y747192D01*
X22453Y747097D01*
X22414Y747000D01*
X22378Y746902D01*
X22346Y746802D01*
X22318Y746702D01*
X22293Y746600D01*
X22273Y746498D01*
X22255Y746395D01*
X22242Y746292D01*
X22233Y746188D01*
X22227Y746083D01*
X22225Y745979D01*
X22227Y745861D01*
X22233Y745742D01*
X22242Y745624D01*
X22255Y745507D01*
X22273Y745390D01*
X22293Y745273D01*
X22318Y745157D01*
X22346Y745042D01*
X22379Y744929D01*
X22414Y744816D01*
X22454Y744704D01*
X22496Y744594D01*
X22543Y744485D01*
X22593Y744377D01*
X22646Y744272D01*
X22703Y744168D01*
X22763Y744066D01*
X22826Y743966D01*
X22893Y743868D01*
X22962Y743772D01*
X23035Y743679D01*
X23111Y743588D01*
X23189Y743499D01*
X23271Y743413D01*
X23355Y743330D01*
X23441Y743249D01*
X23531Y743172D01*
X23622Y743097D01*
X23716Y743025D01*
X23813Y742956D01*
X23911Y742891D01*
X24012Y742828D01*
X24115Y742769D01*
X24219Y742713D01*
X24325Y742661D01*
X24433Y742612D01*
X24542Y742567D01*
X24653Y742525D01*
X24765Y742487D01*
X27305Y747884D02*
X27230Y747960D01*
X27151Y748035D01*
X27070Y748106D01*
X26986Y748175D01*
X26900Y748240D01*
X26812Y748302D01*
X26722Y748362D01*
X26630Y748418D01*
X26535Y748471D01*
X26439Y748520D01*
X26341Y748566D01*
X26242Y748609D01*
X26141Y748648D01*
X26039Y748683D01*
X25936Y748715D01*
X25832Y748743D01*
X25727Y748768D01*
X25620Y748789D01*
X25514Y748806D01*
X25407Y748819D01*
X25299Y748828D01*
X25191Y748834D01*
X25083Y748836D01*
X27305Y747884D02*
X33655Y742486D01*
X33655Y748836D01*
D10*
X174752Y558292D02*
X177292Y558292D01*
X177292Y573532D01*
X174752Y573532D01*
X113792Y573532D02*
X111252Y573532D01*
X111252Y558292D01*
X113792Y558292D01*
D12*
X131572Y593852D02*
X131572Y596392D01*
X131572Y593852D02*
X156972Y593852D01*
X156972Y596392D01*
X155702Y537972D02*
X131572Y537972D01*
X155702Y537972D02*
X155702Y535432D01*
X131572Y535432D02*
X131572Y537972D01*
D10*
X131572Y535432D02*
X122682Y535432D01*
X156972Y596392D02*
X165862Y596392D01*
X156972Y596392D02*
X131572Y596392D01*
X122682Y596392D01*
X131572Y535432D02*
X155702Y535432D01*
X165862Y535432D01*
X174752Y555752D02*
X174752Y558292D01*
X174752Y573532D02*
X174752Y576072D01*
X113792Y558292D02*
X113792Y555752D01*
X113792Y573532D02*
X113792Y576072D01*
X126492Y565912D02*
X126497Y566348D01*
X126513Y566784D01*
X126540Y567220D01*
X126578Y567655D01*
X126626Y568088D01*
X126684Y568521D01*
X126754Y568952D01*
X126834Y569381D01*
X126924Y569808D01*
X127025Y570232D01*
X127136Y570654D01*
X127258Y571073D01*
X127389Y571489D01*
X127531Y571902D01*
X127683Y572311D01*
X127845Y572716D01*
X128017Y573117D01*
X128199Y573514D01*
X128390Y573906D01*
X128591Y574293D01*
X128802Y574676D01*
X129022Y575053D01*
X129251Y575424D01*
X129488Y575790D01*
X129735Y576150D01*
X129991Y576504D01*
X130255Y576851D01*
X130528Y577192D01*
X130809Y577525D01*
X131098Y577852D01*
X131395Y578172D01*
X131700Y578484D01*
X132012Y578789D01*
X132332Y579086D01*
X132659Y579375D01*
X132992Y579656D01*
X133333Y579929D01*
X133680Y580193D01*
X134034Y580449D01*
X134394Y580696D01*
X134760Y580933D01*
X135131Y581162D01*
X135508Y581382D01*
X135891Y581593D01*
X136278Y581794D01*
X136670Y581985D01*
X137067Y582167D01*
X137468Y582339D01*
X137873Y582501D01*
X138282Y582653D01*
X138695Y582795D01*
X139111Y582926D01*
X139530Y583048D01*
X139952Y583159D01*
X140376Y583260D01*
X140803Y583350D01*
X141232Y583430D01*
X141663Y583500D01*
X142096Y583558D01*
X142529Y583606D01*
X142964Y583644D01*
X143400Y583671D01*
X143836Y583687D01*
X144272Y583692D01*
X144708Y583687D01*
X145144Y583671D01*
X145580Y583644D01*
X146015Y583606D01*
X146448Y583558D01*
X146881Y583500D01*
X147312Y583430D01*
X147741Y583350D01*
X148168Y583260D01*
X148592Y583159D01*
X149014Y583048D01*
X149433Y582926D01*
X149849Y582795D01*
X150262Y582653D01*
X150671Y582501D01*
X151076Y582339D01*
X151477Y582167D01*
X151874Y581985D01*
X152266Y581794D01*
X152653Y581593D01*
X153036Y581382D01*
X153413Y581162D01*
X153784Y580933D01*
X154150Y580696D01*
X154510Y580449D01*
X154864Y580193D01*
X155211Y579929D01*
X155552Y579656D01*
X155885Y579375D01*
X156212Y579086D01*
X156532Y578789D01*
X156844Y578484D01*
X157149Y578172D01*
X157446Y577852D01*
X157735Y577525D01*
X158016Y577192D01*
X158289Y576851D01*
X158553Y576504D01*
X158809Y576150D01*
X159056Y575790D01*
X159293Y575424D01*
X159522Y575053D01*
X159742Y574676D01*
X159953Y574293D01*
X160154Y573906D01*
X160345Y573514D01*
X160527Y573117D01*
X160699Y572716D01*
X160861Y572311D01*
X161013Y571902D01*
X161155Y571489D01*
X161286Y571073D01*
X161408Y570654D01*
X161519Y570232D01*
X161620Y569808D01*
X161710Y569381D01*
X161790Y568952D01*
X161860Y568521D01*
X161918Y568088D01*
X161966Y567655D01*
X162004Y567220D01*
X162031Y566784D01*
X162047Y566348D01*
X162052Y565912D01*
X162047Y565476D01*
X162031Y565040D01*
X162004Y564604D01*
X161966Y564169D01*
X161918Y563736D01*
X161860Y563303D01*
X161790Y562872D01*
X161710Y562443D01*
X161620Y562016D01*
X161519Y561592D01*
X161408Y561170D01*
X161286Y560751D01*
X161155Y560335D01*
X161013Y559922D01*
X160861Y559513D01*
X160699Y559108D01*
X160527Y558707D01*
X160345Y558310D01*
X160154Y557918D01*
X159953Y557531D01*
X159742Y557148D01*
X159522Y556771D01*
X159293Y556400D01*
X159056Y556034D01*
X158809Y555674D01*
X158553Y555320D01*
X158289Y554973D01*
X158016Y554632D01*
X157735Y554299D01*
X157446Y553972D01*
X157149Y553652D01*
X156844Y553340D01*
X156532Y553035D01*
X156212Y552738D01*
X155885Y552449D01*
X155552Y552168D01*
X155211Y551895D01*
X154864Y551631D01*
X154510Y551375D01*
X154150Y551128D01*
X153784Y550891D01*
X153413Y550662D01*
X153036Y550442D01*
X152653Y550231D01*
X152266Y550030D01*
X151874Y549839D01*
X151477Y549657D01*
X151076Y549485D01*
X150671Y549323D01*
X150262Y549171D01*
X149849Y549029D01*
X149433Y548898D01*
X149014Y548776D01*
X148592Y548665D01*
X148168Y548564D01*
X147741Y548474D01*
X147312Y548394D01*
X146881Y548324D01*
X146448Y548266D01*
X146015Y548218D01*
X145580Y548180D01*
X145144Y548153D01*
X144708Y548137D01*
X144272Y548132D01*
X143836Y548137D01*
X143400Y548153D01*
X142964Y548180D01*
X142529Y548218D01*
X142096Y548266D01*
X141663Y548324D01*
X141232Y548394D01*
X140803Y548474D01*
X140376Y548564D01*
X139952Y548665D01*
X139530Y548776D01*
X139111Y548898D01*
X138695Y549029D01*
X138282Y549171D01*
X137873Y549323D01*
X137468Y549485D01*
X137067Y549657D01*
X136670Y549839D01*
X136278Y550030D01*
X135891Y550231D01*
X135508Y550442D01*
X135131Y550662D01*
X134760Y550891D01*
X134394Y551128D01*
X134034Y551375D01*
X133680Y551631D01*
X133333Y551895D01*
X132992Y552168D01*
X132659Y552449D01*
X132332Y552738D01*
X132012Y553035D01*
X131700Y553340D01*
X131395Y553652D01*
X131098Y553972D01*
X130809Y554299D01*
X130528Y554632D01*
X130255Y554973D01*
X129991Y555320D01*
X129735Y555674D01*
X129488Y556034D01*
X129251Y556400D01*
X129022Y556771D01*
X128802Y557148D01*
X128591Y557531D01*
X128390Y557918D01*
X128199Y558310D01*
X128017Y558707D01*
X127845Y559108D01*
X127683Y559513D01*
X127531Y559922D01*
X127389Y560335D01*
X127258Y560751D01*
X127136Y561170D01*
X127025Y561592D01*
X126924Y562016D01*
X126834Y562443D01*
X126754Y562872D01*
X126684Y563303D01*
X126626Y563736D01*
X126578Y564169D01*
X126540Y564604D01*
X126513Y565040D01*
X126497Y565476D01*
X126492Y565912D01*
X141732Y565912D02*
X141734Y566012D01*
X141740Y566113D01*
X141750Y566212D01*
X141764Y566312D01*
X141781Y566411D01*
X141803Y566509D01*
X141829Y566606D01*
X141858Y566702D01*
X141891Y566796D01*
X141928Y566890D01*
X141968Y566982D01*
X142012Y567072D01*
X142060Y567160D01*
X142111Y567247D01*
X142165Y567331D01*
X142223Y567413D01*
X142284Y567493D01*
X142348Y567570D01*
X142415Y567645D01*
X142485Y567717D01*
X142558Y567786D01*
X142633Y567852D01*
X142711Y567916D01*
X142791Y567976D01*
X142874Y568033D01*
X142959Y568086D01*
X143046Y568136D01*
X143135Y568183D01*
X143225Y568226D01*
X143317Y568266D01*
X143411Y568302D01*
X143506Y568334D01*
X143602Y568362D01*
X143700Y568387D01*
X143798Y568407D01*
X143897Y568424D01*
X143997Y568437D01*
X144096Y568446D01*
X144197Y568451D01*
X144297Y568452D01*
X144397Y568449D01*
X144498Y568442D01*
X144597Y568431D01*
X144697Y568416D01*
X144795Y568398D01*
X144893Y568375D01*
X144990Y568348D01*
X145085Y568318D01*
X145180Y568284D01*
X145273Y568246D01*
X145364Y568205D01*
X145454Y568160D01*
X145542Y568112D01*
X145628Y568060D01*
X145712Y568005D01*
X145793Y567946D01*
X145872Y567884D01*
X145949Y567820D01*
X146023Y567752D01*
X146094Y567681D01*
X146163Y567608D01*
X146228Y567532D01*
X146291Y567453D01*
X146350Y567372D01*
X146406Y567289D01*
X146459Y567204D01*
X146508Y567116D01*
X146554Y567027D01*
X146596Y566936D01*
X146635Y566843D01*
X146670Y566749D01*
X146701Y566654D01*
X146729Y566557D01*
X146752Y566460D01*
X146772Y566361D01*
X146788Y566262D01*
X146800Y566163D01*
X146808Y566062D01*
X146812Y565962D01*
X146812Y565862D01*
X146808Y565762D01*
X146800Y565661D01*
X146788Y565562D01*
X146772Y565463D01*
X146752Y565364D01*
X146729Y565267D01*
X146701Y565170D01*
X146670Y565075D01*
X146635Y564981D01*
X146596Y564888D01*
X146554Y564797D01*
X146508Y564708D01*
X146459Y564620D01*
X146406Y564535D01*
X146350Y564452D01*
X146291Y564371D01*
X146228Y564292D01*
X146163Y564216D01*
X146094Y564143D01*
X146023Y564072D01*
X145949Y564004D01*
X145872Y563940D01*
X145793Y563878D01*
X145712Y563819D01*
X145628Y563764D01*
X145542Y563712D01*
X145454Y563664D01*
X145364Y563619D01*
X145273Y563578D01*
X145180Y563540D01*
X145085Y563506D01*
X144990Y563476D01*
X144893Y563449D01*
X144795Y563426D01*
X144697Y563408D01*
X144597Y563393D01*
X144498Y563382D01*
X144397Y563375D01*
X144297Y563372D01*
X144197Y563373D01*
X144096Y563378D01*
X143997Y563387D01*
X143897Y563400D01*
X143798Y563417D01*
X143700Y563437D01*
X143602Y563462D01*
X143506Y563490D01*
X143411Y563522D01*
X143317Y563558D01*
X143225Y563598D01*
X143135Y563641D01*
X143046Y563688D01*
X142959Y563738D01*
X142874Y563791D01*
X142791Y563848D01*
X142711Y563908D01*
X142633Y563972D01*
X142558Y564038D01*
X142485Y564107D01*
X142415Y564179D01*
X142348Y564254D01*
X142284Y564331D01*
X142223Y564411D01*
X142165Y564493D01*
X142111Y564577D01*
X142060Y564664D01*
X142012Y564752D01*
X141968Y564842D01*
X141928Y564934D01*
X141891Y565028D01*
X141858Y565122D01*
X141829Y565218D01*
X141803Y565315D01*
X141781Y565413D01*
X141764Y565512D01*
X141750Y565612D01*
X141740Y565711D01*
X141734Y565812D01*
X141732Y565912D01*
D11*
X118237Y603377D02*
X118337Y603379D01*
X118436Y603385D01*
X118536Y603395D01*
X118634Y603408D01*
X118733Y603426D01*
X118830Y603447D01*
X118926Y603472D01*
X119022Y603501D01*
X119116Y603534D01*
X119209Y603570D01*
X119300Y603610D01*
X119390Y603654D01*
X119478Y603701D01*
X119564Y603751D01*
X119648Y603805D01*
X119730Y603862D01*
X119809Y603922D01*
X119887Y603986D01*
X119961Y604052D01*
X120033Y604121D01*
X120102Y604193D01*
X120168Y604267D01*
X120232Y604345D01*
X120292Y604424D01*
X120349Y604506D01*
X120403Y604590D01*
X120453Y604676D01*
X120500Y604764D01*
X120544Y604854D01*
X120584Y604945D01*
X120620Y605038D01*
X120653Y605132D01*
X120682Y605228D01*
X120707Y605324D01*
X120728Y605421D01*
X120746Y605520D01*
X120759Y605618D01*
X120769Y605718D01*
X120775Y605817D01*
X120777Y605917D01*
X118237Y603377D02*
X118096Y603379D01*
X117955Y603384D01*
X117814Y603394D01*
X117673Y603407D01*
X117533Y603423D01*
X117393Y603444D01*
X117254Y603468D01*
X117115Y603496D01*
X116978Y603527D01*
X116841Y603562D01*
X116705Y603600D01*
X116570Y603642D01*
X116437Y603688D01*
X116304Y603737D01*
X116173Y603790D01*
X116044Y603846D01*
X115915Y603905D01*
X115789Y603968D01*
X115664Y604034D01*
X115541Y604103D01*
X115420Y604176D01*
X115301Y604252D01*
X115183Y604331D01*
X115068Y604412D01*
X114956Y604497D01*
X114845Y604585D01*
X114737Y604676D01*
X114631Y604769D01*
X114528Y604866D01*
X114427Y604965D01*
X114745Y612267D02*
X114747Y612367D01*
X114753Y612466D01*
X114763Y612566D01*
X114776Y612664D01*
X114794Y612763D01*
X114815Y612860D01*
X114840Y612956D01*
X114869Y613052D01*
X114902Y613146D01*
X114938Y613239D01*
X114978Y613330D01*
X115022Y613420D01*
X115069Y613508D01*
X115119Y613594D01*
X115173Y613678D01*
X115230Y613760D01*
X115290Y613839D01*
X115354Y613917D01*
X115420Y613991D01*
X115489Y614063D01*
X115561Y614132D01*
X115635Y614198D01*
X115713Y614262D01*
X115792Y614322D01*
X115874Y614379D01*
X115958Y614433D01*
X116044Y614483D01*
X116132Y614530D01*
X116222Y614574D01*
X116313Y614614D01*
X116406Y614650D01*
X116500Y614683D01*
X116596Y614712D01*
X116692Y614737D01*
X116789Y614758D01*
X116888Y614776D01*
X116986Y614789D01*
X117086Y614799D01*
X117185Y614805D01*
X117285Y614807D01*
X117285Y614808D02*
X117418Y614806D01*
X117551Y614801D01*
X117684Y614791D01*
X117817Y614778D01*
X117949Y614761D01*
X118081Y614741D01*
X118212Y614717D01*
X118342Y614689D01*
X118472Y614658D01*
X118600Y614623D01*
X118728Y614584D01*
X118854Y614542D01*
X118979Y614496D01*
X119103Y614447D01*
X119226Y614395D01*
X119347Y614339D01*
X119466Y614279D01*
X119584Y614217D01*
X119699Y614151D01*
X119813Y614082D01*
X119925Y614009D01*
X120035Y613934D01*
X120143Y613855D01*
X116014Y610044D02*
X115930Y610096D01*
X115847Y610151D01*
X115767Y610210D01*
X115689Y610271D01*
X115614Y610335D01*
X115541Y610403D01*
X115470Y610473D01*
X115403Y610545D01*
X115338Y610620D01*
X115276Y610698D01*
X115217Y610778D01*
X115161Y610860D01*
X115109Y610944D01*
X115060Y611030D01*
X115014Y611118D01*
X114971Y611208D01*
X114932Y611299D01*
X114897Y611392D01*
X114865Y611486D01*
X114837Y611581D01*
X114812Y611677D01*
X114792Y611774D01*
X114774Y611872D01*
X114761Y611970D01*
X114752Y612069D01*
X114746Y612168D01*
X114744Y612267D01*
X119507Y608140D02*
X119591Y608088D01*
X119674Y608033D01*
X119754Y607974D01*
X119832Y607913D01*
X119907Y607849D01*
X119980Y607781D01*
X120051Y607711D01*
X120118Y607639D01*
X120183Y607564D01*
X120245Y607486D01*
X120304Y607406D01*
X120360Y607324D01*
X120412Y607240D01*
X120461Y607154D01*
X120507Y607066D01*
X120550Y606976D01*
X120589Y606885D01*
X120624Y606792D01*
X120656Y606698D01*
X120684Y606603D01*
X120709Y606507D01*
X120729Y606410D01*
X120747Y606312D01*
X120760Y606214D01*
X120769Y606115D01*
X120775Y606016D01*
X120777Y605917D01*
X119507Y608140D02*
X116015Y610045D01*
X125476Y612267D02*
X128651Y614807D01*
X128651Y603377D01*
X125476Y603377D02*
X131826Y603377D01*
D13*
X88000Y769000D02*
X88002Y769063D01*
X88008Y769125D01*
X88018Y769187D01*
X88031Y769249D01*
X88049Y769309D01*
X88070Y769368D01*
X88095Y769426D01*
X88124Y769482D01*
X88156Y769536D01*
X88191Y769588D01*
X88229Y769637D01*
X88271Y769685D01*
X88315Y769729D01*
X88363Y769771D01*
X88412Y769809D01*
X88464Y769844D01*
X88518Y769876D01*
X88574Y769905D01*
X88632Y769930D01*
X88691Y769951D01*
X88751Y769969D01*
X88813Y769982D01*
X88875Y769992D01*
X88937Y769998D01*
X89000Y770000D01*
X89063Y769998D01*
X89125Y769992D01*
X89187Y769982D01*
X89249Y769969D01*
X89309Y769951D01*
X89368Y769930D01*
X89426Y769905D01*
X89482Y769876D01*
X89536Y769844D01*
X89588Y769809D01*
X89637Y769771D01*
X89685Y769729D01*
X89729Y769685D01*
X89771Y769637D01*
X89809Y769588D01*
X89844Y769536D01*
X89876Y769482D01*
X89905Y769426D01*
X89930Y769368D01*
X89951Y769309D01*
X89969Y769249D01*
X89982Y769187D01*
X89992Y769125D01*
X89998Y769063D01*
X90000Y769000D01*
X89998Y768937D01*
X89992Y768875D01*
X89982Y768813D01*
X89969Y768751D01*
X89951Y768691D01*
X89930Y768632D01*
X89905Y768574D01*
X89876Y768518D01*
X89844Y768464D01*
X89809Y768412D01*
X89771Y768363D01*
X89729Y768315D01*
X89685Y768271D01*
X89637Y768229D01*
X89588Y768191D01*
X89536Y768156D01*
X89482Y768124D01*
X89426Y768095D01*
X89368Y768070D01*
X89309Y768049D01*
X89249Y768031D01*
X89187Y768018D01*
X89125Y768008D01*
X89063Y768002D01*
X89000Y768000D01*
X88937Y768002D01*
X88875Y768008D01*
X88813Y768018D01*
X88751Y768031D01*
X88691Y768049D01*
X88632Y768070D01*
X88574Y768095D01*
X88518Y768124D01*
X88464Y768156D01*
X88412Y768191D01*
X88363Y768229D01*
X88315Y768271D01*
X88271Y768315D01*
X88229Y768363D01*
X88191Y768412D01*
X88156Y768464D01*
X88124Y768518D01*
X88095Y768574D01*
X88070Y768632D01*
X88049Y768691D01*
X88031Y768751D01*
X88018Y768813D01*
X88008Y768875D01*
X88002Y768937D01*
X88000Y769000D01*
D11*
X110500Y778500D02*
X270500Y778500D01*
X270500Y618500D02*
X110500Y618500D01*
D14*
X92950Y791306D02*
X92950Y799745D01*
X92950Y791306D02*
X92952Y791193D01*
X92958Y791080D01*
X92968Y790967D01*
X92982Y790854D01*
X92999Y790742D01*
X93021Y790631D01*
X93046Y790521D01*
X93076Y790411D01*
X93109Y790303D01*
X93146Y790196D01*
X93186Y790090D01*
X93231Y789986D01*
X93279Y789883D01*
X93330Y789782D01*
X93385Y789683D01*
X93443Y789586D01*
X93505Y789491D01*
X93570Y789398D01*
X93638Y789308D01*
X93709Y789220D01*
X93784Y789134D01*
X93861Y789051D01*
X93941Y788971D01*
X94024Y788894D01*
X94110Y788819D01*
X94198Y788748D01*
X94288Y788680D01*
X94381Y788615D01*
X94476Y788553D01*
X94573Y788495D01*
X94672Y788440D01*
X94773Y788389D01*
X94876Y788341D01*
X94980Y788296D01*
X95086Y788256D01*
X95193Y788219D01*
X95301Y788186D01*
X95411Y788156D01*
X95521Y788131D01*
X95632Y788109D01*
X95744Y788092D01*
X95857Y788078D01*
X95970Y788068D01*
X96083Y788062D01*
X96196Y788060D01*
X96309Y788062D01*
X96422Y788068D01*
X96535Y788078D01*
X96648Y788092D01*
X96760Y788109D01*
X96871Y788131D01*
X96981Y788156D01*
X97091Y788186D01*
X97199Y788219D01*
X97306Y788256D01*
X97412Y788296D01*
X97516Y788341D01*
X97619Y788389D01*
X97720Y788440D01*
X97819Y788495D01*
X97916Y788553D01*
X98011Y788615D01*
X98104Y788680D01*
X98194Y788748D01*
X98282Y788819D01*
X98368Y788894D01*
X98451Y788971D01*
X98531Y789051D01*
X98608Y789134D01*
X98683Y789220D01*
X98754Y789308D01*
X98822Y789398D01*
X98887Y789491D01*
X98949Y789586D01*
X99007Y789683D01*
X99062Y789782D01*
X99113Y789883D01*
X99161Y789986D01*
X99206Y790090D01*
X99246Y790196D01*
X99283Y790303D01*
X99316Y790411D01*
X99346Y790521D01*
X99371Y790631D01*
X99393Y790742D01*
X99410Y790854D01*
X99424Y790967D01*
X99434Y791080D01*
X99440Y791193D01*
X99442Y791306D01*
X99441Y791306D02*
X99441Y799745D01*
X108331Y799745D02*
X108438Y799743D01*
X108544Y799737D01*
X108650Y799727D01*
X108756Y799714D01*
X108862Y799696D01*
X108966Y799675D01*
X109070Y799650D01*
X109173Y799621D01*
X109274Y799589D01*
X109374Y799552D01*
X109473Y799512D01*
X109571Y799469D01*
X109667Y799422D01*
X109761Y799371D01*
X109853Y799317D01*
X109943Y799260D01*
X110031Y799200D01*
X110116Y799136D01*
X110199Y799069D01*
X110280Y798999D01*
X110358Y798927D01*
X110434Y798851D01*
X110506Y798773D01*
X110576Y798692D01*
X110643Y798609D01*
X110707Y798524D01*
X110767Y798436D01*
X110824Y798346D01*
X110878Y798254D01*
X110929Y798160D01*
X110976Y798064D01*
X111019Y797966D01*
X111059Y797867D01*
X111096Y797767D01*
X111128Y797666D01*
X111157Y797563D01*
X111182Y797459D01*
X111203Y797355D01*
X111221Y797249D01*
X111234Y797143D01*
X111244Y797037D01*
X111250Y796931D01*
X111252Y796824D01*
X108331Y799745D02*
X108210Y799743D01*
X108089Y799737D01*
X107969Y799727D01*
X107848Y799714D01*
X107729Y799696D01*
X107609Y799675D01*
X107491Y799650D01*
X107374Y799621D01*
X107257Y799588D01*
X107142Y799552D01*
X107028Y799511D01*
X106915Y799468D01*
X106803Y799420D01*
X106694Y799369D01*
X106586Y799314D01*
X106479Y799256D01*
X106375Y799195D01*
X106273Y799130D01*
X106173Y799062D01*
X106075Y798991D01*
X105979Y798917D01*
X105886Y798840D01*
X105796Y798759D01*
X105708Y798676D01*
X105623Y798590D01*
X105540Y798501D01*
X105461Y798410D01*
X105384Y798316D01*
X105311Y798220D01*
X105241Y798122D01*
X105174Y798021D01*
X105110Y797918D01*
X105050Y797813D01*
X104993Y797706D01*
X104939Y797598D01*
X104889Y797488D01*
X104843Y797376D01*
X104800Y797263D01*
X104761Y797148D01*
X110279Y794552D02*
X110358Y794629D01*
X110434Y794710D01*
X110507Y794793D01*
X110577Y794878D01*
X110644Y794966D01*
X110708Y795056D01*
X110768Y795148D01*
X110825Y795243D01*
X110879Y795339D01*
X110930Y795437D01*
X110977Y795537D01*
X111021Y795639D01*
X111061Y795742D01*
X111097Y795846D01*
X111129Y795952D01*
X111158Y796058D01*
X111183Y796166D01*
X111205Y796274D01*
X111222Y796384D01*
X111236Y796493D01*
X111245Y796603D01*
X111251Y796714D01*
X111253Y796824D01*
X110279Y794552D02*
X104761Y788061D01*
X111252Y788061D01*
D15*
X348911Y527783D02*
X346583Y522195D01*
X351240Y522195D02*
X348911Y527783D01*
X352171Y532748D02*
X343789Y532748D01*
X352171Y532748D02*
X352171Y536474D01*
X352171Y539874D02*
X343789Y542668D01*
X352171Y545462D01*
X350076Y544763D02*
X350076Y540572D01*
X347514Y550004D02*
X347514Y552332D01*
X347515Y552332D02*
X347517Y552427D01*
X347523Y552522D01*
X347532Y552616D01*
X347546Y552710D01*
X347563Y552804D01*
X347584Y552896D01*
X347609Y552988D01*
X347638Y553078D01*
X347670Y553168D01*
X347706Y553256D01*
X347746Y553342D01*
X347788Y553427D01*
X347835Y553510D01*
X347885Y553591D01*
X347938Y553669D01*
X347994Y553746D01*
X348053Y553820D01*
X348115Y553892D01*
X348180Y553961D01*
X348248Y554028D01*
X348318Y554091D01*
X348392Y554152D01*
X348467Y554210D01*
X348545Y554264D01*
X348625Y554316D01*
X348707Y554364D01*
X348790Y554408D01*
X348876Y554450D01*
X348963Y554487D01*
X349052Y554521D01*
X349142Y554552D01*
X349233Y554579D01*
X349325Y554602D01*
X349418Y554621D01*
X349512Y554636D01*
X349606Y554648D01*
X349701Y554656D01*
X349796Y554660D01*
X349890Y554660D01*
X349985Y554656D01*
X350080Y554648D01*
X350174Y554636D01*
X350268Y554621D01*
X350361Y554602D01*
X350453Y554579D01*
X350544Y554552D01*
X350634Y554521D01*
X350723Y554487D01*
X350810Y554450D01*
X350896Y554408D01*
X350979Y554364D01*
X351061Y554316D01*
X351141Y554264D01*
X351219Y554210D01*
X351294Y554152D01*
X351368Y554091D01*
X351438Y554028D01*
X351506Y553961D01*
X351571Y553892D01*
X351633Y553820D01*
X351692Y553746D01*
X351748Y553669D01*
X351801Y553591D01*
X351851Y553510D01*
X351898Y553427D01*
X351940Y553342D01*
X351980Y553256D01*
X352016Y553168D01*
X352048Y553078D01*
X352077Y552988D01*
X352102Y552896D01*
X352123Y552804D01*
X352140Y552710D01*
X352154Y552616D01*
X352163Y552522D01*
X352169Y552427D01*
X352171Y552332D01*
X352171Y550004D01*
X343789Y550004D01*
X343789Y552332D01*
X343791Y552417D01*
X343797Y552501D01*
X343806Y552586D01*
X343820Y552669D01*
X343837Y552752D01*
X343858Y552835D01*
X343883Y552916D01*
X343911Y552996D01*
X343943Y553074D01*
X343979Y553151D01*
X344018Y553227D01*
X344060Y553300D01*
X344106Y553371D01*
X344155Y553441D01*
X344207Y553508D01*
X344262Y553572D01*
X344320Y553634D01*
X344380Y553694D01*
X344444Y553750D01*
X344509Y553804D01*
X344578Y553854D01*
X344648Y553901D01*
X344721Y553945D01*
X344795Y553986D01*
X344871Y554023D01*
X344949Y554057D01*
X345028Y554087D01*
X345109Y554114D01*
X345190Y554137D01*
X345273Y554156D01*
X345356Y554171D01*
X345440Y554183D01*
X345525Y554191D01*
X345610Y554195D01*
X345694Y554195D01*
X345779Y554191D01*
X345864Y554183D01*
X345948Y554171D01*
X346031Y554156D01*
X346114Y554137D01*
X346195Y554114D01*
X346276Y554087D01*
X346355Y554057D01*
X346433Y554023D01*
X346509Y553986D01*
X346584Y553945D01*
X346656Y553901D01*
X346726Y553854D01*
X346795Y553804D01*
X346860Y553750D01*
X346924Y553694D01*
X346984Y553634D01*
X347042Y553572D01*
X347097Y553508D01*
X347149Y553441D01*
X347198Y553371D01*
X347244Y553300D01*
X347286Y553227D01*
X347325Y553151D01*
X347361Y553074D01*
X347393Y552996D01*
X347421Y552916D01*
X347446Y552835D01*
X347467Y552752D01*
X347484Y552669D01*
X347498Y552586D01*
X347507Y552501D01*
X347513Y552417D01*
X347515Y552332D01*
X352171Y558961D02*
X352171Y562686D01*
X352171Y558961D02*
X343789Y558961D01*
X343789Y562686D01*
X347514Y561755D02*
X347514Y558961D01*
X343789Y566886D02*
X352171Y566886D01*
X352171Y570611D01*
X218821Y556345D02*
X210439Y561933D01*
X210439Y556345D02*
X218821Y561933D01*
X212302Y565954D02*
X210439Y568283D01*
X218821Y568283D01*
X218821Y570611D02*
X218821Y565954D01*
D11*
X58194Y605155D02*
X57122Y605155D01*
X57057Y605157D01*
X56993Y605163D01*
X56929Y605173D01*
X56865Y605186D01*
X56803Y605204D01*
X56742Y605225D01*
X56682Y605249D01*
X56624Y605278D01*
X56567Y605310D01*
X56513Y605345D01*
X56461Y605383D01*
X56411Y605425D01*
X56364Y605469D01*
X56320Y605516D01*
X56278Y605566D01*
X56240Y605618D01*
X56205Y605672D01*
X56173Y605729D01*
X56144Y605787D01*
X56120Y605847D01*
X56099Y605908D01*
X56081Y605970D01*
X56068Y606034D01*
X56058Y606098D01*
X56052Y606162D01*
X56050Y606227D01*
X56049Y606227D02*
X56049Y608909D01*
X56050Y608909D02*
X56052Y608974D01*
X56058Y609038D01*
X56068Y609102D01*
X56081Y609166D01*
X56099Y609228D01*
X56120Y609289D01*
X56144Y609349D01*
X56173Y609407D01*
X56205Y609464D01*
X56240Y609518D01*
X56278Y609570D01*
X56320Y609620D01*
X56364Y609667D01*
X56411Y609711D01*
X56461Y609753D01*
X56513Y609791D01*
X56567Y609826D01*
X56624Y609858D01*
X56682Y609887D01*
X56742Y609911D01*
X56803Y609932D01*
X56865Y609950D01*
X56929Y609963D01*
X56993Y609973D01*
X57057Y609979D01*
X57122Y609981D01*
X58194Y609981D01*
X60650Y608909D02*
X61990Y609981D01*
X61990Y605155D01*
X60650Y605155D02*
X63331Y605155D01*
X58194Y574675D02*
X57122Y574675D01*
X57057Y574677D01*
X56993Y574683D01*
X56929Y574693D01*
X56865Y574706D01*
X56803Y574724D01*
X56742Y574745D01*
X56682Y574769D01*
X56624Y574798D01*
X56567Y574830D01*
X56513Y574865D01*
X56461Y574903D01*
X56411Y574945D01*
X56364Y574989D01*
X56320Y575036D01*
X56278Y575086D01*
X56240Y575138D01*
X56205Y575192D01*
X56173Y575249D01*
X56144Y575307D01*
X56120Y575367D01*
X56099Y575428D01*
X56081Y575490D01*
X56068Y575554D01*
X56058Y575618D01*
X56052Y575682D01*
X56050Y575747D01*
X56049Y575747D02*
X56049Y578429D01*
X56050Y578429D02*
X56052Y578494D01*
X56058Y578558D01*
X56068Y578622D01*
X56081Y578686D01*
X56099Y578748D01*
X56120Y578809D01*
X56144Y578869D01*
X56173Y578927D01*
X56205Y578984D01*
X56240Y579038D01*
X56278Y579090D01*
X56320Y579140D01*
X56364Y579187D01*
X56411Y579231D01*
X56461Y579273D01*
X56513Y579311D01*
X56567Y579346D01*
X56624Y579378D01*
X56682Y579407D01*
X56742Y579431D01*
X56803Y579452D01*
X56865Y579470D01*
X56929Y579483D01*
X56993Y579493D01*
X57057Y579499D01*
X57122Y579501D01*
X58194Y579501D01*
X62124Y579501D02*
X62192Y579499D01*
X62259Y579493D01*
X62326Y579484D01*
X62393Y579471D01*
X62458Y579454D01*
X62523Y579433D01*
X62586Y579409D01*
X62648Y579381D01*
X62708Y579350D01*
X62766Y579316D01*
X62822Y579278D01*
X62877Y579238D01*
X62928Y579194D01*
X62977Y579147D01*
X63024Y579098D01*
X63068Y579047D01*
X63108Y578992D01*
X63146Y578936D01*
X63180Y578878D01*
X63211Y578818D01*
X63239Y578756D01*
X63263Y578693D01*
X63284Y578628D01*
X63301Y578563D01*
X63314Y578496D01*
X63323Y578429D01*
X63329Y578362D01*
X63331Y578294D01*
X62124Y579501D02*
X62046Y579499D01*
X61968Y579493D01*
X61891Y579483D01*
X61814Y579470D01*
X61738Y579452D01*
X61663Y579431D01*
X61589Y579406D01*
X61517Y579377D01*
X61446Y579345D01*
X61377Y579309D01*
X61309Y579270D01*
X61244Y579227D01*
X61181Y579181D01*
X61120Y579132D01*
X61062Y579080D01*
X61007Y579025D01*
X60954Y578968D01*
X60905Y578908D01*
X60858Y578845D01*
X60815Y578781D01*
X60775Y578714D01*
X60738Y578645D01*
X60705Y578574D01*
X60675Y578502D01*
X60649Y578429D01*
X62929Y577356D02*
X62978Y577405D01*
X63025Y577457D01*
X63068Y577512D01*
X63109Y577569D01*
X63147Y577628D01*
X63181Y577689D01*
X63212Y577752D01*
X63240Y577816D01*
X63264Y577882D01*
X63284Y577948D01*
X63301Y578016D01*
X63314Y578085D01*
X63323Y578154D01*
X63329Y578224D01*
X63331Y578294D01*
X62929Y577356D02*
X60650Y574675D01*
X63331Y574675D01*
M02*
