G04 EAGLE Gerber RS-274X export*
G75*
%MOMM*%
%FSLAX34Y34*%
%LPD*%
%IN*%
%IPPOS*%
%AMOC8*
5,1,8,0,0,1.08239X$1,22.5*%
G01*
%ADD10C,0.254000*%


D10*
X17780Y601980D02*
X189740Y601980D01*
X189740Y772060D01*
X17780Y772060D01*
X17780Y601980D01*
X185180Y751304D02*
X185104Y750236D01*
X184951Y749175D01*
X184723Y748128D01*
X184421Y747100D01*
X184047Y746096D01*
X183602Y745121D01*
X183088Y744181D01*
X182509Y743280D01*
X181867Y742422D01*
X181165Y741612D01*
X180408Y740855D01*
X179598Y740153D01*
X178740Y739511D01*
X177839Y738932D01*
X176899Y738418D01*
X175924Y737973D01*
X174920Y737599D01*
X173892Y737297D01*
X172845Y737069D01*
X171784Y736916D01*
X170716Y736840D01*
X169644Y736840D01*
X168576Y736916D01*
X167515Y737069D01*
X166468Y737297D01*
X165440Y737599D01*
X164436Y737973D01*
X163461Y738418D01*
X162521Y738932D01*
X161620Y739511D01*
X160762Y740153D01*
X159952Y740855D01*
X159195Y741612D01*
X158493Y742422D01*
X157851Y743280D01*
X157272Y744181D01*
X156758Y745121D01*
X156313Y746096D01*
X155939Y747100D01*
X155637Y748128D01*
X155409Y749175D01*
X155256Y750236D01*
X155180Y751304D01*
X155180Y752376D01*
X155256Y753444D01*
X155409Y754505D01*
X155637Y755552D01*
X155939Y756580D01*
X156313Y757584D01*
X156758Y758559D01*
X157272Y759499D01*
X157851Y760400D01*
X158493Y761258D01*
X159195Y762068D01*
X159952Y762825D01*
X160762Y763527D01*
X161620Y764169D01*
X162521Y764748D01*
X163461Y765262D01*
X164436Y765707D01*
X165440Y766081D01*
X166468Y766383D01*
X167515Y766611D01*
X168576Y766764D01*
X169644Y766840D01*
X170716Y766840D01*
X171784Y766764D01*
X172845Y766611D01*
X173892Y766383D01*
X174920Y766081D01*
X175924Y765707D01*
X176899Y765262D01*
X177839Y764748D01*
X178740Y764169D01*
X179598Y763527D01*
X180408Y762825D01*
X181165Y762068D01*
X181867Y761258D01*
X182509Y760400D01*
X183088Y759499D01*
X183602Y758559D01*
X184047Y757584D01*
X184421Y756580D01*
X184723Y755552D01*
X184951Y754505D01*
X185104Y753444D01*
X185180Y752376D01*
X185180Y751304D01*
X53100Y621764D02*
X53024Y620696D01*
X52871Y619635D01*
X52643Y618588D01*
X52341Y617560D01*
X51967Y616556D01*
X51522Y615581D01*
X51008Y614641D01*
X50429Y613740D01*
X49787Y612882D01*
X49085Y612072D01*
X48328Y611315D01*
X47518Y610613D01*
X46660Y609971D01*
X45759Y609392D01*
X44819Y608878D01*
X43844Y608433D01*
X42840Y608059D01*
X41812Y607757D01*
X40765Y607529D01*
X39704Y607376D01*
X38636Y607300D01*
X37564Y607300D01*
X36496Y607376D01*
X35435Y607529D01*
X34388Y607757D01*
X33360Y608059D01*
X32356Y608433D01*
X31381Y608878D01*
X30441Y609392D01*
X29540Y609971D01*
X28682Y610613D01*
X27872Y611315D01*
X27115Y612072D01*
X26413Y612882D01*
X25771Y613740D01*
X25192Y614641D01*
X24678Y615581D01*
X24233Y616556D01*
X23859Y617560D01*
X23557Y618588D01*
X23329Y619635D01*
X23176Y620696D01*
X23100Y621764D01*
X23100Y622836D01*
X23176Y623904D01*
X23329Y624965D01*
X23557Y626012D01*
X23859Y627040D01*
X24233Y628044D01*
X24678Y629019D01*
X25192Y629959D01*
X25771Y630860D01*
X26413Y631718D01*
X27115Y632528D01*
X27872Y633285D01*
X28682Y633987D01*
X29540Y634629D01*
X30441Y635208D01*
X31381Y635722D01*
X32356Y636167D01*
X33360Y636541D01*
X34388Y636843D01*
X35435Y637071D01*
X36496Y637224D01*
X37564Y637300D01*
X38636Y637300D01*
X39704Y637224D01*
X40765Y637071D01*
X41812Y636843D01*
X42840Y636541D01*
X43844Y636167D01*
X44819Y635722D01*
X45759Y635208D01*
X46660Y634629D01*
X47518Y633987D01*
X48328Y633285D01*
X49085Y632528D01*
X49787Y631718D01*
X50429Y630860D01*
X51008Y629959D01*
X51522Y629019D01*
X51967Y628044D01*
X52341Y627040D01*
X52643Y626012D01*
X52871Y624965D01*
X53024Y623904D01*
X53100Y622836D01*
X53100Y621764D01*
M02*
