M48
;GenerationSoftware,Autodesk,EAGLE,9.6.2*%
;CreationDate,2020-10-26T09:41:44Z*%
FMAT,2
ICI,OFF
METRIC,TZ,000.000
T8C0.350
T7C0.500
T6C0.550
T5C0.700
T4C1.000
T3C1.016
T2C1.829
T1C3.000
%
G90
M71
T1
X106172Y2540
X2540Y2540
X2540Y77470
X106172Y77470
T2
X11694Y14728
X11674Y62488
X14214Y69236
X16754Y62488
X35804Y62488
X38344Y69236
X40884Y62488
X40904Y14728
X38364Y7980
X35824Y14728
X16774Y14728
X14234Y7980
T3
X100330Y66802
X88900Y17780
X88900Y15240
X60960Y15240
X60960Y17780
X60960Y20320
X60960Y22860
X60960Y25400
X64770Y38354
X64770Y35814
X60452Y35814
X100076Y32512
X100076Y29972
X100330Y72898
X100330Y75438
X100330Y64262
X96241Y55118
X98781Y55118
X96241Y52578
X92202Y75438
X94742Y75438
X98781Y52578
X96241Y50038
X98781Y50038
X96241Y47498
X98781Y47498
X97739Y38633
X97739Y43155
X91237Y38633
X91237Y43155
X60452Y45974
X60452Y43434
X60452Y40894
X60452Y38354
X104648Y24892
X104648Y27432
X104648Y29972
X104648Y32512
X88900Y25400
X88900Y22860
X88900Y20320
T4
X82042Y69850
X82042Y67310
X82042Y64770
X60960Y64516
X60960Y67056
X60960Y69596
T5
X93726Y67330
X93726Y69830
T6
X72684Y4224
X77684Y4224
T7
X71684Y1524
X78684Y1524
T8
X80014Y40628
X82423Y35941
X97282Y27813
X78824Y30373
X93599Y26797
X77851Y30353
X86741Y15240
X74549Y33147
X86678Y22796
X75565Y46482
X71120Y45720
X76708Y30353
X77216Y47371
M30