G04 EAGLE Gerber RS-274X export*
G75*
%MOMM*%
%FSLAX34Y34*%
%LPD*%
%INSilkscreen Top*%
%IPPOS*%
%AMOC8*
5,1,8,0,0,1.08239X$1,22.5*%
G01*
%ADD10C,0.152400*%
%ADD11C,0.203200*%
%ADD12C,0.127000*%
%ADD13C,0.304800*%
%ADD14C,0.050800*%
%ADD15C,0.170000*%
%ADD16C,0.400000*%
%ADD17C,0.076200*%
%ADD18C,0.200000*%
%ADD19C,0.101600*%


D10*
X954786Y61976D02*
X938530Y67395D01*
X954786Y72813D01*
X950722Y71459D02*
X950722Y63331D01*
X954786Y78337D02*
X943949Y78337D01*
X939433Y77885D02*
X938530Y77885D01*
X938530Y78788D01*
X939433Y78788D01*
X939433Y77885D01*
X943949Y85230D02*
X954786Y85230D01*
X943949Y85230D02*
X943949Y90648D01*
X945755Y90648D01*
X948464Y96920D02*
X950270Y101436D01*
X948464Y96920D02*
X948427Y96832D01*
X948386Y96746D01*
X948342Y96661D01*
X948294Y96578D01*
X948243Y96498D01*
X948189Y96419D01*
X948131Y96343D01*
X948071Y96269D01*
X948007Y96197D01*
X947941Y96129D01*
X947871Y96063D01*
X947800Y96000D01*
X947725Y95939D01*
X947649Y95882D01*
X947570Y95829D01*
X947489Y95778D01*
X947406Y95731D01*
X947321Y95687D01*
X947234Y95647D01*
X947146Y95610D01*
X947056Y95577D01*
X946965Y95547D01*
X946873Y95522D01*
X946780Y95500D01*
X946686Y95482D01*
X946592Y95467D01*
X946497Y95457D01*
X946401Y95451D01*
X946306Y95448D01*
X946210Y95449D01*
X946115Y95455D01*
X946019Y95464D01*
X945925Y95477D01*
X945831Y95493D01*
X945737Y95514D01*
X945645Y95539D01*
X945554Y95567D01*
X945464Y95599D01*
X945375Y95634D01*
X945288Y95673D01*
X945202Y95716D01*
X945118Y95762D01*
X945037Y95812D01*
X944957Y95864D01*
X944879Y95920D01*
X944804Y95980D01*
X944732Y96042D01*
X944662Y96107D01*
X944594Y96175D01*
X944530Y96245D01*
X944468Y96318D01*
X944410Y96394D01*
X944354Y96472D01*
X944302Y96552D01*
X944253Y96634D01*
X944208Y96718D01*
X944166Y96804D01*
X944127Y96891D01*
X944092Y96980D01*
X944061Y97071D01*
X944034Y97162D01*
X944010Y97255D01*
X943990Y97348D01*
X943974Y97442D01*
X943962Y97537D01*
X943953Y97632D01*
X943949Y97728D01*
X943948Y97823D01*
X943955Y98070D01*
X943967Y98316D01*
X943985Y98562D01*
X944010Y98808D01*
X944040Y99052D01*
X944076Y99296D01*
X944118Y99539D01*
X944165Y99781D01*
X944219Y100022D01*
X944278Y100261D01*
X944343Y100499D01*
X944414Y100736D01*
X944490Y100970D01*
X944572Y101203D01*
X944660Y101433D01*
X944753Y101661D01*
X944851Y101888D01*
X950271Y101436D02*
X950308Y101524D01*
X950349Y101610D01*
X950393Y101695D01*
X950441Y101778D01*
X950492Y101858D01*
X950546Y101937D01*
X950604Y102013D01*
X950664Y102087D01*
X950728Y102159D01*
X950794Y102227D01*
X950864Y102293D01*
X950935Y102356D01*
X951010Y102417D01*
X951086Y102474D01*
X951165Y102527D01*
X951246Y102578D01*
X951329Y102625D01*
X951414Y102669D01*
X951501Y102709D01*
X951589Y102746D01*
X951679Y102779D01*
X951770Y102809D01*
X951862Y102834D01*
X951955Y102856D01*
X952049Y102874D01*
X952143Y102889D01*
X952238Y102899D01*
X952334Y102905D01*
X952429Y102908D01*
X952525Y102907D01*
X952620Y102901D01*
X952716Y102892D01*
X952810Y102879D01*
X952904Y102863D01*
X952998Y102842D01*
X953090Y102817D01*
X953181Y102789D01*
X953271Y102757D01*
X953360Y102722D01*
X953447Y102683D01*
X953533Y102640D01*
X953617Y102594D01*
X953698Y102544D01*
X953778Y102492D01*
X953856Y102436D01*
X953931Y102376D01*
X954003Y102314D01*
X954073Y102249D01*
X954141Y102181D01*
X954205Y102111D01*
X954267Y102038D01*
X954325Y101962D01*
X954381Y101884D01*
X954433Y101804D01*
X954482Y101722D01*
X954527Y101638D01*
X954569Y101552D01*
X954608Y101465D01*
X954643Y101376D01*
X954674Y101285D01*
X954701Y101194D01*
X954725Y101101D01*
X954745Y101008D01*
X954761Y100914D01*
X954773Y100819D01*
X954782Y100724D01*
X954786Y100628D01*
X954787Y100533D01*
X954786Y100533D02*
X954777Y100171D01*
X954759Y99809D01*
X954732Y99448D01*
X954697Y99088D01*
X954654Y98728D01*
X954602Y98369D01*
X954541Y98012D01*
X954472Y97657D01*
X954395Y97303D01*
X954309Y96951D01*
X954215Y96601D01*
X954112Y96253D01*
X954002Y95908D01*
X953883Y95566D01*
X954786Y111822D02*
X954786Y116338D01*
X954786Y111822D02*
X954784Y111721D01*
X954778Y111620D01*
X954769Y111519D01*
X954756Y111418D01*
X954739Y111318D01*
X954718Y111219D01*
X954694Y111121D01*
X954666Y111024D01*
X954634Y110927D01*
X954599Y110832D01*
X954560Y110739D01*
X954518Y110647D01*
X954472Y110556D01*
X954423Y110467D01*
X954371Y110381D01*
X954315Y110296D01*
X954257Y110213D01*
X954195Y110133D01*
X954130Y110055D01*
X954063Y109979D01*
X953993Y109906D01*
X953920Y109836D01*
X953844Y109769D01*
X953766Y109704D01*
X953686Y109642D01*
X953603Y109584D01*
X953518Y109528D01*
X953432Y109476D01*
X953343Y109427D01*
X953252Y109381D01*
X953160Y109339D01*
X953067Y109300D01*
X952972Y109265D01*
X952875Y109233D01*
X952778Y109205D01*
X952680Y109181D01*
X952581Y109160D01*
X952481Y109143D01*
X952380Y109130D01*
X952279Y109121D01*
X952178Y109115D01*
X952077Y109113D01*
X947561Y109113D01*
X947442Y109115D01*
X947322Y109121D01*
X947203Y109131D01*
X947085Y109145D01*
X946966Y109162D01*
X946849Y109184D01*
X946732Y109209D01*
X946617Y109239D01*
X946502Y109272D01*
X946388Y109309D01*
X946276Y109349D01*
X946165Y109394D01*
X946056Y109442D01*
X945948Y109493D01*
X945842Y109548D01*
X945738Y109607D01*
X945636Y109669D01*
X945536Y109734D01*
X945438Y109803D01*
X945342Y109875D01*
X945249Y109950D01*
X945159Y110027D01*
X945071Y110108D01*
X944986Y110192D01*
X944904Y110279D01*
X944824Y110368D01*
X944748Y110460D01*
X944674Y110554D01*
X944604Y110651D01*
X944537Y110749D01*
X944473Y110850D01*
X944413Y110954D01*
X944356Y111059D01*
X944303Y111166D01*
X944253Y111274D01*
X944207Y111384D01*
X944165Y111496D01*
X944126Y111609D01*
X944091Y111723D01*
X944060Y111838D01*
X944032Y111955D01*
X944009Y112072D01*
X943989Y112189D01*
X943973Y112308D01*
X943961Y112427D01*
X943953Y112546D01*
X943949Y112665D01*
X943949Y112785D01*
X943953Y112904D01*
X943961Y113023D01*
X943973Y113142D01*
X943989Y113261D01*
X944009Y113378D01*
X944032Y113495D01*
X944060Y113612D01*
X944091Y113727D01*
X944126Y113841D01*
X944165Y113954D01*
X944207Y114066D01*
X944253Y114176D01*
X944303Y114284D01*
X944356Y114391D01*
X944413Y114496D01*
X944473Y114600D01*
X944537Y114701D01*
X944604Y114799D01*
X944674Y114896D01*
X944748Y114990D01*
X944824Y115082D01*
X944904Y115171D01*
X944986Y115258D01*
X945071Y115342D01*
X945159Y115423D01*
X945249Y115500D01*
X945342Y115575D01*
X945438Y115647D01*
X945536Y115716D01*
X945636Y115781D01*
X945738Y115843D01*
X945842Y115902D01*
X945948Y115957D01*
X946056Y116008D01*
X946165Y116056D01*
X946276Y116101D01*
X946388Y116141D01*
X946502Y116178D01*
X946617Y116211D01*
X946732Y116241D01*
X946849Y116266D01*
X946966Y116288D01*
X947085Y116305D01*
X947203Y116319D01*
X947322Y116329D01*
X947442Y116335D01*
X947561Y116337D01*
X947561Y116338D02*
X949367Y116338D01*
X949367Y109113D01*
X954786Y123181D02*
X943949Y123181D01*
X943949Y127696D01*
X943951Y127800D01*
X943957Y127903D01*
X943967Y128007D01*
X943981Y128110D01*
X943999Y128212D01*
X944020Y128313D01*
X944046Y128414D01*
X944075Y128513D01*
X944108Y128612D01*
X944145Y128709D01*
X944186Y128804D01*
X944230Y128898D01*
X944278Y128990D01*
X944329Y129080D01*
X944384Y129169D01*
X944442Y129255D01*
X944504Y129338D01*
X944568Y129420D01*
X944636Y129498D01*
X944706Y129574D01*
X944779Y129648D01*
X944856Y129718D01*
X944934Y129786D01*
X945016Y129850D01*
X945099Y129912D01*
X945185Y129970D01*
X945274Y130025D01*
X945364Y130076D01*
X945456Y130124D01*
X945550Y130168D01*
X945645Y130209D01*
X945742Y130246D01*
X945841Y130279D01*
X945940Y130308D01*
X946041Y130334D01*
X946142Y130355D01*
X946244Y130373D01*
X946347Y130387D01*
X946451Y130397D01*
X946554Y130403D01*
X946658Y130405D01*
X946658Y130406D02*
X954786Y130406D01*
X948464Y138604D02*
X950270Y143119D01*
X948464Y138603D02*
X948427Y138515D01*
X948386Y138429D01*
X948342Y138344D01*
X948294Y138261D01*
X948243Y138181D01*
X948189Y138102D01*
X948131Y138026D01*
X948071Y137952D01*
X948007Y137880D01*
X947941Y137812D01*
X947871Y137746D01*
X947800Y137683D01*
X947725Y137622D01*
X947649Y137565D01*
X947570Y137512D01*
X947489Y137461D01*
X947406Y137414D01*
X947321Y137370D01*
X947234Y137330D01*
X947146Y137293D01*
X947056Y137260D01*
X946965Y137230D01*
X946873Y137205D01*
X946780Y137183D01*
X946686Y137165D01*
X946592Y137150D01*
X946497Y137140D01*
X946401Y137134D01*
X946306Y137131D01*
X946210Y137132D01*
X946115Y137138D01*
X946019Y137147D01*
X945925Y137160D01*
X945831Y137176D01*
X945737Y137197D01*
X945645Y137222D01*
X945554Y137250D01*
X945464Y137282D01*
X945375Y137317D01*
X945288Y137356D01*
X945202Y137399D01*
X945118Y137445D01*
X945037Y137495D01*
X944957Y137547D01*
X944879Y137603D01*
X944804Y137663D01*
X944732Y137725D01*
X944662Y137790D01*
X944594Y137858D01*
X944530Y137928D01*
X944468Y138001D01*
X944410Y138077D01*
X944354Y138155D01*
X944302Y138235D01*
X944253Y138317D01*
X944208Y138401D01*
X944166Y138487D01*
X944127Y138574D01*
X944092Y138663D01*
X944061Y138754D01*
X944034Y138845D01*
X944010Y138938D01*
X943990Y139031D01*
X943974Y139125D01*
X943962Y139220D01*
X943953Y139315D01*
X943949Y139411D01*
X943948Y139506D01*
X943955Y139753D01*
X943967Y139999D01*
X943985Y140245D01*
X944010Y140491D01*
X944040Y140735D01*
X944076Y140979D01*
X944118Y141222D01*
X944165Y141464D01*
X944219Y141705D01*
X944278Y141944D01*
X944343Y142182D01*
X944414Y142419D01*
X944490Y142653D01*
X944572Y142886D01*
X944660Y143116D01*
X944753Y143344D01*
X944851Y143571D01*
X950271Y143119D02*
X950308Y143207D01*
X950349Y143293D01*
X950393Y143378D01*
X950441Y143461D01*
X950492Y143541D01*
X950546Y143620D01*
X950604Y143696D01*
X950664Y143770D01*
X950728Y143842D01*
X950794Y143910D01*
X950864Y143976D01*
X950935Y144039D01*
X951010Y144100D01*
X951086Y144157D01*
X951165Y144210D01*
X951246Y144261D01*
X951329Y144308D01*
X951414Y144352D01*
X951501Y144392D01*
X951589Y144429D01*
X951679Y144462D01*
X951770Y144492D01*
X951862Y144517D01*
X951955Y144539D01*
X952049Y144557D01*
X952143Y144572D01*
X952238Y144582D01*
X952334Y144588D01*
X952429Y144591D01*
X952525Y144590D01*
X952620Y144584D01*
X952716Y144575D01*
X952810Y144562D01*
X952904Y144546D01*
X952998Y144525D01*
X953090Y144500D01*
X953181Y144472D01*
X953271Y144440D01*
X953360Y144405D01*
X953447Y144366D01*
X953533Y144323D01*
X953617Y144277D01*
X953698Y144227D01*
X953778Y144175D01*
X953856Y144119D01*
X953931Y144059D01*
X954003Y143997D01*
X954073Y143932D01*
X954141Y143864D01*
X954205Y143794D01*
X954267Y143721D01*
X954325Y143645D01*
X954381Y143567D01*
X954433Y143487D01*
X954482Y143405D01*
X954527Y143321D01*
X954569Y143235D01*
X954608Y143148D01*
X954643Y143059D01*
X954674Y142968D01*
X954701Y142877D01*
X954725Y142784D01*
X954745Y142691D01*
X954761Y142597D01*
X954773Y142502D01*
X954782Y142407D01*
X954786Y142311D01*
X954787Y142216D01*
X954786Y142216D02*
X954777Y141854D01*
X954759Y141492D01*
X954732Y141131D01*
X954697Y140771D01*
X954654Y140411D01*
X954602Y140052D01*
X954541Y139695D01*
X954472Y139340D01*
X954395Y138986D01*
X954309Y138634D01*
X954215Y138284D01*
X954112Y137936D01*
X954002Y137591D01*
X953883Y137249D01*
X951174Y150796D02*
X947561Y150796D01*
X947442Y150798D01*
X947322Y150804D01*
X947203Y150814D01*
X947085Y150828D01*
X946966Y150845D01*
X946849Y150867D01*
X946732Y150892D01*
X946617Y150922D01*
X946502Y150955D01*
X946388Y150992D01*
X946276Y151032D01*
X946165Y151077D01*
X946056Y151125D01*
X945948Y151176D01*
X945842Y151231D01*
X945738Y151290D01*
X945636Y151352D01*
X945536Y151417D01*
X945438Y151486D01*
X945342Y151558D01*
X945249Y151633D01*
X945159Y151710D01*
X945071Y151791D01*
X944986Y151875D01*
X944904Y151962D01*
X944824Y152051D01*
X944748Y152143D01*
X944674Y152237D01*
X944604Y152334D01*
X944537Y152432D01*
X944473Y152533D01*
X944413Y152637D01*
X944356Y152742D01*
X944303Y152849D01*
X944253Y152957D01*
X944207Y153067D01*
X944165Y153179D01*
X944126Y153292D01*
X944091Y153406D01*
X944060Y153521D01*
X944032Y153638D01*
X944009Y153755D01*
X943989Y153872D01*
X943973Y153991D01*
X943961Y154110D01*
X943953Y154229D01*
X943949Y154348D01*
X943949Y154468D01*
X943953Y154587D01*
X943961Y154706D01*
X943973Y154825D01*
X943989Y154944D01*
X944009Y155061D01*
X944032Y155178D01*
X944060Y155295D01*
X944091Y155410D01*
X944126Y155524D01*
X944165Y155637D01*
X944207Y155749D01*
X944253Y155859D01*
X944303Y155967D01*
X944356Y156074D01*
X944413Y156179D01*
X944473Y156283D01*
X944537Y156384D01*
X944604Y156482D01*
X944674Y156579D01*
X944748Y156673D01*
X944824Y156765D01*
X944904Y156854D01*
X944986Y156941D01*
X945071Y157025D01*
X945159Y157106D01*
X945249Y157183D01*
X945342Y157258D01*
X945438Y157330D01*
X945536Y157399D01*
X945636Y157464D01*
X945738Y157526D01*
X945842Y157585D01*
X945948Y157640D01*
X946056Y157691D01*
X946165Y157739D01*
X946276Y157784D01*
X946388Y157824D01*
X946502Y157861D01*
X946617Y157894D01*
X946732Y157924D01*
X946849Y157949D01*
X946966Y157971D01*
X947085Y157988D01*
X947203Y158002D01*
X947322Y158012D01*
X947442Y158018D01*
X947561Y158020D01*
X947561Y158021D02*
X951174Y158021D01*
X951174Y158020D02*
X951293Y158018D01*
X951413Y158012D01*
X951532Y158002D01*
X951650Y157988D01*
X951769Y157971D01*
X951886Y157949D01*
X952003Y157924D01*
X952118Y157894D01*
X952233Y157861D01*
X952347Y157824D01*
X952459Y157784D01*
X952570Y157739D01*
X952679Y157691D01*
X952787Y157640D01*
X952893Y157585D01*
X952997Y157526D01*
X953099Y157464D01*
X953199Y157399D01*
X953297Y157330D01*
X953393Y157258D01*
X953486Y157183D01*
X953576Y157106D01*
X953664Y157025D01*
X953749Y156941D01*
X953831Y156854D01*
X953911Y156765D01*
X953987Y156673D01*
X954061Y156579D01*
X954131Y156482D01*
X954198Y156384D01*
X954262Y156283D01*
X954322Y156179D01*
X954379Y156074D01*
X954432Y155967D01*
X954482Y155859D01*
X954528Y155749D01*
X954570Y155637D01*
X954609Y155524D01*
X954644Y155410D01*
X954675Y155295D01*
X954703Y155178D01*
X954726Y155061D01*
X954746Y154944D01*
X954762Y154825D01*
X954774Y154706D01*
X954782Y154587D01*
X954786Y154468D01*
X954786Y154348D01*
X954782Y154229D01*
X954774Y154110D01*
X954762Y153991D01*
X954746Y153872D01*
X954726Y153755D01*
X954703Y153638D01*
X954675Y153521D01*
X954644Y153406D01*
X954609Y153292D01*
X954570Y153179D01*
X954528Y153067D01*
X954482Y152957D01*
X954432Y152849D01*
X954379Y152742D01*
X954322Y152637D01*
X954262Y152533D01*
X954198Y152432D01*
X954131Y152334D01*
X954061Y152237D01*
X953987Y152143D01*
X953911Y152051D01*
X953831Y151962D01*
X953749Y151875D01*
X953664Y151791D01*
X953576Y151710D01*
X953486Y151633D01*
X953393Y151558D01*
X953297Y151486D01*
X953199Y151417D01*
X953099Y151352D01*
X952997Y151290D01*
X952893Y151231D01*
X952787Y151176D01*
X952679Y151125D01*
X952570Y151077D01*
X952459Y151032D01*
X952347Y150992D01*
X952233Y150955D01*
X952118Y150922D01*
X952003Y150892D01*
X951886Y150867D01*
X951769Y150845D01*
X951650Y150828D01*
X951532Y150814D01*
X951413Y150804D01*
X951293Y150798D01*
X951174Y150796D01*
X954786Y164949D02*
X943949Y164949D01*
X943949Y170368D01*
X945755Y170368D01*
X965200Y68157D02*
X981456Y62738D01*
X981456Y73575D02*
X965200Y68157D01*
X977392Y72221D02*
X977392Y64093D01*
X976940Y80109D02*
X969716Y80109D01*
X969716Y80108D02*
X969583Y80110D01*
X969451Y80116D01*
X969319Y80126D01*
X969187Y80139D01*
X969055Y80157D01*
X968925Y80178D01*
X968794Y80203D01*
X968665Y80232D01*
X968537Y80265D01*
X968409Y80301D01*
X968283Y80341D01*
X968158Y80385D01*
X968034Y80433D01*
X967912Y80484D01*
X967791Y80539D01*
X967672Y80597D01*
X967554Y80659D01*
X967439Y80724D01*
X967325Y80793D01*
X967214Y80864D01*
X967105Y80940D01*
X966998Y81018D01*
X966893Y81099D01*
X966791Y81184D01*
X966691Y81271D01*
X966594Y81361D01*
X966499Y81454D01*
X966408Y81550D01*
X966319Y81648D01*
X966233Y81749D01*
X966150Y81853D01*
X966070Y81959D01*
X965994Y82067D01*
X965920Y82177D01*
X965850Y82290D01*
X965783Y82404D01*
X965720Y82521D01*
X965660Y82639D01*
X965603Y82759D01*
X965550Y82881D01*
X965501Y83004D01*
X965455Y83128D01*
X965413Y83254D01*
X965375Y83381D01*
X965340Y83509D01*
X965309Y83638D01*
X965282Y83767D01*
X965259Y83898D01*
X965239Y84029D01*
X965224Y84161D01*
X965212Y84293D01*
X965204Y84425D01*
X965200Y84558D01*
X965200Y84690D01*
X965204Y84823D01*
X965212Y84955D01*
X965224Y85087D01*
X965239Y85219D01*
X965259Y85350D01*
X965282Y85481D01*
X965309Y85610D01*
X965340Y85739D01*
X965375Y85867D01*
X965413Y85994D01*
X965455Y86120D01*
X965501Y86244D01*
X965550Y86367D01*
X965603Y86489D01*
X965660Y86609D01*
X965720Y86727D01*
X965783Y86844D01*
X965850Y86958D01*
X965920Y87071D01*
X965994Y87181D01*
X966070Y87289D01*
X966150Y87395D01*
X966233Y87499D01*
X966319Y87600D01*
X966408Y87698D01*
X966499Y87794D01*
X966594Y87887D01*
X966691Y87977D01*
X966791Y88064D01*
X966893Y88149D01*
X966998Y88230D01*
X967105Y88308D01*
X967214Y88384D01*
X967325Y88455D01*
X967439Y88524D01*
X967554Y88589D01*
X967672Y88651D01*
X967791Y88709D01*
X967912Y88764D01*
X968034Y88815D01*
X968158Y88863D01*
X968283Y88907D01*
X968409Y88947D01*
X968537Y88983D01*
X968665Y89016D01*
X968794Y89045D01*
X968925Y89070D01*
X969055Y89091D01*
X969187Y89109D01*
X969319Y89122D01*
X969451Y89132D01*
X969583Y89138D01*
X969716Y89140D01*
X976940Y89140D01*
X977073Y89138D01*
X977205Y89132D01*
X977337Y89122D01*
X977469Y89109D01*
X977601Y89091D01*
X977731Y89070D01*
X977862Y89045D01*
X977991Y89016D01*
X978119Y88983D01*
X978247Y88947D01*
X978373Y88907D01*
X978498Y88863D01*
X978622Y88815D01*
X978744Y88764D01*
X978865Y88709D01*
X978984Y88651D01*
X979102Y88589D01*
X979217Y88524D01*
X979331Y88455D01*
X979442Y88384D01*
X979551Y88308D01*
X979658Y88230D01*
X979763Y88149D01*
X979865Y88064D01*
X979965Y87977D01*
X980062Y87887D01*
X980157Y87794D01*
X980248Y87698D01*
X980337Y87600D01*
X980423Y87499D01*
X980506Y87395D01*
X980586Y87289D01*
X980662Y87181D01*
X980736Y87071D01*
X980806Y86958D01*
X980873Y86844D01*
X980936Y86727D01*
X980996Y86609D01*
X981053Y86489D01*
X981106Y86367D01*
X981155Y86244D01*
X981201Y86120D01*
X981243Y85994D01*
X981281Y85867D01*
X981316Y85739D01*
X981347Y85610D01*
X981374Y85481D01*
X981397Y85350D01*
X981417Y85219D01*
X981432Y85087D01*
X981444Y84955D01*
X981452Y84823D01*
X981456Y84690D01*
X981456Y84558D01*
X981452Y84425D01*
X981444Y84293D01*
X981432Y84161D01*
X981417Y84029D01*
X981397Y83898D01*
X981374Y83767D01*
X981347Y83638D01*
X981316Y83509D01*
X981281Y83381D01*
X981243Y83254D01*
X981201Y83128D01*
X981155Y83004D01*
X981106Y82881D01*
X981053Y82759D01*
X980996Y82639D01*
X980936Y82521D01*
X980873Y82404D01*
X980806Y82290D01*
X980736Y82177D01*
X980662Y82067D01*
X980586Y81959D01*
X980506Y81853D01*
X980423Y81749D01*
X980337Y81648D01*
X980248Y81550D01*
X980157Y81454D01*
X980062Y81361D01*
X979965Y81271D01*
X979865Y81184D01*
X979763Y81099D01*
X979658Y81018D01*
X979551Y80940D01*
X979442Y80864D01*
X979331Y80793D01*
X979217Y80724D01*
X979102Y80659D01*
X978984Y80597D01*
X978865Y80539D01*
X978744Y80484D01*
X978622Y80433D01*
X978498Y80385D01*
X978373Y80341D01*
X978247Y80301D01*
X978119Y80265D01*
X977991Y80232D01*
X977862Y80203D01*
X977731Y80178D01*
X977601Y80157D01*
X977469Y80139D01*
X977337Y80126D01*
X977205Y80116D01*
X977073Y80110D01*
X976940Y80108D01*
X977844Y87334D02*
X981456Y90946D01*
X981456Y100322D02*
X981454Y100440D01*
X981448Y100558D01*
X981439Y100676D01*
X981425Y100793D01*
X981408Y100910D01*
X981387Y101027D01*
X981362Y101142D01*
X981333Y101257D01*
X981300Y101371D01*
X981264Y101483D01*
X981224Y101594D01*
X981181Y101704D01*
X981134Y101813D01*
X981084Y101920D01*
X981029Y102025D01*
X980972Y102128D01*
X980911Y102229D01*
X980847Y102329D01*
X980780Y102426D01*
X980710Y102521D01*
X980636Y102613D01*
X980560Y102704D01*
X980480Y102791D01*
X980398Y102876D01*
X980313Y102958D01*
X980226Y103038D01*
X980135Y103114D01*
X980043Y103188D01*
X979948Y103258D01*
X979851Y103325D01*
X979751Y103389D01*
X979650Y103450D01*
X979547Y103507D01*
X979442Y103562D01*
X979335Y103612D01*
X979226Y103659D01*
X979116Y103702D01*
X979005Y103742D01*
X978893Y103778D01*
X978779Y103811D01*
X978664Y103840D01*
X978549Y103865D01*
X978432Y103886D01*
X978315Y103903D01*
X978198Y103917D01*
X978080Y103926D01*
X977962Y103932D01*
X977844Y103934D01*
X981456Y100322D02*
X981454Y100139D01*
X981447Y99957D01*
X981436Y99775D01*
X981421Y99593D01*
X981401Y99411D01*
X981378Y99230D01*
X981349Y99050D01*
X981317Y98870D01*
X981280Y98691D01*
X981239Y98514D01*
X981193Y98337D01*
X981144Y98161D01*
X981090Y97987D01*
X981032Y97813D01*
X980970Y97642D01*
X980904Y97472D01*
X980833Y97303D01*
X980759Y97136D01*
X980681Y96971D01*
X980599Y96808D01*
X980513Y96647D01*
X980423Y96488D01*
X980329Y96331D01*
X980232Y96177D01*
X980131Y96025D01*
X980026Y95875D01*
X979918Y95728D01*
X979807Y95584D01*
X979692Y95442D01*
X979573Y95303D01*
X979451Y95167D01*
X979326Y95034D01*
X979198Y94904D01*
X968812Y95356D02*
X968694Y95358D01*
X968576Y95364D01*
X968458Y95373D01*
X968341Y95387D01*
X968224Y95404D01*
X968107Y95425D01*
X967992Y95450D01*
X967877Y95479D01*
X967763Y95512D01*
X967651Y95548D01*
X967540Y95588D01*
X967430Y95631D01*
X967321Y95678D01*
X967214Y95728D01*
X967109Y95783D01*
X967006Y95840D01*
X966905Y95901D01*
X966805Y95965D01*
X966708Y96032D01*
X966613Y96102D01*
X966521Y96176D01*
X966430Y96252D01*
X966343Y96332D01*
X966258Y96414D01*
X966176Y96499D01*
X966096Y96586D01*
X966020Y96677D01*
X965946Y96769D01*
X965876Y96864D01*
X965809Y96961D01*
X965745Y97061D01*
X965684Y97162D01*
X965627Y97265D01*
X965572Y97370D01*
X965522Y97477D01*
X965475Y97586D01*
X965432Y97696D01*
X965392Y97807D01*
X965356Y97919D01*
X965323Y98033D01*
X965294Y98148D01*
X965269Y98263D01*
X965248Y98380D01*
X965231Y98497D01*
X965217Y98614D01*
X965208Y98732D01*
X965202Y98850D01*
X965200Y98968D01*
X965202Y99129D01*
X965208Y99291D01*
X965217Y99452D01*
X965231Y99613D01*
X965248Y99773D01*
X965269Y99933D01*
X965294Y100093D01*
X965323Y100252D01*
X965355Y100410D01*
X965391Y100567D01*
X965431Y100723D01*
X965475Y100879D01*
X965523Y101033D01*
X965574Y101186D01*
X965628Y101338D01*
X965687Y101489D01*
X965748Y101638D01*
X965814Y101785D01*
X965883Y101931D01*
X965955Y102076D01*
X966031Y102218D01*
X966110Y102359D01*
X966192Y102498D01*
X966278Y102634D01*
X966367Y102769D01*
X966459Y102902D01*
X966555Y103032D01*
X971973Y97161D02*
X971911Y97060D01*
X971846Y96960D01*
X971777Y96863D01*
X971705Y96768D01*
X971631Y96675D01*
X971553Y96585D01*
X971472Y96497D01*
X971389Y96412D01*
X971303Y96330D01*
X971214Y96251D01*
X971123Y96174D01*
X971029Y96101D01*
X970933Y96030D01*
X970835Y95963D01*
X970735Y95899D01*
X970632Y95838D01*
X970528Y95781D01*
X970422Y95727D01*
X970314Y95677D01*
X970205Y95630D01*
X970094Y95586D01*
X969982Y95546D01*
X969868Y95510D01*
X969754Y95478D01*
X969638Y95449D01*
X969522Y95424D01*
X969405Y95403D01*
X969287Y95386D01*
X969169Y95372D01*
X969050Y95363D01*
X968931Y95357D01*
X968812Y95355D01*
X974683Y102129D02*
X974745Y102230D01*
X974810Y102330D01*
X974879Y102427D01*
X974951Y102522D01*
X975025Y102615D01*
X975103Y102705D01*
X975184Y102793D01*
X975267Y102878D01*
X975353Y102960D01*
X975442Y103039D01*
X975533Y103116D01*
X975627Y103189D01*
X975723Y103260D01*
X975821Y103327D01*
X975921Y103391D01*
X976024Y103452D01*
X976128Y103509D01*
X976234Y103563D01*
X976342Y103613D01*
X976451Y103660D01*
X976562Y103704D01*
X976674Y103744D01*
X976788Y103780D01*
X976902Y103812D01*
X977018Y103841D01*
X977134Y103866D01*
X977251Y103887D01*
X977369Y103904D01*
X977487Y103918D01*
X977606Y103927D01*
X977725Y103933D01*
X977844Y103935D01*
X974683Y102128D02*
X971973Y97161D01*
X965200Y114981D02*
X965202Y115106D01*
X965208Y115231D01*
X965217Y115356D01*
X965231Y115480D01*
X965248Y115604D01*
X965269Y115728D01*
X965294Y115850D01*
X965323Y115972D01*
X965355Y116093D01*
X965391Y116213D01*
X965431Y116332D01*
X965474Y116449D01*
X965521Y116565D01*
X965572Y116680D01*
X965626Y116792D01*
X965684Y116904D01*
X965744Y117013D01*
X965809Y117120D01*
X965876Y117226D01*
X965947Y117329D01*
X966021Y117430D01*
X966098Y117529D01*
X966178Y117625D01*
X966261Y117719D01*
X966346Y117810D01*
X966435Y117899D01*
X966526Y117984D01*
X966620Y118067D01*
X966716Y118147D01*
X966815Y118224D01*
X966916Y118298D01*
X967019Y118369D01*
X967125Y118436D01*
X967232Y118501D01*
X967341Y118561D01*
X967453Y118619D01*
X967565Y118673D01*
X967680Y118724D01*
X967796Y118771D01*
X967913Y118814D01*
X968032Y118854D01*
X968152Y118890D01*
X968273Y118922D01*
X968395Y118951D01*
X968517Y118976D01*
X968641Y118997D01*
X968765Y119014D01*
X968889Y119028D01*
X969014Y119037D01*
X969139Y119043D01*
X969264Y119045D01*
X965200Y114981D02*
X965202Y114838D01*
X965208Y114696D01*
X965218Y114553D01*
X965231Y114411D01*
X965249Y114270D01*
X965270Y114128D01*
X965295Y113988D01*
X965324Y113848D01*
X965357Y113709D01*
X965394Y113571D01*
X965434Y113434D01*
X965478Y113299D01*
X965526Y113164D01*
X965578Y113031D01*
X965633Y112899D01*
X965692Y112769D01*
X965754Y112641D01*
X965820Y112514D01*
X965889Y112389D01*
X965961Y112266D01*
X966037Y112145D01*
X966116Y112027D01*
X966199Y111910D01*
X966284Y111796D01*
X966373Y111684D01*
X966464Y111575D01*
X966559Y111468D01*
X966656Y111363D01*
X966757Y111262D01*
X966860Y111163D01*
X966965Y111067D01*
X967074Y110974D01*
X967185Y110884D01*
X967298Y110797D01*
X967413Y110713D01*
X967531Y110633D01*
X967651Y110555D01*
X967773Y110481D01*
X967897Y110411D01*
X968023Y110343D01*
X968151Y110280D01*
X968280Y110219D01*
X968411Y110162D01*
X968543Y110109D01*
X968677Y110060D01*
X968812Y110014D01*
X972425Y117690D02*
X972333Y117784D01*
X972239Y117874D01*
X972142Y117962D01*
X972042Y118047D01*
X971940Y118129D01*
X971835Y118207D01*
X971728Y118283D01*
X971619Y118355D01*
X971508Y118424D01*
X971394Y118490D01*
X971279Y118552D01*
X971162Y118611D01*
X971043Y118666D01*
X970923Y118717D01*
X970801Y118765D01*
X970678Y118810D01*
X970554Y118850D01*
X970428Y118887D01*
X970301Y118920D01*
X970174Y118949D01*
X970045Y118975D01*
X969916Y118996D01*
X969786Y119014D01*
X969656Y119027D01*
X969526Y119037D01*
X969395Y119043D01*
X969264Y119045D01*
X972425Y117690D02*
X981456Y110014D01*
X981456Y119045D01*
D11*
X990600Y722630D02*
X990600Y735330D01*
X996950Y741680D01*
X1009650Y741680D02*
X1016000Y735330D01*
X996950Y741680D02*
X990600Y748030D01*
X990600Y760730D01*
X996950Y767080D01*
X1009650Y767080D02*
X1016000Y760730D01*
X1016000Y748030D01*
X1009650Y741680D01*
X1009650Y716280D02*
X996950Y716280D01*
X990600Y722630D01*
X1009650Y716280D02*
X1016000Y722630D01*
X1016000Y735330D01*
X1009650Y767080D02*
X996950Y767080D01*
D12*
X988695Y718256D02*
X988695Y716915D01*
X988695Y718256D02*
X988693Y718327D01*
X988687Y718399D01*
X988678Y718469D01*
X988665Y718539D01*
X988648Y718609D01*
X988627Y718677D01*
X988603Y718744D01*
X988575Y718810D01*
X988544Y718874D01*
X988509Y718937D01*
X988471Y718997D01*
X988430Y719056D01*
X988386Y719112D01*
X988339Y719166D01*
X988290Y719217D01*
X988237Y719265D01*
X988182Y719311D01*
X988125Y719353D01*
X988065Y719393D01*
X988004Y719429D01*
X987940Y719462D01*
X987875Y719491D01*
X987809Y719517D01*
X987741Y719540D01*
X987672Y719559D01*
X987602Y719574D01*
X987532Y719585D01*
X987461Y719593D01*
X987390Y719597D01*
X987318Y719597D01*
X987247Y719593D01*
X987176Y719585D01*
X987106Y719574D01*
X987036Y719559D01*
X986967Y719540D01*
X986899Y719517D01*
X986833Y719491D01*
X986768Y719462D01*
X986704Y719429D01*
X986643Y719393D01*
X986583Y719353D01*
X986526Y719311D01*
X986471Y719265D01*
X986418Y719217D01*
X986369Y719166D01*
X986322Y719112D01*
X986278Y719056D01*
X986237Y718997D01*
X986199Y718937D01*
X986164Y718874D01*
X986133Y718810D01*
X986105Y718744D01*
X986081Y718677D01*
X986060Y718609D01*
X986043Y718539D01*
X986030Y718469D01*
X986021Y718399D01*
X986015Y718327D01*
X986013Y718256D01*
X983869Y718524D02*
X983869Y716915D01*
X983869Y718524D02*
X983871Y718589D01*
X983877Y718653D01*
X983887Y718717D01*
X983900Y718781D01*
X983918Y718843D01*
X983939Y718904D01*
X983963Y718964D01*
X983992Y719022D01*
X984024Y719079D01*
X984059Y719133D01*
X984097Y719185D01*
X984139Y719235D01*
X984183Y719282D01*
X984230Y719326D01*
X984280Y719368D01*
X984332Y719406D01*
X984386Y719441D01*
X984443Y719473D01*
X984501Y719502D01*
X984561Y719526D01*
X984622Y719547D01*
X984684Y719565D01*
X984748Y719578D01*
X984812Y719588D01*
X984876Y719594D01*
X984941Y719596D01*
X985006Y719594D01*
X985070Y719588D01*
X985134Y719578D01*
X985198Y719565D01*
X985260Y719547D01*
X985321Y719526D01*
X985381Y719502D01*
X985439Y719473D01*
X985496Y719441D01*
X985550Y719406D01*
X985602Y719368D01*
X985652Y719326D01*
X985699Y719282D01*
X985743Y719235D01*
X985785Y719185D01*
X985823Y719133D01*
X985858Y719079D01*
X985890Y719022D01*
X985919Y718964D01*
X985943Y718904D01*
X985964Y718843D01*
X985982Y718781D01*
X985995Y718717D01*
X986005Y718653D01*
X986011Y718589D01*
X986013Y718524D01*
X986014Y718524D02*
X986014Y717451D01*
X988427Y721962D02*
X988695Y721962D01*
X988427Y721962D02*
X988427Y722230D01*
X988695Y722230D01*
X988695Y721962D01*
X988695Y724596D02*
X988695Y725936D01*
X988693Y726007D01*
X988687Y726079D01*
X988678Y726149D01*
X988665Y726219D01*
X988648Y726289D01*
X988627Y726357D01*
X988603Y726424D01*
X988575Y726490D01*
X988544Y726554D01*
X988509Y726617D01*
X988471Y726677D01*
X988430Y726736D01*
X988386Y726792D01*
X988339Y726846D01*
X988290Y726897D01*
X988237Y726945D01*
X988182Y726991D01*
X988125Y727033D01*
X988065Y727073D01*
X988004Y727109D01*
X987940Y727142D01*
X987875Y727171D01*
X987809Y727197D01*
X987741Y727220D01*
X987672Y727239D01*
X987602Y727254D01*
X987532Y727265D01*
X987461Y727273D01*
X987390Y727277D01*
X987318Y727277D01*
X987247Y727273D01*
X987176Y727265D01*
X987106Y727254D01*
X987036Y727239D01*
X986967Y727220D01*
X986899Y727197D01*
X986833Y727171D01*
X986768Y727142D01*
X986704Y727109D01*
X986643Y727073D01*
X986583Y727033D01*
X986526Y726991D01*
X986471Y726945D01*
X986418Y726897D01*
X986369Y726846D01*
X986322Y726792D01*
X986278Y726736D01*
X986237Y726677D01*
X986199Y726617D01*
X986164Y726554D01*
X986133Y726490D01*
X986105Y726424D01*
X986081Y726357D01*
X986060Y726289D01*
X986043Y726219D01*
X986030Y726149D01*
X986021Y726079D01*
X986015Y726007D01*
X986013Y725936D01*
X983869Y726205D02*
X983869Y724596D01*
X983869Y726205D02*
X983871Y726270D01*
X983877Y726334D01*
X983887Y726398D01*
X983900Y726462D01*
X983918Y726524D01*
X983939Y726585D01*
X983963Y726645D01*
X983992Y726703D01*
X984024Y726760D01*
X984059Y726814D01*
X984097Y726866D01*
X984139Y726916D01*
X984183Y726963D01*
X984230Y727007D01*
X984280Y727049D01*
X984332Y727087D01*
X984386Y727122D01*
X984443Y727154D01*
X984501Y727183D01*
X984561Y727207D01*
X984622Y727228D01*
X984684Y727246D01*
X984748Y727259D01*
X984812Y727269D01*
X984876Y727275D01*
X984941Y727277D01*
X985006Y727275D01*
X985070Y727269D01*
X985134Y727259D01*
X985198Y727246D01*
X985260Y727228D01*
X985321Y727207D01*
X985381Y727183D01*
X985439Y727154D01*
X985496Y727122D01*
X985550Y727087D01*
X985602Y727049D01*
X985652Y727007D01*
X985699Y726963D01*
X985743Y726916D01*
X985785Y726866D01*
X985823Y726814D01*
X985858Y726760D01*
X985890Y726703D01*
X985919Y726645D01*
X985943Y726585D01*
X985964Y726524D01*
X985982Y726462D01*
X985995Y726398D01*
X986005Y726334D01*
X986011Y726270D01*
X986013Y726205D01*
X986014Y726205D02*
X986014Y725132D01*
X983869Y729814D02*
X988695Y731423D01*
X983869Y733031D01*
D11*
X990600Y648970D02*
X990600Y636270D01*
X990600Y648970D02*
X996950Y655320D01*
X1009650Y655320D02*
X1016000Y648970D01*
X996950Y655320D02*
X990600Y661670D01*
X990600Y674370D01*
X996950Y680720D01*
X1009650Y680720D02*
X1016000Y674370D01*
X1016000Y661670D01*
X1009650Y655320D01*
X1009650Y629920D02*
X996950Y629920D01*
X990600Y636270D01*
X1009650Y629920D02*
X1016000Y636270D01*
X1016000Y648970D01*
X1009650Y680720D02*
X996950Y680720D01*
D12*
X988695Y632164D02*
X988695Y630555D01*
X988695Y632164D02*
X988693Y632229D01*
X988687Y632293D01*
X988677Y632357D01*
X988664Y632421D01*
X988646Y632483D01*
X988625Y632544D01*
X988601Y632604D01*
X988572Y632662D01*
X988540Y632719D01*
X988505Y632773D01*
X988467Y632825D01*
X988425Y632875D01*
X988381Y632922D01*
X988334Y632966D01*
X988284Y633008D01*
X988232Y633046D01*
X988178Y633081D01*
X988121Y633113D01*
X988063Y633142D01*
X988003Y633166D01*
X987942Y633187D01*
X987880Y633205D01*
X987816Y633218D01*
X987752Y633228D01*
X987688Y633234D01*
X987623Y633236D01*
X987086Y633236D01*
X987021Y633234D01*
X986957Y633228D01*
X986893Y633218D01*
X986829Y633205D01*
X986767Y633187D01*
X986706Y633166D01*
X986646Y633142D01*
X986588Y633113D01*
X986531Y633081D01*
X986477Y633046D01*
X986425Y633008D01*
X986375Y632966D01*
X986328Y632922D01*
X986284Y632875D01*
X986242Y632825D01*
X986204Y632773D01*
X986169Y632719D01*
X986137Y632662D01*
X986108Y632604D01*
X986084Y632544D01*
X986063Y632483D01*
X986045Y632421D01*
X986032Y632357D01*
X986022Y632293D01*
X986016Y632229D01*
X986014Y632164D01*
X986014Y630555D01*
X983869Y630555D01*
X983869Y633236D01*
X983869Y635773D02*
X988695Y637382D01*
X983869Y638991D01*
D11*
X439066Y598380D02*
X327814Y598380D01*
X327814Y693730D01*
X338990Y693730D01*
X338990Y728528D01*
X427890Y728528D01*
X427890Y693730D01*
X439066Y693730D01*
X439066Y598380D01*
X439266Y173780D02*
X328014Y173780D01*
X439266Y173780D02*
X439266Y78430D01*
X428090Y78430D01*
X428090Y43632D01*
X339190Y43632D01*
X339190Y78430D01*
X328014Y78430D01*
X328014Y173780D01*
D13*
X386024Y555075D02*
X386024Y569976D01*
X393474Y562525D02*
X378573Y562525D01*
X386024Y219456D02*
X386024Y204555D01*
D12*
X378584Y733566D02*
X377244Y733566D01*
X378584Y733567D02*
X378655Y733565D01*
X378727Y733559D01*
X378797Y733550D01*
X378867Y733537D01*
X378937Y733520D01*
X379005Y733499D01*
X379072Y733475D01*
X379138Y733447D01*
X379202Y733416D01*
X379265Y733381D01*
X379325Y733343D01*
X379384Y733302D01*
X379440Y733258D01*
X379494Y733211D01*
X379545Y733162D01*
X379593Y733109D01*
X379639Y733054D01*
X379681Y732997D01*
X379721Y732937D01*
X379757Y732876D01*
X379790Y732812D01*
X379819Y732747D01*
X379845Y732681D01*
X379868Y732613D01*
X379887Y732544D01*
X379902Y732474D01*
X379913Y732404D01*
X379921Y732333D01*
X379925Y732262D01*
X379925Y732190D01*
X379921Y732119D01*
X379913Y732048D01*
X379902Y731978D01*
X379887Y731908D01*
X379868Y731839D01*
X379845Y731771D01*
X379819Y731705D01*
X379790Y731640D01*
X379757Y731576D01*
X379721Y731515D01*
X379681Y731455D01*
X379639Y731398D01*
X379593Y731343D01*
X379545Y731290D01*
X379494Y731241D01*
X379440Y731194D01*
X379384Y731150D01*
X379325Y731109D01*
X379265Y731071D01*
X379202Y731036D01*
X379138Y731005D01*
X379072Y730977D01*
X379005Y730953D01*
X378937Y730932D01*
X378867Y730915D01*
X378797Y730902D01*
X378727Y730893D01*
X378655Y730887D01*
X378584Y730885D01*
X377244Y730885D01*
X377244Y735711D01*
X378584Y735711D01*
X378649Y735709D01*
X378713Y735703D01*
X378777Y735693D01*
X378841Y735680D01*
X378903Y735662D01*
X378964Y735641D01*
X379024Y735617D01*
X379082Y735588D01*
X379139Y735556D01*
X379193Y735521D01*
X379245Y735483D01*
X379295Y735441D01*
X379342Y735397D01*
X379386Y735350D01*
X379428Y735300D01*
X379466Y735248D01*
X379501Y735194D01*
X379533Y735137D01*
X379562Y735079D01*
X379586Y735019D01*
X379607Y734958D01*
X379625Y734896D01*
X379638Y734832D01*
X379648Y734768D01*
X379654Y734704D01*
X379656Y734639D01*
X379654Y734574D01*
X379648Y734510D01*
X379638Y734446D01*
X379625Y734382D01*
X379607Y734320D01*
X379586Y734259D01*
X379562Y734199D01*
X379533Y734141D01*
X379501Y734084D01*
X379466Y734030D01*
X379428Y733978D01*
X379386Y733928D01*
X379342Y733881D01*
X379295Y733837D01*
X379245Y733795D01*
X379193Y733757D01*
X379139Y733722D01*
X379082Y733690D01*
X379024Y733661D01*
X378964Y733637D01*
X378903Y733616D01*
X378841Y733598D01*
X378777Y733585D01*
X378713Y733575D01*
X378649Y733569D01*
X378584Y733567D01*
X383375Y735711D02*
X383375Y730885D01*
X382035Y735711D02*
X384716Y735711D01*
X387155Y734639D02*
X388496Y735711D01*
X388496Y730885D01*
X389836Y730885D02*
X387155Y730885D01*
D11*
X197966Y173780D02*
X86714Y173780D01*
X197966Y173780D02*
X197966Y78430D01*
X186790Y78430D01*
X186790Y43632D01*
X97890Y43632D01*
X97890Y78430D01*
X86714Y78430D01*
X86714Y173780D01*
X86514Y598380D02*
X197766Y598380D01*
X86514Y598380D02*
X86514Y693730D01*
X97690Y693730D01*
X97690Y728528D01*
X186590Y728528D01*
X186590Y693730D01*
X197766Y693730D01*
X197766Y598380D01*
D13*
X144724Y217085D02*
X144724Y202184D01*
X152174Y209635D02*
X137273Y209635D01*
X144724Y552704D02*
X144724Y567605D01*
D12*
X137284Y39130D02*
X135944Y39130D01*
X137284Y39131D02*
X137355Y39129D01*
X137427Y39123D01*
X137497Y39114D01*
X137567Y39101D01*
X137637Y39084D01*
X137705Y39063D01*
X137772Y39039D01*
X137838Y39011D01*
X137902Y38980D01*
X137965Y38945D01*
X138025Y38907D01*
X138084Y38866D01*
X138140Y38822D01*
X138194Y38775D01*
X138245Y38726D01*
X138293Y38673D01*
X138339Y38618D01*
X138381Y38561D01*
X138421Y38501D01*
X138457Y38440D01*
X138490Y38376D01*
X138519Y38311D01*
X138545Y38245D01*
X138568Y38177D01*
X138587Y38108D01*
X138602Y38038D01*
X138613Y37968D01*
X138621Y37897D01*
X138625Y37826D01*
X138625Y37754D01*
X138621Y37683D01*
X138613Y37612D01*
X138602Y37542D01*
X138587Y37472D01*
X138568Y37403D01*
X138545Y37335D01*
X138519Y37269D01*
X138490Y37204D01*
X138457Y37140D01*
X138421Y37079D01*
X138381Y37019D01*
X138339Y36962D01*
X138293Y36907D01*
X138245Y36854D01*
X138194Y36805D01*
X138140Y36758D01*
X138084Y36714D01*
X138025Y36673D01*
X137965Y36635D01*
X137902Y36600D01*
X137838Y36569D01*
X137772Y36541D01*
X137705Y36517D01*
X137637Y36496D01*
X137567Y36479D01*
X137497Y36466D01*
X137427Y36457D01*
X137355Y36451D01*
X137284Y36449D01*
X135944Y36449D01*
X135944Y41275D01*
X137284Y41275D01*
X137349Y41273D01*
X137413Y41267D01*
X137477Y41257D01*
X137541Y41244D01*
X137603Y41226D01*
X137664Y41205D01*
X137724Y41181D01*
X137782Y41152D01*
X137839Y41120D01*
X137893Y41085D01*
X137945Y41047D01*
X137995Y41005D01*
X138042Y40961D01*
X138086Y40914D01*
X138128Y40864D01*
X138166Y40812D01*
X138201Y40758D01*
X138233Y40701D01*
X138262Y40643D01*
X138286Y40583D01*
X138307Y40522D01*
X138325Y40460D01*
X138338Y40396D01*
X138348Y40332D01*
X138354Y40268D01*
X138356Y40203D01*
X138354Y40138D01*
X138348Y40074D01*
X138338Y40010D01*
X138325Y39946D01*
X138307Y39884D01*
X138286Y39823D01*
X138262Y39763D01*
X138233Y39705D01*
X138201Y39648D01*
X138166Y39594D01*
X138128Y39542D01*
X138086Y39492D01*
X138042Y39445D01*
X137995Y39401D01*
X137945Y39359D01*
X137893Y39321D01*
X137839Y39286D01*
X137782Y39254D01*
X137724Y39225D01*
X137664Y39201D01*
X137603Y39180D01*
X137541Y39162D01*
X137477Y39149D01*
X137413Y39139D01*
X137349Y39133D01*
X137284Y39131D01*
X142075Y41275D02*
X142075Y36449D01*
X140735Y41275D02*
X143416Y41275D01*
X147330Y41275D02*
X147398Y41273D01*
X147465Y41267D01*
X147532Y41258D01*
X147599Y41245D01*
X147664Y41228D01*
X147729Y41207D01*
X147792Y41183D01*
X147854Y41155D01*
X147914Y41124D01*
X147972Y41090D01*
X148028Y41052D01*
X148083Y41012D01*
X148134Y40968D01*
X148183Y40921D01*
X148230Y40872D01*
X148274Y40821D01*
X148314Y40766D01*
X148352Y40710D01*
X148386Y40652D01*
X148417Y40592D01*
X148445Y40530D01*
X148469Y40467D01*
X148490Y40402D01*
X148507Y40337D01*
X148520Y40270D01*
X148529Y40203D01*
X148535Y40136D01*
X148537Y40068D01*
X147330Y41275D02*
X147252Y41273D01*
X147174Y41267D01*
X147097Y41257D01*
X147020Y41244D01*
X146944Y41226D01*
X146869Y41205D01*
X146795Y41180D01*
X146723Y41151D01*
X146652Y41119D01*
X146583Y41083D01*
X146515Y41044D01*
X146450Y41001D01*
X146387Y40955D01*
X146326Y40906D01*
X146268Y40854D01*
X146213Y40799D01*
X146160Y40742D01*
X146111Y40682D01*
X146064Y40619D01*
X146021Y40555D01*
X145981Y40488D01*
X145944Y40419D01*
X145911Y40348D01*
X145881Y40276D01*
X145855Y40203D01*
X148135Y39130D02*
X148184Y39179D01*
X148231Y39231D01*
X148274Y39286D01*
X148315Y39343D01*
X148353Y39402D01*
X148387Y39463D01*
X148418Y39526D01*
X148446Y39590D01*
X148470Y39656D01*
X148490Y39722D01*
X148507Y39790D01*
X148520Y39859D01*
X148529Y39928D01*
X148535Y39998D01*
X148537Y40068D01*
X148134Y39130D02*
X145855Y36449D01*
X148536Y36449D01*
D11*
X919480Y666750D02*
X919480Y679450D01*
X919480Y692150D02*
X919480Y704850D01*
X913130Y698500D02*
X925830Y698500D01*
X904760Y685800D02*
X904770Y686598D01*
X904799Y687395D01*
X904848Y688191D01*
X904916Y688986D01*
X905004Y689778D01*
X905112Y690569D01*
X905238Y691356D01*
X905384Y692140D01*
X905550Y692921D01*
X905734Y693697D01*
X905937Y694468D01*
X906159Y695234D01*
X906400Y695995D01*
X906660Y696749D01*
X906938Y697497D01*
X907234Y698237D01*
X907548Y698970D01*
X907880Y699696D01*
X908230Y700412D01*
X908598Y701120D01*
X908982Y701819D01*
X909384Y702508D01*
X909802Y703187D01*
X910237Y703856D01*
X910688Y704514D01*
X911156Y705160D01*
X911639Y705795D01*
X912137Y706418D01*
X912651Y707028D01*
X913179Y707626D01*
X913722Y708210D01*
X914279Y708781D01*
X914850Y709338D01*
X915434Y709881D01*
X916032Y710409D01*
X916642Y710923D01*
X917265Y711421D01*
X917900Y711904D01*
X918546Y712372D01*
X919204Y712823D01*
X919873Y713258D01*
X920552Y713676D01*
X921241Y714078D01*
X921940Y714462D01*
X922648Y714830D01*
X923364Y715180D01*
X924090Y715512D01*
X924823Y715826D01*
X925563Y716122D01*
X926311Y716400D01*
X927065Y716660D01*
X927826Y716901D01*
X928592Y717123D01*
X929363Y717326D01*
X930139Y717510D01*
X930920Y717676D01*
X931704Y717822D01*
X932491Y717948D01*
X933282Y718056D01*
X934074Y718144D01*
X934869Y718212D01*
X935665Y718261D01*
X936462Y718290D01*
X937260Y718300D01*
X938058Y718290D01*
X938855Y718261D01*
X939651Y718212D01*
X940446Y718144D01*
X941238Y718056D01*
X942029Y717948D01*
X942816Y717822D01*
X943600Y717676D01*
X944381Y717510D01*
X945157Y717326D01*
X945928Y717123D01*
X946694Y716901D01*
X947455Y716660D01*
X948209Y716400D01*
X948957Y716122D01*
X949697Y715826D01*
X950430Y715512D01*
X951156Y715180D01*
X951872Y714830D01*
X952580Y714462D01*
X953279Y714078D01*
X953968Y713676D01*
X954647Y713258D01*
X955316Y712823D01*
X955974Y712372D01*
X956620Y711904D01*
X957255Y711421D01*
X957878Y710923D01*
X958488Y710409D01*
X959086Y709881D01*
X959670Y709338D01*
X960241Y708781D01*
X960798Y708210D01*
X961341Y707626D01*
X961869Y707028D01*
X962383Y706418D01*
X962881Y705795D01*
X963364Y705160D01*
X963832Y704514D01*
X964283Y703856D01*
X964718Y703187D01*
X965136Y702508D01*
X965538Y701819D01*
X965922Y701120D01*
X966290Y700412D01*
X966640Y699696D01*
X966972Y698970D01*
X967286Y698237D01*
X967582Y697497D01*
X967860Y696749D01*
X968120Y695995D01*
X968361Y695234D01*
X968583Y694468D01*
X968786Y693697D01*
X968970Y692921D01*
X969136Y692140D01*
X969282Y691356D01*
X969408Y690569D01*
X969516Y689778D01*
X969604Y688986D01*
X969672Y688191D01*
X969721Y687395D01*
X969750Y686598D01*
X969760Y685800D01*
X969750Y685002D01*
X969721Y684205D01*
X969672Y683409D01*
X969604Y682614D01*
X969516Y681822D01*
X969408Y681031D01*
X969282Y680244D01*
X969136Y679460D01*
X968970Y678679D01*
X968786Y677903D01*
X968583Y677132D01*
X968361Y676366D01*
X968120Y675605D01*
X967860Y674851D01*
X967582Y674103D01*
X967286Y673363D01*
X966972Y672630D01*
X966640Y671904D01*
X966290Y671188D01*
X965922Y670480D01*
X965538Y669781D01*
X965136Y669092D01*
X964718Y668413D01*
X964283Y667744D01*
X963832Y667086D01*
X963364Y666440D01*
X962881Y665805D01*
X962383Y665182D01*
X961869Y664572D01*
X961341Y663974D01*
X960798Y663390D01*
X960241Y662819D01*
X959670Y662262D01*
X959086Y661719D01*
X958488Y661191D01*
X957878Y660677D01*
X957255Y660179D01*
X956620Y659696D01*
X955974Y659228D01*
X955316Y658777D01*
X954647Y658342D01*
X953968Y657924D01*
X953279Y657522D01*
X952580Y657138D01*
X951872Y656770D01*
X951156Y656420D01*
X950430Y656088D01*
X949697Y655774D01*
X948957Y655478D01*
X948209Y655200D01*
X947455Y654940D01*
X946694Y654699D01*
X945928Y654477D01*
X945157Y654274D01*
X944381Y654090D01*
X943600Y653924D01*
X942816Y653778D01*
X942029Y653652D01*
X941238Y653544D01*
X940446Y653456D01*
X939651Y653388D01*
X938855Y653339D01*
X938058Y653310D01*
X937260Y653300D01*
X936462Y653310D01*
X935665Y653339D01*
X934869Y653388D01*
X934074Y653456D01*
X933282Y653544D01*
X932491Y653652D01*
X931704Y653778D01*
X930920Y653924D01*
X930139Y654090D01*
X929363Y654274D01*
X928592Y654477D01*
X927826Y654699D01*
X927065Y654940D01*
X926311Y655200D01*
X925563Y655478D01*
X924823Y655774D01*
X924090Y656088D01*
X923364Y656420D01*
X922648Y656770D01*
X921940Y657138D01*
X921241Y657522D01*
X920552Y657924D01*
X919873Y658342D01*
X919204Y658777D01*
X918546Y659228D01*
X917900Y659696D01*
X917265Y660179D01*
X916642Y660677D01*
X916032Y661191D01*
X915434Y661719D01*
X914850Y662262D01*
X914279Y662819D01*
X913722Y663390D01*
X913179Y663974D01*
X912651Y664572D01*
X912137Y665182D01*
X911639Y665805D01*
X911156Y666440D01*
X910688Y667086D01*
X910237Y667744D01*
X909802Y668413D01*
X909384Y669092D01*
X908982Y669781D01*
X908598Y670480D01*
X908230Y671188D01*
X907880Y671904D01*
X907548Y672630D01*
X907234Y673363D01*
X906938Y674103D01*
X906660Y674851D01*
X906400Y675605D01*
X906159Y676366D01*
X905937Y677132D01*
X905734Y677903D01*
X905550Y678679D01*
X905384Y679460D01*
X905238Y680244D01*
X905112Y681031D01*
X905004Y681822D01*
X904916Y682614D01*
X904848Y683409D01*
X904799Y684205D01*
X904770Y685002D01*
X904760Y685800D01*
D12*
X902335Y684304D02*
X902335Y683232D01*
X902333Y683167D01*
X902327Y683103D01*
X902317Y683039D01*
X902304Y682975D01*
X902286Y682913D01*
X902265Y682852D01*
X902241Y682792D01*
X902212Y682734D01*
X902180Y682677D01*
X902145Y682623D01*
X902107Y682571D01*
X902065Y682521D01*
X902021Y682474D01*
X901974Y682430D01*
X901924Y682388D01*
X901872Y682350D01*
X901818Y682315D01*
X901761Y682283D01*
X901703Y682254D01*
X901643Y682230D01*
X901582Y682209D01*
X901520Y682191D01*
X901456Y682178D01*
X901392Y682168D01*
X901328Y682162D01*
X901263Y682160D01*
X901263Y682159D02*
X898581Y682159D01*
X898516Y682161D01*
X898452Y682167D01*
X898388Y682177D01*
X898324Y682190D01*
X898262Y682208D01*
X898201Y682229D01*
X898141Y682254D01*
X898082Y682282D01*
X898026Y682314D01*
X897971Y682349D01*
X897919Y682387D01*
X897869Y682429D01*
X897822Y682473D01*
X897778Y682520D01*
X897736Y682570D01*
X897698Y682622D01*
X897663Y682677D01*
X897631Y682733D01*
X897603Y682792D01*
X897578Y682851D01*
X897557Y682913D01*
X897539Y682975D01*
X897526Y683039D01*
X897516Y683103D01*
X897510Y683167D01*
X897508Y683232D01*
X897509Y683232D02*
X897509Y684304D01*
X897509Y687832D02*
X901263Y686760D01*
X901263Y689441D01*
X900190Y688637D02*
X902335Y688637D01*
D11*
X915670Y767080D02*
X928370Y767080D01*
X934720Y760730D01*
X934720Y748030D02*
X928370Y741680D01*
X934720Y760730D02*
X941070Y767080D01*
X953770Y767080D01*
X960120Y760730D01*
X960120Y748030D02*
X953770Y741680D01*
X941070Y741680D01*
X934720Y748030D01*
X909320Y748030D02*
X909320Y760730D01*
X915670Y767080D01*
X909320Y748030D02*
X915670Y741680D01*
X928370Y741680D01*
X960120Y748030D02*
X960120Y760730D01*
D12*
X911564Y770057D02*
X911564Y773811D01*
X911563Y770057D02*
X911561Y769992D01*
X911555Y769928D01*
X911545Y769864D01*
X911532Y769800D01*
X911514Y769738D01*
X911493Y769677D01*
X911469Y769617D01*
X911440Y769559D01*
X911408Y769502D01*
X911373Y769448D01*
X911335Y769396D01*
X911293Y769346D01*
X911249Y769299D01*
X911202Y769255D01*
X911152Y769213D01*
X911100Y769175D01*
X911046Y769140D01*
X910989Y769108D01*
X910931Y769079D01*
X910871Y769055D01*
X910810Y769034D01*
X910748Y769016D01*
X910684Y769003D01*
X910620Y768993D01*
X910556Y768987D01*
X910491Y768985D01*
X909955Y768985D01*
X914512Y772739D02*
X915852Y773811D01*
X915852Y768985D01*
X914512Y768985D02*
X917193Y768985D01*
D11*
X801370Y723900D02*
X801370Y622300D01*
X801370Y723900D02*
X839470Y723900D01*
X845820Y723900D01*
X845820Y622300D01*
X839470Y622300D01*
X801370Y622300D01*
X839470Y622300D02*
X839470Y723900D01*
X628650Y721360D02*
X628650Y619760D01*
X590550Y619760D01*
X584200Y619760D01*
X584200Y721360D01*
X590550Y721360D01*
X628650Y721360D01*
X590550Y721360D02*
X590550Y619760D01*
D10*
X911860Y416560D02*
X914400Y416560D01*
X911860Y416560D02*
X911860Y401320D01*
X914400Y401320D01*
X975360Y401320D02*
X977900Y401320D01*
X977900Y416560D01*
X975360Y416560D01*
D14*
X957580Y381000D02*
X957580Y378460D01*
X957580Y381000D02*
X932180Y381000D01*
X932180Y378460D01*
X933450Y436880D02*
X957580Y436880D01*
X933450Y436880D02*
X933450Y439420D01*
X957580Y439420D02*
X957580Y436880D01*
D10*
X957580Y439420D02*
X966470Y439420D01*
X932180Y378460D02*
X923290Y378460D01*
X932180Y378460D02*
X957580Y378460D01*
X966470Y378460D01*
X957580Y439420D02*
X933450Y439420D01*
X923290Y439420D01*
X914400Y419100D02*
X914400Y416560D01*
X914400Y401320D02*
X914400Y398780D01*
X975360Y416560D02*
X975360Y419100D01*
X975360Y401320D02*
X975360Y398780D01*
X927100Y408940D02*
X927105Y409376D01*
X927121Y409812D01*
X927148Y410248D01*
X927186Y410683D01*
X927234Y411116D01*
X927292Y411549D01*
X927362Y411980D01*
X927442Y412409D01*
X927532Y412836D01*
X927633Y413260D01*
X927744Y413682D01*
X927866Y414101D01*
X927997Y414517D01*
X928139Y414930D01*
X928291Y415339D01*
X928453Y415744D01*
X928625Y416145D01*
X928807Y416542D01*
X928998Y416934D01*
X929199Y417321D01*
X929410Y417704D01*
X929630Y418081D01*
X929859Y418452D01*
X930096Y418818D01*
X930343Y419178D01*
X930599Y419532D01*
X930863Y419879D01*
X931136Y420220D01*
X931417Y420553D01*
X931706Y420880D01*
X932003Y421200D01*
X932308Y421512D01*
X932620Y421817D01*
X932940Y422114D01*
X933267Y422403D01*
X933600Y422684D01*
X933941Y422957D01*
X934288Y423221D01*
X934642Y423477D01*
X935002Y423724D01*
X935368Y423961D01*
X935739Y424190D01*
X936116Y424410D01*
X936499Y424621D01*
X936886Y424822D01*
X937278Y425013D01*
X937675Y425195D01*
X938076Y425367D01*
X938481Y425529D01*
X938890Y425681D01*
X939303Y425823D01*
X939719Y425954D01*
X940138Y426076D01*
X940560Y426187D01*
X940984Y426288D01*
X941411Y426378D01*
X941840Y426458D01*
X942271Y426528D01*
X942704Y426586D01*
X943137Y426634D01*
X943572Y426672D01*
X944008Y426699D01*
X944444Y426715D01*
X944880Y426720D01*
X945316Y426715D01*
X945752Y426699D01*
X946188Y426672D01*
X946623Y426634D01*
X947056Y426586D01*
X947489Y426528D01*
X947920Y426458D01*
X948349Y426378D01*
X948776Y426288D01*
X949200Y426187D01*
X949622Y426076D01*
X950041Y425954D01*
X950457Y425823D01*
X950870Y425681D01*
X951279Y425529D01*
X951684Y425367D01*
X952085Y425195D01*
X952482Y425013D01*
X952874Y424822D01*
X953261Y424621D01*
X953644Y424410D01*
X954021Y424190D01*
X954392Y423961D01*
X954758Y423724D01*
X955118Y423477D01*
X955472Y423221D01*
X955819Y422957D01*
X956160Y422684D01*
X956493Y422403D01*
X956820Y422114D01*
X957140Y421817D01*
X957452Y421512D01*
X957757Y421200D01*
X958054Y420880D01*
X958343Y420553D01*
X958624Y420220D01*
X958897Y419879D01*
X959161Y419532D01*
X959417Y419178D01*
X959664Y418818D01*
X959901Y418452D01*
X960130Y418081D01*
X960350Y417704D01*
X960561Y417321D01*
X960762Y416934D01*
X960953Y416542D01*
X961135Y416145D01*
X961307Y415744D01*
X961469Y415339D01*
X961621Y414930D01*
X961763Y414517D01*
X961894Y414101D01*
X962016Y413682D01*
X962127Y413260D01*
X962228Y412836D01*
X962318Y412409D01*
X962398Y411980D01*
X962468Y411549D01*
X962526Y411116D01*
X962574Y410683D01*
X962612Y410248D01*
X962639Y409812D01*
X962655Y409376D01*
X962660Y408940D01*
X962655Y408504D01*
X962639Y408068D01*
X962612Y407632D01*
X962574Y407197D01*
X962526Y406764D01*
X962468Y406331D01*
X962398Y405900D01*
X962318Y405471D01*
X962228Y405044D01*
X962127Y404620D01*
X962016Y404198D01*
X961894Y403779D01*
X961763Y403363D01*
X961621Y402950D01*
X961469Y402541D01*
X961307Y402136D01*
X961135Y401735D01*
X960953Y401338D01*
X960762Y400946D01*
X960561Y400559D01*
X960350Y400176D01*
X960130Y399799D01*
X959901Y399428D01*
X959664Y399062D01*
X959417Y398702D01*
X959161Y398348D01*
X958897Y398001D01*
X958624Y397660D01*
X958343Y397327D01*
X958054Y397000D01*
X957757Y396680D01*
X957452Y396368D01*
X957140Y396063D01*
X956820Y395766D01*
X956493Y395477D01*
X956160Y395196D01*
X955819Y394923D01*
X955472Y394659D01*
X955118Y394403D01*
X954758Y394156D01*
X954392Y393919D01*
X954021Y393690D01*
X953644Y393470D01*
X953261Y393259D01*
X952874Y393058D01*
X952482Y392867D01*
X952085Y392685D01*
X951684Y392513D01*
X951279Y392351D01*
X950870Y392199D01*
X950457Y392057D01*
X950041Y391926D01*
X949622Y391804D01*
X949200Y391693D01*
X948776Y391592D01*
X948349Y391502D01*
X947920Y391422D01*
X947489Y391352D01*
X947056Y391294D01*
X946623Y391246D01*
X946188Y391208D01*
X945752Y391181D01*
X945316Y391165D01*
X944880Y391160D01*
X944444Y391165D01*
X944008Y391181D01*
X943572Y391208D01*
X943137Y391246D01*
X942704Y391294D01*
X942271Y391352D01*
X941840Y391422D01*
X941411Y391502D01*
X940984Y391592D01*
X940560Y391693D01*
X940138Y391804D01*
X939719Y391926D01*
X939303Y392057D01*
X938890Y392199D01*
X938481Y392351D01*
X938076Y392513D01*
X937675Y392685D01*
X937278Y392867D01*
X936886Y393058D01*
X936499Y393259D01*
X936116Y393470D01*
X935739Y393690D01*
X935368Y393919D01*
X935002Y394156D01*
X934642Y394403D01*
X934288Y394659D01*
X933941Y394923D01*
X933600Y395196D01*
X933267Y395477D01*
X932940Y395766D01*
X932620Y396063D01*
X932308Y396368D01*
X932003Y396680D01*
X931706Y397000D01*
X931417Y397327D01*
X931136Y397660D01*
X930863Y398001D01*
X930599Y398348D01*
X930343Y398702D01*
X930096Y399062D01*
X929859Y399428D01*
X929630Y399799D01*
X929410Y400176D01*
X929199Y400559D01*
X928998Y400946D01*
X928807Y401338D01*
X928625Y401735D01*
X928453Y402136D01*
X928291Y402541D01*
X928139Y402950D01*
X927997Y403363D01*
X927866Y403779D01*
X927744Y404198D01*
X927633Y404620D01*
X927532Y405044D01*
X927442Y405471D01*
X927362Y405900D01*
X927292Y406331D01*
X927234Y406764D01*
X927186Y407197D01*
X927148Y407632D01*
X927121Y408068D01*
X927105Y408504D01*
X927100Y408940D01*
X942340Y408940D02*
X942342Y409040D01*
X942348Y409141D01*
X942358Y409240D01*
X942372Y409340D01*
X942389Y409439D01*
X942411Y409537D01*
X942437Y409634D01*
X942466Y409730D01*
X942499Y409824D01*
X942536Y409918D01*
X942576Y410010D01*
X942620Y410100D01*
X942668Y410188D01*
X942719Y410275D01*
X942773Y410359D01*
X942831Y410441D01*
X942892Y410521D01*
X942956Y410598D01*
X943023Y410673D01*
X943093Y410745D01*
X943166Y410814D01*
X943241Y410880D01*
X943319Y410944D01*
X943399Y411004D01*
X943482Y411061D01*
X943567Y411114D01*
X943654Y411164D01*
X943743Y411211D01*
X943833Y411254D01*
X943925Y411294D01*
X944019Y411330D01*
X944114Y411362D01*
X944210Y411390D01*
X944308Y411415D01*
X944406Y411435D01*
X944505Y411452D01*
X944605Y411465D01*
X944704Y411474D01*
X944805Y411479D01*
X944905Y411480D01*
X945005Y411477D01*
X945106Y411470D01*
X945205Y411459D01*
X945305Y411444D01*
X945403Y411426D01*
X945501Y411403D01*
X945598Y411376D01*
X945693Y411346D01*
X945788Y411312D01*
X945881Y411274D01*
X945972Y411233D01*
X946062Y411188D01*
X946150Y411140D01*
X946236Y411088D01*
X946320Y411033D01*
X946401Y410974D01*
X946480Y410912D01*
X946557Y410848D01*
X946631Y410780D01*
X946702Y410709D01*
X946771Y410636D01*
X946836Y410560D01*
X946899Y410481D01*
X946958Y410400D01*
X947014Y410317D01*
X947067Y410232D01*
X947116Y410144D01*
X947162Y410055D01*
X947204Y409964D01*
X947243Y409871D01*
X947278Y409777D01*
X947309Y409682D01*
X947337Y409585D01*
X947360Y409488D01*
X947380Y409389D01*
X947396Y409290D01*
X947408Y409191D01*
X947416Y409090D01*
X947420Y408990D01*
X947420Y408890D01*
X947416Y408790D01*
X947408Y408689D01*
X947396Y408590D01*
X947380Y408491D01*
X947360Y408392D01*
X947337Y408295D01*
X947309Y408198D01*
X947278Y408103D01*
X947243Y408009D01*
X947204Y407916D01*
X947162Y407825D01*
X947116Y407736D01*
X947067Y407648D01*
X947014Y407563D01*
X946958Y407480D01*
X946899Y407399D01*
X946836Y407320D01*
X946771Y407244D01*
X946702Y407171D01*
X946631Y407100D01*
X946557Y407032D01*
X946480Y406968D01*
X946401Y406906D01*
X946320Y406847D01*
X946236Y406792D01*
X946150Y406740D01*
X946062Y406692D01*
X945972Y406647D01*
X945881Y406606D01*
X945788Y406568D01*
X945693Y406534D01*
X945598Y406504D01*
X945501Y406477D01*
X945403Y406454D01*
X945305Y406436D01*
X945205Y406421D01*
X945106Y406410D01*
X945005Y406403D01*
X944905Y406400D01*
X944805Y406401D01*
X944704Y406406D01*
X944605Y406415D01*
X944505Y406428D01*
X944406Y406445D01*
X944308Y406465D01*
X944210Y406490D01*
X944114Y406518D01*
X944019Y406550D01*
X943925Y406586D01*
X943833Y406626D01*
X943743Y406669D01*
X943654Y406716D01*
X943567Y406766D01*
X943482Y406819D01*
X943399Y406876D01*
X943319Y406936D01*
X943241Y407000D01*
X943166Y407066D01*
X943093Y407135D01*
X943023Y407207D01*
X942956Y407282D01*
X942892Y407359D01*
X942831Y407439D01*
X942773Y407521D01*
X942719Y407605D01*
X942668Y407692D01*
X942620Y407780D01*
X942576Y407870D01*
X942536Y407962D01*
X942499Y408056D01*
X942466Y408150D01*
X942437Y408246D01*
X942411Y408343D01*
X942389Y408441D01*
X942372Y408540D01*
X942358Y408640D01*
X942348Y408739D01*
X942342Y408840D01*
X942340Y408940D01*
D12*
X963676Y362585D02*
X963674Y362485D01*
X963668Y362386D01*
X963658Y362286D01*
X963645Y362188D01*
X963627Y362089D01*
X963606Y361992D01*
X963581Y361896D01*
X963552Y361800D01*
X963519Y361706D01*
X963483Y361613D01*
X963443Y361522D01*
X963399Y361432D01*
X963352Y361344D01*
X963302Y361258D01*
X963248Y361174D01*
X963191Y361092D01*
X963131Y361013D01*
X963067Y360935D01*
X963001Y360861D01*
X962932Y360789D01*
X962860Y360720D01*
X962786Y360654D01*
X962708Y360590D01*
X962629Y360530D01*
X962547Y360473D01*
X962463Y360419D01*
X962377Y360369D01*
X962289Y360322D01*
X962199Y360278D01*
X962108Y360238D01*
X962015Y360202D01*
X961921Y360169D01*
X961825Y360140D01*
X961729Y360115D01*
X961632Y360094D01*
X961533Y360076D01*
X961435Y360063D01*
X961335Y360053D01*
X961236Y360047D01*
X961136Y360045D01*
X960995Y360047D01*
X960854Y360052D01*
X960713Y360062D01*
X960572Y360075D01*
X960432Y360091D01*
X960292Y360112D01*
X960153Y360136D01*
X960014Y360164D01*
X959877Y360195D01*
X959740Y360230D01*
X959604Y360268D01*
X959469Y360310D01*
X959336Y360356D01*
X959203Y360405D01*
X959072Y360458D01*
X958943Y360514D01*
X958814Y360573D01*
X958688Y360636D01*
X958563Y360702D01*
X958440Y360771D01*
X958319Y360844D01*
X958200Y360920D01*
X958082Y360999D01*
X957967Y361080D01*
X957855Y361165D01*
X957744Y361253D01*
X957636Y361344D01*
X957530Y361437D01*
X957427Y361534D01*
X957326Y361633D01*
X957644Y368935D02*
X957646Y369035D01*
X957652Y369134D01*
X957662Y369234D01*
X957675Y369332D01*
X957693Y369431D01*
X957714Y369528D01*
X957739Y369624D01*
X957768Y369720D01*
X957801Y369814D01*
X957837Y369907D01*
X957877Y369998D01*
X957921Y370088D01*
X957968Y370176D01*
X958018Y370262D01*
X958072Y370346D01*
X958129Y370428D01*
X958189Y370507D01*
X958253Y370585D01*
X958319Y370659D01*
X958388Y370731D01*
X958460Y370800D01*
X958534Y370866D01*
X958612Y370930D01*
X958691Y370990D01*
X958773Y371047D01*
X958857Y371101D01*
X958943Y371151D01*
X959031Y371198D01*
X959121Y371242D01*
X959212Y371282D01*
X959305Y371318D01*
X959399Y371351D01*
X959495Y371380D01*
X959591Y371405D01*
X959688Y371426D01*
X959787Y371444D01*
X959885Y371457D01*
X959985Y371467D01*
X960084Y371473D01*
X960184Y371475D01*
X960184Y371476D02*
X960317Y371474D01*
X960450Y371469D01*
X960583Y371459D01*
X960716Y371446D01*
X960848Y371429D01*
X960980Y371409D01*
X961111Y371385D01*
X961241Y371357D01*
X961371Y371326D01*
X961499Y371291D01*
X961627Y371252D01*
X961753Y371210D01*
X961878Y371164D01*
X962002Y371115D01*
X962125Y371063D01*
X962246Y371007D01*
X962365Y370947D01*
X962483Y370885D01*
X962598Y370819D01*
X962712Y370750D01*
X962824Y370677D01*
X962934Y370602D01*
X963042Y370523D01*
X958913Y366712D02*
X958829Y366764D01*
X958746Y366819D01*
X958666Y366878D01*
X958588Y366939D01*
X958513Y367003D01*
X958440Y367071D01*
X958369Y367141D01*
X958302Y367213D01*
X958237Y367288D01*
X958175Y367366D01*
X958116Y367446D01*
X958060Y367528D01*
X958008Y367612D01*
X957959Y367698D01*
X957913Y367786D01*
X957870Y367876D01*
X957831Y367967D01*
X957796Y368060D01*
X957764Y368154D01*
X957736Y368249D01*
X957711Y368345D01*
X957691Y368442D01*
X957673Y368540D01*
X957660Y368638D01*
X957651Y368737D01*
X957645Y368836D01*
X957643Y368935D01*
X962406Y364808D02*
X962490Y364756D01*
X962573Y364701D01*
X962653Y364642D01*
X962731Y364581D01*
X962806Y364517D01*
X962879Y364449D01*
X962950Y364379D01*
X963017Y364307D01*
X963082Y364232D01*
X963144Y364154D01*
X963203Y364074D01*
X963259Y363992D01*
X963311Y363908D01*
X963360Y363822D01*
X963406Y363734D01*
X963449Y363644D01*
X963488Y363553D01*
X963523Y363460D01*
X963555Y363366D01*
X963583Y363271D01*
X963608Y363175D01*
X963628Y363078D01*
X963646Y362980D01*
X963659Y362882D01*
X963668Y362783D01*
X963674Y362684D01*
X963676Y362585D01*
X962406Y364808D02*
X958914Y366713D01*
X971868Y371476D02*
X971972Y371474D01*
X972077Y371468D01*
X972181Y371459D01*
X972284Y371446D01*
X972387Y371428D01*
X972489Y371408D01*
X972591Y371383D01*
X972691Y371355D01*
X972791Y371323D01*
X972889Y371287D01*
X972986Y371248D01*
X973081Y371206D01*
X973175Y371160D01*
X973267Y371110D01*
X973357Y371058D01*
X973445Y371002D01*
X973531Y370942D01*
X973615Y370880D01*
X973696Y370815D01*
X973775Y370747D01*
X973852Y370675D01*
X973925Y370602D01*
X973997Y370525D01*
X974065Y370446D01*
X974130Y370365D01*
X974192Y370281D01*
X974252Y370195D01*
X974308Y370107D01*
X974360Y370017D01*
X974410Y369925D01*
X974456Y369831D01*
X974498Y369736D01*
X974537Y369639D01*
X974573Y369541D01*
X974605Y369441D01*
X974633Y369341D01*
X974658Y369239D01*
X974678Y369137D01*
X974696Y369034D01*
X974709Y368931D01*
X974718Y368827D01*
X974724Y368722D01*
X974726Y368618D01*
X971868Y371475D02*
X971750Y371473D01*
X971631Y371467D01*
X971513Y371458D01*
X971396Y371445D01*
X971279Y371427D01*
X971162Y371407D01*
X971046Y371382D01*
X970931Y371354D01*
X970818Y371321D01*
X970705Y371286D01*
X970593Y371246D01*
X970483Y371204D01*
X970374Y371157D01*
X970266Y371107D01*
X970161Y371054D01*
X970057Y370997D01*
X969955Y370937D01*
X969855Y370874D01*
X969757Y370807D01*
X969661Y370738D01*
X969568Y370665D01*
X969477Y370589D01*
X969388Y370511D01*
X969302Y370429D01*
X969219Y370345D01*
X969138Y370259D01*
X969061Y370169D01*
X968986Y370078D01*
X968914Y369984D01*
X968845Y369887D01*
X968780Y369789D01*
X968717Y369688D01*
X968658Y369585D01*
X968602Y369481D01*
X968550Y369375D01*
X968501Y369267D01*
X968456Y369158D01*
X968414Y369047D01*
X968376Y368935D01*
X973773Y366396D02*
X973849Y366471D01*
X973924Y366550D01*
X973995Y366631D01*
X974064Y366715D01*
X974129Y366801D01*
X974191Y366889D01*
X974251Y366979D01*
X974307Y367071D01*
X974360Y367166D01*
X974409Y367262D01*
X974455Y367360D01*
X974498Y367459D01*
X974537Y367560D01*
X974572Y367662D01*
X974604Y367765D01*
X974632Y367869D01*
X974657Y367974D01*
X974678Y368081D01*
X974695Y368187D01*
X974708Y368294D01*
X974717Y368402D01*
X974723Y368510D01*
X974725Y368618D01*
X973773Y366395D02*
X968375Y360045D01*
X974725Y360045D01*
D15*
X814150Y440480D02*
X814152Y440543D01*
X814158Y440605D01*
X814168Y440667D01*
X814181Y440729D01*
X814199Y440789D01*
X814220Y440848D01*
X814245Y440906D01*
X814274Y440962D01*
X814306Y441016D01*
X814341Y441068D01*
X814379Y441117D01*
X814421Y441165D01*
X814465Y441209D01*
X814513Y441251D01*
X814562Y441289D01*
X814614Y441324D01*
X814668Y441356D01*
X814724Y441385D01*
X814782Y441410D01*
X814841Y441431D01*
X814901Y441449D01*
X814963Y441462D01*
X815025Y441472D01*
X815087Y441478D01*
X815150Y441480D01*
X815213Y441478D01*
X815275Y441472D01*
X815337Y441462D01*
X815399Y441449D01*
X815459Y441431D01*
X815518Y441410D01*
X815576Y441385D01*
X815632Y441356D01*
X815686Y441324D01*
X815738Y441289D01*
X815787Y441251D01*
X815835Y441209D01*
X815879Y441165D01*
X815921Y441117D01*
X815959Y441068D01*
X815994Y441016D01*
X816026Y440962D01*
X816055Y440906D01*
X816080Y440848D01*
X816101Y440789D01*
X816119Y440729D01*
X816132Y440667D01*
X816142Y440605D01*
X816148Y440543D01*
X816150Y440480D01*
X816148Y440417D01*
X816142Y440355D01*
X816132Y440293D01*
X816119Y440231D01*
X816101Y440171D01*
X816080Y440112D01*
X816055Y440054D01*
X816026Y439998D01*
X815994Y439944D01*
X815959Y439892D01*
X815921Y439843D01*
X815879Y439795D01*
X815835Y439751D01*
X815787Y439709D01*
X815738Y439671D01*
X815686Y439636D01*
X815632Y439604D01*
X815576Y439575D01*
X815518Y439550D01*
X815459Y439529D01*
X815399Y439511D01*
X815337Y439498D01*
X815275Y439488D01*
X815213Y439482D01*
X815150Y439480D01*
X815087Y439482D01*
X815025Y439488D01*
X814963Y439498D01*
X814901Y439511D01*
X814841Y439529D01*
X814782Y439550D01*
X814724Y439575D01*
X814668Y439604D01*
X814614Y439636D01*
X814562Y439671D01*
X814513Y439709D01*
X814465Y439751D01*
X814421Y439795D01*
X814379Y439843D01*
X814341Y439892D01*
X814306Y439944D01*
X814274Y439998D01*
X814245Y440054D01*
X814220Y440112D01*
X814199Y440171D01*
X814181Y440231D01*
X814168Y440293D01*
X814158Y440355D01*
X814152Y440417D01*
X814150Y440480D01*
D16*
X805630Y423210D02*
X805632Y423281D01*
X805638Y423352D01*
X805648Y423423D01*
X805662Y423493D01*
X805680Y423562D01*
X805701Y423629D01*
X805727Y423696D01*
X805756Y423761D01*
X805788Y423824D01*
X805825Y423886D01*
X805864Y423945D01*
X805907Y424002D01*
X805953Y424056D01*
X806002Y424108D01*
X806054Y424157D01*
X806108Y424203D01*
X806165Y424246D01*
X806224Y424285D01*
X806286Y424322D01*
X806349Y424354D01*
X806414Y424383D01*
X806481Y424409D01*
X806548Y424430D01*
X806617Y424448D01*
X806687Y424462D01*
X806758Y424472D01*
X806829Y424478D01*
X806900Y424480D01*
X806971Y424478D01*
X807042Y424472D01*
X807113Y424462D01*
X807183Y424448D01*
X807252Y424430D01*
X807319Y424409D01*
X807386Y424383D01*
X807451Y424354D01*
X807514Y424322D01*
X807576Y424285D01*
X807635Y424246D01*
X807692Y424203D01*
X807746Y424157D01*
X807798Y424108D01*
X807847Y424056D01*
X807893Y424002D01*
X807936Y423945D01*
X807975Y423886D01*
X808012Y423824D01*
X808044Y423761D01*
X808073Y423696D01*
X808099Y423629D01*
X808120Y423562D01*
X808138Y423493D01*
X808152Y423423D01*
X808162Y423352D01*
X808168Y423281D01*
X808170Y423210D01*
X808168Y423139D01*
X808162Y423068D01*
X808152Y422997D01*
X808138Y422927D01*
X808120Y422858D01*
X808099Y422791D01*
X808073Y422724D01*
X808044Y422659D01*
X808012Y422596D01*
X807975Y422534D01*
X807936Y422475D01*
X807893Y422418D01*
X807847Y422364D01*
X807798Y422312D01*
X807746Y422263D01*
X807692Y422217D01*
X807635Y422174D01*
X807576Y422135D01*
X807514Y422098D01*
X807451Y422066D01*
X807386Y422037D01*
X807319Y422011D01*
X807252Y421990D01*
X807183Y421972D01*
X807113Y421958D01*
X807042Y421948D01*
X806971Y421942D01*
X806900Y421940D01*
X806829Y421942D01*
X806758Y421948D01*
X806687Y421958D01*
X806617Y421972D01*
X806548Y421990D01*
X806481Y422011D01*
X806414Y422037D01*
X806349Y422066D01*
X806286Y422098D01*
X806224Y422135D01*
X806165Y422174D01*
X806108Y422217D01*
X806054Y422263D01*
X806002Y422312D01*
X805953Y422364D01*
X805907Y422418D01*
X805864Y422475D01*
X805825Y422534D01*
X805788Y422596D01*
X805756Y422659D01*
X805727Y422724D01*
X805701Y422791D01*
X805680Y422858D01*
X805662Y422927D01*
X805648Y422997D01*
X805638Y423068D01*
X805632Y423139D01*
X805630Y423210D01*
D17*
X835526Y436367D02*
X840852Y436367D01*
X840941Y436369D01*
X841030Y436375D01*
X841119Y436385D01*
X841208Y436398D01*
X841295Y436416D01*
X841382Y436437D01*
X841468Y436462D01*
X841552Y436491D01*
X841636Y436523D01*
X841718Y436559D01*
X841798Y436598D01*
X841876Y436641D01*
X841952Y436688D01*
X842027Y436737D01*
X842099Y436790D01*
X842168Y436846D01*
X842236Y436905D01*
X842300Y436967D01*
X842362Y437031D01*
X842421Y437099D01*
X842477Y437168D01*
X842530Y437240D01*
X842579Y437315D01*
X842626Y437391D01*
X842669Y437469D01*
X842708Y437549D01*
X842744Y437631D01*
X842776Y437715D01*
X842805Y437799D01*
X842830Y437885D01*
X842851Y437972D01*
X842869Y438059D01*
X842882Y438148D01*
X842892Y438237D01*
X842898Y438326D01*
X842900Y438415D01*
X842898Y438504D01*
X842892Y438593D01*
X842882Y438682D01*
X842869Y438771D01*
X842851Y438858D01*
X842830Y438945D01*
X842805Y439031D01*
X842776Y439115D01*
X842744Y439199D01*
X842708Y439281D01*
X842669Y439361D01*
X842626Y439439D01*
X842579Y439515D01*
X842530Y439590D01*
X842477Y439662D01*
X842421Y439731D01*
X842362Y439799D01*
X842300Y439863D01*
X842236Y439925D01*
X842168Y439984D01*
X842099Y440040D01*
X842027Y440093D01*
X841952Y440142D01*
X841876Y440189D01*
X841798Y440232D01*
X841718Y440271D01*
X841636Y440307D01*
X841552Y440339D01*
X841468Y440368D01*
X841382Y440393D01*
X841295Y440414D01*
X841208Y440432D01*
X841119Y440445D01*
X841030Y440455D01*
X840941Y440461D01*
X840852Y440463D01*
X835526Y440463D01*
X837164Y443933D02*
X835526Y445982D01*
X842900Y445982D01*
X842900Y448030D02*
X842900Y443933D01*
D11*
X810180Y463940D02*
X800180Y463940D01*
X800180Y480940D02*
X810180Y480940D01*
D12*
X800962Y461375D02*
X802571Y459096D01*
X804180Y461375D01*
X802571Y459096D02*
X802571Y456549D01*
X806717Y460303D02*
X808057Y461375D01*
X808057Y456549D01*
X806717Y456549D02*
X809398Y456549D01*
D10*
X617220Y453390D02*
X617220Y466090D01*
X617220Y453390D02*
X610870Y447040D01*
X598170Y447040D02*
X591820Y453390D01*
X610870Y447040D02*
X617220Y440690D01*
X617220Y427990D01*
X610870Y421640D01*
X598170Y421640D02*
X591820Y427990D01*
X591820Y440690D01*
X598170Y447040D01*
X598170Y472440D02*
X610870Y472440D01*
X617220Y466090D01*
X598170Y472440D02*
X591820Y466090D01*
X591820Y453390D01*
X610870Y421640D02*
X617220Y415290D01*
X617220Y402590D01*
X610870Y396240D01*
X598170Y396240D02*
X591820Y402590D01*
X591820Y415290D01*
X598170Y421640D01*
X617220Y389890D02*
X617220Y377190D01*
X610870Y370840D01*
X598170Y370840D02*
X591820Y377190D01*
X610870Y370840D02*
X617220Y364490D01*
X617220Y351790D01*
X610870Y345440D01*
X598170Y345440D01*
X591820Y351790D01*
X591820Y364490D01*
X598170Y370840D01*
X617220Y389890D02*
X610870Y396240D01*
X598170Y396240D02*
X591820Y389890D01*
X591820Y377190D01*
D12*
X578485Y459105D02*
X575945Y462280D01*
X587375Y462280D01*
X587375Y459105D02*
X587375Y465455D01*
X633095Y361315D02*
X633095Y357505D01*
X633095Y361315D02*
X633093Y361415D01*
X633087Y361514D01*
X633077Y361614D01*
X633064Y361712D01*
X633046Y361811D01*
X633025Y361908D01*
X633000Y362004D01*
X632971Y362100D01*
X632938Y362194D01*
X632902Y362287D01*
X632862Y362378D01*
X632818Y362468D01*
X632771Y362556D01*
X632721Y362642D01*
X632667Y362726D01*
X632610Y362808D01*
X632550Y362887D01*
X632486Y362965D01*
X632420Y363039D01*
X632351Y363111D01*
X632279Y363180D01*
X632205Y363246D01*
X632127Y363310D01*
X632048Y363370D01*
X631966Y363427D01*
X631882Y363481D01*
X631796Y363531D01*
X631708Y363578D01*
X631618Y363622D01*
X631527Y363662D01*
X631434Y363698D01*
X631340Y363731D01*
X631244Y363760D01*
X631148Y363785D01*
X631051Y363806D01*
X630952Y363824D01*
X630854Y363837D01*
X630754Y363847D01*
X630655Y363853D01*
X630555Y363855D01*
X629285Y363855D01*
X629185Y363853D01*
X629086Y363847D01*
X628986Y363837D01*
X628888Y363824D01*
X628789Y363806D01*
X628692Y363785D01*
X628596Y363760D01*
X628500Y363731D01*
X628406Y363698D01*
X628313Y363662D01*
X628222Y363622D01*
X628132Y363578D01*
X628044Y363531D01*
X627958Y363481D01*
X627874Y363427D01*
X627792Y363370D01*
X627713Y363310D01*
X627635Y363246D01*
X627561Y363180D01*
X627489Y363111D01*
X627420Y363039D01*
X627354Y362965D01*
X627290Y362887D01*
X627230Y362808D01*
X627173Y362726D01*
X627119Y362642D01*
X627069Y362556D01*
X627022Y362468D01*
X626978Y362378D01*
X626938Y362287D01*
X626902Y362194D01*
X626869Y362100D01*
X626840Y362004D01*
X626815Y361908D01*
X626794Y361811D01*
X626776Y361712D01*
X626763Y361614D01*
X626753Y361514D01*
X626747Y361415D01*
X626745Y361315D01*
X626745Y357505D01*
X621665Y357505D01*
X621665Y363855D01*
X633095Y412496D02*
X633093Y412596D01*
X633087Y412695D01*
X633077Y412795D01*
X633064Y412893D01*
X633046Y412992D01*
X633025Y413089D01*
X633000Y413185D01*
X632971Y413281D01*
X632938Y413375D01*
X632902Y413468D01*
X632862Y413559D01*
X632818Y413649D01*
X632771Y413737D01*
X632721Y413823D01*
X632667Y413907D01*
X632610Y413989D01*
X632550Y414068D01*
X632486Y414146D01*
X632420Y414220D01*
X632351Y414292D01*
X632279Y414361D01*
X632205Y414427D01*
X632127Y414491D01*
X632048Y414551D01*
X631966Y414608D01*
X631882Y414662D01*
X631796Y414712D01*
X631708Y414759D01*
X631618Y414803D01*
X631527Y414843D01*
X631434Y414879D01*
X631340Y414912D01*
X631244Y414941D01*
X631148Y414966D01*
X631051Y414987D01*
X630952Y415005D01*
X630854Y415018D01*
X630754Y415028D01*
X630655Y415034D01*
X630555Y415036D01*
X633095Y412496D02*
X633093Y412355D01*
X633088Y412214D01*
X633078Y412073D01*
X633065Y411932D01*
X633049Y411792D01*
X633028Y411652D01*
X633004Y411513D01*
X632976Y411374D01*
X632945Y411237D01*
X632910Y411100D01*
X632872Y410964D01*
X632830Y410829D01*
X632784Y410696D01*
X632735Y410563D01*
X632682Y410432D01*
X632626Y410303D01*
X632567Y410174D01*
X632504Y410048D01*
X632438Y409923D01*
X632369Y409800D01*
X632296Y409679D01*
X632220Y409560D01*
X632141Y409442D01*
X632060Y409327D01*
X631975Y409215D01*
X631887Y409104D01*
X631796Y408996D01*
X631703Y408890D01*
X631606Y408787D01*
X631507Y408686D01*
X624205Y409004D02*
X624105Y409006D01*
X624006Y409012D01*
X623906Y409022D01*
X623808Y409035D01*
X623709Y409053D01*
X623612Y409074D01*
X623516Y409099D01*
X623420Y409128D01*
X623326Y409161D01*
X623233Y409197D01*
X623142Y409237D01*
X623052Y409281D01*
X622964Y409328D01*
X622878Y409378D01*
X622794Y409432D01*
X622712Y409489D01*
X622633Y409549D01*
X622555Y409613D01*
X622481Y409679D01*
X622409Y409748D01*
X622340Y409820D01*
X622274Y409894D01*
X622210Y409972D01*
X622150Y410051D01*
X622093Y410133D01*
X622039Y410217D01*
X621989Y410303D01*
X621942Y410391D01*
X621898Y410481D01*
X621858Y410572D01*
X621822Y410665D01*
X621789Y410759D01*
X621760Y410855D01*
X621735Y410951D01*
X621714Y411048D01*
X621696Y411147D01*
X621683Y411245D01*
X621673Y411345D01*
X621667Y411444D01*
X621665Y411544D01*
X621667Y411677D01*
X621672Y411810D01*
X621682Y411943D01*
X621695Y412076D01*
X621712Y412208D01*
X621732Y412340D01*
X621756Y412471D01*
X621784Y412601D01*
X621815Y412731D01*
X621850Y412859D01*
X621889Y412987D01*
X621931Y413113D01*
X621977Y413238D01*
X622026Y413362D01*
X622078Y413485D01*
X622134Y413606D01*
X622194Y413725D01*
X622256Y413843D01*
X622322Y413958D01*
X622391Y414072D01*
X622464Y414184D01*
X622539Y414294D01*
X622618Y414402D01*
X626428Y410273D02*
X626376Y410189D01*
X626321Y410106D01*
X626262Y410026D01*
X626201Y409948D01*
X626137Y409873D01*
X626069Y409800D01*
X625999Y409729D01*
X625927Y409662D01*
X625852Y409597D01*
X625774Y409535D01*
X625694Y409476D01*
X625612Y409420D01*
X625528Y409368D01*
X625442Y409319D01*
X625354Y409273D01*
X625264Y409230D01*
X625173Y409191D01*
X625080Y409156D01*
X624986Y409124D01*
X624891Y409096D01*
X624795Y409071D01*
X624698Y409051D01*
X624600Y409033D01*
X624502Y409020D01*
X624403Y409011D01*
X624304Y409005D01*
X624205Y409003D01*
X628332Y413766D02*
X628384Y413850D01*
X628439Y413933D01*
X628498Y414013D01*
X628559Y414091D01*
X628623Y414166D01*
X628691Y414239D01*
X628761Y414310D01*
X628833Y414377D01*
X628908Y414442D01*
X628986Y414504D01*
X629066Y414563D01*
X629148Y414619D01*
X629232Y414671D01*
X629318Y414720D01*
X629406Y414766D01*
X629496Y414809D01*
X629587Y414848D01*
X629680Y414883D01*
X629774Y414915D01*
X629869Y414943D01*
X629965Y414968D01*
X630062Y414988D01*
X630160Y415006D01*
X630258Y415019D01*
X630357Y415028D01*
X630456Y415034D01*
X630555Y415036D01*
X628333Y413766D02*
X626428Y410274D01*
X621665Y420116D02*
X633095Y420116D01*
X621665Y420116D02*
X621665Y423291D01*
X621667Y423402D01*
X621673Y423512D01*
X621682Y423623D01*
X621696Y423733D01*
X621713Y423842D01*
X621734Y423951D01*
X621759Y424059D01*
X621788Y424166D01*
X621820Y424272D01*
X621856Y424377D01*
X621896Y424480D01*
X621939Y424582D01*
X621986Y424683D01*
X622037Y424782D01*
X622090Y424879D01*
X622147Y424973D01*
X622208Y425066D01*
X622271Y425157D01*
X622338Y425246D01*
X622408Y425332D01*
X622481Y425415D01*
X622556Y425497D01*
X622634Y425575D01*
X622716Y425650D01*
X622799Y425723D01*
X622885Y425793D01*
X622974Y425860D01*
X623065Y425923D01*
X623158Y425984D01*
X623253Y426041D01*
X623349Y426094D01*
X623448Y426145D01*
X623549Y426192D01*
X623651Y426235D01*
X623754Y426275D01*
X623859Y426311D01*
X623965Y426343D01*
X624072Y426372D01*
X624180Y426397D01*
X624289Y426418D01*
X624398Y426435D01*
X624508Y426449D01*
X624619Y426458D01*
X624729Y426464D01*
X624840Y426466D01*
X629920Y426466D01*
X630031Y426464D01*
X630141Y426458D01*
X630252Y426449D01*
X630362Y426435D01*
X630471Y426418D01*
X630580Y426397D01*
X630688Y426372D01*
X630795Y426343D01*
X630901Y426311D01*
X631006Y426275D01*
X631109Y426235D01*
X631211Y426192D01*
X631312Y426145D01*
X631411Y426094D01*
X631508Y426041D01*
X631602Y425984D01*
X631695Y425923D01*
X631786Y425860D01*
X631875Y425793D01*
X631961Y425723D01*
X632044Y425650D01*
X632126Y425575D01*
X632204Y425497D01*
X632279Y425415D01*
X632352Y425332D01*
X632422Y425246D01*
X632489Y425157D01*
X632552Y425066D01*
X632613Y424973D01*
X632670Y424879D01*
X632723Y424782D01*
X632774Y424683D01*
X632821Y424582D01*
X632864Y424480D01*
X632904Y424377D01*
X632940Y424272D01*
X632972Y424166D01*
X633001Y424059D01*
X633026Y423951D01*
X633047Y423842D01*
X633064Y423733D01*
X633078Y423623D01*
X633087Y423512D01*
X633093Y423402D01*
X633095Y423291D01*
X633095Y420116D01*
X633095Y435356D02*
X633093Y435456D01*
X633087Y435555D01*
X633077Y435655D01*
X633064Y435753D01*
X633046Y435852D01*
X633025Y435949D01*
X633000Y436045D01*
X632971Y436141D01*
X632938Y436235D01*
X632902Y436328D01*
X632862Y436419D01*
X632818Y436509D01*
X632771Y436597D01*
X632721Y436683D01*
X632667Y436767D01*
X632610Y436849D01*
X632550Y436928D01*
X632486Y437006D01*
X632420Y437080D01*
X632351Y437152D01*
X632279Y437221D01*
X632205Y437287D01*
X632127Y437351D01*
X632048Y437411D01*
X631966Y437468D01*
X631882Y437522D01*
X631796Y437572D01*
X631708Y437619D01*
X631618Y437663D01*
X631527Y437703D01*
X631434Y437739D01*
X631340Y437772D01*
X631244Y437801D01*
X631148Y437826D01*
X631051Y437847D01*
X630952Y437865D01*
X630854Y437878D01*
X630754Y437888D01*
X630655Y437894D01*
X630555Y437896D01*
X633095Y435356D02*
X633093Y435215D01*
X633088Y435074D01*
X633078Y434933D01*
X633065Y434792D01*
X633049Y434652D01*
X633028Y434512D01*
X633004Y434373D01*
X632976Y434234D01*
X632945Y434097D01*
X632910Y433960D01*
X632872Y433824D01*
X632830Y433689D01*
X632784Y433556D01*
X632735Y433423D01*
X632682Y433292D01*
X632626Y433163D01*
X632567Y433034D01*
X632504Y432908D01*
X632438Y432783D01*
X632369Y432660D01*
X632296Y432539D01*
X632220Y432420D01*
X632141Y432302D01*
X632060Y432187D01*
X631975Y432075D01*
X631887Y431964D01*
X631796Y431856D01*
X631703Y431750D01*
X631606Y431647D01*
X631507Y431546D01*
X624205Y431864D02*
X624105Y431866D01*
X624006Y431872D01*
X623906Y431882D01*
X623808Y431895D01*
X623709Y431913D01*
X623612Y431934D01*
X623516Y431959D01*
X623420Y431988D01*
X623326Y432021D01*
X623233Y432057D01*
X623142Y432097D01*
X623052Y432141D01*
X622964Y432188D01*
X622878Y432238D01*
X622794Y432292D01*
X622712Y432349D01*
X622633Y432409D01*
X622555Y432473D01*
X622481Y432539D01*
X622409Y432608D01*
X622340Y432680D01*
X622274Y432754D01*
X622210Y432832D01*
X622150Y432911D01*
X622093Y432993D01*
X622039Y433077D01*
X621989Y433163D01*
X621942Y433251D01*
X621898Y433341D01*
X621858Y433432D01*
X621822Y433525D01*
X621789Y433619D01*
X621760Y433715D01*
X621735Y433811D01*
X621714Y433908D01*
X621696Y434007D01*
X621683Y434105D01*
X621673Y434205D01*
X621667Y434304D01*
X621665Y434404D01*
X621667Y434537D01*
X621672Y434670D01*
X621682Y434803D01*
X621695Y434936D01*
X621712Y435068D01*
X621732Y435200D01*
X621756Y435331D01*
X621784Y435461D01*
X621815Y435591D01*
X621850Y435719D01*
X621889Y435847D01*
X621931Y435973D01*
X621977Y436098D01*
X622026Y436222D01*
X622078Y436345D01*
X622134Y436466D01*
X622194Y436585D01*
X622256Y436703D01*
X622322Y436818D01*
X622391Y436932D01*
X622464Y437044D01*
X622539Y437154D01*
X622618Y437262D01*
X626428Y433133D02*
X626376Y433049D01*
X626321Y432966D01*
X626262Y432886D01*
X626201Y432808D01*
X626137Y432733D01*
X626069Y432660D01*
X625999Y432589D01*
X625927Y432522D01*
X625852Y432457D01*
X625774Y432395D01*
X625694Y432336D01*
X625612Y432280D01*
X625528Y432228D01*
X625442Y432179D01*
X625354Y432133D01*
X625264Y432090D01*
X625173Y432051D01*
X625080Y432016D01*
X624986Y431984D01*
X624891Y431956D01*
X624795Y431931D01*
X624698Y431911D01*
X624600Y431893D01*
X624502Y431880D01*
X624403Y431871D01*
X624304Y431865D01*
X624205Y431863D01*
X628332Y436626D02*
X628384Y436710D01*
X628439Y436793D01*
X628498Y436873D01*
X628559Y436951D01*
X628623Y437026D01*
X628691Y437099D01*
X628761Y437170D01*
X628833Y437237D01*
X628908Y437302D01*
X628986Y437364D01*
X629066Y437423D01*
X629148Y437479D01*
X629232Y437531D01*
X629318Y437580D01*
X629406Y437626D01*
X629496Y437669D01*
X629587Y437708D01*
X629680Y437743D01*
X629774Y437775D01*
X629869Y437803D01*
X629965Y437828D01*
X630062Y437848D01*
X630160Y437866D01*
X630258Y437879D01*
X630357Y437888D01*
X630456Y437894D01*
X630555Y437896D01*
X628333Y436626D02*
X626428Y433134D01*
X627380Y442595D02*
X627155Y442598D01*
X626930Y442606D01*
X626706Y442619D01*
X626482Y442638D01*
X626258Y442662D01*
X626035Y442691D01*
X625813Y442726D01*
X625592Y442766D01*
X625372Y442812D01*
X625153Y442862D01*
X624935Y442918D01*
X624718Y442979D01*
X624503Y443045D01*
X624290Y443116D01*
X624079Y443193D01*
X623869Y443274D01*
X623661Y443360D01*
X623456Y443451D01*
X623253Y443547D01*
X623165Y443579D01*
X623078Y443615D01*
X622992Y443654D01*
X622908Y443697D01*
X622826Y443743D01*
X622746Y443792D01*
X622668Y443844D01*
X622592Y443900D01*
X622518Y443958D01*
X622447Y444020D01*
X622378Y444084D01*
X622312Y444151D01*
X622249Y444220D01*
X622188Y444292D01*
X622130Y444366D01*
X622076Y444443D01*
X622024Y444521D01*
X621976Y444602D01*
X621931Y444684D01*
X621889Y444769D01*
X621851Y444855D01*
X621816Y444942D01*
X621784Y445030D01*
X621757Y445120D01*
X621732Y445211D01*
X621712Y445303D01*
X621695Y445395D01*
X621682Y445489D01*
X621673Y445582D01*
X621667Y445676D01*
X621665Y445770D01*
X621667Y445864D01*
X621673Y445958D01*
X621682Y446051D01*
X621695Y446145D01*
X621712Y446237D01*
X621732Y446329D01*
X621757Y446420D01*
X621784Y446510D01*
X621816Y446598D01*
X621851Y446685D01*
X621889Y446771D01*
X621931Y446856D01*
X621976Y446938D01*
X622024Y447019D01*
X622076Y447097D01*
X622130Y447174D01*
X622188Y447248D01*
X622249Y447320D01*
X622312Y447389D01*
X622378Y447456D01*
X622447Y447520D01*
X622518Y447582D01*
X622592Y447640D01*
X622668Y447696D01*
X622746Y447748D01*
X622826Y447797D01*
X622908Y447843D01*
X622992Y447886D01*
X623078Y447925D01*
X623165Y447961D01*
X623253Y447993D01*
X623456Y448089D01*
X623661Y448180D01*
X623869Y448266D01*
X624079Y448347D01*
X624290Y448424D01*
X624503Y448495D01*
X624718Y448561D01*
X624935Y448622D01*
X625153Y448678D01*
X625372Y448728D01*
X625592Y448774D01*
X625813Y448814D01*
X626035Y448849D01*
X626258Y448878D01*
X626482Y448902D01*
X626706Y448921D01*
X626930Y448934D01*
X627155Y448942D01*
X627380Y448945D01*
X627380Y442595D02*
X627605Y442598D01*
X627830Y442606D01*
X628054Y442619D01*
X628278Y442638D01*
X628502Y442662D01*
X628725Y442691D01*
X628947Y442726D01*
X629168Y442766D01*
X629388Y442812D01*
X629607Y442862D01*
X629825Y442918D01*
X630042Y442979D01*
X630257Y443045D01*
X630470Y443116D01*
X630681Y443193D01*
X630891Y443274D01*
X631099Y443360D01*
X631304Y443451D01*
X631507Y443547D01*
X631508Y443547D02*
X631596Y443579D01*
X631683Y443615D01*
X631769Y443654D01*
X631853Y443697D01*
X631935Y443743D01*
X632015Y443792D01*
X632093Y443844D01*
X632169Y443900D01*
X632243Y443958D01*
X632314Y444020D01*
X632383Y444084D01*
X632449Y444151D01*
X632512Y444220D01*
X632573Y444292D01*
X632631Y444366D01*
X632685Y444443D01*
X632737Y444521D01*
X632785Y444602D01*
X632830Y444684D01*
X632872Y444769D01*
X632910Y444855D01*
X632945Y444942D01*
X632977Y445030D01*
X633004Y445120D01*
X633029Y445211D01*
X633049Y445303D01*
X633066Y445395D01*
X633079Y445489D01*
X633088Y445582D01*
X633094Y445676D01*
X633096Y445770D01*
X631507Y447993D02*
X631304Y448089D01*
X631099Y448180D01*
X630891Y448266D01*
X630681Y448347D01*
X630470Y448424D01*
X630257Y448495D01*
X630042Y448561D01*
X629825Y448622D01*
X629607Y448678D01*
X629388Y448728D01*
X629168Y448774D01*
X628947Y448814D01*
X628725Y448849D01*
X628502Y448878D01*
X628278Y448902D01*
X628054Y448921D01*
X627830Y448934D01*
X627605Y448942D01*
X627380Y448945D01*
X631508Y447993D02*
X631596Y447961D01*
X631683Y447925D01*
X631769Y447886D01*
X631853Y447843D01*
X631935Y447797D01*
X632015Y447748D01*
X632093Y447696D01*
X632169Y447640D01*
X632243Y447582D01*
X632314Y447520D01*
X632383Y447456D01*
X632449Y447389D01*
X632512Y447320D01*
X632573Y447248D01*
X632631Y447174D01*
X632685Y447097D01*
X632737Y447019D01*
X632785Y446938D01*
X632830Y446856D01*
X632872Y446771D01*
X632910Y446685D01*
X632945Y446598D01*
X632977Y446510D01*
X633004Y446420D01*
X633029Y446329D01*
X633049Y446237D01*
X633066Y446145D01*
X633079Y446051D01*
X633088Y445958D01*
X633094Y445864D01*
X633096Y445770D01*
X630555Y443230D02*
X624205Y448310D01*
X624205Y454025D02*
X621665Y457200D01*
X633095Y457200D01*
X633095Y454025D02*
X633095Y460375D01*
X624205Y465455D02*
X621665Y468630D01*
X633095Y468630D01*
X633095Y465455D02*
X633095Y471805D01*
D10*
X1033780Y255270D02*
X1033780Y242570D01*
X1033780Y255270D02*
X1040130Y261620D01*
X1052830Y261620D02*
X1059180Y255270D01*
X1040130Y261620D02*
X1033780Y267970D01*
X1033780Y280670D01*
X1040130Y287020D01*
X1052830Y287020D02*
X1059180Y280670D01*
X1059180Y267970D01*
X1052830Y261620D01*
X1052830Y236220D02*
X1040130Y236220D01*
X1033780Y242570D01*
X1052830Y236220D02*
X1059180Y242570D01*
X1059180Y255270D01*
X1040130Y287020D02*
X1033780Y293370D01*
X1033780Y306070D01*
X1040130Y312420D01*
X1052830Y312420D02*
X1059180Y306070D01*
X1059180Y293370D01*
X1052830Y287020D01*
X1033780Y318770D02*
X1033780Y331470D01*
X1040130Y337820D01*
X1052830Y337820D01*
X1059180Y331470D01*
X1040130Y312420D02*
X1033780Y318770D01*
X1052830Y312420D02*
X1059180Y318770D01*
X1059180Y331470D01*
D12*
X1040765Y228600D02*
X1043305Y225425D01*
X1040765Y228600D02*
X1052195Y228600D01*
X1052195Y225425D02*
X1052195Y231775D01*
X1049655Y340995D02*
X1040765Y343535D01*
X1049655Y340995D02*
X1049655Y347345D01*
X1047115Y345440D02*
X1052195Y345440D01*
X1029335Y236855D02*
X1017905Y236855D01*
X1022985Y236855D02*
X1022985Y243205D01*
X1017905Y243205D02*
X1029335Y243205D01*
X1029335Y249555D02*
X1017905Y249555D01*
X1029335Y248285D02*
X1029335Y250825D01*
X1017905Y250825D02*
X1017905Y248285D01*
X1017905Y255905D02*
X1029335Y255905D01*
X1022985Y255905D02*
X1022985Y262255D01*
X1017905Y262255D02*
X1029335Y262255D01*
X1026160Y267716D02*
X1026049Y267718D01*
X1025939Y267724D01*
X1025828Y267733D01*
X1025718Y267747D01*
X1025609Y267764D01*
X1025500Y267785D01*
X1025392Y267810D01*
X1025285Y267839D01*
X1025179Y267871D01*
X1025074Y267907D01*
X1024971Y267947D01*
X1024869Y267990D01*
X1024768Y268037D01*
X1024669Y268088D01*
X1024573Y268141D01*
X1024478Y268198D01*
X1024385Y268259D01*
X1024294Y268322D01*
X1024205Y268389D01*
X1024119Y268459D01*
X1024036Y268532D01*
X1023954Y268607D01*
X1023876Y268685D01*
X1023801Y268767D01*
X1023728Y268850D01*
X1023658Y268936D01*
X1023591Y269025D01*
X1023528Y269116D01*
X1023467Y269209D01*
X1023410Y269304D01*
X1023357Y269400D01*
X1023306Y269499D01*
X1023259Y269600D01*
X1023216Y269702D01*
X1023176Y269805D01*
X1023140Y269910D01*
X1023108Y270016D01*
X1023079Y270123D01*
X1023054Y270231D01*
X1023033Y270340D01*
X1023016Y270449D01*
X1023002Y270559D01*
X1022993Y270670D01*
X1022987Y270780D01*
X1022985Y270891D01*
X1022987Y271002D01*
X1022993Y271112D01*
X1023002Y271223D01*
X1023016Y271333D01*
X1023033Y271442D01*
X1023054Y271551D01*
X1023079Y271659D01*
X1023108Y271766D01*
X1023140Y271872D01*
X1023176Y271977D01*
X1023216Y272080D01*
X1023259Y272182D01*
X1023306Y272283D01*
X1023357Y272382D01*
X1023410Y272479D01*
X1023467Y272573D01*
X1023528Y272666D01*
X1023591Y272757D01*
X1023658Y272846D01*
X1023728Y272932D01*
X1023801Y273015D01*
X1023876Y273097D01*
X1023954Y273175D01*
X1024036Y273250D01*
X1024119Y273323D01*
X1024205Y273393D01*
X1024294Y273460D01*
X1024385Y273523D01*
X1024478Y273584D01*
X1024573Y273641D01*
X1024669Y273694D01*
X1024768Y273745D01*
X1024869Y273792D01*
X1024971Y273835D01*
X1025074Y273875D01*
X1025179Y273911D01*
X1025285Y273943D01*
X1025392Y273972D01*
X1025500Y273997D01*
X1025609Y274018D01*
X1025718Y274035D01*
X1025828Y274049D01*
X1025939Y274058D01*
X1026049Y274064D01*
X1026160Y274066D01*
X1026271Y274064D01*
X1026381Y274058D01*
X1026492Y274049D01*
X1026602Y274035D01*
X1026711Y274018D01*
X1026820Y273997D01*
X1026928Y273972D01*
X1027035Y273943D01*
X1027141Y273911D01*
X1027246Y273875D01*
X1027349Y273835D01*
X1027451Y273792D01*
X1027552Y273745D01*
X1027651Y273694D01*
X1027748Y273641D01*
X1027842Y273584D01*
X1027935Y273523D01*
X1028026Y273460D01*
X1028115Y273393D01*
X1028201Y273323D01*
X1028284Y273250D01*
X1028366Y273175D01*
X1028444Y273097D01*
X1028519Y273015D01*
X1028592Y272932D01*
X1028662Y272846D01*
X1028729Y272757D01*
X1028792Y272666D01*
X1028853Y272573D01*
X1028910Y272478D01*
X1028963Y272382D01*
X1029014Y272283D01*
X1029061Y272182D01*
X1029104Y272080D01*
X1029144Y271977D01*
X1029180Y271872D01*
X1029212Y271766D01*
X1029241Y271659D01*
X1029266Y271551D01*
X1029287Y271442D01*
X1029304Y271333D01*
X1029318Y271223D01*
X1029327Y271112D01*
X1029333Y271002D01*
X1029335Y270891D01*
X1029333Y270780D01*
X1029327Y270670D01*
X1029318Y270559D01*
X1029304Y270449D01*
X1029287Y270340D01*
X1029266Y270231D01*
X1029241Y270123D01*
X1029212Y270016D01*
X1029180Y269910D01*
X1029144Y269805D01*
X1029104Y269702D01*
X1029061Y269600D01*
X1029014Y269499D01*
X1028963Y269400D01*
X1028910Y269303D01*
X1028853Y269209D01*
X1028792Y269116D01*
X1028729Y269025D01*
X1028662Y268936D01*
X1028592Y268850D01*
X1028519Y268767D01*
X1028444Y268685D01*
X1028366Y268607D01*
X1028284Y268532D01*
X1028201Y268459D01*
X1028115Y268389D01*
X1028026Y268322D01*
X1027935Y268259D01*
X1027842Y268198D01*
X1027748Y268141D01*
X1027651Y268088D01*
X1027552Y268037D01*
X1027451Y267990D01*
X1027349Y267947D01*
X1027246Y267907D01*
X1027141Y267871D01*
X1027035Y267839D01*
X1026928Y267810D01*
X1026820Y267785D01*
X1026711Y267764D01*
X1026602Y267747D01*
X1026492Y267733D01*
X1026381Y267724D01*
X1026271Y267718D01*
X1026160Y267716D01*
X1020445Y268351D02*
X1020345Y268353D01*
X1020246Y268359D01*
X1020146Y268369D01*
X1020048Y268382D01*
X1019949Y268400D01*
X1019852Y268421D01*
X1019756Y268446D01*
X1019660Y268475D01*
X1019566Y268508D01*
X1019473Y268544D01*
X1019382Y268584D01*
X1019292Y268628D01*
X1019204Y268675D01*
X1019118Y268725D01*
X1019034Y268779D01*
X1018952Y268836D01*
X1018873Y268896D01*
X1018795Y268960D01*
X1018721Y269026D01*
X1018649Y269095D01*
X1018580Y269167D01*
X1018514Y269241D01*
X1018450Y269319D01*
X1018390Y269398D01*
X1018333Y269480D01*
X1018279Y269564D01*
X1018229Y269650D01*
X1018182Y269738D01*
X1018138Y269828D01*
X1018098Y269919D01*
X1018062Y270012D01*
X1018029Y270106D01*
X1018000Y270202D01*
X1017975Y270298D01*
X1017954Y270395D01*
X1017936Y270494D01*
X1017923Y270592D01*
X1017913Y270692D01*
X1017907Y270791D01*
X1017905Y270891D01*
X1017907Y270991D01*
X1017913Y271090D01*
X1017923Y271190D01*
X1017936Y271288D01*
X1017954Y271387D01*
X1017975Y271484D01*
X1018000Y271580D01*
X1018029Y271676D01*
X1018062Y271770D01*
X1018098Y271863D01*
X1018138Y271954D01*
X1018182Y272044D01*
X1018229Y272132D01*
X1018279Y272218D01*
X1018333Y272302D01*
X1018390Y272384D01*
X1018450Y272463D01*
X1018514Y272541D01*
X1018580Y272615D01*
X1018649Y272687D01*
X1018721Y272756D01*
X1018795Y272822D01*
X1018873Y272886D01*
X1018952Y272946D01*
X1019034Y273003D01*
X1019118Y273057D01*
X1019204Y273107D01*
X1019292Y273154D01*
X1019382Y273198D01*
X1019473Y273238D01*
X1019566Y273274D01*
X1019660Y273307D01*
X1019756Y273336D01*
X1019852Y273361D01*
X1019949Y273382D01*
X1020048Y273400D01*
X1020146Y273413D01*
X1020246Y273423D01*
X1020345Y273429D01*
X1020445Y273431D01*
X1020545Y273429D01*
X1020644Y273423D01*
X1020744Y273413D01*
X1020842Y273400D01*
X1020941Y273382D01*
X1021038Y273361D01*
X1021134Y273336D01*
X1021230Y273307D01*
X1021324Y273274D01*
X1021417Y273238D01*
X1021508Y273198D01*
X1021598Y273154D01*
X1021686Y273107D01*
X1021772Y273057D01*
X1021856Y273003D01*
X1021938Y272946D01*
X1022017Y272886D01*
X1022095Y272822D01*
X1022169Y272756D01*
X1022241Y272687D01*
X1022310Y272615D01*
X1022376Y272541D01*
X1022440Y272463D01*
X1022500Y272384D01*
X1022557Y272302D01*
X1022611Y272218D01*
X1022661Y272132D01*
X1022708Y272044D01*
X1022752Y271954D01*
X1022792Y271863D01*
X1022828Y271770D01*
X1022861Y271676D01*
X1022890Y271580D01*
X1022915Y271484D01*
X1022936Y271387D01*
X1022954Y271288D01*
X1022967Y271190D01*
X1022977Y271090D01*
X1022983Y270991D01*
X1022985Y270891D01*
X1022983Y270791D01*
X1022977Y270692D01*
X1022967Y270592D01*
X1022954Y270494D01*
X1022936Y270395D01*
X1022915Y270298D01*
X1022890Y270202D01*
X1022861Y270106D01*
X1022828Y270012D01*
X1022792Y269919D01*
X1022752Y269828D01*
X1022708Y269738D01*
X1022661Y269650D01*
X1022611Y269564D01*
X1022557Y269480D01*
X1022500Y269398D01*
X1022440Y269319D01*
X1022376Y269241D01*
X1022310Y269167D01*
X1022241Y269095D01*
X1022169Y269026D01*
X1022095Y268960D01*
X1022017Y268896D01*
X1021938Y268836D01*
X1021856Y268779D01*
X1021772Y268725D01*
X1021686Y268675D01*
X1021598Y268628D01*
X1021508Y268584D01*
X1021417Y268544D01*
X1021324Y268508D01*
X1021230Y268475D01*
X1021134Y268446D01*
X1021038Y268421D01*
X1020941Y268400D01*
X1020842Y268382D01*
X1020744Y268369D01*
X1020644Y268359D01*
X1020545Y268353D01*
X1020445Y268351D01*
X1023620Y279146D02*
X1023395Y279149D01*
X1023170Y279157D01*
X1022946Y279170D01*
X1022722Y279189D01*
X1022498Y279213D01*
X1022275Y279242D01*
X1022053Y279277D01*
X1021832Y279317D01*
X1021612Y279363D01*
X1021393Y279413D01*
X1021175Y279469D01*
X1020958Y279530D01*
X1020743Y279596D01*
X1020530Y279667D01*
X1020319Y279744D01*
X1020109Y279825D01*
X1019901Y279911D01*
X1019696Y280002D01*
X1019493Y280098D01*
X1019405Y280130D01*
X1019318Y280166D01*
X1019232Y280205D01*
X1019148Y280248D01*
X1019066Y280294D01*
X1018986Y280343D01*
X1018908Y280395D01*
X1018832Y280451D01*
X1018758Y280509D01*
X1018687Y280571D01*
X1018618Y280635D01*
X1018552Y280702D01*
X1018489Y280771D01*
X1018428Y280843D01*
X1018370Y280917D01*
X1018316Y280994D01*
X1018264Y281072D01*
X1018216Y281153D01*
X1018171Y281235D01*
X1018129Y281320D01*
X1018091Y281406D01*
X1018056Y281493D01*
X1018024Y281581D01*
X1017997Y281671D01*
X1017972Y281762D01*
X1017952Y281854D01*
X1017935Y281946D01*
X1017922Y282040D01*
X1017913Y282133D01*
X1017907Y282227D01*
X1017905Y282321D01*
X1017907Y282415D01*
X1017913Y282509D01*
X1017922Y282602D01*
X1017935Y282696D01*
X1017952Y282788D01*
X1017972Y282880D01*
X1017997Y282971D01*
X1018024Y283061D01*
X1018056Y283149D01*
X1018091Y283236D01*
X1018129Y283322D01*
X1018171Y283407D01*
X1018216Y283489D01*
X1018264Y283570D01*
X1018316Y283648D01*
X1018370Y283725D01*
X1018428Y283799D01*
X1018489Y283871D01*
X1018552Y283940D01*
X1018618Y284007D01*
X1018687Y284071D01*
X1018758Y284133D01*
X1018832Y284191D01*
X1018908Y284247D01*
X1018986Y284299D01*
X1019066Y284348D01*
X1019148Y284394D01*
X1019232Y284437D01*
X1019318Y284476D01*
X1019405Y284512D01*
X1019493Y284544D01*
X1019696Y284640D01*
X1019901Y284731D01*
X1020109Y284817D01*
X1020319Y284898D01*
X1020530Y284975D01*
X1020743Y285046D01*
X1020958Y285112D01*
X1021175Y285173D01*
X1021393Y285229D01*
X1021612Y285279D01*
X1021832Y285325D01*
X1022053Y285365D01*
X1022275Y285400D01*
X1022498Y285429D01*
X1022722Y285453D01*
X1022946Y285472D01*
X1023170Y285485D01*
X1023395Y285493D01*
X1023620Y285496D01*
X1023620Y279146D02*
X1023845Y279149D01*
X1024070Y279157D01*
X1024294Y279170D01*
X1024518Y279189D01*
X1024742Y279213D01*
X1024965Y279242D01*
X1025187Y279277D01*
X1025408Y279317D01*
X1025628Y279363D01*
X1025847Y279413D01*
X1026065Y279469D01*
X1026282Y279530D01*
X1026497Y279596D01*
X1026710Y279667D01*
X1026921Y279744D01*
X1027131Y279825D01*
X1027339Y279911D01*
X1027544Y280002D01*
X1027747Y280098D01*
X1027748Y280098D02*
X1027836Y280130D01*
X1027923Y280166D01*
X1028009Y280205D01*
X1028093Y280248D01*
X1028175Y280294D01*
X1028255Y280343D01*
X1028333Y280395D01*
X1028409Y280451D01*
X1028483Y280509D01*
X1028554Y280571D01*
X1028623Y280635D01*
X1028689Y280702D01*
X1028752Y280771D01*
X1028813Y280843D01*
X1028871Y280917D01*
X1028925Y280994D01*
X1028977Y281072D01*
X1029025Y281153D01*
X1029070Y281235D01*
X1029112Y281320D01*
X1029150Y281406D01*
X1029185Y281493D01*
X1029217Y281581D01*
X1029244Y281671D01*
X1029269Y281762D01*
X1029289Y281854D01*
X1029306Y281946D01*
X1029319Y282040D01*
X1029328Y282133D01*
X1029334Y282227D01*
X1029336Y282321D01*
X1027747Y284544D02*
X1027544Y284640D01*
X1027339Y284731D01*
X1027131Y284817D01*
X1026921Y284898D01*
X1026710Y284975D01*
X1026497Y285046D01*
X1026282Y285112D01*
X1026065Y285173D01*
X1025847Y285229D01*
X1025628Y285279D01*
X1025408Y285325D01*
X1025187Y285365D01*
X1024965Y285400D01*
X1024742Y285429D01*
X1024518Y285453D01*
X1024294Y285472D01*
X1024070Y285485D01*
X1023845Y285493D01*
X1023620Y285496D01*
X1027748Y284544D02*
X1027836Y284512D01*
X1027923Y284476D01*
X1028009Y284437D01*
X1028093Y284394D01*
X1028175Y284348D01*
X1028255Y284299D01*
X1028333Y284247D01*
X1028409Y284191D01*
X1028483Y284133D01*
X1028554Y284071D01*
X1028623Y284007D01*
X1028689Y283940D01*
X1028752Y283871D01*
X1028813Y283799D01*
X1028871Y283725D01*
X1028925Y283648D01*
X1028977Y283570D01*
X1029025Y283489D01*
X1029070Y283407D01*
X1029112Y283322D01*
X1029150Y283236D01*
X1029185Y283149D01*
X1029217Y283061D01*
X1029244Y282971D01*
X1029269Y282880D01*
X1029289Y282788D01*
X1029306Y282696D01*
X1029319Y282602D01*
X1029328Y282509D01*
X1029334Y282415D01*
X1029336Y282321D01*
X1026795Y279781D02*
X1020445Y284861D01*
X1023620Y290576D02*
X1023395Y290579D01*
X1023170Y290587D01*
X1022946Y290600D01*
X1022722Y290619D01*
X1022498Y290643D01*
X1022275Y290672D01*
X1022053Y290707D01*
X1021832Y290747D01*
X1021612Y290793D01*
X1021393Y290843D01*
X1021175Y290899D01*
X1020958Y290960D01*
X1020743Y291026D01*
X1020530Y291097D01*
X1020319Y291174D01*
X1020109Y291255D01*
X1019901Y291341D01*
X1019696Y291432D01*
X1019493Y291528D01*
X1019405Y291560D01*
X1019318Y291596D01*
X1019232Y291635D01*
X1019148Y291678D01*
X1019066Y291724D01*
X1018986Y291773D01*
X1018908Y291825D01*
X1018832Y291881D01*
X1018758Y291939D01*
X1018687Y292001D01*
X1018618Y292065D01*
X1018552Y292132D01*
X1018489Y292201D01*
X1018428Y292273D01*
X1018370Y292347D01*
X1018316Y292424D01*
X1018264Y292502D01*
X1018216Y292583D01*
X1018171Y292665D01*
X1018129Y292750D01*
X1018091Y292836D01*
X1018056Y292923D01*
X1018024Y293011D01*
X1017997Y293101D01*
X1017972Y293192D01*
X1017952Y293284D01*
X1017935Y293376D01*
X1017922Y293470D01*
X1017913Y293563D01*
X1017907Y293657D01*
X1017905Y293751D01*
X1017907Y293845D01*
X1017913Y293939D01*
X1017922Y294032D01*
X1017935Y294126D01*
X1017952Y294218D01*
X1017972Y294310D01*
X1017997Y294401D01*
X1018024Y294491D01*
X1018056Y294579D01*
X1018091Y294666D01*
X1018129Y294752D01*
X1018171Y294837D01*
X1018216Y294919D01*
X1018264Y295000D01*
X1018316Y295078D01*
X1018370Y295155D01*
X1018428Y295229D01*
X1018489Y295301D01*
X1018552Y295370D01*
X1018618Y295437D01*
X1018687Y295501D01*
X1018758Y295563D01*
X1018832Y295621D01*
X1018908Y295677D01*
X1018986Y295729D01*
X1019066Y295778D01*
X1019148Y295824D01*
X1019232Y295867D01*
X1019318Y295906D01*
X1019405Y295942D01*
X1019493Y295974D01*
X1019696Y296070D01*
X1019901Y296161D01*
X1020109Y296247D01*
X1020319Y296328D01*
X1020530Y296405D01*
X1020743Y296476D01*
X1020958Y296542D01*
X1021175Y296603D01*
X1021393Y296659D01*
X1021612Y296709D01*
X1021832Y296755D01*
X1022053Y296795D01*
X1022275Y296830D01*
X1022498Y296859D01*
X1022722Y296883D01*
X1022946Y296902D01*
X1023170Y296915D01*
X1023395Y296923D01*
X1023620Y296926D01*
X1023620Y290576D02*
X1023845Y290579D01*
X1024070Y290587D01*
X1024294Y290600D01*
X1024518Y290619D01*
X1024742Y290643D01*
X1024965Y290672D01*
X1025187Y290707D01*
X1025408Y290747D01*
X1025628Y290793D01*
X1025847Y290843D01*
X1026065Y290899D01*
X1026282Y290960D01*
X1026497Y291026D01*
X1026710Y291097D01*
X1026921Y291174D01*
X1027131Y291255D01*
X1027339Y291341D01*
X1027544Y291432D01*
X1027747Y291528D01*
X1027748Y291528D02*
X1027836Y291560D01*
X1027923Y291596D01*
X1028009Y291635D01*
X1028093Y291678D01*
X1028175Y291724D01*
X1028255Y291773D01*
X1028333Y291825D01*
X1028409Y291881D01*
X1028483Y291939D01*
X1028554Y292001D01*
X1028623Y292065D01*
X1028689Y292132D01*
X1028752Y292201D01*
X1028813Y292273D01*
X1028871Y292347D01*
X1028925Y292424D01*
X1028977Y292502D01*
X1029025Y292583D01*
X1029070Y292665D01*
X1029112Y292750D01*
X1029150Y292836D01*
X1029185Y292923D01*
X1029217Y293011D01*
X1029244Y293101D01*
X1029269Y293192D01*
X1029289Y293284D01*
X1029306Y293376D01*
X1029319Y293470D01*
X1029328Y293563D01*
X1029334Y293657D01*
X1029336Y293751D01*
X1027747Y295974D02*
X1027544Y296070D01*
X1027339Y296161D01*
X1027131Y296247D01*
X1026921Y296328D01*
X1026710Y296405D01*
X1026497Y296476D01*
X1026282Y296542D01*
X1026065Y296603D01*
X1025847Y296659D01*
X1025628Y296709D01*
X1025408Y296755D01*
X1025187Y296795D01*
X1024965Y296830D01*
X1024742Y296859D01*
X1024518Y296883D01*
X1024294Y296902D01*
X1024070Y296915D01*
X1023845Y296923D01*
X1023620Y296926D01*
X1027748Y295974D02*
X1027836Y295942D01*
X1027923Y295906D01*
X1028009Y295867D01*
X1028093Y295824D01*
X1028175Y295778D01*
X1028255Y295729D01*
X1028333Y295677D01*
X1028409Y295621D01*
X1028483Y295563D01*
X1028554Y295501D01*
X1028623Y295437D01*
X1028689Y295370D01*
X1028752Y295301D01*
X1028813Y295229D01*
X1028871Y295155D01*
X1028925Y295078D01*
X1028977Y295000D01*
X1029025Y294919D01*
X1029070Y294837D01*
X1029112Y294752D01*
X1029150Y294666D01*
X1029185Y294579D01*
X1029217Y294491D01*
X1029244Y294401D01*
X1029269Y294310D01*
X1029289Y294218D01*
X1029306Y294126D01*
X1029319Y294032D01*
X1029328Y293939D01*
X1029334Y293845D01*
X1029336Y293751D01*
X1026795Y291211D02*
X1020445Y296291D01*
X1023620Y302006D02*
X1023395Y302009D01*
X1023170Y302017D01*
X1022946Y302030D01*
X1022722Y302049D01*
X1022498Y302073D01*
X1022275Y302102D01*
X1022053Y302137D01*
X1021832Y302177D01*
X1021612Y302223D01*
X1021393Y302273D01*
X1021175Y302329D01*
X1020958Y302390D01*
X1020743Y302456D01*
X1020530Y302527D01*
X1020319Y302604D01*
X1020109Y302685D01*
X1019901Y302771D01*
X1019696Y302862D01*
X1019493Y302958D01*
X1019405Y302990D01*
X1019318Y303026D01*
X1019232Y303065D01*
X1019148Y303108D01*
X1019066Y303154D01*
X1018986Y303203D01*
X1018908Y303255D01*
X1018832Y303311D01*
X1018758Y303369D01*
X1018687Y303431D01*
X1018618Y303495D01*
X1018552Y303562D01*
X1018489Y303631D01*
X1018428Y303703D01*
X1018370Y303777D01*
X1018316Y303854D01*
X1018264Y303932D01*
X1018216Y304013D01*
X1018171Y304095D01*
X1018129Y304180D01*
X1018091Y304266D01*
X1018056Y304353D01*
X1018024Y304441D01*
X1017997Y304531D01*
X1017972Y304622D01*
X1017952Y304714D01*
X1017935Y304806D01*
X1017922Y304900D01*
X1017913Y304993D01*
X1017907Y305087D01*
X1017905Y305181D01*
X1017907Y305275D01*
X1017913Y305369D01*
X1017922Y305462D01*
X1017935Y305556D01*
X1017952Y305648D01*
X1017972Y305740D01*
X1017997Y305831D01*
X1018024Y305921D01*
X1018056Y306009D01*
X1018091Y306096D01*
X1018129Y306182D01*
X1018171Y306267D01*
X1018216Y306349D01*
X1018264Y306430D01*
X1018316Y306508D01*
X1018370Y306585D01*
X1018428Y306659D01*
X1018489Y306731D01*
X1018552Y306800D01*
X1018618Y306867D01*
X1018687Y306931D01*
X1018758Y306993D01*
X1018832Y307051D01*
X1018908Y307107D01*
X1018986Y307159D01*
X1019066Y307208D01*
X1019148Y307254D01*
X1019232Y307297D01*
X1019318Y307336D01*
X1019405Y307372D01*
X1019493Y307404D01*
X1019696Y307500D01*
X1019901Y307591D01*
X1020109Y307677D01*
X1020319Y307758D01*
X1020530Y307835D01*
X1020743Y307906D01*
X1020958Y307972D01*
X1021175Y308033D01*
X1021393Y308089D01*
X1021612Y308139D01*
X1021832Y308185D01*
X1022053Y308225D01*
X1022275Y308260D01*
X1022498Y308289D01*
X1022722Y308313D01*
X1022946Y308332D01*
X1023170Y308345D01*
X1023395Y308353D01*
X1023620Y308356D01*
X1023620Y302006D02*
X1023845Y302009D01*
X1024070Y302017D01*
X1024294Y302030D01*
X1024518Y302049D01*
X1024742Y302073D01*
X1024965Y302102D01*
X1025187Y302137D01*
X1025408Y302177D01*
X1025628Y302223D01*
X1025847Y302273D01*
X1026065Y302329D01*
X1026282Y302390D01*
X1026497Y302456D01*
X1026710Y302527D01*
X1026921Y302604D01*
X1027131Y302685D01*
X1027339Y302771D01*
X1027544Y302862D01*
X1027747Y302958D01*
X1027748Y302958D02*
X1027836Y302990D01*
X1027923Y303026D01*
X1028009Y303065D01*
X1028093Y303108D01*
X1028175Y303154D01*
X1028255Y303203D01*
X1028333Y303255D01*
X1028409Y303311D01*
X1028483Y303369D01*
X1028554Y303431D01*
X1028623Y303495D01*
X1028689Y303562D01*
X1028752Y303631D01*
X1028813Y303703D01*
X1028871Y303777D01*
X1028925Y303854D01*
X1028977Y303932D01*
X1029025Y304013D01*
X1029070Y304095D01*
X1029112Y304180D01*
X1029150Y304266D01*
X1029185Y304353D01*
X1029217Y304441D01*
X1029244Y304531D01*
X1029269Y304622D01*
X1029289Y304714D01*
X1029306Y304806D01*
X1029319Y304900D01*
X1029328Y304993D01*
X1029334Y305087D01*
X1029336Y305181D01*
X1027747Y307404D02*
X1027544Y307500D01*
X1027339Y307591D01*
X1027131Y307677D01*
X1026921Y307758D01*
X1026710Y307835D01*
X1026497Y307906D01*
X1026282Y307972D01*
X1026065Y308033D01*
X1025847Y308089D01*
X1025628Y308139D01*
X1025408Y308185D01*
X1025187Y308225D01*
X1024965Y308260D01*
X1024742Y308289D01*
X1024518Y308313D01*
X1024294Y308332D01*
X1024070Y308345D01*
X1023845Y308353D01*
X1023620Y308356D01*
X1027748Y307404D02*
X1027836Y307372D01*
X1027923Y307336D01*
X1028009Y307297D01*
X1028093Y307254D01*
X1028175Y307208D01*
X1028255Y307159D01*
X1028333Y307107D01*
X1028409Y307051D01*
X1028483Y306993D01*
X1028554Y306931D01*
X1028623Y306867D01*
X1028689Y306800D01*
X1028752Y306731D01*
X1028813Y306659D01*
X1028871Y306585D01*
X1028925Y306508D01*
X1028977Y306430D01*
X1029025Y306349D01*
X1029070Y306267D01*
X1029112Y306182D01*
X1029150Y306096D01*
X1029185Y306009D01*
X1029217Y305921D01*
X1029244Y305831D01*
X1029269Y305740D01*
X1029289Y305648D01*
X1029306Y305556D01*
X1029319Y305462D01*
X1029328Y305369D01*
X1029334Y305275D01*
X1029336Y305181D01*
X1026795Y302641D02*
X1020445Y307721D01*
D10*
X901700Y260350D02*
X901700Y247650D01*
X895350Y241300D01*
X882650Y241300D02*
X876300Y247650D01*
X895350Y241300D02*
X901700Y234950D01*
X901700Y222250D01*
X895350Y215900D01*
X882650Y215900D02*
X876300Y222250D01*
X876300Y234950D01*
X882650Y241300D01*
X882650Y266700D02*
X895350Y266700D01*
X901700Y260350D01*
X882650Y266700D02*
X876300Y260350D01*
X876300Y247650D01*
X895350Y215900D02*
X901700Y209550D01*
X901700Y196850D01*
X895350Y190500D01*
X882650Y190500D02*
X876300Y196850D01*
X876300Y209550D01*
X882650Y215900D01*
X901700Y184150D02*
X901700Y171450D01*
X895350Y165100D01*
X882650Y165100D02*
X876300Y171450D01*
X895350Y165100D02*
X901700Y158750D01*
X901700Y146050D01*
X895350Y139700D01*
X882650Y139700D01*
X876300Y146050D01*
X876300Y158750D01*
X882650Y165100D01*
X901700Y184150D02*
X895350Y190500D01*
X882650Y190500D02*
X876300Y184150D01*
X876300Y171450D01*
D12*
X862965Y253365D02*
X860425Y256540D01*
X871855Y256540D01*
X871855Y253365D02*
X871855Y259715D01*
X917575Y155575D02*
X917575Y151765D01*
X917575Y155575D02*
X917573Y155675D01*
X917567Y155774D01*
X917557Y155874D01*
X917544Y155972D01*
X917526Y156071D01*
X917505Y156168D01*
X917480Y156264D01*
X917451Y156360D01*
X917418Y156454D01*
X917382Y156547D01*
X917342Y156638D01*
X917298Y156728D01*
X917251Y156816D01*
X917201Y156902D01*
X917147Y156986D01*
X917090Y157068D01*
X917030Y157147D01*
X916966Y157225D01*
X916900Y157299D01*
X916831Y157371D01*
X916759Y157440D01*
X916685Y157506D01*
X916607Y157570D01*
X916528Y157630D01*
X916446Y157687D01*
X916362Y157741D01*
X916276Y157791D01*
X916188Y157838D01*
X916098Y157882D01*
X916007Y157922D01*
X915914Y157958D01*
X915820Y157991D01*
X915724Y158020D01*
X915628Y158045D01*
X915531Y158066D01*
X915432Y158084D01*
X915334Y158097D01*
X915234Y158107D01*
X915135Y158113D01*
X915035Y158115D01*
X913765Y158115D01*
X913665Y158113D01*
X913566Y158107D01*
X913466Y158097D01*
X913368Y158084D01*
X913269Y158066D01*
X913172Y158045D01*
X913076Y158020D01*
X912980Y157991D01*
X912886Y157958D01*
X912793Y157922D01*
X912702Y157882D01*
X912612Y157838D01*
X912524Y157791D01*
X912438Y157741D01*
X912354Y157687D01*
X912272Y157630D01*
X912193Y157570D01*
X912115Y157506D01*
X912041Y157440D01*
X911969Y157371D01*
X911900Y157299D01*
X911834Y157225D01*
X911770Y157147D01*
X911710Y157068D01*
X911653Y156986D01*
X911599Y156902D01*
X911549Y156816D01*
X911502Y156728D01*
X911458Y156638D01*
X911418Y156547D01*
X911382Y156454D01*
X911349Y156360D01*
X911320Y156264D01*
X911295Y156168D01*
X911274Y156071D01*
X911256Y155972D01*
X911243Y155874D01*
X911233Y155774D01*
X911227Y155675D01*
X911225Y155575D01*
X911225Y151765D01*
X906145Y151765D01*
X906145Y158115D01*
X906145Y198457D02*
X917575Y198457D01*
X906145Y198457D02*
X906145Y201632D01*
X906147Y201743D01*
X906153Y201853D01*
X906162Y201964D01*
X906176Y202074D01*
X906193Y202183D01*
X906214Y202292D01*
X906239Y202400D01*
X906268Y202507D01*
X906300Y202613D01*
X906336Y202718D01*
X906376Y202821D01*
X906419Y202923D01*
X906466Y203024D01*
X906517Y203123D01*
X906570Y203220D01*
X906627Y203314D01*
X906688Y203407D01*
X906751Y203498D01*
X906818Y203587D01*
X906888Y203673D01*
X906961Y203756D01*
X907036Y203838D01*
X907114Y203916D01*
X907196Y203991D01*
X907279Y204064D01*
X907365Y204134D01*
X907454Y204201D01*
X907545Y204264D01*
X907638Y204325D01*
X907733Y204382D01*
X907829Y204435D01*
X907928Y204486D01*
X908029Y204533D01*
X908131Y204576D01*
X908234Y204616D01*
X908339Y204652D01*
X908445Y204684D01*
X908552Y204713D01*
X908660Y204738D01*
X908769Y204759D01*
X908878Y204776D01*
X908988Y204790D01*
X909099Y204799D01*
X909209Y204805D01*
X909320Y204807D01*
X909431Y204805D01*
X909541Y204799D01*
X909652Y204790D01*
X909762Y204776D01*
X909871Y204759D01*
X909980Y204738D01*
X910088Y204713D01*
X910195Y204684D01*
X910301Y204652D01*
X910406Y204616D01*
X910509Y204576D01*
X910611Y204533D01*
X910712Y204486D01*
X910811Y204435D01*
X910908Y204382D01*
X911002Y204325D01*
X911095Y204264D01*
X911186Y204201D01*
X911275Y204134D01*
X911361Y204064D01*
X911444Y203991D01*
X911526Y203916D01*
X911604Y203838D01*
X911679Y203756D01*
X911752Y203673D01*
X911822Y203587D01*
X911889Y203498D01*
X911952Y203407D01*
X912013Y203314D01*
X912070Y203220D01*
X912123Y203123D01*
X912174Y203024D01*
X912221Y202923D01*
X912264Y202821D01*
X912304Y202718D01*
X912340Y202613D01*
X912372Y202507D01*
X912401Y202400D01*
X912426Y202292D01*
X912447Y202183D01*
X912464Y202074D01*
X912478Y201964D01*
X912487Y201853D01*
X912493Y201743D01*
X912495Y201632D01*
X912495Y198457D01*
X912495Y202267D02*
X917575Y204807D01*
X917575Y210210D02*
X906145Y210210D01*
X906145Y215290D01*
X911225Y215290D02*
X911225Y210210D01*
X906145Y220218D02*
X917575Y220218D01*
X912495Y224028D02*
X906145Y220218D01*
X912495Y224028D02*
X906145Y227838D01*
X917575Y227838D01*
X912495Y235966D02*
X912495Y239776D01*
X912495Y235966D02*
X912493Y235866D01*
X912487Y235767D01*
X912477Y235667D01*
X912464Y235569D01*
X912446Y235470D01*
X912425Y235373D01*
X912400Y235277D01*
X912371Y235181D01*
X912338Y235087D01*
X912302Y234994D01*
X912262Y234903D01*
X912218Y234813D01*
X912171Y234725D01*
X912121Y234639D01*
X912067Y234555D01*
X912010Y234473D01*
X911950Y234394D01*
X911886Y234316D01*
X911820Y234242D01*
X911751Y234170D01*
X911679Y234101D01*
X911605Y234035D01*
X911527Y233971D01*
X911448Y233911D01*
X911366Y233854D01*
X911282Y233800D01*
X911196Y233750D01*
X911108Y233703D01*
X911018Y233659D01*
X910927Y233619D01*
X910834Y233583D01*
X910740Y233550D01*
X910644Y233521D01*
X910548Y233496D01*
X910451Y233475D01*
X910352Y233457D01*
X910254Y233444D01*
X910154Y233434D01*
X910055Y233428D01*
X909955Y233426D01*
X909320Y233426D01*
X909209Y233428D01*
X909099Y233434D01*
X908988Y233443D01*
X908878Y233457D01*
X908769Y233474D01*
X908660Y233495D01*
X908552Y233520D01*
X908445Y233549D01*
X908339Y233581D01*
X908234Y233617D01*
X908131Y233657D01*
X908029Y233700D01*
X907928Y233747D01*
X907829Y233798D01*
X907733Y233851D01*
X907638Y233908D01*
X907545Y233969D01*
X907454Y234032D01*
X907365Y234099D01*
X907279Y234169D01*
X907196Y234242D01*
X907114Y234317D01*
X907036Y234395D01*
X906961Y234477D01*
X906888Y234560D01*
X906818Y234646D01*
X906751Y234735D01*
X906688Y234826D01*
X906627Y234919D01*
X906570Y235014D01*
X906517Y235110D01*
X906466Y235209D01*
X906419Y235310D01*
X906376Y235412D01*
X906336Y235515D01*
X906300Y235620D01*
X906268Y235726D01*
X906239Y235833D01*
X906214Y235941D01*
X906193Y236050D01*
X906176Y236159D01*
X906162Y236269D01*
X906153Y236380D01*
X906147Y236490D01*
X906145Y236601D01*
X906147Y236712D01*
X906153Y236822D01*
X906162Y236933D01*
X906176Y237043D01*
X906193Y237152D01*
X906214Y237261D01*
X906239Y237369D01*
X906268Y237476D01*
X906300Y237582D01*
X906336Y237687D01*
X906376Y237790D01*
X906419Y237892D01*
X906466Y237993D01*
X906517Y238092D01*
X906570Y238189D01*
X906627Y238283D01*
X906688Y238376D01*
X906751Y238467D01*
X906818Y238556D01*
X906888Y238642D01*
X906961Y238725D01*
X907036Y238807D01*
X907114Y238885D01*
X907196Y238960D01*
X907279Y239033D01*
X907365Y239103D01*
X907454Y239170D01*
X907545Y239233D01*
X907638Y239294D01*
X907733Y239351D01*
X907829Y239404D01*
X907928Y239455D01*
X908029Y239502D01*
X908131Y239545D01*
X908234Y239585D01*
X908339Y239621D01*
X908445Y239653D01*
X908552Y239682D01*
X908660Y239707D01*
X908769Y239728D01*
X908878Y239745D01*
X908988Y239759D01*
X909099Y239768D01*
X909209Y239774D01*
X909320Y239776D01*
X912495Y239776D01*
X912635Y239774D01*
X912775Y239768D01*
X912915Y239759D01*
X913054Y239745D01*
X913193Y239728D01*
X913331Y239707D01*
X913469Y239682D01*
X913606Y239653D01*
X913742Y239621D01*
X913877Y239584D01*
X914011Y239544D01*
X914144Y239501D01*
X914276Y239453D01*
X914407Y239403D01*
X914536Y239348D01*
X914663Y239290D01*
X914789Y239229D01*
X914913Y239164D01*
X915035Y239095D01*
X915155Y239024D01*
X915273Y238949D01*
X915390Y238871D01*
X915504Y238789D01*
X915615Y238705D01*
X915724Y238617D01*
X915831Y238527D01*
X915936Y238433D01*
X916037Y238337D01*
X916136Y238238D01*
X916232Y238137D01*
X916326Y238032D01*
X916416Y237925D01*
X916504Y237816D01*
X916588Y237705D01*
X916670Y237591D01*
X916748Y237474D01*
X916823Y237356D01*
X916894Y237236D01*
X916963Y237114D01*
X917028Y236990D01*
X917089Y236864D01*
X917147Y236737D01*
X917202Y236608D01*
X917252Y236477D01*
X917300Y236345D01*
X917343Y236212D01*
X917383Y236078D01*
X917420Y235943D01*
X917452Y235807D01*
X917481Y235670D01*
X917506Y235532D01*
X917527Y235394D01*
X917544Y235255D01*
X917558Y235116D01*
X917567Y234976D01*
X917573Y234836D01*
X917575Y234696D01*
X917575Y244856D02*
X917575Y248666D01*
X917573Y248766D01*
X917567Y248865D01*
X917557Y248965D01*
X917544Y249063D01*
X917526Y249162D01*
X917505Y249259D01*
X917480Y249355D01*
X917451Y249451D01*
X917418Y249545D01*
X917382Y249638D01*
X917342Y249729D01*
X917298Y249819D01*
X917251Y249907D01*
X917201Y249993D01*
X917147Y250077D01*
X917090Y250159D01*
X917030Y250238D01*
X916966Y250316D01*
X916900Y250390D01*
X916831Y250462D01*
X916759Y250531D01*
X916685Y250597D01*
X916607Y250661D01*
X916528Y250721D01*
X916446Y250778D01*
X916362Y250832D01*
X916276Y250882D01*
X916188Y250929D01*
X916098Y250973D01*
X916007Y251013D01*
X915914Y251049D01*
X915820Y251082D01*
X915724Y251111D01*
X915628Y251136D01*
X915531Y251157D01*
X915432Y251175D01*
X915334Y251188D01*
X915234Y251198D01*
X915135Y251204D01*
X915035Y251206D01*
X913765Y251206D01*
X913665Y251204D01*
X913566Y251198D01*
X913466Y251188D01*
X913368Y251175D01*
X913269Y251157D01*
X913172Y251136D01*
X913076Y251111D01*
X912980Y251082D01*
X912886Y251049D01*
X912793Y251013D01*
X912702Y250973D01*
X912612Y250929D01*
X912524Y250882D01*
X912438Y250832D01*
X912354Y250778D01*
X912272Y250721D01*
X912193Y250661D01*
X912115Y250597D01*
X912041Y250531D01*
X911969Y250462D01*
X911900Y250390D01*
X911834Y250316D01*
X911770Y250238D01*
X911710Y250159D01*
X911653Y250077D01*
X911599Y249993D01*
X911549Y249907D01*
X911502Y249819D01*
X911458Y249729D01*
X911418Y249638D01*
X911382Y249545D01*
X911349Y249451D01*
X911320Y249355D01*
X911295Y249259D01*
X911274Y249162D01*
X911256Y249063D01*
X911243Y248965D01*
X911233Y248865D01*
X911227Y248766D01*
X911225Y248666D01*
X911225Y244856D01*
X906145Y244856D01*
X906145Y251206D01*
X906145Y255905D02*
X917575Y258445D01*
X909955Y260985D01*
X917575Y263525D01*
X906145Y266065D01*
D10*
X596900Y158750D02*
X596900Y146050D01*
X596900Y158750D02*
X603250Y165100D01*
X615950Y165100D02*
X622300Y158750D01*
X603250Y165100D02*
X596900Y171450D01*
X596900Y184150D01*
X603250Y190500D01*
X615950Y190500D02*
X622300Y184150D01*
X622300Y171450D01*
X615950Y165100D01*
X615950Y139700D02*
X603250Y139700D01*
X596900Y146050D01*
X615950Y139700D02*
X622300Y146050D01*
X622300Y158750D01*
X603250Y190500D02*
X596900Y196850D01*
X596900Y209550D01*
X603250Y215900D01*
X615950Y215900D02*
X622300Y209550D01*
X622300Y196850D01*
X615950Y190500D01*
X596900Y222250D02*
X596900Y234950D01*
X603250Y241300D01*
X615950Y241300D02*
X622300Y234950D01*
X603250Y241300D02*
X596900Y247650D01*
X596900Y260350D01*
X603250Y266700D01*
X615950Y266700D01*
X622300Y260350D01*
X622300Y247650D01*
X615950Y241300D01*
X596900Y222250D02*
X603250Y215900D01*
X615950Y215900D02*
X622300Y222250D01*
X622300Y234950D01*
D12*
X626745Y149860D02*
X629285Y146685D01*
X626745Y149860D02*
X638175Y149860D01*
X638175Y146685D02*
X638175Y153035D01*
X592455Y248285D02*
X592455Y252095D01*
X592453Y252195D01*
X592447Y252294D01*
X592437Y252394D01*
X592424Y252492D01*
X592406Y252591D01*
X592385Y252688D01*
X592360Y252784D01*
X592331Y252880D01*
X592298Y252974D01*
X592262Y253067D01*
X592222Y253158D01*
X592178Y253248D01*
X592131Y253336D01*
X592081Y253422D01*
X592027Y253506D01*
X591970Y253588D01*
X591910Y253667D01*
X591846Y253745D01*
X591780Y253819D01*
X591711Y253891D01*
X591639Y253960D01*
X591565Y254026D01*
X591487Y254090D01*
X591408Y254150D01*
X591326Y254207D01*
X591242Y254261D01*
X591156Y254311D01*
X591068Y254358D01*
X590978Y254402D01*
X590887Y254442D01*
X590794Y254478D01*
X590700Y254511D01*
X590604Y254540D01*
X590508Y254565D01*
X590411Y254586D01*
X590312Y254604D01*
X590214Y254617D01*
X590114Y254627D01*
X590015Y254633D01*
X589915Y254635D01*
X588645Y254635D01*
X588545Y254633D01*
X588446Y254627D01*
X588346Y254617D01*
X588248Y254604D01*
X588149Y254586D01*
X588052Y254565D01*
X587956Y254540D01*
X587860Y254511D01*
X587766Y254478D01*
X587673Y254442D01*
X587582Y254402D01*
X587492Y254358D01*
X587404Y254311D01*
X587318Y254261D01*
X587234Y254207D01*
X587152Y254150D01*
X587073Y254090D01*
X586995Y254026D01*
X586921Y253960D01*
X586849Y253891D01*
X586780Y253819D01*
X586714Y253745D01*
X586650Y253667D01*
X586590Y253588D01*
X586533Y253506D01*
X586479Y253422D01*
X586429Y253336D01*
X586382Y253248D01*
X586338Y253158D01*
X586298Y253067D01*
X586262Y252974D01*
X586229Y252880D01*
X586200Y252784D01*
X586175Y252688D01*
X586154Y252591D01*
X586136Y252492D01*
X586123Y252394D01*
X586113Y252294D01*
X586107Y252195D01*
X586105Y252095D01*
X586105Y248285D01*
X581025Y248285D01*
X581025Y254635D01*
X581025Y140335D02*
X592455Y140335D01*
X581025Y140335D02*
X581025Y143510D01*
X581027Y143621D01*
X581033Y143731D01*
X581042Y143842D01*
X581056Y143952D01*
X581073Y144061D01*
X581094Y144170D01*
X581119Y144278D01*
X581148Y144385D01*
X581180Y144491D01*
X581216Y144596D01*
X581256Y144699D01*
X581299Y144801D01*
X581346Y144902D01*
X581397Y145001D01*
X581450Y145098D01*
X581507Y145192D01*
X581568Y145285D01*
X581631Y145376D01*
X581698Y145465D01*
X581768Y145551D01*
X581841Y145634D01*
X581916Y145716D01*
X581994Y145794D01*
X582076Y145869D01*
X582159Y145942D01*
X582245Y146012D01*
X582334Y146079D01*
X582425Y146142D01*
X582518Y146203D01*
X582613Y146260D01*
X582709Y146313D01*
X582808Y146364D01*
X582909Y146411D01*
X583011Y146454D01*
X583114Y146494D01*
X583219Y146530D01*
X583325Y146562D01*
X583432Y146591D01*
X583540Y146616D01*
X583649Y146637D01*
X583758Y146654D01*
X583868Y146668D01*
X583979Y146677D01*
X584089Y146683D01*
X584200Y146685D01*
X584311Y146683D01*
X584421Y146677D01*
X584532Y146668D01*
X584642Y146654D01*
X584751Y146637D01*
X584860Y146616D01*
X584968Y146591D01*
X585075Y146562D01*
X585181Y146530D01*
X585286Y146494D01*
X585389Y146454D01*
X585491Y146411D01*
X585592Y146364D01*
X585691Y146313D01*
X585788Y146260D01*
X585882Y146203D01*
X585975Y146142D01*
X586066Y146079D01*
X586155Y146012D01*
X586241Y145942D01*
X586324Y145869D01*
X586406Y145794D01*
X586484Y145716D01*
X586559Y145634D01*
X586632Y145551D01*
X586702Y145465D01*
X586769Y145376D01*
X586832Y145285D01*
X586893Y145192D01*
X586950Y145098D01*
X587003Y145001D01*
X587054Y144902D01*
X587101Y144801D01*
X587144Y144699D01*
X587184Y144596D01*
X587220Y144491D01*
X587252Y144385D01*
X587281Y144278D01*
X587306Y144170D01*
X587327Y144061D01*
X587344Y143952D01*
X587358Y143842D01*
X587367Y143731D01*
X587373Y143621D01*
X587375Y143510D01*
X587375Y140335D01*
X587375Y144145D02*
X592455Y146685D01*
X592455Y152089D02*
X581025Y152089D01*
X581025Y157169D01*
X586105Y157169D02*
X586105Y152089D01*
X581025Y162096D02*
X592455Y162096D01*
X587375Y165906D02*
X581025Y162096D01*
X587375Y165906D02*
X581025Y169716D01*
X592455Y169716D01*
X587375Y177844D02*
X587375Y181654D01*
X587375Y177844D02*
X587373Y177744D01*
X587367Y177645D01*
X587357Y177545D01*
X587344Y177447D01*
X587326Y177348D01*
X587305Y177251D01*
X587280Y177155D01*
X587251Y177059D01*
X587218Y176965D01*
X587182Y176872D01*
X587142Y176781D01*
X587098Y176691D01*
X587051Y176603D01*
X587001Y176517D01*
X586947Y176433D01*
X586890Y176351D01*
X586830Y176272D01*
X586766Y176194D01*
X586700Y176120D01*
X586631Y176048D01*
X586559Y175979D01*
X586485Y175913D01*
X586407Y175849D01*
X586328Y175789D01*
X586246Y175732D01*
X586162Y175678D01*
X586076Y175628D01*
X585988Y175581D01*
X585898Y175537D01*
X585807Y175497D01*
X585714Y175461D01*
X585620Y175428D01*
X585524Y175399D01*
X585428Y175374D01*
X585331Y175353D01*
X585232Y175335D01*
X585134Y175322D01*
X585034Y175312D01*
X584935Y175306D01*
X584835Y175304D01*
X584200Y175304D01*
X584089Y175306D01*
X583979Y175312D01*
X583868Y175321D01*
X583758Y175335D01*
X583649Y175352D01*
X583540Y175373D01*
X583432Y175398D01*
X583325Y175427D01*
X583219Y175459D01*
X583114Y175495D01*
X583011Y175535D01*
X582909Y175578D01*
X582808Y175625D01*
X582709Y175676D01*
X582613Y175729D01*
X582518Y175786D01*
X582425Y175847D01*
X582334Y175910D01*
X582245Y175977D01*
X582159Y176047D01*
X582076Y176120D01*
X581994Y176195D01*
X581916Y176273D01*
X581841Y176355D01*
X581768Y176438D01*
X581698Y176524D01*
X581631Y176613D01*
X581568Y176704D01*
X581507Y176797D01*
X581450Y176892D01*
X581397Y176988D01*
X581346Y177087D01*
X581299Y177188D01*
X581256Y177290D01*
X581216Y177393D01*
X581180Y177498D01*
X581148Y177604D01*
X581119Y177711D01*
X581094Y177819D01*
X581073Y177928D01*
X581056Y178037D01*
X581042Y178147D01*
X581033Y178258D01*
X581027Y178368D01*
X581025Y178479D01*
X581027Y178590D01*
X581033Y178700D01*
X581042Y178811D01*
X581056Y178921D01*
X581073Y179030D01*
X581094Y179139D01*
X581119Y179247D01*
X581148Y179354D01*
X581180Y179460D01*
X581216Y179565D01*
X581256Y179668D01*
X581299Y179770D01*
X581346Y179871D01*
X581397Y179970D01*
X581450Y180067D01*
X581507Y180161D01*
X581568Y180254D01*
X581631Y180345D01*
X581698Y180434D01*
X581768Y180520D01*
X581841Y180603D01*
X581916Y180685D01*
X581994Y180763D01*
X582076Y180838D01*
X582159Y180911D01*
X582245Y180981D01*
X582334Y181048D01*
X582425Y181111D01*
X582518Y181172D01*
X582613Y181229D01*
X582709Y181282D01*
X582808Y181333D01*
X582909Y181380D01*
X583011Y181423D01*
X583114Y181463D01*
X583219Y181499D01*
X583325Y181531D01*
X583432Y181560D01*
X583540Y181585D01*
X583649Y181606D01*
X583758Y181623D01*
X583868Y181637D01*
X583979Y181646D01*
X584089Y181652D01*
X584200Y181654D01*
X587375Y181654D01*
X587515Y181652D01*
X587655Y181646D01*
X587795Y181637D01*
X587934Y181623D01*
X588073Y181606D01*
X588211Y181585D01*
X588349Y181560D01*
X588486Y181531D01*
X588622Y181499D01*
X588757Y181462D01*
X588891Y181422D01*
X589024Y181379D01*
X589156Y181331D01*
X589287Y181281D01*
X589416Y181226D01*
X589543Y181168D01*
X589669Y181107D01*
X589793Y181042D01*
X589915Y180973D01*
X590035Y180902D01*
X590153Y180827D01*
X590270Y180749D01*
X590384Y180667D01*
X590495Y180583D01*
X590604Y180495D01*
X590711Y180405D01*
X590816Y180311D01*
X590917Y180215D01*
X591016Y180116D01*
X591112Y180015D01*
X591206Y179910D01*
X591296Y179803D01*
X591384Y179694D01*
X591468Y179583D01*
X591550Y179469D01*
X591628Y179352D01*
X591703Y179234D01*
X591774Y179114D01*
X591843Y178992D01*
X591908Y178868D01*
X591969Y178742D01*
X592027Y178615D01*
X592082Y178486D01*
X592132Y178355D01*
X592180Y178223D01*
X592223Y178090D01*
X592263Y177956D01*
X592300Y177821D01*
X592332Y177685D01*
X592361Y177548D01*
X592386Y177410D01*
X592407Y177272D01*
X592424Y177133D01*
X592438Y176994D01*
X592447Y176854D01*
X592453Y176714D01*
X592455Y176574D01*
X592455Y186734D02*
X592455Y190544D01*
X592453Y190644D01*
X592447Y190743D01*
X592437Y190843D01*
X592424Y190941D01*
X592406Y191040D01*
X592385Y191137D01*
X592360Y191233D01*
X592331Y191329D01*
X592298Y191423D01*
X592262Y191516D01*
X592222Y191607D01*
X592178Y191697D01*
X592131Y191785D01*
X592081Y191871D01*
X592027Y191955D01*
X591970Y192037D01*
X591910Y192116D01*
X591846Y192194D01*
X591780Y192268D01*
X591711Y192340D01*
X591639Y192409D01*
X591565Y192475D01*
X591487Y192539D01*
X591408Y192599D01*
X591326Y192656D01*
X591242Y192710D01*
X591156Y192760D01*
X591068Y192807D01*
X590978Y192851D01*
X590887Y192891D01*
X590794Y192927D01*
X590700Y192960D01*
X590604Y192989D01*
X590508Y193014D01*
X590411Y193035D01*
X590312Y193053D01*
X590214Y193066D01*
X590114Y193076D01*
X590015Y193082D01*
X589915Y193084D01*
X588645Y193084D01*
X588545Y193082D01*
X588446Y193076D01*
X588346Y193066D01*
X588248Y193053D01*
X588149Y193035D01*
X588052Y193014D01*
X587956Y192989D01*
X587860Y192960D01*
X587766Y192927D01*
X587673Y192891D01*
X587582Y192851D01*
X587492Y192807D01*
X587404Y192760D01*
X587318Y192710D01*
X587234Y192656D01*
X587152Y192599D01*
X587073Y192539D01*
X586995Y192475D01*
X586921Y192409D01*
X586849Y192340D01*
X586780Y192268D01*
X586714Y192194D01*
X586650Y192116D01*
X586590Y192037D01*
X586533Y191955D01*
X586479Y191871D01*
X586429Y191785D01*
X586382Y191697D01*
X586338Y191607D01*
X586298Y191516D01*
X586262Y191423D01*
X586229Y191329D01*
X586200Y191233D01*
X586175Y191137D01*
X586154Y191040D01*
X586136Y190941D01*
X586123Y190843D01*
X586113Y190743D01*
X586107Y190644D01*
X586105Y190544D01*
X586105Y186734D01*
X581025Y186734D01*
X581025Y193084D01*
X581025Y197783D02*
X592455Y200323D01*
X584835Y202863D01*
X592455Y205403D01*
X581025Y207943D01*
X593725Y212134D02*
X593725Y217214D01*
X583883Y228137D02*
X583779Y228135D01*
X583674Y228129D01*
X583570Y228120D01*
X583467Y228107D01*
X583364Y228089D01*
X583262Y228069D01*
X583160Y228044D01*
X583060Y228016D01*
X582960Y227984D01*
X582862Y227948D01*
X582765Y227909D01*
X582670Y227867D01*
X582576Y227821D01*
X582484Y227771D01*
X582394Y227719D01*
X582306Y227663D01*
X582220Y227603D01*
X582136Y227541D01*
X582055Y227476D01*
X581976Y227408D01*
X581899Y227336D01*
X581826Y227263D01*
X581754Y227186D01*
X581686Y227107D01*
X581621Y227026D01*
X581559Y226942D01*
X581499Y226856D01*
X581443Y226768D01*
X581391Y226678D01*
X581341Y226586D01*
X581295Y226492D01*
X581253Y226397D01*
X581214Y226300D01*
X581178Y226202D01*
X581146Y226102D01*
X581118Y226002D01*
X581093Y225900D01*
X581073Y225798D01*
X581055Y225695D01*
X581042Y225592D01*
X581033Y225488D01*
X581027Y225383D01*
X581025Y225279D01*
X581027Y225161D01*
X581033Y225042D01*
X581042Y224924D01*
X581055Y224807D01*
X581073Y224690D01*
X581093Y224573D01*
X581118Y224457D01*
X581146Y224342D01*
X581179Y224229D01*
X581214Y224116D01*
X581254Y224004D01*
X581296Y223894D01*
X581343Y223785D01*
X581393Y223677D01*
X581446Y223572D01*
X581503Y223468D01*
X581563Y223366D01*
X581626Y223266D01*
X581693Y223168D01*
X581762Y223072D01*
X581835Y222979D01*
X581911Y222888D01*
X581989Y222799D01*
X582071Y222713D01*
X582155Y222630D01*
X582241Y222549D01*
X582331Y222472D01*
X582422Y222397D01*
X582516Y222325D01*
X582613Y222256D01*
X582711Y222191D01*
X582812Y222128D01*
X582915Y222069D01*
X583019Y222013D01*
X583125Y221961D01*
X583233Y221912D01*
X583342Y221867D01*
X583453Y221825D01*
X583565Y221787D01*
X586105Y227184D02*
X586030Y227260D01*
X585951Y227335D01*
X585870Y227406D01*
X585786Y227475D01*
X585700Y227540D01*
X585612Y227602D01*
X585522Y227662D01*
X585430Y227718D01*
X585335Y227771D01*
X585239Y227820D01*
X585141Y227866D01*
X585042Y227909D01*
X584941Y227948D01*
X584839Y227983D01*
X584736Y228015D01*
X584632Y228043D01*
X584527Y228068D01*
X584420Y228089D01*
X584314Y228106D01*
X584207Y228119D01*
X584099Y228128D01*
X583991Y228134D01*
X583883Y228136D01*
X586105Y227184D02*
X592455Y221786D01*
X592455Y228136D01*
D11*
X660400Y377190D02*
X660400Y389890D01*
X660400Y377190D02*
X654050Y370840D01*
X641350Y370840D02*
X635000Y377190D01*
X654050Y370840D02*
X660400Y364490D01*
X660400Y351790D01*
X654050Y345440D01*
X641350Y345440D02*
X635000Y351790D01*
X635000Y364490D01*
X641350Y370840D01*
X641350Y396240D02*
X654050Y396240D01*
X660400Y389890D01*
X641350Y396240D02*
X635000Y389890D01*
X635000Y377190D01*
X641350Y345440D02*
X654050Y345440D01*
D12*
X667131Y381951D02*
X667131Y383560D01*
X667129Y383625D01*
X667123Y383689D01*
X667113Y383753D01*
X667100Y383817D01*
X667082Y383879D01*
X667061Y383940D01*
X667037Y384000D01*
X667008Y384058D01*
X666976Y384115D01*
X666941Y384169D01*
X666903Y384221D01*
X666861Y384271D01*
X666817Y384318D01*
X666770Y384362D01*
X666720Y384404D01*
X666668Y384442D01*
X666614Y384477D01*
X666557Y384509D01*
X666499Y384538D01*
X666439Y384562D01*
X666378Y384583D01*
X666316Y384601D01*
X666252Y384614D01*
X666188Y384624D01*
X666124Y384630D01*
X666059Y384632D01*
X665522Y384632D01*
X665457Y384630D01*
X665393Y384624D01*
X665329Y384614D01*
X665265Y384601D01*
X665203Y384583D01*
X665142Y384562D01*
X665082Y384538D01*
X665024Y384509D01*
X664967Y384477D01*
X664913Y384442D01*
X664861Y384404D01*
X664811Y384362D01*
X664764Y384318D01*
X664720Y384271D01*
X664678Y384221D01*
X664640Y384169D01*
X664605Y384115D01*
X664573Y384058D01*
X664544Y384000D01*
X664520Y383940D01*
X664499Y383879D01*
X664481Y383817D01*
X664468Y383753D01*
X664458Y383689D01*
X664452Y383625D01*
X664450Y383560D01*
X664450Y381951D01*
X662305Y381951D01*
X662305Y384632D01*
X662305Y387169D02*
X667131Y388778D01*
X662305Y390387D01*
X663377Y392924D02*
X662305Y394264D01*
X667131Y394264D01*
X667131Y392924D02*
X667131Y395605D01*
D11*
X1013460Y331470D02*
X1013460Y318770D01*
X1007110Y312420D01*
X994410Y312420D02*
X988060Y318770D01*
X1007110Y312420D02*
X1013460Y306070D01*
X1013460Y293370D01*
X1007110Y287020D01*
X994410Y287020D02*
X988060Y293370D01*
X988060Y306070D01*
X994410Y312420D01*
X994410Y337820D02*
X1007110Y337820D01*
X1013460Y331470D01*
X994410Y337820D02*
X988060Y331470D01*
X988060Y318770D01*
X994410Y287020D02*
X1007110Y287020D01*
D12*
X1020191Y323531D02*
X1020191Y325140D01*
X1020189Y325205D01*
X1020183Y325269D01*
X1020173Y325333D01*
X1020160Y325397D01*
X1020142Y325459D01*
X1020121Y325520D01*
X1020097Y325580D01*
X1020068Y325638D01*
X1020036Y325695D01*
X1020001Y325749D01*
X1019963Y325801D01*
X1019921Y325851D01*
X1019877Y325898D01*
X1019830Y325942D01*
X1019780Y325984D01*
X1019728Y326022D01*
X1019674Y326057D01*
X1019617Y326089D01*
X1019559Y326118D01*
X1019499Y326142D01*
X1019438Y326163D01*
X1019376Y326181D01*
X1019312Y326194D01*
X1019248Y326204D01*
X1019184Y326210D01*
X1019119Y326212D01*
X1018582Y326212D01*
X1018517Y326210D01*
X1018453Y326204D01*
X1018389Y326194D01*
X1018325Y326181D01*
X1018263Y326163D01*
X1018202Y326142D01*
X1018142Y326118D01*
X1018084Y326089D01*
X1018027Y326057D01*
X1017973Y326022D01*
X1017921Y325984D01*
X1017871Y325942D01*
X1017824Y325898D01*
X1017780Y325851D01*
X1017738Y325801D01*
X1017700Y325749D01*
X1017665Y325695D01*
X1017633Y325638D01*
X1017604Y325580D01*
X1017580Y325520D01*
X1017559Y325459D01*
X1017541Y325397D01*
X1017528Y325333D01*
X1017518Y325269D01*
X1017512Y325205D01*
X1017510Y325140D01*
X1017510Y323531D01*
X1015365Y323531D01*
X1015365Y326212D01*
X1015365Y328749D02*
X1020191Y330358D01*
X1015365Y331967D01*
X1015365Y335978D02*
X1015367Y336046D01*
X1015373Y336113D01*
X1015382Y336180D01*
X1015395Y336247D01*
X1015412Y336312D01*
X1015433Y336377D01*
X1015457Y336440D01*
X1015485Y336502D01*
X1015516Y336562D01*
X1015550Y336620D01*
X1015588Y336676D01*
X1015628Y336731D01*
X1015672Y336782D01*
X1015719Y336831D01*
X1015768Y336878D01*
X1015819Y336922D01*
X1015874Y336962D01*
X1015930Y337000D01*
X1015988Y337034D01*
X1016048Y337065D01*
X1016110Y337093D01*
X1016173Y337117D01*
X1016238Y337138D01*
X1016303Y337155D01*
X1016370Y337168D01*
X1016437Y337177D01*
X1016504Y337183D01*
X1016572Y337185D01*
X1015365Y335978D02*
X1015367Y335900D01*
X1015373Y335822D01*
X1015383Y335745D01*
X1015396Y335668D01*
X1015414Y335592D01*
X1015435Y335517D01*
X1015460Y335443D01*
X1015489Y335371D01*
X1015521Y335300D01*
X1015557Y335231D01*
X1015596Y335163D01*
X1015639Y335098D01*
X1015685Y335035D01*
X1015734Y334974D01*
X1015786Y334916D01*
X1015841Y334861D01*
X1015898Y334808D01*
X1015958Y334759D01*
X1016021Y334712D01*
X1016086Y334669D01*
X1016152Y334629D01*
X1016221Y334592D01*
X1016292Y334559D01*
X1016364Y334529D01*
X1016438Y334503D01*
X1017510Y336783D02*
X1017461Y336832D01*
X1017409Y336879D01*
X1017354Y336922D01*
X1017297Y336963D01*
X1017238Y337001D01*
X1017177Y337035D01*
X1017114Y337066D01*
X1017050Y337094D01*
X1016984Y337118D01*
X1016918Y337138D01*
X1016850Y337155D01*
X1016781Y337168D01*
X1016712Y337177D01*
X1016642Y337183D01*
X1016572Y337185D01*
X1017510Y336783D02*
X1020191Y334504D01*
X1020191Y337185D01*
X714840Y43740D02*
X714840Y26190D01*
X788840Y26190D02*
X788840Y43740D01*
X716640Y43740D02*
X714840Y43740D01*
X787040Y43740D02*
X788840Y43740D01*
X714840Y3440D02*
X714840Y740D01*
X788840Y740D02*
X788840Y3440D01*
X788840Y740D02*
X714840Y740D01*
D18*
X737340Y56240D02*
X737342Y56303D01*
X737348Y56365D01*
X737358Y56427D01*
X737371Y56489D01*
X737389Y56549D01*
X737410Y56608D01*
X737435Y56666D01*
X737464Y56722D01*
X737496Y56776D01*
X737531Y56828D01*
X737569Y56877D01*
X737611Y56925D01*
X737655Y56969D01*
X737703Y57011D01*
X737752Y57049D01*
X737804Y57084D01*
X737858Y57116D01*
X737914Y57145D01*
X737972Y57170D01*
X738031Y57191D01*
X738091Y57209D01*
X738153Y57222D01*
X738215Y57232D01*
X738277Y57238D01*
X738340Y57240D01*
X738403Y57238D01*
X738465Y57232D01*
X738527Y57222D01*
X738589Y57209D01*
X738649Y57191D01*
X738708Y57170D01*
X738766Y57145D01*
X738822Y57116D01*
X738876Y57084D01*
X738928Y57049D01*
X738977Y57011D01*
X739025Y56969D01*
X739069Y56925D01*
X739111Y56877D01*
X739149Y56828D01*
X739184Y56776D01*
X739216Y56722D01*
X739245Y56666D01*
X739270Y56608D01*
X739291Y56549D01*
X739309Y56489D01*
X739322Y56427D01*
X739332Y56365D01*
X739338Y56303D01*
X739340Y56240D01*
X739338Y56177D01*
X739332Y56115D01*
X739322Y56053D01*
X739309Y55991D01*
X739291Y55931D01*
X739270Y55872D01*
X739245Y55814D01*
X739216Y55758D01*
X739184Y55704D01*
X739149Y55652D01*
X739111Y55603D01*
X739069Y55555D01*
X739025Y55511D01*
X738977Y55469D01*
X738928Y55431D01*
X738876Y55396D01*
X738822Y55364D01*
X738766Y55335D01*
X738708Y55310D01*
X738649Y55289D01*
X738589Y55271D01*
X738527Y55258D01*
X738465Y55248D01*
X738403Y55242D01*
X738340Y55240D01*
X738277Y55242D01*
X738215Y55248D01*
X738153Y55258D01*
X738091Y55271D01*
X738031Y55289D01*
X737972Y55310D01*
X737914Y55335D01*
X737858Y55364D01*
X737804Y55396D01*
X737752Y55431D01*
X737703Y55469D01*
X737655Y55511D01*
X737611Y55555D01*
X737569Y55603D01*
X737531Y55652D01*
X737496Y55704D01*
X737464Y55758D01*
X737435Y55814D01*
X737410Y55872D01*
X737389Y55931D01*
X737371Y55991D01*
X737358Y56053D01*
X737348Y56115D01*
X737342Y56177D01*
X737340Y56240D01*
D19*
X715804Y62239D02*
X715804Y71336D01*
X715804Y62239D02*
X715802Y62139D01*
X715796Y62040D01*
X715787Y61941D01*
X715774Y61842D01*
X715756Y61744D01*
X715736Y61647D01*
X715711Y61550D01*
X715683Y61455D01*
X715651Y61360D01*
X715616Y61267D01*
X715577Y61176D01*
X715534Y61086D01*
X715488Y60997D01*
X715439Y60911D01*
X715387Y60826D01*
X715331Y60744D01*
X715272Y60663D01*
X715210Y60585D01*
X715145Y60510D01*
X715078Y60437D01*
X715007Y60366D01*
X714934Y60299D01*
X714859Y60234D01*
X714781Y60172D01*
X714700Y60113D01*
X714618Y60057D01*
X714533Y60005D01*
X714447Y59956D01*
X714358Y59910D01*
X714268Y59867D01*
X714177Y59828D01*
X714084Y59793D01*
X713989Y59761D01*
X713894Y59733D01*
X713797Y59708D01*
X713700Y59688D01*
X713602Y59670D01*
X713503Y59657D01*
X713404Y59648D01*
X713305Y59642D01*
X713205Y59640D01*
X713205Y59639D02*
X711905Y59639D01*
X724656Y71335D02*
X724763Y71333D01*
X724869Y71327D01*
X724976Y71317D01*
X725082Y71304D01*
X725187Y71286D01*
X725292Y71265D01*
X725396Y71240D01*
X725498Y71211D01*
X725600Y71178D01*
X725701Y71142D01*
X725800Y71102D01*
X725897Y71059D01*
X725993Y71011D01*
X726087Y70961D01*
X726179Y70907D01*
X726269Y70850D01*
X726357Y70789D01*
X726443Y70725D01*
X726526Y70659D01*
X726607Y70589D01*
X726685Y70516D01*
X726761Y70440D01*
X726834Y70362D01*
X726904Y70281D01*
X726970Y70198D01*
X727034Y70112D01*
X727095Y70024D01*
X727152Y69934D01*
X727206Y69842D01*
X727256Y69748D01*
X727304Y69652D01*
X727347Y69555D01*
X727387Y69456D01*
X727423Y69355D01*
X727456Y69253D01*
X727485Y69151D01*
X727510Y69047D01*
X727531Y68942D01*
X727549Y68837D01*
X727562Y68731D01*
X727572Y68624D01*
X727578Y68518D01*
X727580Y68411D01*
X724656Y71336D02*
X724535Y71334D01*
X724414Y71328D01*
X724293Y71318D01*
X724173Y71305D01*
X724053Y71287D01*
X723934Y71266D01*
X723815Y71241D01*
X723698Y71212D01*
X723581Y71179D01*
X723465Y71142D01*
X723351Y71102D01*
X723238Y71058D01*
X723127Y71011D01*
X723017Y70960D01*
X722909Y70905D01*
X722802Y70847D01*
X722698Y70785D01*
X722596Y70721D01*
X722496Y70653D01*
X722398Y70581D01*
X722302Y70507D01*
X722209Y70430D01*
X722118Y70349D01*
X722030Y70266D01*
X721945Y70180D01*
X721862Y70091D01*
X721783Y70000D01*
X721706Y69906D01*
X721633Y69810D01*
X721562Y69711D01*
X721495Y69610D01*
X721432Y69507D01*
X721371Y69402D01*
X721314Y69295D01*
X721260Y69187D01*
X721210Y69076D01*
X721164Y68964D01*
X721121Y68851D01*
X721082Y68737D01*
X726605Y66136D02*
X726684Y66214D01*
X726760Y66295D01*
X726833Y66378D01*
X726903Y66463D01*
X726970Y66551D01*
X727034Y66641D01*
X727095Y66734D01*
X727152Y66828D01*
X727206Y66925D01*
X727257Y67023D01*
X727304Y67123D01*
X727347Y67225D01*
X727387Y67328D01*
X727424Y67432D01*
X727456Y67538D01*
X727485Y67645D01*
X727510Y67752D01*
X727531Y67861D01*
X727549Y67970D01*
X727562Y68080D01*
X727572Y68190D01*
X727578Y68300D01*
X727580Y68411D01*
X726605Y66137D02*
X721082Y59639D01*
X727580Y59639D01*
D12*
X692531Y685772D02*
X692531Y686844D01*
X692531Y685772D02*
X692529Y685707D01*
X692523Y685643D01*
X692513Y685579D01*
X692500Y685515D01*
X692482Y685453D01*
X692461Y685392D01*
X692437Y685332D01*
X692408Y685274D01*
X692376Y685217D01*
X692341Y685163D01*
X692303Y685111D01*
X692261Y685061D01*
X692217Y685014D01*
X692170Y684970D01*
X692120Y684928D01*
X692068Y684890D01*
X692014Y684855D01*
X691957Y684823D01*
X691899Y684794D01*
X691839Y684770D01*
X691778Y684749D01*
X691716Y684731D01*
X691652Y684718D01*
X691588Y684708D01*
X691524Y684702D01*
X691459Y684700D01*
X691459Y684699D02*
X688777Y684699D01*
X688712Y684701D01*
X688648Y684707D01*
X688584Y684717D01*
X688520Y684730D01*
X688458Y684748D01*
X688397Y684769D01*
X688337Y684794D01*
X688278Y684822D01*
X688222Y684854D01*
X688167Y684889D01*
X688115Y684927D01*
X688065Y684969D01*
X688018Y685013D01*
X687974Y685060D01*
X687932Y685110D01*
X687894Y685162D01*
X687859Y685217D01*
X687827Y685273D01*
X687799Y685332D01*
X687774Y685391D01*
X687753Y685453D01*
X687735Y685515D01*
X687722Y685579D01*
X687712Y685643D01*
X687706Y685707D01*
X687704Y685772D01*
X687705Y685772D02*
X687705Y686844D01*
X690386Y690372D02*
X690386Y691981D01*
X690386Y690372D02*
X690384Y690307D01*
X690378Y690243D01*
X690368Y690179D01*
X690355Y690115D01*
X690337Y690053D01*
X690316Y689992D01*
X690292Y689932D01*
X690263Y689874D01*
X690231Y689817D01*
X690196Y689763D01*
X690158Y689711D01*
X690116Y689661D01*
X690072Y689614D01*
X690025Y689570D01*
X689975Y689528D01*
X689923Y689490D01*
X689869Y689455D01*
X689812Y689423D01*
X689754Y689394D01*
X689694Y689370D01*
X689633Y689349D01*
X689571Y689331D01*
X689507Y689318D01*
X689443Y689308D01*
X689379Y689302D01*
X689314Y689300D01*
X689046Y689300D01*
X689046Y689299D02*
X688975Y689301D01*
X688903Y689307D01*
X688833Y689316D01*
X688763Y689329D01*
X688693Y689346D01*
X688625Y689367D01*
X688558Y689391D01*
X688492Y689419D01*
X688428Y689450D01*
X688365Y689485D01*
X688305Y689523D01*
X688246Y689564D01*
X688190Y689608D01*
X688136Y689655D01*
X688085Y689704D01*
X688037Y689757D01*
X687991Y689812D01*
X687949Y689869D01*
X687909Y689929D01*
X687873Y689990D01*
X687840Y690054D01*
X687811Y690119D01*
X687785Y690185D01*
X687762Y690253D01*
X687743Y690322D01*
X687728Y690392D01*
X687717Y690462D01*
X687709Y690533D01*
X687705Y690604D01*
X687705Y690676D01*
X687709Y690747D01*
X687717Y690818D01*
X687728Y690888D01*
X687743Y690958D01*
X687762Y691027D01*
X687785Y691095D01*
X687811Y691161D01*
X687840Y691226D01*
X687873Y691290D01*
X687909Y691351D01*
X687949Y691411D01*
X687991Y691468D01*
X688037Y691523D01*
X688085Y691576D01*
X688136Y691625D01*
X688190Y691672D01*
X688246Y691716D01*
X688305Y691757D01*
X688365Y691795D01*
X688428Y691830D01*
X688492Y691861D01*
X688558Y691889D01*
X688625Y691913D01*
X688693Y691934D01*
X688763Y691951D01*
X688833Y691964D01*
X688903Y691973D01*
X688975Y691979D01*
X689046Y691981D01*
X690386Y691981D01*
X690477Y691979D01*
X690568Y691973D01*
X690658Y691964D01*
X690749Y691950D01*
X690838Y691933D01*
X690926Y691912D01*
X691014Y691887D01*
X691101Y691858D01*
X691186Y691826D01*
X691270Y691791D01*
X691352Y691751D01*
X691432Y691709D01*
X691511Y691663D01*
X691587Y691613D01*
X691661Y691561D01*
X691734Y691505D01*
X691803Y691446D01*
X691870Y691385D01*
X691935Y691320D01*
X691996Y691253D01*
X692055Y691184D01*
X692111Y691111D01*
X692163Y691037D01*
X692213Y690961D01*
X692259Y690882D01*
X692301Y690802D01*
X692341Y690720D01*
X692376Y690636D01*
X692408Y690551D01*
X692437Y690464D01*
X692462Y690376D01*
X692483Y690288D01*
X692500Y690199D01*
X692514Y690108D01*
X692523Y690018D01*
X692529Y689927D01*
X692531Y689836D01*
X871855Y653824D02*
X871855Y652752D01*
X871853Y652687D01*
X871847Y652623D01*
X871837Y652559D01*
X871824Y652495D01*
X871806Y652433D01*
X871785Y652372D01*
X871761Y652312D01*
X871732Y652254D01*
X871700Y652197D01*
X871665Y652143D01*
X871627Y652091D01*
X871585Y652041D01*
X871541Y651994D01*
X871494Y651950D01*
X871444Y651908D01*
X871392Y651870D01*
X871338Y651835D01*
X871281Y651803D01*
X871223Y651774D01*
X871163Y651750D01*
X871102Y651729D01*
X871040Y651711D01*
X870976Y651698D01*
X870912Y651688D01*
X870848Y651682D01*
X870783Y651680D01*
X870783Y651679D02*
X868101Y651679D01*
X868036Y651681D01*
X867972Y651687D01*
X867908Y651697D01*
X867844Y651710D01*
X867782Y651728D01*
X867721Y651749D01*
X867661Y651774D01*
X867602Y651802D01*
X867546Y651834D01*
X867491Y651869D01*
X867439Y651907D01*
X867389Y651949D01*
X867342Y651993D01*
X867298Y652040D01*
X867256Y652090D01*
X867218Y652142D01*
X867183Y652197D01*
X867151Y652253D01*
X867123Y652312D01*
X867098Y652371D01*
X867077Y652433D01*
X867059Y652495D01*
X867046Y652559D01*
X867036Y652623D01*
X867030Y652687D01*
X867028Y652752D01*
X867029Y652752D02*
X867029Y653824D01*
X870514Y656279D02*
X870443Y656281D01*
X870371Y656287D01*
X870301Y656296D01*
X870231Y656309D01*
X870161Y656326D01*
X870093Y656347D01*
X870026Y656371D01*
X869960Y656399D01*
X869896Y656430D01*
X869833Y656465D01*
X869773Y656503D01*
X869714Y656544D01*
X869658Y656588D01*
X869604Y656635D01*
X869553Y656684D01*
X869505Y656737D01*
X869459Y656792D01*
X869417Y656849D01*
X869377Y656909D01*
X869341Y656970D01*
X869308Y657034D01*
X869279Y657099D01*
X869253Y657165D01*
X869230Y657233D01*
X869211Y657302D01*
X869196Y657372D01*
X869185Y657442D01*
X869177Y657513D01*
X869173Y657584D01*
X869173Y657656D01*
X869177Y657727D01*
X869185Y657798D01*
X869196Y657868D01*
X869211Y657938D01*
X869230Y658007D01*
X869253Y658075D01*
X869279Y658141D01*
X869308Y658206D01*
X869341Y658270D01*
X869377Y658331D01*
X869417Y658391D01*
X869459Y658448D01*
X869505Y658503D01*
X869553Y658556D01*
X869604Y658605D01*
X869658Y658652D01*
X869714Y658696D01*
X869773Y658737D01*
X869833Y658775D01*
X869896Y658810D01*
X869960Y658841D01*
X870026Y658869D01*
X870093Y658893D01*
X870161Y658914D01*
X870231Y658931D01*
X870301Y658944D01*
X870371Y658953D01*
X870443Y658959D01*
X870514Y658961D01*
X870585Y658959D01*
X870657Y658953D01*
X870727Y658944D01*
X870797Y658931D01*
X870867Y658914D01*
X870935Y658893D01*
X871002Y658869D01*
X871068Y658841D01*
X871132Y658810D01*
X871195Y658775D01*
X871255Y658737D01*
X871314Y658696D01*
X871370Y658652D01*
X871424Y658605D01*
X871475Y658556D01*
X871523Y658503D01*
X871569Y658448D01*
X871611Y658391D01*
X871651Y658331D01*
X871687Y658270D01*
X871720Y658206D01*
X871749Y658141D01*
X871775Y658075D01*
X871798Y658007D01*
X871817Y657938D01*
X871832Y657868D01*
X871843Y657798D01*
X871851Y657727D01*
X871855Y657656D01*
X871855Y657584D01*
X871851Y657513D01*
X871843Y657442D01*
X871832Y657372D01*
X871817Y657302D01*
X871798Y657233D01*
X871775Y657165D01*
X871749Y657099D01*
X871720Y657034D01*
X871687Y656970D01*
X871651Y656909D01*
X871611Y656849D01*
X871569Y656792D01*
X871523Y656737D01*
X871475Y656684D01*
X871424Y656635D01*
X871370Y656588D01*
X871314Y656544D01*
X871255Y656503D01*
X871195Y656465D01*
X871132Y656430D01*
X871068Y656399D01*
X871002Y656371D01*
X870935Y656347D01*
X870867Y656326D01*
X870797Y656309D01*
X870727Y656296D01*
X870657Y656287D01*
X870585Y656281D01*
X870514Y656279D01*
X868101Y656548D02*
X868036Y656550D01*
X867972Y656556D01*
X867908Y656566D01*
X867844Y656579D01*
X867782Y656597D01*
X867721Y656618D01*
X867661Y656642D01*
X867603Y656671D01*
X867546Y656703D01*
X867492Y656738D01*
X867440Y656776D01*
X867390Y656818D01*
X867343Y656862D01*
X867299Y656909D01*
X867257Y656959D01*
X867219Y657011D01*
X867184Y657065D01*
X867152Y657122D01*
X867123Y657180D01*
X867099Y657240D01*
X867078Y657301D01*
X867060Y657363D01*
X867047Y657427D01*
X867037Y657491D01*
X867031Y657555D01*
X867029Y657620D01*
X867031Y657685D01*
X867037Y657749D01*
X867047Y657813D01*
X867060Y657877D01*
X867078Y657939D01*
X867099Y658000D01*
X867123Y658060D01*
X867152Y658118D01*
X867184Y658175D01*
X867219Y658229D01*
X867257Y658281D01*
X867299Y658331D01*
X867343Y658378D01*
X867390Y658422D01*
X867440Y658464D01*
X867492Y658502D01*
X867546Y658537D01*
X867603Y658569D01*
X867661Y658598D01*
X867721Y658622D01*
X867782Y658643D01*
X867844Y658661D01*
X867908Y658674D01*
X867972Y658684D01*
X868036Y658690D01*
X868101Y658692D01*
X868166Y658690D01*
X868230Y658684D01*
X868294Y658674D01*
X868358Y658661D01*
X868420Y658643D01*
X868481Y658622D01*
X868541Y658598D01*
X868599Y658569D01*
X868656Y658537D01*
X868710Y658502D01*
X868762Y658464D01*
X868812Y658422D01*
X868859Y658378D01*
X868903Y658331D01*
X868945Y658281D01*
X868983Y658229D01*
X869018Y658175D01*
X869050Y658118D01*
X869079Y658060D01*
X869103Y658000D01*
X869124Y657939D01*
X869142Y657877D01*
X869155Y657813D01*
X869165Y657749D01*
X869171Y657685D01*
X869173Y657620D01*
X869171Y657555D01*
X869165Y657491D01*
X869155Y657427D01*
X869142Y657363D01*
X869124Y657301D01*
X869103Y657240D01*
X869079Y657180D01*
X869050Y657122D01*
X869018Y657065D01*
X868983Y657011D01*
X868945Y656959D01*
X868903Y656909D01*
X868859Y656862D01*
X868812Y656818D01*
X868762Y656776D01*
X868710Y656738D01*
X868656Y656703D01*
X868599Y656671D01*
X868541Y656642D01*
X868481Y656618D01*
X868420Y656597D01*
X868358Y656579D01*
X868294Y656566D01*
X868230Y656556D01*
X868166Y656550D01*
X868101Y656548D01*
X742724Y638429D02*
X741652Y638429D01*
X741587Y638431D01*
X741523Y638437D01*
X741459Y638447D01*
X741395Y638460D01*
X741333Y638478D01*
X741272Y638499D01*
X741212Y638523D01*
X741154Y638552D01*
X741097Y638584D01*
X741043Y638619D01*
X740991Y638657D01*
X740941Y638699D01*
X740894Y638743D01*
X740850Y638790D01*
X740808Y638840D01*
X740770Y638892D01*
X740735Y638946D01*
X740703Y639003D01*
X740674Y639061D01*
X740650Y639121D01*
X740629Y639182D01*
X740611Y639244D01*
X740598Y639308D01*
X740588Y639372D01*
X740582Y639436D01*
X740580Y639501D01*
X740579Y639501D02*
X740579Y642183D01*
X740580Y642183D02*
X740582Y642248D01*
X740588Y642312D01*
X740598Y642376D01*
X740611Y642440D01*
X740629Y642502D01*
X740650Y642563D01*
X740674Y642623D01*
X740703Y642681D01*
X740735Y642738D01*
X740770Y642792D01*
X740808Y642844D01*
X740850Y642894D01*
X740894Y642941D01*
X740941Y642985D01*
X740991Y643027D01*
X741043Y643065D01*
X741097Y643100D01*
X741154Y643132D01*
X741212Y643161D01*
X741272Y643185D01*
X741333Y643206D01*
X741395Y643224D01*
X741459Y643237D01*
X741523Y643247D01*
X741587Y643253D01*
X741652Y643255D01*
X742724Y643255D01*
X745180Y638429D02*
X746520Y638429D01*
X746591Y638431D01*
X746663Y638437D01*
X746733Y638446D01*
X746803Y638459D01*
X746873Y638476D01*
X746941Y638497D01*
X747008Y638521D01*
X747074Y638549D01*
X747138Y638580D01*
X747201Y638615D01*
X747261Y638653D01*
X747320Y638694D01*
X747376Y638738D01*
X747430Y638785D01*
X747481Y638834D01*
X747529Y638887D01*
X747575Y638942D01*
X747617Y638999D01*
X747657Y639059D01*
X747693Y639120D01*
X747726Y639184D01*
X747755Y639249D01*
X747781Y639315D01*
X747804Y639383D01*
X747823Y639452D01*
X747838Y639522D01*
X747849Y639592D01*
X747857Y639663D01*
X747861Y639734D01*
X747861Y639806D01*
X747857Y639877D01*
X747849Y639948D01*
X747838Y640018D01*
X747823Y640088D01*
X747804Y640157D01*
X747781Y640225D01*
X747755Y640291D01*
X747726Y640356D01*
X747693Y640420D01*
X747657Y640481D01*
X747617Y640541D01*
X747575Y640598D01*
X747529Y640653D01*
X747481Y640706D01*
X747430Y640755D01*
X747376Y640802D01*
X747320Y640846D01*
X747261Y640887D01*
X747201Y640925D01*
X747138Y640960D01*
X747074Y640991D01*
X747008Y641019D01*
X746941Y641043D01*
X746873Y641064D01*
X746803Y641081D01*
X746733Y641094D01*
X746663Y641103D01*
X746591Y641109D01*
X746520Y641111D01*
X746788Y643255D02*
X745180Y643255D01*
X746788Y643255D02*
X746853Y643253D01*
X746917Y643247D01*
X746981Y643237D01*
X747045Y643224D01*
X747107Y643206D01*
X747168Y643185D01*
X747228Y643161D01*
X747286Y643132D01*
X747343Y643100D01*
X747397Y643065D01*
X747449Y643027D01*
X747499Y642985D01*
X747546Y642941D01*
X747590Y642894D01*
X747632Y642844D01*
X747670Y642792D01*
X747705Y642738D01*
X747737Y642681D01*
X747766Y642623D01*
X747790Y642563D01*
X747811Y642502D01*
X747829Y642440D01*
X747842Y642376D01*
X747852Y642312D01*
X747858Y642248D01*
X747860Y642183D01*
X747858Y642118D01*
X747852Y642054D01*
X747842Y641990D01*
X747829Y641926D01*
X747811Y641864D01*
X747790Y641803D01*
X747766Y641743D01*
X747737Y641685D01*
X747705Y641628D01*
X747670Y641574D01*
X747632Y641522D01*
X747590Y641472D01*
X747546Y641425D01*
X747499Y641381D01*
X747449Y641339D01*
X747397Y641301D01*
X747343Y641266D01*
X747286Y641234D01*
X747228Y641205D01*
X747168Y641181D01*
X747107Y641160D01*
X747045Y641142D01*
X746981Y641129D01*
X746917Y641119D01*
X746853Y641113D01*
X746788Y641111D01*
X746788Y641110D02*
X745716Y641110D01*
X742724Y666369D02*
X741652Y666369D01*
X741587Y666371D01*
X741523Y666377D01*
X741459Y666387D01*
X741395Y666400D01*
X741333Y666418D01*
X741272Y666439D01*
X741212Y666463D01*
X741154Y666492D01*
X741097Y666524D01*
X741043Y666559D01*
X740991Y666597D01*
X740941Y666639D01*
X740894Y666683D01*
X740850Y666730D01*
X740808Y666780D01*
X740770Y666832D01*
X740735Y666886D01*
X740703Y666943D01*
X740674Y667001D01*
X740650Y667061D01*
X740629Y667122D01*
X740611Y667184D01*
X740598Y667248D01*
X740588Y667312D01*
X740582Y667376D01*
X740580Y667441D01*
X740579Y667441D02*
X740579Y670123D01*
X740580Y670123D02*
X740582Y670188D01*
X740588Y670252D01*
X740598Y670316D01*
X740611Y670380D01*
X740629Y670442D01*
X740650Y670503D01*
X740674Y670563D01*
X740703Y670621D01*
X740735Y670678D01*
X740770Y670732D01*
X740808Y670784D01*
X740850Y670834D01*
X740894Y670881D01*
X740941Y670925D01*
X740991Y670967D01*
X741043Y671005D01*
X741097Y671040D01*
X741154Y671072D01*
X741212Y671101D01*
X741272Y671125D01*
X741333Y671146D01*
X741395Y671164D01*
X741459Y671177D01*
X741523Y671187D01*
X741587Y671193D01*
X741652Y671195D01*
X742724Y671195D01*
X745180Y671195D02*
X745180Y670659D01*
X745180Y671195D02*
X747861Y671195D01*
X746520Y666369D01*
X749935Y506504D02*
X749935Y505432D01*
X749933Y505367D01*
X749927Y505303D01*
X749917Y505239D01*
X749904Y505175D01*
X749886Y505113D01*
X749865Y505052D01*
X749841Y504992D01*
X749812Y504934D01*
X749780Y504877D01*
X749745Y504823D01*
X749707Y504771D01*
X749665Y504721D01*
X749621Y504674D01*
X749574Y504630D01*
X749524Y504588D01*
X749472Y504550D01*
X749418Y504515D01*
X749361Y504483D01*
X749303Y504454D01*
X749243Y504430D01*
X749182Y504409D01*
X749120Y504391D01*
X749056Y504378D01*
X748992Y504368D01*
X748928Y504362D01*
X748863Y504360D01*
X748863Y504359D02*
X746181Y504359D01*
X746116Y504361D01*
X746052Y504367D01*
X745988Y504377D01*
X745924Y504390D01*
X745862Y504408D01*
X745801Y504429D01*
X745741Y504454D01*
X745682Y504482D01*
X745626Y504514D01*
X745571Y504549D01*
X745519Y504587D01*
X745469Y504629D01*
X745422Y504673D01*
X745378Y504720D01*
X745336Y504770D01*
X745298Y504822D01*
X745263Y504877D01*
X745231Y504933D01*
X745203Y504992D01*
X745178Y505051D01*
X745157Y505113D01*
X745139Y505175D01*
X745126Y505239D01*
X745116Y505303D01*
X745110Y505367D01*
X745108Y505432D01*
X745109Y505432D02*
X745109Y506504D01*
X749935Y508960D02*
X749935Y510568D01*
X749933Y510633D01*
X749927Y510697D01*
X749917Y510761D01*
X749904Y510825D01*
X749886Y510887D01*
X749865Y510948D01*
X749841Y511008D01*
X749812Y511066D01*
X749780Y511123D01*
X749745Y511177D01*
X749707Y511229D01*
X749665Y511279D01*
X749621Y511326D01*
X749574Y511370D01*
X749524Y511412D01*
X749472Y511450D01*
X749418Y511485D01*
X749361Y511517D01*
X749303Y511546D01*
X749243Y511570D01*
X749182Y511591D01*
X749120Y511609D01*
X749056Y511622D01*
X748992Y511632D01*
X748928Y511638D01*
X748863Y511640D01*
X748863Y511641D02*
X748326Y511641D01*
X748326Y511640D02*
X748261Y511638D01*
X748197Y511632D01*
X748133Y511622D01*
X748069Y511609D01*
X748007Y511591D01*
X747946Y511570D01*
X747886Y511546D01*
X747828Y511517D01*
X747771Y511485D01*
X747717Y511450D01*
X747665Y511412D01*
X747615Y511370D01*
X747568Y511326D01*
X747524Y511279D01*
X747482Y511229D01*
X747444Y511177D01*
X747409Y511123D01*
X747377Y511066D01*
X747348Y511008D01*
X747324Y510948D01*
X747303Y510887D01*
X747285Y510825D01*
X747272Y510761D01*
X747262Y510697D01*
X747256Y510633D01*
X747254Y510568D01*
X747254Y508960D01*
X745109Y508960D01*
X745109Y511641D01*
X841375Y506504D02*
X841375Y505432D01*
X841373Y505367D01*
X841367Y505303D01*
X841357Y505239D01*
X841344Y505175D01*
X841326Y505113D01*
X841305Y505052D01*
X841281Y504992D01*
X841252Y504934D01*
X841220Y504877D01*
X841185Y504823D01*
X841147Y504771D01*
X841105Y504721D01*
X841061Y504674D01*
X841014Y504630D01*
X840964Y504588D01*
X840912Y504550D01*
X840858Y504515D01*
X840801Y504483D01*
X840743Y504454D01*
X840683Y504430D01*
X840622Y504409D01*
X840560Y504391D01*
X840496Y504378D01*
X840432Y504368D01*
X840368Y504362D01*
X840303Y504360D01*
X840303Y504359D02*
X837621Y504359D01*
X837556Y504361D01*
X837492Y504367D01*
X837428Y504377D01*
X837364Y504390D01*
X837302Y504408D01*
X837241Y504429D01*
X837181Y504454D01*
X837122Y504482D01*
X837066Y504514D01*
X837011Y504549D01*
X836959Y504587D01*
X836909Y504629D01*
X836862Y504673D01*
X836818Y504720D01*
X836776Y504770D01*
X836738Y504822D01*
X836703Y504877D01*
X836671Y504933D01*
X836643Y504992D01*
X836618Y505051D01*
X836597Y505113D01*
X836579Y505175D01*
X836566Y505239D01*
X836556Y505303D01*
X836550Y505367D01*
X836548Y505432D01*
X836549Y505432D02*
X836549Y506504D01*
X838694Y508960D02*
X838694Y510568D01*
X838696Y510633D01*
X838702Y510697D01*
X838712Y510761D01*
X838725Y510825D01*
X838743Y510887D01*
X838764Y510948D01*
X838788Y511008D01*
X838817Y511066D01*
X838849Y511123D01*
X838884Y511177D01*
X838922Y511229D01*
X838964Y511279D01*
X839008Y511326D01*
X839055Y511370D01*
X839105Y511412D01*
X839157Y511450D01*
X839211Y511485D01*
X839268Y511517D01*
X839326Y511546D01*
X839386Y511570D01*
X839447Y511591D01*
X839509Y511609D01*
X839573Y511622D01*
X839637Y511632D01*
X839701Y511638D01*
X839766Y511640D01*
X839766Y511641D02*
X840034Y511641D01*
X840105Y511639D01*
X840177Y511633D01*
X840247Y511624D01*
X840317Y511611D01*
X840387Y511594D01*
X840455Y511573D01*
X840522Y511549D01*
X840588Y511521D01*
X840652Y511490D01*
X840715Y511455D01*
X840775Y511417D01*
X840834Y511376D01*
X840890Y511332D01*
X840944Y511285D01*
X840995Y511236D01*
X841043Y511183D01*
X841089Y511128D01*
X841131Y511071D01*
X841171Y511011D01*
X841207Y510950D01*
X841240Y510886D01*
X841269Y510821D01*
X841295Y510755D01*
X841318Y510687D01*
X841337Y510618D01*
X841352Y510548D01*
X841363Y510478D01*
X841371Y510407D01*
X841375Y510336D01*
X841375Y510264D01*
X841371Y510193D01*
X841363Y510122D01*
X841352Y510052D01*
X841337Y509982D01*
X841318Y509913D01*
X841295Y509845D01*
X841269Y509779D01*
X841240Y509714D01*
X841207Y509650D01*
X841171Y509589D01*
X841131Y509529D01*
X841089Y509472D01*
X841043Y509417D01*
X840995Y509364D01*
X840944Y509315D01*
X840890Y509268D01*
X840834Y509224D01*
X840775Y509183D01*
X840715Y509145D01*
X840652Y509110D01*
X840588Y509079D01*
X840522Y509051D01*
X840455Y509027D01*
X840387Y509006D01*
X840317Y508989D01*
X840247Y508976D01*
X840177Y508967D01*
X840105Y508961D01*
X840034Y508959D01*
X840034Y508960D02*
X838694Y508960D01*
X838603Y508962D01*
X838512Y508968D01*
X838422Y508977D01*
X838331Y508991D01*
X838242Y509008D01*
X838154Y509029D01*
X838066Y509054D01*
X837979Y509083D01*
X837894Y509115D01*
X837810Y509150D01*
X837728Y509190D01*
X837648Y509232D01*
X837569Y509278D01*
X837493Y509328D01*
X837419Y509380D01*
X837346Y509436D01*
X837277Y509495D01*
X837210Y509556D01*
X837145Y509621D01*
X837084Y509688D01*
X837025Y509757D01*
X836969Y509829D01*
X836917Y509904D01*
X836867Y509980D01*
X836821Y510059D01*
X836779Y510139D01*
X836739Y510221D01*
X836704Y510305D01*
X836672Y510390D01*
X836643Y510477D01*
X836618Y510564D01*
X836597Y510653D01*
X836580Y510742D01*
X836566Y510832D01*
X836557Y510923D01*
X836551Y511014D01*
X836549Y511105D01*
X810895Y506504D02*
X810895Y505432D01*
X810893Y505367D01*
X810887Y505303D01*
X810877Y505239D01*
X810864Y505175D01*
X810846Y505113D01*
X810825Y505052D01*
X810801Y504992D01*
X810772Y504934D01*
X810740Y504877D01*
X810705Y504823D01*
X810667Y504771D01*
X810625Y504721D01*
X810581Y504674D01*
X810534Y504630D01*
X810484Y504588D01*
X810432Y504550D01*
X810378Y504515D01*
X810321Y504483D01*
X810263Y504454D01*
X810203Y504430D01*
X810142Y504409D01*
X810080Y504391D01*
X810016Y504378D01*
X809952Y504368D01*
X809888Y504362D01*
X809823Y504360D01*
X809823Y504359D02*
X807141Y504359D01*
X807076Y504361D01*
X807012Y504367D01*
X806948Y504377D01*
X806884Y504390D01*
X806822Y504408D01*
X806761Y504429D01*
X806701Y504454D01*
X806642Y504482D01*
X806586Y504514D01*
X806531Y504549D01*
X806479Y504587D01*
X806429Y504629D01*
X806382Y504673D01*
X806338Y504720D01*
X806296Y504770D01*
X806258Y504822D01*
X806223Y504877D01*
X806191Y504933D01*
X806163Y504992D01*
X806138Y505051D01*
X806117Y505113D01*
X806099Y505175D01*
X806086Y505239D01*
X806076Y505303D01*
X806070Y505367D01*
X806068Y505432D01*
X806069Y505432D02*
X806069Y506504D01*
X807141Y508960D02*
X806069Y510300D01*
X810895Y510300D01*
X810895Y508960D02*
X810895Y511641D01*
X780415Y506504D02*
X780415Y505432D01*
X780413Y505367D01*
X780407Y505303D01*
X780397Y505239D01*
X780384Y505175D01*
X780366Y505113D01*
X780345Y505052D01*
X780321Y504992D01*
X780292Y504934D01*
X780260Y504877D01*
X780225Y504823D01*
X780187Y504771D01*
X780145Y504721D01*
X780101Y504674D01*
X780054Y504630D01*
X780004Y504588D01*
X779952Y504550D01*
X779898Y504515D01*
X779841Y504483D01*
X779783Y504454D01*
X779723Y504430D01*
X779662Y504409D01*
X779600Y504391D01*
X779536Y504378D01*
X779472Y504368D01*
X779408Y504362D01*
X779343Y504360D01*
X779343Y504359D02*
X776661Y504359D01*
X776596Y504361D01*
X776532Y504367D01*
X776468Y504377D01*
X776404Y504390D01*
X776342Y504408D01*
X776281Y504429D01*
X776221Y504454D01*
X776162Y504482D01*
X776106Y504514D01*
X776051Y504549D01*
X775999Y504587D01*
X775949Y504629D01*
X775902Y504673D01*
X775858Y504720D01*
X775816Y504770D01*
X775778Y504822D01*
X775743Y504877D01*
X775711Y504933D01*
X775683Y504992D01*
X775658Y505051D01*
X775637Y505113D01*
X775619Y505175D01*
X775606Y505239D01*
X775596Y505303D01*
X775590Y505367D01*
X775588Y505432D01*
X775589Y505432D02*
X775589Y506504D01*
X775589Y510434D02*
X775591Y510502D01*
X775597Y510569D01*
X775606Y510636D01*
X775619Y510703D01*
X775636Y510768D01*
X775657Y510833D01*
X775681Y510896D01*
X775709Y510958D01*
X775740Y511018D01*
X775774Y511076D01*
X775812Y511132D01*
X775852Y511187D01*
X775896Y511238D01*
X775943Y511287D01*
X775992Y511334D01*
X776043Y511378D01*
X776098Y511418D01*
X776154Y511456D01*
X776212Y511490D01*
X776272Y511521D01*
X776334Y511549D01*
X776397Y511573D01*
X776462Y511594D01*
X776527Y511611D01*
X776594Y511624D01*
X776661Y511633D01*
X776728Y511639D01*
X776796Y511641D01*
X775589Y510434D02*
X775591Y510356D01*
X775597Y510278D01*
X775607Y510201D01*
X775620Y510124D01*
X775638Y510048D01*
X775659Y509973D01*
X775684Y509899D01*
X775713Y509827D01*
X775745Y509756D01*
X775781Y509687D01*
X775820Y509619D01*
X775863Y509554D01*
X775909Y509491D01*
X775958Y509430D01*
X776010Y509372D01*
X776065Y509317D01*
X776122Y509264D01*
X776182Y509215D01*
X776245Y509168D01*
X776310Y509125D01*
X776376Y509085D01*
X776445Y509048D01*
X776516Y509015D01*
X776588Y508985D01*
X776662Y508959D01*
X777734Y511239D02*
X777685Y511288D01*
X777633Y511335D01*
X777578Y511378D01*
X777521Y511419D01*
X777462Y511457D01*
X777401Y511491D01*
X777338Y511522D01*
X777274Y511550D01*
X777208Y511574D01*
X777142Y511594D01*
X777074Y511611D01*
X777005Y511624D01*
X776936Y511633D01*
X776866Y511639D01*
X776796Y511641D01*
X777734Y511239D02*
X780415Y508960D01*
X780415Y511641D01*
X701675Y646188D02*
X696849Y646188D01*
X696849Y647529D01*
X696851Y647600D01*
X696857Y647672D01*
X696866Y647742D01*
X696879Y647812D01*
X696896Y647882D01*
X696917Y647950D01*
X696941Y648017D01*
X696969Y648083D01*
X697000Y648147D01*
X697035Y648210D01*
X697073Y648270D01*
X697114Y648329D01*
X697158Y648385D01*
X697205Y648439D01*
X697254Y648490D01*
X697307Y648538D01*
X697362Y648584D01*
X697419Y648626D01*
X697479Y648666D01*
X697540Y648702D01*
X697604Y648735D01*
X697669Y648764D01*
X697735Y648790D01*
X697803Y648813D01*
X697872Y648832D01*
X697942Y648847D01*
X698012Y648858D01*
X698083Y648866D01*
X698154Y648870D01*
X698226Y648870D01*
X698297Y648866D01*
X698368Y648858D01*
X698438Y648847D01*
X698508Y648832D01*
X698577Y648813D01*
X698645Y648790D01*
X698711Y648764D01*
X698776Y648735D01*
X698840Y648702D01*
X698901Y648666D01*
X698961Y648626D01*
X699018Y648584D01*
X699073Y648538D01*
X699126Y648490D01*
X699175Y648439D01*
X699222Y648385D01*
X699266Y648329D01*
X699307Y648270D01*
X699345Y648210D01*
X699380Y648147D01*
X699411Y648083D01*
X699439Y648017D01*
X699463Y647950D01*
X699484Y647882D01*
X699501Y647812D01*
X699514Y647742D01*
X699523Y647672D01*
X699529Y647600D01*
X699531Y647529D01*
X699530Y647529D02*
X699530Y646188D01*
X699530Y647797D02*
X701675Y648869D01*
X701675Y651611D02*
X701675Y652951D01*
X701673Y653022D01*
X701667Y653094D01*
X701658Y653164D01*
X701645Y653234D01*
X701628Y653304D01*
X701607Y653372D01*
X701583Y653439D01*
X701555Y653505D01*
X701524Y653569D01*
X701489Y653632D01*
X701451Y653692D01*
X701410Y653751D01*
X701366Y653807D01*
X701319Y653861D01*
X701270Y653912D01*
X701217Y653960D01*
X701162Y654006D01*
X701105Y654048D01*
X701045Y654088D01*
X700984Y654124D01*
X700920Y654157D01*
X700855Y654186D01*
X700789Y654212D01*
X700721Y654235D01*
X700652Y654254D01*
X700582Y654269D01*
X700512Y654280D01*
X700441Y654288D01*
X700370Y654292D01*
X700298Y654292D01*
X700227Y654288D01*
X700156Y654280D01*
X700086Y654269D01*
X700016Y654254D01*
X699947Y654235D01*
X699879Y654212D01*
X699813Y654186D01*
X699748Y654157D01*
X699684Y654124D01*
X699623Y654088D01*
X699563Y654048D01*
X699506Y654006D01*
X699451Y653960D01*
X699398Y653912D01*
X699349Y653861D01*
X699302Y653807D01*
X699258Y653751D01*
X699217Y653692D01*
X699179Y653632D01*
X699144Y653569D01*
X699113Y653505D01*
X699085Y653439D01*
X699061Y653372D01*
X699040Y653304D01*
X699023Y653234D01*
X699010Y653164D01*
X699001Y653094D01*
X698995Y653022D01*
X698993Y652951D01*
X696849Y653219D02*
X696849Y651611D01*
X696849Y653219D02*
X696851Y653284D01*
X696857Y653348D01*
X696867Y653412D01*
X696880Y653476D01*
X696898Y653538D01*
X696919Y653599D01*
X696943Y653659D01*
X696972Y653717D01*
X697004Y653774D01*
X697039Y653828D01*
X697077Y653880D01*
X697119Y653930D01*
X697163Y653977D01*
X697210Y654021D01*
X697260Y654063D01*
X697312Y654101D01*
X697366Y654136D01*
X697423Y654168D01*
X697481Y654197D01*
X697541Y654221D01*
X697602Y654242D01*
X697664Y654260D01*
X697728Y654273D01*
X697792Y654283D01*
X697856Y654289D01*
X697921Y654291D01*
X697986Y654289D01*
X698050Y654283D01*
X698114Y654273D01*
X698178Y654260D01*
X698240Y654242D01*
X698301Y654221D01*
X698361Y654197D01*
X698419Y654168D01*
X698476Y654136D01*
X698530Y654101D01*
X698582Y654063D01*
X698632Y654021D01*
X698679Y653977D01*
X698723Y653930D01*
X698765Y653880D01*
X698803Y653828D01*
X698838Y653774D01*
X698870Y653717D01*
X698899Y653659D01*
X698923Y653599D01*
X698944Y653538D01*
X698962Y653476D01*
X698975Y653412D01*
X698985Y653348D01*
X698991Y653284D01*
X698993Y653219D01*
X698994Y653219D02*
X698994Y652147D01*
X671195Y646188D02*
X666369Y646188D01*
X666369Y647529D01*
X666371Y647600D01*
X666377Y647672D01*
X666386Y647742D01*
X666399Y647812D01*
X666416Y647882D01*
X666437Y647950D01*
X666461Y648017D01*
X666489Y648083D01*
X666520Y648147D01*
X666555Y648210D01*
X666593Y648270D01*
X666634Y648329D01*
X666678Y648385D01*
X666725Y648439D01*
X666774Y648490D01*
X666827Y648538D01*
X666882Y648584D01*
X666939Y648626D01*
X666999Y648666D01*
X667060Y648702D01*
X667124Y648735D01*
X667189Y648764D01*
X667255Y648790D01*
X667323Y648813D01*
X667392Y648832D01*
X667462Y648847D01*
X667532Y648858D01*
X667603Y648866D01*
X667674Y648870D01*
X667746Y648870D01*
X667817Y648866D01*
X667888Y648858D01*
X667958Y648847D01*
X668028Y648832D01*
X668097Y648813D01*
X668165Y648790D01*
X668231Y648764D01*
X668296Y648735D01*
X668360Y648702D01*
X668421Y648666D01*
X668481Y648626D01*
X668538Y648584D01*
X668593Y648538D01*
X668646Y648490D01*
X668695Y648439D01*
X668742Y648385D01*
X668786Y648329D01*
X668827Y648270D01*
X668865Y648210D01*
X668900Y648147D01*
X668931Y648083D01*
X668959Y648017D01*
X668983Y647950D01*
X669004Y647882D01*
X669021Y647812D01*
X669034Y647742D01*
X669043Y647672D01*
X669049Y647600D01*
X669051Y647529D01*
X669050Y647529D02*
X669050Y646188D01*
X669050Y647797D02*
X671195Y648869D01*
X670123Y651611D02*
X666369Y652683D01*
X670123Y651611D02*
X670123Y654292D01*
X669050Y653488D02*
X671195Y653488D01*
X992505Y255028D02*
X997331Y255028D01*
X992505Y255028D02*
X992505Y256369D01*
X992507Y256440D01*
X992513Y256512D01*
X992522Y256582D01*
X992535Y256652D01*
X992552Y256722D01*
X992573Y256790D01*
X992597Y256857D01*
X992625Y256923D01*
X992656Y256987D01*
X992691Y257050D01*
X992729Y257110D01*
X992770Y257169D01*
X992814Y257225D01*
X992861Y257279D01*
X992910Y257330D01*
X992963Y257378D01*
X993018Y257424D01*
X993075Y257466D01*
X993135Y257506D01*
X993196Y257542D01*
X993260Y257575D01*
X993325Y257604D01*
X993391Y257630D01*
X993459Y257653D01*
X993528Y257672D01*
X993598Y257687D01*
X993668Y257698D01*
X993739Y257706D01*
X993810Y257710D01*
X993882Y257710D01*
X993953Y257706D01*
X994024Y257698D01*
X994094Y257687D01*
X994164Y257672D01*
X994233Y257653D01*
X994301Y257630D01*
X994367Y257604D01*
X994432Y257575D01*
X994496Y257542D01*
X994557Y257506D01*
X994617Y257466D01*
X994674Y257424D01*
X994729Y257378D01*
X994782Y257330D01*
X994831Y257279D01*
X994878Y257225D01*
X994922Y257169D01*
X994963Y257110D01*
X995001Y257050D01*
X995036Y256987D01*
X995067Y256923D01*
X995095Y256857D01*
X995119Y256790D01*
X995140Y256722D01*
X995157Y256652D01*
X995170Y256582D01*
X995179Y256512D01*
X995185Y256440D01*
X995187Y256369D01*
X995186Y256369D02*
X995186Y255028D01*
X995186Y256637D02*
X997331Y257709D01*
X993577Y260451D02*
X992505Y261791D01*
X997331Y261791D01*
X997331Y260451D02*
X997331Y263132D01*
X966851Y255028D02*
X962025Y255028D01*
X962025Y256369D01*
X962027Y256440D01*
X962033Y256512D01*
X962042Y256582D01*
X962055Y256652D01*
X962072Y256722D01*
X962093Y256790D01*
X962117Y256857D01*
X962145Y256923D01*
X962176Y256987D01*
X962211Y257050D01*
X962249Y257110D01*
X962290Y257169D01*
X962334Y257225D01*
X962381Y257279D01*
X962430Y257330D01*
X962483Y257378D01*
X962538Y257424D01*
X962595Y257466D01*
X962655Y257506D01*
X962716Y257542D01*
X962780Y257575D01*
X962845Y257604D01*
X962911Y257630D01*
X962979Y257653D01*
X963048Y257672D01*
X963118Y257687D01*
X963188Y257698D01*
X963259Y257706D01*
X963330Y257710D01*
X963402Y257710D01*
X963473Y257706D01*
X963544Y257698D01*
X963614Y257687D01*
X963684Y257672D01*
X963753Y257653D01*
X963821Y257630D01*
X963887Y257604D01*
X963952Y257575D01*
X964016Y257542D01*
X964077Y257506D01*
X964137Y257466D01*
X964194Y257424D01*
X964249Y257378D01*
X964302Y257330D01*
X964351Y257279D01*
X964398Y257225D01*
X964442Y257169D01*
X964483Y257110D01*
X964521Y257050D01*
X964556Y256987D01*
X964587Y256923D01*
X964615Y256857D01*
X964639Y256790D01*
X964660Y256722D01*
X964677Y256652D01*
X964690Y256582D01*
X964699Y256512D01*
X964705Y256440D01*
X964707Y256369D01*
X964706Y256369D02*
X964706Y255028D01*
X964706Y256637D02*
X966851Y257709D01*
X962025Y261925D02*
X962027Y261993D01*
X962033Y262060D01*
X962042Y262127D01*
X962055Y262194D01*
X962072Y262259D01*
X962093Y262324D01*
X962117Y262387D01*
X962145Y262449D01*
X962176Y262509D01*
X962210Y262567D01*
X962248Y262623D01*
X962288Y262678D01*
X962332Y262729D01*
X962379Y262778D01*
X962428Y262825D01*
X962479Y262869D01*
X962534Y262909D01*
X962590Y262947D01*
X962648Y262981D01*
X962708Y263012D01*
X962770Y263040D01*
X962833Y263064D01*
X962898Y263085D01*
X962963Y263102D01*
X963030Y263115D01*
X963097Y263124D01*
X963164Y263130D01*
X963232Y263132D01*
X962025Y261925D02*
X962027Y261847D01*
X962033Y261769D01*
X962043Y261692D01*
X962056Y261615D01*
X962074Y261539D01*
X962095Y261464D01*
X962120Y261390D01*
X962149Y261318D01*
X962181Y261247D01*
X962217Y261178D01*
X962256Y261110D01*
X962299Y261045D01*
X962345Y260982D01*
X962394Y260921D01*
X962446Y260863D01*
X962501Y260808D01*
X962558Y260755D01*
X962618Y260706D01*
X962681Y260659D01*
X962746Y260616D01*
X962812Y260576D01*
X962881Y260539D01*
X962952Y260506D01*
X963024Y260476D01*
X963098Y260450D01*
X964170Y262730D02*
X964121Y262779D01*
X964069Y262826D01*
X964014Y262869D01*
X963957Y262910D01*
X963898Y262948D01*
X963837Y262982D01*
X963774Y263013D01*
X963710Y263041D01*
X963644Y263065D01*
X963578Y263085D01*
X963510Y263102D01*
X963441Y263115D01*
X963372Y263124D01*
X963302Y263130D01*
X963232Y263132D01*
X964170Y262730D02*
X966851Y260451D01*
X966851Y263132D01*
X1003935Y254841D02*
X1003935Y253768D01*
X1003933Y253703D01*
X1003927Y253639D01*
X1003917Y253575D01*
X1003904Y253511D01*
X1003886Y253449D01*
X1003865Y253388D01*
X1003841Y253328D01*
X1003812Y253270D01*
X1003780Y253213D01*
X1003745Y253159D01*
X1003707Y253107D01*
X1003665Y253057D01*
X1003621Y253010D01*
X1003574Y252966D01*
X1003524Y252924D01*
X1003472Y252886D01*
X1003418Y252851D01*
X1003361Y252819D01*
X1003303Y252790D01*
X1003243Y252766D01*
X1003182Y252745D01*
X1003120Y252727D01*
X1003056Y252714D01*
X1002992Y252704D01*
X1002928Y252698D01*
X1002863Y252696D01*
X1000181Y252696D01*
X1000181Y252695D02*
X1000116Y252697D01*
X1000052Y252703D01*
X999988Y252713D01*
X999924Y252726D01*
X999862Y252744D01*
X999801Y252765D01*
X999741Y252790D01*
X999682Y252818D01*
X999626Y252850D01*
X999571Y252885D01*
X999519Y252923D01*
X999469Y252965D01*
X999422Y253009D01*
X999378Y253056D01*
X999336Y253106D01*
X999298Y253158D01*
X999263Y253213D01*
X999231Y253269D01*
X999203Y253328D01*
X999178Y253387D01*
X999157Y253449D01*
X999139Y253511D01*
X999126Y253575D01*
X999116Y253639D01*
X999110Y253703D01*
X999108Y253768D01*
X999109Y253768D02*
X999109Y254841D01*
X1000181Y257297D02*
X999109Y258637D01*
X1003935Y258637D01*
X1003935Y257297D02*
X1003935Y259978D01*
X1000181Y262783D02*
X999109Y264124D01*
X1003935Y264124D01*
X1003935Y265464D02*
X1003935Y262783D01*
D10*
X949706Y557530D02*
X956056Y563880D01*
X949706Y544830D02*
X956056Y538480D01*
X949706Y532130D01*
X949706Y519430D02*
X956056Y513080D01*
X949706Y506730D01*
X949706Y494030D02*
X956056Y487680D01*
X956056Y563880D02*
X994156Y563880D01*
X1000506Y557530D01*
X1000506Y544830D01*
X994156Y538480D01*
X1000506Y532130D01*
X1000506Y519430D01*
X994156Y513080D01*
X1000506Y506730D01*
X1000506Y494030D01*
X994156Y487680D01*
X994156Y538480D02*
X956056Y538480D01*
X956056Y513080D02*
X994156Y513080D01*
X994156Y487680D02*
X956056Y487680D01*
X949706Y494030D02*
X949706Y506730D01*
X949706Y519430D02*
X949706Y532130D01*
X949706Y544830D02*
X949706Y557530D01*
X956056Y487680D02*
X949706Y481330D01*
X949706Y468630D02*
X956056Y462280D01*
X994156Y487680D02*
X1000506Y481330D01*
X1000506Y468630D01*
X994156Y462280D01*
X956056Y462280D01*
X949706Y468630D02*
X949706Y481330D01*
D12*
X1007491Y529769D02*
X1016381Y529769D01*
X1016481Y529767D01*
X1016580Y529761D01*
X1016680Y529751D01*
X1016778Y529738D01*
X1016877Y529720D01*
X1016974Y529699D01*
X1017070Y529674D01*
X1017166Y529645D01*
X1017260Y529612D01*
X1017353Y529576D01*
X1017444Y529536D01*
X1017534Y529492D01*
X1017622Y529445D01*
X1017708Y529395D01*
X1017792Y529341D01*
X1017874Y529284D01*
X1017953Y529224D01*
X1018031Y529160D01*
X1018105Y529094D01*
X1018177Y529025D01*
X1018246Y528953D01*
X1018312Y528879D01*
X1018376Y528801D01*
X1018436Y528722D01*
X1018493Y528640D01*
X1018547Y528556D01*
X1018597Y528470D01*
X1018644Y528382D01*
X1018688Y528292D01*
X1018728Y528201D01*
X1018764Y528108D01*
X1018797Y528014D01*
X1018826Y527918D01*
X1018851Y527822D01*
X1018872Y527725D01*
X1018890Y527626D01*
X1018903Y527528D01*
X1018913Y527428D01*
X1018919Y527329D01*
X1018921Y527229D01*
X1018921Y525959D01*
X1018921Y537591D02*
X1007491Y537591D01*
X1007491Y534416D02*
X1007491Y540766D01*
X1007491Y548259D02*
X1018921Y544449D01*
X1018921Y552069D02*
X1007491Y548259D01*
X1016064Y551117D02*
X1016064Y545402D01*
X1012571Y561340D02*
X1012571Y563245D01*
X1018921Y563245D01*
X1018921Y559435D01*
X1018919Y559335D01*
X1018913Y559236D01*
X1018903Y559136D01*
X1018890Y559038D01*
X1018872Y558939D01*
X1018851Y558842D01*
X1018826Y558746D01*
X1018797Y558650D01*
X1018764Y558556D01*
X1018728Y558463D01*
X1018688Y558372D01*
X1018644Y558282D01*
X1018597Y558194D01*
X1018547Y558108D01*
X1018493Y558024D01*
X1018436Y557942D01*
X1018376Y557863D01*
X1018312Y557785D01*
X1018246Y557711D01*
X1018177Y557639D01*
X1018105Y557570D01*
X1018031Y557504D01*
X1017953Y557440D01*
X1017874Y557380D01*
X1017792Y557323D01*
X1017708Y557269D01*
X1017622Y557219D01*
X1017534Y557172D01*
X1017444Y557128D01*
X1017353Y557088D01*
X1017260Y557052D01*
X1017166Y557019D01*
X1017070Y556990D01*
X1016974Y556965D01*
X1016877Y556944D01*
X1016778Y556926D01*
X1016680Y556913D01*
X1016580Y556903D01*
X1016481Y556897D01*
X1016381Y556895D01*
X1010031Y556895D01*
X1009931Y556897D01*
X1009832Y556903D01*
X1009732Y556913D01*
X1009634Y556926D01*
X1009535Y556944D01*
X1009438Y556965D01*
X1009342Y556990D01*
X1009246Y557019D01*
X1009152Y557052D01*
X1009059Y557088D01*
X1008968Y557128D01*
X1008878Y557172D01*
X1008790Y557219D01*
X1008704Y557269D01*
X1008620Y557323D01*
X1008538Y557380D01*
X1008459Y557440D01*
X1008381Y557504D01*
X1008307Y557570D01*
X1008235Y557639D01*
X1008166Y557711D01*
X1008100Y557785D01*
X1008036Y557863D01*
X1007976Y557942D01*
X1007919Y558024D01*
X1007865Y558108D01*
X1007815Y558194D01*
X1007768Y558282D01*
X1007724Y558372D01*
X1007684Y558463D01*
X1007648Y558556D01*
X1007615Y558650D01*
X1007586Y558746D01*
X1007561Y558842D01*
X1007540Y558939D01*
X1007522Y559038D01*
X1007509Y559136D01*
X1007499Y559236D01*
X1007493Y559335D01*
X1007491Y559435D01*
X1007491Y563245D01*
M02*
