G04 EAGLE Gerber RS-274X export*
G75*
%MOMM*%
%FSLAX34Y34*%
%LPD*%
%INSolderpaste Top*%
%IPPOS*%
%AMOC8*
5,1,8,0,0,1.08239X$1,22.5*%
G01*
%ADD10R,0.300000X1.450000*%
%ADD11R,1.450000X0.300000*%
%ADD12R,1.000000X1.800000*%
%ADD13C,0.000100*%
%ADD14R,0.400000X1.350000*%
%ADD15R,1.500000X1.550000*%
%ADD16R,1.200000X0.800000*%
%ADD17R,0.800000X1.200000*%

G36*
X786840Y7486D02*
X786840Y7486D01*
X786841Y7485D01*
X787953Y7611D01*
X787954Y7611D01*
X789011Y7981D01*
X789012Y7981D01*
X789960Y8577D01*
X789960Y8578D01*
X789961Y8578D01*
X790753Y9369D01*
X790753Y9370D01*
X791349Y10318D01*
X791349Y10319D01*
X791719Y11376D01*
X791719Y11377D01*
X791720Y11380D01*
X791720Y11384D01*
X791721Y11389D01*
X791721Y11394D01*
X791723Y11408D01*
X791723Y11413D01*
X791724Y11418D01*
X791724Y11422D01*
X791725Y11422D01*
X791724Y11422D01*
X791725Y11427D01*
X791726Y11432D01*
X791727Y11446D01*
X791728Y11451D01*
X791728Y11456D01*
X791729Y11460D01*
X791729Y11465D01*
X791730Y11470D01*
X791731Y11484D01*
X791732Y11489D01*
X791733Y11494D01*
X791733Y11498D01*
X791734Y11503D01*
X791734Y11508D01*
X791736Y11522D01*
X791736Y11527D01*
X791737Y11532D01*
X791737Y11536D01*
X791738Y11541D01*
X791739Y11555D01*
X791740Y11555D01*
X791739Y11555D01*
X791740Y11560D01*
X791741Y11565D01*
X791741Y11570D01*
X791742Y11574D01*
X791742Y11579D01*
X791744Y11593D01*
X791744Y11598D01*
X791745Y11603D01*
X791745Y11608D01*
X791746Y11612D01*
X791746Y11617D01*
X791748Y11631D01*
X791749Y11636D01*
X791749Y11641D01*
X791750Y11646D01*
X791750Y11650D01*
X791751Y11655D01*
X791752Y11669D01*
X791753Y11674D01*
X791753Y11679D01*
X791754Y11684D01*
X791754Y11688D01*
X791757Y11707D01*
X791757Y11712D01*
X791758Y11717D01*
X791758Y11722D01*
X791759Y11726D01*
X791760Y11741D01*
X791761Y11745D01*
X791761Y11750D01*
X791762Y11755D01*
X791762Y11760D01*
X791763Y11760D01*
X791762Y11760D01*
X791763Y11764D01*
X791765Y11779D01*
X791765Y11783D01*
X791766Y11788D01*
X791766Y11793D01*
X791767Y11798D01*
X791767Y11802D01*
X791769Y11817D01*
X791769Y11821D01*
X791770Y11826D01*
X791771Y11831D01*
X791771Y11836D01*
X791772Y11840D01*
X791773Y11855D01*
X791774Y11859D01*
X791774Y11864D01*
X791775Y11869D01*
X791775Y11874D01*
X791777Y11893D01*
X791778Y11893D01*
X791777Y11893D01*
X791778Y11897D01*
X791779Y11902D01*
X791779Y11907D01*
X791780Y11912D01*
X791781Y11926D01*
X791782Y11931D01*
X791782Y11935D01*
X791783Y11940D01*
X791783Y11945D01*
X791784Y11950D01*
X791786Y11964D01*
X791786Y11969D01*
X791787Y11973D01*
X791787Y11978D01*
X791788Y11983D01*
X791788Y11988D01*
X791790Y12002D01*
X791790Y12007D01*
X791791Y12011D01*
X791791Y12016D01*
X791792Y12021D01*
X791792Y12026D01*
X791794Y12040D01*
X791795Y12045D01*
X791795Y12049D01*
X791796Y12054D01*
X791796Y12059D01*
X791798Y12073D01*
X791798Y12078D01*
X791799Y12083D01*
X791799Y12087D01*
X791800Y12092D01*
X791800Y12097D01*
X791801Y12097D01*
X791800Y12097D01*
X791802Y12111D01*
X791803Y12116D01*
X791803Y12121D01*
X791804Y12125D01*
X791804Y12130D01*
X791805Y12135D01*
X791806Y12149D01*
X791807Y12154D01*
X791807Y12159D01*
X791808Y12163D01*
X791809Y12168D01*
X791809Y12173D01*
X791811Y12187D01*
X791811Y12192D01*
X791812Y12197D01*
X791812Y12201D01*
X791813Y12206D01*
X791815Y12225D01*
X791815Y12230D01*
X791816Y12230D01*
X791815Y12230D01*
X791816Y12235D01*
X791817Y12239D01*
X791817Y12244D01*
X791819Y12258D01*
X791819Y12263D01*
X791820Y12268D01*
X791820Y12273D01*
X791821Y12277D01*
X791821Y12282D01*
X791823Y12296D01*
X791824Y12301D01*
X791824Y12306D01*
X791825Y12311D01*
X791825Y12315D01*
X791826Y12320D01*
X791827Y12334D01*
X791828Y12339D01*
X791828Y12344D01*
X791829Y12349D01*
X791829Y12353D01*
X791830Y12358D01*
X791832Y12372D01*
X791832Y12377D01*
X791833Y12382D01*
X791833Y12387D01*
X791834Y12391D01*
X791836Y12410D01*
X791836Y12415D01*
X791837Y12420D01*
X791837Y12425D01*
X791838Y12429D01*
X791840Y12444D01*
X791840Y12448D01*
X791841Y12453D01*
X791841Y12458D01*
X791842Y12463D01*
X791842Y12467D01*
X791844Y12482D01*
X791844Y12486D01*
X791845Y12489D01*
X791845Y12490D01*
X791845Y17990D01*
X791845Y17991D01*
X791719Y19103D01*
X791719Y19104D01*
X791349Y20161D01*
X791349Y20162D01*
X790753Y21110D01*
X790752Y21110D01*
X790753Y21111D01*
X789961Y21903D01*
X789960Y21903D01*
X789012Y22499D01*
X789011Y22499D01*
X787954Y22869D01*
X787953Y22869D01*
X786841Y22995D01*
X786840Y22995D01*
X774840Y22995D01*
X774835Y22991D01*
X774836Y22990D01*
X774835Y22990D01*
X774835Y7490D01*
X774839Y7485D01*
X774840Y7486D01*
X774840Y7485D01*
X786840Y7485D01*
X786840Y7486D01*
G37*
G36*
X728845Y7489D02*
X728845Y7489D01*
X728844Y7490D01*
X728845Y7490D01*
X728845Y22990D01*
X728841Y22995D01*
X728840Y22994D01*
X728840Y22995D01*
X716840Y22995D01*
X716839Y22995D01*
X715727Y22869D01*
X715726Y22869D01*
X714669Y22499D01*
X714668Y22499D01*
X713720Y21903D01*
X713720Y21902D01*
X713719Y21903D01*
X712928Y21111D01*
X712927Y21110D01*
X712331Y20162D01*
X712331Y20161D01*
X711961Y19104D01*
X711961Y19103D01*
X711960Y19095D01*
X711959Y19090D01*
X711959Y19085D01*
X711958Y19081D01*
X711958Y19076D01*
X711955Y19057D01*
X711955Y19052D01*
X711954Y19047D01*
X711954Y19043D01*
X711953Y19038D01*
X711952Y19024D01*
X711951Y19019D01*
X711951Y19014D01*
X711950Y19009D01*
X711950Y19005D01*
X711949Y19000D01*
X711947Y18986D01*
X711947Y18981D01*
X711946Y18976D01*
X711946Y18971D01*
X711945Y18967D01*
X711945Y18962D01*
X711943Y18948D01*
X711943Y18943D01*
X711942Y18938D01*
X711942Y18933D01*
X711941Y18929D01*
X711940Y18924D01*
X711939Y18910D01*
X711938Y18905D01*
X711938Y18900D01*
X711937Y18895D01*
X711937Y18891D01*
X711935Y18872D01*
X711934Y18867D01*
X711934Y18862D01*
X711933Y18862D01*
X711934Y18862D01*
X711933Y18857D01*
X711932Y18853D01*
X711931Y18838D01*
X711930Y18834D01*
X711930Y18829D01*
X711929Y18824D01*
X711929Y18819D01*
X711928Y18815D01*
X711927Y18800D01*
X711926Y18796D01*
X711925Y18791D01*
X711925Y18786D01*
X711924Y18781D01*
X711924Y18777D01*
X711922Y18762D01*
X711922Y18758D01*
X711921Y18753D01*
X711921Y18748D01*
X711920Y18743D01*
X711920Y18739D01*
X711918Y18724D01*
X711917Y18720D01*
X711917Y18715D01*
X711916Y18710D01*
X711916Y18705D01*
X711914Y18691D01*
X711914Y18686D01*
X711913Y18682D01*
X711913Y18677D01*
X711912Y18672D01*
X711912Y18667D01*
X711910Y18653D01*
X711909Y18648D01*
X711909Y18644D01*
X711908Y18639D01*
X711908Y18634D01*
X711907Y18629D01*
X711906Y18615D01*
X711905Y18610D01*
X711905Y18606D01*
X711904Y18601D01*
X711904Y18596D01*
X711903Y18591D01*
X711901Y18577D01*
X711901Y18572D01*
X711900Y18568D01*
X711900Y18563D01*
X711899Y18558D01*
X711897Y18539D01*
X711897Y18534D01*
X711896Y18530D01*
X711896Y18525D01*
X711895Y18525D01*
X711896Y18525D01*
X711895Y18520D01*
X711893Y18506D01*
X711893Y18501D01*
X711892Y18496D01*
X711892Y18492D01*
X711891Y18487D01*
X711891Y18482D01*
X711889Y18468D01*
X711889Y18463D01*
X711888Y18458D01*
X711887Y18454D01*
X711887Y18449D01*
X711886Y18444D01*
X711885Y18430D01*
X711884Y18425D01*
X711884Y18420D01*
X711883Y18416D01*
X711883Y18411D01*
X711882Y18406D01*
X711881Y18392D01*
X711880Y18392D01*
X711881Y18392D01*
X711880Y18387D01*
X711879Y18382D01*
X711879Y18378D01*
X711878Y18373D01*
X711876Y18354D01*
X711876Y18349D01*
X711875Y18344D01*
X711875Y18340D01*
X711874Y18335D01*
X711872Y18321D01*
X711872Y18316D01*
X711871Y18311D01*
X711871Y18306D01*
X711870Y18302D01*
X711870Y18297D01*
X711868Y18283D01*
X711868Y18278D01*
X711867Y18273D01*
X711867Y18268D01*
X711866Y18264D01*
X711866Y18259D01*
X711864Y18245D01*
X711863Y18240D01*
X711863Y18235D01*
X711862Y18230D01*
X711862Y18226D01*
X711861Y18221D01*
X711860Y18207D01*
X711859Y18202D01*
X711859Y18197D01*
X711858Y18192D01*
X711858Y18188D01*
X711857Y18188D01*
X711858Y18188D01*
X711856Y18173D01*
X711855Y18169D01*
X711855Y18164D01*
X711854Y18159D01*
X711854Y18154D01*
X711853Y18150D01*
X711852Y18135D01*
X711851Y18131D01*
X711851Y18126D01*
X711850Y18121D01*
X711849Y18116D01*
X711849Y18112D01*
X711847Y18097D01*
X711847Y18093D01*
X711846Y18088D01*
X711846Y18083D01*
X711845Y18078D01*
X711845Y18074D01*
X711843Y18059D01*
X711843Y18055D01*
X711842Y18055D01*
X711843Y18055D01*
X711842Y18050D01*
X711841Y18045D01*
X711841Y18040D01*
X711839Y18021D01*
X711838Y18017D01*
X711838Y18012D01*
X711837Y18007D01*
X711837Y18002D01*
X711835Y17991D01*
X711836Y17990D01*
X711835Y17990D01*
X711835Y12490D01*
X711836Y12490D01*
X711835Y12489D01*
X711961Y11377D01*
X711961Y11376D01*
X712331Y10319D01*
X712331Y10318D01*
X712927Y9370D01*
X712928Y9370D01*
X712928Y9369D01*
X713719Y8578D01*
X713720Y8577D01*
X714668Y7981D01*
X714669Y7981D01*
X715726Y7611D01*
X715727Y7611D01*
X716839Y7485D01*
X716840Y7486D01*
X716840Y7485D01*
X728840Y7485D01*
X728845Y7489D01*
G37*
%LPC*%
G36*
X786194Y9580D02*
X786194Y9580D01*
X785593Y9829D01*
X785076Y10226D01*
X784679Y10743D01*
X784430Y11344D01*
X784345Y11990D01*
X784345Y18490D01*
X784430Y19136D01*
X784679Y19738D01*
X785076Y20254D01*
X785593Y20651D01*
X786194Y20900D01*
X786840Y20985D01*
X787486Y20900D01*
X788088Y20651D01*
X788604Y20254D01*
X789001Y19738D01*
X789250Y19136D01*
X789335Y18490D01*
X789335Y11990D01*
X789299Y11718D01*
X789299Y11713D01*
X789298Y11709D01*
X789298Y11704D01*
X789297Y11699D01*
X789296Y11694D01*
X789296Y11690D01*
X789295Y11685D01*
X789294Y11680D01*
X789294Y11675D01*
X789293Y11671D01*
X789293Y11666D01*
X789292Y11661D01*
X789291Y11656D01*
X789291Y11652D01*
X789290Y11647D01*
X789289Y11642D01*
X789289Y11637D01*
X789288Y11633D01*
X789288Y11628D01*
X789287Y11623D01*
X789286Y11618D01*
X789286Y11614D01*
X789285Y11609D01*
X789284Y11604D01*
X789284Y11599D01*
X789283Y11595D01*
X789283Y11590D01*
X789282Y11585D01*
X789281Y11580D01*
X789281Y11576D01*
X789280Y11571D01*
X789250Y11344D01*
X789001Y10743D01*
X788604Y10226D01*
X788088Y9829D01*
X787486Y9580D01*
X786840Y9495D01*
X786194Y9580D01*
G37*
%LPD*%
%LPC*%
G36*
X716194Y9580D02*
X716194Y9580D01*
X715593Y9829D01*
X715076Y10226D01*
X714679Y10743D01*
X714430Y11344D01*
X714345Y11990D01*
X714345Y18490D01*
X714345Y18495D01*
X714346Y18495D01*
X714345Y18495D01*
X714346Y18500D01*
X714347Y18505D01*
X714347Y18509D01*
X714348Y18514D01*
X714349Y18519D01*
X714349Y18524D01*
X714350Y18528D01*
X714350Y18533D01*
X714351Y18533D01*
X714351Y18538D01*
X714352Y18543D01*
X714352Y18547D01*
X714353Y18552D01*
X714389Y18828D01*
X714390Y18832D01*
X714391Y18837D01*
X714391Y18842D01*
X714392Y18847D01*
X714392Y18851D01*
X714393Y18856D01*
X714394Y18861D01*
X714394Y18866D01*
X714395Y18870D01*
X714396Y18875D01*
X714396Y18880D01*
X714397Y18885D01*
X714397Y18889D01*
X714398Y18894D01*
X714399Y18899D01*
X714399Y18904D01*
X714400Y18908D01*
X714401Y18913D01*
X714401Y18918D01*
X714402Y18923D01*
X714402Y18927D01*
X714403Y18932D01*
X714404Y18937D01*
X714404Y18942D01*
X714405Y18946D01*
X714406Y18951D01*
X714406Y18956D01*
X714407Y18961D01*
X714407Y18965D01*
X714408Y18970D01*
X714409Y18975D01*
X714409Y18980D01*
X714430Y19136D01*
X714679Y19738D01*
X715076Y20254D01*
X715593Y20651D01*
X716194Y20900D01*
X716840Y20985D01*
X717486Y20900D01*
X718088Y20651D01*
X718604Y20254D01*
X719001Y19738D01*
X719250Y19136D01*
X719335Y18490D01*
X719335Y11990D01*
X719250Y11344D01*
X719001Y10743D01*
X718604Y10226D01*
X718088Y9829D01*
X717486Y9580D01*
X716840Y9495D01*
X716194Y9580D01*
G37*
%LPD*%
D10*
X809820Y440780D03*
X804820Y440780D03*
X799820Y440780D03*
X794820Y440780D03*
X789820Y440780D03*
X784820Y440780D03*
X779820Y440780D03*
X774820Y440780D03*
X769820Y440780D03*
X759820Y440780D03*
X754820Y440780D03*
D11*
X740320Y426280D03*
X740320Y421280D03*
X740320Y416280D03*
X740320Y411280D03*
X740320Y406280D03*
X740320Y401280D03*
X740320Y396280D03*
X740320Y391280D03*
X740320Y386280D03*
X740320Y381280D03*
X740320Y376280D03*
X740320Y371280D03*
D10*
X764820Y440780D03*
X754820Y357080D03*
X759820Y356780D03*
X764820Y356780D03*
X769820Y356780D03*
X774820Y356780D03*
X779820Y356780D03*
X784820Y356780D03*
X789820Y356780D03*
X794820Y356780D03*
X804820Y356780D03*
X809820Y356780D03*
X799820Y356780D03*
D11*
X824320Y371280D03*
X824320Y376280D03*
X824320Y381280D03*
X824320Y386280D03*
X824320Y391280D03*
X824320Y396280D03*
X824320Y401280D03*
X824320Y406280D03*
X824320Y411280D03*
X824320Y416280D03*
X824320Y421280D03*
X824320Y426280D03*
D12*
X817680Y472440D03*
X792680Y472440D03*
D13*
X716840Y22940D02*
X716840Y21240D01*
X786840Y9240D02*
X786840Y7540D01*
D14*
X738840Y42240D03*
X745340Y42240D03*
X751840Y42240D03*
X758340Y42240D03*
X764840Y42240D03*
D15*
X741840Y15240D03*
X761840Y15240D03*
D16*
X680720Y697340D03*
X680720Y679340D03*
X881380Y646320D03*
X881380Y664320D03*
D17*
X753220Y652780D03*
X735220Y652780D03*
X753220Y680720D03*
X735220Y680720D03*
D16*
X759460Y499000D03*
X759460Y517000D03*
X850900Y499000D03*
X850900Y517000D03*
X820420Y499000D03*
X820420Y517000D03*
X789940Y499000D03*
X789940Y517000D03*
X711200Y641240D03*
X711200Y659240D03*
X680720Y641240D03*
X680720Y659240D03*
X982980Y268080D03*
X982980Y250080D03*
X952500Y268080D03*
X952500Y250080D03*
X1013460Y250080D03*
X1013460Y268080D03*
M02*
