G04 EAGLE Gerber RS-274X export*
G75*
%MOMM*%
%FSLAX34Y34*%
%LPD*%
%INSoldermask Bottom*%
%IPPOS*%
%AMOC8*
5,1,8,0,0,1.08239X$1,22.5*%
G01*
%ADD10C,3.203200*%
%ADD11C,2.082800*%
%ADD12C,2.946400*%
%ADD13C,1.854200*%
%ADD14R,1.854200X1.854200*%
%ADD15R,2.082800X2.082800*%
%ADD16C,1.727200*%
%ADD17C,1.261200*%
%ADD18C,1.211200*%
%ADD19P,2.034460X8X292.500000*%
%ADD20C,0.959600*%


D10*
X25400Y25400D03*
X25400Y774700D03*
X1061720Y774700D03*
X1061720Y25400D03*
D11*
X1003300Y728980D03*
X1003300Y754380D03*
X1003300Y642620D03*
X1003300Y668020D03*
D12*
X358040Y624880D03*
X383440Y692360D03*
X408840Y624880D03*
X409040Y147280D03*
X383640Y79800D03*
X358240Y147280D03*
X167740Y147280D03*
X142340Y79800D03*
X116940Y147280D03*
X116740Y624880D03*
X142140Y692360D03*
X167540Y624880D03*
D13*
X937260Y673300D03*
D14*
X937260Y698300D03*
D11*
X922020Y754380D03*
X947420Y754380D03*
D15*
X820420Y698500D03*
D11*
X820420Y673100D03*
X820420Y647700D03*
D15*
X609600Y645160D03*
D11*
X609600Y670560D03*
X609600Y695960D03*
D16*
X969772Y386334D02*
X985012Y386334D01*
X985012Y431546D02*
X969772Y431546D01*
X919988Y386334D02*
X904748Y386334D01*
X904748Y431546D02*
X919988Y431546D01*
X612140Y459740D02*
X596900Y459740D01*
X596900Y434340D02*
X612140Y434340D01*
X612140Y408940D02*
X596900Y408940D01*
X596900Y383540D02*
X612140Y383540D01*
X612140Y358140D02*
X596900Y358140D01*
X1038860Y248920D02*
X1054100Y248920D01*
X1054100Y274320D02*
X1038860Y274320D01*
X1038860Y299720D02*
X1054100Y299720D01*
X1054100Y325120D02*
X1038860Y325120D01*
X896620Y254000D02*
X881380Y254000D01*
X881380Y228600D02*
X896620Y228600D01*
X896620Y203200D02*
X881380Y203200D01*
X881380Y177800D02*
X896620Y177800D01*
X896620Y152400D02*
X881380Y152400D01*
X617220Y152400D02*
X601980Y152400D01*
X601980Y177800D02*
X617220Y177800D01*
X617220Y203200D02*
X601980Y203200D01*
X601980Y228600D02*
X617220Y228600D01*
X617220Y254000D02*
X601980Y254000D01*
D11*
X647700Y383540D03*
X647700Y358140D03*
X1000760Y325120D03*
X1000760Y299720D03*
D17*
X732130Y42240D02*
X721550Y42240D01*
X771550Y42240D02*
X782130Y42240D01*
D18*
X716840Y20280D02*
X716840Y10200D01*
X786840Y10200D02*
X786840Y20280D01*
D19*
X962406Y551180D03*
X987806Y551180D03*
X962406Y525780D03*
X987806Y525780D03*
X962406Y500380D03*
X987806Y500380D03*
X962406Y474980D03*
X987806Y474980D03*
D20*
X772160Y473710D03*
X800140Y406280D03*
X824230Y359410D03*
X972820Y278130D03*
X788244Y303728D03*
X935990Y267970D03*
X778510Y303530D03*
X867410Y152400D03*
X745490Y331470D03*
X866775Y227965D03*
X767080Y303530D03*
X755650Y464820D03*
X711200Y457200D03*
M02*
